%TF.GenerationSoftware,KiCad,Pcbnew,7.0.1*%
%TF.CreationDate,2024-01-10T19:04:59-08:00*%
%TF.ProjectId,POWERCORE-V2.0_MOTHERBOARD,504f5745-5243-44f5-9245-2d56322e305f,rev?*%
%TF.SameCoordinates,PX791ddbePYb90347e*%
%TF.FileFunction,Drillmap*%
%TF.FilePolarity,Positive*%
%FSLAX45Y45*%
G04 Gerber Fmt 4.5, Leading zero omitted, Abs format (unit mm)*
G04 Created by KiCad (PCBNEW 7.0.1) date 2024-01-10 19:04:59*
%MOMM*%
%LPD*%
G01*
G04 APERTURE LIST*
%ADD10C,0.200000*%
%ADD11C,0.030480*%
%ADD12C,0.088900*%
%ADD13C,0.101600*%
%ADD14C,0.241300*%
G04 APERTURE END LIST*
D10*
X200000Y8700000D02*
G75*
G03*
X0Y8500000I0J-200000D01*
G01*
X15000000Y200000D02*
X15000000Y8500000D01*
X14800000Y8700000D02*
X200000Y8700000D01*
X14800000Y0D02*
G75*
G03*
X15000000Y200000I0J200000D01*
G01*
X0Y8500000D02*
X0Y200000D01*
X200000Y0D02*
X14800000Y0D01*
X15000000Y8500000D02*
G75*
G03*
X14800000Y8700000I-200000J0D01*
G01*
X0Y200000D02*
G75*
G03*
X200000Y0I200000J0D01*
G01*
D11*
X272660Y3421040D02*
X303140Y3390560D01*
X303140Y3421040D02*
X272660Y3390560D01*
X272660Y3061040D02*
X303140Y3030560D01*
X303140Y3061040D02*
X272660Y3030560D01*
X1534160Y4359340D02*
X1564640Y4328860D01*
X1564640Y4359340D02*
X1534160Y4328860D01*
X1584960Y676440D02*
X1615440Y645960D01*
X1615440Y676440D02*
X1584960Y645960D01*
X1648460Y2455140D02*
X1678940Y2424660D01*
X1678940Y2455140D02*
X1648460Y2424660D01*
X1673860Y6664440D02*
X1704340Y6633960D01*
X1704340Y6664440D02*
X1673860Y6633960D01*
X1673860Y6524740D02*
X1704340Y6494260D01*
X1704340Y6524740D02*
X1673860Y6494260D01*
X1673860Y6385040D02*
X1704340Y6354560D01*
X1704340Y6385040D02*
X1673860Y6354560D01*
X1673860Y6245340D02*
X1704340Y6214860D01*
X1704340Y6245340D02*
X1673860Y6214860D01*
X1673860Y6118340D02*
X1704340Y6087860D01*
X1704340Y6118340D02*
X1673860Y6087860D01*
X1737360Y7680440D02*
X1767840Y7649960D01*
X1767840Y7680440D02*
X1737360Y7649960D01*
X1737360Y7553440D02*
X1767840Y7522960D01*
X1767840Y7553440D02*
X1737360Y7522960D01*
X1737360Y7426440D02*
X1767840Y7395960D01*
X1767840Y7426440D02*
X1737360Y7395960D01*
X1762760Y5699240D02*
X1793240Y5668760D01*
X1793240Y5699240D02*
X1762760Y5668760D01*
X1826260Y7020040D02*
X1856740Y6989560D01*
X1856740Y7020040D02*
X1826260Y6989560D01*
X1826260Y6791440D02*
X1856740Y6760960D01*
X1856740Y6791440D02*
X1826260Y6760960D01*
X1877060Y4650740D02*
X1907540Y4620260D01*
X1907540Y4650740D02*
X1877060Y4620260D01*
X1915160Y2919240D02*
X1945640Y2888760D01*
X1945640Y2919240D02*
X1915160Y2888760D01*
X1915160Y2764240D02*
X1945640Y2733760D01*
X1945640Y2764240D02*
X1915160Y2733760D01*
X1915160Y3852140D02*
X1945640Y3821660D01*
X1945640Y3852140D02*
X1915160Y3821660D01*
X1940560Y7870940D02*
X1971040Y7840460D01*
X1971040Y7870940D02*
X1940560Y7840460D01*
X1953260Y7020040D02*
X1983740Y6989560D01*
X1983740Y7020040D02*
X1953260Y6989560D01*
X1953260Y6791440D02*
X1983740Y6760960D01*
X1983740Y6791440D02*
X1953260Y6760960D01*
X2032060Y4650740D02*
X2062540Y4620260D01*
X2062540Y4650740D02*
X2032060Y4620260D01*
X2067560Y7870940D02*
X2098040Y7840460D01*
X2098040Y7870940D02*
X2067560Y7840460D01*
X2092960Y7020040D02*
X2123440Y6989560D01*
X2123440Y7020040D02*
X2092960Y6989560D01*
X2092960Y6791440D02*
X2123440Y6760960D01*
X2123440Y6791440D02*
X2092960Y6760960D01*
X2188210Y4664190D02*
X2218690Y4633710D01*
X2218690Y4664190D02*
X2188210Y4633710D01*
X2194560Y7870940D02*
X2225040Y7840460D01*
X2225040Y7870940D02*
X2194560Y7840460D01*
X2218660Y2270240D02*
X2249140Y2239760D01*
X2249140Y2270240D02*
X2218660Y2239760D01*
X2219960Y1559040D02*
X2250440Y1528560D01*
X2250440Y1559040D02*
X2219960Y1528560D01*
X2232660Y7020040D02*
X2263140Y6989560D01*
X2263140Y7020040D02*
X2232660Y6989560D01*
X2232660Y6791440D02*
X2263140Y6760960D01*
X2263140Y6791440D02*
X2232660Y6760960D01*
X2372360Y7020040D02*
X2402840Y6989560D01*
X2402840Y7020040D02*
X2372360Y6989560D01*
X2372360Y6791440D02*
X2402840Y6760960D01*
X2402840Y6791440D02*
X2372360Y6760960D01*
X2373660Y2181340D02*
X2404140Y2150860D01*
X2404140Y2181340D02*
X2373660Y2150860D01*
X2373660Y1470140D02*
X2404140Y1439660D01*
X2404140Y1470140D02*
X2373660Y1439660D01*
X2373660Y2359140D02*
X2404140Y2328660D01*
X2404140Y2359140D02*
X2373660Y2328660D01*
X2373660Y1647940D02*
X2404140Y1617460D01*
X2404140Y1647940D02*
X2373660Y1617460D01*
X2385060Y5229340D02*
X2415540Y5198860D01*
X2415540Y5229340D02*
X2385060Y5198860D01*
X2397760Y7680440D02*
X2428240Y7649960D01*
X2428240Y7680440D02*
X2397760Y7649960D01*
X2397760Y7553440D02*
X2428240Y7522960D01*
X2428240Y7553440D02*
X2397760Y7522960D01*
X2397760Y7426440D02*
X2428240Y7395960D01*
X2428240Y7426440D02*
X2397760Y7395960D01*
X2486660Y3254340D02*
X2517140Y3223860D01*
X2517140Y3254340D02*
X2486660Y3223860D01*
X2613660Y5165840D02*
X2644140Y5135360D01*
X2644140Y5165840D02*
X2613660Y5135360D01*
X2613660Y4962640D02*
X2644140Y4932160D01*
X2644140Y4962640D02*
X2613660Y4932160D01*
X2715260Y4861040D02*
X2745740Y4830560D01*
X2745740Y4861040D02*
X2715260Y4830560D01*
X2734360Y771640D02*
X2764840Y741160D01*
X2764840Y771640D02*
X2734360Y741160D01*
X2816860Y4962640D02*
X2847340Y4932160D01*
X2847340Y4962640D02*
X2816860Y4932160D01*
X2816860Y1305040D02*
X2847340Y1274560D01*
X2847340Y1305040D02*
X2816860Y1274560D01*
X2816860Y1151340D02*
X2847340Y1120860D01*
X2847340Y1151340D02*
X2816860Y1120860D01*
X2867660Y631940D02*
X2898140Y601460D01*
X2898140Y631940D02*
X2867660Y601460D01*
X2918460Y5483340D02*
X2948940Y5452860D01*
X2948940Y5483340D02*
X2918460Y5452860D01*
X2918460Y5394440D02*
X2948940Y5363960D01*
X2948940Y5394440D02*
X2918460Y5363960D01*
X2918460Y4861040D02*
X2948940Y4830560D01*
X2948940Y4861040D02*
X2918460Y4830560D01*
X2918460Y3033540D02*
X2948940Y3003060D01*
X2948940Y3033540D02*
X2918460Y3003060D01*
X2918460Y2878540D02*
X2948940Y2848060D01*
X2948940Y2878540D02*
X2918460Y2848060D01*
X3020060Y4962640D02*
X3050540Y4932160D01*
X3050540Y4962640D02*
X3020060Y4932160D01*
X3108960Y3762540D02*
X3139440Y3732060D01*
X3139440Y3762540D02*
X3108960Y3732060D01*
X3121660Y4861040D02*
X3152140Y4830560D01*
X3152140Y4861040D02*
X3121660Y4830560D01*
X3223260Y5165840D02*
X3253740Y5135360D01*
X3253740Y5165840D02*
X3223260Y5135360D01*
X3223260Y4962640D02*
X3253740Y4932160D01*
X3253740Y4962640D02*
X3223260Y4932160D01*
X3223260Y771640D02*
X3253740Y741160D01*
X3253740Y771640D02*
X3223260Y741160D01*
X3229560Y949440D02*
X3260040Y918960D01*
X3260040Y949440D02*
X3229560Y918960D01*
X3235960Y2155940D02*
X3266440Y2125460D01*
X3266440Y2155940D02*
X3235960Y2125460D01*
X3235960Y1978140D02*
X3266440Y1947660D01*
X3266440Y1978140D02*
X3235960Y1947660D01*
X3286760Y4257740D02*
X3317240Y4227260D01*
X3317240Y4257740D02*
X3286760Y4227260D01*
X3324860Y2067040D02*
X3355340Y2036560D01*
X3355340Y2067040D02*
X3324860Y2036560D01*
X3375660Y5089640D02*
X3406140Y5059160D01*
X3406140Y5089640D02*
X3375660Y5059160D01*
X3375660Y4886440D02*
X3406140Y4855960D01*
X3406140Y4886440D02*
X3375660Y4855960D01*
X3375660Y4683240D02*
X3406140Y4652760D01*
X3406140Y4683240D02*
X3375660Y4652760D01*
X3413760Y2155940D02*
X3444240Y2125460D01*
X3444240Y2155940D02*
X3413760Y2125460D01*
X3413760Y1978140D02*
X3444240Y1947660D01*
X3444240Y1978140D02*
X3413760Y1947660D01*
X3426460Y3033540D02*
X3456940Y3003060D01*
X3456940Y3033540D02*
X3426460Y3003060D01*
X3426460Y2878540D02*
X3456940Y2848060D01*
X3456940Y2878540D02*
X3426460Y2848060D01*
X3451860Y4988040D02*
X3482340Y4957560D01*
X3482340Y4988040D02*
X3451860Y4957560D01*
X3451860Y4784840D02*
X3482340Y4754360D01*
X3482340Y4784840D02*
X3451860Y4754360D01*
X3464560Y3762540D02*
X3495040Y3732060D01*
X3495040Y3762540D02*
X3464560Y3732060D01*
X3540760Y1357140D02*
X3571240Y1326660D01*
X3571240Y1357140D02*
X3540760Y1326660D01*
X3540760Y1202140D02*
X3571240Y1171660D01*
X3571240Y1202140D02*
X3540760Y1171660D01*
X3794760Y5953240D02*
X3825240Y5922760D01*
X3825240Y5953240D02*
X3794760Y5922760D01*
X3858260Y8023340D02*
X3888740Y7992860D01*
X3888740Y8023340D02*
X3858260Y7992860D01*
X3858260Y7883640D02*
X3888740Y7853160D01*
X3888740Y7883640D02*
X3858260Y7853160D01*
X3858260Y7743940D02*
X3888740Y7713460D01*
X3888740Y7743940D02*
X3858260Y7713460D01*
X3858260Y7616940D02*
X3888740Y7586460D01*
X3888740Y7616940D02*
X3858260Y7586460D01*
X3858260Y7489940D02*
X3888740Y7459460D01*
X3888740Y7489940D02*
X3858260Y7459460D01*
X3858260Y7350240D02*
X3888740Y7319760D01*
X3888740Y7350240D02*
X3858260Y7319760D01*
X3858260Y7223240D02*
X3888740Y7192760D01*
X3888740Y7223240D02*
X3858260Y7192760D01*
X3858260Y6727940D02*
X3888740Y6697460D01*
X3888740Y6727940D02*
X3858260Y6697460D01*
X3858260Y6639040D02*
X3888740Y6608560D01*
X3888740Y6639040D02*
X3858260Y6608560D01*
X3858260Y6550140D02*
X3888740Y6519660D01*
X3888740Y6550140D02*
X3858260Y6519660D01*
X3921760Y5953240D02*
X3952240Y5922760D01*
X3952240Y5953240D02*
X3921760Y5922760D01*
X3953560Y3933940D02*
X3984040Y3903460D01*
X3984040Y3933940D02*
X3953560Y3903460D01*
X3953560Y3756140D02*
X3984040Y3725660D01*
X3984040Y3756140D02*
X3953560Y3725660D01*
X3953560Y3578340D02*
X3984040Y3547860D01*
X3984040Y3578340D02*
X3953560Y3547860D01*
X3953560Y2867140D02*
X3984040Y2836660D01*
X3984040Y2867140D02*
X3953560Y2836660D01*
X3997960Y2562340D02*
X4028440Y2531860D01*
X4028440Y2562340D02*
X3997960Y2531860D01*
X4048760Y5953240D02*
X4079240Y5922760D01*
X4079240Y5953240D02*
X4048760Y5922760D01*
X4174460Y1787640D02*
X4204940Y1757160D01*
X4204940Y1787640D02*
X4174460Y1757160D01*
X4174460Y1432040D02*
X4204940Y1401560D01*
X4204940Y1432040D02*
X4174460Y1401560D01*
X4174460Y1965440D02*
X4204940Y1934960D01*
X4204940Y1965440D02*
X4174460Y1934960D01*
X4175760Y5953240D02*
X4206240Y5922760D01*
X4206240Y5953240D02*
X4175760Y5922760D01*
X4283760Y3044940D02*
X4314240Y3014460D01*
X4314240Y3044940D02*
X4283760Y3014460D01*
X4302760Y5953240D02*
X4333240Y5922760D01*
X4333240Y5953240D02*
X4302760Y5922760D01*
X4328160Y1876540D02*
X4358640Y1846060D01*
X4358640Y1876540D02*
X4328160Y1846060D01*
X4329460Y1432040D02*
X4359940Y1401560D01*
X4359940Y1432040D02*
X4329460Y1401560D01*
X4455160Y8023340D02*
X4485640Y7992860D01*
X4485640Y8023340D02*
X4455160Y7992860D01*
X4455160Y7883640D02*
X4485640Y7853160D01*
X4485640Y7883640D02*
X4455160Y7853160D01*
X4455160Y7743940D02*
X4485640Y7713460D01*
X4485640Y7743940D02*
X4455160Y7713460D01*
X4455160Y7616940D02*
X4485640Y7586460D01*
X4485640Y7616940D02*
X4455160Y7586460D01*
X4455160Y7489940D02*
X4485640Y7459460D01*
X4485640Y7489940D02*
X4455160Y7459460D01*
X4455160Y7350240D02*
X4485640Y7319760D01*
X4485640Y7350240D02*
X4455160Y7319760D01*
X4455160Y7223240D02*
X4485640Y7192760D01*
X4485640Y7223240D02*
X4455160Y7192760D01*
X4455160Y6727940D02*
X4485640Y6697460D01*
X4485640Y6727940D02*
X4455160Y6697460D01*
X4455160Y6639040D02*
X4485640Y6608560D01*
X4485640Y6639040D02*
X4455160Y6608560D01*
X4455160Y6550140D02*
X4485640Y6519660D01*
X4485640Y6550140D02*
X4455160Y6519660D01*
X4589660Y4289540D02*
X4620140Y4259060D01*
X4620140Y4289540D02*
X4589660Y4259060D01*
X4709160Y3654540D02*
X4739640Y3624060D01*
X4739640Y3654540D02*
X4709160Y3624060D01*
X4874260Y3959340D02*
X4904740Y3928860D01*
X4904740Y3959340D02*
X4874260Y3928860D01*
X5032260Y2117840D02*
X5062740Y2087360D01*
X5062740Y2117840D02*
X5032260Y2087360D01*
X5090160Y3959340D02*
X5120640Y3928860D01*
X5120640Y3959340D02*
X5090160Y3928860D01*
X5186060Y3959340D02*
X5216540Y3928860D01*
X5216540Y3959340D02*
X5186060Y3928860D01*
X5254548Y5635740D02*
X5285028Y5605260D01*
X5285028Y5635740D02*
X5254548Y5605260D01*
X5318760Y5381740D02*
X5349240Y5351260D01*
X5349240Y5381740D02*
X5318760Y5351260D01*
X5331460Y4289540D02*
X5361940Y4259060D01*
X5361940Y4289540D02*
X5331460Y4259060D01*
X5471160Y1317740D02*
X5501640Y1287260D01*
X5501640Y1317740D02*
X5471160Y1287260D01*
X5471160Y1063740D02*
X5501640Y1033260D01*
X5501640Y1063740D02*
X5471160Y1033260D01*
X5776860Y3658840D02*
X5807340Y3628360D01*
X5807340Y3658840D02*
X5776860Y3628360D01*
X5954660Y3658840D02*
X5985140Y3628360D01*
X5985140Y3658840D02*
X5954660Y3628360D01*
X6106160Y1952740D02*
X6136640Y1922260D01*
X6136640Y1952740D02*
X6106160Y1922260D01*
X6106160Y1774940D02*
X6136640Y1744460D01*
X6136640Y1774940D02*
X6106160Y1744460D01*
X6106160Y1597140D02*
X6136640Y1566660D01*
X6136640Y1597140D02*
X6106160Y1566660D01*
X6106160Y1316440D02*
X6136640Y1285960D01*
X6136640Y1316440D02*
X6106160Y1285960D01*
X6195060Y1863840D02*
X6225540Y1833360D01*
X6225540Y1863840D02*
X6195060Y1833360D01*
X6195060Y1686040D02*
X6225540Y1655560D01*
X6225540Y1686040D02*
X6195060Y1655560D01*
X6283960Y1952740D02*
X6314440Y1922260D01*
X6314440Y1952740D02*
X6283960Y1922260D01*
X6283960Y1774940D02*
X6314440Y1744460D01*
X6314440Y1774940D02*
X6283960Y1744460D01*
X6283960Y1597140D02*
X6314440Y1566660D01*
X6314440Y1597140D02*
X6283960Y1566660D01*
X6283960Y1316440D02*
X6314440Y1285960D01*
X6314440Y1316440D02*
X6283960Y1285960D01*
X6283960Y1141240D02*
X6314440Y1110760D01*
X6314440Y1141240D02*
X6283960Y1110760D01*
X6525260Y2308340D02*
X6555740Y2277860D01*
X6555740Y2308340D02*
X6525260Y2277860D01*
X6728460Y835140D02*
X6758940Y804660D01*
X6758940Y835140D02*
X6728460Y804660D01*
X6728460Y708140D02*
X6758940Y677660D01*
X6758940Y708140D02*
X6728460Y677660D01*
X6728460Y581140D02*
X6758940Y550660D01*
X6758940Y581140D02*
X6728460Y550660D01*
X7020560Y1393940D02*
X7051040Y1363460D01*
X7051040Y1393940D02*
X7020560Y1363460D01*
X7020560Y1216140D02*
X7051040Y1185660D01*
X7051040Y1216140D02*
X7020560Y1185660D01*
X7020560Y1051040D02*
X7051040Y1020560D01*
X7051040Y1051040D02*
X7020560Y1020560D01*
X7084060Y3870440D02*
X7114540Y3839960D01*
X7114540Y3870440D02*
X7084060Y3839960D01*
X7147560Y3527540D02*
X7178040Y3497060D01*
X7178040Y3527540D02*
X7147560Y3497060D01*
X7185660Y1393940D02*
X7216140Y1363460D01*
X7216140Y1393940D02*
X7185660Y1363460D01*
X7185660Y1216140D02*
X7216140Y1185660D01*
X7216140Y1216140D02*
X7185660Y1185660D01*
X7185660Y1051040D02*
X7216140Y1020560D01*
X7216140Y1051040D02*
X7185660Y1020560D01*
X7350760Y1393940D02*
X7381240Y1363460D01*
X7381240Y1393940D02*
X7350760Y1363460D01*
X7350760Y1216140D02*
X7381240Y1185660D01*
X7381240Y1216140D02*
X7350760Y1185660D01*
X7350760Y1051040D02*
X7381240Y1020560D01*
X7381240Y1051040D02*
X7350760Y1020560D01*
X7419810Y3826790D02*
X7450290Y3796310D01*
X7450290Y3826790D02*
X7419810Y3796310D01*
X7426960Y3527540D02*
X7457440Y3497060D01*
X7457440Y3527540D02*
X7426960Y3497060D01*
X7490460Y1787640D02*
X7520940Y1757160D01*
X7520940Y1787640D02*
X7490460Y1757160D01*
X7490460Y1609840D02*
X7520940Y1579360D01*
X7520940Y1609840D02*
X7490460Y1579360D01*
X7579360Y1698740D02*
X7609840Y1668260D01*
X7609840Y1698740D02*
X7579360Y1668260D01*
X7655560Y3869640D02*
X7686040Y3839160D01*
X7686040Y3869640D02*
X7655560Y3839160D01*
X7668260Y1787640D02*
X7698740Y1757160D01*
X7698740Y1787640D02*
X7668260Y1757160D01*
X7668260Y1609840D02*
X7698740Y1579360D01*
X7698740Y1609840D02*
X7668260Y1579360D01*
X7737060Y5947940D02*
X7767540Y5917460D01*
X7767540Y5947940D02*
X7737060Y5917460D01*
X7782560Y1698740D02*
X7813040Y1668260D01*
X7813040Y1698740D02*
X7782560Y1668260D01*
X7833360Y3704640D02*
X7863840Y3674160D01*
X7863840Y3704640D02*
X7833360Y3674160D01*
X7858760Y1787640D02*
X7889240Y1757160D01*
X7889240Y1787640D02*
X7858760Y1757160D01*
X7858760Y1609840D02*
X7889240Y1579360D01*
X7889240Y1609840D02*
X7858760Y1579360D01*
X7865160Y2549640D02*
X7895640Y2519160D01*
X7895640Y2549640D02*
X7865160Y2519160D01*
X7909560Y4563140D02*
X7940040Y4532660D01*
X7940040Y4563140D02*
X7909560Y4532660D01*
X8011160Y6467540D02*
X8041640Y6437060D01*
X8041640Y6467540D02*
X8011160Y6437060D01*
X8315960Y5889740D02*
X8346440Y5859260D01*
X8346440Y5889740D02*
X8315960Y5859260D01*
X8468360Y5889740D02*
X8498840Y5859260D01*
X8498840Y5889740D02*
X8468360Y5859260D01*
X8582660Y7089890D02*
X8613140Y7059410D01*
X8613140Y7089890D02*
X8582660Y7059410D01*
X8582660Y6950190D02*
X8613140Y6919710D01*
X8613140Y6950190D02*
X8582660Y6919710D01*
X8595360Y5889740D02*
X8625840Y5859260D01*
X8625840Y5889740D02*
X8595360Y5859260D01*
X8696960Y2409940D02*
X8727440Y2379460D01*
X8727440Y2409940D02*
X8696960Y2379460D01*
X8722360Y1051040D02*
X8752840Y1020560D01*
X8752840Y1051040D02*
X8722360Y1020560D01*
X8722360Y847840D02*
X8752840Y817360D01*
X8752840Y847840D02*
X8722360Y817360D01*
X8722360Y644640D02*
X8752840Y614160D01*
X8752840Y644640D02*
X8722360Y614160D01*
X8735060Y5889740D02*
X8765540Y5859260D01*
X8765540Y5889740D02*
X8735060Y5859260D01*
X8823960Y1152640D02*
X8854440Y1122160D01*
X8854440Y1152640D02*
X8823960Y1122160D01*
X8823960Y949440D02*
X8854440Y918960D01*
X8854440Y949440D02*
X8823960Y918960D01*
X8823960Y746240D02*
X8854440Y715760D01*
X8854440Y746240D02*
X8823960Y715760D01*
X8823960Y543040D02*
X8854440Y512560D01*
X8854440Y543040D02*
X8823960Y512560D01*
X8862060Y5889740D02*
X8892540Y5859260D01*
X8892540Y5889740D02*
X8862060Y5859260D01*
X8925560Y3603740D02*
X8956040Y3573260D01*
X8956040Y3603740D02*
X8925560Y3573260D01*
X9001760Y5889740D02*
X9032240Y5859260D01*
X9032240Y5889740D02*
X9001760Y5859260D01*
X9014460Y6486640D02*
X9044940Y6456160D01*
X9044940Y6486640D02*
X9014460Y6456160D01*
X9027160Y1152640D02*
X9057640Y1122160D01*
X9057640Y1152640D02*
X9027160Y1122160D01*
X9027160Y543040D02*
X9057640Y512560D01*
X9057640Y543040D02*
X9027160Y512560D01*
X9046260Y3845040D02*
X9076740Y3814560D01*
X9076740Y3845040D02*
X9046260Y3814560D01*
X9051260Y3362440D02*
X9081740Y3331960D01*
X9081740Y3362440D02*
X9051260Y3331960D01*
X9122460Y7020040D02*
X9152940Y6989560D01*
X9152940Y7020040D02*
X9122460Y6989560D01*
X9128760Y5889740D02*
X9159240Y5859260D01*
X9159240Y5889740D02*
X9128760Y5859260D01*
X9206260Y3273540D02*
X9236740Y3243060D01*
X9236740Y3273540D02*
X9206260Y3243060D01*
X9255760Y5889740D02*
X9286240Y5859260D01*
X9286240Y5889740D02*
X9255760Y5859260D01*
X9395460Y5889740D02*
X9425940Y5859260D01*
X9425940Y5889740D02*
X9395460Y5859260D01*
X9408160Y4417840D02*
X9438640Y4387360D01*
X9438640Y4417840D02*
X9408160Y4387360D01*
X9408160Y4262840D02*
X9438640Y4232360D01*
X9438640Y4262840D02*
X9408160Y4232360D01*
X9419560Y3845040D02*
X9450040Y3814560D01*
X9450040Y3845040D02*
X9419560Y3814560D01*
X9535160Y2790940D02*
X9565640Y2760460D01*
X9565640Y2790940D02*
X9535160Y2760460D01*
X9535160Y2486140D02*
X9565640Y2455660D01*
X9565640Y2486140D02*
X9535160Y2455660D01*
X9574560Y3845040D02*
X9605040Y3814560D01*
X9605040Y3845040D02*
X9574560Y3814560D01*
X9584660Y4619740D02*
X9615140Y4589260D01*
X9615140Y4619740D02*
X9584660Y4589260D01*
X9585960Y7674640D02*
X9616440Y7644160D01*
X9616440Y7674640D02*
X9585960Y7644160D01*
X9585960Y7519640D02*
X9616440Y7489160D01*
X9616440Y7519640D02*
X9585960Y7489160D01*
X9598660Y3438640D02*
X9629140Y3408160D01*
X9629140Y3438640D02*
X9598660Y3408160D01*
X9687560Y4137140D02*
X9718040Y4106660D01*
X9718040Y4137140D02*
X9687560Y4106660D01*
X9687560Y3324340D02*
X9718040Y3293860D01*
X9718040Y3324340D02*
X9687560Y3293860D01*
X9687560Y2562340D02*
X9718040Y2531860D01*
X9718040Y2562340D02*
X9687560Y2531860D01*
X9739660Y4619740D02*
X9770140Y4589260D01*
X9770140Y4619740D02*
X9739660Y4589260D01*
X9787860Y3845040D02*
X9818340Y3814560D01*
X9818340Y3845040D02*
X9787860Y3814560D01*
X9804660Y6651740D02*
X9835140Y6621260D01*
X9835140Y6651740D02*
X9804660Y6621260D01*
X9903460Y4772140D02*
X9933940Y4741660D01*
X9933940Y4772140D02*
X9903460Y4741660D01*
X9940260Y4416540D02*
X9970740Y4386060D01*
X9970740Y4416540D02*
X9940260Y4386060D01*
X9942860Y3845040D02*
X9973340Y3814560D01*
X9973340Y3845040D02*
X9942860Y3814560D01*
X9958360Y7028640D02*
X9988840Y6998160D01*
X9988840Y7028640D02*
X9958360Y6998160D01*
X9959660Y6651740D02*
X9990140Y6621260D01*
X9990140Y6651740D02*
X9959660Y6621260D01*
X9966960Y3438640D02*
X9997440Y3408160D01*
X9997440Y3438640D02*
X9966960Y3408160D01*
X9992360Y5648440D02*
X10022840Y5617960D01*
X10022840Y5648440D02*
X9992360Y5617960D01*
X9992360Y5369040D02*
X10022840Y5338560D01*
X10022840Y5369040D02*
X9992360Y5338560D01*
X10005060Y4632440D02*
X10035540Y4601960D01*
X10035540Y4632440D02*
X10005060Y4601960D01*
X10095260Y4416540D02*
X10125740Y4386060D01*
X10125740Y4416540D02*
X10095260Y4386060D01*
X10398760Y5953240D02*
X10429240Y5922760D01*
X10429240Y5953240D02*
X10398760Y5922760D01*
X10513060Y5546840D02*
X10543540Y5516360D01*
X10543540Y5546840D02*
X10513060Y5516360D01*
X10513060Y5356340D02*
X10543540Y5325860D01*
X10543540Y5356340D02*
X10513060Y5325860D01*
X10538460Y4670540D02*
X10568940Y4640060D01*
X10568940Y4670540D02*
X10538460Y4640060D01*
X10627360Y3375140D02*
X10657840Y3344660D01*
X10657840Y3375140D02*
X10627360Y3344660D01*
X10678160Y3527540D02*
X10708640Y3497060D01*
X10708640Y3527540D02*
X10678160Y3497060D01*
X11173460Y5305540D02*
X11203940Y5275060D01*
X11203940Y5305540D02*
X11173460Y5275060D01*
X11478260Y1152640D02*
X11508740Y1122160D01*
X11508740Y1152640D02*
X11478260Y1122160D01*
X11478260Y543040D02*
X11508740Y512560D01*
X11508740Y543040D02*
X11478260Y512560D01*
X11675160Y4734040D02*
X11705640Y4703560D01*
X11705640Y4734040D02*
X11675160Y4703560D01*
X11681460Y1152640D02*
X11711940Y1122160D01*
X11711940Y1152640D02*
X11681460Y1122160D01*
X11681460Y949440D02*
X11711940Y918960D01*
X11711940Y949440D02*
X11681460Y918960D01*
X11681460Y746240D02*
X11711940Y715760D01*
X11711940Y746240D02*
X11681460Y715760D01*
X11681460Y543040D02*
X11711940Y512560D01*
X11711940Y543040D02*
X11681460Y512560D01*
X11706860Y6423140D02*
X11737340Y6392660D01*
X11737340Y6423140D02*
X11706860Y6392660D01*
X11713160Y6767340D02*
X11743640Y6736860D01*
X11743640Y6767340D02*
X11713160Y6736860D01*
X11770360Y5369040D02*
X11800840Y5338560D01*
X11800840Y5369040D02*
X11770360Y5338560D01*
X11783060Y1051040D02*
X11813540Y1020560D01*
X11813540Y1051040D02*
X11783060Y1020560D01*
X11783060Y847840D02*
X11813540Y817360D01*
X11813540Y847840D02*
X11783060Y817360D01*
X11783060Y644640D02*
X11813540Y614160D01*
X11813540Y644640D02*
X11783060Y614160D01*
X11871410Y5857740D02*
X11901890Y5827260D01*
X11901890Y5857740D02*
X11871410Y5827260D01*
X11871410Y5667740D02*
X11901890Y5637260D01*
X11901890Y5667740D02*
X11871410Y5637260D01*
X11908760Y6423140D02*
X11939240Y6392660D01*
X11939240Y6423140D02*
X11908760Y6392660D01*
X12075160Y5845240D02*
X12105640Y5814760D01*
X12105640Y5845240D02*
X12075160Y5814760D01*
X12176760Y6423140D02*
X12207240Y6392660D01*
X12207240Y6423140D02*
X12176760Y6392660D01*
X12289760Y5318240D02*
X12320240Y5287760D01*
X12320240Y5318240D02*
X12289760Y5287760D01*
X12443460Y4467340D02*
X12473940Y4436860D01*
X12473940Y4467340D02*
X12443460Y4436860D01*
X12449760Y4734040D02*
X12480240Y4703560D01*
X12480240Y4734040D02*
X12449760Y4703560D01*
X12532360Y5318240D02*
X12562840Y5287760D01*
X12562840Y5318240D02*
X12532360Y5287760D01*
X12602260Y6258040D02*
X12632740Y6227560D01*
X12632740Y6258040D02*
X12602260Y6227560D01*
X12614960Y5673840D02*
X12645440Y5643360D01*
X12645440Y5673840D02*
X12614960Y5643360D01*
X12621260Y7127940D02*
X12651740Y7097460D01*
X12651740Y7127940D02*
X12621260Y7097460D01*
X12752360Y4980940D02*
X12782840Y4950460D01*
X12782840Y4980940D02*
X12752360Y4950460D01*
X12799060Y3718040D02*
X12829540Y3687560D01*
X12829540Y3718040D02*
X12799060Y3687560D01*
X12932360Y7337540D02*
X12962840Y7307060D01*
X12962840Y7337540D02*
X12932360Y7307060D01*
X12932360Y6791440D02*
X12962840Y6760960D01*
X12962840Y6791440D02*
X12932360Y6760960D01*
X12938760Y3718040D02*
X12969240Y3687560D01*
X12969240Y3718040D02*
X12938760Y3687560D01*
X12964160Y5775440D02*
X12994640Y5744960D01*
X12994640Y5775440D02*
X12964160Y5744960D01*
X13065760Y3718040D02*
X13096240Y3687560D01*
X13096240Y3718040D02*
X13065760Y3687560D01*
X13091160Y6156440D02*
X13121640Y6125960D01*
X13121640Y6156440D02*
X13091160Y6125960D01*
X13192760Y3718040D02*
X13223240Y3687560D01*
X13223240Y3718040D02*
X13192760Y3687560D01*
X13294360Y3718040D02*
X13324840Y3687560D01*
X13324840Y3718040D02*
X13294360Y3687560D01*
X13395960Y3718040D02*
X13426440Y3687560D01*
X13426440Y3718040D02*
X13395960Y3687560D01*
X13497560Y3718040D02*
X13528040Y3687560D01*
X13528040Y3718040D02*
X13497560Y3687560D01*
X13700760Y7629640D02*
X13731240Y7599160D01*
X13731240Y7629640D02*
X13700760Y7599160D01*
X13700760Y7451840D02*
X13731240Y7421360D01*
X13731240Y7451840D02*
X13700760Y7421360D01*
X13700760Y6727940D02*
X13731240Y6697460D01*
X13731240Y6727940D02*
X13700760Y6697460D01*
X13700760Y6499340D02*
X13731240Y6468860D01*
X13731240Y6499340D02*
X13700760Y6468860D01*
X13815060Y7540740D02*
X13845540Y7510260D01*
X13845540Y7540740D02*
X13815060Y7510260D01*
X13815060Y6613640D02*
X13845540Y6583160D01*
X13845540Y6613640D02*
X13815060Y6583160D01*
X13891260Y6969240D02*
X13921740Y6938760D01*
X13921740Y6969240D02*
X13891260Y6938760D01*
X13928060Y7629640D02*
X13958540Y7599160D01*
X13958540Y7629640D02*
X13928060Y7599160D01*
X13928060Y7451840D02*
X13958540Y7421360D01*
X13958540Y7451840D02*
X13928060Y7421360D01*
X13929360Y6727940D02*
X13959840Y6697460D01*
X13959840Y6727940D02*
X13929360Y6697460D01*
X13929360Y6499340D02*
X13959840Y6468860D01*
X13959840Y6499340D02*
X13929360Y6468860D01*
X14081760Y7451840D02*
X14112240Y7421360D01*
X14112240Y7451840D02*
X14081760Y7421360D01*
X14081760Y6499340D02*
X14112240Y6468860D01*
X14112240Y6499340D02*
X14081760Y6468860D01*
X14083060Y7629640D02*
X14113540Y7599160D01*
X14113540Y7629640D02*
X14083060Y7599160D01*
X14475460Y7108940D02*
X14505940Y7078460D01*
X14505940Y7108940D02*
X14475460Y7078460D01*
X14475460Y6829540D02*
X14505940Y6799060D01*
X14505940Y6829540D02*
X14475460Y6799060D01*
X14526260Y6969240D02*
X14556740Y6938760D01*
X14556740Y6969240D02*
X14526260Y6938760D01*
X14577060Y7108940D02*
X14607540Y7078460D01*
X14607540Y7108940D02*
X14577060Y7078460D01*
X14577060Y6829540D02*
X14607540Y6799060D01*
X14607540Y6829540D02*
X14577060Y6799060D01*
D12*
X705882Y5639206D02*
G75*
G03*
X705882Y5639206I-44450J0D01*
G01*
X705882Y5389206D02*
G75*
G03*
X705882Y5389206I-44450J0D01*
G01*
X705882Y4110000D02*
G75*
G03*
X705882Y4110000I-44450J0D01*
G01*
X705882Y3860000D02*
G75*
G03*
X705882Y3860000I-44450J0D01*
G01*
X705882Y2580800D02*
G75*
G03*
X705882Y2580800I-44450J0D01*
G01*
X705882Y2330800D02*
G75*
G03*
X705882Y2330800I-44450J0D01*
G01*
D13*
X791800Y7809300D02*
X791800Y7707700D01*
X741000Y7758500D02*
X842600Y7758500D01*
X791800Y7509300D02*
X791800Y7407700D01*
X741000Y7458500D02*
X842600Y7458500D01*
X791800Y7209300D02*
X791800Y7107700D01*
X741000Y7158500D02*
X842600Y7158500D01*
X791800Y6909300D02*
X791800Y6807700D01*
X741000Y6858500D02*
X842600Y6858500D01*
X1091800Y7809300D02*
X1091800Y7707700D01*
X1041000Y7758500D02*
X1142600Y7758500D01*
X1091800Y7509300D02*
X1091800Y7407700D01*
X1041000Y7458500D02*
X1142600Y7458500D01*
X1091800Y7209300D02*
X1091800Y7107700D01*
X1041000Y7158500D02*
X1142600Y7158500D01*
X1091800Y6909300D02*
X1091800Y6807700D01*
X1041000Y6858500D02*
X1142600Y6858500D01*
X9626600Y2090968D02*
X9626600Y1989368D01*
X9575800Y2040168D02*
X9677400Y2040168D01*
X9626600Y1590968D02*
X9626600Y1489368D01*
X9575800Y1540168D02*
X9677400Y1540168D01*
X10896600Y2090968D02*
X10896600Y1989368D01*
X10845800Y2040168D02*
X10947400Y2040168D01*
X10896600Y1590968D02*
X10896600Y1489368D01*
X10845800Y1540168D02*
X10947400Y1540168D01*
X12738100Y2078268D02*
X12738100Y1976668D01*
X12687300Y2027468D02*
X12788900Y2027468D01*
X12738100Y1578268D02*
X12738100Y1476668D01*
X12687300Y1527468D02*
X12788900Y1527468D01*
X13803725Y3636900D02*
X13803725Y3535300D01*
X13752925Y3586100D02*
X13854525Y3586100D01*
X13803725Y3336900D02*
X13803725Y3235300D01*
X13752925Y3286100D02*
X13854525Y3286100D01*
X13970000Y2078268D02*
X13970000Y1976668D01*
X13919200Y2027468D02*
X14020800Y2027468D01*
X13970000Y1578268D02*
X13970000Y1476668D01*
X13919200Y1527468D02*
X14020800Y1527468D01*
X14103725Y3636900D02*
X14103725Y3535300D01*
X14052925Y3586100D02*
X14154525Y3586100D01*
X14103725Y3336900D02*
X14103725Y3235300D01*
X14052925Y3286100D02*
X14154525Y3286100D01*
D14*
X445313Y7888667D02*
X445313Y8059293D01*
X274687Y8059293D01*
X274687Y7888667D01*
X445313Y7888667D01*
X445313Y6557707D02*
X445313Y6728333D01*
X274687Y6728333D01*
X274687Y6557707D01*
X445313Y6557707D01*
D10*
X237619Y-322524D02*
X237619Y-122524D01*
X237619Y-122524D02*
X285238Y-122524D01*
X285238Y-122524D02*
X313810Y-132048D01*
X313810Y-132048D02*
X332857Y-151095D01*
X332857Y-151095D02*
X342381Y-170143D01*
X342381Y-170143D02*
X351905Y-208238D01*
X351905Y-208238D02*
X351905Y-236809D01*
X351905Y-236809D02*
X342381Y-274905D01*
X342381Y-274905D02*
X332857Y-293952D01*
X332857Y-293952D02*
X313810Y-313000D01*
X313810Y-313000D02*
X285238Y-322524D01*
X285238Y-322524D02*
X237619Y-322524D01*
X437619Y-322524D02*
X437619Y-189190D01*
X437619Y-227286D02*
X447143Y-208238D01*
X447143Y-208238D02*
X456667Y-198714D01*
X456667Y-198714D02*
X475714Y-189190D01*
X475714Y-189190D02*
X494762Y-189190D01*
X561429Y-322524D02*
X561429Y-189190D01*
X561429Y-122524D02*
X551905Y-132048D01*
X551905Y-132048D02*
X561429Y-141571D01*
X561429Y-141571D02*
X570952Y-132048D01*
X570952Y-132048D02*
X561429Y-122524D01*
X561429Y-122524D02*
X561429Y-141571D01*
X685238Y-322524D02*
X666190Y-313000D01*
X666190Y-313000D02*
X656667Y-293952D01*
X656667Y-293952D02*
X656667Y-122524D01*
X790000Y-322524D02*
X770952Y-313000D01*
X770952Y-313000D02*
X761428Y-293952D01*
X761428Y-293952D02*
X761428Y-122524D01*
X1018571Y-322524D02*
X1018571Y-122524D01*
X1018571Y-122524D02*
X1085238Y-265381D01*
X1085238Y-265381D02*
X1151905Y-122524D01*
X1151905Y-122524D02*
X1151905Y-322524D01*
X1332857Y-322524D02*
X1332857Y-217762D01*
X1332857Y-217762D02*
X1323333Y-198714D01*
X1323333Y-198714D02*
X1304286Y-189190D01*
X1304286Y-189190D02*
X1266190Y-189190D01*
X1266190Y-189190D02*
X1247143Y-198714D01*
X1332857Y-313000D02*
X1313810Y-322524D01*
X1313810Y-322524D02*
X1266190Y-322524D01*
X1266190Y-322524D02*
X1247143Y-313000D01*
X1247143Y-313000D02*
X1237619Y-293952D01*
X1237619Y-293952D02*
X1237619Y-274905D01*
X1237619Y-274905D02*
X1247143Y-255857D01*
X1247143Y-255857D02*
X1266190Y-246333D01*
X1266190Y-246333D02*
X1313810Y-246333D01*
X1313810Y-246333D02*
X1332857Y-236809D01*
X1428095Y-189190D02*
X1428095Y-389190D01*
X1428095Y-198714D02*
X1447143Y-189190D01*
X1447143Y-189190D02*
X1485238Y-189190D01*
X1485238Y-189190D02*
X1504286Y-198714D01*
X1504286Y-198714D02*
X1513809Y-208238D01*
X1513809Y-208238D02*
X1523333Y-227286D01*
X1523333Y-227286D02*
X1523333Y-284429D01*
X1523333Y-284429D02*
X1513809Y-303476D01*
X1513809Y-303476D02*
X1504286Y-313000D01*
X1504286Y-313000D02*
X1485238Y-322524D01*
X1485238Y-322524D02*
X1447143Y-322524D01*
X1447143Y-322524D02*
X1428095Y-313000D01*
X1609048Y-303476D02*
X1618571Y-313000D01*
X1618571Y-313000D02*
X1609048Y-322524D01*
X1609048Y-322524D02*
X1599524Y-313000D01*
X1599524Y-313000D02*
X1609048Y-303476D01*
X1609048Y-303476D02*
X1609048Y-322524D01*
X1609048Y-198714D02*
X1618571Y-208238D01*
X1618571Y-208238D02*
X1609048Y-217762D01*
X1609048Y-217762D02*
X1599524Y-208238D01*
X1599524Y-208238D02*
X1609048Y-198714D01*
X1609048Y-198714D02*
X1609048Y-217762D01*
D11*
X-40480Y-634760D02*
X-10000Y-665240D01*
X-10000Y-634760D02*
X-40480Y-665240D01*
D10*
X275714Y-542524D02*
X294762Y-542524D01*
X294762Y-542524D02*
X313810Y-552048D01*
X313810Y-552048D02*
X323333Y-561571D01*
X323333Y-561571D02*
X332857Y-580619D01*
X332857Y-580619D02*
X342381Y-618714D01*
X342381Y-618714D02*
X342381Y-666333D01*
X342381Y-666333D02*
X332857Y-704428D01*
X332857Y-704428D02*
X323333Y-723476D01*
X323333Y-723476D02*
X313810Y-733000D01*
X313810Y-733000D02*
X294762Y-742524D01*
X294762Y-742524D02*
X275714Y-742524D01*
X275714Y-742524D02*
X256667Y-733000D01*
X256667Y-733000D02*
X247143Y-723476D01*
X247143Y-723476D02*
X237619Y-704428D01*
X237619Y-704428D02*
X228095Y-666333D01*
X228095Y-666333D02*
X228095Y-618714D01*
X228095Y-618714D02*
X237619Y-580619D01*
X237619Y-580619D02*
X247143Y-561571D01*
X247143Y-561571D02*
X256667Y-552048D01*
X256667Y-552048D02*
X275714Y-542524D01*
X428095Y-723476D02*
X437619Y-733000D01*
X437619Y-733000D02*
X428095Y-742524D01*
X428095Y-742524D02*
X418571Y-733000D01*
X418571Y-733000D02*
X428095Y-723476D01*
X428095Y-723476D02*
X428095Y-742524D01*
X504286Y-542524D02*
X628095Y-542524D01*
X628095Y-542524D02*
X561429Y-618714D01*
X561429Y-618714D02*
X590000Y-618714D01*
X590000Y-618714D02*
X609048Y-628238D01*
X609048Y-628238D02*
X618571Y-637762D01*
X618571Y-637762D02*
X628095Y-656810D01*
X628095Y-656810D02*
X628095Y-704428D01*
X628095Y-704428D02*
X618571Y-723476D01*
X618571Y-723476D02*
X609048Y-733000D01*
X609048Y-733000D02*
X590000Y-742524D01*
X590000Y-742524D02*
X532857Y-742524D01*
X532857Y-742524D02*
X513809Y-733000D01*
X513809Y-733000D02*
X504286Y-723476D01*
X751905Y-542524D02*
X770952Y-542524D01*
X770952Y-542524D02*
X790000Y-552048D01*
X790000Y-552048D02*
X799524Y-561571D01*
X799524Y-561571D02*
X809048Y-580619D01*
X809048Y-580619D02*
X818571Y-618714D01*
X818571Y-618714D02*
X818571Y-666333D01*
X818571Y-666333D02*
X809048Y-704428D01*
X809048Y-704428D02*
X799524Y-723476D01*
X799524Y-723476D02*
X790000Y-733000D01*
X790000Y-733000D02*
X770952Y-742524D01*
X770952Y-742524D02*
X751905Y-742524D01*
X751905Y-742524D02*
X732857Y-733000D01*
X732857Y-733000D02*
X723333Y-723476D01*
X723333Y-723476D02*
X713809Y-704428D01*
X713809Y-704428D02*
X704286Y-666333D01*
X704286Y-666333D02*
X704286Y-618714D01*
X704286Y-618714D02*
X713809Y-580619D01*
X713809Y-580619D02*
X723333Y-561571D01*
X723333Y-561571D02*
X732857Y-552048D01*
X732857Y-552048D02*
X751905Y-542524D01*
X999524Y-542524D02*
X904286Y-542524D01*
X904286Y-542524D02*
X894762Y-637762D01*
X894762Y-637762D02*
X904286Y-628238D01*
X904286Y-628238D02*
X923333Y-618714D01*
X923333Y-618714D02*
X970952Y-618714D01*
X970952Y-618714D02*
X990000Y-628238D01*
X990000Y-628238D02*
X999524Y-637762D01*
X999524Y-637762D02*
X1009048Y-656810D01*
X1009048Y-656810D02*
X1009048Y-704428D01*
X1009048Y-704428D02*
X999524Y-723476D01*
X999524Y-723476D02*
X990000Y-733000D01*
X990000Y-733000D02*
X970952Y-742524D01*
X970952Y-742524D02*
X923333Y-742524D01*
X923333Y-742524D02*
X904286Y-733000D01*
X904286Y-733000D02*
X894762Y-723476D01*
X1094762Y-742524D02*
X1094762Y-609190D01*
X1094762Y-628238D02*
X1104286Y-618714D01*
X1104286Y-618714D02*
X1123333Y-609190D01*
X1123333Y-609190D02*
X1151905Y-609190D01*
X1151905Y-609190D02*
X1170952Y-618714D01*
X1170952Y-618714D02*
X1180476Y-637762D01*
X1180476Y-637762D02*
X1180476Y-742524D01*
X1180476Y-637762D02*
X1190000Y-618714D01*
X1190000Y-618714D02*
X1209048Y-609190D01*
X1209048Y-609190D02*
X1237619Y-609190D01*
X1237619Y-609190D02*
X1256667Y-618714D01*
X1256667Y-618714D02*
X1266191Y-637762D01*
X1266191Y-637762D02*
X1266191Y-742524D01*
X1361429Y-742524D02*
X1361429Y-609190D01*
X1361429Y-628238D02*
X1370952Y-618714D01*
X1370952Y-618714D02*
X1390000Y-609190D01*
X1390000Y-609190D02*
X1418571Y-609190D01*
X1418571Y-609190D02*
X1437619Y-618714D01*
X1437619Y-618714D02*
X1447143Y-637762D01*
X1447143Y-637762D02*
X1447143Y-742524D01*
X1447143Y-637762D02*
X1456667Y-618714D01*
X1456667Y-618714D02*
X1475714Y-609190D01*
X1475714Y-609190D02*
X1504286Y-609190D01*
X1504286Y-609190D02*
X1523333Y-618714D01*
X1523333Y-618714D02*
X1532857Y-637762D01*
X1532857Y-637762D02*
X1532857Y-742524D01*
X1923333Y-533000D02*
X1751905Y-790143D01*
X2180476Y-542524D02*
X2199524Y-542524D01*
X2199524Y-542524D02*
X2218572Y-552048D01*
X2218572Y-552048D02*
X2228095Y-561571D01*
X2228095Y-561571D02*
X2237619Y-580619D01*
X2237619Y-580619D02*
X2247143Y-618714D01*
X2247143Y-618714D02*
X2247143Y-666333D01*
X2247143Y-666333D02*
X2237619Y-704428D01*
X2237619Y-704428D02*
X2228095Y-723476D01*
X2228095Y-723476D02*
X2218572Y-733000D01*
X2218572Y-733000D02*
X2199524Y-742524D01*
X2199524Y-742524D02*
X2180476Y-742524D01*
X2180476Y-742524D02*
X2161429Y-733000D01*
X2161429Y-733000D02*
X2151905Y-723476D01*
X2151905Y-723476D02*
X2142381Y-704428D01*
X2142381Y-704428D02*
X2132857Y-666333D01*
X2132857Y-666333D02*
X2132857Y-618714D01*
X2132857Y-618714D02*
X2142381Y-580619D01*
X2142381Y-580619D02*
X2151905Y-561571D01*
X2151905Y-561571D02*
X2161429Y-552048D01*
X2161429Y-552048D02*
X2180476Y-542524D01*
X2332857Y-723476D02*
X2342381Y-733000D01*
X2342381Y-733000D02*
X2332857Y-742524D01*
X2332857Y-742524D02*
X2323334Y-733000D01*
X2323334Y-733000D02*
X2332857Y-723476D01*
X2332857Y-723476D02*
X2332857Y-742524D01*
X2466191Y-542524D02*
X2485238Y-542524D01*
X2485238Y-542524D02*
X2504286Y-552048D01*
X2504286Y-552048D02*
X2513810Y-561571D01*
X2513810Y-561571D02*
X2523334Y-580619D01*
X2523334Y-580619D02*
X2532857Y-618714D01*
X2532857Y-618714D02*
X2532857Y-666333D01*
X2532857Y-666333D02*
X2523334Y-704428D01*
X2523334Y-704428D02*
X2513810Y-723476D01*
X2513810Y-723476D02*
X2504286Y-733000D01*
X2504286Y-733000D02*
X2485238Y-742524D01*
X2485238Y-742524D02*
X2466191Y-742524D01*
X2466191Y-742524D02*
X2447143Y-733000D01*
X2447143Y-733000D02*
X2437619Y-723476D01*
X2437619Y-723476D02*
X2428095Y-704428D01*
X2428095Y-704428D02*
X2418572Y-666333D01*
X2418572Y-666333D02*
X2418572Y-618714D01*
X2418572Y-618714D02*
X2428095Y-580619D01*
X2428095Y-580619D02*
X2437619Y-561571D01*
X2437619Y-561571D02*
X2447143Y-552048D01*
X2447143Y-552048D02*
X2466191Y-542524D01*
X2723334Y-742524D02*
X2609048Y-742524D01*
X2666191Y-742524D02*
X2666191Y-542524D01*
X2666191Y-542524D02*
X2647143Y-571095D01*
X2647143Y-571095D02*
X2628095Y-590143D01*
X2628095Y-590143D02*
X2609048Y-599667D01*
X2799524Y-561571D02*
X2809048Y-552048D01*
X2809048Y-552048D02*
X2828095Y-542524D01*
X2828095Y-542524D02*
X2875714Y-542524D01*
X2875714Y-542524D02*
X2894762Y-552048D01*
X2894762Y-552048D02*
X2904286Y-561571D01*
X2904286Y-561571D02*
X2913810Y-580619D01*
X2913810Y-580619D02*
X2913810Y-599667D01*
X2913810Y-599667D02*
X2904286Y-628238D01*
X2904286Y-628238D02*
X2790000Y-742524D01*
X2790000Y-742524D02*
X2913810Y-742524D01*
X3037619Y-542524D02*
X3056667Y-542524D01*
X3056667Y-542524D02*
X3075714Y-552048D01*
X3075714Y-552048D02*
X3085238Y-561571D01*
X3085238Y-561571D02*
X3094762Y-580619D01*
X3094762Y-580619D02*
X3104286Y-618714D01*
X3104286Y-618714D02*
X3104286Y-666333D01*
X3104286Y-666333D02*
X3094762Y-704428D01*
X3094762Y-704428D02*
X3085238Y-723476D01*
X3085238Y-723476D02*
X3075714Y-733000D01*
X3075714Y-733000D02*
X3056667Y-742524D01*
X3056667Y-742524D02*
X3037619Y-742524D01*
X3037619Y-742524D02*
X3018572Y-733000D01*
X3018572Y-733000D02*
X3009048Y-723476D01*
X3009048Y-723476D02*
X2999524Y-704428D01*
X2999524Y-704428D02*
X2990000Y-666333D01*
X2990000Y-666333D02*
X2990000Y-618714D01*
X2990000Y-618714D02*
X2999524Y-580619D01*
X2999524Y-580619D02*
X3009048Y-561571D01*
X3009048Y-561571D02*
X3018572Y-552048D01*
X3018572Y-552048D02*
X3037619Y-542524D01*
X3180476Y-542524D02*
X3180476Y-580619D01*
X3256667Y-542524D02*
X3256667Y-580619D01*
X3551905Y-818714D02*
X3542381Y-809190D01*
X3542381Y-809190D02*
X3523334Y-780619D01*
X3523334Y-780619D02*
X3513810Y-761571D01*
X3513810Y-761571D02*
X3504286Y-733000D01*
X3504286Y-733000D02*
X3494762Y-685381D01*
X3494762Y-685381D02*
X3494762Y-647286D01*
X3494762Y-647286D02*
X3504286Y-599667D01*
X3504286Y-599667D02*
X3513810Y-571095D01*
X3513810Y-571095D02*
X3523334Y-552048D01*
X3523334Y-552048D02*
X3542381Y-523476D01*
X3542381Y-523476D02*
X3551905Y-513952D01*
X3618572Y-561571D02*
X3628095Y-552048D01*
X3628095Y-552048D02*
X3647143Y-542524D01*
X3647143Y-542524D02*
X3694762Y-542524D01*
X3694762Y-542524D02*
X3713810Y-552048D01*
X3713810Y-552048D02*
X3723334Y-561571D01*
X3723334Y-561571D02*
X3732857Y-580619D01*
X3732857Y-580619D02*
X3732857Y-599667D01*
X3732857Y-599667D02*
X3723334Y-628238D01*
X3723334Y-628238D02*
X3609048Y-742524D01*
X3609048Y-742524D02*
X3732857Y-742524D01*
X3847143Y-628238D02*
X3828095Y-618714D01*
X3828095Y-618714D02*
X3818572Y-609190D01*
X3818572Y-609190D02*
X3809048Y-590143D01*
X3809048Y-590143D02*
X3809048Y-580619D01*
X3809048Y-580619D02*
X3818572Y-561571D01*
X3818572Y-561571D02*
X3828095Y-552048D01*
X3828095Y-552048D02*
X3847143Y-542524D01*
X3847143Y-542524D02*
X3885238Y-542524D01*
X3885238Y-542524D02*
X3904286Y-552048D01*
X3904286Y-552048D02*
X3913810Y-561571D01*
X3913810Y-561571D02*
X3923334Y-580619D01*
X3923334Y-580619D02*
X3923334Y-590143D01*
X3923334Y-590143D02*
X3913810Y-609190D01*
X3913810Y-609190D02*
X3904286Y-618714D01*
X3904286Y-618714D02*
X3885238Y-628238D01*
X3885238Y-628238D02*
X3847143Y-628238D01*
X3847143Y-628238D02*
X3828095Y-637762D01*
X3828095Y-637762D02*
X3818572Y-647286D01*
X3818572Y-647286D02*
X3809048Y-666333D01*
X3809048Y-666333D02*
X3809048Y-704428D01*
X3809048Y-704428D02*
X3818572Y-723476D01*
X3818572Y-723476D02*
X3828095Y-733000D01*
X3828095Y-733000D02*
X3847143Y-742524D01*
X3847143Y-742524D02*
X3885238Y-742524D01*
X3885238Y-742524D02*
X3904286Y-733000D01*
X3904286Y-733000D02*
X3913810Y-723476D01*
X3913810Y-723476D02*
X3923334Y-704428D01*
X3923334Y-704428D02*
X3923334Y-666333D01*
X3923334Y-666333D02*
X3913810Y-647286D01*
X3913810Y-647286D02*
X3904286Y-637762D01*
X3904286Y-637762D02*
X3885238Y-628238D01*
X3990000Y-542524D02*
X4123334Y-542524D01*
X4123334Y-542524D02*
X4037619Y-742524D01*
X4351905Y-742524D02*
X4351905Y-542524D01*
X4437619Y-742524D02*
X4437619Y-637762D01*
X4437619Y-637762D02*
X4428096Y-618714D01*
X4428096Y-618714D02*
X4409048Y-609190D01*
X4409048Y-609190D02*
X4380477Y-609190D01*
X4380477Y-609190D02*
X4361429Y-618714D01*
X4361429Y-618714D02*
X4351905Y-628238D01*
X4561429Y-742524D02*
X4542381Y-733000D01*
X4542381Y-733000D02*
X4532858Y-723476D01*
X4532858Y-723476D02*
X4523334Y-704428D01*
X4523334Y-704428D02*
X4523334Y-647286D01*
X4523334Y-647286D02*
X4532858Y-628238D01*
X4532858Y-628238D02*
X4542381Y-618714D01*
X4542381Y-618714D02*
X4561429Y-609190D01*
X4561429Y-609190D02*
X4590000Y-609190D01*
X4590000Y-609190D02*
X4609048Y-618714D01*
X4609048Y-618714D02*
X4618572Y-628238D01*
X4618572Y-628238D02*
X4628096Y-647286D01*
X4628096Y-647286D02*
X4628096Y-704428D01*
X4628096Y-704428D02*
X4618572Y-723476D01*
X4618572Y-723476D02*
X4609048Y-733000D01*
X4609048Y-733000D02*
X4590000Y-742524D01*
X4590000Y-742524D02*
X4561429Y-742524D01*
X4742381Y-742524D02*
X4723334Y-733000D01*
X4723334Y-733000D02*
X4713810Y-713952D01*
X4713810Y-713952D02*
X4713810Y-542524D01*
X4894762Y-733000D02*
X4875715Y-742524D01*
X4875715Y-742524D02*
X4837619Y-742524D01*
X4837619Y-742524D02*
X4818572Y-733000D01*
X4818572Y-733000D02*
X4809048Y-713952D01*
X4809048Y-713952D02*
X4809048Y-637762D01*
X4809048Y-637762D02*
X4818572Y-618714D01*
X4818572Y-618714D02*
X4837619Y-609190D01*
X4837619Y-609190D02*
X4875715Y-609190D01*
X4875715Y-609190D02*
X4894762Y-618714D01*
X4894762Y-618714D02*
X4904286Y-637762D01*
X4904286Y-637762D02*
X4904286Y-656810D01*
X4904286Y-656810D02*
X4809048Y-675857D01*
X4980477Y-733000D02*
X4999524Y-742524D01*
X4999524Y-742524D02*
X5037619Y-742524D01*
X5037619Y-742524D02*
X5056667Y-733000D01*
X5056667Y-733000D02*
X5066191Y-713952D01*
X5066191Y-713952D02*
X5066191Y-704428D01*
X5066191Y-704428D02*
X5056667Y-685381D01*
X5056667Y-685381D02*
X5037619Y-675857D01*
X5037619Y-675857D02*
X5009048Y-675857D01*
X5009048Y-675857D02*
X4990000Y-666333D01*
X4990000Y-666333D02*
X4980477Y-647286D01*
X4980477Y-647286D02*
X4980477Y-637762D01*
X4980477Y-637762D02*
X4990000Y-618714D01*
X4990000Y-618714D02*
X5009048Y-609190D01*
X5009048Y-609190D02*
X5037619Y-609190D01*
X5037619Y-609190D02*
X5056667Y-618714D01*
X5132858Y-818714D02*
X5142381Y-809190D01*
X5142381Y-809190D02*
X5161429Y-780619D01*
X5161429Y-780619D02*
X5170953Y-761571D01*
X5170953Y-761571D02*
X5180477Y-733000D01*
X5180477Y-733000D02*
X5190000Y-685381D01*
X5190000Y-685381D02*
X5190000Y-647286D01*
X5190000Y-647286D02*
X5180477Y-599667D01*
X5180477Y-599667D02*
X5170953Y-571095D01*
X5170953Y-571095D02*
X5161429Y-552048D01*
X5161429Y-552048D02*
X5142381Y-523476D01*
X5142381Y-523476D02*
X5132858Y-513952D01*
D12*
X-10000Y-914000D02*
G75*
G03*
X-10000Y-914000I-44450J0D01*
G01*
D10*
X275714Y-806524D02*
X294762Y-806524D01*
X294762Y-806524D02*
X313810Y-816048D01*
X313810Y-816048D02*
X323333Y-825571D01*
X323333Y-825571D02*
X332857Y-844619D01*
X332857Y-844619D02*
X342381Y-882714D01*
X342381Y-882714D02*
X342381Y-930333D01*
X342381Y-930333D02*
X332857Y-968428D01*
X332857Y-968428D02*
X323333Y-987476D01*
X323333Y-987476D02*
X313810Y-997000D01*
X313810Y-997000D02*
X294762Y-1006524D01*
X294762Y-1006524D02*
X275714Y-1006524D01*
X275714Y-1006524D02*
X256667Y-997000D01*
X256667Y-997000D02*
X247143Y-987476D01*
X247143Y-987476D02*
X237619Y-968428D01*
X237619Y-968428D02*
X228095Y-930333D01*
X228095Y-930333D02*
X228095Y-882714D01*
X228095Y-882714D02*
X237619Y-844619D01*
X237619Y-844619D02*
X247143Y-825571D01*
X247143Y-825571D02*
X256667Y-816048D01*
X256667Y-816048D02*
X275714Y-806524D01*
X428095Y-987476D02*
X437619Y-997000D01*
X437619Y-997000D02*
X428095Y-1006524D01*
X428095Y-1006524D02*
X418571Y-997000D01*
X418571Y-997000D02*
X428095Y-987476D01*
X428095Y-987476D02*
X428095Y-1006524D01*
X551905Y-892238D02*
X532857Y-882714D01*
X532857Y-882714D02*
X523333Y-873190D01*
X523333Y-873190D02*
X513809Y-854143D01*
X513809Y-854143D02*
X513809Y-844619D01*
X513809Y-844619D02*
X523333Y-825571D01*
X523333Y-825571D02*
X532857Y-816048D01*
X532857Y-816048D02*
X551905Y-806524D01*
X551905Y-806524D02*
X590000Y-806524D01*
X590000Y-806524D02*
X609048Y-816048D01*
X609048Y-816048D02*
X618571Y-825571D01*
X618571Y-825571D02*
X628095Y-844619D01*
X628095Y-844619D02*
X628095Y-854143D01*
X628095Y-854143D02*
X618571Y-873190D01*
X618571Y-873190D02*
X609048Y-882714D01*
X609048Y-882714D02*
X590000Y-892238D01*
X590000Y-892238D02*
X551905Y-892238D01*
X551905Y-892238D02*
X532857Y-901762D01*
X532857Y-901762D02*
X523333Y-911286D01*
X523333Y-911286D02*
X513809Y-930333D01*
X513809Y-930333D02*
X513809Y-968428D01*
X513809Y-968428D02*
X523333Y-987476D01*
X523333Y-987476D02*
X532857Y-997000D01*
X532857Y-997000D02*
X551905Y-1006524D01*
X551905Y-1006524D02*
X590000Y-1006524D01*
X590000Y-1006524D02*
X609048Y-997000D01*
X609048Y-997000D02*
X618571Y-987476D01*
X618571Y-987476D02*
X628095Y-968428D01*
X628095Y-968428D02*
X628095Y-930333D01*
X628095Y-930333D02*
X618571Y-911286D01*
X618571Y-911286D02*
X609048Y-901762D01*
X609048Y-901762D02*
X590000Y-892238D01*
X742381Y-892238D02*
X723333Y-882714D01*
X723333Y-882714D02*
X713809Y-873190D01*
X713809Y-873190D02*
X704286Y-854143D01*
X704286Y-854143D02*
X704286Y-844619D01*
X704286Y-844619D02*
X713809Y-825571D01*
X713809Y-825571D02*
X723333Y-816048D01*
X723333Y-816048D02*
X742381Y-806524D01*
X742381Y-806524D02*
X780476Y-806524D01*
X780476Y-806524D02*
X799524Y-816048D01*
X799524Y-816048D02*
X809048Y-825571D01*
X809048Y-825571D02*
X818571Y-844619D01*
X818571Y-844619D02*
X818571Y-854143D01*
X818571Y-854143D02*
X809048Y-873190D01*
X809048Y-873190D02*
X799524Y-882714D01*
X799524Y-882714D02*
X780476Y-892238D01*
X780476Y-892238D02*
X742381Y-892238D01*
X742381Y-892238D02*
X723333Y-901762D01*
X723333Y-901762D02*
X713809Y-911286D01*
X713809Y-911286D02*
X704286Y-930333D01*
X704286Y-930333D02*
X704286Y-968428D01*
X704286Y-968428D02*
X713809Y-987476D01*
X713809Y-987476D02*
X723333Y-997000D01*
X723333Y-997000D02*
X742381Y-1006524D01*
X742381Y-1006524D02*
X780476Y-1006524D01*
X780476Y-1006524D02*
X799524Y-997000D01*
X799524Y-997000D02*
X809048Y-987476D01*
X809048Y-987476D02*
X818571Y-968428D01*
X818571Y-968428D02*
X818571Y-930333D01*
X818571Y-930333D02*
X809048Y-911286D01*
X809048Y-911286D02*
X799524Y-901762D01*
X799524Y-901762D02*
X780476Y-892238D01*
X913809Y-1006524D02*
X951905Y-1006524D01*
X951905Y-1006524D02*
X970952Y-997000D01*
X970952Y-997000D02*
X980476Y-987476D01*
X980476Y-987476D02*
X999524Y-958905D01*
X999524Y-958905D02*
X1009048Y-920809D01*
X1009048Y-920809D02*
X1009048Y-844619D01*
X1009048Y-844619D02*
X999524Y-825571D01*
X999524Y-825571D02*
X990000Y-816048D01*
X990000Y-816048D02*
X970952Y-806524D01*
X970952Y-806524D02*
X932857Y-806524D01*
X932857Y-806524D02*
X913809Y-816048D01*
X913809Y-816048D02*
X904286Y-825571D01*
X904286Y-825571D02*
X894762Y-844619D01*
X894762Y-844619D02*
X894762Y-892238D01*
X894762Y-892238D02*
X904286Y-911286D01*
X904286Y-911286D02*
X913809Y-920809D01*
X913809Y-920809D02*
X932857Y-930333D01*
X932857Y-930333D02*
X970952Y-930333D01*
X970952Y-930333D02*
X990000Y-920809D01*
X990000Y-920809D02*
X999524Y-911286D01*
X999524Y-911286D02*
X1009048Y-892238D01*
X1094762Y-1006524D02*
X1094762Y-873190D01*
X1094762Y-892238D02*
X1104286Y-882714D01*
X1104286Y-882714D02*
X1123333Y-873190D01*
X1123333Y-873190D02*
X1151905Y-873190D01*
X1151905Y-873190D02*
X1170952Y-882714D01*
X1170952Y-882714D02*
X1180476Y-901762D01*
X1180476Y-901762D02*
X1180476Y-1006524D01*
X1180476Y-901762D02*
X1190000Y-882714D01*
X1190000Y-882714D02*
X1209048Y-873190D01*
X1209048Y-873190D02*
X1237619Y-873190D01*
X1237619Y-873190D02*
X1256667Y-882714D01*
X1256667Y-882714D02*
X1266191Y-901762D01*
X1266191Y-901762D02*
X1266191Y-1006524D01*
X1361429Y-1006524D02*
X1361429Y-873190D01*
X1361429Y-892238D02*
X1370952Y-882714D01*
X1370952Y-882714D02*
X1390000Y-873190D01*
X1390000Y-873190D02*
X1418571Y-873190D01*
X1418571Y-873190D02*
X1437619Y-882714D01*
X1437619Y-882714D02*
X1447143Y-901762D01*
X1447143Y-901762D02*
X1447143Y-1006524D01*
X1447143Y-901762D02*
X1456667Y-882714D01*
X1456667Y-882714D02*
X1475714Y-873190D01*
X1475714Y-873190D02*
X1504286Y-873190D01*
X1504286Y-873190D02*
X1523333Y-882714D01*
X1523333Y-882714D02*
X1532857Y-901762D01*
X1532857Y-901762D02*
X1532857Y-1006524D01*
X1923333Y-797000D02*
X1751905Y-1054143D01*
X2180476Y-806524D02*
X2199524Y-806524D01*
X2199524Y-806524D02*
X2218572Y-816048D01*
X2218572Y-816048D02*
X2228095Y-825571D01*
X2228095Y-825571D02*
X2237619Y-844619D01*
X2237619Y-844619D02*
X2247143Y-882714D01*
X2247143Y-882714D02*
X2247143Y-930333D01*
X2247143Y-930333D02*
X2237619Y-968428D01*
X2237619Y-968428D02*
X2228095Y-987476D01*
X2228095Y-987476D02*
X2218572Y-997000D01*
X2218572Y-997000D02*
X2199524Y-1006524D01*
X2199524Y-1006524D02*
X2180476Y-1006524D01*
X2180476Y-1006524D02*
X2161429Y-997000D01*
X2161429Y-997000D02*
X2151905Y-987476D01*
X2151905Y-987476D02*
X2142381Y-968428D01*
X2142381Y-968428D02*
X2132857Y-930333D01*
X2132857Y-930333D02*
X2132857Y-882714D01*
X2132857Y-882714D02*
X2142381Y-844619D01*
X2142381Y-844619D02*
X2151905Y-825571D01*
X2151905Y-825571D02*
X2161429Y-816048D01*
X2161429Y-816048D02*
X2180476Y-806524D01*
X2332857Y-987476D02*
X2342381Y-997000D01*
X2342381Y-997000D02*
X2332857Y-1006524D01*
X2332857Y-1006524D02*
X2323334Y-997000D01*
X2323334Y-997000D02*
X2332857Y-987476D01*
X2332857Y-987476D02*
X2332857Y-1006524D01*
X2466191Y-806524D02*
X2485238Y-806524D01*
X2485238Y-806524D02*
X2504286Y-816048D01*
X2504286Y-816048D02*
X2513810Y-825571D01*
X2513810Y-825571D02*
X2523334Y-844619D01*
X2523334Y-844619D02*
X2532857Y-882714D01*
X2532857Y-882714D02*
X2532857Y-930333D01*
X2532857Y-930333D02*
X2523334Y-968428D01*
X2523334Y-968428D02*
X2513810Y-987476D01*
X2513810Y-987476D02*
X2504286Y-997000D01*
X2504286Y-997000D02*
X2485238Y-1006524D01*
X2485238Y-1006524D02*
X2466191Y-1006524D01*
X2466191Y-1006524D02*
X2447143Y-997000D01*
X2447143Y-997000D02*
X2437619Y-987476D01*
X2437619Y-987476D02*
X2428095Y-968428D01*
X2428095Y-968428D02*
X2418572Y-930333D01*
X2418572Y-930333D02*
X2418572Y-882714D01*
X2418572Y-882714D02*
X2428095Y-844619D01*
X2428095Y-844619D02*
X2437619Y-825571D01*
X2437619Y-825571D02*
X2447143Y-816048D01*
X2447143Y-816048D02*
X2466191Y-806524D01*
X2599524Y-806524D02*
X2723334Y-806524D01*
X2723334Y-806524D02*
X2656667Y-882714D01*
X2656667Y-882714D02*
X2685238Y-882714D01*
X2685238Y-882714D02*
X2704286Y-892238D01*
X2704286Y-892238D02*
X2713810Y-901762D01*
X2713810Y-901762D02*
X2723334Y-920809D01*
X2723334Y-920809D02*
X2723334Y-968428D01*
X2723334Y-968428D02*
X2713810Y-987476D01*
X2713810Y-987476D02*
X2704286Y-997000D01*
X2704286Y-997000D02*
X2685238Y-1006524D01*
X2685238Y-1006524D02*
X2628095Y-1006524D01*
X2628095Y-1006524D02*
X2609048Y-997000D01*
X2609048Y-997000D02*
X2599524Y-987476D01*
X2904286Y-806524D02*
X2809048Y-806524D01*
X2809048Y-806524D02*
X2799524Y-901762D01*
X2799524Y-901762D02*
X2809048Y-892238D01*
X2809048Y-892238D02*
X2828095Y-882714D01*
X2828095Y-882714D02*
X2875714Y-882714D01*
X2875714Y-882714D02*
X2894762Y-892238D01*
X2894762Y-892238D02*
X2904286Y-901762D01*
X2904286Y-901762D02*
X2913810Y-920809D01*
X2913810Y-920809D02*
X2913810Y-968428D01*
X2913810Y-968428D02*
X2904286Y-987476D01*
X2904286Y-987476D02*
X2894762Y-997000D01*
X2894762Y-997000D02*
X2875714Y-1006524D01*
X2875714Y-1006524D02*
X2828095Y-1006524D01*
X2828095Y-1006524D02*
X2809048Y-997000D01*
X2809048Y-997000D02*
X2799524Y-987476D01*
X3037619Y-806524D02*
X3056667Y-806524D01*
X3056667Y-806524D02*
X3075714Y-816048D01*
X3075714Y-816048D02*
X3085238Y-825571D01*
X3085238Y-825571D02*
X3094762Y-844619D01*
X3094762Y-844619D02*
X3104286Y-882714D01*
X3104286Y-882714D02*
X3104286Y-930333D01*
X3104286Y-930333D02*
X3094762Y-968428D01*
X3094762Y-968428D02*
X3085238Y-987476D01*
X3085238Y-987476D02*
X3075714Y-997000D01*
X3075714Y-997000D02*
X3056667Y-1006524D01*
X3056667Y-1006524D02*
X3037619Y-1006524D01*
X3037619Y-1006524D02*
X3018572Y-997000D01*
X3018572Y-997000D02*
X3009048Y-987476D01*
X3009048Y-987476D02*
X2999524Y-968428D01*
X2999524Y-968428D02*
X2990000Y-930333D01*
X2990000Y-930333D02*
X2990000Y-882714D01*
X2990000Y-882714D02*
X2999524Y-844619D01*
X2999524Y-844619D02*
X3009048Y-825571D01*
X3009048Y-825571D02*
X3018572Y-816048D01*
X3018572Y-816048D02*
X3037619Y-806524D01*
X3180476Y-806524D02*
X3180476Y-844619D01*
X3256667Y-806524D02*
X3256667Y-844619D01*
X3551905Y-1082714D02*
X3542381Y-1073190D01*
X3542381Y-1073190D02*
X3523334Y-1044619D01*
X3523334Y-1044619D02*
X3513810Y-1025571D01*
X3513810Y-1025571D02*
X3504286Y-997000D01*
X3504286Y-997000D02*
X3494762Y-949381D01*
X3494762Y-949381D02*
X3494762Y-911286D01*
X3494762Y-911286D02*
X3504286Y-863667D01*
X3504286Y-863667D02*
X3513810Y-835095D01*
X3513810Y-835095D02*
X3523334Y-816048D01*
X3523334Y-816048D02*
X3542381Y-787476D01*
X3542381Y-787476D02*
X3551905Y-777952D01*
X3713810Y-806524D02*
X3675714Y-806524D01*
X3675714Y-806524D02*
X3656667Y-816048D01*
X3656667Y-816048D02*
X3647143Y-825571D01*
X3647143Y-825571D02*
X3628095Y-854143D01*
X3628095Y-854143D02*
X3618572Y-892238D01*
X3618572Y-892238D02*
X3618572Y-968428D01*
X3618572Y-968428D02*
X3628095Y-987476D01*
X3628095Y-987476D02*
X3637619Y-997000D01*
X3637619Y-997000D02*
X3656667Y-1006524D01*
X3656667Y-1006524D02*
X3694762Y-1006524D01*
X3694762Y-1006524D02*
X3713810Y-997000D01*
X3713810Y-997000D02*
X3723334Y-987476D01*
X3723334Y-987476D02*
X3732857Y-968428D01*
X3732857Y-968428D02*
X3732857Y-920809D01*
X3732857Y-920809D02*
X3723334Y-901762D01*
X3723334Y-901762D02*
X3713810Y-892238D01*
X3713810Y-892238D02*
X3694762Y-882714D01*
X3694762Y-882714D02*
X3656667Y-882714D01*
X3656667Y-882714D02*
X3637619Y-892238D01*
X3637619Y-892238D02*
X3628095Y-901762D01*
X3628095Y-901762D02*
X3618572Y-920809D01*
X3970953Y-1006524D02*
X3970953Y-806524D01*
X4056667Y-1006524D02*
X4056667Y-901762D01*
X4056667Y-901762D02*
X4047143Y-882714D01*
X4047143Y-882714D02*
X4028096Y-873190D01*
X4028096Y-873190D02*
X3999524Y-873190D01*
X3999524Y-873190D02*
X3980476Y-882714D01*
X3980476Y-882714D02*
X3970953Y-892238D01*
X4180476Y-1006524D02*
X4161429Y-997000D01*
X4161429Y-997000D02*
X4151905Y-987476D01*
X4151905Y-987476D02*
X4142381Y-968428D01*
X4142381Y-968428D02*
X4142381Y-911286D01*
X4142381Y-911286D02*
X4151905Y-892238D01*
X4151905Y-892238D02*
X4161429Y-882714D01*
X4161429Y-882714D02*
X4180476Y-873190D01*
X4180476Y-873190D02*
X4209048Y-873190D01*
X4209048Y-873190D02*
X4228096Y-882714D01*
X4228096Y-882714D02*
X4237619Y-892238D01*
X4237619Y-892238D02*
X4247143Y-911286D01*
X4247143Y-911286D02*
X4247143Y-968428D01*
X4247143Y-968428D02*
X4237619Y-987476D01*
X4237619Y-987476D02*
X4228096Y-997000D01*
X4228096Y-997000D02*
X4209048Y-1006524D01*
X4209048Y-1006524D02*
X4180476Y-1006524D01*
X4361429Y-1006524D02*
X4342381Y-997000D01*
X4342381Y-997000D02*
X4332858Y-977952D01*
X4332858Y-977952D02*
X4332858Y-806524D01*
X4513810Y-997000D02*
X4494762Y-1006524D01*
X4494762Y-1006524D02*
X4456667Y-1006524D01*
X4456667Y-1006524D02*
X4437619Y-997000D01*
X4437619Y-997000D02*
X4428096Y-977952D01*
X4428096Y-977952D02*
X4428096Y-901762D01*
X4428096Y-901762D02*
X4437619Y-882714D01*
X4437619Y-882714D02*
X4456667Y-873190D01*
X4456667Y-873190D02*
X4494762Y-873190D01*
X4494762Y-873190D02*
X4513810Y-882714D01*
X4513810Y-882714D02*
X4523334Y-901762D01*
X4523334Y-901762D02*
X4523334Y-920809D01*
X4523334Y-920809D02*
X4428096Y-939857D01*
X4599524Y-997000D02*
X4618572Y-1006524D01*
X4618572Y-1006524D02*
X4656667Y-1006524D01*
X4656667Y-1006524D02*
X4675715Y-997000D01*
X4675715Y-997000D02*
X4685239Y-977952D01*
X4685239Y-977952D02*
X4685239Y-968428D01*
X4685239Y-968428D02*
X4675715Y-949381D01*
X4675715Y-949381D02*
X4656667Y-939857D01*
X4656667Y-939857D02*
X4628096Y-939857D01*
X4628096Y-939857D02*
X4609048Y-930333D01*
X4609048Y-930333D02*
X4599524Y-911286D01*
X4599524Y-911286D02*
X4599524Y-901762D01*
X4599524Y-901762D02*
X4609048Y-882714D01*
X4609048Y-882714D02*
X4628096Y-873190D01*
X4628096Y-873190D02*
X4656667Y-873190D01*
X4656667Y-873190D02*
X4675715Y-882714D01*
X4751905Y-1082714D02*
X4761429Y-1073190D01*
X4761429Y-1073190D02*
X4780477Y-1044619D01*
X4780477Y-1044619D02*
X4790000Y-1025571D01*
X4790000Y-1025571D02*
X4799524Y-997000D01*
X4799524Y-997000D02*
X4809048Y-949381D01*
X4809048Y-949381D02*
X4809048Y-911286D01*
X4809048Y-911286D02*
X4799524Y-863667D01*
X4799524Y-863667D02*
X4790000Y-835095D01*
X4790000Y-835095D02*
X4780477Y-816048D01*
X4780477Y-816048D02*
X4761429Y-787476D01*
X4761429Y-787476D02*
X4751905Y-777952D01*
D13*
X-60800Y-1127200D02*
X-60800Y-1228800D01*
X-111600Y-1178000D02*
X-10000Y-1178000D01*
D10*
X342381Y-1270524D02*
X228095Y-1270524D01*
X285238Y-1270524D02*
X285238Y-1070524D01*
X285238Y-1070524D02*
X266190Y-1099095D01*
X266190Y-1099095D02*
X247143Y-1118143D01*
X247143Y-1118143D02*
X228095Y-1127667D01*
X428095Y-1251476D02*
X437619Y-1261000D01*
X437619Y-1261000D02*
X428095Y-1270524D01*
X428095Y-1270524D02*
X418571Y-1261000D01*
X418571Y-1261000D02*
X428095Y-1251476D01*
X428095Y-1251476D02*
X428095Y-1270524D01*
X561429Y-1070524D02*
X580476Y-1070524D01*
X580476Y-1070524D02*
X599524Y-1080048D01*
X599524Y-1080048D02*
X609048Y-1089571D01*
X609048Y-1089571D02*
X618571Y-1108619D01*
X618571Y-1108619D02*
X628095Y-1146714D01*
X628095Y-1146714D02*
X628095Y-1194333D01*
X628095Y-1194333D02*
X618571Y-1232429D01*
X618571Y-1232429D02*
X609048Y-1251476D01*
X609048Y-1251476D02*
X599524Y-1261000D01*
X599524Y-1261000D02*
X580476Y-1270524D01*
X580476Y-1270524D02*
X561429Y-1270524D01*
X561429Y-1270524D02*
X542381Y-1261000D01*
X542381Y-1261000D02*
X532857Y-1251476D01*
X532857Y-1251476D02*
X523333Y-1232429D01*
X523333Y-1232429D02*
X513809Y-1194333D01*
X513809Y-1194333D02*
X513809Y-1146714D01*
X513809Y-1146714D02*
X523333Y-1108619D01*
X523333Y-1108619D02*
X532857Y-1089571D01*
X532857Y-1089571D02*
X542381Y-1080048D01*
X542381Y-1080048D02*
X561429Y-1070524D01*
X818571Y-1270524D02*
X704286Y-1270524D01*
X761428Y-1270524D02*
X761428Y-1070524D01*
X761428Y-1070524D02*
X742381Y-1099095D01*
X742381Y-1099095D02*
X723333Y-1118143D01*
X723333Y-1118143D02*
X704286Y-1127667D01*
X990000Y-1070524D02*
X951905Y-1070524D01*
X951905Y-1070524D02*
X932857Y-1080048D01*
X932857Y-1080048D02*
X923333Y-1089571D01*
X923333Y-1089571D02*
X904286Y-1118143D01*
X904286Y-1118143D02*
X894762Y-1156238D01*
X894762Y-1156238D02*
X894762Y-1232429D01*
X894762Y-1232429D02*
X904286Y-1251476D01*
X904286Y-1251476D02*
X913809Y-1261000D01*
X913809Y-1261000D02*
X932857Y-1270524D01*
X932857Y-1270524D02*
X970952Y-1270524D01*
X970952Y-1270524D02*
X990000Y-1261000D01*
X990000Y-1261000D02*
X999524Y-1251476D01*
X999524Y-1251476D02*
X1009048Y-1232429D01*
X1009048Y-1232429D02*
X1009048Y-1184810D01*
X1009048Y-1184810D02*
X999524Y-1165762D01*
X999524Y-1165762D02*
X990000Y-1156238D01*
X990000Y-1156238D02*
X970952Y-1146714D01*
X970952Y-1146714D02*
X932857Y-1146714D01*
X932857Y-1146714D02*
X913809Y-1156238D01*
X913809Y-1156238D02*
X904286Y-1165762D01*
X904286Y-1165762D02*
X894762Y-1184810D01*
X1094762Y-1270524D02*
X1094762Y-1137190D01*
X1094762Y-1156238D02*
X1104286Y-1146714D01*
X1104286Y-1146714D02*
X1123333Y-1137190D01*
X1123333Y-1137190D02*
X1151905Y-1137190D01*
X1151905Y-1137190D02*
X1170952Y-1146714D01*
X1170952Y-1146714D02*
X1180476Y-1165762D01*
X1180476Y-1165762D02*
X1180476Y-1270524D01*
X1180476Y-1165762D02*
X1190000Y-1146714D01*
X1190000Y-1146714D02*
X1209048Y-1137190D01*
X1209048Y-1137190D02*
X1237619Y-1137190D01*
X1237619Y-1137190D02*
X1256667Y-1146714D01*
X1256667Y-1146714D02*
X1266191Y-1165762D01*
X1266191Y-1165762D02*
X1266191Y-1270524D01*
X1361429Y-1270524D02*
X1361429Y-1137190D01*
X1361429Y-1156238D02*
X1370952Y-1146714D01*
X1370952Y-1146714D02*
X1390000Y-1137190D01*
X1390000Y-1137190D02*
X1418571Y-1137190D01*
X1418571Y-1137190D02*
X1437619Y-1146714D01*
X1437619Y-1146714D02*
X1447143Y-1165762D01*
X1447143Y-1165762D02*
X1447143Y-1270524D01*
X1447143Y-1165762D02*
X1456667Y-1146714D01*
X1456667Y-1146714D02*
X1475714Y-1137190D01*
X1475714Y-1137190D02*
X1504286Y-1137190D01*
X1504286Y-1137190D02*
X1523333Y-1146714D01*
X1523333Y-1146714D02*
X1532857Y-1165762D01*
X1532857Y-1165762D02*
X1532857Y-1270524D01*
X1923333Y-1061000D02*
X1751905Y-1318143D01*
X2180476Y-1070524D02*
X2199524Y-1070524D01*
X2199524Y-1070524D02*
X2218572Y-1080048D01*
X2218572Y-1080048D02*
X2228095Y-1089571D01*
X2228095Y-1089571D02*
X2237619Y-1108619D01*
X2237619Y-1108619D02*
X2247143Y-1146714D01*
X2247143Y-1146714D02*
X2247143Y-1194333D01*
X2247143Y-1194333D02*
X2237619Y-1232429D01*
X2237619Y-1232429D02*
X2228095Y-1251476D01*
X2228095Y-1251476D02*
X2218572Y-1261000D01*
X2218572Y-1261000D02*
X2199524Y-1270524D01*
X2199524Y-1270524D02*
X2180476Y-1270524D01*
X2180476Y-1270524D02*
X2161429Y-1261000D01*
X2161429Y-1261000D02*
X2151905Y-1251476D01*
X2151905Y-1251476D02*
X2142381Y-1232429D01*
X2142381Y-1232429D02*
X2132857Y-1194333D01*
X2132857Y-1194333D02*
X2132857Y-1146714D01*
X2132857Y-1146714D02*
X2142381Y-1108619D01*
X2142381Y-1108619D02*
X2151905Y-1089571D01*
X2151905Y-1089571D02*
X2161429Y-1080048D01*
X2161429Y-1080048D02*
X2180476Y-1070524D01*
X2332857Y-1251476D02*
X2342381Y-1261000D01*
X2342381Y-1261000D02*
X2332857Y-1270524D01*
X2332857Y-1270524D02*
X2323334Y-1261000D01*
X2323334Y-1261000D02*
X2332857Y-1251476D01*
X2332857Y-1251476D02*
X2332857Y-1270524D01*
X2466191Y-1070524D02*
X2485238Y-1070524D01*
X2485238Y-1070524D02*
X2504286Y-1080048D01*
X2504286Y-1080048D02*
X2513810Y-1089571D01*
X2513810Y-1089571D02*
X2523334Y-1108619D01*
X2523334Y-1108619D02*
X2532857Y-1146714D01*
X2532857Y-1146714D02*
X2532857Y-1194333D01*
X2532857Y-1194333D02*
X2523334Y-1232429D01*
X2523334Y-1232429D02*
X2513810Y-1251476D01*
X2513810Y-1251476D02*
X2504286Y-1261000D01*
X2504286Y-1261000D02*
X2485238Y-1270524D01*
X2485238Y-1270524D02*
X2466191Y-1270524D01*
X2466191Y-1270524D02*
X2447143Y-1261000D01*
X2447143Y-1261000D02*
X2437619Y-1251476D01*
X2437619Y-1251476D02*
X2428095Y-1232429D01*
X2428095Y-1232429D02*
X2418572Y-1194333D01*
X2418572Y-1194333D02*
X2418572Y-1146714D01*
X2418572Y-1146714D02*
X2428095Y-1108619D01*
X2428095Y-1108619D02*
X2437619Y-1089571D01*
X2437619Y-1089571D02*
X2447143Y-1080048D01*
X2447143Y-1080048D02*
X2466191Y-1070524D01*
X2704286Y-1137190D02*
X2704286Y-1270524D01*
X2656667Y-1061000D02*
X2609048Y-1203857D01*
X2609048Y-1203857D02*
X2732857Y-1203857D01*
X2847143Y-1070524D02*
X2866191Y-1070524D01*
X2866191Y-1070524D02*
X2885238Y-1080048D01*
X2885238Y-1080048D02*
X2894762Y-1089571D01*
X2894762Y-1089571D02*
X2904286Y-1108619D01*
X2904286Y-1108619D02*
X2913810Y-1146714D01*
X2913810Y-1146714D02*
X2913810Y-1194333D01*
X2913810Y-1194333D02*
X2904286Y-1232429D01*
X2904286Y-1232429D02*
X2894762Y-1251476D01*
X2894762Y-1251476D02*
X2885238Y-1261000D01*
X2885238Y-1261000D02*
X2866191Y-1270524D01*
X2866191Y-1270524D02*
X2847143Y-1270524D01*
X2847143Y-1270524D02*
X2828095Y-1261000D01*
X2828095Y-1261000D02*
X2818572Y-1251476D01*
X2818572Y-1251476D02*
X2809048Y-1232429D01*
X2809048Y-1232429D02*
X2799524Y-1194333D01*
X2799524Y-1194333D02*
X2799524Y-1146714D01*
X2799524Y-1146714D02*
X2809048Y-1108619D01*
X2809048Y-1108619D02*
X2818572Y-1089571D01*
X2818572Y-1089571D02*
X2828095Y-1080048D01*
X2828095Y-1080048D02*
X2847143Y-1070524D01*
X3037619Y-1070524D02*
X3056667Y-1070524D01*
X3056667Y-1070524D02*
X3075714Y-1080048D01*
X3075714Y-1080048D02*
X3085238Y-1089571D01*
X3085238Y-1089571D02*
X3094762Y-1108619D01*
X3094762Y-1108619D02*
X3104286Y-1146714D01*
X3104286Y-1146714D02*
X3104286Y-1194333D01*
X3104286Y-1194333D02*
X3094762Y-1232429D01*
X3094762Y-1232429D02*
X3085238Y-1251476D01*
X3085238Y-1251476D02*
X3075714Y-1261000D01*
X3075714Y-1261000D02*
X3056667Y-1270524D01*
X3056667Y-1270524D02*
X3037619Y-1270524D01*
X3037619Y-1270524D02*
X3018572Y-1261000D01*
X3018572Y-1261000D02*
X3009048Y-1251476D01*
X3009048Y-1251476D02*
X2999524Y-1232429D01*
X2999524Y-1232429D02*
X2990000Y-1194333D01*
X2990000Y-1194333D02*
X2990000Y-1146714D01*
X2990000Y-1146714D02*
X2999524Y-1108619D01*
X2999524Y-1108619D02*
X3009048Y-1089571D01*
X3009048Y-1089571D02*
X3018572Y-1080048D01*
X3018572Y-1080048D02*
X3037619Y-1070524D01*
X3180476Y-1070524D02*
X3180476Y-1108619D01*
X3256667Y-1070524D02*
X3256667Y-1108619D01*
X3551905Y-1346714D02*
X3542381Y-1337190D01*
X3542381Y-1337190D02*
X3523334Y-1308619D01*
X3523334Y-1308619D02*
X3513810Y-1289571D01*
X3513810Y-1289571D02*
X3504286Y-1261000D01*
X3504286Y-1261000D02*
X3494762Y-1213381D01*
X3494762Y-1213381D02*
X3494762Y-1175286D01*
X3494762Y-1175286D02*
X3504286Y-1127667D01*
X3504286Y-1127667D02*
X3513810Y-1099095D01*
X3513810Y-1099095D02*
X3523334Y-1080048D01*
X3523334Y-1080048D02*
X3542381Y-1051476D01*
X3542381Y-1051476D02*
X3551905Y-1041952D01*
X3618572Y-1089571D02*
X3628095Y-1080048D01*
X3628095Y-1080048D02*
X3647143Y-1070524D01*
X3647143Y-1070524D02*
X3694762Y-1070524D01*
X3694762Y-1070524D02*
X3713810Y-1080048D01*
X3713810Y-1080048D02*
X3723334Y-1089571D01*
X3723334Y-1089571D02*
X3732857Y-1108619D01*
X3732857Y-1108619D02*
X3732857Y-1127667D01*
X3732857Y-1127667D02*
X3723334Y-1156238D01*
X3723334Y-1156238D02*
X3609048Y-1270524D01*
X3609048Y-1270524D02*
X3732857Y-1270524D01*
X3856667Y-1070524D02*
X3875715Y-1070524D01*
X3875715Y-1070524D02*
X3894762Y-1080048D01*
X3894762Y-1080048D02*
X3904286Y-1089571D01*
X3904286Y-1089571D02*
X3913810Y-1108619D01*
X3913810Y-1108619D02*
X3923334Y-1146714D01*
X3923334Y-1146714D02*
X3923334Y-1194333D01*
X3923334Y-1194333D02*
X3913810Y-1232429D01*
X3913810Y-1232429D02*
X3904286Y-1251476D01*
X3904286Y-1251476D02*
X3894762Y-1261000D01*
X3894762Y-1261000D02*
X3875715Y-1270524D01*
X3875715Y-1270524D02*
X3856667Y-1270524D01*
X3856667Y-1270524D02*
X3837619Y-1261000D01*
X3837619Y-1261000D02*
X3828095Y-1251476D01*
X3828095Y-1251476D02*
X3818572Y-1232429D01*
X3818572Y-1232429D02*
X3809048Y-1194333D01*
X3809048Y-1194333D02*
X3809048Y-1146714D01*
X3809048Y-1146714D02*
X3818572Y-1108619D01*
X3818572Y-1108619D02*
X3828095Y-1089571D01*
X3828095Y-1089571D02*
X3837619Y-1080048D01*
X3837619Y-1080048D02*
X3856667Y-1070524D01*
X4161429Y-1270524D02*
X4161429Y-1070524D01*
X4247143Y-1270524D02*
X4247143Y-1165762D01*
X4247143Y-1165762D02*
X4237619Y-1146714D01*
X4237619Y-1146714D02*
X4218572Y-1137190D01*
X4218572Y-1137190D02*
X4190000Y-1137190D01*
X4190000Y-1137190D02*
X4170953Y-1146714D01*
X4170953Y-1146714D02*
X4161429Y-1156238D01*
X4370953Y-1270524D02*
X4351905Y-1261000D01*
X4351905Y-1261000D02*
X4342381Y-1251476D01*
X4342381Y-1251476D02*
X4332858Y-1232429D01*
X4332858Y-1232429D02*
X4332858Y-1175286D01*
X4332858Y-1175286D02*
X4342381Y-1156238D01*
X4342381Y-1156238D02*
X4351905Y-1146714D01*
X4351905Y-1146714D02*
X4370953Y-1137190D01*
X4370953Y-1137190D02*
X4399524Y-1137190D01*
X4399524Y-1137190D02*
X4418572Y-1146714D01*
X4418572Y-1146714D02*
X4428096Y-1156238D01*
X4428096Y-1156238D02*
X4437619Y-1175286D01*
X4437619Y-1175286D02*
X4437619Y-1232429D01*
X4437619Y-1232429D02*
X4428096Y-1251476D01*
X4428096Y-1251476D02*
X4418572Y-1261000D01*
X4418572Y-1261000D02*
X4399524Y-1270524D01*
X4399524Y-1270524D02*
X4370953Y-1270524D01*
X4551905Y-1270524D02*
X4532858Y-1261000D01*
X4532858Y-1261000D02*
X4523334Y-1241952D01*
X4523334Y-1241952D02*
X4523334Y-1070524D01*
X4704286Y-1261000D02*
X4685239Y-1270524D01*
X4685239Y-1270524D02*
X4647143Y-1270524D01*
X4647143Y-1270524D02*
X4628096Y-1261000D01*
X4628096Y-1261000D02*
X4618572Y-1241952D01*
X4618572Y-1241952D02*
X4618572Y-1165762D01*
X4618572Y-1165762D02*
X4628096Y-1146714D01*
X4628096Y-1146714D02*
X4647143Y-1137190D01*
X4647143Y-1137190D02*
X4685239Y-1137190D01*
X4685239Y-1137190D02*
X4704286Y-1146714D01*
X4704286Y-1146714D02*
X4713810Y-1165762D01*
X4713810Y-1165762D02*
X4713810Y-1184810D01*
X4713810Y-1184810D02*
X4618572Y-1203857D01*
X4790000Y-1261000D02*
X4809048Y-1270524D01*
X4809048Y-1270524D02*
X4847143Y-1270524D01*
X4847143Y-1270524D02*
X4866191Y-1261000D01*
X4866191Y-1261000D02*
X4875715Y-1241952D01*
X4875715Y-1241952D02*
X4875715Y-1232429D01*
X4875715Y-1232429D02*
X4866191Y-1213381D01*
X4866191Y-1213381D02*
X4847143Y-1203857D01*
X4847143Y-1203857D02*
X4818572Y-1203857D01*
X4818572Y-1203857D02*
X4799524Y-1194333D01*
X4799524Y-1194333D02*
X4790000Y-1175286D01*
X4790000Y-1175286D02*
X4790000Y-1165762D01*
X4790000Y-1165762D02*
X4799524Y-1146714D01*
X4799524Y-1146714D02*
X4818572Y-1137190D01*
X4818572Y-1137190D02*
X4847143Y-1137190D01*
X4847143Y-1137190D02*
X4866191Y-1146714D01*
X4942381Y-1346714D02*
X4951905Y-1337190D01*
X4951905Y-1337190D02*
X4970953Y-1308619D01*
X4970953Y-1308619D02*
X4980477Y-1289571D01*
X4980477Y-1289571D02*
X4990000Y-1261000D01*
X4990000Y-1261000D02*
X4999524Y-1213381D01*
X4999524Y-1213381D02*
X4999524Y-1175286D01*
X4999524Y-1175286D02*
X4990000Y-1127667D01*
X4990000Y-1127667D02*
X4980477Y-1099095D01*
X4980477Y-1099095D02*
X4970953Y-1080048D01*
X4970953Y-1080048D02*
X4951905Y-1051476D01*
X4951905Y-1051476D02*
X4942381Y-1041952D01*
X-39289Y-1512711D02*
X-39289Y-1371289D01*
X-180711Y-1371289D01*
X-180711Y-1512711D01*
X-39289Y-1512711D01*
X228095Y-1353571D02*
X237619Y-1344048D01*
X237619Y-1344048D02*
X256667Y-1334524D01*
X256667Y-1334524D02*
X304286Y-1334524D01*
X304286Y-1334524D02*
X323333Y-1344048D01*
X323333Y-1344048D02*
X332857Y-1353571D01*
X332857Y-1353571D02*
X342381Y-1372619D01*
X342381Y-1372619D02*
X342381Y-1391667D01*
X342381Y-1391667D02*
X332857Y-1420238D01*
X332857Y-1420238D02*
X218571Y-1534524D01*
X218571Y-1534524D02*
X342381Y-1534524D01*
X428095Y-1515476D02*
X437619Y-1525000D01*
X437619Y-1525000D02*
X428095Y-1534524D01*
X428095Y-1534524D02*
X418571Y-1525000D01*
X418571Y-1525000D02*
X428095Y-1515476D01*
X428095Y-1515476D02*
X428095Y-1534524D01*
X609048Y-1401190D02*
X609048Y-1534524D01*
X561429Y-1325000D02*
X513809Y-1467857D01*
X513809Y-1467857D02*
X637619Y-1467857D01*
X818571Y-1534524D02*
X704286Y-1534524D01*
X761428Y-1534524D02*
X761428Y-1334524D01*
X761428Y-1334524D02*
X742381Y-1363095D01*
X742381Y-1363095D02*
X723333Y-1382143D01*
X723333Y-1382143D02*
X704286Y-1391667D01*
X885238Y-1334524D02*
X1009048Y-1334524D01*
X1009048Y-1334524D02*
X942381Y-1410714D01*
X942381Y-1410714D02*
X970952Y-1410714D01*
X970952Y-1410714D02*
X990000Y-1420238D01*
X990000Y-1420238D02*
X999524Y-1429762D01*
X999524Y-1429762D02*
X1009048Y-1448809D01*
X1009048Y-1448809D02*
X1009048Y-1496428D01*
X1009048Y-1496428D02*
X999524Y-1515476D01*
X999524Y-1515476D02*
X990000Y-1525000D01*
X990000Y-1525000D02*
X970952Y-1534524D01*
X970952Y-1534524D02*
X913809Y-1534524D01*
X913809Y-1534524D02*
X894762Y-1525000D01*
X894762Y-1525000D02*
X885238Y-1515476D01*
X1094762Y-1534524D02*
X1094762Y-1401190D01*
X1094762Y-1420238D02*
X1104286Y-1410714D01*
X1104286Y-1410714D02*
X1123333Y-1401190D01*
X1123333Y-1401190D02*
X1151905Y-1401190D01*
X1151905Y-1401190D02*
X1170952Y-1410714D01*
X1170952Y-1410714D02*
X1180476Y-1429762D01*
X1180476Y-1429762D02*
X1180476Y-1534524D01*
X1180476Y-1429762D02*
X1190000Y-1410714D01*
X1190000Y-1410714D02*
X1209048Y-1401190D01*
X1209048Y-1401190D02*
X1237619Y-1401190D01*
X1237619Y-1401190D02*
X1256667Y-1410714D01*
X1256667Y-1410714D02*
X1266191Y-1429762D01*
X1266191Y-1429762D02*
X1266191Y-1534524D01*
X1361429Y-1534524D02*
X1361429Y-1401190D01*
X1361429Y-1420238D02*
X1370952Y-1410714D01*
X1370952Y-1410714D02*
X1390000Y-1401190D01*
X1390000Y-1401190D02*
X1418571Y-1401190D01*
X1418571Y-1401190D02*
X1437619Y-1410714D01*
X1437619Y-1410714D02*
X1447143Y-1429762D01*
X1447143Y-1429762D02*
X1447143Y-1534524D01*
X1447143Y-1429762D02*
X1456667Y-1410714D01*
X1456667Y-1410714D02*
X1475714Y-1401190D01*
X1475714Y-1401190D02*
X1504286Y-1401190D01*
X1504286Y-1401190D02*
X1523333Y-1410714D01*
X1523333Y-1410714D02*
X1532857Y-1429762D01*
X1532857Y-1429762D02*
X1532857Y-1534524D01*
X1923333Y-1325000D02*
X1751905Y-1582143D01*
X2180476Y-1334524D02*
X2199524Y-1334524D01*
X2199524Y-1334524D02*
X2218572Y-1344048D01*
X2218572Y-1344048D02*
X2228095Y-1353571D01*
X2228095Y-1353571D02*
X2237619Y-1372619D01*
X2237619Y-1372619D02*
X2247143Y-1410714D01*
X2247143Y-1410714D02*
X2247143Y-1458333D01*
X2247143Y-1458333D02*
X2237619Y-1496428D01*
X2237619Y-1496428D02*
X2228095Y-1515476D01*
X2228095Y-1515476D02*
X2218572Y-1525000D01*
X2218572Y-1525000D02*
X2199524Y-1534524D01*
X2199524Y-1534524D02*
X2180476Y-1534524D01*
X2180476Y-1534524D02*
X2161429Y-1525000D01*
X2161429Y-1525000D02*
X2151905Y-1515476D01*
X2151905Y-1515476D02*
X2142381Y-1496428D01*
X2142381Y-1496428D02*
X2132857Y-1458333D01*
X2132857Y-1458333D02*
X2132857Y-1410714D01*
X2132857Y-1410714D02*
X2142381Y-1372619D01*
X2142381Y-1372619D02*
X2151905Y-1353571D01*
X2151905Y-1353571D02*
X2161429Y-1344048D01*
X2161429Y-1344048D02*
X2180476Y-1334524D01*
X2332857Y-1515476D02*
X2342381Y-1525000D01*
X2342381Y-1525000D02*
X2332857Y-1534524D01*
X2332857Y-1534524D02*
X2323334Y-1525000D01*
X2323334Y-1525000D02*
X2332857Y-1515476D01*
X2332857Y-1515476D02*
X2332857Y-1534524D01*
X2466191Y-1334524D02*
X2485238Y-1334524D01*
X2485238Y-1334524D02*
X2504286Y-1344048D01*
X2504286Y-1344048D02*
X2513810Y-1353571D01*
X2513810Y-1353571D02*
X2523334Y-1372619D01*
X2523334Y-1372619D02*
X2532857Y-1410714D01*
X2532857Y-1410714D02*
X2532857Y-1458333D01*
X2532857Y-1458333D02*
X2523334Y-1496428D01*
X2523334Y-1496428D02*
X2513810Y-1515476D01*
X2513810Y-1515476D02*
X2504286Y-1525000D01*
X2504286Y-1525000D02*
X2485238Y-1534524D01*
X2485238Y-1534524D02*
X2466191Y-1534524D01*
X2466191Y-1534524D02*
X2447143Y-1525000D01*
X2447143Y-1525000D02*
X2437619Y-1515476D01*
X2437619Y-1515476D02*
X2428095Y-1496428D01*
X2428095Y-1496428D02*
X2418572Y-1458333D01*
X2418572Y-1458333D02*
X2418572Y-1410714D01*
X2418572Y-1410714D02*
X2428095Y-1372619D01*
X2428095Y-1372619D02*
X2437619Y-1353571D01*
X2437619Y-1353571D02*
X2447143Y-1344048D01*
X2447143Y-1344048D02*
X2466191Y-1334524D01*
X2628095Y-1534524D02*
X2666191Y-1534524D01*
X2666191Y-1534524D02*
X2685238Y-1525000D01*
X2685238Y-1525000D02*
X2694762Y-1515476D01*
X2694762Y-1515476D02*
X2713810Y-1486905D01*
X2713810Y-1486905D02*
X2723334Y-1448809D01*
X2723334Y-1448809D02*
X2723334Y-1372619D01*
X2723334Y-1372619D02*
X2713810Y-1353571D01*
X2713810Y-1353571D02*
X2704286Y-1344048D01*
X2704286Y-1344048D02*
X2685238Y-1334524D01*
X2685238Y-1334524D02*
X2647143Y-1334524D01*
X2647143Y-1334524D02*
X2628095Y-1344048D01*
X2628095Y-1344048D02*
X2618572Y-1353571D01*
X2618572Y-1353571D02*
X2609048Y-1372619D01*
X2609048Y-1372619D02*
X2609048Y-1420238D01*
X2609048Y-1420238D02*
X2618572Y-1439286D01*
X2618572Y-1439286D02*
X2628095Y-1448809D01*
X2628095Y-1448809D02*
X2647143Y-1458333D01*
X2647143Y-1458333D02*
X2685238Y-1458333D01*
X2685238Y-1458333D02*
X2704286Y-1448809D01*
X2704286Y-1448809D02*
X2713810Y-1439286D01*
X2713810Y-1439286D02*
X2723334Y-1420238D01*
X2904286Y-1334524D02*
X2809048Y-1334524D01*
X2809048Y-1334524D02*
X2799524Y-1429762D01*
X2799524Y-1429762D02*
X2809048Y-1420238D01*
X2809048Y-1420238D02*
X2828095Y-1410714D01*
X2828095Y-1410714D02*
X2875714Y-1410714D01*
X2875714Y-1410714D02*
X2894762Y-1420238D01*
X2894762Y-1420238D02*
X2904286Y-1429762D01*
X2904286Y-1429762D02*
X2913810Y-1448809D01*
X2913810Y-1448809D02*
X2913810Y-1496428D01*
X2913810Y-1496428D02*
X2904286Y-1515476D01*
X2904286Y-1515476D02*
X2894762Y-1525000D01*
X2894762Y-1525000D02*
X2875714Y-1534524D01*
X2875714Y-1534524D02*
X2828095Y-1534524D01*
X2828095Y-1534524D02*
X2809048Y-1525000D01*
X2809048Y-1525000D02*
X2799524Y-1515476D01*
X3037619Y-1334524D02*
X3056667Y-1334524D01*
X3056667Y-1334524D02*
X3075714Y-1344048D01*
X3075714Y-1344048D02*
X3085238Y-1353571D01*
X3085238Y-1353571D02*
X3094762Y-1372619D01*
X3094762Y-1372619D02*
X3104286Y-1410714D01*
X3104286Y-1410714D02*
X3104286Y-1458333D01*
X3104286Y-1458333D02*
X3094762Y-1496428D01*
X3094762Y-1496428D02*
X3085238Y-1515476D01*
X3085238Y-1515476D02*
X3075714Y-1525000D01*
X3075714Y-1525000D02*
X3056667Y-1534524D01*
X3056667Y-1534524D02*
X3037619Y-1534524D01*
X3037619Y-1534524D02*
X3018572Y-1525000D01*
X3018572Y-1525000D02*
X3009048Y-1515476D01*
X3009048Y-1515476D02*
X2999524Y-1496428D01*
X2999524Y-1496428D02*
X2990000Y-1458333D01*
X2990000Y-1458333D02*
X2990000Y-1410714D01*
X2990000Y-1410714D02*
X2999524Y-1372619D01*
X2999524Y-1372619D02*
X3009048Y-1353571D01*
X3009048Y-1353571D02*
X3018572Y-1344048D01*
X3018572Y-1344048D02*
X3037619Y-1334524D01*
X3180476Y-1334524D02*
X3180476Y-1372619D01*
X3256667Y-1334524D02*
X3256667Y-1372619D01*
X3551905Y-1610714D02*
X3542381Y-1601190D01*
X3542381Y-1601190D02*
X3523334Y-1572619D01*
X3523334Y-1572619D02*
X3513810Y-1553571D01*
X3513810Y-1553571D02*
X3504286Y-1525000D01*
X3504286Y-1525000D02*
X3494762Y-1477381D01*
X3494762Y-1477381D02*
X3494762Y-1439286D01*
X3494762Y-1439286D02*
X3504286Y-1391667D01*
X3504286Y-1391667D02*
X3513810Y-1363095D01*
X3513810Y-1363095D02*
X3523334Y-1344048D01*
X3523334Y-1344048D02*
X3542381Y-1315476D01*
X3542381Y-1315476D02*
X3551905Y-1305952D01*
X3618572Y-1353571D02*
X3628095Y-1344048D01*
X3628095Y-1344048D02*
X3647143Y-1334524D01*
X3647143Y-1334524D02*
X3694762Y-1334524D01*
X3694762Y-1334524D02*
X3713810Y-1344048D01*
X3713810Y-1344048D02*
X3723334Y-1353571D01*
X3723334Y-1353571D02*
X3732857Y-1372619D01*
X3732857Y-1372619D02*
X3732857Y-1391667D01*
X3732857Y-1391667D02*
X3723334Y-1420238D01*
X3723334Y-1420238D02*
X3609048Y-1534524D01*
X3609048Y-1534524D02*
X3732857Y-1534524D01*
X3970953Y-1534524D02*
X3970953Y-1334524D01*
X4056667Y-1534524D02*
X4056667Y-1429762D01*
X4056667Y-1429762D02*
X4047143Y-1410714D01*
X4047143Y-1410714D02*
X4028096Y-1401190D01*
X4028096Y-1401190D02*
X3999524Y-1401190D01*
X3999524Y-1401190D02*
X3980476Y-1410714D01*
X3980476Y-1410714D02*
X3970953Y-1420238D01*
X4180476Y-1534524D02*
X4161429Y-1525000D01*
X4161429Y-1525000D02*
X4151905Y-1515476D01*
X4151905Y-1515476D02*
X4142381Y-1496428D01*
X4142381Y-1496428D02*
X4142381Y-1439286D01*
X4142381Y-1439286D02*
X4151905Y-1420238D01*
X4151905Y-1420238D02*
X4161429Y-1410714D01*
X4161429Y-1410714D02*
X4180476Y-1401190D01*
X4180476Y-1401190D02*
X4209048Y-1401190D01*
X4209048Y-1401190D02*
X4228096Y-1410714D01*
X4228096Y-1410714D02*
X4237619Y-1420238D01*
X4237619Y-1420238D02*
X4247143Y-1439286D01*
X4247143Y-1439286D02*
X4247143Y-1496428D01*
X4247143Y-1496428D02*
X4237619Y-1515476D01*
X4237619Y-1515476D02*
X4228096Y-1525000D01*
X4228096Y-1525000D02*
X4209048Y-1534524D01*
X4209048Y-1534524D02*
X4180476Y-1534524D01*
X4361429Y-1534524D02*
X4342381Y-1525000D01*
X4342381Y-1525000D02*
X4332858Y-1505952D01*
X4332858Y-1505952D02*
X4332858Y-1334524D01*
X4513810Y-1525000D02*
X4494762Y-1534524D01*
X4494762Y-1534524D02*
X4456667Y-1534524D01*
X4456667Y-1534524D02*
X4437619Y-1525000D01*
X4437619Y-1525000D02*
X4428096Y-1505952D01*
X4428096Y-1505952D02*
X4428096Y-1429762D01*
X4428096Y-1429762D02*
X4437619Y-1410714D01*
X4437619Y-1410714D02*
X4456667Y-1401190D01*
X4456667Y-1401190D02*
X4494762Y-1401190D01*
X4494762Y-1401190D02*
X4513810Y-1410714D01*
X4513810Y-1410714D02*
X4523334Y-1429762D01*
X4523334Y-1429762D02*
X4523334Y-1448809D01*
X4523334Y-1448809D02*
X4428096Y-1467857D01*
X4599524Y-1525000D02*
X4618572Y-1534524D01*
X4618572Y-1534524D02*
X4656667Y-1534524D01*
X4656667Y-1534524D02*
X4675715Y-1525000D01*
X4675715Y-1525000D02*
X4685239Y-1505952D01*
X4685239Y-1505952D02*
X4685239Y-1496428D01*
X4685239Y-1496428D02*
X4675715Y-1477381D01*
X4675715Y-1477381D02*
X4656667Y-1467857D01*
X4656667Y-1467857D02*
X4628096Y-1467857D01*
X4628096Y-1467857D02*
X4609048Y-1458333D01*
X4609048Y-1458333D02*
X4599524Y-1439286D01*
X4599524Y-1439286D02*
X4599524Y-1429762D01*
X4599524Y-1429762D02*
X4609048Y-1410714D01*
X4609048Y-1410714D02*
X4628096Y-1401190D01*
X4628096Y-1401190D02*
X4656667Y-1401190D01*
X4656667Y-1401190D02*
X4675715Y-1410714D01*
X4751905Y-1610714D02*
X4761429Y-1601190D01*
X4761429Y-1601190D02*
X4780477Y-1572619D01*
X4780477Y-1572619D02*
X4790000Y-1553571D01*
X4790000Y-1553571D02*
X4799524Y-1525000D01*
X4799524Y-1525000D02*
X4809048Y-1477381D01*
X4809048Y-1477381D02*
X4809048Y-1439286D01*
X4809048Y-1439286D02*
X4799524Y-1391667D01*
X4799524Y-1391667D02*
X4790000Y-1363095D01*
X4790000Y-1363095D02*
X4780477Y-1344048D01*
X4780477Y-1344048D02*
X4761429Y-1315476D01*
X4761429Y-1315476D02*
X4751905Y-1305952D01*
M02*
