G04 #@! TF.GenerationSoftware,KiCad,Pcbnew,7.0.1*
G04 #@! TF.CreationDate,2024-02-25T13:56:51-08:00*
G04 #@! TF.ProjectId,POWERCORE-V2.0_MOTHERBOARD,504f5745-5243-44f5-9245-2d56322e305f,rev?*
G04 #@! TF.SameCoordinates,PX791ddbePYb90347e*
G04 #@! TF.FileFunction,Copper,L5,Inr*
G04 #@! TF.FilePolarity,Positive*
%FSLAX46Y46*%
G04 Gerber Fmt 4.6, Leading zero omitted, Abs format (unit mm)*
G04 Created by KiCad (PCBNEW 7.0.1) date 2024-02-25 13:56:51*
%MOMM*%
%LPD*%
G01*
G04 APERTURE LIST*
G04 #@! TA.AperFunction,ComponentPad*
%ADD10C,1.778000*%
G04 #@! TD*
G04 #@! TA.AperFunction,ComponentPad*
%ADD11C,3.175000*%
G04 #@! TD*
G04 #@! TA.AperFunction,ComponentPad*
%ADD12C,1.651000*%
G04 #@! TD*
G04 #@! TA.AperFunction,ComponentPad*
%ADD13R,2.000000X2.000000*%
G04 #@! TD*
G04 #@! TA.AperFunction,ComponentPad*
%ADD14C,2.000000*%
G04 #@! TD*
G04 #@! TA.AperFunction,ViaPad*
%ADD15C,0.635000*%
G04 #@! TD*
G04 APERTURE END LIST*
D10*
X7918000Y68584999D03*
X7918000Y71584999D03*
X7918000Y74584999D03*
X7918000Y77584999D03*
X10918000Y68584999D03*
X10918000Y71584999D03*
X10918000Y74584999D03*
X10918000Y77584999D03*
D11*
X3600000Y66430199D03*
X3600000Y79739799D03*
D12*
X6614322Y41100000D03*
X6614322Y38600000D03*
X6614322Y56392060D03*
X6614322Y53892060D03*
D13*
X127381000Y20274677D03*
D14*
X127381000Y15274677D03*
D12*
X6614322Y25808000D03*
X6614322Y23308000D03*
D13*
X96266000Y20401677D03*
D14*
X96266000Y15401677D03*
D13*
X108966000Y20401677D03*
D14*
X108966000Y15401677D03*
D10*
X141037252Y35860998D03*
X141037252Y32860998D03*
X138037252Y35860998D03*
X138037252Y32860998D03*
D13*
X139700000Y20274677D03*
D14*
X139700000Y15274677D03*
D15*
X69215002Y44520998D03*
X70358002Y43377998D03*
X70358002Y44520998D03*
X69215002Y42234998D03*
X70358002Y39948998D03*
X69215002Y39948998D03*
X69215002Y41091998D03*
X70358002Y41091998D03*
X70358002Y42234998D03*
X69215002Y43377998D03*
X69215002Y45790998D03*
X70358002Y45790998D03*
X69215002Y46933998D03*
X70358002Y46933998D03*
X70358002Y50362998D03*
X69215002Y50362998D03*
X70358002Y48076998D03*
X69215002Y48076998D03*
X70358002Y49219998D03*
X69215002Y49219998D03*
X72644002Y45790998D03*
X71501002Y45790998D03*
X29096002Y8452998D03*
X108649000Y70047998D03*
X28131000Y69285998D03*
X71501002Y48076998D03*
X72644002Y46933998D03*
X72644002Y49219998D03*
X72644002Y50362998D03*
X71501002Y49219998D03*
X71501002Y50362998D03*
X72644002Y48076998D03*
X71501002Y46933998D03*
X73787002Y49219998D03*
X74930002Y49219998D03*
X73787002Y50362998D03*
X74930002Y50362998D03*
X76073002Y49219998D03*
X76073002Y50362998D03*
X77216002Y49219998D03*
X77216002Y50362998D03*
X41897004Y19501998D03*
X27496004Y7563997D03*
X23889002Y21660998D03*
X117234002Y42615998D03*
X61214002Y19374998D03*
X61214002Y15818998D03*
X35560002Y13419000D03*
X29337002Y28632996D03*
X41897000Y14167998D03*
X32448004Y9341998D03*
X129146002Y53156998D03*
X62992002Y17596998D03*
X62992002Y15818998D03*
X34417002Y28633000D03*
X105804002Y30423998D03*
X117021004Y71698998D03*
X23889002Y14548998D03*
X19304002Y27490000D03*
X15494001Y43440997D03*
X62103002Y16707998D03*
X54864002Y10484998D03*
X107937002Y36138998D03*
X62992002Y19374998D03*
X61214002Y17596998D03*
X39688004Y35630998D03*
X28321002Y12897998D03*
X111620002Y36138998D03*
X62103002Y18485998D03*
X132461002Y71190998D03*
X22352002Y15437998D03*
X128143002Y37027998D03*
X115900002Y9499998D03*
X130810002Y37027998D03*
X110363002Y41027257D03*
X112649002Y76397998D03*
X108649002Y75381998D03*
X52070002Y70436117D03*
X44069002Y70436117D03*
X42037002Y70436117D03*
X75057002Y17723998D03*
X75946002Y16834998D03*
X58674002Y70436117D03*
X72009002Y10357998D03*
X77089002Y66618998D03*
X29845002Y69285998D03*
X115100002Y7199998D03*
X29337002Y30182996D03*
X33020002Y42424996D03*
X143015002Y76397998D03*
X53327004Y46679998D03*
X53284000Y57356996D03*
X73660002Y12008998D03*
X134112002Y37027998D03*
X72009002Y12008998D03*
X90100002Y7199998D03*
X77470002Y24073998D03*
X92661000Y40583998D03*
X22339002Y22549998D03*
X115697002Y42615998D03*
X56007002Y70436117D03*
X62738002Y70436117D03*
X91199000Y49854998D03*
X116967002Y76270998D03*
X137175002Y61665998D03*
X53327001Y44901996D03*
X28321002Y11361000D03*
X116332002Y44901998D03*
X32512002Y21406998D03*
X135509002Y74111998D03*
X113157002Y36138998D03*
X59944002Y70436117D03*
X78740002Y15945998D03*
X50673002Y70436117D03*
X91199000Y48076998D03*
X34290002Y19628998D03*
X73660002Y13786998D03*
X70358002Y12008998D03*
X117983002Y53029998D03*
X90100002Y9499998D03*
X126111002Y64205998D03*
X133096002Y37027998D03*
X132398000Y56712998D03*
X2878999Y30458001D03*
X54864002Y13024998D03*
X135572004Y67888998D03*
X104140002Y36138998D03*
X92661000Y37916998D03*
X34417002Y30182996D03*
X102997002Y33725998D03*
X34798002Y37473000D03*
X33401002Y20517998D03*
X76835002Y17723998D03*
X130683002Y44647998D03*
X72539002Y43502998D03*
X34290002Y21406998D03*
X135128002Y37027998D03*
X75057002Y15945998D03*
X62992002Y13011996D03*
X115518000Y8325998D03*
X92661000Y43250998D03*
X53340002Y70436117D03*
X2878999Y34057999D03*
X123000002Y47314998D03*
X72009002Y13786998D03*
X120536002Y45155998D03*
X107455002Y53410998D03*
X19304004Y38368996D03*
X48006002Y70436117D03*
X70358002Y13786998D03*
X113411002Y32328998D03*
X77470002Y37916998D03*
X39497002Y64967998D03*
X77978002Y16834998D03*
X35560002Y11869000D03*
X109601002Y32328998D03*
X109474002Y36138998D03*
X89300002Y7199998D03*
X34570002Y51561998D03*
X43434002Y18612996D03*
X132080002Y37027998D03*
X31242002Y37473000D03*
X131572002Y53156998D03*
X123317002Y67634998D03*
X78740002Y17723998D03*
X92661000Y35376998D03*
X92710002Y41980998D03*
X133772002Y49783998D03*
X92661000Y45917998D03*
X73660002Y10357998D03*
X25019002Y32390996D03*
X54610002Y70436117D03*
X16637004Y24398996D03*
X104254003Y31312999D03*
X112141002Y44647998D03*
X89718000Y8325998D03*
X115443002Y46291878D03*
X76835002Y15945998D03*
X89300002Y9499998D03*
X143015004Y66872998D03*
X74549002Y40965000D03*
X115900002Y7199998D03*
X57404002Y70436117D03*
X92710002Y39313998D03*
X115100002Y9499998D03*
X107950002Y39694998D03*
X32385002Y7563998D03*
X43447002Y14168000D03*
X49403002Y70436117D03*
X56332000Y52587997D03*
X91186002Y48965998D03*
X16002004Y6611998D03*
X61341002Y70428998D03*
X92710002Y36646998D03*
X19304002Y29039996D03*
X50475004Y21025998D03*
X32512002Y19628998D03*
X70358002Y10357998D03*
X143015002Y78175998D03*
X92710002Y44647998D03*
X129667002Y37027998D03*
X115471002Y71698998D03*
X39688000Y37408998D03*
X39688000Y39186998D03*
X41338004Y30169998D03*
X124968002Y56585998D03*
X107315002Y43885998D03*
X115951002Y54553998D03*
X67437002Y8198998D03*
X140081002Y67380998D03*
X140081002Y65983998D03*
X33020002Y51562000D03*
X139446002Y66745998D03*
X138811002Y65983998D03*
X138811002Y67380998D03*
X67437002Y5658998D03*
X65405002Y22930998D03*
X67441000Y6928998D03*
X70485002Y53410998D03*
X62230002Y26740998D03*
X107696002Y32074998D03*
X102743002Y32074998D03*
X113855502Y45854498D03*
X119380002Y31058998D03*
X56332000Y53546996D03*
X73533002Y40964998D03*
X23889004Y16326998D03*
X23889004Y23438997D03*
X41897000Y17723998D03*
X55880002Y80969998D03*
X119380002Y39567998D03*
X130873502Y55633498D03*
X140335002Y78175998D03*
X140335002Y76397998D03*
X110363002Y42628998D03*
X127000002Y58426998D03*
X135001002Y58744998D03*
X112268002Y52013998D03*
X140335002Y77286998D03*
X127648004Y64205998D03*
X132271004Y62554998D03*
X105918002Y53423998D03*
X59634000Y58551998D03*
X59634000Y51133996D03*
X38989001Y65729997D03*
X77597002Y67380998D03*
X76581002Y67380998D03*
X35560002Y50108998D03*
X30734002Y59887998D03*
X124962502Y58552000D03*
X118364002Y39695000D03*
X72517002Y40964998D03*
X114554002Y33725998D03*
X116967002Y33725998D03*
X56332000Y55705996D03*
X120142003Y37535997D03*
X117282000Y46679998D03*
X40005002Y65729997D03*
G04 #@! TA.AperFunction,Conductor*
G36*
X149428500Y82985117D02*
G01*
X149474619Y82938998D01*
X149491500Y82875998D01*
X149491500Y4133998D01*
X149474619Y4070998D01*
X149428500Y4024879D01*
X149365500Y4007998D01*
X634500Y4007998D01*
X571500Y4024879D01*
X525381Y4070998D01*
X508500Y4133998D01*
X508500Y5658999D01*
X66860066Y5658999D01*
X66879724Y5509677D01*
X66937360Y5370531D01*
X66937361Y5370530D01*
X67029047Y5251043D01*
X67148534Y5159357D01*
X67287680Y5101721D01*
X67437002Y5082062D01*
X67586324Y5101721D01*
X67725470Y5159357D01*
X67844957Y5251043D01*
X67936643Y5370530D01*
X67994279Y5509676D01*
X68013938Y5658998D01*
X67994279Y5808320D01*
X67936643Y5947466D01*
X67844957Y6066953D01*
X67725470Y6158639D01*
X67725469Y6158640D01*
X67681720Y6176761D01*
X67634127Y6211339D01*
X67607419Y6263756D01*
X67607419Y6322584D01*
X67634127Y6375001D01*
X67681720Y6409579D01*
X67696507Y6415705D01*
X67729468Y6429357D01*
X67848955Y6521043D01*
X67940641Y6640530D01*
X67998277Y6779676D01*
X68017936Y6928998D01*
X67998277Y7078320D01*
X67940641Y7217466D01*
X67848955Y7336953D01*
X67774573Y7394029D01*
X67729466Y7428641D01*
X67681718Y7448419D01*
X67634126Y7482998D01*
X67607419Y7535415D01*
X67607420Y7594243D01*
X67634128Y7646659D01*
X67681718Y7681235D01*
X67725470Y7699357D01*
X67844957Y7791043D01*
X67936643Y7910530D01*
X67994279Y8049676D01*
X68013938Y8198998D01*
X67994279Y8348320D01*
X67936643Y8487466D01*
X67844957Y8606953D01*
X67725470Y8698639D01*
X67725469Y8698640D01*
X67586323Y8756276D01*
X67437002Y8775934D01*
X67287680Y8756276D01*
X67148534Y8698640D01*
X67029047Y8606953D01*
X66937360Y8487466D01*
X66879724Y8348320D01*
X66860066Y8198998D01*
X66879724Y8049677D01*
X66937360Y7910531D01*
X66937361Y7910530D01*
X67029047Y7791043D01*
X67148534Y7699357D01*
X67184781Y7684343D01*
X67196282Y7679579D01*
X67243874Y7645000D01*
X67270582Y7592584D01*
X67270582Y7533756D01*
X67243874Y7481340D01*
X67196282Y7446761D01*
X67152531Y7428639D01*
X67033045Y7336953D01*
X66941358Y7217466D01*
X66883722Y7078320D01*
X66864064Y6928998D01*
X66883722Y6779677D01*
X66941358Y6640531D01*
X66941359Y6640530D01*
X67033045Y6521043D01*
X67152532Y6429357D01*
X67192827Y6412667D01*
X67196280Y6411236D01*
X67243873Y6376659D01*
X67270581Y6324243D01*
X67270582Y6265415D01*
X67243875Y6212998D01*
X67196283Y6178419D01*
X67148535Y6158641D01*
X67029047Y6066953D01*
X66937360Y5947466D01*
X66879724Y5808320D01*
X66860066Y5658999D01*
X508500Y5658999D01*
X508500Y7563998D01*
X26919068Y7563998D01*
X26938726Y7414676D01*
X26996362Y7275530D01*
X26996363Y7275529D01*
X27088049Y7156042D01*
X27207536Y7064356D01*
X27346682Y7006720D01*
X27496004Y6987061D01*
X27645326Y7006720D01*
X27784472Y7064356D01*
X27903959Y7156042D01*
X27995645Y7275529D01*
X28053281Y7414675D01*
X28072940Y7563997D01*
X28053281Y7713319D01*
X27995645Y7852465D01*
X27903959Y7971952D01*
X27784472Y8063638D01*
X27784471Y8063639D01*
X27645325Y8121275D01*
X27496004Y8140933D01*
X27346682Y8121275D01*
X27207536Y8063639D01*
X27088049Y7971952D01*
X26996362Y7852465D01*
X26938726Y7713319D01*
X26919068Y7563998D01*
X508500Y7563998D01*
X508500Y8375000D01*
X4695500Y8375000D01*
X4715415Y8223721D01*
X4773808Y8082749D01*
X4866695Y7961696D01*
X4987748Y7868809D01*
X4987749Y7868809D01*
X4987750Y7868808D01*
X5128720Y7810416D01*
X5242020Y7795500D01*
X5317980Y7795500D01*
X5431280Y7810416D01*
X5572250Y7868808D01*
X5693304Y7961696D01*
X5786192Y8082750D01*
X5844584Y8223720D01*
X5864500Y8375000D01*
X5854232Y8452998D01*
X28519066Y8452998D01*
X28538724Y8303677D01*
X28596360Y8164531D01*
X28596361Y8164530D01*
X28688047Y8045043D01*
X28807534Y7953357D01*
X28946680Y7895721D01*
X29096002Y7876062D01*
X29245324Y7895721D01*
X29384470Y7953357D01*
X29503957Y8045043D01*
X29595643Y8164530D01*
X29653279Y8303676D01*
X29672938Y8452998D01*
X29653279Y8602320D01*
X29595643Y8741466D01*
X29503957Y8860953D01*
X29384470Y8952639D01*
X29384469Y8952640D01*
X29245323Y9010276D01*
X29096002Y9029934D01*
X28946680Y9010276D01*
X28807534Y8952640D01*
X28688047Y8860953D01*
X28596360Y8741466D01*
X28538724Y8602320D01*
X28519066Y8452998D01*
X5854232Y8452998D01*
X5844584Y8526280D01*
X5786192Y8667250D01*
X5786191Y8667251D01*
X5786191Y8667252D01*
X5693304Y8788305D01*
X5572251Y8881192D01*
X5431279Y8939585D01*
X5317980Y8954500D01*
X5242020Y8954500D01*
X5128720Y8939585D01*
X4987748Y8881192D01*
X4866695Y8788305D01*
X4773808Y8667252D01*
X4715415Y8526280D01*
X4695500Y8375000D01*
X508500Y8375000D01*
X508500Y9341998D01*
X31871068Y9341998D01*
X31890726Y9192677D01*
X31948362Y9053531D01*
X31948363Y9053530D01*
X32040049Y8934043D01*
X32159536Y8842357D01*
X32298682Y8784721D01*
X32448004Y8765062D01*
X32597326Y8784721D01*
X32736472Y8842357D01*
X32855959Y8934043D01*
X32947645Y9053530D01*
X33005281Y9192676D01*
X33024940Y9341998D01*
X33005281Y9491320D01*
X32947645Y9630466D01*
X32855959Y9749953D01*
X32736472Y9841639D01*
X32736471Y9841640D01*
X32597325Y9899276D01*
X32448004Y9918934D01*
X32298682Y9899276D01*
X32159536Y9841640D01*
X32040049Y9749953D01*
X31948362Y9630466D01*
X31890726Y9491320D01*
X31871068Y9341998D01*
X508500Y9341998D01*
X508500Y10484998D01*
X54287066Y10484998D01*
X54306724Y10335677D01*
X54364360Y10196531D01*
X54364361Y10196530D01*
X54456047Y10077043D01*
X54575534Y9985357D01*
X54714680Y9927721D01*
X54864002Y9908062D01*
X55013324Y9927721D01*
X55152470Y9985357D01*
X55271957Y10077043D01*
X55363643Y10196530D01*
X55421279Y10335676D01*
X55440938Y10484998D01*
X55421279Y10634320D01*
X55363643Y10773466D01*
X55271957Y10892953D01*
X55152470Y10984639D01*
X55152469Y10984640D01*
X55013323Y11042276D01*
X54864002Y11061934D01*
X54714680Y11042276D01*
X54575534Y10984640D01*
X54456047Y10892953D01*
X54364360Y10773466D01*
X54306724Y10634320D01*
X54287066Y10484998D01*
X508500Y10484998D01*
X508500Y12897998D01*
X27744066Y12897998D01*
X27763724Y12748677D01*
X27821360Y12609531D01*
X27821361Y12609530D01*
X27913047Y12490043D01*
X28032534Y12398357D01*
X28171680Y12340721D01*
X28321002Y12321062D01*
X28470324Y12340721D01*
X28609470Y12398357D01*
X28728957Y12490043D01*
X28820643Y12609530D01*
X28878279Y12748676D01*
X28897938Y12897998D01*
X28878279Y13047320D01*
X28820643Y13186466D01*
X28728957Y13305953D01*
X28609470Y13397639D01*
X28609469Y13397640D01*
X28557901Y13419000D01*
X34983066Y13419000D01*
X35002724Y13269679D01*
X35060360Y13130533D01*
X35060361Y13130532D01*
X35152047Y13011045D01*
X35271534Y12919359D01*
X35410680Y12861723D01*
X35560002Y12842064D01*
X35709324Y12861723D01*
X35848470Y12919359D01*
X35967957Y13011045D01*
X36059643Y13130532D01*
X36117279Y13269678D01*
X36136938Y13419000D01*
X36117279Y13568322D01*
X36059643Y13707468D01*
X35967957Y13826955D01*
X35848470Y13918641D01*
X35848469Y13918642D01*
X35709323Y13976278D01*
X35560002Y13995936D01*
X35410680Y13976278D01*
X35271534Y13918642D01*
X35152047Y13826955D01*
X35060360Y13707468D01*
X35002724Y13568322D01*
X34983066Y13419000D01*
X28557901Y13419000D01*
X28470323Y13455276D01*
X28321002Y13474934D01*
X28171680Y13455276D01*
X28032534Y13397640D01*
X27913047Y13305953D01*
X27821360Y13186466D01*
X27763724Y13047320D01*
X27744066Y12897998D01*
X508500Y12897998D01*
X508500Y14155000D01*
X4695500Y14155000D01*
X4715415Y14003721D01*
X4773808Y13862749D01*
X4866695Y13741696D01*
X4987748Y13648809D01*
X4987749Y13648809D01*
X4987750Y13648808D01*
X5128720Y13590416D01*
X5242020Y13575500D01*
X5317980Y13575500D01*
X5431280Y13590416D01*
X5572250Y13648808D01*
X5693304Y13741696D01*
X5786192Y13862750D01*
X5844584Y14003720D01*
X5864500Y14155000D01*
X5844584Y14306280D01*
X5786192Y14447250D01*
X5786191Y14447251D01*
X5786191Y14447252D01*
X5708119Y14548998D01*
X23312066Y14548998D01*
X23331724Y14399677D01*
X23389360Y14260531D01*
X23389361Y14260530D01*
X23481047Y14141043D01*
X23600534Y14049357D01*
X23739680Y13991721D01*
X23889002Y13972062D01*
X24038324Y13991721D01*
X24177470Y14049357D01*
X24296957Y14141043D01*
X24317640Y14167998D01*
X41320064Y14167998D01*
X41339722Y14018677D01*
X41397358Y13879531D01*
X41418690Y13851730D01*
X41489045Y13760043D01*
X41608532Y13668357D01*
X41747678Y13610721D01*
X41897000Y13591062D01*
X42046322Y13610721D01*
X42185468Y13668357D01*
X42304955Y13760043D01*
X42396641Y13879530D01*
X42454277Y14018676D01*
X42473936Y14167998D01*
X42454277Y14317320D01*
X42396641Y14456466D01*
X42304955Y14575953D01*
X42185468Y14667639D01*
X42185467Y14667640D01*
X42046321Y14725276D01*
X41897000Y14744934D01*
X41747678Y14725276D01*
X41608532Y14667640D01*
X41489045Y14575953D01*
X41397358Y14456466D01*
X41339722Y14317320D01*
X41320064Y14167998D01*
X24317640Y14167998D01*
X24388643Y14260530D01*
X24446279Y14399676D01*
X24465938Y14548998D01*
X24446279Y14698320D01*
X24388643Y14837466D01*
X24296957Y14956953D01*
X24177470Y15048639D01*
X24177469Y15048640D01*
X24038323Y15106276D01*
X23889002Y15125934D01*
X23739680Y15106276D01*
X23600534Y15048640D01*
X23481047Y14956953D01*
X23389360Y14837466D01*
X23331724Y14698320D01*
X23312066Y14548998D01*
X5708119Y14548998D01*
X5693304Y14568305D01*
X5572251Y14661192D01*
X5431279Y14719585D01*
X5317980Y14734500D01*
X5242020Y14734500D01*
X5128720Y14719585D01*
X4987748Y14661192D01*
X4866695Y14568305D01*
X4773808Y14447252D01*
X4715415Y14306280D01*
X4695500Y14155000D01*
X508500Y14155000D01*
X508500Y16326999D01*
X23312068Y16326999D01*
X23331726Y16177677D01*
X23389362Y16038531D01*
X23389363Y16038530D01*
X23481049Y15919043D01*
X23600536Y15827357D01*
X23739682Y15769721D01*
X23889004Y15750062D01*
X24038326Y15769721D01*
X24157292Y15818998D01*
X60637066Y15818998D01*
X60656724Y15669677D01*
X60714360Y15530531D01*
X60714361Y15530530D01*
X60806047Y15411043D01*
X60925534Y15319357D01*
X61064680Y15261721D01*
X61214002Y15242062D01*
X61363324Y15261721D01*
X61502470Y15319357D01*
X61621957Y15411043D01*
X61713643Y15530530D01*
X61771279Y15669676D01*
X61790938Y15818998D01*
X61771279Y15968320D01*
X61758711Y15998662D01*
X61749508Y16056766D01*
X61767687Y16112715D01*
X61809285Y16154313D01*
X61865234Y16172492D01*
X61923338Y16163289D01*
X61953680Y16150721D01*
X62103002Y16131062D01*
X62234952Y16148435D01*
X62252325Y16150721D01*
X62282664Y16163288D01*
X62340767Y16172492D01*
X62396716Y16154313D01*
X62438315Y16112716D01*
X62456494Y16056768D01*
X62447293Y15998664D01*
X62434724Y15968321D01*
X62415066Y15818998D01*
X62434724Y15669677D01*
X62492360Y15530531D01*
X62492361Y15530530D01*
X62584047Y15411043D01*
X62703534Y15319357D01*
X62842680Y15261721D01*
X62992002Y15242062D01*
X63141324Y15261721D01*
X63280470Y15319357D01*
X63387752Y15401678D01*
X95006708Y15401678D01*
X95025839Y15182999D01*
X95082652Y14970976D01*
X95175420Y14772032D01*
X95301328Y14592217D01*
X95456539Y14437006D01*
X95456542Y14437004D01*
X95456543Y14437003D01*
X95636354Y14311098D01*
X95835297Y14218330D01*
X95928781Y14193281D01*
X96047321Y14161517D01*
X96047322Y14161517D01*
X96047326Y14161516D01*
X96266000Y14142385D01*
X96484674Y14161516D01*
X96696703Y14218330D01*
X96895646Y14311098D01*
X97075457Y14437003D01*
X97230674Y14592220D01*
X97356579Y14772031D01*
X97449347Y14970974D01*
X97506161Y15183003D01*
X97525292Y15401677D01*
X97525292Y15401678D01*
X107706708Y15401678D01*
X107725839Y15182999D01*
X107782652Y14970976D01*
X107875420Y14772032D01*
X108001328Y14592217D01*
X108156539Y14437006D01*
X108156542Y14437004D01*
X108156543Y14437003D01*
X108336354Y14311098D01*
X108535297Y14218330D01*
X108628781Y14193281D01*
X108747321Y14161517D01*
X108747322Y14161517D01*
X108747326Y14161516D01*
X108966000Y14142385D01*
X109184674Y14161516D01*
X109396703Y14218330D01*
X109493164Y14263310D01*
X126728841Y14263310D01*
X126842388Y14193003D01*
X127050318Y14112451D01*
X127269509Y14071477D01*
X127492491Y14071477D01*
X127711681Y14112451D01*
X127919611Y14193003D01*
X128033158Y14263310D01*
X139047841Y14263310D01*
X139161388Y14193003D01*
X139369318Y14112451D01*
X139588509Y14071477D01*
X139811491Y14071477D01*
X140030681Y14112451D01*
X140238611Y14193003D01*
X140352158Y14263310D01*
X139700001Y14915467D01*
X139700000Y14915467D01*
X139047841Y14263310D01*
X128033158Y14263310D01*
X127381001Y14915467D01*
X127381000Y14915467D01*
X126728841Y14263310D01*
X109493164Y14263310D01*
X109595646Y14311098D01*
X109775457Y14437003D01*
X109930674Y14592220D01*
X110056579Y14772031D01*
X110149347Y14970974D01*
X110206161Y15183003D01*
X110214181Y15274678D01*
X126172644Y15274678D01*
X126193219Y15052645D01*
X126254242Y14838171D01*
X126353636Y14638559D01*
X126367419Y14620309D01*
X126367420Y14620309D01*
X127021789Y15274676D01*
X127740210Y15274676D01*
X128394577Y14620309D01*
X128394580Y14620309D01*
X128408361Y14638556D01*
X128507757Y14838171D01*
X128568780Y15052645D01*
X128589355Y15274677D01*
X128589355Y15274678D01*
X138491644Y15274678D01*
X138512219Y15052645D01*
X138573242Y14838171D01*
X138672636Y14638559D01*
X138686419Y14620309D01*
X138686420Y14620309D01*
X139340789Y15274676D01*
X140059210Y15274676D01*
X140713577Y14620309D01*
X140713580Y14620309D01*
X140727361Y14638556D01*
X140826757Y14838171D01*
X140887780Y15052645D01*
X140908355Y15274677D01*
X140887780Y15496710D01*
X140826757Y15711184D01*
X140727362Y15910795D01*
X140713578Y15929047D01*
X140059210Y15274677D01*
X140059210Y15274676D01*
X139340789Y15274676D01*
X139340790Y15274677D01*
X139340790Y15274678D01*
X138686421Y15929047D01*
X138686420Y15929047D01*
X138672637Y15910796D01*
X138573242Y15711184D01*
X138512219Y15496710D01*
X138491644Y15274678D01*
X128589355Y15274678D01*
X128568780Y15496710D01*
X128507757Y15711184D01*
X128408362Y15910795D01*
X128394578Y15929047D01*
X127740210Y15274677D01*
X127740210Y15274676D01*
X127021789Y15274676D01*
X127021790Y15274677D01*
X127021790Y15274678D01*
X126367421Y15929047D01*
X126367420Y15929047D01*
X126353637Y15910796D01*
X126254242Y15711184D01*
X126193219Y15496710D01*
X126172644Y15274678D01*
X110214181Y15274678D01*
X110225292Y15401677D01*
X110206161Y15620351D01*
X110149347Y15832380D01*
X110056579Y16031323D01*
X109930674Y16211134D01*
X109930673Y16211135D01*
X109930671Y16211138D01*
X109855763Y16286046D01*
X126728840Y16286046D01*
X127380999Y15633887D01*
X127381000Y15633887D01*
X128033157Y16286046D01*
X139047840Y16286046D01*
X139699999Y15633887D01*
X139700000Y15633887D01*
X140352157Y16286046D01*
X140238611Y16356352D01*
X140030681Y16436904D01*
X139811491Y16477877D01*
X139588509Y16477877D01*
X139369318Y16436904D01*
X139161390Y16356352D01*
X139047840Y16286046D01*
X128033157Y16286046D01*
X127919611Y16356352D01*
X127711681Y16436904D01*
X127492491Y16477877D01*
X127269509Y16477877D01*
X127050318Y16436904D01*
X126842390Y16356352D01*
X126728840Y16286046D01*
X109855763Y16286046D01*
X109775460Y16366349D01*
X109595645Y16492257D01*
X109396701Y16585025D01*
X109184678Y16641838D01*
X108966000Y16660969D01*
X108747321Y16641838D01*
X108535298Y16585025D01*
X108336354Y16492257D01*
X108156539Y16366349D01*
X108001328Y16211138D01*
X107875420Y16031323D01*
X107782652Y15832379D01*
X107725839Y15620356D01*
X107706708Y15401678D01*
X97525292Y15401678D01*
X97506161Y15620351D01*
X97449347Y15832380D01*
X97356579Y16031323D01*
X97230674Y16211134D01*
X97230673Y16211135D01*
X97230671Y16211138D01*
X97075460Y16366349D01*
X96895645Y16492257D01*
X96696701Y16585025D01*
X96484678Y16641838D01*
X96266000Y16660969D01*
X96047321Y16641838D01*
X95835298Y16585025D01*
X95636354Y16492257D01*
X95456539Y16366349D01*
X95301328Y16211138D01*
X95175420Y16031323D01*
X95082652Y15832379D01*
X95025839Y15620356D01*
X95006708Y15401678D01*
X63387752Y15401678D01*
X63399957Y15411043D01*
X63491643Y15530530D01*
X63549279Y15669676D01*
X63568938Y15818998D01*
X63549279Y15968320D01*
X63491643Y16107466D01*
X63399957Y16226953D01*
X63280470Y16318639D01*
X63280469Y16318640D01*
X63141323Y16376276D01*
X62992002Y16395934D01*
X62842679Y16376276D01*
X62812336Y16363707D01*
X62754232Y16354506D01*
X62698284Y16372685D01*
X62656687Y16414284D01*
X62638508Y16470233D01*
X62647712Y16528336D01*
X62660279Y16558675D01*
X62663748Y16585025D01*
X62679938Y16707998D01*
X62660279Y16857320D01*
X62649114Y16884275D01*
X62647711Y16887662D01*
X62638508Y16945766D01*
X62656687Y17001715D01*
X62698285Y17043313D01*
X62754234Y17061492D01*
X62812338Y17052289D01*
X62842680Y17039721D01*
X62992002Y17020062D01*
X63141324Y17039721D01*
X63280470Y17097357D01*
X63399957Y17189043D01*
X63491643Y17308530D01*
X63549279Y17447676D01*
X63568938Y17596998D01*
X63549279Y17746320D01*
X63491643Y17885466D01*
X63399957Y18004953D01*
X63280470Y18096639D01*
X63280469Y18096640D01*
X63141323Y18154276D01*
X62992002Y18173934D01*
X62842679Y18154276D01*
X62812336Y18141707D01*
X62754232Y18132506D01*
X62698284Y18150685D01*
X62656687Y18192284D01*
X62638508Y18248233D01*
X62647712Y18306336D01*
X62660279Y18336675D01*
X62662327Y18352237D01*
X62679938Y18485998D01*
X62660279Y18635320D01*
X62647711Y18665662D01*
X62638508Y18723766D01*
X62656687Y18779715D01*
X62698285Y18821313D01*
X62754234Y18839492D01*
X62812338Y18830289D01*
X62842680Y18817721D01*
X62992002Y18798062D01*
X63141324Y18817721D01*
X63280470Y18875357D01*
X63399957Y18967043D01*
X63491643Y19086530D01*
X63549279Y19225676D01*
X63568938Y19374998D01*
X63568726Y19376609D01*
X95011500Y19376609D01*
X95026265Y19302377D01*
X95082515Y19218193D01*
X95116723Y19195336D01*
X95166699Y19161943D01*
X95240933Y19147177D01*
X97291066Y19147178D01*
X97291068Y19147178D01*
X97340556Y19157022D01*
X97365301Y19161943D01*
X97449484Y19218193D01*
X97505734Y19302376D01*
X97520500Y19376609D01*
X107711500Y19376609D01*
X107726265Y19302377D01*
X107782515Y19218193D01*
X107816723Y19195336D01*
X107866699Y19161943D01*
X107940933Y19147177D01*
X109991066Y19147178D01*
X109991068Y19147178D01*
X110040556Y19157022D01*
X110065301Y19161943D01*
X110149484Y19218193D01*
X110170476Y19249609D01*
X126126500Y19249609D01*
X126141265Y19175377D01*
X126197515Y19091193D01*
X126239808Y19062934D01*
X126281699Y19034943D01*
X126355933Y19020177D01*
X128406066Y19020178D01*
X128406068Y19020178D01*
X128459008Y19030708D01*
X128480301Y19034943D01*
X128564484Y19091193D01*
X128620734Y19175376D01*
X128635500Y19249609D01*
X138445500Y19249609D01*
X138460265Y19175377D01*
X138516515Y19091193D01*
X138558808Y19062934D01*
X138600699Y19034943D01*
X138674933Y19020177D01*
X140725066Y19020178D01*
X140725068Y19020178D01*
X140778008Y19030708D01*
X140799301Y19034943D01*
X140883484Y19091193D01*
X140939734Y19175376D01*
X140954500Y19249610D01*
X140954499Y21299743D01*
X140954499Y21299744D01*
X140954499Y21299746D01*
X140939734Y21373978D01*
X140883484Y21458162D01*
X140799301Y21514411D01*
X140799300Y21514412D01*
X140725066Y21529177D01*
X138674931Y21529177D01*
X138600699Y21514412D01*
X138516515Y21458162D01*
X138460266Y21373979D01*
X138445500Y21299744D01*
X138445500Y19249609D01*
X128635500Y19249609D01*
X128635500Y19249610D01*
X128635499Y21299743D01*
X128635499Y21299744D01*
X128635499Y21299746D01*
X128620734Y21373978D01*
X128564484Y21458162D01*
X128480301Y21514411D01*
X128480300Y21514412D01*
X128406066Y21529177D01*
X126355931Y21529177D01*
X126281699Y21514412D01*
X126197515Y21458162D01*
X126141266Y21373979D01*
X126126500Y21299744D01*
X126126500Y19249609D01*
X110170476Y19249609D01*
X110205734Y19302376D01*
X110220500Y19376610D01*
X110220499Y21426743D01*
X110220499Y21426744D01*
X110220499Y21426746D01*
X110205734Y21500978D01*
X110149484Y21585162D01*
X110065301Y21641411D01*
X110065300Y21641412D01*
X109991066Y21656177D01*
X107940931Y21656177D01*
X107866699Y21641412D01*
X107782515Y21585162D01*
X107726266Y21500979D01*
X107711500Y21426744D01*
X107711500Y19376609D01*
X97520500Y19376609D01*
X97520500Y19376610D01*
X97520499Y21426743D01*
X97520499Y21426744D01*
X97520499Y21426746D01*
X97505734Y21500978D01*
X97449484Y21585162D01*
X97365301Y21641411D01*
X97365300Y21641412D01*
X97291066Y21656177D01*
X95240931Y21656177D01*
X95166699Y21641412D01*
X95082515Y21585162D01*
X95026266Y21500979D01*
X95011500Y21426744D01*
X95011500Y19376609D01*
X63568726Y19376609D01*
X63549279Y19524320D01*
X63491643Y19663466D01*
X63399957Y19782953D01*
X63280470Y19874639D01*
X63280469Y19874640D01*
X63141323Y19932276D01*
X62992002Y19951934D01*
X62842680Y19932276D01*
X62703534Y19874640D01*
X62584047Y19782953D01*
X62492360Y19663466D01*
X62434724Y19524320D01*
X62415066Y19374999D01*
X62434724Y19225675D01*
X62447292Y19195334D01*
X62456495Y19137230D01*
X62438316Y19081282D01*
X62396718Y19039684D01*
X62340770Y19021505D01*
X62282666Y19030708D01*
X62252325Y19043276D01*
X62103002Y19062934D01*
X61953679Y19043276D01*
X61923336Y19030707D01*
X61865232Y19021506D01*
X61809284Y19039685D01*
X61767687Y19081284D01*
X61749508Y19137233D01*
X61758712Y19195336D01*
X61771279Y19225675D01*
X61774430Y19249611D01*
X61790938Y19374998D01*
X61771279Y19524320D01*
X61713643Y19663466D01*
X61621957Y19782953D01*
X61502470Y19874639D01*
X61502469Y19874640D01*
X61363323Y19932276D01*
X61214002Y19951934D01*
X61064680Y19932276D01*
X60925534Y19874640D01*
X60806047Y19782953D01*
X60714360Y19663466D01*
X60656724Y19524320D01*
X60637066Y19374999D01*
X60656724Y19225677D01*
X60714360Y19086531D01*
X60714361Y19086530D01*
X60806047Y18967043D01*
X60925534Y18875357D01*
X61064680Y18817721D01*
X61214002Y18798062D01*
X61345952Y18815435D01*
X61363325Y18817721D01*
X61393664Y18830288D01*
X61451767Y18839492D01*
X61507716Y18821313D01*
X61549315Y18779716D01*
X61567494Y18723768D01*
X61558293Y18665664D01*
X61545724Y18635321D01*
X61526066Y18485999D01*
X61545724Y18336675D01*
X61558292Y18306334D01*
X61567495Y18248230D01*
X61549316Y18192282D01*
X61507718Y18150684D01*
X61451770Y18132505D01*
X61393666Y18141708D01*
X61363325Y18154276D01*
X61214002Y18173934D01*
X61064680Y18154276D01*
X60925534Y18096640D01*
X60806047Y18004953D01*
X60714360Y17885466D01*
X60656724Y17746320D01*
X60637066Y17596998D01*
X60656724Y17447677D01*
X60714360Y17308531D01*
X60714361Y17308530D01*
X60806047Y17189043D01*
X60925534Y17097357D01*
X61064680Y17039721D01*
X61214002Y17020062D01*
X61345952Y17037435D01*
X61363325Y17039721D01*
X61393664Y17052288D01*
X61451767Y17061492D01*
X61507716Y17043313D01*
X61549315Y17001716D01*
X61567494Y16945768D01*
X61558293Y16887664D01*
X61545724Y16857321D01*
X61526066Y16707999D01*
X61545724Y16558675D01*
X61558292Y16528334D01*
X61567495Y16470230D01*
X61549316Y16414282D01*
X61507718Y16372684D01*
X61451770Y16354505D01*
X61393666Y16363708D01*
X61363325Y16376276D01*
X61214002Y16395934D01*
X61064680Y16376276D01*
X60925534Y16318640D01*
X60806047Y16226953D01*
X60714360Y16107466D01*
X60656724Y15968320D01*
X60637066Y15818998D01*
X24157292Y15818998D01*
X24177472Y15827357D01*
X24296959Y15919043D01*
X24388645Y16038530D01*
X24446281Y16177676D01*
X24465940Y16326998D01*
X24446281Y16476320D01*
X24388645Y16615466D01*
X24296959Y16734953D01*
X24177472Y16826639D01*
X24177471Y16826640D01*
X24038325Y16884276D01*
X23889004Y16903934D01*
X23739682Y16884276D01*
X23600536Y16826640D01*
X23481049Y16734953D01*
X23389362Y16615466D01*
X23331726Y16476320D01*
X23312068Y16326999D01*
X508500Y16326999D01*
X508500Y17723998D01*
X41320064Y17723998D01*
X41339722Y17574677D01*
X41397358Y17435531D01*
X41397359Y17435530D01*
X41489045Y17316043D01*
X41608532Y17224357D01*
X41747678Y17166721D01*
X41897000Y17147062D01*
X42046322Y17166721D01*
X42185468Y17224357D01*
X42304955Y17316043D01*
X42396641Y17435530D01*
X42454277Y17574676D01*
X42473936Y17723998D01*
X42454277Y17873320D01*
X42396641Y18012466D01*
X42304955Y18131953D01*
X42185468Y18223639D01*
X42185467Y18223640D01*
X42046321Y18281276D01*
X41897000Y18300934D01*
X41747678Y18281276D01*
X41608532Y18223640D01*
X41489045Y18131953D01*
X41397358Y18012466D01*
X41339722Y17873320D01*
X41320064Y17723998D01*
X508500Y17723998D01*
X508500Y19501998D01*
X41320068Y19501998D01*
X41339726Y19352677D01*
X41397362Y19213531D01*
X41397363Y19213530D01*
X41489049Y19094043D01*
X41608536Y19002357D01*
X41747682Y18944721D01*
X41897004Y18925062D01*
X42046326Y18944721D01*
X42185472Y19002357D01*
X42304959Y19094043D01*
X42396645Y19213530D01*
X42454281Y19352676D01*
X42473940Y19501998D01*
X42454281Y19651320D01*
X42396645Y19790466D01*
X42304959Y19909953D01*
X42185472Y20001639D01*
X42185471Y20001640D01*
X42046325Y20059276D01*
X41897004Y20078934D01*
X41747682Y20059276D01*
X41608536Y20001640D01*
X41489049Y19909953D01*
X41397362Y19790466D01*
X41339726Y19651320D01*
X41320068Y19501998D01*
X508500Y19501998D01*
X508500Y21660998D01*
X23312066Y21660998D01*
X23331724Y21511677D01*
X23389360Y21372531D01*
X23389361Y21372530D01*
X23481047Y21253043D01*
X23600534Y21161357D01*
X23739680Y21103721D01*
X23889002Y21084062D01*
X24038324Y21103721D01*
X24177470Y21161357D01*
X24296957Y21253043D01*
X24388643Y21372530D01*
X24446279Y21511676D01*
X24465938Y21660998D01*
X24446279Y21810320D01*
X24388643Y21949466D01*
X24296957Y22068953D01*
X24177470Y22160639D01*
X24177469Y22160640D01*
X24038323Y22218276D01*
X23889002Y22237934D01*
X23739680Y22218276D01*
X23600534Y22160640D01*
X23481047Y22068953D01*
X23389360Y21949466D01*
X23331724Y21810320D01*
X23312066Y21660998D01*
X508500Y21660998D01*
X508500Y22422748D01*
X6088277Y22422748D01*
X6218750Y22353008D01*
X6412666Y22294185D01*
X6614322Y22274323D01*
X6815977Y22294185D01*
X7009893Y22353008D01*
X7140365Y22422748D01*
X6614323Y22948790D01*
X6614322Y22948790D01*
X6088278Y22422748D01*
X6088277Y22422748D01*
X508500Y22422748D01*
X508500Y23308001D01*
X5580644Y23308001D01*
X5600506Y23106340D01*
X5659328Y22912431D01*
X5729067Y22781958D01*
X5729068Y22781957D01*
X6255111Y23307999D01*
X6973532Y23307999D01*
X7499574Y22781957D01*
X7569314Y22912429D01*
X7628137Y23106345D01*
X7647999Y23308000D01*
X7635097Y23438997D01*
X23312068Y23438997D01*
X23331726Y23289676D01*
X23389362Y23150530D01*
X23389363Y23150529D01*
X23481049Y23031042D01*
X23600536Y22939356D01*
X23739682Y22881720D01*
X23889004Y22862061D01*
X24038326Y22881720D01*
X24157296Y22930999D01*
X64828066Y22930999D01*
X64847724Y22781677D01*
X64905360Y22642531D01*
X64905361Y22642530D01*
X64997047Y22523043D01*
X65116534Y22431357D01*
X65255680Y22373721D01*
X65405002Y22354062D01*
X65554324Y22373721D01*
X65693470Y22431357D01*
X65812957Y22523043D01*
X65904643Y22642530D01*
X65962279Y22781676D01*
X65981938Y22930998D01*
X65962279Y23080320D01*
X65904643Y23219466D01*
X65812957Y23338953D01*
X65693470Y23430639D01*
X65693469Y23430640D01*
X65554323Y23488276D01*
X65405002Y23507934D01*
X65255680Y23488276D01*
X65116534Y23430640D01*
X64997047Y23338953D01*
X64905360Y23219466D01*
X64847724Y23080320D01*
X64828066Y22930999D01*
X24157296Y22930999D01*
X24177472Y22939356D01*
X24296959Y23031042D01*
X24388645Y23150529D01*
X24446281Y23289675D01*
X24465940Y23438997D01*
X24446281Y23588319D01*
X24388645Y23727465D01*
X24296959Y23846952D01*
X24177472Y23938638D01*
X24177471Y23938639D01*
X24038325Y23996275D01*
X23889004Y24015933D01*
X23739682Y23996275D01*
X23600536Y23938639D01*
X23481049Y23846952D01*
X23389362Y23727465D01*
X23331726Y23588319D01*
X23312068Y23438997D01*
X7635097Y23438997D01*
X7628137Y23509656D01*
X7569314Y23703572D01*
X7499574Y23834044D01*
X6973532Y23308000D01*
X6973532Y23307999D01*
X6255111Y23307999D01*
X6255112Y23308000D01*
X6255112Y23308001D01*
X5729068Y23834045D01*
X5729067Y23834044D01*
X5659328Y23703570D01*
X5600506Y23509661D01*
X5580644Y23308001D01*
X508500Y23308001D01*
X508500Y24193254D01*
X6088277Y24193254D01*
X6614321Y23667210D01*
X6614322Y23667210D01*
X7140365Y24193254D01*
X7140364Y24193255D01*
X7009891Y24262994D01*
X6815982Y24321816D01*
X6614321Y24341678D01*
X6412661Y24321816D01*
X6218752Y24262994D01*
X6088278Y24193255D01*
X6088277Y24193254D01*
X508500Y24193254D01*
X508500Y25808000D01*
X5529694Y25808000D01*
X5548162Y25608702D01*
X5602937Y25416187D01*
X5692152Y25237019D01*
X5692154Y25237017D01*
X5812773Y25077292D01*
X5960688Y24942449D01*
X6130862Y24837082D01*
X6317500Y24764778D01*
X6514245Y24728000D01*
X6714397Y24728000D01*
X6714399Y24728000D01*
X6911144Y24764778D01*
X7097782Y24837082D01*
X7267956Y24942449D01*
X7415871Y25077292D01*
X7536490Y25237017D01*
X7625707Y25416188D01*
X7680481Y25608700D01*
X7698949Y25808000D01*
X7680481Y26007300D01*
X7625707Y26199812D01*
X7559365Y26333044D01*
X7536491Y26378982D01*
X7480949Y26452531D01*
X7415871Y26538708D01*
X7267956Y26673551D01*
X7220655Y26702839D01*
X7159026Y26740998D01*
X61653066Y26740998D01*
X61672724Y26591677D01*
X61730360Y26452531D01*
X61730361Y26452530D01*
X61822047Y26333043D01*
X61941534Y26241357D01*
X62080680Y26183721D01*
X62230002Y26164062D01*
X62379324Y26183721D01*
X62518470Y26241357D01*
X62637957Y26333043D01*
X62729643Y26452530D01*
X62787279Y26591676D01*
X62806938Y26740998D01*
X62787279Y26890320D01*
X62729643Y27029466D01*
X62637957Y27148953D01*
X62518470Y27240639D01*
X62518469Y27240640D01*
X62379323Y27298276D01*
X62230002Y27317934D01*
X62080680Y27298276D01*
X61941534Y27240640D01*
X61822047Y27148953D01*
X61730360Y27029466D01*
X61672724Y26890320D01*
X61653066Y26740998D01*
X7159026Y26740998D01*
X7097783Y26778918D01*
X6911144Y26851222D01*
X6911143Y26851223D01*
X6714399Y26888000D01*
X6514245Y26888000D01*
X6383081Y26863482D01*
X6317499Y26851222D01*
X6130860Y26778918D01*
X5960689Y26673552D01*
X5812772Y26538707D01*
X5692152Y26378982D01*
X5602937Y26199814D01*
X5548162Y26007299D01*
X5529694Y25808000D01*
X508500Y25808000D01*
X508500Y27490001D01*
X18727066Y27490001D01*
X18746724Y27340679D01*
X18804360Y27201533D01*
X18804361Y27201532D01*
X18896047Y27082045D01*
X19015534Y26990359D01*
X19154680Y26932723D01*
X19304002Y26913064D01*
X19453324Y26932723D01*
X19592470Y26990359D01*
X19711957Y27082045D01*
X19803643Y27201532D01*
X19861279Y27340678D01*
X19880938Y27490000D01*
X19861279Y27639322D01*
X19803643Y27778468D01*
X19711957Y27897955D01*
X19592470Y27989641D01*
X19592469Y27989642D01*
X19453323Y28047278D01*
X19304002Y28066936D01*
X19154680Y28047278D01*
X19015534Y27989642D01*
X18896047Y27897955D01*
X18804360Y27778468D01*
X18746724Y27639322D01*
X18727066Y27490001D01*
X508500Y27490001D01*
X508500Y28632997D01*
X28760066Y28632997D01*
X28779724Y28483675D01*
X28837360Y28344529D01*
X28837361Y28344528D01*
X28929047Y28225041D01*
X29048534Y28133355D01*
X29187680Y28075719D01*
X29337002Y28056060D01*
X29486324Y28075719D01*
X29625470Y28133355D01*
X29744957Y28225041D01*
X29836643Y28344528D01*
X29894279Y28483674D01*
X29913938Y28632996D01*
X29913937Y28633000D01*
X33840066Y28633000D01*
X33859724Y28483679D01*
X33917360Y28344533D01*
X33917361Y28344532D01*
X34009047Y28225045D01*
X34128534Y28133359D01*
X34267680Y28075723D01*
X34417002Y28056064D01*
X34566324Y28075723D01*
X34705470Y28133359D01*
X34824957Y28225045D01*
X34916643Y28344532D01*
X34974279Y28483678D01*
X34993938Y28633000D01*
X34974279Y28782322D01*
X34916643Y28921468D01*
X34824957Y29040955D01*
X34733269Y29111310D01*
X34705469Y29132642D01*
X34566323Y29190278D01*
X34417002Y29209936D01*
X34267680Y29190278D01*
X34128534Y29132642D01*
X34009047Y29040955D01*
X33917360Y28921468D01*
X33859724Y28782322D01*
X33840066Y28633000D01*
X29913937Y28633000D01*
X29894279Y28782318D01*
X29836643Y28921464D01*
X29744957Y29040951D01*
X29625470Y29132637D01*
X29625469Y29132638D01*
X29486323Y29190274D01*
X29337002Y29209932D01*
X29187680Y29190274D01*
X29048534Y29132638D01*
X28929047Y29040951D01*
X28837360Y28921464D01*
X28779724Y28782318D01*
X28760066Y28632997D01*
X508500Y28632997D01*
X508500Y30423999D01*
X105227066Y30423999D01*
X105246724Y30274677D01*
X105304360Y30135531D01*
X105304361Y30135530D01*
X105396047Y30016043D01*
X105515534Y29924357D01*
X105654680Y29866721D01*
X105804002Y29847062D01*
X105953324Y29866721D01*
X106092470Y29924357D01*
X106211957Y30016043D01*
X106303643Y30135530D01*
X106361279Y30274676D01*
X106380938Y30423998D01*
X106361279Y30573320D01*
X106303643Y30712466D01*
X106211957Y30831953D01*
X106092470Y30923639D01*
X106092469Y30923640D01*
X105953323Y30981276D01*
X105804002Y31000934D01*
X105654680Y30981276D01*
X105515534Y30923640D01*
X105396047Y30831953D01*
X105304360Y30712466D01*
X105246724Y30573320D01*
X105227066Y30423999D01*
X508500Y30423999D01*
X508500Y31058998D01*
X118803066Y31058998D01*
X118822724Y30909677D01*
X118880360Y30770531D01*
X118880361Y30770530D01*
X118972047Y30651043D01*
X119091534Y30559357D01*
X119230680Y30501721D01*
X119380002Y30482062D01*
X119529324Y30501721D01*
X119668470Y30559357D01*
X119787957Y30651043D01*
X119879643Y30770530D01*
X119937279Y30909676D01*
X119956938Y31058998D01*
X119937279Y31208320D01*
X119879643Y31347466D01*
X119787957Y31466953D01*
X119668470Y31558639D01*
X119668469Y31558640D01*
X119529323Y31616276D01*
X119380002Y31635934D01*
X119230680Y31616276D01*
X119091534Y31558640D01*
X118972047Y31466953D01*
X118880360Y31347466D01*
X118822724Y31208320D01*
X118803066Y31058998D01*
X508500Y31058998D01*
X508500Y32074999D01*
X102166066Y32074999D01*
X102185724Y31925677D01*
X102243360Y31786531D01*
X102243361Y31786530D01*
X102335047Y31667043D01*
X102454534Y31575357D01*
X102593680Y31517721D01*
X102743002Y31498062D01*
X102892324Y31517721D01*
X103031470Y31575357D01*
X103150957Y31667043D01*
X103242643Y31786530D01*
X103300279Y31925676D01*
X103319938Y32074998D01*
X103319938Y32074999D01*
X107119066Y32074999D01*
X107138724Y31925677D01*
X107196360Y31786531D01*
X107196361Y31786530D01*
X107288047Y31667043D01*
X107407534Y31575357D01*
X107546680Y31517721D01*
X107696002Y31498062D01*
X107845324Y31517721D01*
X107984470Y31575357D01*
X108103957Y31667043D01*
X108195643Y31786530D01*
X108253279Y31925676D01*
X108272938Y32074998D01*
X108253279Y32224320D01*
X108195643Y32363466D01*
X108103957Y32482953D01*
X107984470Y32574639D01*
X107984469Y32574640D01*
X107845323Y32632276D01*
X107696002Y32651934D01*
X107546680Y32632276D01*
X107407534Y32574640D01*
X107288047Y32482953D01*
X107196360Y32363466D01*
X107138724Y32224320D01*
X107119066Y32074999D01*
X103319938Y32074999D01*
X103300279Y32224320D01*
X103242643Y32363466D01*
X103150957Y32482953D01*
X103031470Y32574639D01*
X103031469Y32574640D01*
X102892323Y32632276D01*
X102743002Y32651934D01*
X102593680Y32632276D01*
X102454534Y32574640D01*
X102335047Y32482953D01*
X102243360Y32363466D01*
X102185724Y32224320D01*
X102166066Y32074999D01*
X508500Y32074999D01*
X508500Y32860999D01*
X136888852Y32860999D01*
X136908406Y32649982D01*
X136966400Y32446152D01*
X137060864Y32256442D01*
X137085122Y32224320D01*
X137188575Y32087327D01*
X137345187Y31944556D01*
X137525367Y31832993D01*
X137722978Y31756438D01*
X137931291Y31717498D01*
X138143211Y31717498D01*
X138143213Y31717498D01*
X138351526Y31756438D01*
X138549137Y31832993D01*
X138729317Y31944556D01*
X138885929Y32087327D01*
X139013641Y32256444D01*
X139108102Y32446148D01*
X139166097Y32649980D01*
X139185651Y32860998D01*
X139185651Y32860999D01*
X139888852Y32860999D01*
X139908406Y32649982D01*
X139966400Y32446152D01*
X140060864Y32256442D01*
X140085122Y32224320D01*
X140188575Y32087327D01*
X140345187Y31944556D01*
X140525367Y31832993D01*
X140722978Y31756438D01*
X140931291Y31717498D01*
X141143211Y31717498D01*
X141143213Y31717498D01*
X141351526Y31756438D01*
X141549137Y31832993D01*
X141729317Y31944556D01*
X141885929Y32087327D01*
X142013641Y32256444D01*
X142108102Y32446148D01*
X142166097Y32649980D01*
X142185651Y32860998D01*
X142166097Y33072016D01*
X142108102Y33275848D01*
X142013641Y33465552D01*
X141885929Y33634669D01*
X141729317Y33777440D01*
X141679234Y33808450D01*
X141549138Y33889003D01*
X141450331Y33927281D01*
X141351526Y33965558D01*
X141143213Y34004498D01*
X140931291Y34004498D01*
X140744013Y33969490D01*
X140722978Y33965558D01*
X140525365Y33889003D01*
X140345188Y33777441D01*
X140188573Y33634668D01*
X140060864Y33465555D01*
X139966400Y33275845D01*
X139908406Y33072015D01*
X139888852Y32860999D01*
X139185651Y32860999D01*
X139166097Y33072016D01*
X139108102Y33275848D01*
X139013641Y33465552D01*
X138885929Y33634669D01*
X138729317Y33777440D01*
X138679234Y33808450D01*
X138549138Y33889003D01*
X138450331Y33927281D01*
X138351526Y33965558D01*
X138143213Y34004498D01*
X137931291Y34004498D01*
X137744013Y33969490D01*
X137722978Y33965558D01*
X137525365Y33889003D01*
X137345188Y33777441D01*
X137188573Y33634668D01*
X137060864Y33465555D01*
X136966400Y33275845D01*
X136908406Y33072015D01*
X136888852Y32860999D01*
X508500Y32860999D01*
X508500Y33725998D01*
X113977066Y33725998D01*
X113996724Y33576677D01*
X114054360Y33437531D01*
X114054361Y33437530D01*
X114146047Y33318043D01*
X114265534Y33226357D01*
X114404680Y33168721D01*
X114554002Y33149062D01*
X114703324Y33168721D01*
X114842470Y33226357D01*
X114961957Y33318043D01*
X115053643Y33437530D01*
X115111279Y33576676D01*
X115130938Y33725998D01*
X116390066Y33725998D01*
X116409724Y33576677D01*
X116467360Y33437531D01*
X116467361Y33437530D01*
X116559047Y33318043D01*
X116678534Y33226357D01*
X116817680Y33168721D01*
X116967002Y33149062D01*
X117116324Y33168721D01*
X117255470Y33226357D01*
X117374957Y33318043D01*
X117466643Y33437530D01*
X117524279Y33576676D01*
X117543938Y33725998D01*
X117524279Y33875320D01*
X117466643Y34014466D01*
X117374957Y34133953D01*
X117255470Y34225639D01*
X117255469Y34225640D01*
X117246111Y34229516D01*
X143600752Y34229516D01*
X143639944Y33969490D01*
X143639945Y33969488D01*
X143717453Y33718210D01*
X143831550Y33481288D01*
X143979678Y33264022D01*
X143979682Y33264018D01*
X144158542Y33071252D01*
X144364135Y32907297D01*
X144591868Y32775815D01*
X144836654Y32679744D01*
X145093024Y32621229D01*
X145289598Y32606498D01*
X145420902Y32606498D01*
X145420906Y32606498D01*
X145617480Y32621229D01*
X145873850Y32679744D01*
X146118636Y32775815D01*
X146346369Y32907297D01*
X146551962Y33071252D01*
X146730822Y33264018D01*
X146878954Y33481288D01*
X146993050Y33718210D01*
X147070560Y33969490D01*
X147109752Y34229516D01*
X147109752Y34492480D01*
X147070560Y34752506D01*
X146993050Y35003786D01*
X146968838Y35054062D01*
X146887461Y35223043D01*
X146878954Y35240708D01*
X146809533Y35342530D01*
X146730825Y35457975D01*
X146690172Y35501788D01*
X146551962Y35650744D01*
X146346369Y35814699D01*
X146346368Y35814700D01*
X146346365Y35814702D01*
X146118636Y35946181D01*
X145873851Y36042252D01*
X145617481Y36100767D01*
X145578165Y36103714D01*
X145420906Y36115498D01*
X145289598Y36115498D01*
X145158548Y36105678D01*
X145093022Y36100767D01*
X144836652Y36042252D01*
X144591867Y35946181D01*
X144364138Y35814702D01*
X144321025Y35780320D01*
X144158542Y35650744D01*
X144094498Y35581721D01*
X143979678Y35457975D01*
X143831550Y35240709D01*
X143717453Y35003787D01*
X143644969Y34768798D01*
X143639944Y34752506D01*
X143600752Y34492480D01*
X143600752Y34229516D01*
X117246111Y34229516D01*
X117116323Y34283276D01*
X116967002Y34302934D01*
X116817680Y34283276D01*
X116678534Y34225640D01*
X116559047Y34133953D01*
X116467360Y34014466D01*
X116409724Y33875320D01*
X116390066Y33725998D01*
X115130938Y33725998D01*
X115111279Y33875320D01*
X115053643Y34014466D01*
X114961957Y34133953D01*
X114842470Y34225639D01*
X114842469Y34225640D01*
X114703323Y34283276D01*
X114554002Y34302934D01*
X114404680Y34283276D01*
X114265534Y34225640D01*
X114146047Y34133953D01*
X114054360Y34014466D01*
X113996724Y33875320D01*
X113977066Y33725998D01*
X508500Y33725998D01*
X508500Y34930261D01*
X137465723Y34930261D01*
X137548329Y34879113D01*
X137737076Y34805993D01*
X137936047Y34768798D01*
X138138457Y34768798D01*
X138337427Y34805993D01*
X138526175Y34879114D01*
X138608778Y34930261D01*
X140465723Y34930261D01*
X140548329Y34879113D01*
X140737076Y34805993D01*
X140936047Y34768798D01*
X141138457Y34768798D01*
X141337427Y34805993D01*
X141526175Y34879114D01*
X141608778Y34930261D01*
X141037252Y35501788D01*
X140465723Y34930261D01*
X138608778Y34930261D01*
X138037252Y35501788D01*
X137465723Y34930261D01*
X508500Y34930261D01*
X508500Y35630998D01*
X39111068Y35630998D01*
X39130726Y35481677D01*
X39188362Y35342531D01*
X39188363Y35342530D01*
X39280049Y35223043D01*
X39399536Y35131357D01*
X39538682Y35073721D01*
X39688004Y35054062D01*
X39837326Y35073721D01*
X39976472Y35131357D01*
X40095959Y35223043D01*
X40187645Y35342530D01*
X40245281Y35481676D01*
X40264940Y35630998D01*
X40245281Y35780320D01*
X40187645Y35919466D01*
X40095959Y36038953D01*
X39976472Y36130639D01*
X39976471Y36130640D01*
X39956293Y36138998D01*
X107360066Y36138998D01*
X107379724Y35989677D01*
X107437360Y35850531D01*
X107437361Y35850530D01*
X107529047Y35731043D01*
X107648534Y35639357D01*
X107787680Y35581721D01*
X107937002Y35562062D01*
X108086324Y35581721D01*
X108225470Y35639357D01*
X108344957Y35731043D01*
X108436643Y35850530D01*
X108494279Y35989676D01*
X108513938Y36138998D01*
X111043066Y36138998D01*
X111062724Y35989677D01*
X111120360Y35850531D01*
X111120361Y35850530D01*
X111212047Y35731043D01*
X111331534Y35639357D01*
X111470680Y35581721D01*
X111620002Y35562062D01*
X111769324Y35581721D01*
X111908470Y35639357D01*
X112027957Y35731043D01*
X112119643Y35850530D01*
X112123979Y35860998D01*
X136940373Y35860998D01*
X136959049Y35659445D01*
X137014443Y35464757D01*
X137103317Y35286276D01*
X137678041Y35860997D01*
X138396462Y35860997D01*
X138971184Y35286275D01*
X139060060Y35464760D01*
X139115454Y35659445D01*
X139134130Y35860998D01*
X139940373Y35860998D01*
X139959049Y35659445D01*
X140014443Y35464757D01*
X140103317Y35286276D01*
X140678041Y35860997D01*
X141396462Y35860997D01*
X141971184Y35286275D01*
X142060060Y35464760D01*
X142115454Y35659445D01*
X142134130Y35860999D01*
X142115454Y36062552D01*
X142060060Y36257238D01*
X141971184Y36435722D01*
X141396462Y35860998D01*
X141396462Y35860997D01*
X140678041Y35860997D01*
X140678042Y35860998D01*
X140103317Y36435722D01*
X140014442Y36257236D01*
X139959049Y36062552D01*
X139940373Y35860998D01*
X139134130Y35860998D01*
X139134130Y35860999D01*
X139115454Y36062552D01*
X139060060Y36257238D01*
X138971184Y36435722D01*
X138396462Y35860998D01*
X138396462Y35860997D01*
X137678041Y35860997D01*
X137678042Y35860998D01*
X137103317Y36435722D01*
X137014442Y36257236D01*
X136959049Y36062552D01*
X136940373Y35860998D01*
X112123979Y35860998D01*
X112177279Y35989676D01*
X112196938Y36138998D01*
X112177279Y36288320D01*
X112119643Y36427466D01*
X112027957Y36546953D01*
X111908470Y36638639D01*
X111908469Y36638640D01*
X111769323Y36696276D01*
X111620002Y36715934D01*
X111470680Y36696276D01*
X111331534Y36638640D01*
X111212047Y36546953D01*
X111120360Y36427466D01*
X111062724Y36288320D01*
X111043066Y36138998D01*
X108513938Y36138998D01*
X108494279Y36288320D01*
X108436643Y36427466D01*
X108344957Y36546953D01*
X108225470Y36638639D01*
X108225469Y36638640D01*
X108086323Y36696276D01*
X107937002Y36715934D01*
X107787680Y36696276D01*
X107648534Y36638640D01*
X107529047Y36546953D01*
X107437360Y36427466D01*
X107379724Y36288320D01*
X107360066Y36138998D01*
X39956293Y36138998D01*
X39837325Y36188276D01*
X39688004Y36207934D01*
X39538682Y36188276D01*
X39399536Y36130640D01*
X39280049Y36038953D01*
X39188362Y35919466D01*
X39130726Y35780320D01*
X39111068Y35630998D01*
X508500Y35630998D01*
X508500Y36791736D01*
X137465723Y36791736D01*
X138037251Y36220208D01*
X138037252Y36220208D01*
X138608778Y36791736D01*
X140465723Y36791736D01*
X141037251Y36220208D01*
X141037252Y36220208D01*
X141608779Y36791737D01*
X141526174Y36842884D01*
X141337427Y36916004D01*
X141138457Y36953198D01*
X140936047Y36953198D01*
X140737076Y36916004D01*
X140548330Y36842884D01*
X140465723Y36791736D01*
X138608778Y36791736D01*
X138608779Y36791737D01*
X138526174Y36842884D01*
X138337427Y36916004D01*
X138138457Y36953198D01*
X137936047Y36953198D01*
X137737076Y36916004D01*
X137548330Y36842884D01*
X137465723Y36791736D01*
X508500Y36791736D01*
X508500Y37535997D01*
X119565067Y37535997D01*
X119584725Y37386676D01*
X119642361Y37247530D01*
X119642362Y37247529D01*
X119734048Y37128042D01*
X119853535Y37036356D01*
X119992681Y36978720D01*
X120142003Y36959061D01*
X120291325Y36978720D01*
X120430471Y37036356D01*
X120549958Y37128042D01*
X120641644Y37247529D01*
X120699280Y37386675D01*
X120718939Y37535997D01*
X120699280Y37685319D01*
X120641644Y37824465D01*
X120549958Y37943952D01*
X120430471Y38035638D01*
X120430470Y38035639D01*
X120291324Y38093275D01*
X120142003Y38112933D01*
X119992681Y38093275D01*
X119853535Y38035639D01*
X119734048Y37943952D01*
X119642361Y37824465D01*
X119584725Y37685319D01*
X119565067Y37535997D01*
X508500Y37535997D01*
X508500Y37714748D01*
X6088277Y37714748D01*
X6218750Y37645008D01*
X6412666Y37586185D01*
X6614322Y37566323D01*
X6815977Y37586185D01*
X7009893Y37645008D01*
X7140365Y37714748D01*
X6614323Y38240790D01*
X6614322Y38240790D01*
X6088278Y37714748D01*
X6088277Y37714748D01*
X508500Y37714748D01*
X508500Y38600000D01*
X5580644Y38600000D01*
X5600506Y38398340D01*
X5659328Y38204431D01*
X5729067Y38073958D01*
X5729068Y38073957D01*
X6255111Y38599999D01*
X6973532Y38599999D01*
X7499574Y38073957D01*
X7569314Y38204429D01*
X7628137Y38398345D01*
X7647999Y38600001D01*
X7628137Y38801656D01*
X7569314Y38995572D01*
X7499574Y39126044D01*
X6973532Y38600000D01*
X6973532Y38599999D01*
X6255111Y38599999D01*
X6255112Y38600000D01*
X6255112Y38600001D01*
X5729068Y39126045D01*
X5729067Y39126044D01*
X5659328Y38995570D01*
X5600506Y38801661D01*
X5580644Y38600000D01*
X508500Y38600000D01*
X508500Y39485254D01*
X6088277Y39485254D01*
X6614321Y38959210D01*
X6614322Y38959210D01*
X7140365Y39485254D01*
X7140364Y39485255D01*
X7009891Y39554994D01*
X6815982Y39613816D01*
X6614322Y39633678D01*
X6412661Y39613816D01*
X6218752Y39554994D01*
X6088278Y39485255D01*
X6088277Y39485254D01*
X508500Y39485254D01*
X508500Y39695001D01*
X117787066Y39695001D01*
X117806724Y39545679D01*
X117864360Y39406533D01*
X117864361Y39406532D01*
X117956047Y39287045D01*
X118075534Y39195359D01*
X118214680Y39137723D01*
X118364002Y39118064D01*
X118513324Y39137723D01*
X118652470Y39195359D01*
X118736597Y39259913D01*
X118796852Y39284871D01*
X118861516Y39276358D01*
X118913261Y39236654D01*
X118972047Y39160043D01*
X119091534Y39068357D01*
X119230680Y39010721D01*
X119380002Y38991062D01*
X119529324Y39010721D01*
X119668470Y39068357D01*
X119787957Y39160043D01*
X119879643Y39279530D01*
X119937279Y39418676D01*
X119956938Y39567998D01*
X119937279Y39717320D01*
X119879643Y39856466D01*
X119787957Y39975953D01*
X119668470Y40067639D01*
X119668469Y40067640D01*
X119529323Y40125276D01*
X119380002Y40144934D01*
X119230680Y40125276D01*
X119091534Y40067640D01*
X119007408Y40003087D01*
X118947150Y39978128D01*
X118882486Y39986641D01*
X118830742Y40026345D01*
X118807389Y40056779D01*
X118771957Y40102955D01*
X118652470Y40194641D01*
X118652469Y40194642D01*
X118513323Y40252278D01*
X118364002Y40271936D01*
X118214680Y40252278D01*
X118075534Y40194642D01*
X117956047Y40102955D01*
X117864360Y39983468D01*
X117806724Y39844322D01*
X117787066Y39695001D01*
X508500Y39695001D01*
X508500Y41100000D01*
X5529694Y41100000D01*
X5548162Y40900702D01*
X5602937Y40708187D01*
X5692152Y40529019D01*
X5692154Y40529017D01*
X5812773Y40369292D01*
X5960688Y40234449D01*
X6130862Y40129082D01*
X6317500Y40056778D01*
X6514245Y40020000D01*
X6714397Y40020000D01*
X6714399Y40020000D01*
X6911144Y40056778D01*
X7097782Y40129082D01*
X7267956Y40234449D01*
X7415871Y40369292D01*
X7536490Y40529017D01*
X7625707Y40708188D01*
X7680481Y40900700D01*
X7686439Y40964998D01*
X71940066Y40964998D01*
X71959724Y40815677D01*
X72017360Y40676531D01*
X72017361Y40676530D01*
X72109047Y40557043D01*
X72228534Y40465357D01*
X72367680Y40407721D01*
X72517002Y40388062D01*
X72666324Y40407721D01*
X72805470Y40465357D01*
X72924957Y40557043D01*
X72925040Y40557152D01*
X72969272Y40593453D01*
X73025002Y40606448D01*
X73080732Y40593453D01*
X73124963Y40557152D01*
X73125047Y40557043D01*
X73244534Y40465357D01*
X73383680Y40407721D01*
X73533002Y40388062D01*
X73682324Y40407721D01*
X73821470Y40465357D01*
X73940957Y40557043D01*
X74032643Y40676530D01*
X74090279Y40815676D01*
X74109938Y40964998D01*
X74090279Y41114320D01*
X74032643Y41253466D01*
X73940957Y41372953D01*
X73821470Y41464639D01*
X73821469Y41464640D01*
X73682323Y41522276D01*
X73533002Y41541934D01*
X73383680Y41522276D01*
X73244534Y41464640D01*
X73125042Y41372950D01*
X73124959Y41372840D01*
X73080724Y41336540D01*
X73024995Y41323549D01*
X72969268Y41336546D01*
X72925039Y41372846D01*
X72924957Y41372953D01*
X72805470Y41464639D01*
X72805469Y41464640D01*
X72666323Y41522276D01*
X72517002Y41541934D01*
X72367680Y41522276D01*
X72228534Y41464640D01*
X72109047Y41372953D01*
X72017360Y41253466D01*
X71959724Y41114320D01*
X71940066Y40964998D01*
X7686439Y40964998D01*
X7698949Y41100000D01*
X7680481Y41299300D01*
X7625707Y41491812D01*
X7600749Y41541934D01*
X7536491Y41670982D01*
X7506959Y41710089D01*
X7415871Y41830708D01*
X7267956Y41965551D01*
X7220655Y41994839D01*
X7097783Y42070918D01*
X6911144Y42143222D01*
X6714399Y42180000D01*
X6514245Y42180000D01*
X6383081Y42155482D01*
X6317499Y42143222D01*
X6130860Y42070918D01*
X5960689Y41965552D01*
X5812772Y41830707D01*
X5692152Y41670982D01*
X5602937Y41491814D01*
X5548162Y41299299D01*
X5529694Y41100000D01*
X508500Y41100000D01*
X508500Y42628999D01*
X109786066Y42628999D01*
X109805724Y42479677D01*
X109863360Y42340531D01*
X109873336Y42327530D01*
X109955047Y42221043D01*
X110074534Y42129357D01*
X110213680Y42071721D01*
X110363002Y42052062D01*
X110512324Y42071721D01*
X110651470Y42129357D01*
X110770957Y42221043D01*
X110862643Y42340530D01*
X110920279Y42479676D01*
X110938227Y42615999D01*
X116657066Y42615999D01*
X116676724Y42466677D01*
X116734360Y42327531D01*
X116734361Y42327530D01*
X116826047Y42208043D01*
X116945534Y42116357D01*
X117084680Y42058721D01*
X117234002Y42039062D01*
X117383324Y42058721D01*
X117522470Y42116357D01*
X117641957Y42208043D01*
X117733643Y42327530D01*
X117791279Y42466676D01*
X117810938Y42615998D01*
X117791279Y42765320D01*
X117733643Y42904466D01*
X117641957Y43023953D01*
X117522470Y43115639D01*
X117522469Y43115640D01*
X117383323Y43173276D01*
X117234002Y43192934D01*
X117084680Y43173276D01*
X116945534Y43115640D01*
X116826047Y43023953D01*
X116734360Y42904466D01*
X116676724Y42765320D01*
X116657066Y42615999D01*
X110938227Y42615999D01*
X110939938Y42628998D01*
X110920279Y42778320D01*
X110862643Y42917466D01*
X110770957Y43036953D01*
X110651470Y43128639D01*
X110651469Y43128640D01*
X110512323Y43186276D01*
X110363002Y43205934D01*
X110213680Y43186276D01*
X110074534Y43128640D01*
X109955047Y43036953D01*
X109863360Y42917466D01*
X109805724Y42778320D01*
X109786066Y42628999D01*
X508500Y42628999D01*
X508500Y43440997D01*
X14917065Y43440997D01*
X14936723Y43291676D01*
X14994359Y43152530D01*
X15015691Y43124729D01*
X15086046Y43033042D01*
X15205533Y42941356D01*
X15344679Y42883720D01*
X15494001Y42864061D01*
X15643323Y42883720D01*
X15782469Y42941356D01*
X15901956Y43033042D01*
X15993642Y43152529D01*
X16051278Y43291675D01*
X16070937Y43440997D01*
X16051278Y43590319D01*
X15993642Y43729465D01*
X15901956Y43848952D01*
X15853676Y43885999D01*
X106738066Y43885999D01*
X106757724Y43736677D01*
X106815360Y43597531D01*
X106815361Y43597530D01*
X106907047Y43478043D01*
X107026534Y43386357D01*
X107165680Y43328721D01*
X107315002Y43309062D01*
X107464324Y43328721D01*
X107603470Y43386357D01*
X107722957Y43478043D01*
X107814643Y43597530D01*
X107872279Y43736676D01*
X107891938Y43885998D01*
X107872279Y44035320D01*
X107814643Y44174466D01*
X107722957Y44293953D01*
X107603470Y44385639D01*
X107603469Y44385640D01*
X107464323Y44443276D01*
X107315002Y44462934D01*
X107165680Y44443276D01*
X107026534Y44385640D01*
X106907047Y44293953D01*
X106815360Y44174466D01*
X106757724Y44035320D01*
X106738066Y43885999D01*
X15853676Y43885999D01*
X15782469Y43940638D01*
X15782468Y43940639D01*
X15643322Y43998275D01*
X15494001Y44017933D01*
X15344679Y43998275D01*
X15205533Y43940639D01*
X15086046Y43848952D01*
X14994359Y43729465D01*
X14936723Y43590319D01*
X14917065Y43440997D01*
X508500Y43440997D01*
X508500Y45854499D01*
X113278566Y45854499D01*
X113298224Y45705177D01*
X113355860Y45566031D01*
X113355861Y45566030D01*
X113447547Y45446543D01*
X113567034Y45354857D01*
X113706180Y45297221D01*
X113855502Y45277562D01*
X114004824Y45297221D01*
X114143970Y45354857D01*
X114263457Y45446543D01*
X114355143Y45566030D01*
X114412779Y45705176D01*
X114432438Y45854498D01*
X114412779Y46003820D01*
X114355143Y46142966D01*
X114263457Y46262453D01*
X114143970Y46354139D01*
X114143969Y46354140D01*
X114004823Y46411776D01*
X113855502Y46431434D01*
X113706180Y46411776D01*
X113567034Y46354140D01*
X113447547Y46262453D01*
X113355860Y46142966D01*
X113298224Y46003820D01*
X113278566Y45854499D01*
X508500Y45854499D01*
X508500Y46679998D01*
X116705064Y46679998D01*
X116724722Y46530677D01*
X116782358Y46391531D01*
X116782359Y46391530D01*
X116874045Y46272043D01*
X116993532Y46180357D01*
X117132678Y46122721D01*
X117282000Y46103062D01*
X117431322Y46122721D01*
X117570468Y46180357D01*
X117689955Y46272043D01*
X117781641Y46391530D01*
X117839277Y46530676D01*
X117858936Y46679998D01*
X117839277Y46829320D01*
X117781641Y46968466D01*
X117689955Y47087953D01*
X117570468Y47179639D01*
X117570467Y47179640D01*
X117431321Y47237276D01*
X117282000Y47256934D01*
X117132678Y47237276D01*
X116993532Y47179640D01*
X116874045Y47087953D01*
X116782358Y46968466D01*
X116724722Y46829320D01*
X116705064Y46679998D01*
X508500Y46679998D01*
X508500Y50108999D01*
X34983066Y50108999D01*
X35002724Y49959677D01*
X35060360Y49820531D01*
X35060361Y49820530D01*
X35152047Y49701043D01*
X35271534Y49609357D01*
X35410680Y49551721D01*
X35560002Y49532062D01*
X35709324Y49551721D01*
X35848470Y49609357D01*
X35967957Y49701043D01*
X36059643Y49820530D01*
X36117279Y49959676D01*
X36136938Y50108998D01*
X36117279Y50258320D01*
X36059643Y50397466D01*
X35967957Y50516953D01*
X35848470Y50608639D01*
X35848469Y50608640D01*
X35709323Y50666276D01*
X35560002Y50685934D01*
X35410680Y50666276D01*
X35271534Y50608640D01*
X35152047Y50516953D01*
X35060360Y50397466D01*
X35002724Y50258320D01*
X34983066Y50108999D01*
X508500Y50108999D01*
X508500Y51562001D01*
X32443066Y51562001D01*
X32462724Y51412679D01*
X32520360Y51273533D01*
X32520361Y51273532D01*
X32612047Y51154045D01*
X32731534Y51062359D01*
X32870680Y51004723D01*
X33020002Y50985064D01*
X33169324Y51004723D01*
X33308470Y51062359D01*
X33401829Y51133996D01*
X59057064Y51133996D01*
X59076722Y50984675D01*
X59134358Y50845529D01*
X59134359Y50845528D01*
X59226045Y50726041D01*
X59345532Y50634355D01*
X59484678Y50576719D01*
X59634000Y50557060D01*
X59783322Y50576719D01*
X59922468Y50634355D01*
X60041955Y50726041D01*
X60133641Y50845528D01*
X60191277Y50984674D01*
X60210936Y51133996D01*
X60191277Y51283318D01*
X60133641Y51422464D01*
X60041955Y51541951D01*
X59922468Y51633637D01*
X59922467Y51633638D01*
X59783321Y51691274D01*
X59634000Y51710932D01*
X59484678Y51691274D01*
X59345532Y51633638D01*
X59226045Y51541951D01*
X59134358Y51422464D01*
X59076722Y51283318D01*
X59057064Y51133996D01*
X33401829Y51133996D01*
X33427957Y51154045D01*
X33519643Y51273532D01*
X33577279Y51412678D01*
X33596938Y51562000D01*
X33577279Y51711322D01*
X33519643Y51850468D01*
X33427957Y51969955D01*
X33370559Y52013998D01*
X111691066Y52013998D01*
X111710724Y51864677D01*
X111768360Y51725531D01*
X111768361Y51725530D01*
X111860047Y51606043D01*
X111979534Y51514357D01*
X112118680Y51456721D01*
X112268002Y51437062D01*
X112417324Y51456721D01*
X112556470Y51514357D01*
X112675957Y51606043D01*
X112767643Y51725530D01*
X112825279Y51864676D01*
X112844938Y52013998D01*
X112825279Y52163320D01*
X112767643Y52302466D01*
X112675957Y52421953D01*
X112556470Y52513639D01*
X112556469Y52513640D01*
X112417323Y52571276D01*
X112268002Y52590934D01*
X112118680Y52571276D01*
X111979534Y52513640D01*
X111860047Y52421953D01*
X111768360Y52302466D01*
X111710724Y52163320D01*
X111691066Y52013998D01*
X33370559Y52013998D01*
X33308470Y52061641D01*
X33308469Y52061642D01*
X33169323Y52119278D01*
X33020002Y52138936D01*
X32870680Y52119278D01*
X32731534Y52061642D01*
X32612047Y51969955D01*
X32520360Y51850468D01*
X32462724Y51711322D01*
X32443066Y51562001D01*
X508500Y51562001D01*
X508500Y53006808D01*
X6088277Y53006808D01*
X6218750Y52937068D01*
X6412666Y52878245D01*
X6614322Y52858383D01*
X6815977Y52878245D01*
X7009893Y52937068D01*
X7140365Y53006808D01*
X6614323Y53532850D01*
X6614322Y53532850D01*
X6088278Y53006808D01*
X6088277Y53006808D01*
X508500Y53006808D01*
X508500Y53892061D01*
X5580644Y53892061D01*
X5600506Y53690400D01*
X5659328Y53496491D01*
X5729067Y53366018D01*
X5729068Y53366017D01*
X6255111Y53892059D01*
X6973532Y53892059D01*
X7499574Y53366017D01*
X7569314Y53496489D01*
X7584635Y53546997D01*
X55755064Y53546997D01*
X55774722Y53397675D01*
X55832358Y53258529D01*
X55832359Y53258528D01*
X55924045Y53139041D01*
X56043532Y53047355D01*
X56182678Y52989719D01*
X56332000Y52970060D01*
X56481322Y52989719D01*
X56620468Y53047355D01*
X56739955Y53139041D01*
X56831641Y53258528D01*
X56889277Y53397674D01*
X56891031Y53410998D01*
X69908066Y53410998D01*
X69927724Y53261677D01*
X69985360Y53122531D01*
X69985361Y53122530D01*
X70077047Y53003043D01*
X70196534Y52911357D01*
X70335680Y52853721D01*
X70485002Y52834062D01*
X70634324Y52853721D01*
X70773470Y52911357D01*
X70892957Y53003043D01*
X70984643Y53122530D01*
X71042279Y53261676D01*
X71061938Y53410998D01*
X71060226Y53423998D01*
X105341066Y53423998D01*
X105360724Y53274677D01*
X105418360Y53135531D01*
X105428336Y53122530D01*
X105510047Y53016043D01*
X105629534Y52924357D01*
X105768680Y52866721D01*
X105918002Y52847062D01*
X106067324Y52866721D01*
X106206470Y52924357D01*
X106325957Y53016043D01*
X106417643Y53135530D01*
X106426536Y53156999D01*
X128569066Y53156999D01*
X128588724Y53007677D01*
X128646360Y52868531D01*
X128646361Y52868530D01*
X128738047Y52749043D01*
X128857534Y52657357D01*
X128996680Y52599721D01*
X129146002Y52580062D01*
X129295324Y52599721D01*
X129434470Y52657357D01*
X129553957Y52749043D01*
X129645643Y52868530D01*
X129703279Y53007676D01*
X129722938Y53156998D01*
X129703279Y53306320D01*
X129645643Y53445466D01*
X129553957Y53564953D01*
X129434470Y53656639D01*
X129434469Y53656640D01*
X129295323Y53714276D01*
X129146002Y53733934D01*
X128996680Y53714276D01*
X128857534Y53656640D01*
X128738047Y53564953D01*
X128646360Y53445466D01*
X128588724Y53306320D01*
X128569066Y53156999D01*
X106426536Y53156999D01*
X106475279Y53274676D01*
X106494938Y53423998D01*
X106475279Y53573320D01*
X106417643Y53712466D01*
X106325957Y53831953D01*
X106206470Y53923639D01*
X106206469Y53923640D01*
X106067323Y53981276D01*
X105918002Y54000934D01*
X105768680Y53981276D01*
X105629534Y53923640D01*
X105510047Y53831953D01*
X105418360Y53712466D01*
X105360724Y53573320D01*
X105341066Y53423998D01*
X71060226Y53423998D01*
X71042279Y53560320D01*
X70984643Y53699466D01*
X70892957Y53818953D01*
X70773470Y53910639D01*
X70773469Y53910640D01*
X70634323Y53968276D01*
X70485002Y53987934D01*
X70335680Y53968276D01*
X70196534Y53910640D01*
X70077047Y53818953D01*
X69985360Y53699466D01*
X69927724Y53560320D01*
X69908066Y53410998D01*
X56891031Y53410998D01*
X56908936Y53546996D01*
X56889277Y53696318D01*
X56831641Y53835464D01*
X56739955Y53954951D01*
X56620468Y54046637D01*
X56620467Y54046638D01*
X56481321Y54104274D01*
X56332000Y54123932D01*
X56182678Y54104274D01*
X56043532Y54046638D01*
X55924045Y53954951D01*
X55832358Y53835464D01*
X55774722Y53696318D01*
X55755064Y53546997D01*
X7584635Y53546997D01*
X7628137Y53690405D01*
X7647999Y53892060D01*
X7628137Y54093716D01*
X7569314Y54287632D01*
X7499574Y54418104D01*
X6973532Y53892060D01*
X6973532Y53892059D01*
X6255111Y53892059D01*
X6255112Y53892060D01*
X6255112Y53892061D01*
X5729068Y54418105D01*
X5729067Y54418104D01*
X5659328Y54287630D01*
X5600506Y54093721D01*
X5580644Y53892061D01*
X508500Y53892061D01*
X508500Y54777314D01*
X6088277Y54777314D01*
X6614321Y54251270D01*
X6614322Y54251270D01*
X6917049Y54553998D01*
X115374066Y54553998D01*
X115393724Y54404677D01*
X115451360Y54265531D01*
X115451361Y54265530D01*
X115543047Y54146043D01*
X115662534Y54054357D01*
X115801680Y53996721D01*
X115951002Y53977062D01*
X116100324Y53996721D01*
X116239470Y54054357D01*
X116358957Y54146043D01*
X116450643Y54265530D01*
X116508279Y54404676D01*
X116527938Y54553998D01*
X116508279Y54703320D01*
X116450643Y54842466D01*
X116358957Y54961953D01*
X116239470Y55053639D01*
X116239469Y55053640D01*
X116100323Y55111276D01*
X115951002Y55130934D01*
X115801680Y55111276D01*
X115662534Y55053640D01*
X115543047Y54961953D01*
X115451360Y54842466D01*
X115393724Y54703320D01*
X115374066Y54553998D01*
X6917049Y54553998D01*
X7140365Y54777314D01*
X7140364Y54777315D01*
X7009891Y54847054D01*
X6815982Y54905876D01*
X6614321Y54925738D01*
X6412661Y54905876D01*
X6218752Y54847054D01*
X6088278Y54777315D01*
X6088277Y54777314D01*
X508500Y54777314D01*
X508500Y56392060D01*
X5529694Y56392060D01*
X5548162Y56192762D01*
X5602937Y56000247D01*
X5692152Y55821079D01*
X5692154Y55821077D01*
X5812773Y55661352D01*
X5960688Y55526509D01*
X6130862Y55421142D01*
X6317500Y55348838D01*
X6514245Y55312060D01*
X6714397Y55312060D01*
X6714399Y55312060D01*
X6911144Y55348838D01*
X7097782Y55421142D01*
X7267956Y55526509D01*
X7415871Y55661352D01*
X7449585Y55705996D01*
X55755064Y55705996D01*
X55774722Y55556675D01*
X55832358Y55417529D01*
X55832359Y55417528D01*
X55924045Y55298041D01*
X56043532Y55206355D01*
X56182678Y55148719D01*
X56332000Y55129060D01*
X56481322Y55148719D01*
X56620468Y55206355D01*
X56739955Y55298041D01*
X56831641Y55417528D01*
X56889277Y55556674D01*
X56899391Y55633498D01*
X130296566Y55633498D01*
X130316224Y55484177D01*
X130373860Y55345031D01*
X130373861Y55345030D01*
X130465547Y55225543D01*
X130585034Y55133857D01*
X130724180Y55076221D01*
X130873502Y55056562D01*
X131022824Y55076221D01*
X131161970Y55133857D01*
X131281457Y55225543D01*
X131373143Y55345030D01*
X131430779Y55484176D01*
X131450438Y55633498D01*
X131430779Y55782820D01*
X131373143Y55921966D01*
X131281457Y56041453D01*
X131161970Y56133139D01*
X131161969Y56133140D01*
X131022823Y56190776D01*
X130873502Y56210434D01*
X130724180Y56190776D01*
X130585034Y56133140D01*
X130465547Y56041453D01*
X130373860Y55921966D01*
X130316224Y55782820D01*
X130296566Y55633498D01*
X56899391Y55633498D01*
X56908936Y55705996D01*
X56889277Y55855318D01*
X56831641Y55994464D01*
X56739955Y56113951D01*
X56648267Y56184306D01*
X56620467Y56205638D01*
X56481321Y56263274D01*
X56332000Y56282932D01*
X56182678Y56263274D01*
X56043532Y56205638D01*
X55924045Y56113951D01*
X55832358Y55994464D01*
X55774722Y55855318D01*
X55755064Y55705996D01*
X7449585Y55705996D01*
X7536490Y55821077D01*
X7625707Y56000248D01*
X7680481Y56192760D01*
X7698949Y56392060D01*
X7680481Y56591360D01*
X7625707Y56783872D01*
X7624980Y56785331D01*
X7536491Y56963042D01*
X7506959Y57002148D01*
X7415871Y57122768D01*
X7267956Y57257611D01*
X7220655Y57286899D01*
X7097783Y57362978D01*
X6911144Y57435282D01*
X6911143Y57435283D01*
X6714399Y57472060D01*
X6514245Y57472060D01*
X6383081Y57447542D01*
X6317499Y57435282D01*
X6130860Y57362978D01*
X5960689Y57257612D01*
X5812772Y57122767D01*
X5692152Y56963042D01*
X5602937Y56783874D01*
X5548162Y56591359D01*
X5529694Y56392060D01*
X508500Y56392060D01*
X508500Y58552000D01*
X59057064Y58552000D01*
X59076722Y58402677D01*
X59134358Y58263531D01*
X59134359Y58263530D01*
X59226045Y58144043D01*
X59345532Y58052357D01*
X59484678Y57994721D01*
X59634000Y57975062D01*
X59783322Y57994721D01*
X59922468Y58052357D01*
X60041955Y58144043D01*
X60133641Y58263530D01*
X60191277Y58402676D01*
X60210936Y58551998D01*
X60210936Y58552000D01*
X124385566Y58552000D01*
X124405224Y58402679D01*
X124462860Y58263533D01*
X124476807Y58245357D01*
X124554547Y58144045D01*
X124674034Y58052359D01*
X124813180Y57994723D01*
X124962502Y57975064D01*
X125111824Y57994723D01*
X125250970Y58052359D01*
X125370457Y58144045D01*
X125462143Y58263532D01*
X125519779Y58402678D01*
X125522981Y58426999D01*
X126423066Y58426999D01*
X126442724Y58277677D01*
X126500360Y58138531D01*
X126500361Y58138530D01*
X126592047Y58019043D01*
X126711534Y57927357D01*
X126850680Y57869721D01*
X127000002Y57850062D01*
X127149324Y57869721D01*
X127288470Y57927357D01*
X127407957Y58019043D01*
X127499643Y58138530D01*
X127557279Y58277676D01*
X127576938Y58426998D01*
X127557279Y58576320D01*
X127499643Y58715466D01*
X127476981Y58744999D01*
X134424066Y58744999D01*
X134443724Y58595677D01*
X134501360Y58456531D01*
X134501361Y58456530D01*
X134593047Y58337043D01*
X134712534Y58245357D01*
X134851680Y58187721D01*
X135001002Y58168062D01*
X135150324Y58187721D01*
X135289470Y58245357D01*
X135408957Y58337043D01*
X135500643Y58456530D01*
X135558279Y58595676D01*
X135577938Y58744998D01*
X135558279Y58894320D01*
X135500643Y59033466D01*
X135408957Y59152953D01*
X135289470Y59244639D01*
X135289469Y59244640D01*
X135150323Y59302276D01*
X135020659Y59319346D01*
X135001002Y59321934D01*
X135001001Y59321934D01*
X134851680Y59302276D01*
X134712534Y59244640D01*
X134593047Y59152953D01*
X134501360Y59033466D01*
X134443724Y58894320D01*
X134424066Y58744999D01*
X127476981Y58744999D01*
X127407957Y58834953D01*
X127288470Y58926639D01*
X127288469Y58926640D01*
X127149323Y58984276D01*
X127000002Y59003934D01*
X126850680Y58984276D01*
X126711534Y58926640D01*
X126592047Y58834953D01*
X126500360Y58715466D01*
X126442724Y58576320D01*
X126423066Y58426999D01*
X125522981Y58426999D01*
X125539438Y58552000D01*
X125519779Y58701322D01*
X125462143Y58840468D01*
X125370457Y58959955D01*
X125250973Y59051639D01*
X125250969Y59051642D01*
X125111823Y59109278D01*
X124962502Y59128936D01*
X124813180Y59109278D01*
X124674034Y59051642D01*
X124554547Y58959955D01*
X124462860Y58840468D01*
X124405224Y58701322D01*
X124385566Y58552000D01*
X60210936Y58552000D01*
X60205185Y58595677D01*
X60191277Y58701320D01*
X60133641Y58840466D01*
X60092317Y58894320D01*
X60041955Y58959953D01*
X59922468Y59051639D01*
X59922467Y59051640D01*
X59783321Y59109276D01*
X59634000Y59128934D01*
X59484678Y59109276D01*
X59345532Y59051640D01*
X59226045Y58959953D01*
X59134358Y58840466D01*
X59076722Y58701320D01*
X59057064Y58552000D01*
X508500Y58552000D01*
X508500Y59887998D01*
X30157066Y59887998D01*
X30176724Y59738677D01*
X30234360Y59599531D01*
X30234361Y59599530D01*
X30326047Y59480043D01*
X30445534Y59388357D01*
X30584680Y59330721D01*
X30734002Y59311062D01*
X30883324Y59330721D01*
X31022470Y59388357D01*
X31141957Y59480043D01*
X31233643Y59599530D01*
X31291279Y59738676D01*
X31310938Y59887998D01*
X31291279Y60037320D01*
X31233643Y60176466D01*
X31141957Y60295953D01*
X31022470Y60387639D01*
X31022469Y60387640D01*
X30883323Y60445276D01*
X30734002Y60464934D01*
X30584680Y60445276D01*
X30445534Y60387640D01*
X30326047Y60295953D01*
X30234360Y60176466D01*
X30176724Y60037320D01*
X30157066Y59887998D01*
X508500Y59887998D01*
X508500Y62554999D01*
X131694068Y62554999D01*
X131713726Y62405677D01*
X131771362Y62266531D01*
X131771363Y62266530D01*
X131863049Y62147043D01*
X131982536Y62055357D01*
X132121682Y61997721D01*
X132271004Y61978062D01*
X132420326Y61997721D01*
X132559472Y62055357D01*
X132678959Y62147043D01*
X132770645Y62266530D01*
X132828281Y62405676D01*
X132847940Y62554998D01*
X132828281Y62704320D01*
X132770645Y62843466D01*
X132678959Y62962953D01*
X132559472Y63054639D01*
X132559471Y63054640D01*
X132420325Y63112276D01*
X132271004Y63131934D01*
X132121682Y63112276D01*
X131982536Y63054640D01*
X131863049Y62962953D01*
X131771362Y62843466D01*
X131713726Y62704320D01*
X131694068Y62554999D01*
X508500Y62554999D01*
X508500Y64205999D01*
X127071068Y64205999D01*
X127090726Y64056677D01*
X127148362Y63917531D01*
X127148363Y63917530D01*
X127240049Y63798043D01*
X127359536Y63706357D01*
X127498682Y63648721D01*
X127648004Y63629062D01*
X127797326Y63648721D01*
X127936472Y63706357D01*
X128055959Y63798043D01*
X128147645Y63917530D01*
X128205281Y64056676D01*
X128224940Y64205998D01*
X128205281Y64355320D01*
X128147645Y64494466D01*
X128055959Y64613953D01*
X127936472Y64705639D01*
X127936471Y64705640D01*
X127797325Y64763276D01*
X127648004Y64782934D01*
X127498682Y64763276D01*
X127359536Y64705640D01*
X127240049Y64613953D01*
X127148362Y64494466D01*
X127090726Y64355320D01*
X127071068Y64205999D01*
X508500Y64205999D01*
X508500Y64995895D01*
X2524906Y64995895D01*
X2702137Y64875061D01*
X2943951Y64758608D01*
X3200411Y64679502D01*
X3465808Y64639499D01*
X3734192Y64639499D01*
X3999588Y64679502D01*
X4256048Y64758608D01*
X4497860Y64875059D01*
X4675093Y64995896D01*
X3600001Y66070989D01*
X3599999Y66070989D01*
X2524906Y64995897D01*
X2524906Y64995895D01*
X508500Y64995895D01*
X508500Y66430199D01*
X1804279Y66430199D01*
X1824336Y66162559D01*
X1884057Y65900902D01*
X1982111Y65651064D01*
X2116306Y65418632D01*
X2166402Y65355815D01*
X2166403Y65355814D01*
X3240789Y66430198D01*
X3959210Y66430198D01*
X5033595Y65355814D01*
X5083694Y65418636D01*
X5217888Y65651065D01*
X5248867Y65729998D01*
X38412065Y65729998D01*
X38431723Y65580676D01*
X38489359Y65441530D01*
X38489360Y65441529D01*
X38581046Y65322042D01*
X38700533Y65230356D01*
X38839679Y65172720D01*
X38989001Y65153061D01*
X39138323Y65172720D01*
X39277469Y65230356D01*
X39396956Y65322042D01*
X39397039Y65322151D01*
X39441270Y65358451D01*
X39496998Y65371447D01*
X39552727Y65358454D01*
X39596961Y65322154D01*
X39597047Y65322042D01*
X39716534Y65230356D01*
X39855680Y65172720D01*
X40005002Y65153061D01*
X40154324Y65172720D01*
X40293470Y65230356D01*
X40412957Y65322042D01*
X40504643Y65441529D01*
X40562279Y65580675D01*
X40581938Y65729997D01*
X40562279Y65879319D01*
X40518920Y65983998D01*
X138234066Y65983998D01*
X138253724Y65834677D01*
X138311360Y65695531D01*
X138311361Y65695530D01*
X138403047Y65576043D01*
X138522534Y65484357D01*
X138661680Y65426721D01*
X138811002Y65407062D01*
X138960324Y65426721D01*
X139099470Y65484357D01*
X139218957Y65576043D01*
X139310643Y65695530D01*
X139329592Y65741279D01*
X139364171Y65788872D01*
X139416588Y65815580D01*
X139475416Y65815580D01*
X139527833Y65788872D01*
X139562411Y65741279D01*
X139581360Y65695531D01*
X139581361Y65695530D01*
X139673047Y65576043D01*
X139792534Y65484357D01*
X139931680Y65426721D01*
X140081002Y65407062D01*
X140230324Y65426721D01*
X140369470Y65484357D01*
X140488957Y65576043D01*
X140580643Y65695530D01*
X140638279Y65834676D01*
X140657938Y65983998D01*
X140638279Y66133320D01*
X140580643Y66272466D01*
X140488957Y66391953D01*
X140369470Y66483639D01*
X140369469Y66483640D01*
X140230323Y66541276D01*
X140124899Y66555155D01*
X140064640Y66580116D01*
X140024936Y66631862D01*
X140016425Y66696529D01*
X140017074Y66701457D01*
X140035730Y66752708D01*
X140074297Y66791273D01*
X140125548Y66809927D01*
X140230324Y66823721D01*
X140369470Y66881357D01*
X140488957Y66973043D01*
X140580643Y67092530D01*
X140638279Y67231676D01*
X140657938Y67380998D01*
X140638279Y67530320D01*
X140580643Y67669466D01*
X140488957Y67788953D01*
X140369470Y67880639D01*
X140369469Y67880640D01*
X140230323Y67938276D01*
X140100660Y67955346D01*
X140081002Y67957934D01*
X140081001Y67957934D01*
X139931680Y67938276D01*
X139792534Y67880640D01*
X139673047Y67788953D01*
X139581361Y67669467D01*
X139562411Y67623717D01*
X139527832Y67576125D01*
X139475416Y67549417D01*
X139416588Y67549417D01*
X139364172Y67576125D01*
X139329593Y67623717D01*
X139319002Y67649286D01*
X139310643Y67669466D01*
X139218957Y67788953D01*
X139099470Y67880639D01*
X139099469Y67880640D01*
X138960323Y67938276D01*
X138830660Y67955346D01*
X138811002Y67957934D01*
X138811001Y67957934D01*
X138661680Y67938276D01*
X138522534Y67880640D01*
X138403047Y67788953D01*
X138311360Y67669466D01*
X138253724Y67530320D01*
X138234066Y67380999D01*
X138253724Y67231677D01*
X138311360Y67092531D01*
X138311361Y67092530D01*
X138403047Y66973043D01*
X138522534Y66881357D01*
X138661680Y66823721D01*
X138766454Y66809927D01*
X138817706Y66791273D01*
X138856273Y66752708D01*
X138874929Y66701457D01*
X138875578Y66696529D01*
X138867067Y66631862D01*
X138827363Y66580116D01*
X138767104Y66555155D01*
X138661680Y66541276D01*
X138522534Y66483640D01*
X138403047Y66391953D01*
X138311360Y66272466D01*
X138253724Y66133320D01*
X138234066Y65983998D01*
X40518920Y65983998D01*
X40504643Y66018465D01*
X40412957Y66137952D01*
X40293470Y66229638D01*
X40293469Y66229639D01*
X40154323Y66287275D01*
X40005002Y66306933D01*
X39855680Y66287275D01*
X39716534Y66229639D01*
X39597042Y66137949D01*
X39596959Y66137839D01*
X39552725Y66101540D01*
X39496998Y66088548D01*
X39441272Y66101543D01*
X39397039Y66137844D01*
X39396957Y66137951D01*
X39277468Y66229639D01*
X39138322Y66287275D01*
X38989001Y66306933D01*
X38839679Y66287275D01*
X38700533Y66229639D01*
X38581046Y66137952D01*
X38489359Y66018465D01*
X38431723Y65879319D01*
X38412065Y65729998D01*
X5248867Y65729998D01*
X5315942Y65900902D01*
X5375663Y66162559D01*
X5395720Y66430200D01*
X5375663Y66697840D01*
X5315942Y66959497D01*
X5217888Y67209335D01*
X5118778Y67380998D01*
X76004066Y67380998D01*
X76023724Y67231677D01*
X76081360Y67092531D01*
X76081361Y67092530D01*
X76173047Y66973043D01*
X76292534Y66881357D01*
X76431680Y66823721D01*
X76581002Y66804062D01*
X76730324Y66823721D01*
X76869470Y66881357D01*
X76988957Y66973043D01*
X76989040Y66973152D01*
X77033272Y67009453D01*
X77089002Y67022448D01*
X77144732Y67009453D01*
X77188963Y66973152D01*
X77189047Y66973043D01*
X77308534Y66881357D01*
X77447680Y66823721D01*
X77597002Y66804062D01*
X77746324Y66823721D01*
X77885470Y66881357D01*
X78004957Y66973043D01*
X78096643Y67092530D01*
X78154279Y67231676D01*
X78173938Y67380998D01*
X78154279Y67530320D01*
X78096643Y67669466D01*
X78004957Y67788953D01*
X77885470Y67880639D01*
X77885469Y67880640D01*
X77746323Y67938276D01*
X77616660Y67955346D01*
X77597002Y67957934D01*
X77597001Y67957934D01*
X77447680Y67938276D01*
X77308534Y67880640D01*
X77189045Y67788952D01*
X77188964Y67788845D01*
X77144730Y67752543D01*
X77089002Y67739549D01*
X77033274Y67752543D01*
X76989040Y67788845D01*
X76988958Y67788952D01*
X76869469Y67880640D01*
X76730323Y67938276D01*
X76600660Y67955346D01*
X76581002Y67957934D01*
X76581001Y67957934D01*
X76431680Y67938276D01*
X76292534Y67880640D01*
X76173047Y67788953D01*
X76081360Y67669466D01*
X76023724Y67530320D01*
X76004066Y67380998D01*
X5118778Y67380998D01*
X5083693Y67441767D01*
X5033596Y67504585D01*
X5033595Y67504586D01*
X3959210Y66430200D01*
X3959210Y66430198D01*
X3240789Y66430198D01*
X3240789Y66430200D01*
X2166404Y67504585D01*
X2166402Y67504585D01*
X2116306Y67441766D01*
X1982111Y67209334D01*
X1884057Y66959497D01*
X1824336Y66697840D01*
X1804279Y66430199D01*
X508500Y66430199D01*
X508500Y67864503D01*
X2524906Y67864503D01*
X3599999Y66789410D01*
X3600001Y66789410D01*
X4675092Y67864503D01*
X4675092Y67864505D01*
X4497863Y67985338D01*
X4256048Y68101791D01*
X3999588Y68180897D01*
X3734192Y68220899D01*
X3465808Y68220899D01*
X3200411Y68180897D01*
X2943951Y68101791D01*
X2702136Y67985338D01*
X2524906Y67864505D01*
X2524906Y67864503D01*
X508500Y67864503D01*
X508500Y68584999D01*
X6769600Y68584999D01*
X6789154Y68373983D01*
X6847148Y68170153D01*
X6941612Y67980443D01*
X7069321Y67811330D01*
X7069323Y67811328D01*
X7225935Y67668557D01*
X7406115Y67556994D01*
X7603726Y67480439D01*
X7812039Y67441499D01*
X8023959Y67441499D01*
X8023961Y67441499D01*
X8232274Y67480439D01*
X8429885Y67556994D01*
X8610065Y67668557D01*
X8766677Y67811328D01*
X8894389Y67980445D01*
X8988850Y68170149D01*
X9046845Y68373981D01*
X9066399Y68584999D01*
X9769600Y68584999D01*
X9789154Y68373983D01*
X9847148Y68170153D01*
X9941612Y67980443D01*
X10069321Y67811330D01*
X10069323Y67811328D01*
X10225935Y67668557D01*
X10406115Y67556994D01*
X10603726Y67480439D01*
X10812039Y67441499D01*
X11023959Y67441499D01*
X11023961Y67441499D01*
X11232274Y67480439D01*
X11429885Y67556994D01*
X11610065Y67668557D01*
X11766677Y67811328D01*
X11894389Y67980445D01*
X11988850Y68170149D01*
X12046845Y68373981D01*
X12066399Y68584999D01*
X12046845Y68796017D01*
X11988850Y68999849D01*
X11894389Y69189553D01*
X11821557Y69285998D01*
X27554064Y69285998D01*
X27573722Y69136677D01*
X27631358Y68997531D01*
X27631359Y68997530D01*
X27723045Y68878043D01*
X27842532Y68786357D01*
X27981678Y68728721D01*
X28131000Y68709062D01*
X28280322Y68728721D01*
X28419468Y68786357D01*
X28538955Y68878043D01*
X28630641Y68997530D01*
X28688277Y69136676D01*
X28707936Y69285998D01*
X28688277Y69435320D01*
X28630641Y69574466D01*
X28538955Y69693953D01*
X28419468Y69785639D01*
X28419467Y69785640D01*
X28280321Y69843276D01*
X28131000Y69862934D01*
X27981678Y69843276D01*
X27842532Y69785640D01*
X27723045Y69693953D01*
X27631358Y69574466D01*
X27573722Y69435320D01*
X27554064Y69285998D01*
X11821557Y69285998D01*
X11766677Y69358670D01*
X11610065Y69501441D01*
X11492126Y69574466D01*
X11429886Y69613004D01*
X11331079Y69651282D01*
X11232274Y69689559D01*
X11023961Y69728499D01*
X10812039Y69728499D01*
X10627232Y69693953D01*
X10603726Y69689559D01*
X10406113Y69613004D01*
X10225936Y69501442D01*
X10069321Y69358669D01*
X9941612Y69189556D01*
X9847148Y68999846D01*
X9789154Y68796016D01*
X9769600Y68584999D01*
X9066399Y68584999D01*
X9046845Y68796017D01*
X8988850Y68999849D01*
X8894389Y69189553D01*
X8766677Y69358670D01*
X8610065Y69501441D01*
X8492126Y69574466D01*
X8429886Y69613004D01*
X8331079Y69651282D01*
X8232274Y69689559D01*
X8023961Y69728499D01*
X7812039Y69728499D01*
X7627232Y69693953D01*
X7603726Y69689559D01*
X7406113Y69613004D01*
X7225936Y69501442D01*
X7069321Y69358669D01*
X6941612Y69189556D01*
X6847148Y68999846D01*
X6789154Y68796016D01*
X6769600Y68584999D01*
X508500Y68584999D01*
X508500Y70047998D01*
X108072064Y70047998D01*
X108091722Y69898677D01*
X108149358Y69759531D01*
X108149359Y69759530D01*
X108241045Y69640043D01*
X108360532Y69548357D01*
X108499678Y69490721D01*
X108649000Y69471062D01*
X108798322Y69490721D01*
X108937468Y69548357D01*
X109056955Y69640043D01*
X109148641Y69759530D01*
X109206277Y69898676D01*
X109225936Y70047998D01*
X109206277Y70197320D01*
X109148641Y70336466D01*
X109056955Y70455953D01*
X108937468Y70547639D01*
X108937467Y70547640D01*
X108798321Y70605276D01*
X108649000Y70624934D01*
X108499678Y70605276D01*
X108360532Y70547640D01*
X108241045Y70455953D01*
X108149358Y70336466D01*
X108091722Y70197320D01*
X108072064Y70047998D01*
X508500Y70047998D01*
X508500Y71585000D01*
X6769600Y71585000D01*
X6789154Y71373983D01*
X6847148Y71170153D01*
X6941612Y70980443D01*
X7069321Y70811330D01*
X7069323Y70811328D01*
X7225935Y70668557D01*
X7406115Y70556994D01*
X7603726Y70480439D01*
X7812039Y70441499D01*
X8023959Y70441499D01*
X8023961Y70441499D01*
X8232274Y70480439D01*
X8429885Y70556994D01*
X8610065Y70668557D01*
X8766677Y70811328D01*
X8894389Y70980445D01*
X8988850Y71170149D01*
X9046845Y71373981D01*
X9066399Y71584999D01*
X9066399Y71585000D01*
X9769600Y71585000D01*
X9789154Y71373983D01*
X9847148Y71170153D01*
X9941612Y70980443D01*
X10069321Y70811330D01*
X10069323Y70811328D01*
X10225935Y70668557D01*
X10406115Y70556994D01*
X10603726Y70480439D01*
X10812039Y70441499D01*
X11023959Y70441499D01*
X11023961Y70441499D01*
X11232274Y70480439D01*
X11429885Y70556994D01*
X11610065Y70668557D01*
X11766677Y70811328D01*
X11894389Y70980445D01*
X11988850Y71170149D01*
X12046845Y71373981D01*
X12066399Y71584999D01*
X12055835Y71698998D01*
X116444068Y71698998D01*
X116463726Y71549677D01*
X116521362Y71410531D01*
X116521363Y71410530D01*
X116613049Y71291043D01*
X116732536Y71199357D01*
X116871682Y71141721D01*
X117021004Y71122062D01*
X117170326Y71141721D01*
X117309472Y71199357D01*
X117428959Y71291043D01*
X117520645Y71410530D01*
X117578281Y71549676D01*
X117597940Y71698998D01*
X117578281Y71848320D01*
X117520645Y71987466D01*
X117428959Y72106953D01*
X117309472Y72198639D01*
X117309471Y72198640D01*
X117170325Y72256276D01*
X117021004Y72275934D01*
X116871682Y72256276D01*
X116732536Y72198640D01*
X116613049Y72106953D01*
X116521362Y71987466D01*
X116463726Y71848320D01*
X116444068Y71698998D01*
X12055835Y71698998D01*
X12046845Y71796017D01*
X11988850Y71999849D01*
X11894389Y72189553D01*
X11766677Y72358670D01*
X11610065Y72501441D01*
X11559982Y72532451D01*
X11429886Y72613004D01*
X11331079Y72651282D01*
X11232274Y72689559D01*
X11023961Y72728499D01*
X10812039Y72728499D01*
X10603726Y72689560D01*
X10603726Y72689559D01*
X10406113Y72613004D01*
X10225936Y72501442D01*
X10069321Y72358669D01*
X9941612Y72189556D01*
X9847148Y71999846D01*
X9789154Y71796016D01*
X9769600Y71585000D01*
X9066399Y71585000D01*
X9046845Y71796017D01*
X8988850Y71999849D01*
X8894389Y72189553D01*
X8766677Y72358670D01*
X8610065Y72501441D01*
X8559982Y72532451D01*
X8429886Y72613004D01*
X8331079Y72651282D01*
X8232274Y72689559D01*
X8023961Y72728499D01*
X7812039Y72728499D01*
X7603726Y72689560D01*
X7603726Y72689559D01*
X7406113Y72613004D01*
X7225936Y72501442D01*
X7069321Y72358669D01*
X6941612Y72189556D01*
X6847148Y71999846D01*
X6789154Y71796016D01*
X6769600Y71585000D01*
X508500Y71585000D01*
X508500Y74584999D01*
X6769600Y74584999D01*
X6789154Y74373983D01*
X6847148Y74170153D01*
X6941612Y73980443D01*
X7069321Y73811330D01*
X7069323Y73811328D01*
X7225935Y73668557D01*
X7406115Y73556994D01*
X7603726Y73480439D01*
X7812039Y73441499D01*
X8023959Y73441499D01*
X8023961Y73441499D01*
X8232274Y73480439D01*
X8429885Y73556994D01*
X8610065Y73668557D01*
X8766677Y73811328D01*
X8894389Y73980445D01*
X8988850Y74170149D01*
X9046845Y74373981D01*
X9066399Y74584999D01*
X9769600Y74584999D01*
X9789154Y74373983D01*
X9847148Y74170153D01*
X9941612Y73980443D01*
X10069321Y73811330D01*
X10069323Y73811328D01*
X10225935Y73668557D01*
X10406115Y73556994D01*
X10603726Y73480439D01*
X10812039Y73441499D01*
X11023959Y73441499D01*
X11023961Y73441499D01*
X11232274Y73480439D01*
X11429885Y73556994D01*
X11610065Y73668557D01*
X11766677Y73811328D01*
X11894389Y73980445D01*
X11988850Y74170149D01*
X12046845Y74373981D01*
X12066399Y74584999D01*
X12046845Y74796017D01*
X11988850Y74999849D01*
X11894389Y75189553D01*
X11766677Y75358670D01*
X11610065Y75501441D01*
X11559982Y75532451D01*
X11429886Y75613004D01*
X11331079Y75651282D01*
X11232274Y75689559D01*
X11023961Y75728499D01*
X10812039Y75728499D01*
X10603726Y75689560D01*
X10603726Y75689559D01*
X10406113Y75613004D01*
X10225936Y75501442D01*
X10069321Y75358669D01*
X9941612Y75189556D01*
X9847148Y74999846D01*
X9789154Y74796016D01*
X9769600Y74584999D01*
X9066399Y74584999D01*
X9046845Y74796017D01*
X8988850Y74999849D01*
X8894389Y75189553D01*
X8766677Y75358670D01*
X8610065Y75501441D01*
X8559982Y75532451D01*
X8429886Y75613004D01*
X8331079Y75651282D01*
X8232274Y75689559D01*
X8023961Y75728499D01*
X7812039Y75728499D01*
X7603726Y75689560D01*
X7603726Y75689559D01*
X7406113Y75613004D01*
X7225936Y75501442D01*
X7069321Y75358669D01*
X6941612Y75189556D01*
X6847148Y74999846D01*
X6789154Y74796016D01*
X6769600Y74584999D01*
X508500Y74584999D01*
X508500Y76397998D01*
X139758066Y76397998D01*
X139777724Y76248677D01*
X139835360Y76109531D01*
X139835361Y76109530D01*
X139927047Y75990043D01*
X140046534Y75898357D01*
X140185680Y75840721D01*
X140335002Y75821062D01*
X140484324Y75840721D01*
X140623470Y75898357D01*
X140742957Y75990043D01*
X140834643Y76109530D01*
X140892279Y76248676D01*
X140911938Y76397998D01*
X140892279Y76547320D01*
X140834643Y76686466D01*
X140834642Y76686467D01*
X140834642Y76686468D01*
X140773772Y76765795D01*
X140750721Y76815228D01*
X140750721Y76869771D01*
X140773771Y76919202D01*
X140834643Y76998530D01*
X140892279Y77137676D01*
X140911938Y77286998D01*
X140892279Y77436320D01*
X140834643Y77575466D01*
X140834642Y77575467D01*
X140834642Y77575468D01*
X140773772Y77654795D01*
X140750721Y77704228D01*
X140750721Y77758771D01*
X140773771Y77808202D01*
X140834643Y77887530D01*
X140892279Y78026676D01*
X140911938Y78175998D01*
X140892279Y78325320D01*
X140834643Y78464466D01*
X140742957Y78583953D01*
X140651270Y78654308D01*
X140623469Y78675640D01*
X140484323Y78733276D01*
X140335002Y78752934D01*
X140185680Y78733276D01*
X140046534Y78675640D01*
X139927047Y78583953D01*
X139835360Y78464466D01*
X139777724Y78325320D01*
X139758066Y78175998D01*
X139777724Y78026677D01*
X139835361Y77887529D01*
X139896231Y77808202D01*
X139919282Y77758770D01*
X139919282Y77704226D01*
X139896231Y77654794D01*
X139835361Y77575468D01*
X139777724Y77436320D01*
X139758066Y77286998D01*
X139777724Y77137677D01*
X139835361Y76998529D01*
X139896231Y76919202D01*
X139919282Y76869770D01*
X139919282Y76815226D01*
X139896231Y76765794D01*
X139835361Y76686468D01*
X139777724Y76547320D01*
X139758066Y76397998D01*
X508500Y76397998D01*
X508500Y77585000D01*
X6769600Y77585000D01*
X6789154Y77373983D01*
X6847148Y77170153D01*
X6941612Y76980443D01*
X7066379Y76815226D01*
X7069323Y76811328D01*
X7225935Y76668557D01*
X7406115Y76556994D01*
X7603726Y76480439D01*
X7812039Y76441499D01*
X8023959Y76441499D01*
X8023961Y76441499D01*
X8232274Y76480439D01*
X8429885Y76556994D01*
X8610065Y76668557D01*
X8766677Y76811328D01*
X8894389Y76980445D01*
X8988850Y77170149D01*
X9046845Y77373981D01*
X9066399Y77584999D01*
X9066399Y77585000D01*
X9769600Y77585000D01*
X9789154Y77373983D01*
X9847148Y77170153D01*
X9941612Y76980443D01*
X10066379Y76815226D01*
X10069323Y76811328D01*
X10225935Y76668557D01*
X10406115Y76556994D01*
X10603726Y76480439D01*
X10812039Y76441499D01*
X11023959Y76441499D01*
X11023961Y76441499D01*
X11232274Y76480439D01*
X11429885Y76556994D01*
X11610065Y76668557D01*
X11766677Y76811328D01*
X11894389Y76980445D01*
X11988850Y77170149D01*
X12046845Y77373981D01*
X12066399Y77584999D01*
X12046845Y77796017D01*
X11988850Y77999849D01*
X11894389Y78189553D01*
X11806832Y78305496D01*
X11766678Y78358669D01*
X11766677Y78358670D01*
X11610065Y78501441D01*
X11559982Y78532451D01*
X11429886Y78613004D01*
X11294599Y78665414D01*
X11232274Y78689559D01*
X11023961Y78728499D01*
X10812039Y78728499D01*
X10603725Y78689559D01*
X10603726Y78689559D01*
X10406113Y78613004D01*
X10225936Y78501442D01*
X10069321Y78358669D01*
X9941612Y78189556D01*
X9847148Y77999846D01*
X9789154Y77796016D01*
X9769600Y77585000D01*
X9066399Y77585000D01*
X9046845Y77796017D01*
X8988850Y77999849D01*
X8894389Y78189553D01*
X8806832Y78305496D01*
X8766678Y78358669D01*
X8766677Y78358670D01*
X8610065Y78501441D01*
X8559982Y78532451D01*
X8429886Y78613004D01*
X8294599Y78665414D01*
X8232274Y78689559D01*
X8023961Y78728499D01*
X7812039Y78728499D01*
X7603725Y78689559D01*
X7603726Y78689559D01*
X7406113Y78613004D01*
X7225936Y78501442D01*
X7069321Y78358669D01*
X6941612Y78189556D01*
X6847148Y77999846D01*
X6789154Y77796016D01*
X6769600Y77585000D01*
X508500Y77585000D01*
X508500Y78305495D01*
X2524906Y78305495D01*
X2702137Y78184661D01*
X2943951Y78068208D01*
X3200411Y77989102D01*
X3465808Y77949099D01*
X3734192Y77949099D01*
X3999588Y77989102D01*
X4256048Y78068208D01*
X4497860Y78184659D01*
X4675093Y78305496D01*
X3600001Y79380589D01*
X3599999Y79380589D01*
X2524906Y78305497D01*
X2524906Y78305495D01*
X508500Y78305495D01*
X508500Y79739800D01*
X1804279Y79739800D01*
X1824336Y79472159D01*
X1884057Y79210502D01*
X1982111Y78960664D01*
X2116306Y78728232D01*
X2166402Y78665415D01*
X2166403Y78665414D01*
X3240789Y79739798D01*
X3959210Y79739798D01*
X5033595Y78665414D01*
X5083694Y78728236D01*
X5217888Y78960665D01*
X5315942Y79210502D01*
X5375663Y79472159D01*
X5395720Y79739800D01*
X5375663Y80007440D01*
X5315942Y80269097D01*
X5217888Y80518935D01*
X5083693Y80751367D01*
X5033596Y80814185D01*
X5033595Y80814186D01*
X3959210Y79739800D01*
X3959210Y79739798D01*
X3240789Y79739798D01*
X3240789Y79739800D01*
X2166404Y80814185D01*
X2166402Y80814185D01*
X2116306Y80751366D01*
X1982111Y80518934D01*
X1884057Y80269097D01*
X1824336Y80007440D01*
X1804279Y79739800D01*
X508500Y79739800D01*
X508500Y81174103D01*
X2524906Y81174103D01*
X3599998Y80099010D01*
X3600000Y80099010D01*
X4470987Y80969998D01*
X55303066Y80969998D01*
X55322724Y80820677D01*
X55380360Y80681531D01*
X55380361Y80681530D01*
X55472047Y80562043D01*
X55591534Y80470357D01*
X55730680Y80412721D01*
X55880002Y80393062D01*
X56029324Y80412721D01*
X56168470Y80470357D01*
X56287957Y80562043D01*
X56379643Y80681530D01*
X56437279Y80820676D01*
X56456938Y80969998D01*
X56437279Y81119320D01*
X56379643Y81258466D01*
X56287957Y81377953D01*
X56168470Y81469639D01*
X56168469Y81469640D01*
X56029323Y81527276D01*
X55880002Y81546934D01*
X55730680Y81527276D01*
X55591534Y81469640D01*
X55472047Y81377953D01*
X55380360Y81258466D01*
X55322724Y81119320D01*
X55303066Y80969998D01*
X4470987Y80969998D01*
X4675092Y81174103D01*
X4675092Y81174105D01*
X4497863Y81294938D01*
X4256048Y81411391D01*
X3999588Y81490497D01*
X3734192Y81530499D01*
X3465808Y81530499D01*
X3200411Y81490497D01*
X2943951Y81411391D01*
X2702136Y81294938D01*
X2524906Y81174105D01*
X2524906Y81174103D01*
X508500Y81174103D01*
X508500Y82875998D01*
X525381Y82938998D01*
X571500Y82985117D01*
X634500Y83001998D01*
X149365500Y83001998D01*
X149428500Y82985117D01*
G37*
G04 #@! TD.AperFunction*
M02*
