G04 #@! TF.GenerationSoftware,KiCad,Pcbnew,7.0.1*
G04 #@! TF.CreationDate,2024-02-29T06:24:46-08:00*
G04 #@! TF.ProjectId,POWERCORE-V2.0_MOTHERBOARD,504f5745-5243-44f5-9245-2d56322e305f,rev?*
G04 #@! TF.SameCoordinates,PX791ddbePYb90347e*
G04 #@! TF.FileFunction,Copper,L4,Inr*
G04 #@! TF.FilePolarity,Positive*
%FSLAX46Y46*%
G04 Gerber Fmt 4.6, Leading zero omitted, Abs format (unit mm)*
G04 Created by KiCad (PCBNEW 7.0.1) date 2024-02-29 06:24:46*
%MOMM*%
%LPD*%
G01*
G04 APERTURE LIST*
G04 #@! TA.AperFunction,ComponentPad*
%ADD10C,1.778000*%
G04 #@! TD*
G04 #@! TA.AperFunction,ComponentPad*
%ADD11C,3.175000*%
G04 #@! TD*
G04 #@! TA.AperFunction,ComponentPad*
%ADD12C,1.651000*%
G04 #@! TD*
G04 #@! TA.AperFunction,ComponentPad*
%ADD13R,2.000000X2.000000*%
G04 #@! TD*
G04 #@! TA.AperFunction,ComponentPad*
%ADD14C,2.000000*%
G04 #@! TD*
G04 #@! TA.AperFunction,ViaPad*
%ADD15C,0.635000*%
G04 #@! TD*
G04 #@! TA.AperFunction,Conductor*
%ADD16C,1.270000*%
G04 #@! TD*
G04 #@! TA.AperFunction,Conductor*
%ADD17C,0.254000*%
G04 #@! TD*
G04 APERTURE END LIST*
D10*
X7918000Y68584999D03*
X7918000Y71584999D03*
X7918000Y74584999D03*
X7918000Y77584999D03*
X10918000Y68584999D03*
X10918000Y71584999D03*
X10918000Y74584999D03*
X10918000Y77584999D03*
D11*
X3600000Y66430199D03*
X3600000Y79739799D03*
D12*
X6614322Y41100000D03*
X6614322Y38600000D03*
X6614322Y56392060D03*
X6614322Y53892060D03*
D13*
X127381000Y20274677D03*
D14*
X127381000Y15274677D03*
D12*
X6614322Y25808000D03*
X6614322Y23308000D03*
D13*
X96266000Y20401677D03*
D14*
X96266000Y15401677D03*
D13*
X108966000Y20401677D03*
D14*
X108966000Y15401677D03*
D10*
X141037252Y35860998D03*
X141037252Y32860998D03*
X138037252Y35860998D03*
X138037252Y32860998D03*
D13*
X139700000Y20274677D03*
D14*
X139700000Y15274677D03*
D15*
X147066002Y70174998D03*
X146050002Y70174998D03*
X146558002Y71444998D03*
X147066002Y72968998D03*
X146050002Y72968998D03*
X41897004Y19501998D03*
X27496004Y7563997D03*
X23889002Y21660998D03*
X117234002Y42615998D03*
X61214002Y19374998D03*
X61214002Y15818998D03*
X35560002Y13419000D03*
X29337002Y28632996D03*
X41897000Y14167998D03*
X32448004Y9341998D03*
X129146002Y53156998D03*
X62992002Y17596998D03*
X62992002Y15818998D03*
X34417002Y28633000D03*
X105804002Y30423998D03*
X117021004Y71698998D03*
X23889002Y14548998D03*
X19304002Y27490000D03*
X15494001Y43440997D03*
X62103002Y16707998D03*
X54864002Y10484998D03*
X107937002Y36138998D03*
X62992002Y19374998D03*
X61214002Y17596998D03*
X39688004Y35630998D03*
X28321002Y12897998D03*
X111620002Y36138998D03*
X62103002Y18485998D03*
X132461002Y71190998D03*
X69215002Y39948998D03*
X22352002Y15437998D03*
X128143002Y37027998D03*
X115900002Y9499998D03*
X69215002Y49219998D03*
X70358002Y44520998D03*
X130810002Y37027998D03*
X70358002Y48076998D03*
X70358002Y42234998D03*
X110363002Y41027257D03*
X112649002Y76397998D03*
X108649002Y75381998D03*
X74930002Y49219998D03*
X52070002Y70436117D03*
X70358002Y49219998D03*
X44069002Y70436117D03*
X42037002Y70436117D03*
X71501002Y49219998D03*
X75057002Y17723998D03*
X75946002Y16834998D03*
X58674002Y70436117D03*
X72009002Y10357998D03*
X77089002Y66618998D03*
X29845002Y69285998D03*
X115100002Y7199998D03*
X29337002Y30182996D03*
X33020002Y42424996D03*
X143015002Y76397998D03*
X53327004Y46679998D03*
X53284000Y57356996D03*
X73660002Y12008998D03*
X134112002Y37027998D03*
X72009002Y12008998D03*
X90100002Y7199998D03*
X70358002Y46933998D03*
X77470002Y24073998D03*
X92661000Y40583998D03*
X22339002Y22549998D03*
X115697002Y42615998D03*
X56007002Y70436117D03*
X71501002Y50362998D03*
X62738002Y70436117D03*
X91199000Y49854998D03*
X116967002Y76270998D03*
X137175002Y61665998D03*
X71501002Y48076998D03*
X53327001Y44901996D03*
X28321002Y11361000D03*
X116332002Y44901998D03*
X32512002Y21406998D03*
X135509002Y74111998D03*
X70358002Y39948998D03*
X113157002Y36138998D03*
X69215002Y48076998D03*
X59944002Y70436117D03*
X76073002Y49219998D03*
X78740002Y15945998D03*
X50673002Y70436117D03*
X91199000Y48076998D03*
X73787002Y49219998D03*
X34290002Y19628998D03*
X73660002Y13786998D03*
X74930002Y50362998D03*
X70358002Y12008998D03*
X117983002Y53029998D03*
X90100002Y9499998D03*
X126111002Y64205998D03*
X133096002Y37027998D03*
X132398000Y56712998D03*
X2878999Y30458001D03*
X54864002Y13024998D03*
X135572004Y67888998D03*
X104140002Y36138998D03*
X72644002Y49219998D03*
X72644002Y46933998D03*
X72644002Y48076998D03*
X70358002Y43377998D03*
X92661000Y37916998D03*
X34417002Y30182996D03*
X102997002Y33725998D03*
X34798002Y37473000D03*
X33401002Y20517998D03*
X76835002Y17723998D03*
X130683002Y44647998D03*
X72539002Y43502998D03*
X34290002Y21406998D03*
X135128002Y37027998D03*
X75057002Y15945998D03*
X62992002Y13011996D03*
X76073002Y50362998D03*
X72644002Y45790998D03*
X70358002Y41091998D03*
X115518000Y8325998D03*
X69215002Y45790998D03*
X92661000Y43250998D03*
X53340002Y70436117D03*
X2878999Y34057999D03*
X123000002Y47314998D03*
X72009002Y13786998D03*
X120536002Y45155998D03*
X107455002Y53410998D03*
X71501002Y46933998D03*
X19304004Y38368996D03*
X48006002Y70436117D03*
X70358002Y13786998D03*
X113411002Y32328998D03*
X69215002Y44520998D03*
X77470002Y37916998D03*
X39497002Y64967998D03*
X69215002Y50362998D03*
X77978002Y16834998D03*
X35560002Y11869000D03*
X109601002Y32328998D03*
X109474002Y36138998D03*
X89300002Y7199998D03*
X34570002Y51561998D03*
X43434002Y18612996D03*
X132080002Y37027998D03*
X31242002Y37473000D03*
X69215002Y43377998D03*
X131572002Y53156998D03*
X77216002Y49219998D03*
X123317002Y67634998D03*
X78740002Y17723998D03*
X92661000Y35376998D03*
X92710002Y41980998D03*
X133772002Y49783998D03*
X92661000Y45917998D03*
X73660002Y10357998D03*
X25019002Y32390996D03*
X54610002Y70436117D03*
X16637004Y24398996D03*
X69215002Y46933998D03*
X71501002Y45790998D03*
X104254003Y31312999D03*
X112141002Y44647998D03*
X69215002Y42234998D03*
X89718000Y8325998D03*
X72644002Y50362998D03*
X115443002Y46291878D03*
X76835002Y15945998D03*
X89300002Y9499998D03*
X143015004Y66872998D03*
X74549002Y40965000D03*
X69215002Y41091998D03*
X70358002Y45790998D03*
X115900002Y7199998D03*
X57404002Y70436117D03*
X92710002Y39313998D03*
X115100002Y9499998D03*
X73787002Y50362998D03*
X107950002Y39694998D03*
X32385002Y7563998D03*
X43447002Y14168000D03*
X70358002Y50362998D03*
X49403002Y70436117D03*
X77216002Y50362998D03*
X56332000Y52587997D03*
X91186002Y48965998D03*
X16002004Y6611998D03*
X61341002Y70428998D03*
X92710002Y36646998D03*
X19304002Y29039996D03*
X50475004Y21025998D03*
X32512002Y19628998D03*
X70358002Y10357998D03*
X143015002Y78175998D03*
X92710002Y44647998D03*
X129667002Y37027998D03*
X115471002Y71698998D03*
X39688000Y37408998D03*
X39688000Y39186998D03*
X41338004Y30169998D03*
X124968002Y56585998D03*
X107315002Y43885998D03*
X115951002Y54553998D03*
X67437002Y8198998D03*
X140081002Y67380998D03*
X140081002Y65983998D03*
X139446002Y66745998D03*
X138811002Y65983998D03*
X138811002Y67380998D03*
X67437002Y5658998D03*
X65405002Y22930998D03*
X67441000Y6928998D03*
X70485002Y53410998D03*
X62230002Y26740998D03*
X107696002Y32074998D03*
X102743002Y32074998D03*
X113855502Y45854498D03*
X119380002Y31058998D03*
X56332000Y53546996D03*
X73533002Y40964998D03*
X23889004Y16326998D03*
X23889004Y23438997D03*
X41897000Y17723998D03*
X28131000Y69285998D03*
X29096002Y8452998D03*
X55880002Y80969998D03*
X119380002Y39567998D03*
X130873502Y55633498D03*
X140335002Y78175998D03*
X140335002Y76397998D03*
X110363002Y42628998D03*
X127000002Y58426998D03*
X135001002Y58744998D03*
X112268002Y52013998D03*
X140335002Y77286998D03*
X127648004Y64205998D03*
X132271004Y62554998D03*
X105918002Y53423998D03*
X59634000Y58551998D03*
X59634000Y51133996D03*
X108649000Y70047998D03*
X38989001Y65729997D03*
X77597002Y67380998D03*
X76581002Y67380998D03*
X35560002Y50108998D03*
X30734002Y59887998D03*
X124962502Y58552000D03*
X118364002Y39695000D03*
X72517002Y40964998D03*
X114554002Y33725998D03*
X116967002Y33725998D03*
X56332000Y55705996D03*
X120142003Y37535997D03*
X117282000Y46679998D03*
X40005002Y65729997D03*
D16*
X105918002Y50870998D02*
X105918002Y53423998D01*
X107696002Y49092998D02*
X105918002Y50870998D01*
X110363002Y49092998D02*
X107696002Y49092998D01*
X110363002Y49092998D02*
X110363002Y42628998D01*
X110363002Y50108998D02*
X110363002Y49092998D01*
D17*
X69850002Y53410998D02*
X70485002Y53410998D01*
X67818002Y51378998D02*
X69850002Y53410998D01*
X62230002Y26740998D02*
X67818002Y32328998D01*
X67818002Y32328998D02*
X67818002Y51378998D01*
X107696002Y38805998D02*
X106299002Y40202998D01*
X115951002Y54553998D02*
X115951002Y49386889D01*
X113157002Y46592889D02*
X113157002Y40456998D01*
X113157002Y40456998D02*
X111506002Y38805998D01*
X111506002Y38805998D02*
X107696002Y38805998D01*
X115951002Y49386889D02*
X113157002Y46592889D01*
X106299002Y40202998D02*
X106299002Y42869998D01*
X106299002Y42869998D02*
X107315002Y43885998D01*
X102743002Y32074998D02*
X107696002Y32074998D01*
X119380002Y35503998D02*
X114808002Y40075998D01*
X114808002Y40075998D02*
X114808002Y44901998D01*
X119380002Y31058998D02*
X119380002Y35503998D01*
X114808002Y44901998D02*
X113855502Y45854498D01*
X28131000Y38615996D02*
X26670002Y37154998D01*
X28131000Y69285998D02*
X28131000Y38615996D01*
X28067002Y8452998D02*
X29096002Y8452998D01*
X26670002Y37154998D02*
X26670002Y9849998D01*
X26670002Y9849998D02*
X28067002Y8452998D01*
X130556002Y55315998D02*
X124206002Y55315998D01*
X124206002Y55315998D02*
X122174002Y53283998D01*
X122174002Y53283998D02*
X122174002Y42361998D01*
X122174002Y42361998D02*
X119380002Y39567998D01*
X130873502Y55633498D02*
X130556002Y55315998D01*
D16*
X112268002Y52013998D02*
X110363002Y50108998D01*
X131953002Y77286998D02*
X127648004Y72982000D01*
X127648004Y59075000D02*
X127000002Y58426998D01*
X140335002Y76397998D02*
X140335002Y78175998D01*
X127648004Y72982000D02*
X127648004Y64205998D01*
X112268002Y55442998D02*
X112268002Y52013998D01*
X127648004Y64205998D02*
X130620004Y64205998D01*
X132271004Y62554998D02*
X132271004Y61474996D01*
X127648004Y61030998D02*
X127648004Y59075000D01*
X117856002Y61030998D02*
X112268002Y55442998D01*
X132271004Y61474996D02*
X135001002Y58744998D01*
X140335002Y77286998D02*
X131953002Y77286998D01*
X127648004Y61030998D02*
X117856002Y61030998D01*
X130620004Y64205998D02*
X132271004Y62554998D01*
X127648004Y64205998D02*
X127648004Y61030998D01*
D17*
X106807002Y70047998D02*
X108649000Y70047998D01*
X24384002Y79953998D02*
X96901002Y79953998D01*
X96901002Y79953998D02*
X106807002Y70047998D01*
X20066002Y59760998D02*
X20066002Y75635998D01*
X20066002Y75635998D02*
X24384002Y79953998D01*
X6614322Y41100000D02*
X6614322Y46309318D01*
X6614322Y46309318D02*
X20066002Y59760998D01*
X121539002Y42870000D02*
X118364002Y39695000D01*
X121539002Y55128500D02*
X121539002Y42870000D01*
X124962502Y58552000D02*
X121539002Y55128500D01*
X116967002Y33725998D02*
X114554002Y33725998D01*
X118745003Y37535997D02*
X120142003Y37535997D01*
X118999002Y44962996D02*
X118999002Y42107998D01*
X118999002Y42107998D02*
X117602002Y40710998D01*
X117602002Y40710998D02*
X117602002Y38678998D01*
X117282000Y46679998D02*
X118999002Y44962996D01*
X117602002Y38678998D02*
X118745003Y37535997D01*
G04 #@! TA.AperFunction,Conductor*
G36*
X140383190Y78804973D02*
G01*
X140405666Y78802095D01*
X140446851Y78796821D01*
X140488794Y78787782D01*
X140497560Y78785097D01*
X140550168Y78768986D01*
X140589985Y78752986D01*
X140647281Y78724098D01*
X140683817Y78701602D01*
X140735423Y78663435D01*
X140767630Y78635088D01*
X140812032Y78588760D01*
X140838990Y78555373D01*
X140874929Y78502200D01*
X140895858Y78464736D01*
X140922292Y78406257D01*
X140936586Y78365802D01*
X140952758Y78303697D01*
X140960012Y78261398D01*
X140964091Y78213473D01*
X140965002Y78192017D01*
X140965002Y77322041D01*
X140965175Y77305748D01*
X140965403Y77295010D01*
X140965922Y77278730D01*
X140965924Y77278668D01*
X140966832Y77257280D01*
X140966594Y77234615D01*
X140966685Y77234612D01*
X140965002Y77181747D01*
X140965002Y76365910D01*
X140961362Y76323150D01*
X140950516Y76259900D01*
X140939704Y76218375D01*
X140918324Y76157864D01*
X140900649Y76118762D01*
X140869351Y76062736D01*
X140845322Y76027184D01*
X140805010Y75977258D01*
X140775315Y75946275D01*
X140727137Y75903874D01*
X140692639Y75878360D01*
X140637992Y75844712D01*
X140599674Y75825392D01*
X140540132Y75801466D01*
X140499103Y75788901D01*
X140436359Y75775378D01*
X140393792Y75769927D01*
X140329686Y75767204D01*
X140286810Y75769026D01*
X140223141Y75777180D01*
X140181199Y75786219D01*
X140119844Y75805008D01*
X140080024Y75821009D01*
X140022720Y75849901D01*
X139986180Y75872399D01*
X139934579Y75910564D01*
X139902371Y75938911D01*
X139857969Y75985239D01*
X139831011Y76018625D01*
X139825226Y76027184D01*
X139762369Y76120183D01*
X139752451Y76136101D01*
X139725084Y76183893D01*
X139669603Y76262337D01*
X139574053Y76373255D01*
X139507816Y76425586D01*
X139459182Y76464010D01*
X139378455Y76516111D01*
X139248430Y76583409D01*
X139107990Y76624793D01*
X139013671Y76643034D01*
X139013667Y76643035D01*
X139013664Y76643035D01*
X138867930Y76656998D01*
X137794002Y76656998D01*
X137697183Y76676256D01*
X137615104Y76731100D01*
X137560260Y76813179D01*
X137541002Y76909998D01*
X137541002Y77663998D01*
X137560260Y77760817D01*
X137615104Y77842896D01*
X137697183Y77897740D01*
X137794002Y77916998D01*
X138869825Y77916998D01*
X139004885Y77928975D01*
X139092537Y77944644D01*
X139223378Y77980200D01*
X139345920Y78038224D01*
X139422715Y78083289D01*
X139533137Y78161974D01*
X139627990Y78258863D01*
X139684416Y78327743D01*
X139684416Y78327744D01*
X139684420Y78327748D01*
X139760734Y78439803D01*
X139760739Y78439810D01*
X139800658Y78511273D01*
X139824678Y78546812D01*
X139865003Y78596753D01*
X139894681Y78627717D01*
X139942866Y78670126D01*
X139977363Y78695639D01*
X140032008Y78729285D01*
X140070317Y78748601D01*
X140129880Y78772536D01*
X140170901Y78785097D01*
X140225304Y78796822D01*
X140233647Y78798621D01*
X140276202Y78804070D01*
X140340320Y78806794D01*
X140383190Y78804973D01*
G37*
G04 #@! TD.AperFunction*
G04 #@! TA.AperFunction,Conductor*
G36*
X116005578Y42503008D02*
G01*
X116088622Y42468047D01*
X116154148Y42406201D01*
X116193844Y42325313D01*
X116222617Y42224186D01*
X116311834Y42045015D01*
X116432453Y41885290D01*
X116580368Y41750447D01*
X116750542Y41645080D01*
X116775820Y41635288D01*
X116858069Y41583377D01*
X116914657Y41504272D01*
X116937220Y41409664D01*
X116922423Y41313535D01*
X116890591Y41260380D01*
X116891709Y41259734D01*
X116876627Y41233613D01*
X116854150Y41200909D01*
X116851894Y41198124D01*
X116823033Y41141480D01*
X116816714Y41129842D01*
X116784928Y41074788D01*
X116783821Y41071378D01*
X116768635Y41034716D01*
X116767007Y41031522D01*
X116750554Y40970119D01*
X116746794Y40957424D01*
X116727147Y40896957D01*
X116726774Y40893403D01*
X116719542Y40854382D01*
X116718612Y40850913D01*
X116715285Y40787423D01*
X116714247Y40774225D01*
X116712502Y40757618D01*
X116712502Y40740917D01*
X116712155Y40727676D01*
X116708827Y40664192D01*
X116709387Y40660661D01*
X116712502Y40621081D01*
X116712502Y40040237D01*
X116693244Y39943418D01*
X116638400Y39861339D01*
X116556321Y39806495D01*
X116459502Y39787237D01*
X116362683Y39806495D01*
X116280604Y39861339D01*
X115771604Y40370339D01*
X115716760Y40452418D01*
X115697502Y40549237D01*
X115697502Y42256076D01*
X115713547Y42344739D01*
X115759646Y42422157D01*
X115829952Y42478510D01*
X115915548Y42506650D01*
X116005578Y42503008D01*
G37*
G04 #@! TD.AperFunction*
G04 #@! TA.AperFunction,Conductor*
G36*
X149335319Y82982740D02*
G01*
X149417398Y82927896D01*
X149472242Y82845817D01*
X149491500Y82748998D01*
X149491500Y4260998D01*
X149472242Y4164179D01*
X149417398Y4082100D01*
X149335319Y4027256D01*
X149238500Y4007998D01*
X761500Y4007998D01*
X664681Y4027256D01*
X582602Y4082100D01*
X527758Y4164179D01*
X508500Y4260998D01*
X508500Y5658998D01*
X66352375Y5658998D01*
X66370842Y5459698D01*
X66413484Y5309829D01*
X66425617Y5267186D01*
X66514834Y5088015D01*
X66635453Y4928290D01*
X66783368Y4793447D01*
X66953542Y4688080D01*
X67140180Y4615776D01*
X67310154Y4584003D01*
X67336924Y4578998D01*
X67336925Y4578998D01*
X67537079Y4578998D01*
X67537080Y4578998D01*
X67560643Y4583403D01*
X67733824Y4615776D01*
X67920462Y4688080D01*
X68090636Y4793447D01*
X68238551Y4928290D01*
X68359170Y5088015D01*
X68448387Y5267186D01*
X68503161Y5459698D01*
X68521629Y5658998D01*
X68503161Y5858298D01*
X68448387Y6050810D01*
X68385446Y6177212D01*
X68361916Y6251176D01*
X68361916Y6328793D01*
X68385444Y6402752D01*
X68452385Y6537186D01*
X68507159Y6729698D01*
X68525627Y6928998D01*
X68507159Y7128298D01*
X68452385Y7320810D01*
X68385444Y7455245D01*
X68361916Y7529203D01*
X68361916Y7606820D01*
X68385446Y7680784D01*
X68388962Y7687846D01*
X68448387Y7807186D01*
X68503161Y7999698D01*
X68521629Y8198998D01*
X68503161Y8398298D01*
X68495607Y8424846D01*
X68480926Y8476447D01*
X68448387Y8590810D01*
X68359170Y8769981D01*
X68238551Y8929706D01*
X68090636Y9064549D01*
X67920462Y9169916D01*
X67920460Y9169917D01*
X67878429Y9186200D01*
X67733824Y9242220D01*
X67601418Y9266971D01*
X67537080Y9278998D01*
X67537079Y9278998D01*
X67336925Y9278998D01*
X67336924Y9278998D01*
X67272586Y9266971D01*
X67140180Y9242220D01*
X67067877Y9214210D01*
X66953543Y9169917D01*
X66909583Y9142698D01*
X66783368Y9064549D01*
X66635453Y8929706D01*
X66514834Y8769981D01*
X66456235Y8652299D01*
X66425617Y8590810D01*
X66370842Y8398299D01*
X66352375Y8198998D01*
X66370842Y7999698D01*
X66425617Y7807185D01*
X66492555Y7672757D01*
X66516085Y7598794D01*
X66516085Y7521178D01*
X66492556Y7447214D01*
X66429615Y7320811D01*
X66374840Y7128299D01*
X66356373Y6928998D01*
X66374840Y6729698D01*
X66429615Y6537184D01*
X66492555Y6410785D01*
X66516085Y6336821D01*
X66516085Y6259205D01*
X66492556Y6185242D01*
X66425617Y6050811D01*
X66370842Y5858299D01*
X66352375Y5658998D01*
X508500Y5658998D01*
X508500Y8375000D01*
X4695500Y8375000D01*
X4715416Y8223717D01*
X4773806Y8082752D01*
X4866695Y7961696D01*
X4987751Y7868807D01*
X5128716Y7810417D01*
X5128718Y7810417D01*
X5128720Y7810416D01*
X5242020Y7795500D01*
X5317976Y7795500D01*
X5317980Y7795500D01*
X5431280Y7810416D01*
X5431282Y7810417D01*
X5431283Y7810417D01*
X5572248Y7868807D01*
X5572248Y7868808D01*
X5572250Y7868808D01*
X5693304Y7961696D01*
X5786192Y8082750D01*
X5786193Y8082752D01*
X5844583Y8223717D01*
X5844583Y8223718D01*
X5844584Y8223720D01*
X5864500Y8375000D01*
X5844584Y8526280D01*
X5844583Y8526282D01*
X5844583Y8526284D01*
X5786193Y8667249D01*
X5693304Y8788305D01*
X5572248Y8881194D01*
X5431283Y8939584D01*
X5382722Y8945977D01*
X5317980Y8954500D01*
X5242020Y8954500D01*
X5185370Y8947043D01*
X5128716Y8939584D01*
X4987751Y8881194D01*
X4866695Y8788305D01*
X4773806Y8667249D01*
X4715416Y8526284D01*
X4695500Y8375000D01*
X508500Y8375000D01*
X508500Y9896805D01*
X25776827Y9896805D01*
X25780155Y9833320D01*
X25780502Y9820079D01*
X25780502Y9803377D01*
X25782247Y9786770D01*
X25783285Y9773572D01*
X25786612Y9710085D01*
X25787540Y9706622D01*
X25794774Y9667593D01*
X25795147Y9664040D01*
X25814791Y9603581D01*
X25818551Y9590886D01*
X25835007Y9529475D01*
X25836632Y9526285D01*
X25851818Y9489625D01*
X25852927Y9486213D01*
X25878582Y9441777D01*
X25884710Y9431164D01*
X25891018Y9419548D01*
X25919895Y9362873D01*
X25919897Y9362870D01*
X25922140Y9360100D01*
X25944630Y9327378D01*
X25946417Y9324283D01*
X25988955Y9277039D01*
X25997554Y9266971D01*
X26008062Y9253995D01*
X26019878Y9242179D01*
X26028995Y9232571D01*
X26071532Y9185329D01*
X26074428Y9183225D01*
X26104610Y9157447D01*
X26656194Y8605863D01*
X26707543Y8531824D01*
X26729689Y8444485D01*
X26719822Y8354923D01*
X26679195Y8274500D01*
X26573838Y8134984D01*
X26484619Y7955809D01*
X26429844Y7763298D01*
X26411377Y7563997D01*
X26429844Y7364697D01*
X26468815Y7227731D01*
X26484619Y7172185D01*
X26573836Y6993014D01*
X26694455Y6833289D01*
X26842370Y6698446D01*
X27012544Y6593079D01*
X27199182Y6520775D01*
X27369156Y6489002D01*
X27395926Y6483997D01*
X27395927Y6483997D01*
X27596081Y6483997D01*
X27596082Y6483997D01*
X27619645Y6488402D01*
X27792826Y6520775D01*
X27979464Y6593079D01*
X28149638Y6698446D01*
X28297553Y6833289D01*
X28418172Y6993014D01*
X28507389Y7172185D01*
X28523194Y7227737D01*
X28564636Y7310962D01*
X28633347Y7373602D01*
X28720047Y7407189D01*
X28813019Y7407189D01*
X28995925Y7372998D01*
X29196079Y7372998D01*
X29196080Y7372998D01*
X29219643Y7377403D01*
X29392824Y7409776D01*
X29579462Y7482080D01*
X29749636Y7587447D01*
X29897551Y7722290D01*
X30018170Y7882015D01*
X30107387Y8061186D01*
X30162161Y8253698D01*
X30180629Y8452998D01*
X30162161Y8652298D01*
X30107387Y8844810D01*
X30018170Y9023981D01*
X29897551Y9183706D01*
X29749636Y9318549D01*
X29711763Y9341999D01*
X31363377Y9341999D01*
X31381844Y9142698D01*
X31424486Y8992829D01*
X31436619Y8950186D01*
X31525836Y8771015D01*
X31646455Y8611290D01*
X31794370Y8476447D01*
X31964544Y8371080D01*
X32151182Y8298776D01*
X32321156Y8267003D01*
X32347926Y8261998D01*
X32347927Y8261998D01*
X32548081Y8261998D01*
X32548082Y8261998D01*
X32571645Y8266403D01*
X32744826Y8298776D01*
X32931464Y8371080D01*
X33101638Y8476447D01*
X33249553Y8611290D01*
X33370172Y8771015D01*
X33459389Y8950186D01*
X33514163Y9142698D01*
X33532631Y9341998D01*
X33514163Y9541298D01*
X33459389Y9733810D01*
X33370172Y9912981D01*
X33249553Y10072706D01*
X33101638Y10207549D01*
X32931464Y10312916D01*
X32931462Y10312917D01*
X32889432Y10329200D01*
X32744826Y10385220D01*
X32613662Y10409739D01*
X32548082Y10421998D01*
X32548081Y10421998D01*
X32347927Y10421998D01*
X32347926Y10421998D01*
X32249554Y10403609D01*
X32151182Y10385220D01*
X32078878Y10357210D01*
X31964545Y10312917D01*
X31811961Y10218441D01*
X31794370Y10207549D01*
X31646455Y10072706D01*
X31525836Y9912981D01*
X31462990Y9786770D01*
X31436619Y9733810D01*
X31381844Y9541299D01*
X31363377Y9341999D01*
X29711763Y9341999D01*
X29579462Y9423916D01*
X29579460Y9423917D01*
X29533357Y9441777D01*
X29392824Y9496220D01*
X29261660Y9520739D01*
X29196080Y9532998D01*
X29196079Y9532998D01*
X28995925Y9532998D01*
X28995924Y9532998D01*
X28897552Y9514609D01*
X28799180Y9496220D01*
X28695305Y9455979D01*
X28590680Y9415447D01*
X28590067Y9417029D01*
X28545130Y9398724D01*
X28460905Y9394349D01*
X28379921Y9417902D01*
X28311179Y9466764D01*
X27633604Y10144339D01*
X27578760Y10226418D01*
X27559502Y10323237D01*
X27559502Y10484998D01*
X53779375Y10484998D01*
X53797842Y10285698D01*
X53814709Y10226418D01*
X53852617Y10093186D01*
X53941834Y9914015D01*
X54062453Y9754290D01*
X54210368Y9619447D01*
X54380542Y9514080D01*
X54567180Y9441776D01*
X54737154Y9410003D01*
X54763924Y9404998D01*
X54763925Y9404998D01*
X54964079Y9404998D01*
X54964080Y9404998D01*
X54987643Y9409403D01*
X55160824Y9441776D01*
X55347462Y9514080D01*
X55517636Y9619447D01*
X55665551Y9754290D01*
X55786170Y9914015D01*
X55875387Y10093186D01*
X55930161Y10285698D01*
X55948629Y10484998D01*
X55930161Y10684298D01*
X55875387Y10876810D01*
X55786170Y11055981D01*
X55665551Y11215706D01*
X55517636Y11350549D01*
X55347462Y11455916D01*
X55347460Y11455917D01*
X55305429Y11472200D01*
X55160824Y11528220D01*
X55029660Y11552739D01*
X54964080Y11564998D01*
X54964079Y11564998D01*
X54763925Y11564998D01*
X54763924Y11564998D01*
X54665552Y11546610D01*
X54567180Y11528220D01*
X54494877Y11500210D01*
X54380543Y11455917D01*
X54210367Y11350549D01*
X54210368Y11350549D01*
X54062453Y11215706D01*
X53941834Y11055981D01*
X53852616Y10876810D01*
X53852617Y10876810D01*
X53797842Y10684299D01*
X53779375Y10484998D01*
X27559502Y10484998D01*
X27559502Y11665459D01*
X27578316Y11761197D01*
X27631959Y11842696D01*
X27712453Y11897836D01*
X27807827Y11918416D01*
X27903892Y11901376D01*
X28024180Y11854776D01*
X28171738Y11827193D01*
X28220924Y11817998D01*
X28220925Y11817998D01*
X28421079Y11817998D01*
X28421080Y11817998D01*
X28444643Y11822403D01*
X28617824Y11854776D01*
X28804462Y11927080D01*
X28974636Y12032447D01*
X29122551Y12167290D01*
X29243170Y12327015D01*
X29332387Y12506186D01*
X29387161Y12698698D01*
X29405629Y12897998D01*
X29387161Y13097298D01*
X29332387Y13289810D01*
X29268058Y13419000D01*
X34475375Y13419000D01*
X34493842Y13219700D01*
X34520851Y13124776D01*
X34548617Y13027188D01*
X34637834Y12848017D01*
X34758453Y12688292D01*
X34906368Y12553449D01*
X35076542Y12448082D01*
X35263180Y12375778D01*
X35433154Y12344005D01*
X35459924Y12339000D01*
X35459925Y12339000D01*
X35660079Y12339000D01*
X35660080Y12339000D01*
X35683643Y12343405D01*
X35856824Y12375778D01*
X36043462Y12448082D01*
X36213636Y12553449D01*
X36361551Y12688292D01*
X36482170Y12848017D01*
X36571387Y13027188D01*
X36626161Y13219700D01*
X36644629Y13419000D01*
X36626161Y13618300D01*
X36571387Y13810812D01*
X36482170Y13989983D01*
X36361551Y14149708D01*
X36341488Y14167998D01*
X40812373Y14167998D01*
X40830840Y13968698D01*
X40873482Y13818829D01*
X40885615Y13776186D01*
X40974832Y13597015D01*
X41095451Y13437290D01*
X41243366Y13302447D01*
X41413540Y13197080D01*
X41600178Y13124776D01*
X41770152Y13093003D01*
X41796922Y13087998D01*
X41796923Y13087998D01*
X41997077Y13087998D01*
X41997078Y13087998D01*
X42020641Y13092403D01*
X42193822Y13124776D01*
X42380460Y13197080D01*
X42550634Y13302447D01*
X42698549Y13437290D01*
X42819168Y13597015D01*
X42908385Y13776186D01*
X42963159Y13968698D01*
X42981627Y14167998D01*
X42963159Y14367298D01*
X42908385Y14559810D01*
X42819168Y14738981D01*
X42698549Y14898706D01*
X42550634Y15033549D01*
X42380460Y15138916D01*
X42380458Y15138917D01*
X42338427Y15155200D01*
X42193822Y15211220D01*
X42062658Y15235739D01*
X41997078Y15247998D01*
X41997077Y15247998D01*
X41796923Y15247998D01*
X41796922Y15247998D01*
X41698550Y15229609D01*
X41600178Y15211220D01*
X41581784Y15204094D01*
X41413541Y15138917D01*
X41243366Y15033549D01*
X41095449Y14898704D01*
X41081864Y14880714D01*
X40974832Y14738981D01*
X40924829Y14638562D01*
X40885615Y14559810D01*
X40830840Y14367299D01*
X40812373Y14167998D01*
X36341488Y14167998D01*
X36213636Y14284551D01*
X36043462Y14389918D01*
X36043460Y14389919D01*
X36001429Y14406202D01*
X35856824Y14462222D01*
X35725660Y14486741D01*
X35660080Y14499000D01*
X35660079Y14499000D01*
X35459925Y14499000D01*
X35459924Y14499000D01*
X35361552Y14480611D01*
X35263180Y14462222D01*
X35190877Y14434212D01*
X35076543Y14389919D01*
X34906368Y14284551D01*
X34758451Y14149706D01*
X34678040Y14043225D01*
X34637834Y13989983D01*
X34574480Y13862752D01*
X34548617Y13810812D01*
X34493842Y13618301D01*
X34475375Y13419000D01*
X29268058Y13419000D01*
X29243170Y13468981D01*
X29122551Y13628706D01*
X28974636Y13763549D01*
X28804462Y13868916D01*
X28804460Y13868917D01*
X28762430Y13885200D01*
X28617824Y13941220D01*
X28470830Y13968698D01*
X28421080Y13977998D01*
X28421079Y13977998D01*
X28220925Y13977998D01*
X28220924Y13977998D01*
X28024183Y13941221D01*
X28024180Y13941221D01*
X28024180Y13941220D01*
X27903892Y13894621D01*
X27807827Y13877580D01*
X27712453Y13898160D01*
X27631959Y13953300D01*
X27578316Y14034799D01*
X27559502Y14130537D01*
X27559502Y15818999D01*
X60129375Y15818999D01*
X60147842Y15619698D01*
X60176664Y15518402D01*
X60202617Y15427186D01*
X60291834Y15248015D01*
X60412453Y15088290D01*
X60560368Y14953447D01*
X60730542Y14848080D01*
X60917180Y14775776D01*
X61087154Y14744003D01*
X61113924Y14738998D01*
X61113925Y14738998D01*
X61314079Y14738998D01*
X61314080Y14738998D01*
X61337643Y14743403D01*
X61510824Y14775776D01*
X61697462Y14848080D01*
X61867636Y14953447D01*
X61932557Y15012632D01*
X62011605Y15061577D01*
X62102999Y15078662D01*
X62194394Y15061578D01*
X62273446Y15012631D01*
X62316246Y14973614D01*
X62338368Y14953447D01*
X62508542Y14848080D01*
X62695180Y14775776D01*
X62865154Y14744003D01*
X62891924Y14738998D01*
X62891925Y14738998D01*
X63092079Y14738998D01*
X63092080Y14738998D01*
X63115643Y14743403D01*
X63288824Y14775776D01*
X63475462Y14848080D01*
X63645636Y14953447D01*
X63793551Y15088290D01*
X63914170Y15248015D01*
X63990685Y15401678D01*
X94498558Y15401678D01*
X94518299Y15138251D01*
X94577079Y14880716D01*
X94672118Y14638562D01*
X94673590Y14634813D01*
X94752001Y14499000D01*
X94805673Y14406038D01*
X94970371Y14199513D01*
X95164020Y14019833D01*
X95382273Y13871030D01*
X95382278Y13871028D01*
X95382279Y13871027D01*
X95620281Y13756412D01*
X95872707Y13678548D01*
X96068616Y13649020D01*
X96133918Y13639177D01*
X96133919Y13639177D01*
X96398081Y13639177D01*
X96398082Y13639177D01*
X96461979Y13648808D01*
X96659293Y13678548D01*
X96911719Y13756412D01*
X97149721Y13871027D01*
X97149723Y13871030D01*
X97149726Y13871030D01*
X97367979Y14019833D01*
X97367978Y14019833D01*
X97367982Y14019835D01*
X97561627Y14199511D01*
X97726329Y14406041D01*
X97858410Y14634813D01*
X97954920Y14880714D01*
X98013701Y15138253D01*
X98033442Y15401677D01*
X98033442Y15401678D01*
X107198558Y15401678D01*
X107218299Y15138251D01*
X107277079Y14880716D01*
X107372118Y14638562D01*
X107373590Y14634813D01*
X107452001Y14499000D01*
X107505673Y14406038D01*
X107670371Y14199513D01*
X107864020Y14019833D01*
X108082273Y13871030D01*
X108082278Y13871028D01*
X108082279Y13871027D01*
X108320281Y13756412D01*
X108572707Y13678548D01*
X108768616Y13649020D01*
X108833918Y13639177D01*
X108833919Y13639177D01*
X109098081Y13639177D01*
X109098082Y13639177D01*
X109161979Y13648808D01*
X109359293Y13678548D01*
X109611719Y13756412D01*
X109849721Y13871027D01*
X109849723Y13871030D01*
X109849726Y13871030D01*
X110067979Y14019833D01*
X110067978Y14019833D01*
X110067982Y14019835D01*
X110261627Y14199511D01*
X110312505Y14263310D01*
X126728840Y14263310D01*
X126842394Y14193001D01*
X127050316Y14112451D01*
X127269506Y14071477D01*
X127492494Y14071477D01*
X127711678Y14112450D01*
X127919612Y14193004D01*
X128033157Y14263309D01*
X128033157Y14263310D01*
X139047840Y14263310D01*
X139161394Y14193001D01*
X139369316Y14112451D01*
X139588506Y14071477D01*
X139811494Y14071477D01*
X140030678Y14112450D01*
X140238612Y14193004D01*
X140352157Y14263309D01*
X140352157Y14263310D01*
X139700000Y14915467D01*
X139047840Y14263310D01*
X128033157Y14263310D01*
X127381000Y14915467D01*
X126728840Y14263310D01*
X110312505Y14263310D01*
X110426329Y14406041D01*
X110558410Y14634813D01*
X110654920Y14880714D01*
X110713701Y15138253D01*
X110723925Y15274677D01*
X126172645Y15274677D01*
X126193219Y15052642D01*
X126254243Y14838170D01*
X126353635Y14638562D01*
X126367420Y14620309D01*
X127021790Y15274677D01*
X127740210Y15274677D01*
X128394578Y14620309D01*
X128408363Y14638560D01*
X128507756Y14838170D01*
X128568780Y15052642D01*
X128589354Y15274677D01*
X138491645Y15274677D01*
X138512219Y15052642D01*
X138573243Y14838170D01*
X138672635Y14638562D01*
X138686420Y14620309D01*
X139340790Y15274677D01*
X140059210Y15274677D01*
X140713578Y14620309D01*
X140727363Y14638560D01*
X140826756Y14838170D01*
X140887780Y15052642D01*
X140908354Y15274678D01*
X140887780Y15496713D01*
X140826756Y15711185D01*
X140727363Y15910795D01*
X140713579Y15929048D01*
X140059210Y15274677D01*
X139340790Y15274677D01*
X138686420Y15929047D01*
X138686419Y15929047D01*
X138672636Y15910796D01*
X138573243Y15711185D01*
X138512219Y15496713D01*
X138491645Y15274677D01*
X128589354Y15274677D01*
X128589354Y15274678D01*
X128568780Y15496713D01*
X128507756Y15711185D01*
X128408363Y15910795D01*
X128394579Y15929048D01*
X127740210Y15274677D01*
X127021790Y15274677D01*
X126367420Y15929047D01*
X126367419Y15929047D01*
X126353636Y15910796D01*
X126254243Y15711185D01*
X126193219Y15496713D01*
X126172645Y15274677D01*
X110723925Y15274677D01*
X110733442Y15401677D01*
X110713701Y15665101D01*
X110654920Y15922640D01*
X110558410Y16168541D01*
X110490568Y16286047D01*
X126728840Y16286047D01*
X127380999Y15633888D01*
X128033157Y16286046D01*
X128033155Y16286047D01*
X139047840Y16286047D01*
X139699999Y15633888D01*
X140352157Y16286046D01*
X140238608Y16356353D01*
X140030683Y16436904D01*
X139811494Y16477877D01*
X139588506Y16477877D01*
X139369320Y16436905D01*
X139161386Y16356351D01*
X139047840Y16286047D01*
X128033155Y16286047D01*
X127919608Y16356353D01*
X127711683Y16436904D01*
X127492494Y16477877D01*
X127269506Y16477877D01*
X127050320Y16436905D01*
X126842386Y16356351D01*
X126728840Y16286047D01*
X110490568Y16286047D01*
X110426329Y16397313D01*
X110394756Y16436904D01*
X110261628Y16603842D01*
X110067979Y16783522D01*
X109849726Y16932325D01*
X109723123Y16993293D01*
X109611719Y17046942D01*
X109359293Y17124806D01*
X109359291Y17124807D01*
X109359289Y17124807D01*
X109098082Y17164177D01*
X109098081Y17164177D01*
X108833919Y17164177D01*
X108833918Y17164177D01*
X108572710Y17124807D01*
X108320281Y17046942D01*
X108082273Y16932325D01*
X107864020Y16783522D01*
X107670371Y16603842D01*
X107505673Y16397317D01*
X107373589Y16168540D01*
X107277079Y15922639D01*
X107218299Y15665104D01*
X107198558Y15401678D01*
X98033442Y15401678D01*
X98013701Y15665101D01*
X97954920Y15922640D01*
X97858410Y16168541D01*
X97726329Y16397313D01*
X97694756Y16436904D01*
X97561628Y16603842D01*
X97367979Y16783522D01*
X97149726Y16932325D01*
X97023123Y16993293D01*
X96911719Y17046942D01*
X96659293Y17124806D01*
X96659291Y17124807D01*
X96659289Y17124807D01*
X96398082Y17164177D01*
X96398081Y17164177D01*
X96133919Y17164177D01*
X96133918Y17164177D01*
X95872710Y17124807D01*
X95620281Y17046942D01*
X95382273Y16932325D01*
X95164020Y16783522D01*
X94970371Y16603842D01*
X94805673Y16397317D01*
X94673589Y16168540D01*
X94577079Y15922639D01*
X94518299Y15665104D01*
X94498558Y15401678D01*
X63990685Y15401678D01*
X64003387Y15427186D01*
X64058161Y15619698D01*
X64076629Y15818998D01*
X64058161Y16018298D01*
X64003387Y16210810D01*
X63914170Y16389981D01*
X63793551Y16549706D01*
X63793547Y16549710D01*
X63789151Y16555531D01*
X63751165Y16627596D01*
X63738049Y16707998D01*
X63751165Y16788400D01*
X63789151Y16860465D01*
X63793547Y16866287D01*
X63793551Y16866290D01*
X63914170Y17026015D01*
X64003387Y17205186D01*
X64058161Y17397698D01*
X64076629Y17596998D01*
X64058161Y17796298D01*
X64003387Y17988810D01*
X63914170Y18167981D01*
X63793551Y18327706D01*
X63793547Y18327710D01*
X63789151Y18333531D01*
X63751165Y18405596D01*
X63738049Y18485998D01*
X63751165Y18566400D01*
X63789151Y18638465D01*
X63793547Y18644287D01*
X63793551Y18644290D01*
X63914170Y18804015D01*
X64003387Y18983186D01*
X64058161Y19175698D01*
X64074393Y19350866D01*
X94503500Y19350866D01*
X94514169Y19246436D01*
X94570234Y19077240D01*
X94570236Y19077237D01*
X94663811Y18925528D01*
X94789851Y18799488D01*
X94941560Y18705913D01*
X95042424Y18672490D01*
X95110758Y18649846D01*
X95120438Y18648858D01*
X95215189Y18639177D01*
X97316810Y18639178D01*
X97316811Y18639178D01*
X97326490Y18640167D01*
X97421241Y18649846D01*
X97590440Y18705913D01*
X97742149Y18799488D01*
X97868189Y18925528D01*
X97961764Y19077237D01*
X98017831Y19246436D01*
X98028500Y19350866D01*
X107203500Y19350866D01*
X107214169Y19246436D01*
X107270234Y19077240D01*
X107270236Y19077237D01*
X107363811Y18925528D01*
X107489851Y18799488D01*
X107641560Y18705913D01*
X107742424Y18672490D01*
X107810758Y18649846D01*
X107820438Y18648858D01*
X107915189Y18639177D01*
X110016810Y18639178D01*
X110016811Y18639178D01*
X110026490Y18640167D01*
X110121241Y18649846D01*
X110290440Y18705913D01*
X110442149Y18799488D01*
X110568189Y18925528D01*
X110661764Y19077237D01*
X110710352Y19223866D01*
X125618500Y19223866D01*
X125629169Y19119436D01*
X125685234Y18950240D01*
X125685236Y18950237D01*
X125778811Y18798528D01*
X125904851Y18672488D01*
X126056560Y18578913D01*
X126169359Y18541535D01*
X126225758Y18522846D01*
X126235438Y18521858D01*
X126330189Y18512177D01*
X128431810Y18512178D01*
X128431811Y18512178D01*
X128441490Y18513167D01*
X128536241Y18522846D01*
X128705440Y18578913D01*
X128857149Y18672488D01*
X128983189Y18798528D01*
X129076764Y18950237D01*
X129132831Y19119436D01*
X129143500Y19223866D01*
X137937500Y19223866D01*
X137948169Y19119436D01*
X138004234Y18950240D01*
X138004236Y18950237D01*
X138097811Y18798528D01*
X138223851Y18672488D01*
X138375560Y18578913D01*
X138488359Y18541535D01*
X138544758Y18522846D01*
X138554438Y18521858D01*
X138649189Y18512177D01*
X140750810Y18512178D01*
X140750811Y18512178D01*
X140760490Y18513167D01*
X140855241Y18522846D01*
X141024440Y18578913D01*
X141176149Y18672488D01*
X141302189Y18798528D01*
X141395764Y18950237D01*
X141451831Y19119436D01*
X141462500Y19223866D01*
X141462499Y21325487D01*
X141451831Y21429918D01*
X141395764Y21599117D01*
X141302189Y21750826D01*
X141176149Y21876866D01*
X141024440Y21970441D01*
X141024434Y21970443D01*
X140855241Y22026509D01*
X140760490Y22036189D01*
X140750810Y22037177D01*
X138649188Y22037177D01*
X138544758Y22026508D01*
X138375562Y21970443D01*
X138223849Y21876865D01*
X138097812Y21750828D01*
X138004235Y21599115D01*
X137948168Y21429919D01*
X137937500Y21325488D01*
X137937500Y19223866D01*
X129143500Y19223866D01*
X129143499Y21325487D01*
X129132831Y21429918D01*
X129076764Y21599117D01*
X128983189Y21750826D01*
X128857149Y21876866D01*
X128705440Y21970441D01*
X128705434Y21970443D01*
X128536241Y22026509D01*
X128441490Y22036189D01*
X128431810Y22037177D01*
X126330188Y22037177D01*
X126225758Y22026508D01*
X126056562Y21970443D01*
X125904849Y21876865D01*
X125778812Y21750828D01*
X125685235Y21599115D01*
X125629168Y21429919D01*
X125618500Y21325488D01*
X125618500Y19223866D01*
X110710352Y19223866D01*
X110717831Y19246436D01*
X110728500Y19350866D01*
X110728499Y21452487D01*
X110717831Y21556918D01*
X110661764Y21726117D01*
X110568189Y21877826D01*
X110442149Y22003866D01*
X110290440Y22097441D01*
X110290434Y22097443D01*
X110121241Y22153509D01*
X110026490Y22163189D01*
X110016810Y22164177D01*
X107915188Y22164177D01*
X107810758Y22153508D01*
X107641562Y22097443D01*
X107489849Y22003865D01*
X107363812Y21877828D01*
X107270235Y21726115D01*
X107214168Y21556919D01*
X107203500Y21452488D01*
X107203500Y19350866D01*
X98028500Y19350866D01*
X98028499Y21452487D01*
X98017831Y21556918D01*
X97961764Y21726117D01*
X97868189Y21877826D01*
X97742149Y22003866D01*
X97590440Y22097441D01*
X97590434Y22097443D01*
X97421241Y22153509D01*
X97326490Y22163189D01*
X97316810Y22164177D01*
X95215188Y22164177D01*
X95110758Y22153508D01*
X94941562Y22097443D01*
X94789849Y22003865D01*
X94663812Y21877828D01*
X94570235Y21726115D01*
X94514168Y21556919D01*
X94503500Y21452488D01*
X94503500Y19350866D01*
X64074393Y19350866D01*
X64076629Y19374998D01*
X64058161Y19574298D01*
X64003387Y19766810D01*
X63914170Y19945981D01*
X63793551Y20105706D01*
X63645636Y20240549D01*
X63475462Y20345916D01*
X63475460Y20345917D01*
X63419621Y20367549D01*
X63288824Y20418220D01*
X63157660Y20442739D01*
X63092080Y20454998D01*
X63092079Y20454998D01*
X62891925Y20454998D01*
X62891924Y20454998D01*
X62793552Y20436610D01*
X62695180Y20418220D01*
X62622877Y20390210D01*
X62508543Y20345917D01*
X62338365Y20240547D01*
X62273447Y20181366D01*
X62194396Y20132419D01*
X62103002Y20115335D01*
X62011608Y20132419D01*
X61932557Y20181366D01*
X61882383Y20227105D01*
X61867636Y20240549D01*
X61697462Y20345916D01*
X61697460Y20345917D01*
X61641621Y20367549D01*
X61510824Y20418220D01*
X61379660Y20442739D01*
X61314080Y20454998D01*
X61314079Y20454998D01*
X61113925Y20454998D01*
X61113924Y20454998D01*
X61015552Y20436610D01*
X60917180Y20418220D01*
X60844877Y20390210D01*
X60730543Y20345917D01*
X60560367Y20240549D01*
X60560368Y20240549D01*
X60412453Y20105706D01*
X60291834Y19945981D01*
X60265856Y19893810D01*
X60202617Y19766810D01*
X60147842Y19574299D01*
X60129375Y19374998D01*
X60147842Y19175698D01*
X60175857Y19077237D01*
X60202617Y18983186D01*
X60291834Y18804015D01*
X60412453Y18644290D01*
X60416852Y18638465D01*
X60454839Y18566399D01*
X60467954Y18485998D01*
X60454839Y18405597D01*
X60416852Y18333531D01*
X60412453Y18327707D01*
X60412453Y18327706D01*
X60291834Y18167981D01*
X60265856Y18115810D01*
X60202617Y17988810D01*
X60147842Y17796299D01*
X60129375Y17596998D01*
X60147842Y17397698D01*
X60176233Y17297917D01*
X60202617Y17205186D01*
X60291834Y17026015D01*
X60388521Y16897981D01*
X60416852Y16860465D01*
X60454839Y16788399D01*
X60467954Y16707998D01*
X60454839Y16627597D01*
X60416852Y16555531D01*
X60412453Y16549707D01*
X60412453Y16549706D01*
X60291834Y16389981D01*
X60260472Y16326998D01*
X60202617Y16210810D01*
X60147842Y16018299D01*
X60129375Y15818999D01*
X27559502Y15818999D01*
X27559502Y17723998D01*
X40812373Y17723998D01*
X40830840Y17524698D01*
X40864329Y17406998D01*
X40885615Y17332186D01*
X40974832Y17153015D01*
X41095451Y16993290D01*
X41243366Y16858447D01*
X41413540Y16753080D01*
X41600178Y16680776D01*
X41770152Y16649003D01*
X41796922Y16643998D01*
X41796923Y16643998D01*
X41997077Y16643998D01*
X41997078Y16643998D01*
X42020641Y16648403D01*
X42193822Y16680776D01*
X42380460Y16753080D01*
X42550634Y16858447D01*
X42698549Y16993290D01*
X42819168Y17153015D01*
X42908385Y17332186D01*
X42963159Y17524698D01*
X42981627Y17723998D01*
X42963159Y17923298D01*
X42908385Y18115810D01*
X42819168Y18294981D01*
X42698549Y18454706D01*
X42698546Y18454708D01*
X42694151Y18460529D01*
X42656164Y18532595D01*
X42643049Y18612996D01*
X42656165Y18693398D01*
X42694151Y18765464D01*
X42698545Y18771283D01*
X42698553Y18771290D01*
X42819172Y18931015D01*
X42908389Y19110186D01*
X42963163Y19302698D01*
X42981631Y19501998D01*
X42963163Y19701298D01*
X42908389Y19893810D01*
X42819172Y20072981D01*
X42698553Y20232706D01*
X42550638Y20367549D01*
X42380464Y20472916D01*
X42380462Y20472917D01*
X42338431Y20489200D01*
X42193826Y20545220D01*
X42002431Y20580998D01*
X41997082Y20581998D01*
X41997081Y20581998D01*
X41796927Y20581998D01*
X41796926Y20581998D01*
X41791577Y20580998D01*
X41600182Y20545220D01*
X41527879Y20517210D01*
X41413545Y20472917D01*
X41243369Y20367549D01*
X41243370Y20367549D01*
X41104059Y20240549D01*
X41095453Y20232704D01*
X41019722Y20132419D01*
X40974836Y20072981D01*
X40933468Y19989903D01*
X40885619Y19893810D01*
X40830844Y19701299D01*
X40812377Y19501998D01*
X40830844Y19302698D01*
X40853274Y19223867D01*
X40885619Y19110186D01*
X40974836Y18931015D01*
X41074161Y18799488D01*
X41099852Y18765468D01*
X41137839Y18693402D01*
X41150954Y18613001D01*
X41137839Y18532600D01*
X41099852Y18460535D01*
X40974834Y18294985D01*
X40885615Y18115810D01*
X40830840Y17923299D01*
X40812373Y17723998D01*
X27559502Y17723998D01*
X27559502Y22930998D01*
X64320375Y22930998D01*
X64338842Y22731698D01*
X64367665Y22630399D01*
X64393617Y22539186D01*
X64482834Y22360015D01*
X64603453Y22200290D01*
X64751368Y22065447D01*
X64921542Y21960080D01*
X65108180Y21887776D01*
X65278154Y21856003D01*
X65304924Y21850998D01*
X65304925Y21850998D01*
X65505079Y21850998D01*
X65505080Y21850998D01*
X65528643Y21855403D01*
X65701824Y21887776D01*
X65888462Y21960080D01*
X66058636Y22065447D01*
X66206551Y22200290D01*
X66327170Y22360015D01*
X66416387Y22539186D01*
X66471161Y22731698D01*
X66489629Y22930998D01*
X66471161Y23130298D01*
X66416387Y23322810D01*
X66327170Y23501981D01*
X66206551Y23661706D01*
X66058636Y23796549D01*
X65888462Y23901916D01*
X65888460Y23901917D01*
X65846429Y23918200D01*
X65701824Y23974220D01*
X65570660Y23998739D01*
X65505080Y24010998D01*
X65505079Y24010998D01*
X65304925Y24010998D01*
X65304924Y24010998D01*
X65206552Y23992610D01*
X65108180Y23974220D01*
X65035877Y23946210D01*
X64921543Y23901917D01*
X64806700Y23830809D01*
X64751368Y23796549D01*
X64603453Y23661706D01*
X64482834Y23501981D01*
X64451472Y23438998D01*
X64393617Y23322810D01*
X64338842Y23130299D01*
X64320375Y22930998D01*
X27559502Y22930998D01*
X27559502Y26740998D01*
X61145375Y26740998D01*
X61163842Y26541698D01*
X61190850Y26446778D01*
X61218617Y26349186D01*
X61307834Y26170015D01*
X61428453Y26010290D01*
X61576368Y25875447D01*
X61746542Y25770080D01*
X61933180Y25697776D01*
X62103154Y25666003D01*
X62129924Y25660998D01*
X62129925Y25660998D01*
X62330079Y25660998D01*
X62330080Y25660998D01*
X62353643Y25665403D01*
X62526824Y25697776D01*
X62713462Y25770080D01*
X62883636Y25875447D01*
X63031551Y26010290D01*
X63152170Y26170015D01*
X63241387Y26349186D01*
X63281169Y26489007D01*
X63306386Y26547952D01*
X63345608Y26598663D01*
X68383395Y31636450D01*
X68413578Y31662227D01*
X68416472Y31664329D01*
X68459032Y31711598D01*
X68468113Y31721167D01*
X68479939Y31732992D01*
X68490459Y31745985D01*
X68499028Y31756018D01*
X68541587Y31803283D01*
X68543378Y31806386D01*
X68565862Y31839101D01*
X68568108Y31841873D01*
X68596964Y31898506D01*
X68603286Y31910150D01*
X68635075Y31965210D01*
X68635077Y31965213D01*
X68636181Y31968613D01*
X68651372Y32005288D01*
X68652996Y32008473D01*
X68669456Y32069907D01*
X68670964Y32074998D01*
X101658375Y32074998D01*
X101676842Y31875698D01*
X101711158Y31755092D01*
X101731617Y31683186D01*
X101820834Y31504015D01*
X101941453Y31344290D01*
X102089368Y31209447D01*
X102259542Y31104080D01*
X102446180Y31031776D01*
X102616154Y31000003D01*
X102642924Y30994998D01*
X102642925Y30994998D01*
X102843079Y30994998D01*
X102843080Y30994998D01*
X102866643Y30999403D01*
X103039824Y31031776D01*
X103226462Y31104080D01*
X103258855Y31124138D01*
X103296755Y31147603D01*
X103360705Y31175840D01*
X103429942Y31185498D01*
X104568091Y31185498D01*
X104652177Y31171116D01*
X104726703Y31129605D01*
X104783197Y31065684D01*
X104815234Y30986622D01*
X104819173Y30901405D01*
X104794566Y30819724D01*
X104792617Y30815812D01*
X104737842Y30623299D01*
X104719375Y30423999D01*
X104737842Y30224698D01*
X104776714Y30088080D01*
X104792617Y30032186D01*
X104881834Y29853015D01*
X105002453Y29693290D01*
X105150368Y29558447D01*
X105320542Y29453080D01*
X105507180Y29380776D01*
X105677154Y29349003D01*
X105703924Y29343998D01*
X105703925Y29343998D01*
X105904079Y29343998D01*
X105904080Y29343998D01*
X105927643Y29348403D01*
X106100824Y29380776D01*
X106287462Y29453080D01*
X106457636Y29558447D01*
X106605551Y29693290D01*
X106726170Y29853015D01*
X106815387Y30032186D01*
X106870161Y30224698D01*
X106888629Y30423998D01*
X106870161Y30623298D01*
X106815387Y30815810D01*
X106815385Y30815813D01*
X106809619Y30836080D01*
X106800512Y30922002D01*
X106820849Y31005979D01*
X106868258Y31078215D01*
X106937210Y31130285D01*
X107019662Y31156116D01*
X107105999Y31152695D01*
X107186148Y31120423D01*
X107212542Y31104080D01*
X107399180Y31031776D01*
X107569154Y31000003D01*
X107595924Y30994998D01*
X107595925Y30994998D01*
X107796079Y30994998D01*
X107796080Y30994998D01*
X107819643Y30999403D01*
X107992824Y31031776D01*
X108179462Y31104080D01*
X108349636Y31209447D01*
X108497551Y31344290D01*
X108618170Y31504015D01*
X108707387Y31683186D01*
X108762161Y31875698D01*
X108780629Y32074998D01*
X108762161Y32274298D01*
X108707387Y32466810D01*
X108618170Y32645981D01*
X108497551Y32805706D01*
X108349636Y32940549D01*
X108179462Y33045916D01*
X108179460Y33045917D01*
X108114057Y33071254D01*
X107992824Y33118220D01*
X107861660Y33142739D01*
X107796080Y33154998D01*
X107796079Y33154998D01*
X107595925Y33154998D01*
X107595924Y33154998D01*
X107497552Y33136610D01*
X107399180Y33118220D01*
X107336967Y33094119D01*
X107212540Y33045916D01*
X107142249Y33002393D01*
X107078299Y32974156D01*
X107009062Y32964498D01*
X103429942Y32964498D01*
X103360705Y32974156D01*
X103296755Y33002393D01*
X103226463Y33045916D01*
X103161057Y33071254D01*
X103039824Y33118220D01*
X102908660Y33142739D01*
X102843080Y33154998D01*
X102843079Y33154998D01*
X102642925Y33154998D01*
X102642924Y33154998D01*
X102544552Y33136610D01*
X102446180Y33118220D01*
X102373877Y33090210D01*
X102259543Y33045917D01*
X102177783Y32995293D01*
X102089368Y32940549D01*
X102052893Y32907297D01*
X101941451Y32805704D01*
X101903222Y32755080D01*
X101820834Y32645981D01*
X101731617Y32466811D01*
X101731617Y32466810D01*
X101676842Y32274299D01*
X101658375Y32074998D01*
X68670964Y32074998D01*
X68673209Y32082574D01*
X68692857Y32143042D01*
X68693230Y32146599D01*
X68700463Y32185628D01*
X68701390Y32189083D01*
X68704719Y32252617D01*
X68705753Y32265746D01*
X68707502Y32282378D01*
X68707502Y32299084D01*
X68707849Y32312326D01*
X68711176Y32375805D01*
X68710617Y32379334D01*
X68707502Y32418914D01*
X68707502Y36138998D01*
X106852375Y36138998D01*
X106870842Y35939698D01*
X106903613Y35824523D01*
X106925617Y35747186D01*
X107014834Y35568015D01*
X107135453Y35408290D01*
X107283368Y35273447D01*
X107453542Y35168080D01*
X107640180Y35095776D01*
X107810154Y35064003D01*
X107836924Y35058998D01*
X107836925Y35058998D01*
X108037079Y35058998D01*
X108037080Y35058998D01*
X108060643Y35063403D01*
X108233824Y35095776D01*
X108420462Y35168080D01*
X108590636Y35273447D01*
X108738551Y35408290D01*
X108859170Y35568015D01*
X108948387Y35747186D01*
X109003161Y35939698D01*
X109021629Y36138998D01*
X110535375Y36138998D01*
X110553842Y35939698D01*
X110586613Y35824523D01*
X110608617Y35747186D01*
X110697834Y35568015D01*
X110818453Y35408290D01*
X110966368Y35273447D01*
X111136542Y35168080D01*
X111323180Y35095776D01*
X111493154Y35064003D01*
X111519924Y35058998D01*
X111519925Y35058998D01*
X111720079Y35058998D01*
X111720080Y35058998D01*
X111743643Y35063403D01*
X111916824Y35095776D01*
X112103462Y35168080D01*
X112273636Y35273447D01*
X112421551Y35408290D01*
X112542170Y35568015D01*
X112631387Y35747186D01*
X112686161Y35939698D01*
X112704629Y36138998D01*
X112686161Y36338298D01*
X112679501Y36361704D01*
X112661817Y36423859D01*
X112631387Y36530810D01*
X112542170Y36709981D01*
X112421551Y36869706D01*
X112273636Y37004549D01*
X112103462Y37109916D01*
X112103460Y37109917D01*
X112061429Y37126200D01*
X111916824Y37182220D01*
X111785660Y37206739D01*
X111720080Y37218998D01*
X111720079Y37218998D01*
X111519925Y37218998D01*
X111519924Y37218998D01*
X111426950Y37201618D01*
X111323180Y37182220D01*
X111295963Y37171676D01*
X111136543Y37109917D01*
X110966368Y37004549D01*
X110818451Y36869704D01*
X110769807Y36805289D01*
X110697834Y36709981D01*
X110678148Y36670446D01*
X110608617Y36530810D01*
X110553842Y36338299D01*
X110535375Y36138998D01*
X109021629Y36138998D01*
X109003161Y36338298D01*
X108996501Y36361704D01*
X108978817Y36423859D01*
X108948387Y36530810D01*
X108859170Y36709981D01*
X108738551Y36869706D01*
X108590636Y37004549D01*
X108420462Y37109916D01*
X108420460Y37109917D01*
X108378429Y37126200D01*
X108233824Y37182220D01*
X108102660Y37206739D01*
X108037080Y37218998D01*
X108037079Y37218998D01*
X107836925Y37218998D01*
X107836924Y37218998D01*
X107743950Y37201618D01*
X107640180Y37182220D01*
X107612963Y37171676D01*
X107453543Y37109917D01*
X107283368Y37004549D01*
X107135451Y36869704D01*
X107086807Y36805289D01*
X107014834Y36709981D01*
X106995148Y36670446D01*
X106925617Y36530810D01*
X106870842Y36338299D01*
X106852375Y36138998D01*
X68707502Y36138998D01*
X68707502Y40964998D01*
X71432375Y40964998D01*
X71450842Y40765698D01*
X71479725Y40664188D01*
X71505617Y40573186D01*
X71594834Y40394015D01*
X71715453Y40234290D01*
X71863368Y40099447D01*
X72033542Y39994080D01*
X72220180Y39921776D01*
X72389942Y39890042D01*
X72416924Y39884998D01*
X72416925Y39884998D01*
X72617079Y39884998D01*
X72617080Y39884998D01*
X72644062Y39890042D01*
X72813824Y39921776D01*
X72933610Y39968182D01*
X73025002Y39985266D01*
X73116393Y39968182D01*
X73236180Y39921776D01*
X73401938Y39890791D01*
X73432924Y39884998D01*
X73432925Y39884998D01*
X73633079Y39884998D01*
X73633080Y39884998D01*
X73660062Y39890042D01*
X73829824Y39921776D01*
X74016462Y39994080D01*
X74186636Y40099447D01*
X74334551Y40234290D01*
X74455170Y40394015D01*
X74544387Y40573186D01*
X74599161Y40765698D01*
X74617629Y40964998D01*
X74599161Y41164298D01*
X74544387Y41356810D01*
X74455170Y41535981D01*
X74334551Y41695706D01*
X74186636Y41830549D01*
X74016462Y41935916D01*
X74016460Y41935917D01*
X73949609Y41961815D01*
X73829824Y42008220D01*
X73679663Y42036290D01*
X73633080Y42044998D01*
X73633079Y42044998D01*
X73432925Y42044998D01*
X73432924Y42044998D01*
X73236180Y42008220D01*
X73116394Y41961815D01*
X73025000Y41944731D01*
X72933610Y41961815D01*
X72813824Y42008220D01*
X72813821Y42008221D01*
X72813820Y42008221D01*
X72617080Y42044998D01*
X72617079Y42044998D01*
X72416925Y42044998D01*
X72416924Y42044998D01*
X72318552Y42026609D01*
X72220180Y42008220D01*
X72147876Y41980210D01*
X72033543Y41935917D01*
X71863368Y41830550D01*
X71863368Y41830549D01*
X71717234Y41697329D01*
X71715451Y41695704D01*
X71687371Y41658520D01*
X71594834Y41535981D01*
X71544393Y41434682D01*
X71505617Y41356810D01*
X71450842Y41164299D01*
X71432375Y40964998D01*
X68707502Y40964998D01*
X68707502Y50841228D01*
X104515765Y50841228D01*
X104519529Y50805894D01*
X104526512Y50740340D01*
X104527023Y50734999D01*
X104535879Y50630947D01*
X104540136Y50607610D01*
X104540965Y50604681D01*
X104540966Y50604677D01*
X104560148Y50536939D01*
X104568597Y50507102D01*
X104570004Y50501922D01*
X104596326Y50400831D01*
X104604478Y50378515D01*
X104649497Y50284303D01*
X104651761Y50279435D01*
X104694805Y50184211D01*
X104706598Y50163617D01*
X104766935Y50078306D01*
X104769957Y50073936D01*
X104826766Y49989886D01*
X104826769Y49989883D01*
X104828473Y49987362D01*
X104843567Y49969068D01*
X104917446Y49895190D01*
X104921158Y49891398D01*
X104991371Y49818140D01*
X104991376Y49818137D01*
X104993481Y49815940D01*
X105016687Y49795949D01*
X106670642Y48141994D01*
X106681664Y48130247D01*
X106725522Y48080415D01*
X106804436Y48016697D01*
X106808548Y48013305D01*
X106855728Y47973526D01*
X106888443Y47945942D01*
X106907954Y47932452D01*
X106910606Y47930971D01*
X106910608Y47930969D01*
X106999154Y47881504D01*
X107003774Y47878859D01*
X107093920Y47825960D01*
X107115415Y47815968D01*
X107118286Y47814954D01*
X107118289Y47814952D01*
X107213957Y47781150D01*
X107218912Y47779340D01*
X107313860Y47743508D01*
X107316706Y47742434D01*
X107339585Y47736217D01*
X107342583Y47735703D01*
X107342589Y47735701D01*
X107442653Y47718545D01*
X107447750Y47717615D01*
X107547422Y47698337D01*
X107547430Y47698337D01*
X107550423Y47697758D01*
X107574005Y47695498D01*
X107577057Y47695498D01*
X107678470Y47695498D01*
X107683840Y47695441D01*
X107785258Y47693288D01*
X107785260Y47693289D01*
X107788294Y47693224D01*
X107818851Y47695498D01*
X108712502Y47695498D01*
X108809321Y47676240D01*
X108891400Y47621396D01*
X108946244Y47539317D01*
X108965502Y47442498D01*
X108965502Y42569628D01*
X108980623Y42391965D01*
X108980623Y42391962D01*
X108980624Y42391961D01*
X109010925Y42275587D01*
X109040566Y42161752D01*
X109138553Y41944980D01*
X109198272Y41856623D01*
X109271767Y41747884D01*
X109436368Y41576142D01*
X109627634Y41434682D01*
X109797202Y41349188D01*
X109840051Y41327584D01*
X110067513Y41257925D01*
X110303476Y41227709D01*
X110303476Y41227710D01*
X110303477Y41227709D01*
X110312106Y41228076D01*
X110541151Y41237805D01*
X110773701Y41287923D01*
X110994437Y41376622D01*
X111197007Y41501349D01*
X111375584Y41658517D01*
X111525031Y41843604D01*
X111641048Y42051285D01*
X111720299Y42275585D01*
X111760502Y42510053D01*
X111760502Y46509285D01*
X111769571Y46557341D01*
X111760502Y46603727D01*
X111760502Y48987749D01*
X111762551Y49019884D01*
X111764291Y49033473D01*
X111760730Y49117303D01*
X111760502Y49128041D01*
X111760502Y49425338D01*
X111779760Y49522157D01*
X111834604Y49604236D01*
X112140066Y49909698D01*
X113219027Y50988661D01*
X113230742Y50999652D01*
X113280584Y51043517D01*
X113344321Y51122456D01*
X113347653Y51126495D01*
X113413099Y51204116D01*
X113413102Y51204123D01*
X113415066Y51206451D01*
X113428543Y51225941D01*
X113463815Y51289081D01*
X113479485Y51317135D01*
X113482148Y51321784D01*
X113486184Y51328661D01*
X113533498Y51409287D01*
X113533499Y51409291D01*
X113535043Y51411921D01*
X113545029Y51433402D01*
X113546048Y51436285D01*
X113579849Y51531953D01*
X113581671Y51536939D01*
X113588358Y51554658D01*
X113617492Y51631856D01*
X113617492Y51631860D01*
X113618567Y51634706D01*
X113624784Y51657587D01*
X113625297Y51660580D01*
X113625299Y51660585D01*
X113642456Y51760652D01*
X113643379Y51765715D01*
X113662663Y51865418D01*
X113662663Y51865429D01*
X113663242Y51868421D01*
X113665502Y51892001D01*
X113665502Y51996466D01*
X113665559Y52001836D01*
X113666447Y52043668D01*
X113667712Y52103254D01*
X113667711Y52103257D01*
X113667776Y52106291D01*
X113665502Y52136847D01*
X113665502Y54759338D01*
X113684760Y54856157D01*
X113739604Y54938236D01*
X118360763Y59559396D01*
X118413161Y59599602D01*
X118474180Y59624877D01*
X118539661Y59633498D01*
X123917765Y59633498D01*
X124009159Y59616413D01*
X124088210Y59567467D01*
X124144241Y59493270D01*
X124169686Y59403842D01*
X124161107Y59311261D01*
X124119663Y59228032D01*
X124040334Y59122983D01*
X124007721Y59057487D01*
X123951117Y58943812D01*
X123911336Y58803996D01*
X123886118Y58745050D01*
X123846892Y58694335D01*
X120973607Y55821050D01*
X120943428Y55795273D01*
X120940532Y55793170D01*
X120897981Y55745913D01*
X120888880Y55736323D01*
X120877071Y55724513D01*
X120877066Y55724508D01*
X120877065Y55724506D01*
X120866541Y55711512D01*
X120857961Y55701467D01*
X120815417Y55654217D01*
X120813627Y55651115D01*
X120791150Y55618411D01*
X120788894Y55615626D01*
X120760033Y55558982D01*
X120753714Y55547344D01*
X120721928Y55492290D01*
X120720821Y55488880D01*
X120705635Y55452218D01*
X120704007Y55449024D01*
X120687554Y55387621D01*
X120683794Y55374926D01*
X120664147Y55314459D01*
X120663774Y55310905D01*
X120656542Y55271884D01*
X120655612Y55268415D01*
X120652285Y55204925D01*
X120651247Y55191727D01*
X120649502Y55175120D01*
X120649502Y55158419D01*
X120649155Y55145178D01*
X120645827Y55081694D01*
X120646387Y55078163D01*
X120649502Y55038583D01*
X120649502Y43343239D01*
X120630244Y43246420D01*
X120575400Y43164341D01*
X120320400Y42909341D01*
X120238321Y42854497D01*
X120141502Y42835239D01*
X120044683Y42854497D01*
X119962604Y42909341D01*
X119907760Y42991420D01*
X119888502Y43088239D01*
X119888502Y44873079D01*
X119891617Y44912659D01*
X119892176Y44916186D01*
X119890476Y44948618D01*
X119888849Y44979674D01*
X119888502Y44992915D01*
X119888502Y45009609D01*
X119888502Y45009616D01*
X119886752Y45026254D01*
X119885719Y45039384D01*
X119882391Y45102911D01*
X119881464Y45106368D01*
X119874229Y45145407D01*
X119873857Y45148952D01*
X119854207Y45209428D01*
X119850453Y45222100D01*
X119833996Y45283520D01*
X119832375Y45286702D01*
X119817180Y45323385D01*
X119816140Y45326585D01*
X119816077Y45326781D01*
X119784274Y45381865D01*
X119777966Y45393484D01*
X119749109Y45450121D01*
X119749107Y45450124D01*
X119746860Y45452899D01*
X119724372Y45485619D01*
X119722587Y45488711D01*
X119680049Y45535955D01*
X119671449Y45546024D01*
X119660941Y45559000D01*
X119649135Y45570806D01*
X119640018Y45580414D01*
X119597474Y45627664D01*
X119594579Y45629767D01*
X119564391Y45655550D01*
X118397610Y46822331D01*
X118358384Y46873046D01*
X118333166Y46931993D01*
X118332499Y46934338D01*
X118293385Y47071810D01*
X118204168Y47250981D01*
X118083549Y47410706D01*
X117935634Y47545549D01*
X117765460Y47650916D01*
X117765458Y47650917D01*
X117700091Y47676240D01*
X117578822Y47723220D01*
X117447658Y47747739D01*
X117382078Y47759998D01*
X117382077Y47759998D01*
X117181923Y47759998D01*
X117181922Y47759998D01*
X117093709Y47743508D01*
X116985178Y47723220D01*
X116920948Y47698337D01*
X116798541Y47650917D01*
X116750863Y47621396D01*
X116628366Y47545549D01*
X116480451Y47410706D01*
X116359832Y47250981D01*
X116317445Y47165856D01*
X116270615Y47071810D01*
X116215840Y46879299D01*
X116197373Y46679998D01*
X116215840Y46480698D01*
X116246613Y46372545D01*
X116270615Y46288186D01*
X116359832Y46109015D01*
X116480451Y45949290D01*
X116628366Y45814447D01*
X116798540Y45709080D01*
X116798542Y45709080D01*
X116798544Y45709078D01*
X116985173Y45636777D01*
X116985177Y45636777D01*
X116985178Y45636776D01*
X117009140Y45632297D01*
X117080626Y45607416D01*
X117141553Y45562502D01*
X118035400Y44668655D01*
X118090244Y44586576D01*
X118109502Y44489757D01*
X118109502Y43798398D01*
X118093797Y43710648D01*
X118048632Y43633792D01*
X117979614Y43577372D01*
X117895312Y43548392D01*
X117806191Y43550451D01*
X117723317Y43583292D01*
X117717465Y43586915D01*
X117685155Y43599432D01*
X117530824Y43659220D01*
X117383830Y43686698D01*
X117334080Y43695998D01*
X117334079Y43695998D01*
X117133925Y43695998D01*
X117133924Y43695998D01*
X117084174Y43686698D01*
X116937180Y43659220D01*
X116888337Y43640298D01*
X116750543Y43586917D01*
X116580368Y43481549D01*
X116432451Y43346704D01*
X116393088Y43294579D01*
X116311834Y43186981D01*
X116234962Y43032602D01*
X116222617Y43007810D01*
X116193844Y42906683D01*
X116154148Y42825795D01*
X116088622Y42763949D01*
X116005578Y42728988D01*
X115915548Y42725346D01*
X115829952Y42753486D01*
X115759646Y42809839D01*
X115713547Y42887257D01*
X115697502Y42975920D01*
X115697502Y44812082D01*
X115700617Y44851662D01*
X115701176Y44855192D01*
X115697849Y44918670D01*
X115697502Y44931912D01*
X115697502Y44948618D01*
X115695756Y44965224D01*
X115694716Y44978442D01*
X115691390Y45041911D01*
X115691390Y45041914D01*
X115690467Y45045356D01*
X115683229Y45084414D01*
X115683204Y45084643D01*
X115682857Y45087954D01*
X115663211Y45148420D01*
X115659453Y45161105D01*
X115642996Y45222523D01*
X115641375Y45225705D01*
X115626182Y45262384D01*
X115625078Y45265781D01*
X115593277Y45320863D01*
X115586975Y45332469D01*
X115558108Y45389123D01*
X115555856Y45391903D01*
X115533375Y45424616D01*
X115531586Y45427715D01*
X115489036Y45474972D01*
X115480447Y45485028D01*
X115469939Y45498004D01*
X115458134Y45509809D01*
X115449018Y45519416D01*
X115406474Y45566666D01*
X115403579Y45568769D01*
X115373391Y45594552D01*
X114971112Y45996831D01*
X114931886Y46047546D01*
X114906668Y46106493D01*
X114866887Y46246310D01*
X114777670Y46425481D01*
X114682249Y46551838D01*
X114641624Y46632257D01*
X114631757Y46721818D01*
X114653903Y46809158D01*
X114705249Y46883195D01*
X116516395Y48694341D01*
X116546578Y48720118D01*
X116549472Y48722220D01*
X116592032Y48769489D01*
X116601113Y48779058D01*
X116612939Y48790883D01*
X116623458Y48803875D01*
X116632036Y48813918D01*
X116674587Y48861174D01*
X116676374Y48864270D01*
X116698865Y48896995D01*
X116701109Y48899764D01*
X116729974Y48956418D01*
X116736293Y48968053D01*
X116768076Y49023103D01*
X116768077Y49023104D01*
X116769180Y49026498D01*
X116784376Y49063186D01*
X116785996Y49066365D01*
X116802450Y49127772D01*
X116806212Y49140474D01*
X116810077Y49152368D01*
X116825857Y49200933D01*
X116826230Y49204487D01*
X116833468Y49243531D01*
X116834391Y49246974D01*
X116837719Y49310500D01*
X116838757Y49323675D01*
X116840502Y49340268D01*
X116840502Y49356970D01*
X116840849Y49370211D01*
X116844176Y49433696D01*
X116843617Y49437226D01*
X116840502Y49476806D01*
X116840502Y53857904D01*
X116847222Y53915829D01*
X116867026Y53970676D01*
X116925253Y54087612D01*
X116962387Y54162186D01*
X117017161Y54354698D01*
X117035629Y54553998D01*
X117017161Y54753298D01*
X117015442Y54759338D01*
X116996859Y54824651D01*
X116962387Y54945810D01*
X116873170Y55124981D01*
X116752551Y55284706D01*
X116604636Y55419549D01*
X116434462Y55524916D01*
X116434460Y55524917D01*
X116392429Y55541200D01*
X116247824Y55597220D01*
X116116660Y55621739D01*
X116051080Y55633998D01*
X116051079Y55633998D01*
X115850925Y55633998D01*
X115850924Y55633998D01*
X115767542Y55618411D01*
X115654180Y55597220D01*
X115581877Y55569210D01*
X115467543Y55524917D01*
X115297368Y55419549D01*
X115149451Y55284704D01*
X115089205Y55204925D01*
X115028834Y55124981D01*
X114995727Y55058493D01*
X114939617Y54945810D01*
X114884842Y54753299D01*
X114866375Y54553998D01*
X114884842Y54354698D01*
X114939617Y54162185D01*
X115034978Y53970676D01*
X115054782Y53915829D01*
X115061502Y53857904D01*
X115061502Y49860128D01*
X115052881Y49794647D01*
X115027606Y49733628D01*
X114987400Y49681230D01*
X112591607Y47285439D01*
X112561428Y47259662D01*
X112558532Y47257559D01*
X112515981Y47210302D01*
X112506880Y47200712D01*
X112495071Y47188902D01*
X112495066Y47188897D01*
X112495065Y47188895D01*
X112484541Y47175901D01*
X112475961Y47165856D01*
X112433417Y47118606D01*
X112431627Y47115504D01*
X112409150Y47082800D01*
X112406894Y47080015D01*
X112378033Y47023371D01*
X112371714Y47011733D01*
X112339928Y46956679D01*
X112338821Y46953269D01*
X112323635Y46916607D01*
X112322007Y46913413D01*
X112305554Y46852010D01*
X112301794Y46839315D01*
X112282147Y46778848D01*
X112281774Y46775294D01*
X112274542Y46736273D01*
X112273612Y46732804D01*
X112270285Y46669314D01*
X112269247Y46656116D01*
X112267502Y46639509D01*
X112267502Y46622808D01*
X112267155Y46609567D01*
X112266155Y46590486D01*
X112258882Y46561454D01*
X112263386Y46548868D01*
X112264386Y46542555D01*
X112267502Y46502972D01*
X112267502Y40930237D01*
X112248244Y40833418D01*
X112193400Y40751339D01*
X111211661Y39769600D01*
X111129582Y39714756D01*
X111032763Y39695498D01*
X108169241Y39695498D01*
X108072422Y39714756D01*
X107990343Y39769600D01*
X107262604Y40497339D01*
X107207760Y40579418D01*
X107188502Y40676237D01*
X107188502Y42396759D01*
X107207760Y42493577D01*
X107262603Y42575656D01*
X107397238Y42710292D01*
X107455450Y42768505D01*
X107516374Y42813416D01*
X107587859Y42838297D01*
X107611824Y42842776D01*
X107798462Y42915080D01*
X107968636Y43020447D01*
X108116551Y43155290D01*
X108237170Y43315015D01*
X108326387Y43494186D01*
X108381161Y43686698D01*
X108399629Y43885998D01*
X108381161Y44085298D01*
X108326387Y44277810D01*
X108237170Y44456981D01*
X108116551Y44616706D01*
X107968636Y44751549D01*
X107798462Y44856916D01*
X107798460Y44856917D01*
X107756429Y44873200D01*
X107611824Y44929220D01*
X107419220Y44965224D01*
X107415080Y44965998D01*
X107415079Y44965998D01*
X107214925Y44965998D01*
X107214924Y44965998D01*
X107210784Y44965224D01*
X107018180Y44929220D01*
X106945877Y44901210D01*
X106831543Y44856917D01*
X106661368Y44751549D01*
X106513451Y44616704D01*
X106441177Y44520997D01*
X106392834Y44456981D01*
X106370394Y44411915D01*
X106303617Y44277810D01*
X106263836Y44137994D01*
X106238618Y44079048D01*
X106199392Y44028333D01*
X105733607Y43562548D01*
X105703428Y43536771D01*
X105700532Y43534668D01*
X105657981Y43487411D01*
X105648880Y43477821D01*
X105637071Y43466011D01*
X105637066Y43466006D01*
X105637065Y43466004D01*
X105626541Y43453010D01*
X105617961Y43442965D01*
X105575417Y43395715D01*
X105573627Y43392613D01*
X105551150Y43359909D01*
X105548894Y43357124D01*
X105520033Y43300480D01*
X105513714Y43288842D01*
X105481928Y43233788D01*
X105480821Y43230378D01*
X105465635Y43193716D01*
X105464007Y43190522D01*
X105447554Y43129119D01*
X105443794Y43116424D01*
X105424147Y43055957D01*
X105423774Y43052403D01*
X105416542Y43013382D01*
X105415612Y43009913D01*
X105412285Y42946423D01*
X105411247Y42933225D01*
X105409502Y42916618D01*
X105409502Y42899917D01*
X105409155Y42886676D01*
X105405827Y42823192D01*
X105406387Y42819661D01*
X105409502Y42780081D01*
X105409502Y40292915D01*
X105406387Y40253335D01*
X105405827Y40249805D01*
X105409155Y40186320D01*
X105409502Y40173079D01*
X105409502Y40156377D01*
X105411247Y40139770D01*
X105412285Y40126572D01*
X105415612Y40063085D01*
X105416540Y40059622D01*
X105423774Y40020593D01*
X105424147Y40017040D01*
X105443791Y39956581D01*
X105447551Y39943886D01*
X105464007Y39882475D01*
X105465632Y39879285D01*
X105480818Y39842625D01*
X105481927Y39839213D01*
X105511935Y39787237D01*
X105513710Y39784164D01*
X105520018Y39772548D01*
X105539379Y39734550D01*
X105548897Y39715870D01*
X105551140Y39713100D01*
X105573630Y39680378D01*
X105575417Y39677283D01*
X105617955Y39630039D01*
X105626554Y39619971D01*
X105637062Y39606995D01*
X105648878Y39595179D01*
X105657995Y39585571D01*
X105689768Y39550283D01*
X105700532Y39538329D01*
X105703428Y39536225D01*
X105733610Y39510447D01*
X107003448Y38240609D01*
X107029231Y38210421D01*
X107031334Y38207526D01*
X107078584Y38164982D01*
X107088191Y38155866D01*
X107099996Y38144061D01*
X107112969Y38133556D01*
X107123028Y38124964D01*
X107170285Y38082414D01*
X107173384Y38080625D01*
X107206097Y38058144D01*
X107208877Y38055892D01*
X107265531Y38027025D01*
X107277137Y38020723D01*
X107315517Y37998565D01*
X107332215Y37988924D01*
X107332219Y37988922D01*
X107335619Y37987817D01*
X107372288Y37972629D01*
X107375477Y37971004D01*
X107436893Y37954549D01*
X107449581Y37950790D01*
X107510046Y37931143D01*
X107513602Y37930770D01*
X107552631Y37923536D01*
X107556087Y37922610D01*
X107619541Y37919285D01*
X107619560Y37919284D01*
X107632764Y37918245D01*
X107649382Y37916498D01*
X107666089Y37916498D01*
X107679329Y37916152D01*
X107694586Y37915352D01*
X107742809Y37912824D01*
X107742809Y37912825D01*
X107742812Y37912824D01*
X107746343Y37913384D01*
X107785919Y37916498D01*
X111416085Y37916498D01*
X111455660Y37913384D01*
X111459192Y37912824D01*
X111459194Y37912825D01*
X111459195Y37912824D01*
X111522680Y37916151D01*
X111535921Y37916498D01*
X111552623Y37916498D01*
X111557959Y37917060D01*
X111569224Y37918244D01*
X111582391Y37919281D01*
X111645917Y37922609D01*
X111649364Y37923533D01*
X111688404Y37930770D01*
X111691958Y37931143D01*
X111752419Y37950789D01*
X111765119Y37954550D01*
X111781069Y37958825D01*
X111826526Y37971004D01*
X111829705Y37972624D01*
X111866393Y37987820D01*
X111867515Y37988186D01*
X111869787Y37988923D01*
X111895033Y38003499D01*
X111924838Y38020707D01*
X111936473Y38027026D01*
X111993127Y38055891D01*
X111995896Y38058135D01*
X112028621Y38080626D01*
X112031717Y38082413D01*
X112078973Y38124964D01*
X112089016Y38133542D01*
X112102008Y38144061D01*
X112113833Y38155887D01*
X112123402Y38164968D01*
X112170671Y38207528D01*
X112172773Y38210422D01*
X112198550Y38240605D01*
X113639157Y39681212D01*
X113717574Y39734503D01*
X113810105Y39755186D01*
X113903753Y39740354D01*
X113985364Y39692089D01*
X114043477Y39617170D01*
X114057895Y39588872D01*
X114060140Y39586100D01*
X114082630Y39553378D01*
X114084417Y39550283D01*
X114126955Y39503039D01*
X114135554Y39492971D01*
X114146062Y39479995D01*
X114157878Y39468179D01*
X114166995Y39458571D01*
X114209532Y39411329D01*
X114212428Y39409225D01*
X114242610Y39383447D01*
X118416400Y35209657D01*
X118471244Y35127578D01*
X118490502Y35030759D01*
X118490502Y34131610D01*
X118474457Y34042947D01*
X118428358Y33965529D01*
X118358052Y33909176D01*
X118272456Y33881036D01*
X118182426Y33884678D01*
X118099382Y33919639D01*
X118033856Y33981485D01*
X117994160Y34062373D01*
X117978387Y34117810D01*
X117889170Y34296981D01*
X117768551Y34456706D01*
X117620636Y34591549D01*
X117450462Y34696916D01*
X117450460Y34696917D01*
X117408430Y34713200D01*
X117263824Y34769220D01*
X117132660Y34793739D01*
X117067080Y34805998D01*
X117067079Y34805998D01*
X116866925Y34805998D01*
X116866924Y34805998D01*
X116768552Y34787609D01*
X116670180Y34769220D01*
X116627034Y34752505D01*
X116483540Y34696916D01*
X116413249Y34653393D01*
X116349299Y34625156D01*
X116280062Y34615498D01*
X115240942Y34615498D01*
X115171705Y34625156D01*
X115107755Y34653393D01*
X115037463Y34696916D01*
X114975249Y34721018D01*
X114850824Y34769220D01*
X114719660Y34793739D01*
X114654080Y34805998D01*
X114654079Y34805998D01*
X114453925Y34805998D01*
X114453924Y34805998D01*
X114355552Y34787609D01*
X114257180Y34769220D01*
X114214034Y34752505D01*
X114070543Y34696917D01*
X113985089Y34644006D01*
X113900368Y34591549D01*
X113778868Y34480786D01*
X113752451Y34456704D01*
X113672040Y34350223D01*
X113631834Y34296981D01*
X113584151Y34201221D01*
X113542617Y34117810D01*
X113487842Y33925299D01*
X113469375Y33725998D01*
X113487842Y33526698D01*
X113503829Y33470511D01*
X113542617Y33334186D01*
X113631834Y33155015D01*
X113752453Y32995290D01*
X113900368Y32860447D01*
X114070542Y32755080D01*
X114257180Y32682776D01*
X114427154Y32651003D01*
X114453924Y32645998D01*
X114453925Y32645998D01*
X114654079Y32645998D01*
X114654080Y32645998D01*
X114677643Y32650403D01*
X114850824Y32682776D01*
X115037462Y32755080D01*
X115070952Y32775816D01*
X115107755Y32798603D01*
X115171705Y32826840D01*
X115240942Y32836498D01*
X116280062Y32836498D01*
X116349299Y32826840D01*
X116413249Y32798603D01*
X116483540Y32755081D01*
X116483542Y32755080D01*
X116670180Y32682776D01*
X116840154Y32651003D01*
X116866924Y32645998D01*
X116866925Y32645998D01*
X117067079Y32645998D01*
X117067080Y32645998D01*
X117090643Y32650403D01*
X117263824Y32682776D01*
X117450462Y32755080D01*
X117620636Y32860447D01*
X117768551Y32995290D01*
X117889170Y33155015D01*
X117978387Y33334186D01*
X117994160Y33389624D01*
X118033856Y33470511D01*
X118099382Y33532357D01*
X118182426Y33567318D01*
X118272456Y33570960D01*
X118358052Y33542820D01*
X118428358Y33486467D01*
X118474457Y33409049D01*
X118490502Y33320386D01*
X118490502Y31755092D01*
X118483782Y31697167D01*
X118463978Y31642320D01*
X118368617Y31450812D01*
X118313842Y31258299D01*
X118295375Y31058998D01*
X118313842Y30859698D01*
X118356484Y30709829D01*
X118368617Y30667186D01*
X118457834Y30488015D01*
X118578453Y30328290D01*
X118726368Y30193447D01*
X118896542Y30088080D01*
X119083180Y30015776D01*
X119253154Y29984003D01*
X119279924Y29978998D01*
X119279925Y29978998D01*
X119480079Y29978998D01*
X119480080Y29978998D01*
X119503643Y29983403D01*
X119676824Y30015776D01*
X119863462Y30088080D01*
X120033636Y30193447D01*
X120181551Y30328290D01*
X120302170Y30488015D01*
X120391387Y30667186D01*
X120446161Y30859698D01*
X120464629Y31058998D01*
X120446161Y31258298D01*
X120438429Y31285472D01*
X120410126Y31384949D01*
X120391387Y31450810D01*
X120302170Y31629981D01*
X120296026Y31642320D01*
X120276222Y31697167D01*
X120269502Y31755092D01*
X120269502Y32860999D01*
X136380645Y32860999D01*
X136401040Y32601851D01*
X136461725Y32349077D01*
X136561202Y32108917D01*
X136561204Y32108914D01*
X136697029Y31887269D01*
X136865854Y31689600D01*
X137063523Y31520775D01*
X137285168Y31384950D01*
X137525332Y31285471D01*
X137778102Y31224787D01*
X138037252Y31204391D01*
X138296402Y31224787D01*
X138549172Y31285471D01*
X138789336Y31384950D01*
X139010981Y31520775D01*
X139208650Y31689600D01*
X139344871Y31849095D01*
X139411901Y31904547D01*
X139493754Y31934016D01*
X139580750Y31934016D01*
X139662603Y31904547D01*
X139729632Y31849095D01*
X139865854Y31689600D01*
X140063523Y31520775D01*
X140285168Y31384950D01*
X140525332Y31285471D01*
X140778102Y31224787D01*
X141037252Y31204391D01*
X141296402Y31224787D01*
X141549172Y31285471D01*
X141789336Y31384950D01*
X142010981Y31520775D01*
X142208650Y31689600D01*
X142377475Y31887269D01*
X142513300Y32108914D01*
X142612779Y32349078D01*
X142673463Y32601848D01*
X142693859Y32860998D01*
X142673463Y33120148D01*
X142612779Y33372918D01*
X142532256Y33567318D01*
X142513301Y33613080D01*
X142448877Y33718210D01*
X142377475Y33834727D01*
X142208650Y34032396D01*
X142010981Y34201221D01*
X141964810Y34229515D01*
X143600752Y34229515D01*
X143639943Y33969492D01*
X143717455Y33718207D01*
X143831549Y33481288D01*
X143979682Y33264017D01*
X144080837Y33154998D01*
X144158542Y33071252D01*
X144364135Y32907297D01*
X144591868Y32775815D01*
X144781326Y32701459D01*
X144828928Y32682776D01*
X144836654Y32679744D01*
X145093024Y32621229D01*
X145289598Y32606498D01*
X145420901Y32606498D01*
X145420906Y32606498D01*
X145617480Y32621229D01*
X145873850Y32679744D01*
X146118636Y32775815D01*
X146346369Y32907297D01*
X146551962Y33071252D01*
X146730822Y33264018D01*
X146878954Y33481288D01*
X146993050Y33718210D01*
X147070560Y33969490D01*
X147105487Y34201221D01*
X147109752Y34229515D01*
X147109752Y34492481D01*
X147078939Y34696916D01*
X147070560Y34752506D01*
X146993050Y35003786D01*
X146966461Y35058998D01*
X146878954Y35240709D01*
X146730821Y35457980D01*
X146551963Y35650743D01*
X146346368Y35814700D01*
X146118636Y35946181D01*
X145873852Y36042252D01*
X145617480Y36100767D01*
X145617479Y36100768D01*
X145420906Y36115498D01*
X145289598Y36115498D01*
X145125786Y36103223D01*
X145093023Y36100767D01*
X144836651Y36042252D01*
X144591867Y35946181D01*
X144364135Y35814700D01*
X144158540Y35650743D01*
X143979682Y35457980D01*
X143831549Y35240709D01*
X143717455Y35003790D01*
X143639943Y34752505D01*
X143600752Y34492481D01*
X143600752Y34229515D01*
X141964810Y34229515D01*
X141789336Y34337046D01*
X141563237Y34430699D01*
X141486046Y34480786D01*
X141431872Y34555168D01*
X141407885Y34644006D01*
X141417256Y34735547D01*
X141458747Y34817681D01*
X141526869Y34879544D01*
X141608778Y34930262D01*
X141037252Y35501788D01*
X140465724Y34930262D01*
X140465724Y34930261D01*
X140547633Y34879544D01*
X140615756Y34817682D01*
X140657247Y34735548D01*
X140666619Y34644007D01*
X140642631Y34555169D01*
X140588457Y34480786D01*
X140511264Y34430699D01*
X140285173Y34337050D01*
X140063524Y34201222D01*
X140063522Y34201221D01*
X140063523Y34201221D01*
X139865854Y34032396D01*
X139729632Y33872902D01*
X139662603Y33817450D01*
X139580750Y33787981D01*
X139493754Y33787981D01*
X139411901Y33817450D01*
X139344871Y33872902D01*
X139208650Y34032396D01*
X139010981Y34201221D01*
X138789336Y34337046D01*
X138563237Y34430699D01*
X138486046Y34480786D01*
X138431872Y34555168D01*
X138407885Y34644006D01*
X138417256Y34735547D01*
X138458747Y34817681D01*
X138526869Y34879544D01*
X138608778Y34930262D01*
X138037252Y35501788D01*
X137465724Y34930262D01*
X137465724Y34930261D01*
X137547633Y34879544D01*
X137615756Y34817682D01*
X137657247Y34735548D01*
X137666619Y34644007D01*
X137642631Y34555169D01*
X137588457Y34480786D01*
X137511264Y34430699D01*
X137285173Y34337050D01*
X137063524Y34201222D01*
X136865854Y34032396D01*
X136697028Y33834726D01*
X136561202Y33613080D01*
X136461725Y33372920D01*
X136401040Y33120146D01*
X136380645Y32860999D01*
X120269502Y32860999D01*
X120269502Y35414082D01*
X120272617Y35453662D01*
X120273176Y35457192D01*
X120269849Y35520670D01*
X120269502Y35533912D01*
X120269502Y35550618D01*
X120267756Y35567224D01*
X120266716Y35580442D01*
X120263390Y35643911D01*
X120263390Y35643914D01*
X120262467Y35647356D01*
X120255229Y35686414D01*
X120255204Y35686643D01*
X120254857Y35689954D01*
X120244784Y35720956D01*
X120235211Y35750420D01*
X120231453Y35763105D01*
X120214996Y35824523D01*
X120213375Y35827705D01*
X120199584Y35860999D01*
X136940372Y35860999D01*
X136959048Y35659449D01*
X137014444Y35464757D01*
X137103317Y35286276D01*
X137103318Y35286276D01*
X137678042Y35860998D01*
X138396462Y35860998D01*
X138971184Y35286276D01*
X138971185Y35286276D01*
X139060060Y35464759D01*
X139115455Y35659449D01*
X139134131Y35860999D01*
X139940372Y35860999D01*
X139959048Y35659449D01*
X140014444Y35464757D01*
X140103317Y35286276D01*
X140103318Y35286276D01*
X140678042Y35860998D01*
X141396462Y35860998D01*
X141971184Y35286276D01*
X141971185Y35286276D01*
X142060060Y35464759D01*
X142115455Y35659449D01*
X142134131Y35860999D01*
X142115455Y36062548D01*
X142060060Y36257237D01*
X141971184Y36435722D01*
X141396462Y35860998D01*
X140678042Y35860998D01*
X140103318Y36435722D01*
X140014443Y36257237D01*
X139959048Y36062548D01*
X139940372Y35860999D01*
X139134131Y35860999D01*
X139115455Y36062548D01*
X139060060Y36257237D01*
X138971184Y36435722D01*
X138396462Y35860998D01*
X137678042Y35860998D01*
X137103318Y36435722D01*
X137014443Y36257237D01*
X136959048Y36062548D01*
X136940372Y35860999D01*
X120199584Y35860999D01*
X120198182Y35864384D01*
X120197078Y35867781D01*
X120165277Y35922863D01*
X120158975Y35934469D01*
X120130108Y35991123D01*
X120127856Y35993903D01*
X120105375Y36026616D01*
X120105326Y36026701D01*
X120103587Y36029713D01*
X120096748Y36037309D01*
X120049801Y36112786D01*
X120031857Y36199844D01*
X120045132Y36287736D01*
X120087986Y36365612D01*
X120155132Y36423859D01*
X120238279Y36455287D01*
X120242077Y36455997D01*
X120242080Y36455997D01*
X120438825Y36492775D01*
X120625463Y36565079D01*
X120795637Y36670446D01*
X120928686Y36791737D01*
X137465723Y36791737D01*
X138037251Y36220209D01*
X138608778Y36791737D01*
X140465723Y36791737D01*
X141037251Y36220209D01*
X141608778Y36791737D01*
X141526172Y36842885D01*
X141337426Y36916004D01*
X141138458Y36953198D01*
X140936046Y36953198D01*
X140737077Y36916004D01*
X140548329Y36842884D01*
X140465723Y36791737D01*
X138608778Y36791737D01*
X138526172Y36842885D01*
X138337426Y36916004D01*
X138138458Y36953198D01*
X137936046Y36953198D01*
X137737077Y36916004D01*
X137548329Y36842884D01*
X137465723Y36791737D01*
X120928686Y36791737D01*
X120943552Y36805289D01*
X121064171Y36965014D01*
X121153388Y37144185D01*
X121208162Y37336697D01*
X121226630Y37535997D01*
X121208162Y37735297D01*
X121153388Y37927809D01*
X121064171Y38106980D01*
X120943552Y38266705D01*
X120795637Y38401548D01*
X120625463Y38506915D01*
X120625461Y38506916D01*
X120524116Y38546177D01*
X120438825Y38579219D01*
X120438822Y38579220D01*
X120416965Y38587687D01*
X120417170Y38588218D01*
X120364236Y38607793D01*
X120298606Y38662292D01*
X120254820Y38735506D01*
X120237857Y38819110D01*
X120249644Y38903599D01*
X120288838Y38979362D01*
X120302170Y38997015D01*
X120391387Y39176186D01*
X120431169Y39316007D01*
X120456386Y39374952D01*
X120495608Y39425663D01*
X122739395Y41669450D01*
X122769578Y41695227D01*
X122772472Y41697329D01*
X122815032Y41744598D01*
X122824113Y41754167D01*
X122835939Y41765992D01*
X122846458Y41778984D01*
X122855036Y41789027D01*
X122897587Y41836283D01*
X122899374Y41839379D01*
X122921865Y41872104D01*
X122924109Y41874873D01*
X122952974Y41931527D01*
X122959293Y41943162D01*
X122991076Y41998212D01*
X122991077Y41998213D01*
X122992180Y42001607D01*
X123007376Y42038295D01*
X123008996Y42041474D01*
X123025450Y42102881D01*
X123029212Y42115583D01*
X123048857Y42176042D01*
X123049230Y42179596D01*
X123056468Y42218640D01*
X123057391Y42222083D01*
X123060719Y42285609D01*
X123061757Y42298784D01*
X123063502Y42315377D01*
X123063502Y42332079D01*
X123063849Y42345320D01*
X123067176Y42408805D01*
X123066617Y42412335D01*
X123063502Y42451915D01*
X123063502Y52810759D01*
X123082760Y52907578D01*
X123137604Y52989657D01*
X124500343Y54352396D01*
X124582422Y54407240D01*
X124679241Y54426498D01*
X128282411Y54426498D01*
X128367546Y54411744D01*
X128442751Y54369202D01*
X128499255Y54303835D01*
X128530468Y54223266D01*
X128532749Y54136892D01*
X128505832Y54054788D01*
X128452859Y53986532D01*
X128349230Y53892061D01*
X128344451Y53887704D01*
X128280342Y53802810D01*
X128223834Y53727981D01*
X128190499Y53661036D01*
X128134617Y53548810D01*
X128079842Y53356299D01*
X128061375Y53156998D01*
X128079842Y52957698D01*
X128108100Y52858384D01*
X128134617Y52765186D01*
X128223834Y52586015D01*
X128344453Y52426290D01*
X128492368Y52291447D01*
X128662542Y52186080D01*
X128849180Y52113776D01*
X129019154Y52082003D01*
X129045924Y52076998D01*
X129045925Y52076998D01*
X129246079Y52076998D01*
X129246080Y52076998D01*
X129269643Y52081403D01*
X129442824Y52113776D01*
X129629462Y52186080D01*
X129799636Y52291447D01*
X129947551Y52426290D01*
X130068170Y52586015D01*
X130157387Y52765186D01*
X130212161Y52957698D01*
X130230629Y53156998D01*
X130212161Y53356298D01*
X130209395Y53366018D01*
X130176008Y53483362D01*
X130157387Y53548810D01*
X130068170Y53727981D01*
X129947551Y53887706D01*
X129839144Y53986532D01*
X129786172Y54054788D01*
X129759255Y54136892D01*
X129761536Y54223266D01*
X129792749Y54303835D01*
X129849253Y54369202D01*
X129924458Y54411744D01*
X130009593Y54426498D01*
X130466085Y54426498D01*
X130505660Y54423384D01*
X130509192Y54422824D01*
X130509194Y54422825D01*
X130509195Y54422824D01*
X130572680Y54426151D01*
X130585921Y54426498D01*
X130602623Y54426498D01*
X130607959Y54427060D01*
X130619224Y54428244D01*
X130632391Y54429281D01*
X130695917Y54432609D01*
X130699364Y54433533D01*
X130738404Y54440770D01*
X130741958Y54441143D01*
X130802419Y54460789D01*
X130815119Y54464550D01*
X130831069Y54468825D01*
X130876526Y54481004D01*
X130879705Y54482624D01*
X130916393Y54497820D01*
X130919787Y54498923D01*
X130952679Y54517914D01*
X130974851Y54530716D01*
X130986481Y54537030D01*
X130997045Y54542412D01*
X131012512Y54550292D01*
X131080873Y54573556D01*
X131170324Y54590276D01*
X131356962Y54662580D01*
X131527136Y54767947D01*
X131675051Y54902790D01*
X131795670Y55062515D01*
X131884887Y55241686D01*
X131939661Y55434198D01*
X131958129Y55633498D01*
X131939661Y55832798D01*
X131884887Y56025310D01*
X131795670Y56204481D01*
X131675051Y56364206D01*
X131527136Y56499049D01*
X131356962Y56604416D01*
X131356960Y56604417D01*
X131314930Y56620700D01*
X131170324Y56676720D01*
X131039160Y56701239D01*
X130973580Y56713498D01*
X130973579Y56713498D01*
X130773425Y56713498D01*
X130773424Y56713498D01*
X130675052Y56695109D01*
X130576680Y56676720D01*
X130504377Y56648710D01*
X130390043Y56604417D01*
X130310744Y56555317D01*
X130219868Y56499049D01*
X130071953Y56364206D01*
X130028018Y56306028D01*
X129972299Y56252000D01*
X129902820Y56217404D01*
X129826123Y56205498D01*
X124484738Y56205498D01*
X124387919Y56224756D01*
X124305840Y56279600D01*
X124250997Y56361679D01*
X124231738Y56458498D01*
X124250996Y56555317D01*
X124305840Y56637396D01*
X124693206Y57024762D01*
X125102950Y57434507D01*
X125163874Y57479418D01*
X125235359Y57504299D01*
X125259324Y57508778D01*
X125445962Y57581082D01*
X125445963Y57581084D01*
X125445966Y57581084D01*
X125550720Y57645945D01*
X125636720Y57679401D01*
X125728998Y57679791D01*
X125815277Y57647061D01*
X125884080Y57585568D01*
X125967053Y57478224D01*
X126142248Y57317307D01*
X126142251Y57317306D01*
X126142250Y57317306D01*
X126342127Y57188307D01*
X126513389Y57115228D01*
X126560932Y57094941D01*
X126792362Y57039899D01*
X126819213Y57038187D01*
X127029772Y57024761D01*
X127266323Y57049962D01*
X127495212Y57114778D01*
X127709855Y57217343D01*
X127904077Y57354709D01*
X128599029Y58049663D01*
X128610744Y58060654D01*
X128660586Y58104519D01*
X128724323Y58183458D01*
X128727655Y58187497D01*
X128793101Y58265118D01*
X128793104Y58265125D01*
X128795068Y58267453D01*
X128808545Y58286943D01*
X128859479Y58378121D01*
X128862150Y58382786D01*
X128913500Y58470289D01*
X128913501Y58470294D01*
X128915043Y58472920D01*
X128925031Y58494405D01*
X128926047Y58497284D01*
X128926050Y58497287D01*
X128959852Y58592960D01*
X128961646Y58597871D01*
X128997494Y58692857D01*
X128997495Y58692864D01*
X128998571Y58695714D01*
X129004784Y58718579D01*
X129005298Y58721581D01*
X129005301Y58721587D01*
X129022469Y58821717D01*
X129023383Y58826731D01*
X129042664Y58926420D01*
X129042664Y58926428D01*
X129043244Y58929426D01*
X129045504Y58953007D01*
X129045504Y59057487D01*
X129045561Y59062858D01*
X129045680Y59068444D01*
X129047714Y59164256D01*
X129047713Y59164259D01*
X129047778Y59167294D01*
X129045504Y59197849D01*
X129045504Y60925749D01*
X129047553Y60957884D01*
X129049293Y60971473D01*
X129045732Y61055303D01*
X129045504Y61066041D01*
X129045504Y62555498D01*
X129064762Y62652317D01*
X129119606Y62734396D01*
X129201685Y62789240D01*
X129298504Y62808498D01*
X129936344Y62808498D01*
X130033163Y62789240D01*
X130115242Y62734396D01*
X130799402Y62050236D01*
X130854246Y61968157D01*
X130873504Y61871338D01*
X130873504Y61527570D01*
X130872991Y61511471D01*
X130868767Y61445229D01*
X130879514Y61344338D01*
X130880025Y61338997D01*
X130888881Y61234945D01*
X130893138Y61211608D01*
X130893967Y61208679D01*
X130893968Y61208675D01*
X130921599Y61111100D01*
X130923006Y61105920D01*
X130949328Y61004829D01*
X130957480Y60982513D01*
X131002499Y60888301D01*
X131004763Y60883433D01*
X131047807Y60788209D01*
X131059600Y60767615D01*
X131119937Y60682304D01*
X131122959Y60677934D01*
X131179768Y60593884D01*
X131179771Y60593881D01*
X131181475Y60591360D01*
X131196569Y60573066D01*
X131270448Y60499188D01*
X131274160Y60495396D01*
X131344373Y60422138D01*
X131344378Y60422135D01*
X131346483Y60419938D01*
X131369689Y60399947D01*
X134054801Y57714835D01*
X134191121Y57599900D01*
X134396289Y57479503D01*
X134396291Y57479502D01*
X134618859Y57395508D01*
X134814570Y57357658D01*
X134852421Y57350337D01*
X134971339Y57347813D01*
X135090258Y57345288D01*
X135090258Y57345289D01*
X135090259Y57345288D01*
X135123988Y57350337D01*
X135325526Y57380505D01*
X135551458Y57454977D01*
X135761555Y57566561D01*
X135949772Y57712046D01*
X136110694Y57887247D01*
X136239693Y58087123D01*
X136333057Y58305927D01*
X136388101Y58537360D01*
X136403239Y58774768D01*
X136378038Y59011319D01*
X136313222Y59240208D01*
X136217527Y59440473D01*
X136210658Y59454849D01*
X136177405Y59501865D01*
X136073290Y59649073D01*
X133742606Y61979758D01*
X133687762Y62061837D01*
X133668504Y62158656D01*
X133668504Y62502410D01*
X133669017Y62518512D01*
X133673242Y62584766D01*
X133673242Y62584768D01*
X133662486Y62685715D01*
X133661987Y62690924D01*
X133653383Y62792031D01*
X133653382Y62792034D01*
X133653125Y62795058D01*
X133648867Y62818400D01*
X133620411Y62918885D01*
X133619019Y62924005D01*
X133593440Y63022244D01*
X133593436Y63022251D01*
X133592675Y63025177D01*
X133584534Y63047466D01*
X133539491Y63141730D01*
X133537227Y63146600D01*
X133494201Y63241785D01*
X133482415Y63262368D01*
X133480659Y63264851D01*
X133422050Y63347717D01*
X133419044Y63352066D01*
X133360543Y63438622D01*
X133345440Y63456926D01*
X133271558Y63530808D01*
X133267847Y63534598D01*
X133197635Y63607856D01*
X133197634Y63607857D01*
X133195532Y63610050D01*
X133172319Y63630047D01*
X131645362Y65157004D01*
X131634340Y65168751D01*
X131590484Y65218581D01*
X131547497Y65253290D01*
X131511531Y65282331D01*
X131507496Y65285660D01*
X131429886Y65351095D01*
X131429883Y65351097D01*
X131427563Y65353053D01*
X131408047Y65366548D01*
X131316870Y65417482D01*
X131312211Y65420150D01*
X131222106Y65473025D01*
X131200581Y65483032D01*
X131102113Y65517824D01*
X131097074Y65519665D01*
X130999314Y65556557D01*
X130976403Y65562784D01*
X130873440Y65580438D01*
X130868157Y65581402D01*
X130765608Y65601235D01*
X130741991Y65603498D01*
X130738949Y65603498D01*
X130637536Y65603498D01*
X130632166Y65603555D01*
X130527711Y65605773D01*
X130497155Y65603498D01*
X129298504Y65603498D01*
X129201685Y65622756D01*
X129119606Y65677600D01*
X129064762Y65759679D01*
X129045504Y65856498D01*
X129045504Y65983998D01*
X137726375Y65983998D01*
X137744842Y65784698D01*
X137787484Y65634829D01*
X137799617Y65592186D01*
X137888834Y65413015D01*
X138009453Y65253290D01*
X138157368Y65118447D01*
X138327542Y65013080D01*
X138514180Y64940776D01*
X138684154Y64909003D01*
X138710924Y64903998D01*
X138710925Y64903998D01*
X138911079Y64903998D01*
X138911080Y64903998D01*
X138950428Y64911354D01*
X139107824Y64940776D01*
X139294462Y65013080D01*
X139312812Y65024443D01*
X139399509Y65058031D01*
X139492489Y65058031D01*
X139579190Y65024443D01*
X139597542Y65013080D01*
X139784180Y64940776D01*
X139954154Y64909003D01*
X139980924Y64903998D01*
X139980925Y64903998D01*
X140181079Y64903998D01*
X140181080Y64903998D01*
X140204643Y64908403D01*
X140377824Y64940776D01*
X140564462Y65013080D01*
X140734636Y65118447D01*
X140882551Y65253290D01*
X141003170Y65413015D01*
X141092387Y65592186D01*
X141147161Y65784698D01*
X141165629Y65983998D01*
X141147161Y66183298D01*
X141092387Y66375810D01*
X141003170Y66554981D01*
X141003167Y66554985D01*
X140995827Y66569726D01*
X140972297Y66643691D01*
X140972297Y66721308D01*
X140995828Y66795273D01*
X141003166Y66810011D01*
X141003170Y66810015D01*
X141092387Y66989186D01*
X141147161Y67181698D01*
X141165629Y67380998D01*
X141147161Y67580298D01*
X141092387Y67772810D01*
X141003170Y67951981D01*
X140882551Y68111706D01*
X140734636Y68246549D01*
X140564462Y68351916D01*
X140564460Y68351917D01*
X140497609Y68377815D01*
X140377824Y68424220D01*
X140246660Y68448739D01*
X140181080Y68460998D01*
X140181079Y68460998D01*
X139980925Y68460998D01*
X139980924Y68460998D01*
X139784183Y68424221D01*
X139597541Y68351916D01*
X139579187Y68340551D01*
X139492489Y68306965D01*
X139399513Y68306966D01*
X139312815Y68340553D01*
X139294463Y68351916D01*
X139227609Y68377815D01*
X139107824Y68424220D01*
X138976660Y68448739D01*
X138911080Y68460998D01*
X138911079Y68460998D01*
X138710925Y68460998D01*
X138710924Y68460998D01*
X138612552Y68442610D01*
X138514180Y68424220D01*
X138441876Y68396210D01*
X138327543Y68351917D01*
X138157368Y68246550D01*
X138157368Y68246549D01*
X138009453Y68111706D01*
X137888834Y67951981D01*
X137829546Y67832915D01*
X137799617Y67772810D01*
X137744842Y67580299D01*
X137726375Y67380998D01*
X137744842Y67181698D01*
X137765541Y67108951D01*
X137799617Y66989186D01*
X137888834Y66810015D01*
X137888836Y66810012D01*
X137896176Y66795272D01*
X137919706Y66721308D01*
X137919706Y66643691D01*
X137896176Y66569727D01*
X137799617Y66375813D01*
X137744842Y66183299D01*
X137726375Y65983998D01*
X129045504Y65983998D01*
X129045504Y72298340D01*
X129064762Y72395159D01*
X129119606Y72477238D01*
X132457763Y75815396D01*
X132510161Y75855602D01*
X132571180Y75880877D01*
X132636661Y75889498D01*
X138867930Y75889498D01*
X138962263Y75871254D01*
X139042990Y75819153D01*
X139098471Y75740709D01*
X139110552Y75713981D01*
X139243767Y75516884D01*
X139408368Y75345142D01*
X139599634Y75203682D01*
X139714786Y75145624D01*
X139812051Y75096584D01*
X140039513Y75026925D01*
X140275476Y74996709D01*
X140275476Y74996710D01*
X140275477Y74996709D01*
X140284106Y74997076D01*
X140513151Y75006805D01*
X140745701Y75056923D01*
X140966437Y75145622D01*
X141169007Y75270349D01*
X141347584Y75427517D01*
X141497031Y75612604D01*
X141613048Y75820285D01*
X141692299Y76044585D01*
X141732502Y76279053D01*
X141732502Y77181749D01*
X141734551Y77213884D01*
X141736291Y77227473D01*
X141732730Y77311303D01*
X141732502Y77322041D01*
X141732502Y78235362D01*
X141732502Y78235368D01*
X141717381Y78413031D01*
X141657438Y78643244D01*
X141559451Y78860016D01*
X141426238Y79057110D01*
X141426236Y79057113D01*
X141261635Y79228855D01*
X141070369Y79370315D01*
X140857952Y79477413D01*
X140630492Y79547071D01*
X140394526Y79577288D01*
X140174114Y79567925D01*
X140156853Y79567191D01*
X140001819Y79533779D01*
X139924302Y79517073D01*
X139703564Y79428373D01*
X139500998Y79303649D01*
X139322417Y79146477D01*
X139172974Y78961395D01*
X139090698Y78814112D01*
X139034272Y78745232D01*
X138957477Y78700167D01*
X138869825Y78684498D01*
X132005590Y78684498D01*
X131989488Y78685011D01*
X131923230Y78689237D01*
X131822393Y78678493D01*
X131817047Y78677981D01*
X131712958Y78669122D01*
X131689589Y78664858D01*
X131589129Y78636410D01*
X131583948Y78635002D01*
X131482834Y78608674D01*
X131460518Y78600521D01*
X131366263Y78555483D01*
X131361418Y78553231D01*
X131335360Y78541451D01*
X131266226Y78510201D01*
X131245622Y78498403D01*
X131160318Y78438072D01*
X131155910Y78435025D01*
X131069381Y78376539D01*
X131051064Y78361425D01*
X130977211Y78287573D01*
X130973379Y78283821D01*
X130897952Y78211528D01*
X130877958Y78188320D01*
X126696996Y74007358D01*
X126685252Y73996338D01*
X126635418Y73952478D01*
X126571731Y73873602D01*
X126568314Y73869460D01*
X126500955Y73789568D01*
X126487456Y73770044D01*
X126485976Y73767397D01*
X126485975Y73767394D01*
X126436537Y73678896D01*
X126433871Y73674241D01*
X126380973Y73584097D01*
X126370966Y73562569D01*
X126336173Y73464096D01*
X126334332Y73459056D01*
X126297444Y73361310D01*
X126291216Y73338388D01*
X126273561Y73235426D01*
X126272598Y73230147D01*
X126252767Y73127607D01*
X126250504Y73103983D01*
X126250504Y72999532D01*
X126250447Y72994162D01*
X126248229Y72889708D01*
X126250504Y72859151D01*
X126250504Y64311247D01*
X126248455Y64279112D01*
X126246714Y64265524D01*
X126250276Y64181693D01*
X126250504Y64170955D01*
X126250504Y62681498D01*
X126231246Y62584679D01*
X126176402Y62502600D01*
X126094323Y62447756D01*
X125997504Y62428498D01*
X117908576Y62428498D01*
X117892477Y62429011D01*
X117826233Y62433235D01*
X117826232Y62433235D01*
X117810591Y62431569D01*
X117725341Y62422488D01*
X117720002Y62421977D01*
X117615946Y62413120D01*
X117592603Y62408862D01*
X117492132Y62380411D01*
X117486955Y62379005D01*
X117385836Y62352675D01*
X117363531Y62344526D01*
X117269336Y62299517D01*
X117264472Y62297256D01*
X117169224Y62254201D01*
X117148629Y62242407D01*
X117063343Y62182088D01*
X117058954Y62179054D01*
X116974890Y62122234D01*
X116974888Y62122233D01*
X116972377Y62120535D01*
X116954070Y62105429D01*
X116880235Y62031596D01*
X116876403Y62027844D01*
X116800951Y61955529D01*
X116780952Y61932313D01*
X111316994Y56468356D01*
X111305250Y56457336D01*
X111255416Y56413476D01*
X111191729Y56334600D01*
X111188312Y56330458D01*
X111120953Y56250566D01*
X111107454Y56231042D01*
X111105974Y56228395D01*
X111105973Y56228392D01*
X111058199Y56142873D01*
X111056535Y56139894D01*
X111053869Y56135239D01*
X111000971Y56045095D01*
X110990964Y56023567D01*
X110956171Y55925094D01*
X110954330Y55920054D01*
X110917442Y55822308D01*
X110911214Y55799386D01*
X110893559Y55696424D01*
X110892596Y55691145D01*
X110872765Y55588605D01*
X110870502Y55564981D01*
X110870502Y55460530D01*
X110870445Y55455160D01*
X110868227Y55350706D01*
X110870502Y55320149D01*
X110870502Y52697658D01*
X110861881Y52632177D01*
X110836606Y52571158D01*
X110796400Y52518760D01*
X109411994Y51134356D01*
X109400250Y51123336D01*
X109350416Y51079476D01*
X109286729Y51000600D01*
X109283312Y50996458D01*
X109215953Y50916566D01*
X109202454Y50897042D01*
X109200974Y50894395D01*
X109200973Y50894392D01*
X109151535Y50805894D01*
X109148869Y50801239D01*
X109095971Y50711095D01*
X109085964Y50689567D01*
X109075239Y50659211D01*
X109038494Y50590904D01*
X108982782Y50536939D01*
X108913339Y50502388D01*
X108836692Y50490498D01*
X108379662Y50490498D01*
X108282843Y50509756D01*
X108200764Y50564600D01*
X107389604Y51375760D01*
X107334760Y51457839D01*
X107315502Y51554658D01*
X107315502Y53483362D01*
X107315502Y53483368D01*
X107300381Y53661031D01*
X107240438Y53891244D01*
X107142451Y54108016D01*
X107009238Y54305110D01*
X107009236Y54305113D01*
X106844635Y54476855D01*
X106653369Y54618315D01*
X106440952Y54725413D01*
X106213492Y54795071D01*
X105977526Y54825288D01*
X105757114Y54815925D01*
X105739853Y54815191D01*
X105600248Y54785104D01*
X105507302Y54765073D01*
X105286564Y54676373D01*
X105083998Y54551649D01*
X104905417Y54394477D01*
X104755974Y54209395D01*
X104639956Y54001713D01*
X104560704Y53777410D01*
X104520502Y53542943D01*
X104520502Y50923572D01*
X104519988Y50907473D01*
X104515765Y50841228D01*
X68707502Y50841228D01*
X68707502Y50905759D01*
X68726760Y51002578D01*
X68781604Y51084657D01*
X69072707Y51375760D01*
X69989870Y52292925D01*
X70055994Y52340500D01*
X70133812Y52364598D01*
X70215247Y52362717D01*
X70384925Y52330998D01*
X70585079Y52330998D01*
X70585080Y52330998D01*
X70608643Y52335403D01*
X70781824Y52367776D01*
X70968462Y52440080D01*
X71138636Y52545447D01*
X71286551Y52680290D01*
X71407170Y52840015D01*
X71496387Y53019186D01*
X71551161Y53211698D01*
X71569629Y53410998D01*
X71551161Y53610298D01*
X71496387Y53802810D01*
X71407170Y53981981D01*
X71286551Y54141706D01*
X71138636Y54276549D01*
X70968462Y54381916D01*
X70968460Y54381917D01*
X70889394Y54412547D01*
X70781824Y54454220D01*
X70629892Y54482621D01*
X70585080Y54490998D01*
X70585079Y54490998D01*
X70384925Y54490998D01*
X70384924Y54490998D01*
X70188183Y54454221D01*
X70188180Y54454221D01*
X70188180Y54454220D01*
X70115726Y54426151D01*
X70001537Y54381914D01*
X69931246Y54338392D01*
X69867297Y54310156D01*
X69816439Y54303062D01*
X69816563Y54301883D01*
X69786775Y54298753D01*
X69773577Y54297715D01*
X69710087Y54294388D01*
X69706618Y54293458D01*
X69667600Y54286227D01*
X69665814Y54286039D01*
X69664043Y54285853D01*
X69603576Y54266206D01*
X69590881Y54262446D01*
X69529478Y54245993D01*
X69526284Y54244365D01*
X69489626Y54229182D01*
X69488208Y54228721D01*
X69486212Y54228072D01*
X69431158Y54196286D01*
X69419520Y54189967D01*
X69362876Y54161106D01*
X69360091Y54158850D01*
X69327387Y54136373D01*
X69324285Y54134583D01*
X69277035Y54092039D01*
X69266990Y54083459D01*
X69253996Y54072935D01*
X69253989Y54072929D01*
X69242179Y54061120D01*
X69232589Y54052019D01*
X69185332Y54009468D01*
X69183229Y54006572D01*
X69157452Y53976393D01*
X67252607Y52071548D01*
X67222428Y52045771D01*
X67219532Y52043668D01*
X67176981Y51996411D01*
X67167880Y51986821D01*
X67156071Y51975011D01*
X67156066Y51975006D01*
X67156065Y51975004D01*
X67145541Y51962010D01*
X67136961Y51951965D01*
X67094417Y51904715D01*
X67092627Y51901613D01*
X67070150Y51868909D01*
X67067894Y51866124D01*
X67039033Y51809480D01*
X67032714Y51797842D01*
X67000928Y51742788D01*
X66999821Y51739378D01*
X66984635Y51702716D01*
X66983007Y51699522D01*
X66966554Y51638119D01*
X66962794Y51625424D01*
X66943147Y51564957D01*
X66942774Y51561403D01*
X66935542Y51522382D01*
X66934612Y51518913D01*
X66931285Y51455423D01*
X66930247Y51442225D01*
X66928502Y51425618D01*
X66928502Y51408917D01*
X66928155Y51395676D01*
X66924827Y51332192D01*
X66925387Y51328661D01*
X66928502Y51289081D01*
X66928502Y32802237D01*
X66919881Y32736756D01*
X66894606Y32675737D01*
X66854400Y32623339D01*
X62089553Y27858494D01*
X62028629Y27813581D01*
X61957146Y27788701D01*
X61933180Y27784220D01*
X61889879Y27767445D01*
X61746541Y27711916D01*
X61576368Y27606550D01*
X61576368Y27606549D01*
X61428453Y27471706D01*
X61307834Y27311981D01*
X61265664Y27227293D01*
X61218617Y27132810D01*
X61163842Y26940299D01*
X61145375Y26740998D01*
X27559502Y26740998D01*
X27559502Y28633000D01*
X28252375Y28633000D01*
X28270842Y28433696D01*
X28293077Y28355551D01*
X28325617Y28241184D01*
X28414834Y28062013D01*
X28535453Y27902288D01*
X28683368Y27767445D01*
X28853542Y27662078D01*
X29040180Y27589774D01*
X29210154Y27558001D01*
X29236924Y27552996D01*
X29236925Y27552996D01*
X29437079Y27552996D01*
X29437080Y27552996D01*
X29460643Y27557401D01*
X29633824Y27589774D01*
X29820462Y27662078D01*
X29990636Y27767445D01*
X30138551Y27902288D01*
X30259170Y28062013D01*
X30348387Y28241184D01*
X30403161Y28433696D01*
X30421629Y28632996D01*
X30421629Y28633000D01*
X33332375Y28633000D01*
X33350842Y28433700D01*
X33373078Y28355551D01*
X33405617Y28241188D01*
X33494834Y28062017D01*
X33615453Y27902292D01*
X33763368Y27767449D01*
X33933542Y27662082D01*
X34120180Y27589778D01*
X34290154Y27558005D01*
X34316924Y27553000D01*
X34316925Y27553000D01*
X34517079Y27553000D01*
X34517080Y27553000D01*
X34540643Y27557405D01*
X34713824Y27589778D01*
X34900462Y27662082D01*
X35070636Y27767449D01*
X35218551Y27902292D01*
X35339170Y28062017D01*
X35428387Y28241188D01*
X35483161Y28433700D01*
X35501629Y28633000D01*
X35483161Y28832300D01*
X35428387Y29024812D01*
X35339170Y29203983D01*
X35218551Y29363708D01*
X35070636Y29498551D01*
X34900462Y29603918D01*
X34900460Y29603919D01*
X34858429Y29620202D01*
X34713824Y29676222D01*
X34582660Y29700741D01*
X34517080Y29713000D01*
X34517079Y29713000D01*
X34316925Y29713000D01*
X34316924Y29713000D01*
X34218552Y29694611D01*
X34120180Y29676222D01*
X34047877Y29648212D01*
X33933543Y29603919D01*
X33763368Y29498551D01*
X33615451Y29363706D01*
X33535040Y29257225D01*
X33494834Y29203983D01*
X33405617Y29024813D01*
X33405617Y29024812D01*
X33350842Y28832301D01*
X33332375Y28633000D01*
X30421629Y28633000D01*
X30403161Y28832296D01*
X30348387Y29024808D01*
X30259170Y29203979D01*
X30138551Y29363704D01*
X29990636Y29498547D01*
X29820462Y29603914D01*
X29820460Y29603915D01*
X29778429Y29620198D01*
X29633824Y29676218D01*
X29502660Y29700737D01*
X29437080Y29712996D01*
X29437079Y29712996D01*
X29236925Y29712996D01*
X29236924Y29712996D01*
X29138552Y29694608D01*
X29040180Y29676218D01*
X28967877Y29648208D01*
X28853543Y29603915D01*
X28780110Y29558447D01*
X28683368Y29498547D01*
X28535458Y29363708D01*
X28535451Y29363702D01*
X28455040Y29257221D01*
X28414834Y29203979D01*
X28325619Y29024812D01*
X28325617Y29024808D01*
X28270842Y28832297D01*
X28252375Y28633000D01*
X27559502Y28633000D01*
X27559502Y35630999D01*
X38603377Y35630999D01*
X38621844Y35431698D01*
X38663221Y35286276D01*
X38676619Y35239186D01*
X38765836Y35060015D01*
X38886455Y34900290D01*
X39034370Y34765447D01*
X39204544Y34660080D01*
X39391182Y34587776D01*
X39561156Y34556003D01*
X39587926Y34550998D01*
X39587927Y34550998D01*
X39788081Y34550998D01*
X39788082Y34550998D01*
X39811645Y34555403D01*
X39984826Y34587776D01*
X40171464Y34660080D01*
X40341638Y34765447D01*
X40489553Y34900290D01*
X40610172Y35060015D01*
X40699389Y35239186D01*
X40754163Y35431698D01*
X40772631Y35630998D01*
X40754163Y35830298D01*
X40749852Y35845448D01*
X40726198Y35928585D01*
X40699389Y36022810D01*
X40610172Y36201981D01*
X40489553Y36361706D01*
X40341638Y36496549D01*
X40171464Y36601916D01*
X40171462Y36601917D01*
X40129432Y36618200D01*
X39984826Y36674220D01*
X39853662Y36698739D01*
X39788082Y36710998D01*
X39788081Y36710998D01*
X39587927Y36710998D01*
X39587926Y36710998D01*
X39489554Y36692610D01*
X39391182Y36674220D01*
X39319621Y36646497D01*
X39204545Y36601917D01*
X39034370Y36496549D01*
X38886453Y36361704D01*
X38868778Y36338298D01*
X38765836Y36201981D01*
X38721422Y36112786D01*
X38676619Y36022810D01*
X38621844Y35830299D01*
X38603377Y35630999D01*
X27559502Y35630999D01*
X27559502Y36681759D01*
X27578760Y36778578D01*
X27633604Y36860657D01*
X27882864Y37109917D01*
X28696393Y37923448D01*
X28726576Y37949225D01*
X28729470Y37951327D01*
X28772030Y37998596D01*
X28781111Y38008165D01*
X28792937Y38019990D01*
X28803456Y38032982D01*
X28812034Y38043025D01*
X28854585Y38090281D01*
X28856370Y38093374D01*
X28878863Y38126102D01*
X28881107Y38128871D01*
X28909981Y38185543D01*
X28916267Y38197121D01*
X28948075Y38252211D01*
X28949175Y38255596D01*
X28964377Y38292297D01*
X28965992Y38295467D01*
X28965992Y38295468D01*
X28965994Y38295471D01*
X28982454Y38356905D01*
X28986197Y38369544D01*
X29005855Y38430040D01*
X29006228Y38433597D01*
X29013461Y38472626D01*
X29014388Y38476081D01*
X29017717Y38539620D01*
X29018750Y38552735D01*
X29020500Y38569376D01*
X29020500Y38586083D01*
X29020847Y38599325D01*
X29024174Y38662804D01*
X29023615Y38666333D01*
X29020500Y38705913D01*
X29020500Y50108998D01*
X34475375Y50108998D01*
X34493842Y49909698D01*
X34536484Y49759829D01*
X34548617Y49717186D01*
X34637834Y49538015D01*
X34758453Y49378290D01*
X34906368Y49243447D01*
X35076542Y49138080D01*
X35263180Y49065776D01*
X35433154Y49034003D01*
X35459924Y49028998D01*
X35459925Y49028998D01*
X35660079Y49028998D01*
X35660080Y49028998D01*
X35684018Y49033473D01*
X35856824Y49065776D01*
X36043462Y49138080D01*
X36213636Y49243447D01*
X36361551Y49378290D01*
X36482170Y49538015D01*
X36571387Y49717186D01*
X36626161Y49909698D01*
X36644629Y50108998D01*
X36626161Y50308298D01*
X36571387Y50500810D01*
X36482170Y50679981D01*
X36361551Y50839706D01*
X36213636Y50974549D01*
X36043462Y51079916D01*
X36043460Y51079917D01*
X36001429Y51096200D01*
X35903863Y51133997D01*
X58549373Y51133997D01*
X58567840Y50934696D01*
X58610482Y50784827D01*
X58622615Y50742184D01*
X58711832Y50563013D01*
X58832451Y50403288D01*
X58980366Y50268445D01*
X59150540Y50163078D01*
X59337178Y50090774D01*
X59507152Y50059001D01*
X59533922Y50053996D01*
X59533923Y50053996D01*
X59734077Y50053996D01*
X59734078Y50053996D01*
X59757641Y50058401D01*
X59930822Y50090774D01*
X60117460Y50163078D01*
X60287634Y50268445D01*
X60435549Y50403288D01*
X60556168Y50563013D01*
X60645385Y50742184D01*
X60700159Y50934696D01*
X60718627Y51133996D01*
X60701226Y51321784D01*
X60700159Y51333297D01*
X60673891Y51425618D01*
X60645385Y51525808D01*
X60556168Y51704979D01*
X60435549Y51864704D01*
X60287634Y51999547D01*
X60117460Y52104914D01*
X60117458Y52104915D01*
X60035031Y52136847D01*
X59930822Y52177218D01*
X59799658Y52201737D01*
X59734078Y52213996D01*
X59734077Y52213996D01*
X59533923Y52213996D01*
X59533922Y52213996D01*
X59435550Y52195607D01*
X59337178Y52177218D01*
X59264875Y52149208D01*
X59150541Y52104915D01*
X59051624Y52043668D01*
X58980366Y51999547D01*
X58836529Y51868421D01*
X58832449Y51864702D01*
X58786291Y51803579D01*
X58711832Y51704979D01*
X58640339Y51561403D01*
X58622615Y51525808D01*
X58567840Y51333297D01*
X58549373Y51133997D01*
X35903863Y51133997D01*
X35856824Y51152220D01*
X35725660Y51176739D01*
X35660080Y51188998D01*
X35660079Y51188998D01*
X35459925Y51188998D01*
X35459924Y51188998D01*
X35361552Y51170610D01*
X35263180Y51152220D01*
X35202360Y51128658D01*
X35076543Y51079917D01*
X34948442Y51000600D01*
X34906368Y50974549D01*
X34818441Y50894392D01*
X34758451Y50839704D01*
X34729404Y50801239D01*
X34637834Y50679981D01*
X34600337Y50604677D01*
X34548617Y50500810D01*
X34493842Y50308299D01*
X34475375Y50108998D01*
X29020500Y50108998D01*
X29020500Y53546996D01*
X55247373Y53546996D01*
X55265840Y53347696D01*
X55304535Y53211698D01*
X55320615Y53155184D01*
X55409832Y52976013D01*
X55530451Y52816288D01*
X55678366Y52681445D01*
X55848540Y52576078D01*
X56035178Y52503774D01*
X56205152Y52472001D01*
X56231922Y52466996D01*
X56231923Y52466996D01*
X56432077Y52466996D01*
X56432078Y52466996D01*
X56455641Y52471401D01*
X56628822Y52503774D01*
X56815460Y52576078D01*
X56985634Y52681445D01*
X57133549Y52816288D01*
X57254168Y52976013D01*
X57343385Y53155184D01*
X57398159Y53347696D01*
X57416627Y53546996D01*
X57398159Y53746296D01*
X57343385Y53938808D01*
X57254168Y54117979D01*
X57133549Y54277704D01*
X56985634Y54412547D01*
X56985631Y54412549D01*
X56968308Y54428341D01*
X56968314Y54428349D01*
X56923581Y54467884D01*
X56882070Y54542410D01*
X56867688Y54626496D01*
X56882070Y54710582D01*
X56923581Y54785108D01*
X56968314Y54824644D01*
X56968308Y54824651D01*
X56985630Y54840443D01*
X56985634Y54840445D01*
X57133549Y54975288D01*
X57254168Y55135013D01*
X57343385Y55314184D01*
X57398159Y55506696D01*
X57416627Y55705996D01*
X57398159Y55905296D01*
X57343385Y56097808D01*
X57254168Y56276979D01*
X57133549Y56436704D01*
X56985634Y56571547D01*
X56815460Y56676914D01*
X56815458Y56676915D01*
X56773427Y56693198D01*
X56628822Y56749218D01*
X56497658Y56773737D01*
X56432078Y56785996D01*
X56432077Y56785996D01*
X56231923Y56785996D01*
X56231922Y56785996D01*
X56133550Y56767608D01*
X56035178Y56749218D01*
X55962874Y56721208D01*
X55848541Y56676915D01*
X55790937Y56641248D01*
X55678366Y56571547D01*
X55565172Y56468356D01*
X55530449Y56436702D01*
X55453345Y56334600D01*
X55409832Y56276979D01*
X55340389Y56137519D01*
X55320615Y56097808D01*
X55265840Y55905297D01*
X55247373Y55705996D01*
X55265840Y55506696D01*
X55308482Y55356827D01*
X55320615Y55314184D01*
X55409832Y55135013D01*
X55530451Y54975288D01*
X55678366Y54840445D01*
X55678368Y54840444D01*
X55695692Y54824651D01*
X55695685Y54824645D01*
X55740421Y54785104D01*
X55781930Y54710580D01*
X55796311Y54626496D01*
X55781930Y54542412D01*
X55740421Y54467888D01*
X55695685Y54428348D01*
X55695692Y54428341D01*
X55678368Y54412549D01*
X55678366Y54412547D01*
X55541338Y54287629D01*
X55530449Y54277702D01*
X55489341Y54223266D01*
X55409832Y54117979D01*
X55321087Y53939756D01*
X55320615Y53938808D01*
X55265840Y53746297D01*
X55247373Y53546996D01*
X29020500Y53546996D01*
X29020500Y58551998D01*
X58549373Y58551998D01*
X58567840Y58352698D01*
X58592095Y58267453D01*
X58622615Y58160186D01*
X58711832Y57981015D01*
X58832451Y57821290D01*
X58980366Y57686447D01*
X59150540Y57581080D01*
X59337178Y57508776D01*
X59500617Y57478224D01*
X59533922Y57471998D01*
X59533923Y57471998D01*
X59734077Y57471998D01*
X59734078Y57471998D01*
X59767383Y57478224D01*
X59930822Y57508776D01*
X60117460Y57581080D01*
X60287634Y57686447D01*
X60435549Y57821290D01*
X60556168Y57981015D01*
X60645385Y58160186D01*
X60700159Y58352698D01*
X60718627Y58551998D01*
X60700159Y58751298D01*
X60700158Y58751300D01*
X60685165Y58803996D01*
X60645385Y58943810D01*
X60556168Y59122981D01*
X60435549Y59282706D01*
X60287634Y59417549D01*
X60117460Y59522916D01*
X60117458Y59522917D01*
X60023294Y59559396D01*
X59930822Y59595220D01*
X59772171Y59624877D01*
X59734078Y59631998D01*
X59734077Y59631998D01*
X59533923Y59631998D01*
X59533922Y59631998D01*
X59435550Y59613610D01*
X59337178Y59595220D01*
X59285093Y59575042D01*
X59150541Y59522917D01*
X59012265Y59437300D01*
X58980366Y59417549D01*
X58891364Y59336412D01*
X58832449Y59282704D01*
X58796636Y59235280D01*
X58711832Y59122981D01*
X58679220Y59057487D01*
X58622615Y58943810D01*
X58567840Y58751299D01*
X58549373Y58551998D01*
X29020500Y58551998D01*
X29020500Y59887999D01*
X29649375Y59887999D01*
X29667842Y59688698D01*
X29700181Y59575041D01*
X29722617Y59496186D01*
X29811834Y59317015D01*
X29932453Y59157290D01*
X30080368Y59022447D01*
X30250542Y58917080D01*
X30437180Y58844776D01*
X30607154Y58813003D01*
X30633924Y58807998D01*
X30633925Y58807998D01*
X30834079Y58807998D01*
X30834080Y58807998D01*
X30857643Y58812403D01*
X31030824Y58844776D01*
X31217462Y58917080D01*
X31387636Y59022447D01*
X31535551Y59157290D01*
X31656170Y59317015D01*
X31745387Y59496186D01*
X31800161Y59688698D01*
X31818629Y59887998D01*
X31800161Y60087298D01*
X31745387Y60279810D01*
X31656170Y60458981D01*
X31535551Y60618706D01*
X31387636Y60753549D01*
X31217462Y60858916D01*
X31217460Y60858917D01*
X31147919Y60885857D01*
X31030824Y60931220D01*
X30888184Y60957884D01*
X30834080Y60967998D01*
X30834079Y60967998D01*
X30633925Y60967998D01*
X30633924Y60967998D01*
X30535552Y60949610D01*
X30437180Y60931220D01*
X30364877Y60903210D01*
X30250543Y60858917D01*
X30140818Y60790978D01*
X30080368Y60753549D01*
X29932453Y60618706D01*
X29811834Y60458981D01*
X29722616Y60279810D01*
X29722617Y60279810D01*
X29667842Y60087299D01*
X29649375Y59887999D01*
X29020500Y59887999D01*
X29020500Y65729998D01*
X37904374Y65729998D01*
X37922841Y65530697D01*
X37954295Y65420150D01*
X37977616Y65338185D01*
X38066833Y65159014D01*
X38187452Y64999289D01*
X38335367Y64864446D01*
X38505541Y64759079D01*
X38692179Y64686775D01*
X38862153Y64655002D01*
X38888923Y64649997D01*
X38888924Y64649997D01*
X39089078Y64649997D01*
X39089079Y64649997D01*
X39115848Y64655002D01*
X39285823Y64686775D01*
X39405609Y64733181D01*
X39497001Y64750265D01*
X39588394Y64733181D01*
X39708180Y64686775D01*
X39859690Y64658453D01*
X39904924Y64649997D01*
X39904925Y64649997D01*
X40105079Y64649997D01*
X40105080Y64649997D01*
X40128643Y64654402D01*
X40301824Y64686775D01*
X40488462Y64759079D01*
X40658636Y64864446D01*
X40806551Y64999289D01*
X40927170Y65159014D01*
X41016387Y65338185D01*
X41071161Y65530697D01*
X41089629Y65729997D01*
X41071161Y65929297D01*
X41016387Y66121809D01*
X40927170Y66300980D01*
X40806551Y66460705D01*
X40658636Y66595548D01*
X40488462Y66700915D01*
X40488460Y66700916D01*
X40446429Y66717199D01*
X40301824Y66773219D01*
X40170660Y66797738D01*
X40105080Y66809997D01*
X40105079Y66809997D01*
X39904925Y66809997D01*
X39904924Y66809997D01*
X39708180Y66773219D01*
X39588394Y66726814D01*
X39497001Y66709730D01*
X39405608Y66726814D01*
X39285823Y66773219D01*
X39154659Y66797738D01*
X39089079Y66809997D01*
X39089078Y66809997D01*
X38888924Y66809997D01*
X38888923Y66809997D01*
X38810152Y66795272D01*
X38692179Y66773219D01*
X38619876Y66745209D01*
X38505542Y66700916D01*
X38335367Y66595548D01*
X38187450Y66460703D01*
X38123344Y66375813D01*
X38066833Y66300980D01*
X38008235Y66183299D01*
X37977616Y66121809D01*
X37922841Y65929298D01*
X37904374Y65729998D01*
X29020500Y65729998D01*
X29020500Y67380998D01*
X75496375Y67380998D01*
X75514842Y67181698D01*
X75535541Y67108951D01*
X75569617Y66989186D01*
X75658834Y66810015D01*
X75779453Y66650290D01*
X75927368Y66515447D01*
X76097542Y66410080D01*
X76284180Y66337776D01*
X76454154Y66306003D01*
X76480924Y66300998D01*
X76480925Y66300998D01*
X76681079Y66300998D01*
X76681080Y66300998D01*
X76707849Y66306003D01*
X76877824Y66337776D01*
X76997610Y66384182D01*
X77089002Y66401266D01*
X77180393Y66384182D01*
X77300180Y66337776D01*
X77465938Y66306791D01*
X77496924Y66300998D01*
X77496925Y66300998D01*
X77697079Y66300998D01*
X77697080Y66300998D01*
X77720643Y66305403D01*
X77893824Y66337776D01*
X78080462Y66410080D01*
X78250636Y66515447D01*
X78398551Y66650290D01*
X78519170Y66810015D01*
X78608387Y66989186D01*
X78663161Y67181698D01*
X78681629Y67380998D01*
X78663161Y67580298D01*
X78608387Y67772810D01*
X78519170Y67951981D01*
X78398551Y68111706D01*
X78250636Y68246549D01*
X78080462Y68351916D01*
X78080460Y68351917D01*
X78013609Y68377815D01*
X77893824Y68424220D01*
X77762660Y68448739D01*
X77697080Y68460998D01*
X77697079Y68460998D01*
X77496925Y68460998D01*
X77496924Y68460998D01*
X77300180Y68424220D01*
X77180394Y68377815D01*
X77089000Y68360731D01*
X76997610Y68377815D01*
X76877824Y68424220D01*
X76877821Y68424221D01*
X76877820Y68424221D01*
X76681080Y68460998D01*
X76681079Y68460998D01*
X76480925Y68460998D01*
X76480924Y68460998D01*
X76382552Y68442610D01*
X76284180Y68424220D01*
X76211876Y68396210D01*
X76097543Y68351917D01*
X75927368Y68246550D01*
X75927368Y68246549D01*
X75779453Y68111706D01*
X75658834Y67951981D01*
X75599546Y67832915D01*
X75569617Y67772810D01*
X75514842Y67580299D01*
X75496375Y67380998D01*
X29020500Y67380998D01*
X29020500Y68589904D01*
X29027220Y68647829D01*
X29047024Y68702676D01*
X29117469Y68844149D01*
X29142385Y68894186D01*
X29197159Y69086698D01*
X29215627Y69285998D01*
X29197159Y69485298D01*
X29142385Y69677810D01*
X29053168Y69856981D01*
X28932549Y70016706D01*
X28784634Y70151549D01*
X28614460Y70256916D01*
X28614458Y70256917D01*
X28561631Y70277382D01*
X28427822Y70329220D01*
X28296658Y70353739D01*
X28231078Y70365998D01*
X28231077Y70365998D01*
X28030923Y70365998D01*
X28030922Y70365998D01*
X27932550Y70347609D01*
X27834178Y70329220D01*
X27761875Y70301210D01*
X27647541Y70256917D01*
X27632006Y70247298D01*
X27477366Y70151549D01*
X27404365Y70084999D01*
X27329449Y70016704D01*
X27260365Y69925222D01*
X27208832Y69856981D01*
X27158747Y69756397D01*
X27119615Y69677810D01*
X27064840Y69485299D01*
X27046373Y69285999D01*
X27064840Y69086698D01*
X27119615Y68894185D01*
X27214976Y68702676D01*
X27234780Y68647829D01*
X27241500Y68589904D01*
X27241500Y39089235D01*
X27232879Y39023754D01*
X27207604Y38962735D01*
X27167398Y38910337D01*
X26104607Y37847548D01*
X26074428Y37821771D01*
X26071532Y37819668D01*
X26028981Y37772411D01*
X26019880Y37762821D01*
X26008071Y37751011D01*
X26008066Y37751006D01*
X26008065Y37751004D01*
X25997541Y37738010D01*
X25988961Y37727965D01*
X25946417Y37680715D01*
X25944627Y37677613D01*
X25922150Y37644909D01*
X25919894Y37642124D01*
X25891033Y37585480D01*
X25884714Y37573842D01*
X25852928Y37518788D01*
X25851821Y37515378D01*
X25836635Y37478716D01*
X25835007Y37475522D01*
X25818554Y37414119D01*
X25814794Y37401424D01*
X25795147Y37340957D01*
X25794774Y37337403D01*
X25787542Y37298382D01*
X25786612Y37294913D01*
X25783285Y37231423D01*
X25782247Y37218225D01*
X25780502Y37201618D01*
X25780502Y37184917D01*
X25780155Y37171676D01*
X25776827Y37108192D01*
X25777387Y37104661D01*
X25780502Y37065081D01*
X25780502Y9939915D01*
X25777387Y9900335D01*
X25776827Y9896805D01*
X508500Y9896805D01*
X508500Y14155000D01*
X4695500Y14155000D01*
X4715416Y14003717D01*
X4773806Y13862752D01*
X4866695Y13741696D01*
X4987751Y13648807D01*
X5128716Y13590417D01*
X5128718Y13590417D01*
X5128720Y13590416D01*
X5242020Y13575500D01*
X5317976Y13575500D01*
X5317980Y13575500D01*
X5431280Y13590416D01*
X5431282Y13590417D01*
X5431283Y13590417D01*
X5572248Y13648807D01*
X5572248Y13648808D01*
X5572250Y13648808D01*
X5693304Y13741696D01*
X5786192Y13862750D01*
X5788746Y13868916D01*
X5844583Y14003717D01*
X5844583Y14003718D01*
X5844584Y14003720D01*
X5864500Y14155000D01*
X5844584Y14306280D01*
X5844583Y14306282D01*
X5844583Y14306284D01*
X5786193Y14447249D01*
X5708119Y14548998D01*
X22804375Y14548998D01*
X22822842Y14349698D01*
X22865484Y14199829D01*
X22877617Y14157186D01*
X22966834Y13978015D01*
X23087453Y13818290D01*
X23235368Y13683447D01*
X23405542Y13578080D01*
X23592180Y13505776D01*
X23762154Y13474003D01*
X23788924Y13468998D01*
X23788925Y13468998D01*
X23989079Y13468998D01*
X23989080Y13468998D01*
X24012643Y13473403D01*
X24185824Y13505776D01*
X24372462Y13578080D01*
X24542636Y13683447D01*
X24690551Y13818290D01*
X24811170Y13978015D01*
X24900387Y14157186D01*
X24955161Y14349698D01*
X24973629Y14548998D01*
X24955161Y14748298D01*
X24900387Y14940810D01*
X24811170Y15119981D01*
X24690551Y15279706D01*
X24690548Y15279709D01*
X24686152Y15285530D01*
X24648165Y15357596D01*
X24635050Y15437997D01*
X24648166Y15518399D01*
X24686152Y15590464D01*
X24690548Y15596286D01*
X24690553Y15596290D01*
X24811172Y15756015D01*
X24900389Y15935186D01*
X24955163Y16127698D01*
X24973631Y16326998D01*
X24955163Y16526298D01*
X24900389Y16718810D01*
X24811172Y16897981D01*
X24690553Y17057706D01*
X24542638Y17192549D01*
X24372464Y17297916D01*
X24372462Y17297917D01*
X24330431Y17314200D01*
X24185826Y17370220D01*
X24038832Y17397698D01*
X23989082Y17406998D01*
X23989081Y17406998D01*
X23788927Y17406998D01*
X23788926Y17406998D01*
X23739176Y17397698D01*
X23592182Y17370220D01*
X23519878Y17342210D01*
X23405545Y17297917D01*
X23235370Y17192550D01*
X23235370Y17192549D01*
X23087455Y17057706D01*
X22966836Y16897981D01*
X22894684Y16753080D01*
X22877619Y16718810D01*
X22822844Y16526299D01*
X22804377Y16326998D01*
X22822844Y16127698D01*
X22865486Y15977829D01*
X22877619Y15935186D01*
X22966836Y15756015D01*
X23087455Y15596290D01*
X23087457Y15596289D01*
X23091853Y15590467D01*
X23129839Y15518402D01*
X23142955Y15438000D01*
X23129840Y15357599D01*
X23091854Y15285534D01*
X22966834Y15119982D01*
X22877617Y14940810D01*
X22822842Y14748299D01*
X22804375Y14548998D01*
X5708119Y14548998D01*
X5693304Y14568305D01*
X5572248Y14661194D01*
X5431283Y14719584D01*
X5382722Y14725977D01*
X5317980Y14734500D01*
X5242020Y14734500D01*
X5185370Y14727043D01*
X5128716Y14719584D01*
X4987751Y14661194D01*
X4866695Y14568305D01*
X4773806Y14447249D01*
X4715416Y14306284D01*
X4695500Y14155000D01*
X508500Y14155000D01*
X508500Y21660998D01*
X22804375Y21660998D01*
X22822842Y21461698D01*
X22861598Y21325488D01*
X22877617Y21269186D01*
X22966834Y21090015D01*
X23087453Y20930290D01*
X23235368Y20795447D01*
X23405542Y20690080D01*
X23592180Y20617776D01*
X23762154Y20586003D01*
X23788924Y20580998D01*
X23788925Y20580998D01*
X23989079Y20580998D01*
X23989080Y20580998D01*
X24012643Y20585403D01*
X24185824Y20617776D01*
X24372462Y20690080D01*
X24542636Y20795447D01*
X24690551Y20930290D01*
X24811170Y21090015D01*
X24900387Y21269186D01*
X24955161Y21461698D01*
X24973629Y21660998D01*
X24955161Y21860298D01*
X24900387Y22052810D01*
X24811170Y22231981D01*
X24764195Y22294186D01*
X24686153Y22397531D01*
X24648166Y22469596D01*
X24635051Y22549998D01*
X24648167Y22630399D01*
X24686153Y22702464D01*
X24690549Y22708286D01*
X24690553Y22708289D01*
X24811172Y22868014D01*
X24900389Y23047185D01*
X24955163Y23239697D01*
X24973631Y23438997D01*
X24955163Y23638297D01*
X24900389Y23830809D01*
X24811172Y24009980D01*
X24690553Y24169705D01*
X24542638Y24304548D01*
X24372464Y24409915D01*
X24372462Y24409916D01*
X24330431Y24426199D01*
X24185826Y24482219D01*
X24054662Y24506738D01*
X23989082Y24518997D01*
X23989081Y24518997D01*
X23788927Y24518997D01*
X23788926Y24518997D01*
X23690554Y24500608D01*
X23592182Y24482219D01*
X23519879Y24454209D01*
X23405545Y24409916D01*
X23279414Y24331819D01*
X23235370Y24304548D01*
X23087455Y24169705D01*
X22966836Y24009980D01*
X22949030Y23974220D01*
X22877619Y23830809D01*
X22822844Y23638298D01*
X22804377Y23438998D01*
X22822844Y23239697D01*
X22877619Y23047186D01*
X22966836Y22868014D01*
X23091853Y22702465D01*
X23129839Y22630400D01*
X23142954Y22549999D01*
X23129839Y22469598D01*
X23091853Y22397533D01*
X22966834Y22231982D01*
X22877617Y22052810D01*
X22822842Y21860299D01*
X22804375Y21660998D01*
X508500Y21660998D01*
X508500Y22422748D01*
X6088278Y22422748D01*
X6218751Y22353008D01*
X6412660Y22294186D01*
X6614322Y22274324D01*
X6815983Y22294186D01*
X7009893Y22353008D01*
X7140364Y22422748D01*
X6614322Y22948790D01*
X6088278Y22422748D01*
X508500Y22422748D01*
X508500Y23308001D01*
X5580645Y23308001D01*
X5600507Y23106337D01*
X5659327Y22912432D01*
X5729067Y22781958D01*
X5729068Y22781957D01*
X6255112Y23308000D01*
X6973532Y23308000D01*
X7499574Y22781958D01*
X7569314Y22912429D01*
X7628136Y23106339D01*
X7647998Y23308000D01*
X7628136Y23509662D01*
X7569314Y23703571D01*
X7499574Y23834044D01*
X6973532Y23308000D01*
X6255112Y23308000D01*
X5729068Y23834044D01*
X5659327Y23703569D01*
X5600507Y23509664D01*
X5580645Y23308001D01*
X508500Y23308001D01*
X508500Y25808000D01*
X5021412Y25808000D01*
X5041022Y25558813D01*
X5099374Y25315767D01*
X5195029Y25084833D01*
X5325630Y24871712D01*
X5325631Y24871711D01*
X5487965Y24681643D01*
X5678033Y24519309D01*
X5856546Y24409916D01*
X5891156Y24388707D01*
X5921765Y24376028D01*
X5992537Y24331819D01*
X6045078Y24266993D01*
X6062614Y24218918D01*
X6614321Y23667211D01*
X7166028Y24218918D01*
X7183562Y24266988D01*
X7236103Y24331817D01*
X7306876Y24376027D01*
X7312754Y24378463D01*
X7337488Y24388707D01*
X7550611Y24519309D01*
X7740679Y24681643D01*
X7903013Y24871711D01*
X8033615Y25084834D01*
X8129269Y25315764D01*
X8187621Y25558814D01*
X8207232Y25808000D01*
X8187621Y26057186D01*
X8129269Y26300236D01*
X8033615Y26531166D01*
X7903013Y26744289D01*
X7740679Y26934357D01*
X7550611Y27096691D01*
X7491670Y27132810D01*
X7337489Y27227293D01*
X7133030Y27311982D01*
X7106558Y27322947D01*
X7106556Y27322948D01*
X7106555Y27322948D01*
X6863509Y27381300D01*
X6614322Y27400910D01*
X6365134Y27381300D01*
X6122088Y27322948D01*
X5891154Y27227293D01*
X5678032Y27096691D01*
X5487965Y26934357D01*
X5325631Y26744290D01*
X5195029Y26531168D01*
X5099374Y26300234D01*
X5041022Y26057188D01*
X5021412Y25808000D01*
X508500Y25808000D01*
X508500Y27490000D01*
X18219375Y27490000D01*
X18237842Y27290700D01*
X18280484Y27140831D01*
X18292617Y27098188D01*
X18381834Y26919017D01*
X18502453Y26759292D01*
X18650368Y26624449D01*
X18820542Y26519082D01*
X19007180Y26446778D01*
X19177154Y26415005D01*
X19203924Y26410000D01*
X19203925Y26410000D01*
X19404079Y26410000D01*
X19404080Y26410000D01*
X19427643Y26414405D01*
X19600824Y26446778D01*
X19787462Y26519082D01*
X19957636Y26624449D01*
X20105551Y26759292D01*
X20226170Y26919017D01*
X20315387Y27098188D01*
X20370161Y27290700D01*
X20388629Y27490000D01*
X20370161Y27689300D01*
X20315387Y27881812D01*
X20226170Y28060983D01*
X20105551Y28220708D01*
X19957636Y28355551D01*
X19787462Y28460918D01*
X19787460Y28460919D01*
X19745429Y28477202D01*
X19600824Y28533222D01*
X19469660Y28557741D01*
X19404080Y28570000D01*
X19404079Y28570000D01*
X19203925Y28570000D01*
X19203924Y28570000D01*
X19105552Y28551611D01*
X19007180Y28533222D01*
X18934877Y28505212D01*
X18820543Y28460919D01*
X18650368Y28355552D01*
X18650368Y28355551D01*
X18502453Y28220708D01*
X18381834Y28060983D01*
X18302816Y27902295D01*
X18292617Y27881812D01*
X18237842Y27689301D01*
X18219375Y27490000D01*
X508500Y27490000D01*
X508500Y37714748D01*
X6088278Y37714748D01*
X6218751Y37645008D01*
X6412660Y37586186D01*
X6614322Y37566324D01*
X6815983Y37586186D01*
X7009893Y37645008D01*
X7140364Y37714748D01*
X6614322Y38240790D01*
X6088278Y37714748D01*
X508500Y37714748D01*
X508500Y38600001D01*
X5580645Y38600001D01*
X5600507Y38398337D01*
X5659327Y38204432D01*
X5729067Y38073958D01*
X5729068Y38073957D01*
X6255112Y38600000D01*
X6973532Y38600000D01*
X7499574Y38073958D01*
X7569314Y38204429D01*
X7628136Y38398339D01*
X7647998Y38600000D01*
X7628136Y38801662D01*
X7569314Y38995571D01*
X7499574Y39126044D01*
X6973532Y38600000D01*
X6255112Y38600000D01*
X5729068Y39126044D01*
X5659327Y38995569D01*
X5600507Y38801664D01*
X5580645Y38600001D01*
X508500Y38600001D01*
X508500Y41100000D01*
X5021412Y41100000D01*
X5041022Y40850813D01*
X5099374Y40607767D01*
X5099375Y40607764D01*
X5123618Y40549237D01*
X5195029Y40376833D01*
X5282378Y40234293D01*
X5325631Y40163711D01*
X5487965Y39973643D01*
X5678033Y39811309D01*
X5839743Y39712213D01*
X5891156Y39680707D01*
X5921765Y39668028D01*
X5992537Y39623819D01*
X6045078Y39558993D01*
X6062614Y39510918D01*
X6614321Y38959211D01*
X7166028Y39510918D01*
X7183562Y39558988D01*
X7236103Y39623817D01*
X7306876Y39668027D01*
X7312754Y39670463D01*
X7337488Y39680707D01*
X7550611Y39811309D01*
X7740679Y39973643D01*
X7903013Y40163711D01*
X8033615Y40376834D01*
X8129269Y40607764D01*
X8173032Y40790052D01*
X8187621Y40850813D01*
X8191252Y40896957D01*
X8207232Y41100000D01*
X8187621Y41349186D01*
X8181263Y41375667D01*
X8158444Y41470712D01*
X8129269Y41592236D01*
X8033615Y41823166D01*
X7903013Y42036289D01*
X7740679Y42226357D01*
X7592511Y42352905D01*
X7544638Y42407494D01*
X7514241Y42473431D01*
X7503822Y42545287D01*
X7503822Y43440997D01*
X14409374Y43440997D01*
X14427841Y43241697D01*
X14459873Y43129119D01*
X14482616Y43049185D01*
X14571833Y42870014D01*
X14692452Y42710289D01*
X14840367Y42575446D01*
X15010541Y42470079D01*
X15197179Y42397775D01*
X15367153Y42366002D01*
X15393923Y42360997D01*
X15393924Y42360997D01*
X15594078Y42360997D01*
X15594079Y42360997D01*
X15617642Y42365402D01*
X15790823Y42397775D01*
X15977461Y42470079D01*
X16147635Y42575446D01*
X16295550Y42710289D01*
X16416169Y42870014D01*
X16505386Y43049185D01*
X16560160Y43241697D01*
X16578628Y43440997D01*
X16560160Y43640297D01*
X16505386Y43832809D01*
X16416169Y44011980D01*
X16295550Y44171705D01*
X16147635Y44306548D01*
X15977461Y44411915D01*
X15977459Y44411916D01*
X15935428Y44428199D01*
X15790823Y44484219D01*
X15659659Y44508738D01*
X15594079Y44520997D01*
X15594078Y44520997D01*
X15393924Y44520997D01*
X15393923Y44520997D01*
X15295551Y44502609D01*
X15197179Y44484219D01*
X15126872Y44456982D01*
X15010542Y44411916D01*
X14840367Y44306548D01*
X14692450Y44171703D01*
X14620945Y44077015D01*
X14571833Y44011980D01*
X14509102Y43885999D01*
X14482616Y43832809D01*
X14427841Y43640298D01*
X14409374Y43440997D01*
X7503822Y43440997D01*
X7503822Y45836079D01*
X7523080Y45932898D01*
X7577924Y46014977D01*
X10809921Y49246974D01*
X20631395Y59068450D01*
X20661578Y59094227D01*
X20664472Y59096329D01*
X20707032Y59143598D01*
X20716113Y59153167D01*
X20727939Y59164992D01*
X20738459Y59177985D01*
X20747028Y59188018D01*
X20789587Y59235283D01*
X20791378Y59238386D01*
X20813862Y59271101D01*
X20816108Y59273873D01*
X20844964Y59330506D01*
X20851286Y59342150D01*
X20883075Y59397210D01*
X20883077Y59397213D01*
X20884181Y59400613D01*
X20899372Y59437288D01*
X20900996Y59440473D01*
X20917456Y59501907D01*
X20921209Y59514574D01*
X20940857Y59575042D01*
X20941230Y59578599D01*
X20948463Y59617628D01*
X20949390Y59621083D01*
X20952719Y59684622D01*
X20953752Y59697737D01*
X20955502Y59714378D01*
X20955502Y59731085D01*
X20955849Y59744327D01*
X20959176Y59807806D01*
X20958617Y59811335D01*
X20955502Y59850915D01*
X20955502Y75162759D01*
X20974760Y75259578D01*
X21029604Y75341657D01*
X24678343Y78990396D01*
X24760422Y79045240D01*
X24857241Y79064498D01*
X96427763Y79064498D01*
X96524582Y79045240D01*
X96606661Y78990396D01*
X106114448Y69482609D01*
X106140231Y69452421D01*
X106142334Y69449526D01*
X106189584Y69406982D01*
X106199192Y69397865D01*
X106210998Y69386059D01*
X106223974Y69375551D01*
X106234043Y69366951D01*
X106281287Y69324413D01*
X106284379Y69322628D01*
X106317099Y69300140D01*
X106319874Y69297893D01*
X106319875Y69297893D01*
X106319877Y69297891D01*
X106376523Y69269030D01*
X106388133Y69262726D01*
X106443217Y69230923D01*
X106446617Y69229819D01*
X106483296Y69214625D01*
X106486478Y69213004D01*
X106547898Y69196547D01*
X106560570Y69192793D01*
X106621046Y69173143D01*
X106624591Y69172771D01*
X106663630Y69165536D01*
X106667087Y69164609D01*
X106730614Y69161281D01*
X106743744Y69160248D01*
X106760382Y69158498D01*
X106777083Y69158498D01*
X106790324Y69158151D01*
X106853808Y69154824D01*
X106853808Y69154825D01*
X106853812Y69154824D01*
X106857343Y69155384D01*
X106896919Y69158498D01*
X107962060Y69158498D01*
X108031297Y69148840D01*
X108095247Y69120603D01*
X108150006Y69086698D01*
X108165540Y69077080D01*
X108352178Y69004776D01*
X108522152Y68973003D01*
X108548922Y68967998D01*
X108548923Y68967998D01*
X108749077Y68967998D01*
X108749078Y68967998D01*
X108772641Y68972403D01*
X108945822Y69004776D01*
X109132460Y69077080D01*
X109302634Y69182447D01*
X109450549Y69317290D01*
X109571168Y69477015D01*
X109660385Y69656186D01*
X109715159Y69848698D01*
X109733627Y70047998D01*
X109715159Y70247298D01*
X109712422Y70256916D01*
X109681386Y70365998D01*
X109660385Y70439810D01*
X109571168Y70618981D01*
X109450549Y70778706D01*
X109302634Y70913549D01*
X109132460Y71018916D01*
X109132458Y71018917D01*
X109090428Y71035200D01*
X108945822Y71091220D01*
X108814658Y71115739D01*
X108749078Y71127998D01*
X108749077Y71127998D01*
X108548923Y71127998D01*
X108548922Y71127998D01*
X108450550Y71109609D01*
X108352178Y71091220D01*
X108305351Y71073079D01*
X108165538Y71018916D01*
X108095247Y70975393D01*
X108031297Y70947156D01*
X107962060Y70937498D01*
X107280241Y70937498D01*
X107183422Y70956756D01*
X107101343Y71011600D01*
X106413945Y71698998D01*
X115936377Y71698998D01*
X115954844Y71499698D01*
X115997486Y71349829D01*
X116009619Y71307186D01*
X116098836Y71128015D01*
X116219455Y70968290D01*
X116367370Y70833447D01*
X116537544Y70728080D01*
X116724182Y70655776D01*
X116894156Y70624003D01*
X116920926Y70618998D01*
X116920927Y70618998D01*
X117121081Y70618998D01*
X117121082Y70618998D01*
X117144645Y70623403D01*
X117317826Y70655776D01*
X117504464Y70728080D01*
X117674638Y70833447D01*
X117822553Y70968290D01*
X117943172Y71128015D01*
X118032389Y71307186D01*
X118087163Y71499698D01*
X118105631Y71698998D01*
X118087163Y71898298D01*
X118032389Y72090810D01*
X117943172Y72269981D01*
X117822553Y72429706D01*
X117674638Y72564549D01*
X117504464Y72669916D01*
X117504462Y72669917D01*
X117462432Y72686200D01*
X117317826Y72742220D01*
X117186662Y72766739D01*
X117121082Y72778998D01*
X117121081Y72778998D01*
X116920927Y72778998D01*
X116920926Y72778998D01*
X116822554Y72760609D01*
X116724182Y72742220D01*
X116651879Y72714210D01*
X116537545Y72669917D01*
X116419625Y72596904D01*
X116367370Y72564549D01*
X116219455Y72429706D01*
X116098836Y72269981D01*
X116012662Y72096921D01*
X116009619Y72090810D01*
X115954844Y71898299D01*
X115936377Y71698998D01*
X106413945Y71698998D01*
X97593553Y80519390D01*
X97567775Y80549572D01*
X97565671Y80552468D01*
X97518429Y80595005D01*
X97508821Y80604122D01*
X97497005Y80615938D01*
X97484029Y80626446D01*
X97473961Y80635045D01*
X97426717Y80677583D01*
X97423622Y80679370D01*
X97390900Y80701860D01*
X97388130Y80704103D01*
X97388128Y80704104D01*
X97388127Y80704105D01*
X97331452Y80732982D01*
X97319842Y80739287D01*
X97264787Y80771073D01*
X97261375Y80772182D01*
X97224715Y80787368D01*
X97221525Y80788993D01*
X97160114Y80805449D01*
X97147419Y80809209D01*
X97086960Y80828853D01*
X97085499Y80829007D01*
X97083403Y80829227D01*
X97044378Y80836460D01*
X97040915Y80837388D01*
X96977428Y80840715D01*
X96964230Y80841753D01*
X96947623Y80843498D01*
X96947622Y80843498D01*
X96930921Y80843498D01*
X96917680Y80843845D01*
X96854195Y80847173D01*
X96852158Y80846850D01*
X96850660Y80846613D01*
X96811085Y80843498D01*
X57206991Y80843498D01*
X57115597Y80860583D01*
X57036546Y80909529D01*
X56980515Y80983726D01*
X56955070Y81073155D01*
X56946161Y81169299D01*
X56910413Y81294939D01*
X56891387Y81361810D01*
X56802170Y81540981D01*
X56681551Y81700706D01*
X56533636Y81835549D01*
X56363462Y81940916D01*
X56363460Y81940917D01*
X56321430Y81957200D01*
X56176824Y82013220D01*
X56045660Y82037739D01*
X55980080Y82049998D01*
X55980079Y82049998D01*
X55779925Y82049998D01*
X55779924Y82049998D01*
X55681552Y82031610D01*
X55583180Y82013220D01*
X55510876Y81985210D01*
X55396543Y81940917D01*
X55226367Y81835549D01*
X55226368Y81835549D01*
X55078453Y81700706D01*
X54957834Y81540981D01*
X54893305Y81411389D01*
X54868617Y81361810D01*
X54813842Y81169299D01*
X54804934Y81073155D01*
X54779489Y80983726D01*
X54723458Y80909529D01*
X54644407Y80860583D01*
X54553013Y80843498D01*
X24473919Y80843498D01*
X24434343Y80846613D01*
X24432845Y80846850D01*
X24430809Y80847173D01*
X24369947Y80843983D01*
X24367329Y80843845D01*
X24354089Y80843498D01*
X24337380Y80843498D01*
X24320753Y80841751D01*
X24307558Y80840713D01*
X24244086Y80837387D01*
X24240621Y80836458D01*
X24201620Y80829230D01*
X24198050Y80828855D01*
X24137584Y80809209D01*
X24124893Y80805450D01*
X24063475Y80788993D01*
X24060284Y80787366D01*
X24023628Y80772183D01*
X24020219Y80771076D01*
X23965158Y80739287D01*
X23953529Y80732972D01*
X23896869Y80704101D01*
X23894086Y80701847D01*
X23861390Y80679376D01*
X23858289Y80677586D01*
X23811035Y80635039D01*
X23800990Y80626459D01*
X23788000Y80615938D01*
X23787989Y80615929D01*
X23776179Y80604120D01*
X23766589Y80595019D01*
X23719332Y80552468D01*
X23717229Y80549572D01*
X23691452Y80519393D01*
X19500607Y76328548D01*
X19470428Y76302771D01*
X19467532Y76300668D01*
X19424981Y76253411D01*
X19415880Y76243821D01*
X19404071Y76232011D01*
X19404066Y76232006D01*
X19404065Y76232004D01*
X19393541Y76219010D01*
X19384961Y76208965D01*
X19342417Y76161715D01*
X19340627Y76158613D01*
X19318150Y76125909D01*
X19315894Y76123124D01*
X19287033Y76066480D01*
X19280714Y76054842D01*
X19248928Y75999788D01*
X19247821Y75996378D01*
X19232635Y75959716D01*
X19231007Y75956522D01*
X19214554Y75895119D01*
X19210794Y75882424D01*
X19191147Y75821957D01*
X19190774Y75818403D01*
X19183542Y75779382D01*
X19182612Y75775913D01*
X19179285Y75712423D01*
X19178247Y75699225D01*
X19176502Y75682618D01*
X19176502Y75665917D01*
X19176155Y75652676D01*
X19172827Y75589192D01*
X19173387Y75585661D01*
X19176502Y75546081D01*
X19176502Y60234237D01*
X19167881Y60168756D01*
X19142606Y60107737D01*
X19102400Y60055339D01*
X6048927Y47001868D01*
X6018748Y46976091D01*
X6015852Y46973988D01*
X5973301Y46926731D01*
X5964200Y46917141D01*
X5952391Y46905331D01*
X5952386Y46905326D01*
X5952385Y46905324D01*
X5941861Y46892330D01*
X5933281Y46882285D01*
X5890737Y46835035D01*
X5888947Y46831933D01*
X5866470Y46799229D01*
X5864214Y46796444D01*
X5835353Y46739800D01*
X5829034Y46728162D01*
X5797248Y46673108D01*
X5796141Y46669698D01*
X5780955Y46633036D01*
X5779327Y46629842D01*
X5762874Y46568439D01*
X5759114Y46555744D01*
X5739467Y46495277D01*
X5739094Y46491723D01*
X5731862Y46452702D01*
X5730932Y46449233D01*
X5727605Y46385743D01*
X5726567Y46372545D01*
X5724822Y46355938D01*
X5724822Y46339237D01*
X5724475Y46325996D01*
X5721147Y46262512D01*
X5721707Y46258981D01*
X5724822Y46219401D01*
X5724822Y42545287D01*
X5714403Y42473431D01*
X5684006Y42407494D01*
X5636133Y42352905D01*
X5487965Y42226357D01*
X5325631Y42036290D01*
X5195029Y41823168D01*
X5099374Y41592234D01*
X5041022Y41349188D01*
X5021412Y41100000D01*
X508500Y41100000D01*
X508500Y53006808D01*
X6088278Y53006808D01*
X6218751Y52937068D01*
X6412660Y52878246D01*
X6614322Y52858384D01*
X6815983Y52878246D01*
X7009893Y52937068D01*
X7140364Y53006808D01*
X6614322Y53532850D01*
X6088278Y53006808D01*
X508500Y53006808D01*
X508500Y53892061D01*
X5580645Y53892061D01*
X5600507Y53690397D01*
X5659327Y53496492D01*
X5729067Y53366018D01*
X5729068Y53366017D01*
X6255112Y53892060D01*
X6973532Y53892060D01*
X7499574Y53366018D01*
X7569314Y53496489D01*
X7628136Y53690399D01*
X7647998Y53892060D01*
X7628136Y54093722D01*
X7569314Y54287631D01*
X7499574Y54418104D01*
X6973532Y53892060D01*
X6255112Y53892060D01*
X5729068Y54418104D01*
X5659327Y54287629D01*
X5600507Y54093724D01*
X5580645Y53892061D01*
X508500Y53892061D01*
X508500Y56392061D01*
X5021412Y56392061D01*
X5041022Y56142873D01*
X5099374Y55899827D01*
X5195029Y55668893D01*
X5262383Y55558982D01*
X5325631Y55455771D01*
X5487965Y55265703D01*
X5678033Y55103369D01*
X5744701Y55062515D01*
X5891156Y54972767D01*
X5921765Y54960088D01*
X5992537Y54915879D01*
X6045078Y54851053D01*
X6062614Y54802978D01*
X6614321Y54251271D01*
X7166028Y54802978D01*
X7183562Y54851048D01*
X7236103Y54915877D01*
X7306876Y54960087D01*
X7312754Y54962523D01*
X7337488Y54972767D01*
X7550611Y55103369D01*
X7740679Y55265703D01*
X7903013Y55455771D01*
X8033615Y55668894D01*
X8129269Y55899824D01*
X8173099Y56082387D01*
X8187621Y56142873D01*
X8191590Y56193308D01*
X8207232Y56392060D01*
X8187621Y56641246D01*
X8179104Y56676720D01*
X8129269Y56884294D01*
X8129269Y56884296D01*
X8033615Y57115226D01*
X7903013Y57328349D01*
X7740679Y57518417D01*
X7550611Y57680751D01*
X7494991Y57714835D01*
X7337489Y57811353D01*
X7154253Y57887251D01*
X7106558Y57907007D01*
X7106556Y57907008D01*
X7106555Y57907008D01*
X6863509Y57965360D01*
X6614322Y57984970D01*
X6365134Y57965360D01*
X6122088Y57907008D01*
X5891154Y57811353D01*
X5678032Y57680751D01*
X5487965Y57518417D01*
X5325631Y57328350D01*
X5195029Y57115228D01*
X5099374Y56884294D01*
X5041022Y56641248D01*
X5021412Y56392061D01*
X508500Y56392061D01*
X508500Y64995895D01*
X2524906Y64995895D01*
X2702137Y64875060D01*
X2943948Y64758610D01*
X3200415Y64679501D01*
X3465805Y64639499D01*
X3734195Y64639499D01*
X3999584Y64679501D01*
X4256051Y64758610D01*
X4497863Y64875061D01*
X4675093Y64995895D01*
X4675093Y64995896D01*
X3600000Y66070989D01*
X2524906Y64995896D01*
X2524906Y64995895D01*
X508500Y64995895D01*
X508500Y66430199D01*
X1804279Y66430199D01*
X1824336Y66162561D01*
X1884058Y65900899D01*
X1982111Y65651065D01*
X2116305Y65418634D01*
X2166402Y65355815D01*
X3240789Y66430199D01*
X3959210Y66430199D01*
X5033595Y65355815D01*
X5083692Y65418632D01*
X5217890Y65651070D01*
X5315941Y65900899D01*
X5375663Y66162561D01*
X5395720Y66430200D01*
X5375663Y66697838D01*
X5315941Y66959500D01*
X5217888Y67209334D01*
X5083696Y67441761D01*
X5033595Y67504585D01*
X3959210Y66430199D01*
X3240789Y66430199D01*
X2166403Y67504585D01*
X2166402Y67504585D01*
X2116308Y67441769D01*
X1982109Y67209329D01*
X1884058Y66959500D01*
X1824336Y66697838D01*
X1804279Y66430199D01*
X508500Y66430199D01*
X508500Y67864505D01*
X2524906Y67864505D01*
X3599999Y66789411D01*
X4675093Y67864505D01*
X4675092Y67864506D01*
X4497863Y67985338D01*
X4256051Y68101789D01*
X3999584Y68180898D01*
X3734195Y68220899D01*
X3465805Y68220899D01*
X3200415Y68180898D01*
X2943948Y68101789D01*
X2702138Y67985339D01*
X2524906Y67864505D01*
X508500Y67864505D01*
X508500Y68585000D01*
X6261393Y68585000D01*
X6281788Y68325852D01*
X6342473Y68073078D01*
X6441950Y67832918D01*
X6441952Y67832915D01*
X6577777Y67611270D01*
X6746602Y67413601D01*
X6944271Y67244776D01*
X7165916Y67108951D01*
X7406080Y67009472D01*
X7658850Y66948788D01*
X7918000Y66928392D01*
X8177150Y66948788D01*
X8429920Y67009472D01*
X8670084Y67108951D01*
X8891729Y67244776D01*
X9089398Y67413601D01*
X9225619Y67573096D01*
X9292649Y67628548D01*
X9374502Y67658017D01*
X9461498Y67658017D01*
X9543351Y67628548D01*
X9610380Y67573096D01*
X9746602Y67413601D01*
X9944271Y67244776D01*
X10165916Y67108951D01*
X10406080Y67009472D01*
X10658850Y66948788D01*
X10918000Y66928392D01*
X11177150Y66948788D01*
X11429920Y67009472D01*
X11670084Y67108951D01*
X11891729Y67244776D01*
X12089398Y67413601D01*
X12258223Y67611270D01*
X12394048Y67832915D01*
X12493527Y68073079D01*
X12554211Y68325849D01*
X12574607Y68584999D01*
X12554211Y68844149D01*
X12493527Y69096919D01*
X12402245Y69317293D01*
X12394049Y69337081D01*
X12394048Y69337083D01*
X12258223Y69558728D01*
X12089398Y69756397D01*
X11929903Y69892619D01*
X11874451Y69959648D01*
X11844982Y70041501D01*
X11844982Y70128497D01*
X11874451Y70210350D01*
X11929903Y70277380D01*
X12089398Y70413601D01*
X12258223Y70611270D01*
X12394048Y70832915D01*
X12493527Y71073079D01*
X12554211Y71325849D01*
X12574607Y71584999D01*
X12554211Y71844149D01*
X12493527Y72096919D01*
X12394048Y72337083D01*
X12258223Y72558728D01*
X12089398Y72756397D01*
X12089395Y72756399D01*
X12089394Y72756401D01*
X11929904Y72892618D01*
X11874451Y72959649D01*
X11844982Y73041503D01*
X11844982Y73128499D01*
X11874452Y73210352D01*
X11929900Y73277378D01*
X12089398Y73413601D01*
X12258223Y73611270D01*
X12394048Y73832915D01*
X12493527Y74073079D01*
X12554211Y74325849D01*
X12574607Y74584999D01*
X12554211Y74844149D01*
X12493527Y75096919D01*
X12422847Y75267555D01*
X12394049Y75337081D01*
X12391245Y75341657D01*
X12258223Y75558728D01*
X12089398Y75756397D01*
X11929903Y75892619D01*
X11874451Y75959648D01*
X11844982Y76041501D01*
X11844982Y76128497D01*
X11874451Y76210350D01*
X11929903Y76277380D01*
X12089398Y76413601D01*
X12258223Y76611270D01*
X12394048Y76832915D01*
X12493527Y77073079D01*
X12554211Y77325849D01*
X12574607Y77584999D01*
X12554211Y77844149D01*
X12493527Y78096919D01*
X12394048Y78337083D01*
X12258223Y78558728D01*
X12089398Y78756397D01*
X11891729Y78925222D01*
X11670084Y79061047D01*
X11670081Y79061049D01*
X11429921Y79160526D01*
X11177147Y79221211D01*
X10918000Y79241606D01*
X10658852Y79221211D01*
X10406078Y79160526D01*
X10165918Y79061049D01*
X9944272Y78925223D01*
X9944270Y78925222D01*
X9944271Y78925222D01*
X9746602Y78756397D01*
X9610380Y78596903D01*
X9543351Y78541451D01*
X9461498Y78511982D01*
X9374502Y78511982D01*
X9292649Y78541451D01*
X9225619Y78596903D01*
X9089398Y78756397D01*
X8891729Y78925222D01*
X8670084Y79061047D01*
X8670081Y79061049D01*
X8429921Y79160526D01*
X8177147Y79221211D01*
X7918000Y79241606D01*
X7658852Y79221211D01*
X7406078Y79160526D01*
X7165918Y79061049D01*
X6944272Y78925223D01*
X6746602Y78756397D01*
X6577776Y78558727D01*
X6441950Y78337081D01*
X6342473Y78096921D01*
X6281788Y77844147D01*
X6261393Y77584999D01*
X6281788Y77325852D01*
X6342473Y77073078D01*
X6441950Y76832918D01*
X6441952Y76832915D01*
X6577777Y76611270D01*
X6746602Y76413601D01*
X6906096Y76277380D01*
X6961548Y76210350D01*
X6991017Y76128497D01*
X6991017Y76041501D01*
X6961548Y75959648D01*
X6906096Y75892619D01*
X6820080Y75819153D01*
X6746602Y75756397D01*
X6577776Y75558727D01*
X6441950Y75337081D01*
X6342473Y75096921D01*
X6281788Y74844147D01*
X6261393Y74584999D01*
X6281788Y74325852D01*
X6342473Y74073078D01*
X6441950Y73832918D01*
X6441952Y73832915D01*
X6577777Y73611270D01*
X6746602Y73413601D01*
X6906096Y73277381D01*
X6961547Y73210352D01*
X6991017Y73128499D01*
X6991017Y73041503D01*
X6961548Y72959650D01*
X6906095Y72892618D01*
X6746606Y72756401D01*
X6746604Y72756399D01*
X6746602Y72756397D01*
X6611541Y72598262D01*
X6577776Y72558727D01*
X6441950Y72337081D01*
X6342473Y72096921D01*
X6281788Y71844147D01*
X6261393Y71584999D01*
X6281788Y71325852D01*
X6342473Y71073078D01*
X6441950Y70832918D01*
X6475173Y70778704D01*
X6577777Y70611270D01*
X6746602Y70413601D01*
X6906096Y70277380D01*
X6961548Y70210350D01*
X6991017Y70128497D01*
X6991017Y70041501D01*
X6961548Y69959648D01*
X6906096Y69892619D01*
X6854673Y69848698D01*
X6746602Y69756397D01*
X6577776Y69558727D01*
X6441950Y69337081D01*
X6342473Y69096921D01*
X6281788Y68844147D01*
X6261393Y68585000D01*
X508500Y68585000D01*
X508500Y78305495D01*
X2524906Y78305495D01*
X2702137Y78184660D01*
X2943948Y78068210D01*
X3200415Y77989101D01*
X3465805Y77949099D01*
X3734195Y77949099D01*
X3999584Y77989101D01*
X4256051Y78068210D01*
X4497863Y78184661D01*
X4675093Y78305495D01*
X4675093Y78305496D01*
X3600000Y79380589D01*
X2524906Y78305496D01*
X2524906Y78305495D01*
X508500Y78305495D01*
X508500Y79739800D01*
X1804279Y79739800D01*
X1824336Y79472161D01*
X1884058Y79210499D01*
X1982111Y78960665D01*
X2116305Y78728234D01*
X2166402Y78665415D01*
X3240789Y79739799D01*
X3959210Y79739799D01*
X5033595Y78665415D01*
X5083692Y78728232D01*
X5217890Y78960670D01*
X5315941Y79210499D01*
X5375663Y79472161D01*
X5395720Y79739799D01*
X5375663Y80007438D01*
X5315941Y80269100D01*
X5217888Y80518934D01*
X5083696Y80751361D01*
X5033595Y80814185D01*
X3959210Y79739799D01*
X3240789Y79739799D01*
X2166403Y80814185D01*
X2166402Y80814185D01*
X2116308Y80751369D01*
X1982109Y80518929D01*
X1884058Y80269100D01*
X1824336Y80007438D01*
X1804279Y79739800D01*
X508500Y79739800D01*
X508500Y81174104D01*
X2524905Y81174104D01*
X3599999Y80099011D01*
X4675093Y81174105D01*
X4497863Y81294939D01*
X4256051Y81411389D01*
X3999584Y81490498D01*
X3734195Y81530499D01*
X3465805Y81530499D01*
X3200415Y81490498D01*
X2943948Y81411389D01*
X2702138Y81294939D01*
X2524906Y81174105D01*
X2524905Y81174104D01*
X508500Y81174104D01*
X508500Y82748998D01*
X527758Y82845817D01*
X582602Y82927896D01*
X664681Y82982740D01*
X761500Y83001998D01*
X149238500Y83001998D01*
X149335319Y82982740D01*
G37*
G04 #@! TD.AperFunction*
M02*
