G04 #@! TF.GenerationSoftware,KiCad,Pcbnew,7.0.1*
G04 #@! TF.CreationDate,2024-01-10T19:04:54-08:00*
G04 #@! TF.ProjectId,POWERCORE-V2.0_MOTHERBOARD,504f5745-5243-44f5-9245-2d56322e305f,rev?*
G04 #@! TF.SameCoordinates,PX791ddbePYb90347e*
G04 #@! TF.FileFunction,Copper,L5,Inr*
G04 #@! TF.FilePolarity,Positive*
%FSLAX46Y46*%
G04 Gerber Fmt 4.6, Leading zero omitted, Abs format (unit mm)*
G04 Created by KiCad (PCBNEW 7.0.1) date 2024-01-10 19:04:54*
%MOMM*%
%LPD*%
G01*
G04 APERTURE LIST*
%ADD10C,0.100000*%
%ADD11C,0.150000*%
%ADD12C,0.300000*%
%ADD13C,0.400000*%
G04 #@! TA.AperFunction,ComponentPad*
%ADD14C,1.778000*%
G04 #@! TD*
G04 #@! TA.AperFunction,ComponentPad*
%ADD15C,3.175000*%
G04 #@! TD*
G04 #@! TA.AperFunction,ComponentPad*
%ADD16C,1.651000*%
G04 #@! TD*
G04 #@! TA.AperFunction,ComponentPad*
%ADD17R,2.000000X2.000000*%
G04 #@! TD*
G04 #@! TA.AperFunction,ComponentPad*
%ADD18C,2.000000*%
G04 #@! TD*
G04 #@! TA.AperFunction,ViaPad*
%ADD19C,0.635000*%
G04 #@! TD*
G04 APERTURE END LIST*
D10*
D11*
X172989002Y-59002202D02*
X280989002Y-59002202D01*
X280989002Y-91002202D01*
X172989002Y-91002202D01*
X172989002Y-59002202D01*
D10*
D11*
X-116999998Y183999998D02*
X282989002Y183999998D01*
X282989002Y-93002202D01*
X-116999998Y-93002202D01*
X-116999998Y183999998D01*
D10*
D11*
X-114999998Y181999998D02*
X280989002Y181999998D01*
X280989002Y-91002202D01*
X-114999998Y-91002202D01*
X-114999998Y181999998D01*
D10*
D11*
X-66999998Y181999998D02*
X-66999998Y183999998D01*
D10*
D11*
X-16999998Y181999998D02*
X-16999998Y183999998D01*
D10*
D11*
X33000002Y181999998D02*
X33000002Y183999998D01*
D10*
D11*
X83000002Y181999998D02*
X83000002Y183999998D01*
D10*
D11*
X133000002Y181999998D02*
X133000002Y183999998D01*
D10*
D11*
X183000002Y181999998D02*
X183000002Y183999998D01*
D10*
D11*
X233000002Y181999998D02*
X233000002Y183999998D01*
D10*
D11*
X-91009522Y182398594D02*
X-91752379Y182398594D01*
X-91380951Y182398594D02*
X-91380951Y183698594D01*
X-91380951Y183698594D02*
X-91504760Y183512879D01*
X-91504760Y183512879D02*
X-91628570Y183389070D01*
X-91628570Y183389070D02*
X-91752379Y183327165D01*
D10*
D11*
X-41752379Y183574784D02*
X-41690475Y183636689D01*
X-41690475Y183636689D02*
X-41566665Y183698594D01*
X-41566665Y183698594D02*
X-41257141Y183698594D01*
X-41257141Y183698594D02*
X-41133332Y183636689D01*
X-41133332Y183636689D02*
X-41071427Y183574784D01*
X-41071427Y183574784D02*
X-41009522Y183450975D01*
X-41009522Y183450975D02*
X-41009522Y183327165D01*
X-41009522Y183327165D02*
X-41071427Y183141451D01*
X-41071427Y183141451D02*
X-41814284Y182398594D01*
X-41814284Y182398594D02*
X-41009522Y182398594D01*
D10*
D11*
X8185716Y183698594D02*
X8990478Y183698594D01*
X8990478Y183698594D02*
X8557144Y183203356D01*
X8557144Y183203356D02*
X8742859Y183203356D01*
X8742859Y183203356D02*
X8866668Y183141451D01*
X8866668Y183141451D02*
X8928573Y183079546D01*
X8928573Y183079546D02*
X8990478Y182955737D01*
X8990478Y182955737D02*
X8990478Y182646213D01*
X8990478Y182646213D02*
X8928573Y182522403D01*
X8928573Y182522403D02*
X8866668Y182460498D01*
X8866668Y182460498D02*
X8742859Y182398594D01*
X8742859Y182398594D02*
X8371430Y182398594D01*
X8371430Y182398594D02*
X8247621Y182460498D01*
X8247621Y182460498D02*
X8185716Y182522403D01*
D10*
D11*
X58866668Y183265260D02*
X58866668Y182398594D01*
X58557144Y183760498D02*
X58247621Y182831927D01*
X58247621Y182831927D02*
X59052382Y182831927D01*
D10*
D11*
X108928573Y183698594D02*
X108309525Y183698594D01*
X108309525Y183698594D02*
X108247621Y183079546D01*
X108247621Y183079546D02*
X108309525Y183141451D01*
X108309525Y183141451D02*
X108433335Y183203356D01*
X108433335Y183203356D02*
X108742859Y183203356D01*
X108742859Y183203356D02*
X108866668Y183141451D01*
X108866668Y183141451D02*
X108928573Y183079546D01*
X108928573Y183079546D02*
X108990478Y182955737D01*
X108990478Y182955737D02*
X108990478Y182646213D01*
X108990478Y182646213D02*
X108928573Y182522403D01*
X108928573Y182522403D02*
X108866668Y182460498D01*
X108866668Y182460498D02*
X108742859Y182398594D01*
X108742859Y182398594D02*
X108433335Y182398594D01*
X108433335Y182398594D02*
X108309525Y182460498D01*
X108309525Y182460498D02*
X108247621Y182522403D01*
D10*
D11*
X158866668Y183698594D02*
X158619049Y183698594D01*
X158619049Y183698594D02*
X158495240Y183636689D01*
X158495240Y183636689D02*
X158433335Y183574784D01*
X158433335Y183574784D02*
X158309525Y183389070D01*
X158309525Y183389070D02*
X158247621Y183141451D01*
X158247621Y183141451D02*
X158247621Y182646213D01*
X158247621Y182646213D02*
X158309525Y182522403D01*
X158309525Y182522403D02*
X158371430Y182460498D01*
X158371430Y182460498D02*
X158495240Y182398594D01*
X158495240Y182398594D02*
X158742859Y182398594D01*
X158742859Y182398594D02*
X158866668Y182460498D01*
X158866668Y182460498D02*
X158928573Y182522403D01*
X158928573Y182522403D02*
X158990478Y182646213D01*
X158990478Y182646213D02*
X158990478Y182955737D01*
X158990478Y182955737D02*
X158928573Y183079546D01*
X158928573Y183079546D02*
X158866668Y183141451D01*
X158866668Y183141451D02*
X158742859Y183203356D01*
X158742859Y183203356D02*
X158495240Y183203356D01*
X158495240Y183203356D02*
X158371430Y183141451D01*
X158371430Y183141451D02*
X158309525Y183079546D01*
X158309525Y183079546D02*
X158247621Y182955737D01*
D10*
D11*
X208185716Y183698594D02*
X209052382Y183698594D01*
X209052382Y183698594D02*
X208495240Y182398594D01*
D10*
D11*
X258495240Y183141451D02*
X258371430Y183203356D01*
X258371430Y183203356D02*
X258309525Y183265260D01*
X258309525Y183265260D02*
X258247621Y183389070D01*
X258247621Y183389070D02*
X258247621Y183450975D01*
X258247621Y183450975D02*
X258309525Y183574784D01*
X258309525Y183574784D02*
X258371430Y183636689D01*
X258371430Y183636689D02*
X258495240Y183698594D01*
X258495240Y183698594D02*
X258742859Y183698594D01*
X258742859Y183698594D02*
X258866668Y183636689D01*
X258866668Y183636689D02*
X258928573Y183574784D01*
X258928573Y183574784D02*
X258990478Y183450975D01*
X258990478Y183450975D02*
X258990478Y183389070D01*
X258990478Y183389070D02*
X258928573Y183265260D01*
X258928573Y183265260D02*
X258866668Y183203356D01*
X258866668Y183203356D02*
X258742859Y183141451D01*
X258742859Y183141451D02*
X258495240Y183141451D01*
X258495240Y183141451D02*
X258371430Y183079546D01*
X258371430Y183079546D02*
X258309525Y183017641D01*
X258309525Y183017641D02*
X258247621Y182893832D01*
X258247621Y182893832D02*
X258247621Y182646213D01*
X258247621Y182646213D02*
X258309525Y182522403D01*
X258309525Y182522403D02*
X258371430Y182460498D01*
X258371430Y182460498D02*
X258495240Y182398594D01*
X258495240Y182398594D02*
X258742859Y182398594D01*
X258742859Y182398594D02*
X258866668Y182460498D01*
X258866668Y182460498D02*
X258928573Y182522403D01*
X258928573Y182522403D02*
X258990478Y182646213D01*
X258990478Y182646213D02*
X258990478Y182893832D01*
X258990478Y182893832D02*
X258928573Y183017641D01*
X258928573Y183017641D02*
X258866668Y183079546D01*
X258866668Y183079546D02*
X258742859Y183141451D01*
D10*
D11*
X-66999998Y-91002202D02*
X-66999998Y-93002202D01*
D10*
D11*
X-16999998Y-91002202D02*
X-16999998Y-93002202D01*
D10*
D11*
X33000002Y-91002202D02*
X33000002Y-93002202D01*
D10*
D11*
X83000002Y-91002202D02*
X83000002Y-93002202D01*
D10*
D11*
X133000002Y-91002202D02*
X133000002Y-93002202D01*
D10*
D11*
X183000002Y-91002202D02*
X183000002Y-93002202D01*
D10*
D11*
X233000002Y-91002202D02*
X233000002Y-93002202D01*
D10*
D11*
X-91009522Y-92603606D02*
X-91752379Y-92603606D01*
X-91380951Y-92603606D02*
X-91380951Y-91303606D01*
X-91380951Y-91303606D02*
X-91504760Y-91489321D01*
X-91504760Y-91489321D02*
X-91628570Y-91613130D01*
X-91628570Y-91613130D02*
X-91752379Y-91675035D01*
D10*
D11*
X-41752379Y-91427416D02*
X-41690475Y-91365511D01*
X-41690475Y-91365511D02*
X-41566665Y-91303606D01*
X-41566665Y-91303606D02*
X-41257141Y-91303606D01*
X-41257141Y-91303606D02*
X-41133332Y-91365511D01*
X-41133332Y-91365511D02*
X-41071427Y-91427416D01*
X-41071427Y-91427416D02*
X-41009522Y-91551225D01*
X-41009522Y-91551225D02*
X-41009522Y-91675035D01*
X-41009522Y-91675035D02*
X-41071427Y-91860749D01*
X-41071427Y-91860749D02*
X-41814284Y-92603606D01*
X-41814284Y-92603606D02*
X-41009522Y-92603606D01*
D10*
D11*
X8185716Y-91303606D02*
X8990478Y-91303606D01*
X8990478Y-91303606D02*
X8557144Y-91798844D01*
X8557144Y-91798844D02*
X8742859Y-91798844D01*
X8742859Y-91798844D02*
X8866668Y-91860749D01*
X8866668Y-91860749D02*
X8928573Y-91922654D01*
X8928573Y-91922654D02*
X8990478Y-92046463D01*
X8990478Y-92046463D02*
X8990478Y-92355987D01*
X8990478Y-92355987D02*
X8928573Y-92479797D01*
X8928573Y-92479797D02*
X8866668Y-92541702D01*
X8866668Y-92541702D02*
X8742859Y-92603606D01*
X8742859Y-92603606D02*
X8371430Y-92603606D01*
X8371430Y-92603606D02*
X8247621Y-92541702D01*
X8247621Y-92541702D02*
X8185716Y-92479797D01*
D10*
D11*
X58866668Y-91736940D02*
X58866668Y-92603606D01*
X58557144Y-91241702D02*
X58247621Y-92170273D01*
X58247621Y-92170273D02*
X59052382Y-92170273D01*
D10*
D11*
X108928573Y-91303606D02*
X108309525Y-91303606D01*
X108309525Y-91303606D02*
X108247621Y-91922654D01*
X108247621Y-91922654D02*
X108309525Y-91860749D01*
X108309525Y-91860749D02*
X108433335Y-91798844D01*
X108433335Y-91798844D02*
X108742859Y-91798844D01*
X108742859Y-91798844D02*
X108866668Y-91860749D01*
X108866668Y-91860749D02*
X108928573Y-91922654D01*
X108928573Y-91922654D02*
X108990478Y-92046463D01*
X108990478Y-92046463D02*
X108990478Y-92355987D01*
X108990478Y-92355987D02*
X108928573Y-92479797D01*
X108928573Y-92479797D02*
X108866668Y-92541702D01*
X108866668Y-92541702D02*
X108742859Y-92603606D01*
X108742859Y-92603606D02*
X108433335Y-92603606D01*
X108433335Y-92603606D02*
X108309525Y-92541702D01*
X108309525Y-92541702D02*
X108247621Y-92479797D01*
D10*
D11*
X158866668Y-91303606D02*
X158619049Y-91303606D01*
X158619049Y-91303606D02*
X158495240Y-91365511D01*
X158495240Y-91365511D02*
X158433335Y-91427416D01*
X158433335Y-91427416D02*
X158309525Y-91613130D01*
X158309525Y-91613130D02*
X158247621Y-91860749D01*
X158247621Y-91860749D02*
X158247621Y-92355987D01*
X158247621Y-92355987D02*
X158309525Y-92479797D01*
X158309525Y-92479797D02*
X158371430Y-92541702D01*
X158371430Y-92541702D02*
X158495240Y-92603606D01*
X158495240Y-92603606D02*
X158742859Y-92603606D01*
X158742859Y-92603606D02*
X158866668Y-92541702D01*
X158866668Y-92541702D02*
X158928573Y-92479797D01*
X158928573Y-92479797D02*
X158990478Y-92355987D01*
X158990478Y-92355987D02*
X158990478Y-92046463D01*
X158990478Y-92046463D02*
X158928573Y-91922654D01*
X158928573Y-91922654D02*
X158866668Y-91860749D01*
X158866668Y-91860749D02*
X158742859Y-91798844D01*
X158742859Y-91798844D02*
X158495240Y-91798844D01*
X158495240Y-91798844D02*
X158371430Y-91860749D01*
X158371430Y-91860749D02*
X158309525Y-91922654D01*
X158309525Y-91922654D02*
X158247621Y-92046463D01*
D10*
D11*
X208185716Y-91303606D02*
X209052382Y-91303606D01*
X209052382Y-91303606D02*
X208495240Y-92603606D01*
D10*
D11*
X258495240Y-91860749D02*
X258371430Y-91798844D01*
X258371430Y-91798844D02*
X258309525Y-91736940D01*
X258309525Y-91736940D02*
X258247621Y-91613130D01*
X258247621Y-91613130D02*
X258247621Y-91551225D01*
X258247621Y-91551225D02*
X258309525Y-91427416D01*
X258309525Y-91427416D02*
X258371430Y-91365511D01*
X258371430Y-91365511D02*
X258495240Y-91303606D01*
X258495240Y-91303606D02*
X258742859Y-91303606D01*
X258742859Y-91303606D02*
X258866668Y-91365511D01*
X258866668Y-91365511D02*
X258928573Y-91427416D01*
X258928573Y-91427416D02*
X258990478Y-91551225D01*
X258990478Y-91551225D02*
X258990478Y-91613130D01*
X258990478Y-91613130D02*
X258928573Y-91736940D01*
X258928573Y-91736940D02*
X258866668Y-91798844D01*
X258866668Y-91798844D02*
X258742859Y-91860749D01*
X258742859Y-91860749D02*
X258495240Y-91860749D01*
X258495240Y-91860749D02*
X258371430Y-91922654D01*
X258371430Y-91922654D02*
X258309525Y-91984559D01*
X258309525Y-91984559D02*
X258247621Y-92108368D01*
X258247621Y-92108368D02*
X258247621Y-92355987D01*
X258247621Y-92355987D02*
X258309525Y-92479797D01*
X258309525Y-92479797D02*
X258371430Y-92541702D01*
X258371430Y-92541702D02*
X258495240Y-92603606D01*
X258495240Y-92603606D02*
X258742859Y-92603606D01*
X258742859Y-92603606D02*
X258866668Y-92541702D01*
X258866668Y-92541702D02*
X258928573Y-92479797D01*
X258928573Y-92479797D02*
X258990478Y-92355987D01*
X258990478Y-92355987D02*
X258990478Y-92108368D01*
X258990478Y-92108368D02*
X258928573Y-91984559D01*
X258928573Y-91984559D02*
X258866668Y-91922654D01*
X258866668Y-91922654D02*
X258742859Y-91860749D01*
D10*
D11*
X-116999998Y133999998D02*
X-114999998Y133999998D01*
D10*
D11*
X-116999998Y83999998D02*
X-114999998Y83999998D01*
D10*
D11*
X-116999998Y33999998D02*
X-114999998Y33999998D01*
D10*
D11*
X-116999998Y-16000002D02*
X-114999998Y-16000002D01*
D10*
D11*
X-116999998Y-66000002D02*
X-114999998Y-66000002D01*
D10*
D11*
X-116309522Y158770022D02*
X-115690475Y158770022D01*
X-116433332Y158398594D02*
X-115999999Y159698594D01*
X-115999999Y159698594D02*
X-115566665Y158398594D01*
D10*
D11*
X-115907141Y109079546D02*
X-115721427Y109017641D01*
X-115721427Y109017641D02*
X-115659522Y108955737D01*
X-115659522Y108955737D02*
X-115597618Y108831927D01*
X-115597618Y108831927D02*
X-115597618Y108646213D01*
X-115597618Y108646213D02*
X-115659522Y108522403D01*
X-115659522Y108522403D02*
X-115721427Y108460498D01*
X-115721427Y108460498D02*
X-115845237Y108398594D01*
X-115845237Y108398594D02*
X-116340475Y108398594D01*
X-116340475Y108398594D02*
X-116340475Y109698594D01*
X-116340475Y109698594D02*
X-115907141Y109698594D01*
X-115907141Y109698594D02*
X-115783332Y109636689D01*
X-115783332Y109636689D02*
X-115721427Y109574784D01*
X-115721427Y109574784D02*
X-115659522Y109450975D01*
X-115659522Y109450975D02*
X-115659522Y109327165D01*
X-115659522Y109327165D02*
X-115721427Y109203356D01*
X-115721427Y109203356D02*
X-115783332Y109141451D01*
X-115783332Y109141451D02*
X-115907141Y109079546D01*
X-115907141Y109079546D02*
X-116340475Y109079546D01*
D10*
D11*
X-115597618Y58522403D02*
X-115659522Y58460498D01*
X-115659522Y58460498D02*
X-115845237Y58398594D01*
X-115845237Y58398594D02*
X-115969046Y58398594D01*
X-115969046Y58398594D02*
X-116154760Y58460498D01*
X-116154760Y58460498D02*
X-116278570Y58584308D01*
X-116278570Y58584308D02*
X-116340475Y58708118D01*
X-116340475Y58708118D02*
X-116402379Y58955737D01*
X-116402379Y58955737D02*
X-116402379Y59141451D01*
X-116402379Y59141451D02*
X-116340475Y59389070D01*
X-116340475Y59389070D02*
X-116278570Y59512879D01*
X-116278570Y59512879D02*
X-116154760Y59636689D01*
X-116154760Y59636689D02*
X-115969046Y59698594D01*
X-115969046Y59698594D02*
X-115845237Y59698594D01*
X-115845237Y59698594D02*
X-115659522Y59636689D01*
X-115659522Y59636689D02*
X-115597618Y59574784D01*
D10*
D11*
X-116340475Y8398594D02*
X-116340475Y9698594D01*
X-116340475Y9698594D02*
X-116030951Y9698594D01*
X-116030951Y9698594D02*
X-115845237Y9636689D01*
X-115845237Y9636689D02*
X-115721427Y9512879D01*
X-115721427Y9512879D02*
X-115659522Y9389070D01*
X-115659522Y9389070D02*
X-115597618Y9141451D01*
X-115597618Y9141451D02*
X-115597618Y8955737D01*
X-115597618Y8955737D02*
X-115659522Y8708118D01*
X-115659522Y8708118D02*
X-115721427Y8584308D01*
X-115721427Y8584308D02*
X-115845237Y8460498D01*
X-115845237Y8460498D02*
X-116030951Y8398594D01*
X-116030951Y8398594D02*
X-116340475Y8398594D01*
D10*
D11*
X-116278570Y-40920454D02*
X-115845236Y-40920454D01*
X-115659522Y-41601406D02*
X-116278570Y-41601406D01*
X-116278570Y-41601406D02*
X-116278570Y-40301406D01*
X-116278570Y-40301406D02*
X-115659522Y-40301406D01*
D10*
D11*
X-115814284Y-90920454D02*
X-116247618Y-90920454D01*
X-116247618Y-91601406D02*
X-116247618Y-90301406D01*
X-116247618Y-90301406D02*
X-115628570Y-90301406D01*
D10*
D11*
X282989002Y133999998D02*
X280989002Y133999998D01*
D10*
D11*
X282989002Y83999998D02*
X280989002Y83999998D01*
D10*
D11*
X282989002Y33999998D02*
X280989002Y33999998D01*
D10*
D11*
X282989002Y-16000002D02*
X280989002Y-16000002D01*
D10*
D11*
X282989002Y-66000002D02*
X280989002Y-66000002D01*
D10*
D11*
X281679478Y158770022D02*
X282298525Y158770022D01*
X281555668Y158398594D02*
X281989001Y159698594D01*
X281989001Y159698594D02*
X282422335Y158398594D01*
D10*
D11*
X282081859Y109079546D02*
X282267573Y109017641D01*
X282267573Y109017641D02*
X282329478Y108955737D01*
X282329478Y108955737D02*
X282391382Y108831927D01*
X282391382Y108831927D02*
X282391382Y108646213D01*
X282391382Y108646213D02*
X282329478Y108522403D01*
X282329478Y108522403D02*
X282267573Y108460498D01*
X282267573Y108460498D02*
X282143763Y108398594D01*
X282143763Y108398594D02*
X281648525Y108398594D01*
X281648525Y108398594D02*
X281648525Y109698594D01*
X281648525Y109698594D02*
X282081859Y109698594D01*
X282081859Y109698594D02*
X282205668Y109636689D01*
X282205668Y109636689D02*
X282267573Y109574784D01*
X282267573Y109574784D02*
X282329478Y109450975D01*
X282329478Y109450975D02*
X282329478Y109327165D01*
X282329478Y109327165D02*
X282267573Y109203356D01*
X282267573Y109203356D02*
X282205668Y109141451D01*
X282205668Y109141451D02*
X282081859Y109079546D01*
X282081859Y109079546D02*
X281648525Y109079546D01*
D10*
D11*
X282391382Y58522403D02*
X282329478Y58460498D01*
X282329478Y58460498D02*
X282143763Y58398594D01*
X282143763Y58398594D02*
X282019954Y58398594D01*
X282019954Y58398594D02*
X281834240Y58460498D01*
X281834240Y58460498D02*
X281710430Y58584308D01*
X281710430Y58584308D02*
X281648525Y58708118D01*
X281648525Y58708118D02*
X281586621Y58955737D01*
X281586621Y58955737D02*
X281586621Y59141451D01*
X281586621Y59141451D02*
X281648525Y59389070D01*
X281648525Y59389070D02*
X281710430Y59512879D01*
X281710430Y59512879D02*
X281834240Y59636689D01*
X281834240Y59636689D02*
X282019954Y59698594D01*
X282019954Y59698594D02*
X282143763Y59698594D01*
X282143763Y59698594D02*
X282329478Y59636689D01*
X282329478Y59636689D02*
X282391382Y59574784D01*
D10*
D11*
X281648525Y8398594D02*
X281648525Y9698594D01*
X281648525Y9698594D02*
X281958049Y9698594D01*
X281958049Y9698594D02*
X282143763Y9636689D01*
X282143763Y9636689D02*
X282267573Y9512879D01*
X282267573Y9512879D02*
X282329478Y9389070D01*
X282329478Y9389070D02*
X282391382Y9141451D01*
X282391382Y9141451D02*
X282391382Y8955737D01*
X282391382Y8955737D02*
X282329478Y8708118D01*
X282329478Y8708118D02*
X282267573Y8584308D01*
X282267573Y8584308D02*
X282143763Y8460498D01*
X282143763Y8460498D02*
X281958049Y8398594D01*
X281958049Y8398594D02*
X281648525Y8398594D01*
D10*
D11*
X281710430Y-40920454D02*
X282143764Y-40920454D01*
X282329478Y-41601406D02*
X281710430Y-41601406D01*
X281710430Y-41601406D02*
X281710430Y-40301406D01*
X281710430Y-40301406D02*
X282329478Y-40301406D01*
D10*
D11*
X282174716Y-90920454D02*
X281741382Y-90920454D01*
X281741382Y-91601406D02*
X281741382Y-90301406D01*
X281741382Y-90301406D02*
X282360430Y-90301406D01*
D10*
D11*
X196346144Y-86796130D02*
X196346144Y-85296130D01*
X196346144Y-85296130D02*
X196703287Y-85296130D01*
X196703287Y-85296130D02*
X196917573Y-85367559D01*
X196917573Y-85367559D02*
X197060430Y-85510416D01*
X197060430Y-85510416D02*
X197131859Y-85653273D01*
X197131859Y-85653273D02*
X197203287Y-85938987D01*
X197203287Y-85938987D02*
X197203287Y-86153273D01*
X197203287Y-86153273D02*
X197131859Y-86438987D01*
X197131859Y-86438987D02*
X197060430Y-86581844D01*
X197060430Y-86581844D02*
X196917573Y-86724702D01*
X196917573Y-86724702D02*
X196703287Y-86796130D01*
X196703287Y-86796130D02*
X196346144Y-86796130D01*
X198489002Y-86796130D02*
X198489002Y-86010416D01*
X198489002Y-86010416D02*
X198417573Y-85867559D01*
X198417573Y-85867559D02*
X198274716Y-85796130D01*
X198274716Y-85796130D02*
X197989002Y-85796130D01*
X197989002Y-85796130D02*
X197846144Y-85867559D01*
X198489002Y-86724702D02*
X198346144Y-86796130D01*
X198346144Y-86796130D02*
X197989002Y-86796130D01*
X197989002Y-86796130D02*
X197846144Y-86724702D01*
X197846144Y-86724702D02*
X197774716Y-86581844D01*
X197774716Y-86581844D02*
X197774716Y-86438987D01*
X197774716Y-86438987D02*
X197846144Y-86296130D01*
X197846144Y-86296130D02*
X197989002Y-86224702D01*
X197989002Y-86224702D02*
X198346144Y-86224702D01*
X198346144Y-86224702D02*
X198489002Y-86153273D01*
X198989002Y-85796130D02*
X199560430Y-85796130D01*
X199203287Y-85296130D02*
X199203287Y-86581844D01*
X199203287Y-86581844D02*
X199274716Y-86724702D01*
X199274716Y-86724702D02*
X199417573Y-86796130D01*
X199417573Y-86796130D02*
X199560430Y-86796130D01*
X200631859Y-86724702D02*
X200489002Y-86796130D01*
X200489002Y-86796130D02*
X200203288Y-86796130D01*
X200203288Y-86796130D02*
X200060430Y-86724702D01*
X200060430Y-86724702D02*
X199989002Y-86581844D01*
X199989002Y-86581844D02*
X199989002Y-86010416D01*
X199989002Y-86010416D02*
X200060430Y-85867559D01*
X200060430Y-85867559D02*
X200203288Y-85796130D01*
X200203288Y-85796130D02*
X200489002Y-85796130D01*
X200489002Y-85796130D02*
X200631859Y-85867559D01*
X200631859Y-85867559D02*
X200703288Y-86010416D01*
X200703288Y-86010416D02*
X200703288Y-86153273D01*
X200703288Y-86153273D02*
X199989002Y-86296130D01*
X201346144Y-86653273D02*
X201417573Y-86724702D01*
X201417573Y-86724702D02*
X201346144Y-86796130D01*
X201346144Y-86796130D02*
X201274716Y-86724702D01*
X201274716Y-86724702D02*
X201346144Y-86653273D01*
X201346144Y-86653273D02*
X201346144Y-86796130D01*
X201346144Y-85867559D02*
X201417573Y-85938987D01*
X201417573Y-85938987D02*
X201346144Y-86010416D01*
X201346144Y-86010416D02*
X201274716Y-85938987D01*
X201274716Y-85938987D02*
X201346144Y-85867559D01*
X201346144Y-85867559D02*
X201346144Y-86010416D01*
D10*
D11*
X172989002Y-87502202D02*
X280989002Y-87502202D01*
D10*
D11*
X174346144Y-89596130D02*
X174346144Y-88096130D01*
X175203287Y-89596130D02*
X174560430Y-88738987D01*
X175203287Y-88096130D02*
X174346144Y-88953273D01*
X175846144Y-89596130D02*
X175846144Y-88596130D01*
X175846144Y-88096130D02*
X175774716Y-88167559D01*
X175774716Y-88167559D02*
X175846144Y-88238987D01*
X175846144Y-88238987D02*
X175917573Y-88167559D01*
X175917573Y-88167559D02*
X175846144Y-88096130D01*
X175846144Y-88096130D02*
X175846144Y-88238987D01*
X177417573Y-89453273D02*
X177346145Y-89524702D01*
X177346145Y-89524702D02*
X177131859Y-89596130D01*
X177131859Y-89596130D02*
X176989002Y-89596130D01*
X176989002Y-89596130D02*
X176774716Y-89524702D01*
X176774716Y-89524702D02*
X176631859Y-89381844D01*
X176631859Y-89381844D02*
X176560430Y-89238987D01*
X176560430Y-89238987D02*
X176489002Y-88953273D01*
X176489002Y-88953273D02*
X176489002Y-88738987D01*
X176489002Y-88738987D02*
X176560430Y-88453273D01*
X176560430Y-88453273D02*
X176631859Y-88310416D01*
X176631859Y-88310416D02*
X176774716Y-88167559D01*
X176774716Y-88167559D02*
X176989002Y-88096130D01*
X176989002Y-88096130D02*
X177131859Y-88096130D01*
X177131859Y-88096130D02*
X177346145Y-88167559D01*
X177346145Y-88167559D02*
X177417573Y-88238987D01*
X178703288Y-89596130D02*
X178703288Y-88810416D01*
X178703288Y-88810416D02*
X178631859Y-88667559D01*
X178631859Y-88667559D02*
X178489002Y-88596130D01*
X178489002Y-88596130D02*
X178203288Y-88596130D01*
X178203288Y-88596130D02*
X178060430Y-88667559D01*
X178703288Y-89524702D02*
X178560430Y-89596130D01*
X178560430Y-89596130D02*
X178203288Y-89596130D01*
X178203288Y-89596130D02*
X178060430Y-89524702D01*
X178060430Y-89524702D02*
X177989002Y-89381844D01*
X177989002Y-89381844D02*
X177989002Y-89238987D01*
X177989002Y-89238987D02*
X178060430Y-89096130D01*
X178060430Y-89096130D02*
X178203288Y-89024702D01*
X178203288Y-89024702D02*
X178560430Y-89024702D01*
X178560430Y-89024702D02*
X178703288Y-88953273D01*
X180060431Y-89596130D02*
X180060431Y-88096130D01*
X180060431Y-89524702D02*
X179917573Y-89596130D01*
X179917573Y-89596130D02*
X179631859Y-89596130D01*
X179631859Y-89596130D02*
X179489002Y-89524702D01*
X179489002Y-89524702D02*
X179417573Y-89453273D01*
X179417573Y-89453273D02*
X179346145Y-89310416D01*
X179346145Y-89310416D02*
X179346145Y-88881844D01*
X179346145Y-88881844D02*
X179417573Y-88738987D01*
X179417573Y-88738987D02*
X179489002Y-88667559D01*
X179489002Y-88667559D02*
X179631859Y-88596130D01*
X179631859Y-88596130D02*
X179917573Y-88596130D01*
X179917573Y-88596130D02*
X180060431Y-88667559D01*
X181917573Y-88810416D02*
X182417573Y-88810416D01*
X182631859Y-89596130D02*
X181917573Y-89596130D01*
X181917573Y-89596130D02*
X181917573Y-88096130D01*
X181917573Y-88096130D02*
X182631859Y-88096130D01*
X183274716Y-89453273D02*
X183346145Y-89524702D01*
X183346145Y-89524702D02*
X183274716Y-89596130D01*
X183274716Y-89596130D02*
X183203288Y-89524702D01*
X183203288Y-89524702D02*
X183274716Y-89453273D01*
X183274716Y-89453273D02*
X183274716Y-89596130D01*
X183989002Y-89596130D02*
X183989002Y-88096130D01*
X183989002Y-88096130D02*
X184346145Y-88096130D01*
X184346145Y-88096130D02*
X184560431Y-88167559D01*
X184560431Y-88167559D02*
X184703288Y-88310416D01*
X184703288Y-88310416D02*
X184774717Y-88453273D01*
X184774717Y-88453273D02*
X184846145Y-88738987D01*
X184846145Y-88738987D02*
X184846145Y-88953273D01*
X184846145Y-88953273D02*
X184774717Y-89238987D01*
X184774717Y-89238987D02*
X184703288Y-89381844D01*
X184703288Y-89381844D02*
X184560431Y-89524702D01*
X184560431Y-89524702D02*
X184346145Y-89596130D01*
X184346145Y-89596130D02*
X183989002Y-89596130D01*
X185489002Y-89453273D02*
X185560431Y-89524702D01*
X185560431Y-89524702D02*
X185489002Y-89596130D01*
X185489002Y-89596130D02*
X185417574Y-89524702D01*
X185417574Y-89524702D02*
X185489002Y-89453273D01*
X185489002Y-89453273D02*
X185489002Y-89596130D01*
X186131860Y-89167559D02*
X186846146Y-89167559D01*
X185989003Y-89596130D02*
X186489003Y-88096130D01*
X186489003Y-88096130D02*
X186989003Y-89596130D01*
X187489002Y-89453273D02*
X187560431Y-89524702D01*
X187560431Y-89524702D02*
X187489002Y-89596130D01*
X187489002Y-89596130D02*
X187417574Y-89524702D01*
X187417574Y-89524702D02*
X187489002Y-89453273D01*
X187489002Y-89453273D02*
X187489002Y-89596130D01*
X190489002Y-89596130D02*
X190489002Y-88096130D01*
X190631860Y-89024702D02*
X191060431Y-89596130D01*
X191060431Y-88596130D02*
X190489002Y-89167559D01*
X191703288Y-89596130D02*
X191703288Y-88596130D01*
X191703288Y-88096130D02*
X191631860Y-88167559D01*
X191631860Y-88167559D02*
X191703288Y-88238987D01*
X191703288Y-88238987D02*
X191774717Y-88167559D01*
X191774717Y-88167559D02*
X191703288Y-88096130D01*
X191703288Y-88096130D02*
X191703288Y-88238987D01*
X193060432Y-89524702D02*
X192917574Y-89596130D01*
X192917574Y-89596130D02*
X192631860Y-89596130D01*
X192631860Y-89596130D02*
X192489003Y-89524702D01*
X192489003Y-89524702D02*
X192417574Y-89453273D01*
X192417574Y-89453273D02*
X192346146Y-89310416D01*
X192346146Y-89310416D02*
X192346146Y-88881844D01*
X192346146Y-88881844D02*
X192417574Y-88738987D01*
X192417574Y-88738987D02*
X192489003Y-88667559D01*
X192489003Y-88667559D02*
X192631860Y-88596130D01*
X192631860Y-88596130D02*
X192917574Y-88596130D01*
X192917574Y-88596130D02*
X193060432Y-88667559D01*
X194346146Y-89596130D02*
X194346146Y-88810416D01*
X194346146Y-88810416D02*
X194274717Y-88667559D01*
X194274717Y-88667559D02*
X194131860Y-88596130D01*
X194131860Y-88596130D02*
X193846146Y-88596130D01*
X193846146Y-88596130D02*
X193703288Y-88667559D01*
X194346146Y-89524702D02*
X194203288Y-89596130D01*
X194203288Y-89596130D02*
X193846146Y-89596130D01*
X193846146Y-89596130D02*
X193703288Y-89524702D01*
X193703288Y-89524702D02*
X193631860Y-89381844D01*
X193631860Y-89381844D02*
X193631860Y-89238987D01*
X193631860Y-89238987D02*
X193703288Y-89096130D01*
X193703288Y-89096130D02*
X193846146Y-89024702D01*
X193846146Y-89024702D02*
X194203288Y-89024702D01*
X194203288Y-89024702D02*
X194346146Y-88953273D01*
X195703289Y-89596130D02*
X195703289Y-88096130D01*
X195703289Y-89524702D02*
X195560431Y-89596130D01*
X195560431Y-89596130D02*
X195274717Y-89596130D01*
X195274717Y-89596130D02*
X195131860Y-89524702D01*
X195131860Y-89524702D02*
X195060431Y-89453273D01*
X195060431Y-89453273D02*
X194989003Y-89310416D01*
X194989003Y-89310416D02*
X194989003Y-88881844D01*
X194989003Y-88881844D02*
X195060431Y-88738987D01*
X195060431Y-88738987D02*
X195131860Y-88667559D01*
X195131860Y-88667559D02*
X195274717Y-88596130D01*
X195274717Y-88596130D02*
X195560431Y-88596130D01*
X195560431Y-88596130D02*
X195703289Y-88667559D01*
X197417574Y-88096130D02*
X198417574Y-88096130D01*
X198417574Y-88096130D02*
X197774717Y-89596130D01*
X198989002Y-89453273D02*
X199060431Y-89524702D01*
X199060431Y-89524702D02*
X198989002Y-89596130D01*
X198989002Y-89596130D02*
X198917574Y-89524702D01*
X198917574Y-89524702D02*
X198989002Y-89453273D01*
X198989002Y-89453273D02*
X198989002Y-89596130D01*
X199989003Y-88096130D02*
X200131860Y-88096130D01*
X200131860Y-88096130D02*
X200274717Y-88167559D01*
X200274717Y-88167559D02*
X200346146Y-88238987D01*
X200346146Y-88238987D02*
X200417574Y-88381844D01*
X200417574Y-88381844D02*
X200489003Y-88667559D01*
X200489003Y-88667559D02*
X200489003Y-89024702D01*
X200489003Y-89024702D02*
X200417574Y-89310416D01*
X200417574Y-89310416D02*
X200346146Y-89453273D01*
X200346146Y-89453273D02*
X200274717Y-89524702D01*
X200274717Y-89524702D02*
X200131860Y-89596130D01*
X200131860Y-89596130D02*
X199989003Y-89596130D01*
X199989003Y-89596130D02*
X199846146Y-89524702D01*
X199846146Y-89524702D02*
X199774717Y-89453273D01*
X199774717Y-89453273D02*
X199703288Y-89310416D01*
X199703288Y-89310416D02*
X199631860Y-89024702D01*
X199631860Y-89024702D02*
X199631860Y-88667559D01*
X199631860Y-88667559D02*
X199703288Y-88381844D01*
X199703288Y-88381844D02*
X199774717Y-88238987D01*
X199774717Y-88238987D02*
X199846146Y-88167559D01*
X199846146Y-88167559D02*
X199989003Y-88096130D01*
X201131859Y-89453273D02*
X201203288Y-89524702D01*
X201203288Y-89524702D02*
X201131859Y-89596130D01*
X201131859Y-89596130D02*
X201060431Y-89524702D01*
X201060431Y-89524702D02*
X201131859Y-89453273D01*
X201131859Y-89453273D02*
X201131859Y-89596130D01*
X202631860Y-89596130D02*
X201774717Y-89596130D01*
X202203288Y-89596130D02*
X202203288Y-88096130D01*
X202203288Y-88096130D02*
X202060431Y-88310416D01*
X202060431Y-88310416D02*
X201917574Y-88453273D01*
X201917574Y-88453273D02*
X201774717Y-88524702D01*
D10*
D11*
X172989002Y-84502202D02*
X280989002Y-84502202D01*
D10*
D12*
X260203287Y-86796130D02*
X259703287Y-86081844D01*
X259346144Y-86796130D02*
X259346144Y-85296130D01*
X259346144Y-85296130D02*
X259917573Y-85296130D01*
X259917573Y-85296130D02*
X260060430Y-85367559D01*
X260060430Y-85367559D02*
X260131859Y-85438987D01*
X260131859Y-85438987D02*
X260203287Y-85581844D01*
X260203287Y-85581844D02*
X260203287Y-85796130D01*
X260203287Y-85796130D02*
X260131859Y-85938987D01*
X260131859Y-85938987D02*
X260060430Y-86010416D01*
X260060430Y-86010416D02*
X259917573Y-86081844D01*
X259917573Y-86081844D02*
X259346144Y-86081844D01*
X261417573Y-86724702D02*
X261274716Y-86796130D01*
X261274716Y-86796130D02*
X260989002Y-86796130D01*
X260989002Y-86796130D02*
X260846144Y-86724702D01*
X260846144Y-86724702D02*
X260774716Y-86581844D01*
X260774716Y-86581844D02*
X260774716Y-86010416D01*
X260774716Y-86010416D02*
X260846144Y-85867559D01*
X260846144Y-85867559D02*
X260989002Y-85796130D01*
X260989002Y-85796130D02*
X261274716Y-85796130D01*
X261274716Y-85796130D02*
X261417573Y-85867559D01*
X261417573Y-85867559D02*
X261489002Y-86010416D01*
X261489002Y-86010416D02*
X261489002Y-86153273D01*
X261489002Y-86153273D02*
X260774716Y-86296130D01*
X261989001Y-85796130D02*
X262346144Y-86796130D01*
X262346144Y-86796130D02*
X262703287Y-85796130D01*
X263274715Y-86653273D02*
X263346144Y-86724702D01*
X263346144Y-86724702D02*
X263274715Y-86796130D01*
X263274715Y-86796130D02*
X263203287Y-86724702D01*
X263203287Y-86724702D02*
X263274715Y-86653273D01*
X263274715Y-86653273D02*
X263274715Y-86796130D01*
X263274715Y-85867559D02*
X263346144Y-85938987D01*
X263346144Y-85938987D02*
X263274715Y-86010416D01*
X263274715Y-86010416D02*
X263203287Y-85938987D01*
X263203287Y-85938987D02*
X263274715Y-85867559D01*
X263274715Y-85867559D02*
X263274715Y-86010416D01*
D10*
D11*
X174274716Y-86724702D02*
X174489002Y-86796130D01*
X174489002Y-86796130D02*
X174846144Y-86796130D01*
X174846144Y-86796130D02*
X174989002Y-86724702D01*
X174989002Y-86724702D02*
X175060430Y-86653273D01*
X175060430Y-86653273D02*
X175131859Y-86510416D01*
X175131859Y-86510416D02*
X175131859Y-86367559D01*
X175131859Y-86367559D02*
X175060430Y-86224702D01*
X175060430Y-86224702D02*
X174989002Y-86153273D01*
X174989002Y-86153273D02*
X174846144Y-86081844D01*
X174846144Y-86081844D02*
X174560430Y-86010416D01*
X174560430Y-86010416D02*
X174417573Y-85938987D01*
X174417573Y-85938987D02*
X174346144Y-85867559D01*
X174346144Y-85867559D02*
X174274716Y-85724702D01*
X174274716Y-85724702D02*
X174274716Y-85581844D01*
X174274716Y-85581844D02*
X174346144Y-85438987D01*
X174346144Y-85438987D02*
X174417573Y-85367559D01*
X174417573Y-85367559D02*
X174560430Y-85296130D01*
X174560430Y-85296130D02*
X174917573Y-85296130D01*
X174917573Y-85296130D02*
X175131859Y-85367559D01*
X175774715Y-86796130D02*
X175774715Y-85796130D01*
X175774715Y-85296130D02*
X175703287Y-85367559D01*
X175703287Y-85367559D02*
X175774715Y-85438987D01*
X175774715Y-85438987D02*
X175846144Y-85367559D01*
X175846144Y-85367559D02*
X175774715Y-85296130D01*
X175774715Y-85296130D02*
X175774715Y-85438987D01*
X176346144Y-85796130D02*
X177131859Y-85796130D01*
X177131859Y-85796130D02*
X176346144Y-86796130D01*
X176346144Y-86796130D02*
X177131859Y-86796130D01*
X178274716Y-86724702D02*
X178131859Y-86796130D01*
X178131859Y-86796130D02*
X177846145Y-86796130D01*
X177846145Y-86796130D02*
X177703287Y-86724702D01*
X177703287Y-86724702D02*
X177631859Y-86581844D01*
X177631859Y-86581844D02*
X177631859Y-86010416D01*
X177631859Y-86010416D02*
X177703287Y-85867559D01*
X177703287Y-85867559D02*
X177846145Y-85796130D01*
X177846145Y-85796130D02*
X178131859Y-85796130D01*
X178131859Y-85796130D02*
X178274716Y-85867559D01*
X178274716Y-85867559D02*
X178346145Y-86010416D01*
X178346145Y-86010416D02*
X178346145Y-86153273D01*
X178346145Y-86153273D02*
X177631859Y-86296130D01*
X178989001Y-86653273D02*
X179060430Y-86724702D01*
X179060430Y-86724702D02*
X178989001Y-86796130D01*
X178989001Y-86796130D02*
X178917573Y-86724702D01*
X178917573Y-86724702D02*
X178989001Y-86653273D01*
X178989001Y-86653273D02*
X178989001Y-86796130D01*
X178989001Y-85867559D02*
X179060430Y-85938987D01*
X179060430Y-85938987D02*
X178989001Y-86010416D01*
X178989001Y-86010416D02*
X178917573Y-85938987D01*
X178917573Y-85938987D02*
X178989001Y-85867559D01*
X178989001Y-85867559D02*
X178989001Y-86010416D01*
X180774716Y-86367559D02*
X181489002Y-86367559D01*
X180631859Y-86796130D02*
X181131859Y-85296130D01*
X181131859Y-85296130D02*
X181631859Y-86796130D01*
X181989001Y-85296130D02*
X182917573Y-85296130D01*
X182917573Y-85296130D02*
X182417573Y-85867559D01*
X182417573Y-85867559D02*
X182631858Y-85867559D01*
X182631858Y-85867559D02*
X182774716Y-85938987D01*
X182774716Y-85938987D02*
X182846144Y-86010416D01*
X182846144Y-86010416D02*
X182917573Y-86153273D01*
X182917573Y-86153273D02*
X182917573Y-86510416D01*
X182917573Y-86510416D02*
X182846144Y-86653273D01*
X182846144Y-86653273D02*
X182774716Y-86724702D01*
X182774716Y-86724702D02*
X182631858Y-86796130D01*
X182631858Y-86796130D02*
X182203287Y-86796130D01*
X182203287Y-86796130D02*
X182060430Y-86724702D01*
X182060430Y-86724702D02*
X181989001Y-86653273D01*
D10*
D11*
X259346144Y-89596130D02*
X259346144Y-88096130D01*
X260703288Y-89596130D02*
X260703288Y-88096130D01*
X260703288Y-89524702D02*
X260560430Y-89596130D01*
X260560430Y-89596130D02*
X260274716Y-89596130D01*
X260274716Y-89596130D02*
X260131859Y-89524702D01*
X260131859Y-89524702D02*
X260060430Y-89453273D01*
X260060430Y-89453273D02*
X259989002Y-89310416D01*
X259989002Y-89310416D02*
X259989002Y-88881844D01*
X259989002Y-88881844D02*
X260060430Y-88738987D01*
X260060430Y-88738987D02*
X260131859Y-88667559D01*
X260131859Y-88667559D02*
X260274716Y-88596130D01*
X260274716Y-88596130D02*
X260560430Y-88596130D01*
X260560430Y-88596130D02*
X260703288Y-88667559D01*
X261417573Y-89453273D02*
X261489002Y-89524702D01*
X261489002Y-89524702D02*
X261417573Y-89596130D01*
X261417573Y-89596130D02*
X261346145Y-89524702D01*
X261346145Y-89524702D02*
X261417573Y-89453273D01*
X261417573Y-89453273D02*
X261417573Y-89596130D01*
X261417573Y-88667559D02*
X261489002Y-88738987D01*
X261489002Y-88738987D02*
X261417573Y-88810416D01*
X261417573Y-88810416D02*
X261346145Y-88738987D01*
X261346145Y-88738987D02*
X261417573Y-88667559D01*
X261417573Y-88667559D02*
X261417573Y-88810416D01*
X264060431Y-89596130D02*
X263203288Y-89596130D01*
X263631859Y-89596130D02*
X263631859Y-88096130D01*
X263631859Y-88096130D02*
X263489002Y-88310416D01*
X263489002Y-88310416D02*
X263346145Y-88453273D01*
X263346145Y-88453273D02*
X263203288Y-88524702D01*
X265774716Y-88024702D02*
X264489002Y-89953273D01*
X267060431Y-89596130D02*
X266203288Y-89596130D01*
X266631859Y-89596130D02*
X266631859Y-88096130D01*
X266631859Y-88096130D02*
X266489002Y-88310416D01*
X266489002Y-88310416D02*
X266346145Y-88453273D01*
X266346145Y-88453273D02*
X266203288Y-88524702D01*
D10*
D11*
X172989002Y-80502202D02*
X280989002Y-80502202D01*
D10*
D13*
X174417573Y-81227440D02*
X175560430Y-81227440D01*
X174739002Y-83227440D02*
X174989002Y-81227440D01*
X175965192Y-83227440D02*
X176131859Y-81894106D01*
X176215192Y-81227440D02*
X176108049Y-81322678D01*
X176108049Y-81322678D02*
X176191383Y-81417916D01*
X176191383Y-81417916D02*
X176298526Y-81322678D01*
X176298526Y-81322678D02*
X176215192Y-81227440D01*
X176215192Y-81227440D02*
X176191383Y-81417916D01*
X176786621Y-81894106D02*
X177548525Y-81894106D01*
X177155668Y-81227440D02*
X176941383Y-82941725D01*
X176941383Y-82941725D02*
X177012811Y-83132202D01*
X177012811Y-83132202D02*
X177191383Y-83227440D01*
X177191383Y-83227440D02*
X177381859Y-83227440D01*
X178322335Y-83227440D02*
X178143763Y-83132202D01*
X178143763Y-83132202D02*
X178072335Y-82941725D01*
X178072335Y-82941725D02*
X178286620Y-81227440D01*
X179846144Y-83132202D02*
X179643763Y-83227440D01*
X179643763Y-83227440D02*
X179262810Y-83227440D01*
X179262810Y-83227440D02*
X179084239Y-83132202D01*
X179084239Y-83132202D02*
X179012810Y-82941725D01*
X179012810Y-82941725D02*
X179108049Y-82179821D01*
X179108049Y-82179821D02*
X179227096Y-81989344D01*
X179227096Y-81989344D02*
X179429477Y-81894106D01*
X179429477Y-81894106D02*
X179810429Y-81894106D01*
X179810429Y-81894106D02*
X179989001Y-81989344D01*
X179989001Y-81989344D02*
X180060429Y-82179821D01*
X180060429Y-82179821D02*
X180036620Y-82370297D01*
X180036620Y-82370297D02*
X179060429Y-82560773D01*
X180798525Y-83036963D02*
X180881858Y-83132202D01*
X180881858Y-83132202D02*
X180774715Y-83227440D01*
X180774715Y-83227440D02*
X180691382Y-83132202D01*
X180691382Y-83132202D02*
X180798525Y-83036963D01*
X180798525Y-83036963D02*
X180774715Y-83227440D01*
X180929477Y-81989344D02*
X181012810Y-82084582D01*
X181012810Y-82084582D02*
X180905668Y-82179821D01*
X180905668Y-82179821D02*
X180822334Y-82084582D01*
X180822334Y-82084582D02*
X180929477Y-81989344D01*
X180929477Y-81989344D02*
X180905668Y-82179821D01*
X183239001Y-83227440D02*
X183489001Y-81227440D01*
X183489001Y-81227440D02*
X184250906Y-81227440D01*
X184250906Y-81227440D02*
X184429477Y-81322678D01*
X184429477Y-81322678D02*
X184512811Y-81417916D01*
X184512811Y-81417916D02*
X184584239Y-81608392D01*
X184584239Y-81608392D02*
X184548525Y-81894106D01*
X184548525Y-81894106D02*
X184429477Y-82084582D01*
X184429477Y-82084582D02*
X184322335Y-82179821D01*
X184322335Y-82179821D02*
X184119954Y-82275059D01*
X184119954Y-82275059D02*
X183358049Y-82275059D01*
X186393763Y-83036963D02*
X186286620Y-83132202D01*
X186286620Y-83132202D02*
X185989001Y-83227440D01*
X185989001Y-83227440D02*
X185798525Y-83227440D01*
X185798525Y-83227440D02*
X185524715Y-83132202D01*
X185524715Y-83132202D02*
X185358049Y-82941725D01*
X185358049Y-82941725D02*
X185286620Y-82751249D01*
X185286620Y-82751249D02*
X185239001Y-82370297D01*
X185239001Y-82370297D02*
X185274715Y-82084582D01*
X185274715Y-82084582D02*
X185417572Y-81703630D01*
X185417572Y-81703630D02*
X185536620Y-81513154D01*
X185536620Y-81513154D02*
X185750906Y-81322678D01*
X185750906Y-81322678D02*
X186048525Y-81227440D01*
X186048525Y-81227440D02*
X186239001Y-81227440D01*
X186239001Y-81227440D02*
X186512811Y-81322678D01*
X186512811Y-81322678D02*
X186596144Y-81417916D01*
X187310429Y-82465535D02*
X188834239Y-82465535D01*
X190322334Y-81227440D02*
X190512810Y-81227440D01*
X190512810Y-81227440D02*
X190691381Y-81322678D01*
X190691381Y-81322678D02*
X190774715Y-81417916D01*
X190774715Y-81417916D02*
X190846143Y-81608392D01*
X190846143Y-81608392D02*
X190893762Y-81989344D01*
X190893762Y-81989344D02*
X190834238Y-82465535D01*
X190834238Y-82465535D02*
X190691381Y-82846487D01*
X190691381Y-82846487D02*
X190572334Y-83036963D01*
X190572334Y-83036963D02*
X190465191Y-83132202D01*
X190465191Y-83132202D02*
X190262810Y-83227440D01*
X190262810Y-83227440D02*
X190072334Y-83227440D01*
X190072334Y-83227440D02*
X189893762Y-83132202D01*
X189893762Y-83132202D02*
X189810429Y-83036963D01*
X189810429Y-83036963D02*
X189739000Y-82846487D01*
X189739000Y-82846487D02*
X189691381Y-82465535D01*
X189691381Y-82465535D02*
X189750905Y-81989344D01*
X189750905Y-81989344D02*
X189893762Y-81608392D01*
X189893762Y-81608392D02*
X190012810Y-81417916D01*
X190012810Y-81417916D02*
X190119953Y-81322678D01*
X190119953Y-81322678D02*
X190322334Y-81227440D01*
X191715191Y-81417916D02*
X191822333Y-81322678D01*
X191822333Y-81322678D02*
X192024714Y-81227440D01*
X192024714Y-81227440D02*
X192500905Y-81227440D01*
X192500905Y-81227440D02*
X192679476Y-81322678D01*
X192679476Y-81322678D02*
X192762810Y-81417916D01*
X192762810Y-81417916D02*
X192834238Y-81608392D01*
X192834238Y-81608392D02*
X192810429Y-81798868D01*
X192810429Y-81798868D02*
X192679476Y-82084582D01*
X192679476Y-82084582D02*
X191393762Y-83227440D01*
X191393762Y-83227440D02*
X192631857Y-83227440D01*
X195131858Y-82179821D02*
X195798524Y-82179821D01*
X195953286Y-83227440D02*
X195000905Y-83227440D01*
X195000905Y-83227440D02*
X195250905Y-81227440D01*
X195250905Y-81227440D02*
X196203286Y-81227440D01*
X196798524Y-83227440D02*
X197048524Y-81227440D01*
X197048524Y-81227440D02*
X197524715Y-81227440D01*
X197524715Y-81227440D02*
X197798524Y-81322678D01*
X197798524Y-81322678D02*
X197965191Y-81513154D01*
X197965191Y-81513154D02*
X198036619Y-81703630D01*
X198036619Y-81703630D02*
X198084239Y-82084582D01*
X198084239Y-82084582D02*
X198048524Y-82370297D01*
X198048524Y-82370297D02*
X197905667Y-82751249D01*
X197905667Y-82751249D02*
X197786619Y-82941725D01*
X197786619Y-82941725D02*
X197572334Y-83132202D01*
X197572334Y-83132202D02*
X197274715Y-83227440D01*
X197274715Y-83227440D02*
X196798524Y-83227440D01*
X198786619Y-83227440D02*
X199036619Y-81227440D01*
X199036619Y-81227440D02*
X199524714Y-82656011D01*
X199524714Y-82656011D02*
X200369953Y-81227440D01*
X200369953Y-81227440D02*
X200119953Y-83227440D01*
X202584239Y-83227440D02*
X202834239Y-81227440D01*
X202834239Y-81227440D02*
X203596144Y-81227440D01*
X203596144Y-81227440D02*
X203774715Y-81322678D01*
X203774715Y-81322678D02*
X203858049Y-81417916D01*
X203858049Y-81417916D02*
X203929477Y-81608392D01*
X203929477Y-81608392D02*
X203893763Y-81894106D01*
X203893763Y-81894106D02*
X203774715Y-82084582D01*
X203774715Y-82084582D02*
X203667573Y-82179821D01*
X203667573Y-82179821D02*
X203465192Y-82275059D01*
X203465192Y-82275059D02*
X202703287Y-82275059D01*
X204822334Y-81227440D02*
X204619953Y-82846487D01*
X204619953Y-82846487D02*
X204691382Y-83036963D01*
X204691382Y-83036963D02*
X204774715Y-83132202D01*
X204774715Y-83132202D02*
X204953287Y-83227440D01*
X204953287Y-83227440D02*
X205334239Y-83227440D01*
X205334239Y-83227440D02*
X205536620Y-83132202D01*
X205536620Y-83132202D02*
X205643763Y-83036963D01*
X205643763Y-83036963D02*
X205762810Y-82846487D01*
X205762810Y-82846487D02*
X205965191Y-81227440D01*
X207608048Y-83227440D02*
X206655667Y-83227440D01*
X206655667Y-83227440D02*
X206905667Y-81227440D01*
X208179477Y-83132202D02*
X208453286Y-83227440D01*
X208453286Y-83227440D02*
X208929477Y-83227440D01*
X208929477Y-83227440D02*
X209131858Y-83132202D01*
X209131858Y-83132202D02*
X209239001Y-83036963D01*
X209239001Y-83036963D02*
X209358048Y-82846487D01*
X209358048Y-82846487D02*
X209381858Y-82656011D01*
X209381858Y-82656011D02*
X209310429Y-82465535D01*
X209310429Y-82465535D02*
X209227096Y-82370297D01*
X209227096Y-82370297D02*
X209048525Y-82275059D01*
X209048525Y-82275059D02*
X208679477Y-82179821D01*
X208679477Y-82179821D02*
X208500905Y-82084582D01*
X208500905Y-82084582D02*
X208417572Y-81989344D01*
X208417572Y-81989344D02*
X208346144Y-81798868D01*
X208346144Y-81798868D02*
X208369953Y-81608392D01*
X208369953Y-81608392D02*
X208489001Y-81417916D01*
X208489001Y-81417916D02*
X208596144Y-81322678D01*
X208596144Y-81322678D02*
X208798525Y-81227440D01*
X208798525Y-81227440D02*
X209274715Y-81227440D01*
X209274715Y-81227440D02*
X209548525Y-81322678D01*
X210286620Y-82179821D02*
X210953286Y-82179821D01*
X211108048Y-83227440D02*
X210155667Y-83227440D01*
X210155667Y-83227440D02*
X210405667Y-81227440D01*
X210405667Y-81227440D02*
X211358048Y-81227440D01*
X214762811Y-81322678D02*
X214584239Y-81227440D01*
X214584239Y-81227440D02*
X214298525Y-81227440D01*
X214298525Y-81227440D02*
X214000906Y-81322678D01*
X214000906Y-81322678D02*
X213786620Y-81513154D01*
X213786620Y-81513154D02*
X213667572Y-81703630D01*
X213667572Y-81703630D02*
X213524715Y-82084582D01*
X213524715Y-82084582D02*
X213489001Y-82370297D01*
X213489001Y-82370297D02*
X213536620Y-82751249D01*
X213536620Y-82751249D02*
X213608049Y-82941725D01*
X213608049Y-82941725D02*
X213774715Y-83132202D01*
X213774715Y-83132202D02*
X214048525Y-83227440D01*
X214048525Y-83227440D02*
X214239001Y-83227440D01*
X214239001Y-83227440D02*
X214536620Y-83132202D01*
X214536620Y-83132202D02*
X214643763Y-83036963D01*
X214643763Y-83036963D02*
X214727096Y-82370297D01*
X214727096Y-82370297D02*
X214346144Y-82370297D01*
X215596144Y-82179821D02*
X216262810Y-82179821D01*
X216417572Y-83227440D02*
X215465191Y-83227440D01*
X215465191Y-83227440D02*
X215715191Y-81227440D01*
X215715191Y-81227440D02*
X216667572Y-81227440D01*
X217262810Y-83227440D02*
X217512810Y-81227440D01*
X217512810Y-81227440D02*
X218405667Y-83227440D01*
X218405667Y-83227440D02*
X218655667Y-81227440D01*
X219477096Y-82179821D02*
X220143762Y-82179821D01*
X220298524Y-83227440D02*
X219346143Y-83227440D01*
X219346143Y-83227440D02*
X219596143Y-81227440D01*
X219596143Y-81227440D02*
X220548524Y-81227440D01*
X222286619Y-83227440D02*
X221739000Y-82275059D01*
X221143762Y-83227440D02*
X221393762Y-81227440D01*
X221393762Y-81227440D02*
X222155667Y-81227440D01*
X222155667Y-81227440D02*
X222334238Y-81322678D01*
X222334238Y-81322678D02*
X222417572Y-81417916D01*
X222417572Y-81417916D02*
X222489000Y-81608392D01*
X222489000Y-81608392D02*
X222453286Y-81894106D01*
X222453286Y-81894106D02*
X222334238Y-82084582D01*
X222334238Y-82084582D02*
X222227096Y-82179821D01*
X222227096Y-82179821D02*
X222024715Y-82275059D01*
X222024715Y-82275059D02*
X221262810Y-82275059D01*
X223108048Y-82656011D02*
X224060429Y-82656011D01*
X222846143Y-83227440D02*
X223762810Y-81227440D01*
X223762810Y-81227440D02*
X224179476Y-83227440D01*
X224798524Y-81227440D02*
X225941381Y-81227440D01*
X225119953Y-83227440D02*
X225369953Y-81227440D01*
X226977096Y-81227440D02*
X227358048Y-81227440D01*
X227358048Y-81227440D02*
X227536619Y-81322678D01*
X227536619Y-81322678D02*
X227703286Y-81513154D01*
X227703286Y-81513154D02*
X227750905Y-81894106D01*
X227750905Y-81894106D02*
X227667572Y-82560773D01*
X227667572Y-82560773D02*
X227524715Y-82941725D01*
X227524715Y-82941725D02*
X227310429Y-83132202D01*
X227310429Y-83132202D02*
X227108048Y-83227440D01*
X227108048Y-83227440D02*
X226727096Y-83227440D01*
X226727096Y-83227440D02*
X226548524Y-83132202D01*
X226548524Y-83132202D02*
X226381858Y-82941725D01*
X226381858Y-82941725D02*
X226334238Y-82560773D01*
X226334238Y-82560773D02*
X226417572Y-81894106D01*
X226417572Y-81894106D02*
X226560429Y-81513154D01*
X226560429Y-81513154D02*
X226774715Y-81322678D01*
X226774715Y-81322678D02*
X226977096Y-81227440D01*
X229572333Y-83227440D02*
X229024714Y-82275059D01*
X228429476Y-83227440D02*
X228679476Y-81227440D01*
X228679476Y-81227440D02*
X229441381Y-81227440D01*
X229441381Y-81227440D02*
X229619952Y-81322678D01*
X229619952Y-81322678D02*
X229703286Y-81417916D01*
X229703286Y-81417916D02*
X229774714Y-81608392D01*
X229774714Y-81608392D02*
X229739000Y-81894106D01*
X229739000Y-81894106D02*
X229619952Y-82084582D01*
X229619952Y-82084582D02*
X229512810Y-82179821D01*
X229512810Y-82179821D02*
X229310429Y-82275059D01*
X229310429Y-82275059D02*
X228548524Y-82275059D01*
D10*
D11*
X174846144Y-78610416D02*
X174346144Y-78610416D01*
X174346144Y-79396130D02*
X174346144Y-77896130D01*
X174346144Y-77896130D02*
X175060430Y-77896130D01*
X175631858Y-79396130D02*
X175631858Y-78396130D01*
X175631858Y-77896130D02*
X175560430Y-77967559D01*
X175560430Y-77967559D02*
X175631858Y-78038987D01*
X175631858Y-78038987D02*
X175703287Y-77967559D01*
X175703287Y-77967559D02*
X175631858Y-77896130D01*
X175631858Y-77896130D02*
X175631858Y-78038987D01*
X176560430Y-79396130D02*
X176417573Y-79324702D01*
X176417573Y-79324702D02*
X176346144Y-79181844D01*
X176346144Y-79181844D02*
X176346144Y-77896130D01*
X177703287Y-79324702D02*
X177560430Y-79396130D01*
X177560430Y-79396130D02*
X177274716Y-79396130D01*
X177274716Y-79396130D02*
X177131858Y-79324702D01*
X177131858Y-79324702D02*
X177060430Y-79181844D01*
X177060430Y-79181844D02*
X177060430Y-78610416D01*
X177060430Y-78610416D02*
X177131858Y-78467559D01*
X177131858Y-78467559D02*
X177274716Y-78396130D01*
X177274716Y-78396130D02*
X177560430Y-78396130D01*
X177560430Y-78396130D02*
X177703287Y-78467559D01*
X177703287Y-78467559D02*
X177774716Y-78610416D01*
X177774716Y-78610416D02*
X177774716Y-78753273D01*
X177774716Y-78753273D02*
X177060430Y-78896130D01*
X178417572Y-79253273D02*
X178489001Y-79324702D01*
X178489001Y-79324702D02*
X178417572Y-79396130D01*
X178417572Y-79396130D02*
X178346144Y-79324702D01*
X178346144Y-79324702D02*
X178417572Y-79253273D01*
X178417572Y-79253273D02*
X178417572Y-79396130D01*
X178417572Y-78467559D02*
X178489001Y-78538987D01*
X178489001Y-78538987D02*
X178417572Y-78610416D01*
X178417572Y-78610416D02*
X178346144Y-78538987D01*
X178346144Y-78538987D02*
X178417572Y-78467559D01*
X178417572Y-78467559D02*
X178417572Y-78610416D01*
X180274715Y-79396130D02*
X180274715Y-77896130D01*
X180274715Y-77896130D02*
X180846144Y-77896130D01*
X180846144Y-77896130D02*
X180989001Y-77967559D01*
X180989001Y-77967559D02*
X181060430Y-78038987D01*
X181060430Y-78038987D02*
X181131858Y-78181844D01*
X181131858Y-78181844D02*
X181131858Y-78396130D01*
X181131858Y-78396130D02*
X181060430Y-78538987D01*
X181060430Y-78538987D02*
X180989001Y-78610416D01*
X180989001Y-78610416D02*
X180846144Y-78681844D01*
X180846144Y-78681844D02*
X180274715Y-78681844D01*
X182060430Y-77896130D02*
X182346144Y-77896130D01*
X182346144Y-77896130D02*
X182489001Y-77967559D01*
X182489001Y-77967559D02*
X182631858Y-78110416D01*
X182631858Y-78110416D02*
X182703287Y-78396130D01*
X182703287Y-78396130D02*
X182703287Y-78896130D01*
X182703287Y-78896130D02*
X182631858Y-79181844D01*
X182631858Y-79181844D02*
X182489001Y-79324702D01*
X182489001Y-79324702D02*
X182346144Y-79396130D01*
X182346144Y-79396130D02*
X182060430Y-79396130D01*
X182060430Y-79396130D02*
X181917573Y-79324702D01*
X181917573Y-79324702D02*
X181774715Y-79181844D01*
X181774715Y-79181844D02*
X181703287Y-78896130D01*
X181703287Y-78896130D02*
X181703287Y-78396130D01*
X181703287Y-78396130D02*
X181774715Y-78110416D01*
X181774715Y-78110416D02*
X181917573Y-77967559D01*
X181917573Y-77967559D02*
X182060430Y-77896130D01*
X183203287Y-77896130D02*
X183560430Y-79396130D01*
X183560430Y-79396130D02*
X183846144Y-78324702D01*
X183846144Y-78324702D02*
X184131859Y-79396130D01*
X184131859Y-79396130D02*
X184489002Y-77896130D01*
X185060430Y-78610416D02*
X185560430Y-78610416D01*
X185774716Y-79396130D02*
X185060430Y-79396130D01*
X185060430Y-79396130D02*
X185060430Y-77896130D01*
X185060430Y-77896130D02*
X185774716Y-77896130D01*
X187274716Y-79396130D02*
X186774716Y-78681844D01*
X186417573Y-79396130D02*
X186417573Y-77896130D01*
X186417573Y-77896130D02*
X186989002Y-77896130D01*
X186989002Y-77896130D02*
X187131859Y-77967559D01*
X187131859Y-77967559D02*
X187203288Y-78038987D01*
X187203288Y-78038987D02*
X187274716Y-78181844D01*
X187274716Y-78181844D02*
X187274716Y-78396130D01*
X187274716Y-78396130D02*
X187203288Y-78538987D01*
X187203288Y-78538987D02*
X187131859Y-78610416D01*
X187131859Y-78610416D02*
X186989002Y-78681844D01*
X186989002Y-78681844D02*
X186417573Y-78681844D01*
X188774716Y-79253273D02*
X188703288Y-79324702D01*
X188703288Y-79324702D02*
X188489002Y-79396130D01*
X188489002Y-79396130D02*
X188346145Y-79396130D01*
X188346145Y-79396130D02*
X188131859Y-79324702D01*
X188131859Y-79324702D02*
X187989002Y-79181844D01*
X187989002Y-79181844D02*
X187917573Y-79038987D01*
X187917573Y-79038987D02*
X187846145Y-78753273D01*
X187846145Y-78753273D02*
X187846145Y-78538987D01*
X187846145Y-78538987D02*
X187917573Y-78253273D01*
X187917573Y-78253273D02*
X187989002Y-78110416D01*
X187989002Y-78110416D02*
X188131859Y-77967559D01*
X188131859Y-77967559D02*
X188346145Y-77896130D01*
X188346145Y-77896130D02*
X188489002Y-77896130D01*
X188489002Y-77896130D02*
X188703288Y-77967559D01*
X188703288Y-77967559D02*
X188774716Y-78038987D01*
X189703288Y-77896130D02*
X189989002Y-77896130D01*
X189989002Y-77896130D02*
X190131859Y-77967559D01*
X190131859Y-77967559D02*
X190274716Y-78110416D01*
X190274716Y-78110416D02*
X190346145Y-78396130D01*
X190346145Y-78396130D02*
X190346145Y-78896130D01*
X190346145Y-78896130D02*
X190274716Y-79181844D01*
X190274716Y-79181844D02*
X190131859Y-79324702D01*
X190131859Y-79324702D02*
X189989002Y-79396130D01*
X189989002Y-79396130D02*
X189703288Y-79396130D01*
X189703288Y-79396130D02*
X189560431Y-79324702D01*
X189560431Y-79324702D02*
X189417573Y-79181844D01*
X189417573Y-79181844D02*
X189346145Y-78896130D01*
X189346145Y-78896130D02*
X189346145Y-78396130D01*
X189346145Y-78396130D02*
X189417573Y-78110416D01*
X189417573Y-78110416D02*
X189560431Y-77967559D01*
X189560431Y-77967559D02*
X189703288Y-77896130D01*
X191846145Y-79396130D02*
X191346145Y-78681844D01*
X190989002Y-79396130D02*
X190989002Y-77896130D01*
X190989002Y-77896130D02*
X191560431Y-77896130D01*
X191560431Y-77896130D02*
X191703288Y-77967559D01*
X191703288Y-77967559D02*
X191774717Y-78038987D01*
X191774717Y-78038987D02*
X191846145Y-78181844D01*
X191846145Y-78181844D02*
X191846145Y-78396130D01*
X191846145Y-78396130D02*
X191774717Y-78538987D01*
X191774717Y-78538987D02*
X191703288Y-78610416D01*
X191703288Y-78610416D02*
X191560431Y-78681844D01*
X191560431Y-78681844D02*
X190989002Y-78681844D01*
X192489002Y-78610416D02*
X192989002Y-78610416D01*
X193203288Y-79396130D02*
X192489002Y-79396130D01*
X192489002Y-79396130D02*
X192489002Y-77896130D01*
X192489002Y-77896130D02*
X193203288Y-77896130D01*
X193846145Y-78824702D02*
X194989003Y-78824702D01*
X195489003Y-77896130D02*
X195989003Y-79396130D01*
X195989003Y-79396130D02*
X196489003Y-77896130D01*
X196917574Y-78038987D02*
X196989002Y-77967559D01*
X196989002Y-77967559D02*
X197131860Y-77896130D01*
X197131860Y-77896130D02*
X197489002Y-77896130D01*
X197489002Y-77896130D02*
X197631860Y-77967559D01*
X197631860Y-77967559D02*
X197703288Y-78038987D01*
X197703288Y-78038987D02*
X197774717Y-78181844D01*
X197774717Y-78181844D02*
X197774717Y-78324702D01*
X197774717Y-78324702D02*
X197703288Y-78538987D01*
X197703288Y-78538987D02*
X196846145Y-79396130D01*
X196846145Y-79396130D02*
X197774717Y-79396130D01*
X198417573Y-79253273D02*
X198489002Y-79324702D01*
X198489002Y-79324702D02*
X198417573Y-79396130D01*
X198417573Y-79396130D02*
X198346145Y-79324702D01*
X198346145Y-79324702D02*
X198417573Y-79253273D01*
X198417573Y-79253273D02*
X198417573Y-79396130D01*
X199417574Y-77896130D02*
X199560431Y-77896130D01*
X199560431Y-77896130D02*
X199703288Y-77967559D01*
X199703288Y-77967559D02*
X199774717Y-78038987D01*
X199774717Y-78038987D02*
X199846145Y-78181844D01*
X199846145Y-78181844D02*
X199917574Y-78467559D01*
X199917574Y-78467559D02*
X199917574Y-78824702D01*
X199917574Y-78824702D02*
X199846145Y-79110416D01*
X199846145Y-79110416D02*
X199774717Y-79253273D01*
X199774717Y-79253273D02*
X199703288Y-79324702D01*
X199703288Y-79324702D02*
X199560431Y-79396130D01*
X199560431Y-79396130D02*
X199417574Y-79396130D01*
X199417574Y-79396130D02*
X199274717Y-79324702D01*
X199274717Y-79324702D02*
X199203288Y-79253273D01*
X199203288Y-79253273D02*
X199131859Y-79110416D01*
X199131859Y-79110416D02*
X199060431Y-78824702D01*
X199060431Y-78824702D02*
X199060431Y-78467559D01*
X199060431Y-78467559D02*
X199131859Y-78181844D01*
X199131859Y-78181844D02*
X199203288Y-78038987D01*
X199203288Y-78038987D02*
X199274717Y-77967559D01*
X199274717Y-77967559D02*
X199417574Y-77896130D01*
X200203288Y-79538987D02*
X201346145Y-79538987D01*
X201703287Y-79396130D02*
X201703287Y-77896130D01*
X201703287Y-77896130D02*
X202203287Y-78967559D01*
X202203287Y-78967559D02*
X202703287Y-77896130D01*
X202703287Y-77896130D02*
X202703287Y-79396130D01*
X203703288Y-77896130D02*
X203989002Y-77896130D01*
X203989002Y-77896130D02*
X204131859Y-77967559D01*
X204131859Y-77967559D02*
X204274716Y-78110416D01*
X204274716Y-78110416D02*
X204346145Y-78396130D01*
X204346145Y-78396130D02*
X204346145Y-78896130D01*
X204346145Y-78896130D02*
X204274716Y-79181844D01*
X204274716Y-79181844D02*
X204131859Y-79324702D01*
X204131859Y-79324702D02*
X203989002Y-79396130D01*
X203989002Y-79396130D02*
X203703288Y-79396130D01*
X203703288Y-79396130D02*
X203560431Y-79324702D01*
X203560431Y-79324702D02*
X203417573Y-79181844D01*
X203417573Y-79181844D02*
X203346145Y-78896130D01*
X203346145Y-78896130D02*
X203346145Y-78396130D01*
X203346145Y-78396130D02*
X203417573Y-78110416D01*
X203417573Y-78110416D02*
X203560431Y-77967559D01*
X203560431Y-77967559D02*
X203703288Y-77896130D01*
X204774717Y-77896130D02*
X205631860Y-77896130D01*
X205203288Y-79396130D02*
X205203288Y-77896130D01*
X206131859Y-79396130D02*
X206131859Y-77896130D01*
X206131859Y-78610416D02*
X206989002Y-78610416D01*
X206989002Y-79396130D02*
X206989002Y-77896130D01*
X207703288Y-78610416D02*
X208203288Y-78610416D01*
X208417574Y-79396130D02*
X207703288Y-79396130D01*
X207703288Y-79396130D02*
X207703288Y-77896130D01*
X207703288Y-77896130D02*
X208417574Y-77896130D01*
X209917574Y-79396130D02*
X209417574Y-78681844D01*
X209060431Y-79396130D02*
X209060431Y-77896130D01*
X209060431Y-77896130D02*
X209631860Y-77896130D01*
X209631860Y-77896130D02*
X209774717Y-77967559D01*
X209774717Y-77967559D02*
X209846146Y-78038987D01*
X209846146Y-78038987D02*
X209917574Y-78181844D01*
X209917574Y-78181844D02*
X209917574Y-78396130D01*
X209917574Y-78396130D02*
X209846146Y-78538987D01*
X209846146Y-78538987D02*
X209774717Y-78610416D01*
X209774717Y-78610416D02*
X209631860Y-78681844D01*
X209631860Y-78681844D02*
X209060431Y-78681844D01*
X211060431Y-78610416D02*
X211274717Y-78681844D01*
X211274717Y-78681844D02*
X211346146Y-78753273D01*
X211346146Y-78753273D02*
X211417574Y-78896130D01*
X211417574Y-78896130D02*
X211417574Y-79110416D01*
X211417574Y-79110416D02*
X211346146Y-79253273D01*
X211346146Y-79253273D02*
X211274717Y-79324702D01*
X211274717Y-79324702D02*
X211131860Y-79396130D01*
X211131860Y-79396130D02*
X210560431Y-79396130D01*
X210560431Y-79396130D02*
X210560431Y-77896130D01*
X210560431Y-77896130D02*
X211060431Y-77896130D01*
X211060431Y-77896130D02*
X211203289Y-77967559D01*
X211203289Y-77967559D02*
X211274717Y-78038987D01*
X211274717Y-78038987D02*
X211346146Y-78181844D01*
X211346146Y-78181844D02*
X211346146Y-78324702D01*
X211346146Y-78324702D02*
X211274717Y-78467559D01*
X211274717Y-78467559D02*
X211203289Y-78538987D01*
X211203289Y-78538987D02*
X211060431Y-78610416D01*
X211060431Y-78610416D02*
X210560431Y-78610416D01*
X212346146Y-77896130D02*
X212631860Y-77896130D01*
X212631860Y-77896130D02*
X212774717Y-77967559D01*
X212774717Y-77967559D02*
X212917574Y-78110416D01*
X212917574Y-78110416D02*
X212989003Y-78396130D01*
X212989003Y-78396130D02*
X212989003Y-78896130D01*
X212989003Y-78896130D02*
X212917574Y-79181844D01*
X212917574Y-79181844D02*
X212774717Y-79324702D01*
X212774717Y-79324702D02*
X212631860Y-79396130D01*
X212631860Y-79396130D02*
X212346146Y-79396130D01*
X212346146Y-79396130D02*
X212203289Y-79324702D01*
X212203289Y-79324702D02*
X212060431Y-79181844D01*
X212060431Y-79181844D02*
X211989003Y-78896130D01*
X211989003Y-78896130D02*
X211989003Y-78396130D01*
X211989003Y-78396130D02*
X212060431Y-78110416D01*
X212060431Y-78110416D02*
X212203289Y-77967559D01*
X212203289Y-77967559D02*
X212346146Y-77896130D01*
X213560432Y-78967559D02*
X214274718Y-78967559D01*
X213417575Y-79396130D02*
X213917575Y-77896130D01*
X213917575Y-77896130D02*
X214417575Y-79396130D01*
X215774717Y-79396130D02*
X215274717Y-78681844D01*
X214917574Y-79396130D02*
X214917574Y-77896130D01*
X214917574Y-77896130D02*
X215489003Y-77896130D01*
X215489003Y-77896130D02*
X215631860Y-77967559D01*
X215631860Y-77967559D02*
X215703289Y-78038987D01*
X215703289Y-78038987D02*
X215774717Y-78181844D01*
X215774717Y-78181844D02*
X215774717Y-78396130D01*
X215774717Y-78396130D02*
X215703289Y-78538987D01*
X215703289Y-78538987D02*
X215631860Y-78610416D01*
X215631860Y-78610416D02*
X215489003Y-78681844D01*
X215489003Y-78681844D02*
X214917574Y-78681844D01*
X216417574Y-79396130D02*
X216417574Y-77896130D01*
X216417574Y-77896130D02*
X216774717Y-77896130D01*
X216774717Y-77896130D02*
X216989003Y-77967559D01*
X216989003Y-77967559D02*
X217131860Y-78110416D01*
X217131860Y-78110416D02*
X217203289Y-78253273D01*
X217203289Y-78253273D02*
X217274717Y-78538987D01*
X217274717Y-78538987D02*
X217274717Y-78753273D01*
X217274717Y-78753273D02*
X217203289Y-79038987D01*
X217203289Y-79038987D02*
X217131860Y-79181844D01*
X217131860Y-79181844D02*
X216989003Y-79324702D01*
X216989003Y-79324702D02*
X216774717Y-79396130D01*
X216774717Y-79396130D02*
X216417574Y-79396130D01*
X217917574Y-79253273D02*
X217989003Y-79324702D01*
X217989003Y-79324702D02*
X217917574Y-79396130D01*
X217917574Y-79396130D02*
X217846146Y-79324702D01*
X217846146Y-79324702D02*
X217917574Y-79253273D01*
X217917574Y-79253273D02*
X217917574Y-79396130D01*
X218631860Y-79396130D02*
X218631860Y-77896130D01*
X218774718Y-78824702D02*
X219203289Y-79396130D01*
X219203289Y-78396130D02*
X218631860Y-78967559D01*
X219846146Y-79396130D02*
X219846146Y-78396130D01*
X219846146Y-77896130D02*
X219774718Y-77967559D01*
X219774718Y-77967559D02*
X219846146Y-78038987D01*
X219846146Y-78038987D02*
X219917575Y-77967559D01*
X219917575Y-77967559D02*
X219846146Y-77896130D01*
X219846146Y-77896130D02*
X219846146Y-78038987D01*
X221203290Y-79324702D02*
X221060432Y-79396130D01*
X221060432Y-79396130D02*
X220774718Y-79396130D01*
X220774718Y-79396130D02*
X220631861Y-79324702D01*
X220631861Y-79324702D02*
X220560432Y-79253273D01*
X220560432Y-79253273D02*
X220489004Y-79110416D01*
X220489004Y-79110416D02*
X220489004Y-78681844D01*
X220489004Y-78681844D02*
X220560432Y-78538987D01*
X220560432Y-78538987D02*
X220631861Y-78467559D01*
X220631861Y-78467559D02*
X220774718Y-78396130D01*
X220774718Y-78396130D02*
X221060432Y-78396130D01*
X221060432Y-78396130D02*
X221203290Y-78467559D01*
X222489004Y-79396130D02*
X222489004Y-78610416D01*
X222489004Y-78610416D02*
X222417575Y-78467559D01*
X222417575Y-78467559D02*
X222274718Y-78396130D01*
X222274718Y-78396130D02*
X221989004Y-78396130D01*
X221989004Y-78396130D02*
X221846146Y-78467559D01*
X222489004Y-79324702D02*
X222346146Y-79396130D01*
X222346146Y-79396130D02*
X221989004Y-79396130D01*
X221989004Y-79396130D02*
X221846146Y-79324702D01*
X221846146Y-79324702D02*
X221774718Y-79181844D01*
X221774718Y-79181844D02*
X221774718Y-79038987D01*
X221774718Y-79038987D02*
X221846146Y-78896130D01*
X221846146Y-78896130D02*
X221989004Y-78824702D01*
X221989004Y-78824702D02*
X222346146Y-78824702D01*
X222346146Y-78824702D02*
X222489004Y-78753273D01*
X223846147Y-79396130D02*
X223846147Y-77896130D01*
X223846147Y-79324702D02*
X223703289Y-79396130D01*
X223703289Y-79396130D02*
X223417575Y-79396130D01*
X223417575Y-79396130D02*
X223274718Y-79324702D01*
X223274718Y-79324702D02*
X223203289Y-79253273D01*
X223203289Y-79253273D02*
X223131861Y-79110416D01*
X223131861Y-79110416D02*
X223131861Y-78681844D01*
X223131861Y-78681844D02*
X223203289Y-78538987D01*
X223203289Y-78538987D02*
X223274718Y-78467559D01*
X223274718Y-78467559D02*
X223417575Y-78396130D01*
X223417575Y-78396130D02*
X223703289Y-78396130D01*
X223703289Y-78396130D02*
X223846147Y-78467559D01*
X224203290Y-79538987D02*
X225346147Y-79538987D01*
X225703289Y-78396130D02*
X225703289Y-79896130D01*
X225703289Y-78467559D02*
X225846147Y-78396130D01*
X225846147Y-78396130D02*
X226131861Y-78396130D01*
X226131861Y-78396130D02*
X226274718Y-78467559D01*
X226274718Y-78467559D02*
X226346147Y-78538987D01*
X226346147Y-78538987D02*
X226417575Y-78681844D01*
X226417575Y-78681844D02*
X226417575Y-79110416D01*
X226417575Y-79110416D02*
X226346147Y-79253273D01*
X226346147Y-79253273D02*
X226274718Y-79324702D01*
X226274718Y-79324702D02*
X226131861Y-79396130D01*
X226131861Y-79396130D02*
X225846147Y-79396130D01*
X225846147Y-79396130D02*
X225703289Y-79324702D01*
X227703290Y-79324702D02*
X227560432Y-79396130D01*
X227560432Y-79396130D02*
X227274718Y-79396130D01*
X227274718Y-79396130D02*
X227131861Y-79324702D01*
X227131861Y-79324702D02*
X227060432Y-79253273D01*
X227060432Y-79253273D02*
X226989004Y-79110416D01*
X226989004Y-79110416D02*
X226989004Y-78681844D01*
X226989004Y-78681844D02*
X227060432Y-78538987D01*
X227060432Y-78538987D02*
X227131861Y-78467559D01*
X227131861Y-78467559D02*
X227274718Y-78396130D01*
X227274718Y-78396130D02*
X227560432Y-78396130D01*
X227560432Y-78396130D02*
X227703290Y-78467559D01*
X228346146Y-79396130D02*
X228346146Y-77896130D01*
X228346146Y-78467559D02*
X228489004Y-78396130D01*
X228489004Y-78396130D02*
X228774718Y-78396130D01*
X228774718Y-78396130D02*
X228917575Y-78467559D01*
X228917575Y-78467559D02*
X228989004Y-78538987D01*
X228989004Y-78538987D02*
X229060432Y-78681844D01*
X229060432Y-78681844D02*
X229060432Y-79110416D01*
X229060432Y-79110416D02*
X228989004Y-79253273D01*
X228989004Y-79253273D02*
X228917575Y-79324702D01*
X228917575Y-79324702D02*
X228774718Y-79396130D01*
X228774718Y-79396130D02*
X228489004Y-79396130D01*
X228489004Y-79396130D02*
X228346146Y-79324702D01*
D10*
D11*
X172989002Y-74502202D02*
X280989002Y-74502202D01*
D10*
D11*
X174274716Y-76624702D02*
X174489002Y-76696130D01*
X174489002Y-76696130D02*
X174846144Y-76696130D01*
X174846144Y-76696130D02*
X174989002Y-76624702D01*
X174989002Y-76624702D02*
X175060430Y-76553273D01*
X175060430Y-76553273D02*
X175131859Y-76410416D01*
X175131859Y-76410416D02*
X175131859Y-76267559D01*
X175131859Y-76267559D02*
X175060430Y-76124702D01*
X175060430Y-76124702D02*
X174989002Y-76053273D01*
X174989002Y-76053273D02*
X174846144Y-75981844D01*
X174846144Y-75981844D02*
X174560430Y-75910416D01*
X174560430Y-75910416D02*
X174417573Y-75838987D01*
X174417573Y-75838987D02*
X174346144Y-75767559D01*
X174346144Y-75767559D02*
X174274716Y-75624702D01*
X174274716Y-75624702D02*
X174274716Y-75481844D01*
X174274716Y-75481844D02*
X174346144Y-75338987D01*
X174346144Y-75338987D02*
X174417573Y-75267559D01*
X174417573Y-75267559D02*
X174560430Y-75196130D01*
X174560430Y-75196130D02*
X174917573Y-75196130D01*
X174917573Y-75196130D02*
X175131859Y-75267559D01*
X175774715Y-76696130D02*
X175774715Y-75196130D01*
X176417573Y-76696130D02*
X176417573Y-75910416D01*
X176417573Y-75910416D02*
X176346144Y-75767559D01*
X176346144Y-75767559D02*
X176203287Y-75696130D01*
X176203287Y-75696130D02*
X175989001Y-75696130D01*
X175989001Y-75696130D02*
X175846144Y-75767559D01*
X175846144Y-75767559D02*
X175774715Y-75838987D01*
X177703287Y-76624702D02*
X177560430Y-76696130D01*
X177560430Y-76696130D02*
X177274716Y-76696130D01*
X177274716Y-76696130D02*
X177131858Y-76624702D01*
X177131858Y-76624702D02*
X177060430Y-76481844D01*
X177060430Y-76481844D02*
X177060430Y-75910416D01*
X177060430Y-75910416D02*
X177131858Y-75767559D01*
X177131858Y-75767559D02*
X177274716Y-75696130D01*
X177274716Y-75696130D02*
X177560430Y-75696130D01*
X177560430Y-75696130D02*
X177703287Y-75767559D01*
X177703287Y-75767559D02*
X177774716Y-75910416D01*
X177774716Y-75910416D02*
X177774716Y-76053273D01*
X177774716Y-76053273D02*
X177060430Y-76196130D01*
X178989001Y-76624702D02*
X178846144Y-76696130D01*
X178846144Y-76696130D02*
X178560430Y-76696130D01*
X178560430Y-76696130D02*
X178417572Y-76624702D01*
X178417572Y-76624702D02*
X178346144Y-76481844D01*
X178346144Y-76481844D02*
X178346144Y-75910416D01*
X178346144Y-75910416D02*
X178417572Y-75767559D01*
X178417572Y-75767559D02*
X178560430Y-75696130D01*
X178560430Y-75696130D02*
X178846144Y-75696130D01*
X178846144Y-75696130D02*
X178989001Y-75767559D01*
X178989001Y-75767559D02*
X179060430Y-75910416D01*
X179060430Y-75910416D02*
X179060430Y-76053273D01*
X179060430Y-76053273D02*
X178346144Y-76196130D01*
X179489001Y-75696130D02*
X180060429Y-75696130D01*
X179703286Y-75196130D02*
X179703286Y-76481844D01*
X179703286Y-76481844D02*
X179774715Y-76624702D01*
X179774715Y-76624702D02*
X179917572Y-76696130D01*
X179917572Y-76696130D02*
X180060429Y-76696130D01*
X180560429Y-76553273D02*
X180631858Y-76624702D01*
X180631858Y-76624702D02*
X180560429Y-76696130D01*
X180560429Y-76696130D02*
X180489001Y-76624702D01*
X180489001Y-76624702D02*
X180560429Y-76553273D01*
X180560429Y-76553273D02*
X180560429Y-76696130D01*
X180560429Y-75767559D02*
X180631858Y-75838987D01*
X180631858Y-75838987D02*
X180560429Y-75910416D01*
X180560429Y-75910416D02*
X180489001Y-75838987D01*
X180489001Y-75838987D02*
X180560429Y-75767559D01*
X180560429Y-75767559D02*
X180560429Y-75910416D01*
D10*
D12*
X174346144Y-73696130D02*
X174346144Y-72196130D01*
X174346144Y-72196130D02*
X174703287Y-72196130D01*
X174703287Y-72196130D02*
X174917573Y-72267559D01*
X174917573Y-72267559D02*
X175060430Y-72410416D01*
X175060430Y-72410416D02*
X175131859Y-72553273D01*
X175131859Y-72553273D02*
X175203287Y-72838987D01*
X175203287Y-72838987D02*
X175203287Y-73053273D01*
X175203287Y-73053273D02*
X175131859Y-73338987D01*
X175131859Y-73338987D02*
X175060430Y-73481844D01*
X175060430Y-73481844D02*
X174917573Y-73624702D01*
X174917573Y-73624702D02*
X174703287Y-73696130D01*
X174703287Y-73696130D02*
X174346144Y-73696130D01*
X176703287Y-73696130D02*
X176203287Y-72981844D01*
X175846144Y-73696130D02*
X175846144Y-72196130D01*
X175846144Y-72196130D02*
X176417573Y-72196130D01*
X176417573Y-72196130D02*
X176560430Y-72267559D01*
X176560430Y-72267559D02*
X176631859Y-72338987D01*
X176631859Y-72338987D02*
X176703287Y-72481844D01*
X176703287Y-72481844D02*
X176703287Y-72696130D01*
X176703287Y-72696130D02*
X176631859Y-72838987D01*
X176631859Y-72838987D02*
X176560430Y-72910416D01*
X176560430Y-72910416D02*
X176417573Y-72981844D01*
X176417573Y-72981844D02*
X175846144Y-72981844D01*
X177274716Y-73267559D02*
X177989002Y-73267559D01*
X177131859Y-73696130D02*
X177631859Y-72196130D01*
X177631859Y-72196130D02*
X178131859Y-73696130D01*
X179417573Y-72267559D02*
X179274716Y-72196130D01*
X179274716Y-72196130D02*
X179060430Y-72196130D01*
X179060430Y-72196130D02*
X178846144Y-72267559D01*
X178846144Y-72267559D02*
X178703287Y-72410416D01*
X178703287Y-72410416D02*
X178631858Y-72553273D01*
X178631858Y-72553273D02*
X178560430Y-72838987D01*
X178560430Y-72838987D02*
X178560430Y-73053273D01*
X178560430Y-73053273D02*
X178631858Y-73338987D01*
X178631858Y-73338987D02*
X178703287Y-73481844D01*
X178703287Y-73481844D02*
X178846144Y-73624702D01*
X178846144Y-73624702D02*
X179060430Y-73696130D01*
X179060430Y-73696130D02*
X179203287Y-73696130D01*
X179203287Y-73696130D02*
X179417573Y-73624702D01*
X179417573Y-73624702D02*
X179489001Y-73553273D01*
X179489001Y-73553273D02*
X179489001Y-73053273D01*
X179489001Y-73053273D02*
X179203287Y-73053273D01*
X180417573Y-72196130D02*
X180703287Y-72196130D01*
X180703287Y-72196130D02*
X180846144Y-72267559D01*
X180846144Y-72267559D02*
X180989001Y-72410416D01*
X180989001Y-72410416D02*
X181060430Y-72696130D01*
X181060430Y-72696130D02*
X181060430Y-73196130D01*
X181060430Y-73196130D02*
X180989001Y-73481844D01*
X180989001Y-73481844D02*
X180846144Y-73624702D01*
X180846144Y-73624702D02*
X180703287Y-73696130D01*
X180703287Y-73696130D02*
X180417573Y-73696130D01*
X180417573Y-73696130D02*
X180274716Y-73624702D01*
X180274716Y-73624702D02*
X180131858Y-73481844D01*
X180131858Y-73481844D02*
X180060430Y-73196130D01*
X180060430Y-73196130D02*
X180060430Y-72696130D01*
X180060430Y-72696130D02*
X180131858Y-72410416D01*
X180131858Y-72410416D02*
X180274716Y-72267559D01*
X180274716Y-72267559D02*
X180417573Y-72196130D01*
X181703287Y-73696130D02*
X181703287Y-72196130D01*
X181703287Y-72196130D02*
X182560430Y-73696130D01*
X182560430Y-73696130D02*
X182560430Y-72196130D01*
X183774716Y-72910416D02*
X183274716Y-72910416D01*
X183274716Y-73696130D02*
X183274716Y-72196130D01*
X183274716Y-72196130D02*
X183989002Y-72196130D01*
X185274716Y-73696130D02*
X184560430Y-73696130D01*
X184560430Y-73696130D02*
X184560430Y-72196130D01*
X186060431Y-72981844D02*
X186060431Y-73696130D01*
X185560431Y-72196130D02*
X186060431Y-72981844D01*
X186060431Y-72981844D02*
X186560431Y-72196130D01*
X188203287Y-73696130D02*
X188203287Y-72196130D01*
X188203287Y-72196130D02*
X188774716Y-72196130D01*
X188774716Y-72196130D02*
X188917573Y-72267559D01*
X188917573Y-72267559D02*
X188989002Y-72338987D01*
X188989002Y-72338987D02*
X189060430Y-72481844D01*
X189060430Y-72481844D02*
X189060430Y-72696130D01*
X189060430Y-72696130D02*
X188989002Y-72838987D01*
X188989002Y-72838987D02*
X188917573Y-72910416D01*
X188917573Y-72910416D02*
X188774716Y-72981844D01*
X188774716Y-72981844D02*
X188203287Y-72981844D01*
X189989002Y-72196130D02*
X190274716Y-72196130D01*
X190274716Y-72196130D02*
X190417573Y-72267559D01*
X190417573Y-72267559D02*
X190560430Y-72410416D01*
X190560430Y-72410416D02*
X190631859Y-72696130D01*
X190631859Y-72696130D02*
X190631859Y-73196130D01*
X190631859Y-73196130D02*
X190560430Y-73481844D01*
X190560430Y-73481844D02*
X190417573Y-73624702D01*
X190417573Y-73624702D02*
X190274716Y-73696130D01*
X190274716Y-73696130D02*
X189989002Y-73696130D01*
X189989002Y-73696130D02*
X189846145Y-73624702D01*
X189846145Y-73624702D02*
X189703287Y-73481844D01*
X189703287Y-73481844D02*
X189631859Y-73196130D01*
X189631859Y-73196130D02*
X189631859Y-72696130D01*
X189631859Y-72696130D02*
X189703287Y-72410416D01*
X189703287Y-72410416D02*
X189846145Y-72267559D01*
X189846145Y-72267559D02*
X189989002Y-72196130D01*
X191131859Y-72196130D02*
X191489002Y-73696130D01*
X191489002Y-73696130D02*
X191774716Y-72624702D01*
X191774716Y-72624702D02*
X192060431Y-73696130D01*
X192060431Y-73696130D02*
X192417574Y-72196130D01*
X192989002Y-72910416D02*
X193489002Y-72910416D01*
X193703288Y-73696130D02*
X192989002Y-73696130D01*
X192989002Y-73696130D02*
X192989002Y-72196130D01*
X192989002Y-72196130D02*
X193703288Y-72196130D01*
X195203288Y-73696130D02*
X194703288Y-72981844D01*
X194346145Y-73696130D02*
X194346145Y-72196130D01*
X194346145Y-72196130D02*
X194917574Y-72196130D01*
X194917574Y-72196130D02*
X195060431Y-72267559D01*
X195060431Y-72267559D02*
X195131860Y-72338987D01*
X195131860Y-72338987D02*
X195203288Y-72481844D01*
X195203288Y-72481844D02*
X195203288Y-72696130D01*
X195203288Y-72696130D02*
X195131860Y-72838987D01*
X195131860Y-72838987D02*
X195060431Y-72910416D01*
X195060431Y-72910416D02*
X194917574Y-72981844D01*
X194917574Y-72981844D02*
X194346145Y-72981844D01*
X196917574Y-73624702D02*
X197131860Y-73696130D01*
X197131860Y-73696130D02*
X197489002Y-73696130D01*
X197489002Y-73696130D02*
X197631860Y-73624702D01*
X197631860Y-73624702D02*
X197703288Y-73553273D01*
X197703288Y-73553273D02*
X197774717Y-73410416D01*
X197774717Y-73410416D02*
X197774717Y-73267559D01*
X197774717Y-73267559D02*
X197703288Y-73124702D01*
X197703288Y-73124702D02*
X197631860Y-73053273D01*
X197631860Y-73053273D02*
X197489002Y-72981844D01*
X197489002Y-72981844D02*
X197203288Y-72910416D01*
X197203288Y-72910416D02*
X197060431Y-72838987D01*
X197060431Y-72838987D02*
X196989002Y-72767559D01*
X196989002Y-72767559D02*
X196917574Y-72624702D01*
X196917574Y-72624702D02*
X196917574Y-72481844D01*
X196917574Y-72481844D02*
X196989002Y-72338987D01*
X196989002Y-72338987D02*
X197060431Y-72267559D01*
X197060431Y-72267559D02*
X197203288Y-72196130D01*
X197203288Y-72196130D02*
X197560431Y-72196130D01*
X197560431Y-72196130D02*
X197774717Y-72267559D01*
X198703288Y-72981844D02*
X198703288Y-73696130D01*
X198203288Y-72196130D02*
X198703288Y-72981844D01*
X198703288Y-72981844D02*
X199203288Y-72196130D01*
X199631859Y-73624702D02*
X199846145Y-73696130D01*
X199846145Y-73696130D02*
X200203287Y-73696130D01*
X200203287Y-73696130D02*
X200346145Y-73624702D01*
X200346145Y-73624702D02*
X200417573Y-73553273D01*
X200417573Y-73553273D02*
X200489002Y-73410416D01*
X200489002Y-73410416D02*
X200489002Y-73267559D01*
X200489002Y-73267559D02*
X200417573Y-73124702D01*
X200417573Y-73124702D02*
X200346145Y-73053273D01*
X200346145Y-73053273D02*
X200203287Y-72981844D01*
X200203287Y-72981844D02*
X199917573Y-72910416D01*
X199917573Y-72910416D02*
X199774716Y-72838987D01*
X199774716Y-72838987D02*
X199703287Y-72767559D01*
X199703287Y-72767559D02*
X199631859Y-72624702D01*
X199631859Y-72624702D02*
X199631859Y-72481844D01*
X199631859Y-72481844D02*
X199703287Y-72338987D01*
X199703287Y-72338987D02*
X199774716Y-72267559D01*
X199774716Y-72267559D02*
X199917573Y-72196130D01*
X199917573Y-72196130D02*
X200274716Y-72196130D01*
X200274716Y-72196130D02*
X200489002Y-72267559D01*
X200917573Y-72196130D02*
X201774716Y-72196130D01*
X201346144Y-73696130D02*
X201346144Y-72196130D01*
X202274715Y-72910416D02*
X202774715Y-72910416D01*
X202989001Y-73696130D02*
X202274715Y-73696130D01*
X202274715Y-73696130D02*
X202274715Y-72196130D01*
X202274715Y-72196130D02*
X202989001Y-72196130D01*
X203631858Y-73696130D02*
X203631858Y-72196130D01*
X203631858Y-72196130D02*
X204131858Y-73267559D01*
X204131858Y-73267559D02*
X204631858Y-72196130D01*
X204631858Y-72196130D02*
X204631858Y-73696130D01*
X205274716Y-73624702D02*
X205489002Y-73696130D01*
X205489002Y-73696130D02*
X205846144Y-73696130D01*
X205846144Y-73696130D02*
X205989002Y-73624702D01*
X205989002Y-73624702D02*
X206060430Y-73553273D01*
X206060430Y-73553273D02*
X206131859Y-73410416D01*
X206131859Y-73410416D02*
X206131859Y-73267559D01*
X206131859Y-73267559D02*
X206060430Y-73124702D01*
X206060430Y-73124702D02*
X205989002Y-73053273D01*
X205989002Y-73053273D02*
X205846144Y-72981844D01*
X205846144Y-72981844D02*
X205560430Y-72910416D01*
X205560430Y-72910416D02*
X205417573Y-72838987D01*
X205417573Y-72838987D02*
X205346144Y-72767559D01*
X205346144Y-72767559D02*
X205274716Y-72624702D01*
X205274716Y-72624702D02*
X205274716Y-72481844D01*
X205274716Y-72481844D02*
X205346144Y-72338987D01*
X205346144Y-72338987D02*
X205417573Y-72267559D01*
X205417573Y-72267559D02*
X205560430Y-72196130D01*
X205560430Y-72196130D02*
X205917573Y-72196130D01*
X205917573Y-72196130D02*
X206131859Y-72267559D01*
D10*
D11*
D10*
D11*
D10*
D11*
D10*
D11*
D10*
D11*
X192989002Y-84502202D02*
X192989002Y-87502202D01*
D10*
D11*
X256989002Y-84502202D02*
X256989002Y-91002202D01*
D14*
X7918000Y68584999D03*
X7918000Y71584999D03*
X7918000Y74584999D03*
X7918000Y77584999D03*
X10918000Y68584999D03*
X10918000Y71584999D03*
X10918000Y74584999D03*
X10918000Y77584999D03*
D15*
X3600000Y66430199D03*
X3600000Y79739799D03*
D16*
X6614322Y41100000D03*
X6614322Y38600000D03*
X6614322Y56392060D03*
X6614322Y53892060D03*
D17*
X127381000Y20274677D03*
D18*
X127381000Y15274677D03*
D16*
X6614322Y25808000D03*
X6614322Y23308000D03*
D17*
X96266000Y20401677D03*
D18*
X96266000Y15401677D03*
D17*
X108966000Y20401677D03*
D18*
X108966000Y15401677D03*
D14*
X141037252Y35860998D03*
X141037252Y32860998D03*
X138037252Y35860998D03*
X138037252Y32860998D03*
D17*
X139700000Y20274677D03*
D18*
X139700000Y15274677D03*
D19*
X41897004Y19501998D03*
X27496004Y7563997D03*
X23889002Y21660998D03*
X61214002Y19374998D03*
X61214002Y15818998D03*
X35560002Y13419000D03*
X29337002Y28632996D03*
X41897000Y14167998D03*
X32448004Y9341998D03*
X94348000Y38297998D03*
X62992002Y17596998D03*
X62992002Y15818998D03*
X34417002Y28633000D03*
X98031003Y38297997D03*
X124650000Y47187998D03*
X101105001Y44012999D03*
X23889002Y14548998D03*
X19304002Y27490000D03*
X123050000Y53029998D03*
X15494001Y43440997D03*
X62103002Y16707998D03*
X99749002Y66364998D03*
X54864002Y10484998D03*
X92215002Y32582998D03*
X62992002Y19374998D03*
X61214002Y17596998D03*
X39688004Y35630998D03*
X28321002Y12897998D03*
X62103002Y18485998D03*
X79248002Y45479000D03*
X88773002Y58744998D03*
X26289002Y49473998D03*
X44704002Y74746998D03*
X22352002Y15437998D03*
X128143002Y37027998D03*
X140970002Y74365998D03*
X145923002Y70936998D03*
X130810002Y37027998D03*
X90424002Y5277998D03*
X126365000Y71126998D03*
X74350502Y38115500D03*
X87376002Y10357998D03*
X33909002Y46679998D03*
X114935002Y5277998D03*
X75057002Y17723998D03*
X75946002Y16834998D03*
X34671002Y49727998D03*
X99736000Y70133998D03*
X78486000Y36893998D03*
X72009002Y10357998D03*
X27305002Y48457998D03*
X127676002Y49656996D03*
X90615004Y38297998D03*
X116967002Y9341998D03*
X105537002Y46552998D03*
X29337002Y30182996D03*
X33020002Y42424996D03*
X57921000Y36436002D03*
X124587002Y44520998D03*
X47244002Y36392998D03*
X92710002Y58744998D03*
X73660002Y12008998D03*
X131064002Y61411998D03*
X99555001Y44012999D03*
X134112002Y37027998D03*
X140983000Y76143998D03*
X90665004Y33471998D03*
X72009002Y12008998D03*
X26289002Y51505998D03*
X111887002Y52902998D03*
X116904004Y47187998D03*
X44704002Y78683998D03*
X94234004Y42475998D03*
X78804000Y25343998D03*
X22339002Y22549998D03*
X98199004Y66364998D03*
X129476002Y67761996D03*
X59699002Y36435999D03*
X28321002Y11361000D03*
X90170002Y58744998D03*
X32512002Y21406998D03*
X89408002Y35884998D03*
X88392002Y5277998D03*
X44704002Y72079998D03*
X31369002Y48457998D03*
X145923002Y68142998D03*
X78740002Y15945998D03*
X94107002Y58744998D03*
X34290002Y19628998D03*
X73660002Y13786998D03*
X70358002Y12008998D03*
X33909002Y50743998D03*
X86106002Y58744998D03*
X133096002Y37027998D03*
X62992002Y11260000D03*
X2878999Y30458001D03*
X54864002Y13024998D03*
X99187002Y47568998D03*
X84836002Y58744998D03*
X44704002Y73349998D03*
X34417002Y30182996D03*
X140970002Y64840998D03*
X34798002Y37473000D03*
X33401002Y20517998D03*
X76835002Y17723998D03*
X39688004Y28518998D03*
X34290002Y21406998D03*
X135128002Y37027998D03*
X75057002Y15945998D03*
X62992002Y13011996D03*
X91377004Y70047998D03*
X126302000Y56585998D03*
X96139002Y34233998D03*
X2878999Y34057999D03*
X72009002Y13786998D03*
X19304004Y38368996D03*
X70358002Y13786998D03*
X44704002Y76016998D03*
X116967002Y5277998D03*
X34671002Y47695998D03*
X77978002Y16834998D03*
X100203002Y46171998D03*
X144907002Y68142998D03*
X35560002Y11869000D03*
X88392002Y11373998D03*
X32385002Y49473998D03*
X96012000Y76593998D03*
X20473000Y46354998D03*
X43434002Y18612996D03*
X132080002Y37027998D03*
X31242002Y37473000D03*
X118866502Y56524996D03*
X70993002Y38551998D03*
X78740002Y17723998D03*
X33909002Y48711998D03*
X44704002Y67126998D03*
X139065002Y69539998D03*
X116967002Y7309998D03*
X91440002Y58744998D03*
X87376002Y6293998D03*
X73660002Y10357998D03*
X117983002Y10357998D03*
X25019002Y32390996D03*
X32385002Y51505998D03*
X129476002Y73222996D03*
X16637004Y24398996D03*
X119240000Y64078998D03*
X95999000Y46045000D03*
X99581002Y38297996D03*
X44704002Y80080998D03*
X28321002Y49473998D03*
X116967002Y11373998D03*
X114935002Y11373998D03*
X83312002Y58744998D03*
X88392002Y9341998D03*
X76835002Y15945998D03*
X30353002Y49473998D03*
X44704002Y65348998D03*
X125476002Y53029998D03*
X32385002Y7563998D03*
X43447002Y14168000D03*
X88392002Y7309998D03*
X99822002Y34233998D03*
X52013001Y39440998D03*
X95898004Y38297998D03*
X44704002Y77286998D03*
X16002004Y6611998D03*
X144907002Y70936998D03*
X117983002Y8325998D03*
X61214002Y13011996D03*
X44704002Y66237998D03*
X145415002Y69539998D03*
X19304002Y29039996D03*
X50475004Y21025998D03*
X87376002Y8325998D03*
X90424002Y11373998D03*
X32512002Y19628998D03*
X117284004Y67520998D03*
X70358002Y10357998D03*
X117983002Y6293998D03*
X129540002Y37027998D03*
X29337002Y48457998D03*
X39688000Y37408998D03*
X39688000Y39186998D03*
X87503002Y58744998D03*
X67437002Y8198998D03*
X138303002Y65983998D03*
X67437002Y6928998D03*
X18923000Y46355000D03*
X137160002Y67126998D03*
X137160002Y64840998D03*
X139446002Y64840998D03*
X139446002Y67126998D03*
X67437002Y5658998D03*
X65405002Y22930998D03*
X87122002Y23946998D03*
X80264002Y64523000D03*
X97028002Y25470998D03*
X100076002Y56331998D03*
X100076002Y53537998D03*
X51054002Y39440998D03*
X74422002Y35122998D03*
X23889004Y16326998D03*
X23889004Y23438997D03*
X41897000Y17723998D03*
X28829002Y6166998D03*
X24003002Y52140998D03*
X38735002Y77286998D03*
X22098002Y78556998D03*
X39370002Y59379998D03*
X17526002Y74111998D03*
X38735002Y73349998D03*
X38735002Y65348998D03*
X40640002Y59379998D03*
X38735002Y74746998D03*
X38100002Y59379998D03*
X20828002Y78556998D03*
X24130002Y76651998D03*
X41910002Y59379998D03*
X24130002Y74111998D03*
X19558002Y78556998D03*
X24130002Y75381998D03*
X17526002Y76651998D03*
X38735002Y72079998D03*
X38735002Y76016998D03*
X38735002Y67126998D03*
X38735002Y66237998D03*
X43180002Y59379998D03*
X17526002Y75381998D03*
X38735002Y80080998D03*
X38735002Y78683998D03*
X106934002Y35122998D03*
X117221002Y64078998D03*
X139433004Y76143998D03*
X129794002Y57601998D03*
X96012002Y75044000D03*
X139433004Y74365998D03*
X121920002Y64078998D03*
X104140002Y59380000D03*
X94234004Y44025998D03*
X137160002Y74365998D03*
X137160002Y76143998D03*
X138303002Y75254998D03*
X120904002Y58299996D03*
X126175004Y62427998D03*
X95504002Y27756998D03*
X97549000Y46044998D03*
X46049000Y42742998D03*
X53467002Y42742998D03*
X76708000Y38544000D03*
X77523001Y59326999D03*
X16891002Y66491998D03*
X16891002Y63697998D03*
X16891002Y65094998D03*
X16891002Y62300998D03*
X18415002Y70047998D03*
X18415002Y67761998D03*
X21082002Y67761998D03*
X22479002Y67761998D03*
X19685002Y67761998D03*
X22479002Y70047998D03*
X19685002Y70047998D03*
X16891002Y61030998D03*
X23876002Y70047998D03*
X23876002Y67761998D03*
X21082002Y70047998D03*
X90297002Y64713998D03*
X85979002Y70746498D03*
X29337000Y54681000D03*
X53340002Y53664998D03*
X52697882Y56204998D03*
X22034502Y46489498D03*
X17780002Y56839998D03*
X118866502Y58424996D03*
X117856002Y53537998D03*
X106426002Y33598998D03*
X42990004Y30296998D03*
X40132002Y25470998D03*
X97028002Y41218998D03*
X97028002Y33090998D03*
X71628002Y35122998D03*
X48895002Y39440998D03*
X105283002Y55315998D03*
X95504002Y24708998D03*
X105283002Y53410998D03*
X29337002Y53791998D03*
X85979002Y69349498D03*
G04 #@! TA.AperFunction,Conductor*
G36*
X149428500Y82985117D02*
G01*
X149474619Y82938998D01*
X149491500Y82875998D01*
X149491500Y4133998D01*
X149474619Y4070998D01*
X149428500Y4024879D01*
X149365500Y4007998D01*
X634500Y4007998D01*
X571500Y4024879D01*
X525381Y4070998D01*
X508500Y4133998D01*
X508500Y6166998D01*
X28252066Y6166998D01*
X28271724Y6017677D01*
X28329360Y5878531D01*
X28329361Y5878530D01*
X28421047Y5759043D01*
X28540534Y5667357D01*
X28679680Y5609721D01*
X28829002Y5590062D01*
X28978324Y5609721D01*
X29097292Y5658999D01*
X66860066Y5658999D01*
X66879724Y5509677D01*
X66937360Y5370531D01*
X66937361Y5370530D01*
X67029047Y5251043D01*
X67148534Y5159357D01*
X67287680Y5101721D01*
X67437002Y5082062D01*
X67586324Y5101721D01*
X67725470Y5159357D01*
X67844957Y5251043D01*
X67936643Y5370530D01*
X67994279Y5509676D01*
X68013938Y5658998D01*
X67994279Y5808320D01*
X67936643Y5947466D01*
X67844957Y6066953D01*
X67725470Y6158639D01*
X67725469Y6158640D01*
X67679721Y6177589D01*
X67632128Y6212167D01*
X67605420Y6264584D01*
X67605420Y6323412D01*
X67632128Y6375829D01*
X67679721Y6410407D01*
X67694438Y6416504D01*
X67725470Y6429357D01*
X67844957Y6521043D01*
X67936643Y6640530D01*
X67994279Y6779676D01*
X68013938Y6928998D01*
X67994279Y7078320D01*
X67936643Y7217466D01*
X67844957Y7336953D01*
X67725470Y7428639D01*
X67725469Y7428640D01*
X67679721Y7447589D01*
X67632128Y7482167D01*
X67605420Y7534584D01*
X67605420Y7593412D01*
X67632128Y7645829D01*
X67679721Y7680407D01*
X67694438Y7686504D01*
X67725470Y7699357D01*
X67844957Y7791043D01*
X67936643Y7910530D01*
X67994279Y8049676D01*
X68013938Y8198998D01*
X67994279Y8348320D01*
X67936643Y8487466D01*
X67844957Y8606953D01*
X67725470Y8698639D01*
X67725469Y8698640D01*
X67586323Y8756276D01*
X67437002Y8775934D01*
X67287680Y8756276D01*
X67148534Y8698640D01*
X67029047Y8606953D01*
X66937360Y8487466D01*
X66879724Y8348320D01*
X66860066Y8198998D01*
X66879724Y8049677D01*
X66937360Y7910531D01*
X66937361Y7910530D01*
X67029047Y7791043D01*
X67148534Y7699357D01*
X67182793Y7685167D01*
X67194283Y7680407D01*
X67241875Y7645828D01*
X67268583Y7593412D01*
X67268583Y7534584D01*
X67241875Y7482168D01*
X67194283Y7447589D01*
X67148533Y7428639D01*
X67029047Y7336953D01*
X66937360Y7217466D01*
X66879724Y7078320D01*
X66860066Y6928998D01*
X66879724Y6779677D01*
X66937360Y6640531D01*
X66937361Y6640530D01*
X67029047Y6521043D01*
X67148534Y6429357D01*
X67182793Y6415167D01*
X67194283Y6410407D01*
X67241875Y6375828D01*
X67268583Y6323412D01*
X67268583Y6264584D01*
X67241875Y6212168D01*
X67194283Y6177589D01*
X67148533Y6158639D01*
X67029047Y6066953D01*
X66937360Y5947466D01*
X66879724Y5808320D01*
X66860066Y5658999D01*
X29097292Y5658999D01*
X29117470Y5667357D01*
X29236957Y5759043D01*
X29328643Y5878530D01*
X29386279Y6017676D01*
X29405938Y6166998D01*
X29386279Y6316320D01*
X29328643Y6455466D01*
X29236957Y6574953D01*
X29117470Y6666639D01*
X29117469Y6666640D01*
X28978323Y6724276D01*
X28829002Y6743934D01*
X28679680Y6724276D01*
X28540534Y6666640D01*
X28421047Y6574953D01*
X28329360Y6455466D01*
X28271724Y6316320D01*
X28252066Y6166998D01*
X508500Y6166998D01*
X508500Y7563998D01*
X26919068Y7563998D01*
X26938726Y7414676D01*
X26996362Y7275530D01*
X26996363Y7275529D01*
X27088049Y7156042D01*
X27207536Y7064356D01*
X27346682Y7006720D01*
X27496004Y6987061D01*
X27645326Y7006720D01*
X27784472Y7064356D01*
X27903959Y7156042D01*
X27995645Y7275529D01*
X28053281Y7414675D01*
X28072940Y7563997D01*
X28053281Y7713319D01*
X27995645Y7852465D01*
X27903959Y7971952D01*
X27784472Y8063638D01*
X27784471Y8063639D01*
X27645325Y8121275D01*
X27496004Y8140933D01*
X27346682Y8121275D01*
X27207536Y8063639D01*
X27088049Y7971952D01*
X26996362Y7852465D01*
X26938726Y7713319D01*
X26919068Y7563998D01*
X508500Y7563998D01*
X508500Y8375000D01*
X4695500Y8375000D01*
X4715415Y8223721D01*
X4773808Y8082749D01*
X4866695Y7961696D01*
X4987748Y7868809D01*
X4987749Y7868809D01*
X4987750Y7868808D01*
X5128720Y7810416D01*
X5242020Y7795500D01*
X5317980Y7795500D01*
X5431280Y7810416D01*
X5572250Y7868808D01*
X5693304Y7961696D01*
X5786192Y8082750D01*
X5844584Y8223720D01*
X5864500Y8375000D01*
X5844584Y8526280D01*
X5786192Y8667250D01*
X5786191Y8667251D01*
X5786191Y8667252D01*
X5693304Y8788305D01*
X5572251Y8881192D01*
X5431279Y8939585D01*
X5317980Y8954500D01*
X5242020Y8954500D01*
X5128720Y8939585D01*
X4987748Y8881192D01*
X4866695Y8788305D01*
X4773808Y8667252D01*
X4715415Y8526280D01*
X4695500Y8375000D01*
X508500Y8375000D01*
X508500Y9341998D01*
X31871068Y9341998D01*
X31890726Y9192677D01*
X31948362Y9053531D01*
X31948363Y9053530D01*
X32040049Y8934043D01*
X32159536Y8842357D01*
X32298682Y8784721D01*
X32448004Y8765062D01*
X32597326Y8784721D01*
X32736472Y8842357D01*
X32855959Y8934043D01*
X32947645Y9053530D01*
X33005281Y9192676D01*
X33024940Y9341998D01*
X33005281Y9491320D01*
X32947645Y9630466D01*
X32855959Y9749953D01*
X32736472Y9841639D01*
X32736471Y9841640D01*
X32597325Y9899276D01*
X32448004Y9918934D01*
X32298682Y9899276D01*
X32159536Y9841640D01*
X32040049Y9749953D01*
X31948362Y9630466D01*
X31890726Y9491320D01*
X31871068Y9341998D01*
X508500Y9341998D01*
X508500Y10484998D01*
X54287066Y10484998D01*
X54306724Y10335677D01*
X54364360Y10196531D01*
X54364361Y10196530D01*
X54456047Y10077043D01*
X54575534Y9985357D01*
X54714680Y9927721D01*
X54864002Y9908062D01*
X55013324Y9927721D01*
X55152470Y9985357D01*
X55271957Y10077043D01*
X55363643Y10196530D01*
X55421279Y10335676D01*
X55440938Y10484998D01*
X55421279Y10634320D01*
X55363643Y10773466D01*
X55271957Y10892953D01*
X55152470Y10984639D01*
X55152469Y10984640D01*
X55013323Y11042276D01*
X54864002Y11061934D01*
X54714680Y11042276D01*
X54575534Y10984640D01*
X54456047Y10892953D01*
X54364360Y10773466D01*
X54306724Y10634320D01*
X54287066Y10484998D01*
X508500Y10484998D01*
X508500Y12897998D01*
X27744066Y12897998D01*
X27763724Y12748677D01*
X27821360Y12609531D01*
X27821361Y12609530D01*
X27913047Y12490043D01*
X28032534Y12398357D01*
X28171680Y12340721D01*
X28321002Y12321062D01*
X28470324Y12340721D01*
X28609470Y12398357D01*
X28728957Y12490043D01*
X28820643Y12609530D01*
X28878279Y12748676D01*
X28897938Y12897998D01*
X28878279Y13047320D01*
X28820643Y13186466D01*
X28728957Y13305953D01*
X28609470Y13397639D01*
X28609469Y13397640D01*
X28557901Y13419000D01*
X34983066Y13419000D01*
X35002724Y13269679D01*
X35060360Y13130533D01*
X35060361Y13130532D01*
X35152047Y13011045D01*
X35271534Y12919359D01*
X35410680Y12861723D01*
X35560002Y12842064D01*
X35709324Y12861723D01*
X35848470Y12919359D01*
X35967957Y13011045D01*
X36059643Y13130532D01*
X36117279Y13269678D01*
X36136938Y13419000D01*
X36117279Y13568322D01*
X36059643Y13707468D01*
X35967957Y13826955D01*
X35848470Y13918641D01*
X35848469Y13918642D01*
X35709323Y13976278D01*
X35560002Y13995936D01*
X35410680Y13976278D01*
X35271534Y13918642D01*
X35152047Y13826955D01*
X35060360Y13707468D01*
X35002724Y13568322D01*
X34983066Y13419000D01*
X28557901Y13419000D01*
X28470323Y13455276D01*
X28321002Y13474934D01*
X28171680Y13455276D01*
X28032534Y13397640D01*
X27913047Y13305953D01*
X27821360Y13186466D01*
X27763724Y13047320D01*
X27744066Y12897998D01*
X508500Y12897998D01*
X508500Y14155000D01*
X4695500Y14155000D01*
X4715415Y14003721D01*
X4773808Y13862749D01*
X4866695Y13741696D01*
X4987748Y13648809D01*
X4987749Y13648809D01*
X4987750Y13648808D01*
X5128720Y13590416D01*
X5242020Y13575500D01*
X5317980Y13575500D01*
X5431280Y13590416D01*
X5572250Y13648808D01*
X5693304Y13741696D01*
X5786192Y13862750D01*
X5844584Y14003720D01*
X5864500Y14155000D01*
X5844584Y14306280D01*
X5786192Y14447250D01*
X5786191Y14447251D01*
X5786191Y14447252D01*
X5708119Y14548998D01*
X23312066Y14548998D01*
X23331724Y14399677D01*
X23389360Y14260531D01*
X23389361Y14260530D01*
X23481047Y14141043D01*
X23600534Y14049357D01*
X23739680Y13991721D01*
X23889002Y13972062D01*
X24038324Y13991721D01*
X24177470Y14049357D01*
X24296957Y14141043D01*
X24317640Y14167998D01*
X41320064Y14167998D01*
X41339722Y14018677D01*
X41397358Y13879531D01*
X41418690Y13851730D01*
X41489045Y13760043D01*
X41608532Y13668357D01*
X41747678Y13610721D01*
X41897000Y13591062D01*
X42046322Y13610721D01*
X42185468Y13668357D01*
X42304955Y13760043D01*
X42396641Y13879530D01*
X42454277Y14018676D01*
X42473936Y14167998D01*
X42454277Y14317320D01*
X42396641Y14456466D01*
X42304955Y14575953D01*
X42185468Y14667639D01*
X42185467Y14667640D01*
X42046321Y14725276D01*
X41897000Y14744934D01*
X41747678Y14725276D01*
X41608532Y14667640D01*
X41489045Y14575953D01*
X41397358Y14456466D01*
X41339722Y14317320D01*
X41320064Y14167998D01*
X24317640Y14167998D01*
X24388643Y14260530D01*
X24446279Y14399676D01*
X24465938Y14548998D01*
X24446279Y14698320D01*
X24388643Y14837466D01*
X24296957Y14956953D01*
X24177470Y15048639D01*
X24177469Y15048640D01*
X24038323Y15106276D01*
X23889002Y15125934D01*
X23739680Y15106276D01*
X23600534Y15048640D01*
X23481047Y14956953D01*
X23389360Y14837466D01*
X23331724Y14698320D01*
X23312066Y14548998D01*
X5708119Y14548998D01*
X5693304Y14568305D01*
X5572251Y14661192D01*
X5431279Y14719585D01*
X5317980Y14734500D01*
X5242020Y14734500D01*
X5128720Y14719585D01*
X4987748Y14661192D01*
X4866695Y14568305D01*
X4773808Y14447252D01*
X4715415Y14306280D01*
X4695500Y14155000D01*
X508500Y14155000D01*
X508500Y16326999D01*
X23312068Y16326999D01*
X23331726Y16177677D01*
X23389362Y16038531D01*
X23389363Y16038530D01*
X23481049Y15919043D01*
X23600536Y15827357D01*
X23739682Y15769721D01*
X23889004Y15750062D01*
X24038326Y15769721D01*
X24157292Y15818998D01*
X60637066Y15818998D01*
X60656724Y15669677D01*
X60714360Y15530531D01*
X60714361Y15530530D01*
X60806047Y15411043D01*
X60925534Y15319357D01*
X61064680Y15261721D01*
X61214002Y15242062D01*
X61363324Y15261721D01*
X61502470Y15319357D01*
X61621957Y15411043D01*
X61713643Y15530530D01*
X61771279Y15669676D01*
X61790938Y15818998D01*
X61771279Y15968320D01*
X61758711Y15998662D01*
X61749508Y16056766D01*
X61767687Y16112715D01*
X61809285Y16154313D01*
X61865234Y16172492D01*
X61923338Y16163289D01*
X61953680Y16150721D01*
X62103002Y16131062D01*
X62234952Y16148435D01*
X62252325Y16150721D01*
X62282664Y16163288D01*
X62340767Y16172492D01*
X62396716Y16154313D01*
X62438315Y16112716D01*
X62456494Y16056768D01*
X62447293Y15998664D01*
X62434724Y15968321D01*
X62415066Y15818998D01*
X62434724Y15669677D01*
X62492360Y15530531D01*
X62492361Y15530530D01*
X62584047Y15411043D01*
X62703534Y15319357D01*
X62842680Y15261721D01*
X62992002Y15242062D01*
X63141324Y15261721D01*
X63280470Y15319357D01*
X63387752Y15401678D01*
X95006708Y15401678D01*
X95025839Y15182999D01*
X95082652Y14970976D01*
X95175420Y14772032D01*
X95301328Y14592217D01*
X95456539Y14437006D01*
X95456542Y14437004D01*
X95456543Y14437003D01*
X95636354Y14311098D01*
X95835297Y14218330D01*
X95928781Y14193281D01*
X96047321Y14161517D01*
X96047322Y14161517D01*
X96047326Y14161516D01*
X96266000Y14142385D01*
X96484674Y14161516D01*
X96696703Y14218330D01*
X96895646Y14311098D01*
X97075457Y14437003D01*
X97230674Y14592220D01*
X97356579Y14772031D01*
X97449347Y14970974D01*
X97506161Y15183003D01*
X97525292Y15401677D01*
X97525292Y15401678D01*
X107706708Y15401678D01*
X107725839Y15182999D01*
X107782652Y14970976D01*
X107875420Y14772032D01*
X108001328Y14592217D01*
X108156539Y14437006D01*
X108156542Y14437004D01*
X108156543Y14437003D01*
X108336354Y14311098D01*
X108535297Y14218330D01*
X108628781Y14193281D01*
X108747321Y14161517D01*
X108747322Y14161517D01*
X108747326Y14161516D01*
X108966000Y14142385D01*
X109184674Y14161516D01*
X109396703Y14218330D01*
X109595646Y14311098D01*
X109775457Y14437003D01*
X109930674Y14592220D01*
X110056579Y14772031D01*
X110149347Y14970974D01*
X110206161Y15183003D01*
X110225292Y15401677D01*
X110206161Y15620351D01*
X110149347Y15832380D01*
X110056579Y16031323D01*
X109930674Y16211134D01*
X109930673Y16211135D01*
X109930671Y16211138D01*
X109775460Y16366349D01*
X109595645Y16492257D01*
X109396701Y16585025D01*
X109184678Y16641838D01*
X108966000Y16660969D01*
X108747321Y16641838D01*
X108535298Y16585025D01*
X108336354Y16492257D01*
X108156539Y16366349D01*
X108001328Y16211138D01*
X107875420Y16031323D01*
X107782652Y15832379D01*
X107725839Y15620356D01*
X107706708Y15401678D01*
X97525292Y15401678D01*
X97506161Y15620351D01*
X97449347Y15832380D01*
X97356579Y16031323D01*
X97230674Y16211134D01*
X97230673Y16211135D01*
X97230671Y16211138D01*
X97075460Y16366349D01*
X96895645Y16492257D01*
X96696701Y16585025D01*
X96484678Y16641838D01*
X96266000Y16660969D01*
X96047321Y16641838D01*
X95835298Y16585025D01*
X95636354Y16492257D01*
X95456539Y16366349D01*
X95301328Y16211138D01*
X95175420Y16031323D01*
X95082652Y15832379D01*
X95025839Y15620356D01*
X95006708Y15401678D01*
X63387752Y15401678D01*
X63399957Y15411043D01*
X63491643Y15530530D01*
X63549279Y15669676D01*
X63568938Y15818998D01*
X63549279Y15968320D01*
X63491643Y16107466D01*
X63399957Y16226953D01*
X63280470Y16318639D01*
X63280469Y16318640D01*
X63141323Y16376276D01*
X62992002Y16395934D01*
X62842679Y16376276D01*
X62812336Y16363707D01*
X62754232Y16354506D01*
X62698284Y16372685D01*
X62656687Y16414284D01*
X62638508Y16470233D01*
X62647712Y16528336D01*
X62660279Y16558675D01*
X62663748Y16585025D01*
X62679938Y16707998D01*
X62660279Y16857320D01*
X62649114Y16884275D01*
X62647711Y16887662D01*
X62638508Y16945766D01*
X62656687Y17001715D01*
X62698285Y17043313D01*
X62754234Y17061492D01*
X62812338Y17052289D01*
X62842680Y17039721D01*
X62992002Y17020062D01*
X63141324Y17039721D01*
X63280470Y17097357D01*
X63399957Y17189043D01*
X63491643Y17308530D01*
X63549279Y17447676D01*
X63568938Y17596998D01*
X63549279Y17746320D01*
X63491643Y17885466D01*
X63399957Y18004953D01*
X63280470Y18096639D01*
X63280469Y18096640D01*
X63141323Y18154276D01*
X62992002Y18173934D01*
X62842679Y18154276D01*
X62812336Y18141707D01*
X62754232Y18132506D01*
X62698284Y18150685D01*
X62656687Y18192284D01*
X62638508Y18248233D01*
X62647712Y18306336D01*
X62660279Y18336675D01*
X62662327Y18352237D01*
X62679938Y18485998D01*
X62660279Y18635320D01*
X62647711Y18665662D01*
X62638508Y18723766D01*
X62656687Y18779715D01*
X62698285Y18821313D01*
X62754234Y18839492D01*
X62812338Y18830289D01*
X62842680Y18817721D01*
X62992002Y18798062D01*
X63141324Y18817721D01*
X63280470Y18875357D01*
X63399957Y18967043D01*
X63491643Y19086530D01*
X63549279Y19225676D01*
X63568938Y19374998D01*
X63568726Y19376609D01*
X95011500Y19376609D01*
X95026265Y19302377D01*
X95082515Y19218193D01*
X95116723Y19195336D01*
X95166699Y19161943D01*
X95240933Y19147177D01*
X97291066Y19147178D01*
X97291068Y19147178D01*
X97340556Y19157022D01*
X97365301Y19161943D01*
X97449484Y19218193D01*
X97505734Y19302376D01*
X97520500Y19376609D01*
X107711500Y19376609D01*
X107726265Y19302377D01*
X107782515Y19218193D01*
X107816723Y19195336D01*
X107866699Y19161943D01*
X107940933Y19147177D01*
X109991066Y19147178D01*
X109991068Y19147178D01*
X110040556Y19157022D01*
X110065301Y19161943D01*
X110149484Y19218193D01*
X110170476Y19249609D01*
X126126500Y19249609D01*
X126141265Y19175377D01*
X126197515Y19091193D01*
X126239808Y19062934D01*
X126281699Y19034943D01*
X126355933Y19020177D01*
X128406066Y19020178D01*
X128406068Y19020178D01*
X128459008Y19030708D01*
X128480301Y19034943D01*
X128564484Y19091193D01*
X128620734Y19175376D01*
X128635500Y19249609D01*
X138445500Y19249609D01*
X138460265Y19175377D01*
X138516515Y19091193D01*
X138558808Y19062934D01*
X138600699Y19034943D01*
X138674933Y19020177D01*
X140725066Y19020178D01*
X140725068Y19020178D01*
X140778008Y19030708D01*
X140799301Y19034943D01*
X140883484Y19091193D01*
X140939734Y19175376D01*
X140954500Y19249610D01*
X140954499Y21299743D01*
X140954499Y21299744D01*
X140954499Y21299746D01*
X140939734Y21373978D01*
X140883484Y21458162D01*
X140799301Y21514411D01*
X140799300Y21514412D01*
X140725066Y21529177D01*
X138674931Y21529177D01*
X138600699Y21514412D01*
X138516515Y21458162D01*
X138460266Y21373979D01*
X138445500Y21299744D01*
X138445500Y19249609D01*
X128635500Y19249609D01*
X128635500Y19249610D01*
X128635499Y21299743D01*
X128635499Y21299744D01*
X128635499Y21299746D01*
X128620734Y21373978D01*
X128564484Y21458162D01*
X128480301Y21514411D01*
X128480300Y21514412D01*
X128406066Y21529177D01*
X126355931Y21529177D01*
X126281699Y21514412D01*
X126197515Y21458162D01*
X126141266Y21373979D01*
X126126500Y21299744D01*
X126126500Y19249609D01*
X110170476Y19249609D01*
X110205734Y19302376D01*
X110220500Y19376610D01*
X110220499Y21426743D01*
X110220499Y21426744D01*
X110220499Y21426746D01*
X110205734Y21500978D01*
X110149484Y21585162D01*
X110065301Y21641411D01*
X110065300Y21641412D01*
X109991066Y21656177D01*
X107940931Y21656177D01*
X107866699Y21641412D01*
X107782515Y21585162D01*
X107726266Y21500979D01*
X107711500Y21426744D01*
X107711500Y19376609D01*
X97520500Y19376609D01*
X97520500Y19376610D01*
X97520499Y21426743D01*
X97520499Y21426744D01*
X97520499Y21426746D01*
X97505734Y21500978D01*
X97449484Y21585162D01*
X97365301Y21641411D01*
X97365300Y21641412D01*
X97291066Y21656177D01*
X95240931Y21656177D01*
X95166699Y21641412D01*
X95082515Y21585162D01*
X95026266Y21500979D01*
X95011500Y21426744D01*
X95011500Y19376609D01*
X63568726Y19376609D01*
X63549279Y19524320D01*
X63491643Y19663466D01*
X63399957Y19782953D01*
X63280470Y19874639D01*
X63280469Y19874640D01*
X63141323Y19932276D01*
X62992002Y19951934D01*
X62842680Y19932276D01*
X62703534Y19874640D01*
X62584047Y19782953D01*
X62492360Y19663466D01*
X62434724Y19524320D01*
X62415066Y19374999D01*
X62434724Y19225675D01*
X62447292Y19195334D01*
X62456495Y19137230D01*
X62438316Y19081282D01*
X62396718Y19039684D01*
X62340770Y19021505D01*
X62282666Y19030708D01*
X62252325Y19043276D01*
X62103002Y19062934D01*
X61953679Y19043276D01*
X61923336Y19030707D01*
X61865232Y19021506D01*
X61809284Y19039685D01*
X61767687Y19081284D01*
X61749508Y19137233D01*
X61758712Y19195336D01*
X61771279Y19225675D01*
X61774430Y19249611D01*
X61790938Y19374998D01*
X61771279Y19524320D01*
X61713643Y19663466D01*
X61621957Y19782953D01*
X61502470Y19874639D01*
X61502469Y19874640D01*
X61363323Y19932276D01*
X61214002Y19951934D01*
X61064680Y19932276D01*
X60925534Y19874640D01*
X60806047Y19782953D01*
X60714360Y19663466D01*
X60656724Y19524320D01*
X60637066Y19374999D01*
X60656724Y19225677D01*
X60714360Y19086531D01*
X60714361Y19086530D01*
X60806047Y18967043D01*
X60925534Y18875357D01*
X61064680Y18817721D01*
X61214002Y18798062D01*
X61345952Y18815435D01*
X61363325Y18817721D01*
X61393664Y18830288D01*
X61451767Y18839492D01*
X61507716Y18821313D01*
X61549315Y18779716D01*
X61567494Y18723768D01*
X61558293Y18665664D01*
X61545724Y18635321D01*
X61526066Y18485999D01*
X61545724Y18336675D01*
X61558292Y18306334D01*
X61567495Y18248230D01*
X61549316Y18192282D01*
X61507718Y18150684D01*
X61451770Y18132505D01*
X61393666Y18141708D01*
X61363325Y18154276D01*
X61214002Y18173934D01*
X61064680Y18154276D01*
X60925534Y18096640D01*
X60806047Y18004953D01*
X60714360Y17885466D01*
X60656724Y17746320D01*
X60637066Y17596998D01*
X60656724Y17447677D01*
X60714360Y17308531D01*
X60714361Y17308530D01*
X60806047Y17189043D01*
X60925534Y17097357D01*
X61064680Y17039721D01*
X61214002Y17020062D01*
X61345952Y17037435D01*
X61363325Y17039721D01*
X61393664Y17052288D01*
X61451767Y17061492D01*
X61507716Y17043313D01*
X61549315Y17001716D01*
X61567494Y16945768D01*
X61558293Y16887664D01*
X61545724Y16857321D01*
X61526066Y16707999D01*
X61545724Y16558675D01*
X61558292Y16528334D01*
X61567495Y16470230D01*
X61549316Y16414282D01*
X61507718Y16372684D01*
X61451770Y16354505D01*
X61393666Y16363708D01*
X61363325Y16376276D01*
X61214002Y16395934D01*
X61064680Y16376276D01*
X60925534Y16318640D01*
X60806047Y16226953D01*
X60714360Y16107466D01*
X60656724Y15968320D01*
X60637066Y15818998D01*
X24157292Y15818998D01*
X24177472Y15827357D01*
X24296959Y15919043D01*
X24388645Y16038530D01*
X24446281Y16177676D01*
X24465940Y16326998D01*
X24446281Y16476320D01*
X24388645Y16615466D01*
X24296959Y16734953D01*
X24177472Y16826639D01*
X24177471Y16826640D01*
X24038325Y16884276D01*
X23889004Y16903934D01*
X23739682Y16884276D01*
X23600536Y16826640D01*
X23481049Y16734953D01*
X23389362Y16615466D01*
X23331726Y16476320D01*
X23312068Y16326999D01*
X508500Y16326999D01*
X508500Y17723998D01*
X41320064Y17723998D01*
X41339722Y17574677D01*
X41397358Y17435531D01*
X41397359Y17435530D01*
X41489045Y17316043D01*
X41608532Y17224357D01*
X41747678Y17166721D01*
X41897000Y17147062D01*
X42046322Y17166721D01*
X42185468Y17224357D01*
X42304955Y17316043D01*
X42396641Y17435530D01*
X42454277Y17574676D01*
X42473936Y17723998D01*
X42454277Y17873320D01*
X42396641Y18012466D01*
X42304955Y18131953D01*
X42185468Y18223639D01*
X42185467Y18223640D01*
X42046321Y18281276D01*
X41897000Y18300934D01*
X41747678Y18281276D01*
X41608532Y18223640D01*
X41489045Y18131953D01*
X41397358Y18012466D01*
X41339722Y17873320D01*
X41320064Y17723998D01*
X508500Y17723998D01*
X508500Y19501998D01*
X41320068Y19501998D01*
X41339726Y19352677D01*
X41397362Y19213531D01*
X41397363Y19213530D01*
X41489049Y19094043D01*
X41608536Y19002357D01*
X41747682Y18944721D01*
X41897004Y18925062D01*
X42046326Y18944721D01*
X42185472Y19002357D01*
X42304959Y19094043D01*
X42396645Y19213530D01*
X42454281Y19352676D01*
X42473940Y19501998D01*
X42454281Y19651320D01*
X42396645Y19790466D01*
X42304959Y19909953D01*
X42185472Y20001639D01*
X42185471Y20001640D01*
X42046325Y20059276D01*
X41897004Y20078934D01*
X41747682Y20059276D01*
X41608536Y20001640D01*
X41489049Y19909953D01*
X41397362Y19790466D01*
X41339726Y19651320D01*
X41320068Y19501998D01*
X508500Y19501998D01*
X508500Y21660998D01*
X23312066Y21660998D01*
X23331724Y21511677D01*
X23389360Y21372531D01*
X23389361Y21372530D01*
X23481047Y21253043D01*
X23600534Y21161357D01*
X23739680Y21103721D01*
X23889002Y21084062D01*
X24038324Y21103721D01*
X24177470Y21161357D01*
X24296957Y21253043D01*
X24388643Y21372530D01*
X24446279Y21511676D01*
X24465938Y21660998D01*
X24446279Y21810320D01*
X24388643Y21949466D01*
X24296957Y22068953D01*
X24177470Y22160639D01*
X24177469Y22160640D01*
X24038323Y22218276D01*
X23889002Y22237934D01*
X23739680Y22218276D01*
X23600534Y22160640D01*
X23481047Y22068953D01*
X23389360Y21949466D01*
X23331724Y21810320D01*
X23312066Y21660998D01*
X508500Y21660998D01*
X508500Y23438997D01*
X23312068Y23438997D01*
X23331726Y23289676D01*
X23389362Y23150530D01*
X23389363Y23150529D01*
X23481049Y23031042D01*
X23600536Y22939356D01*
X23739682Y22881720D01*
X23889004Y22862061D01*
X24038326Y22881720D01*
X24157296Y22930999D01*
X64828066Y22930999D01*
X64847724Y22781677D01*
X64905360Y22642531D01*
X64905361Y22642530D01*
X64997047Y22523043D01*
X65116534Y22431357D01*
X65255680Y22373721D01*
X65405002Y22354062D01*
X65554324Y22373721D01*
X65693470Y22431357D01*
X65812957Y22523043D01*
X65904643Y22642530D01*
X65962279Y22781676D01*
X65981938Y22930998D01*
X65962279Y23080320D01*
X65904643Y23219466D01*
X65812957Y23338953D01*
X65693470Y23430639D01*
X65693469Y23430640D01*
X65554323Y23488276D01*
X65405002Y23507934D01*
X65255680Y23488276D01*
X65116534Y23430640D01*
X64997047Y23338953D01*
X64905360Y23219466D01*
X64847724Y23080320D01*
X64828066Y22930999D01*
X24157296Y22930999D01*
X24177472Y22939356D01*
X24296959Y23031042D01*
X24388645Y23150529D01*
X24446281Y23289675D01*
X24465940Y23438997D01*
X24446281Y23588319D01*
X24388645Y23727465D01*
X24296959Y23846952D01*
X24177472Y23938638D01*
X24177471Y23938639D01*
X24157291Y23946998D01*
X86545066Y23946998D01*
X86564724Y23797677D01*
X86622360Y23658531D01*
X86622361Y23658530D01*
X86714047Y23539043D01*
X86833534Y23447357D01*
X86972680Y23389721D01*
X87122002Y23370062D01*
X87271324Y23389721D01*
X87410470Y23447357D01*
X87529957Y23539043D01*
X87621643Y23658530D01*
X87679279Y23797676D01*
X87698938Y23946998D01*
X87679279Y24096320D01*
X87621643Y24235466D01*
X87529957Y24354953D01*
X87410470Y24446639D01*
X87410469Y24446640D01*
X87271323Y24504276D01*
X87122002Y24523934D01*
X86972680Y24504276D01*
X86833534Y24446640D01*
X86714047Y24354953D01*
X86622360Y24235466D01*
X86564724Y24096320D01*
X86545066Y23946998D01*
X24157291Y23946998D01*
X24038325Y23996275D01*
X23889004Y24015933D01*
X23739682Y23996275D01*
X23600536Y23938639D01*
X23481049Y23846952D01*
X23389362Y23727465D01*
X23331726Y23588319D01*
X23312068Y23438997D01*
X508500Y23438997D01*
X508500Y24708998D01*
X94927066Y24708998D01*
X94946724Y24559677D01*
X95004360Y24420531D01*
X95004361Y24420530D01*
X95096047Y24301043D01*
X95215534Y24209357D01*
X95354680Y24151721D01*
X95504002Y24132062D01*
X95653324Y24151721D01*
X95792470Y24209357D01*
X95911957Y24301043D01*
X96003643Y24420530D01*
X96061279Y24559676D01*
X96080938Y24708998D01*
X96061279Y24858320D01*
X96003643Y24997466D01*
X95911957Y25116953D01*
X95792470Y25208639D01*
X95792469Y25208640D01*
X95653323Y25266276D01*
X95504002Y25285934D01*
X95354680Y25266276D01*
X95215534Y25208640D01*
X95096047Y25116953D01*
X95004360Y24997466D01*
X94946724Y24858320D01*
X94927066Y24708998D01*
X508500Y24708998D01*
X508500Y25808000D01*
X5529694Y25808000D01*
X5548162Y25608702D01*
X5602937Y25416187D01*
X5692152Y25237019D01*
X5692154Y25237017D01*
X5812773Y25077292D01*
X5960688Y24942449D01*
X6130862Y24837082D01*
X6317500Y24764778D01*
X6514245Y24728000D01*
X6714397Y24728000D01*
X6714399Y24728000D01*
X6911144Y24764778D01*
X7097782Y24837082D01*
X7267956Y24942449D01*
X7415871Y25077292D01*
X7536490Y25237017D01*
X7625707Y25416188D01*
X7641302Y25470998D01*
X39555066Y25470998D01*
X39574724Y25321677D01*
X39632360Y25182531D01*
X39632361Y25182530D01*
X39724047Y25063043D01*
X39843534Y24971357D01*
X39982680Y24913721D01*
X40132002Y24894062D01*
X40281324Y24913721D01*
X40420470Y24971357D01*
X40539957Y25063043D01*
X40631643Y25182530D01*
X40689279Y25321676D01*
X40708938Y25470998D01*
X96451066Y25470998D01*
X96470724Y25321677D01*
X96528360Y25182531D01*
X96528361Y25182530D01*
X96620047Y25063043D01*
X96739534Y24971357D01*
X96878680Y24913721D01*
X97028002Y24894062D01*
X97177324Y24913721D01*
X97316470Y24971357D01*
X97435957Y25063043D01*
X97527643Y25182530D01*
X97585279Y25321676D01*
X97604938Y25470998D01*
X97585279Y25620320D01*
X97527643Y25759466D01*
X97435957Y25878953D01*
X97316470Y25970639D01*
X97316469Y25970640D01*
X97177323Y26028276D01*
X97028002Y26047934D01*
X96878680Y26028276D01*
X96739534Y25970640D01*
X96620047Y25878953D01*
X96528360Y25759466D01*
X96470724Y25620320D01*
X96451066Y25470998D01*
X40708938Y25470998D01*
X40689279Y25620320D01*
X40631643Y25759466D01*
X40539957Y25878953D01*
X40420470Y25970639D01*
X40420469Y25970640D01*
X40281323Y26028276D01*
X40132002Y26047934D01*
X39982680Y26028276D01*
X39843534Y25970640D01*
X39724047Y25878953D01*
X39632360Y25759466D01*
X39574724Y25620320D01*
X39555066Y25470998D01*
X7641302Y25470998D01*
X7680481Y25608700D01*
X7698949Y25808000D01*
X7680481Y26007300D01*
X7625707Y26199812D01*
X7624980Y26201271D01*
X7536491Y26378982D01*
X7506959Y26418089D01*
X7415871Y26538708D01*
X7267956Y26673551D01*
X7220655Y26702839D01*
X7097783Y26778918D01*
X6911144Y26851222D01*
X6911143Y26851223D01*
X6714399Y26888000D01*
X6514245Y26888000D01*
X6383081Y26863482D01*
X6317499Y26851222D01*
X6130860Y26778918D01*
X5960689Y26673552D01*
X5812772Y26538707D01*
X5692152Y26378982D01*
X5602937Y26199814D01*
X5548162Y26007299D01*
X5529694Y25808000D01*
X508500Y25808000D01*
X508500Y27490001D01*
X18727066Y27490001D01*
X18746724Y27340679D01*
X18804360Y27201533D01*
X18820835Y27180063D01*
X18896047Y27082045D01*
X19015534Y26990359D01*
X19154680Y26932723D01*
X19304002Y26913064D01*
X19453324Y26932723D01*
X19592470Y26990359D01*
X19711957Y27082045D01*
X19803643Y27201532D01*
X19861279Y27340678D01*
X19880938Y27490000D01*
X19861279Y27639322D01*
X19812536Y27756998D01*
X94927066Y27756998D01*
X94946724Y27607677D01*
X95004360Y27468531D01*
X95004361Y27468530D01*
X95096047Y27349043D01*
X95215534Y27257357D01*
X95354680Y27199721D01*
X95504002Y27180062D01*
X95653324Y27199721D01*
X95792470Y27257357D01*
X95911957Y27349043D01*
X96003643Y27468530D01*
X96061279Y27607676D01*
X96080938Y27756998D01*
X96061279Y27906320D01*
X96003643Y28045466D01*
X95911957Y28164953D01*
X95792470Y28256639D01*
X95792469Y28256640D01*
X95653323Y28314276D01*
X95504002Y28333934D01*
X95354680Y28314276D01*
X95215534Y28256640D01*
X95096047Y28164953D01*
X95004360Y28045466D01*
X94946724Y27906320D01*
X94927066Y27756998D01*
X19812536Y27756998D01*
X19803643Y27778468D01*
X19711957Y27897955D01*
X19592470Y27989641D01*
X19592469Y27989642D01*
X19453323Y28047278D01*
X19304002Y28066936D01*
X19154680Y28047278D01*
X19015534Y27989642D01*
X18896047Y27897955D01*
X18804360Y27778468D01*
X18746724Y27639322D01*
X18727066Y27490001D01*
X508500Y27490001D01*
X508500Y28632997D01*
X28760066Y28632997D01*
X28779724Y28483675D01*
X28837360Y28344529D01*
X28837361Y28344528D01*
X28929047Y28225041D01*
X29048534Y28133355D01*
X29187680Y28075719D01*
X29337002Y28056060D01*
X29486324Y28075719D01*
X29625470Y28133355D01*
X29744957Y28225041D01*
X29836643Y28344528D01*
X29894279Y28483674D01*
X29913938Y28632996D01*
X29913937Y28633000D01*
X33840066Y28633000D01*
X33859724Y28483679D01*
X33917360Y28344533D01*
X33917361Y28344532D01*
X34009047Y28225045D01*
X34128534Y28133359D01*
X34267680Y28075723D01*
X34417002Y28056064D01*
X34566324Y28075723D01*
X34705470Y28133359D01*
X34824957Y28225045D01*
X34916643Y28344532D01*
X34974279Y28483678D01*
X34993938Y28633000D01*
X34974279Y28782322D01*
X34916643Y28921468D01*
X34824957Y29040955D01*
X34733269Y29111310D01*
X34705469Y29132642D01*
X34566323Y29190278D01*
X34417002Y29209936D01*
X34267680Y29190278D01*
X34128534Y29132642D01*
X34009047Y29040955D01*
X33917360Y28921468D01*
X33859724Y28782322D01*
X33840066Y28633000D01*
X29913937Y28633000D01*
X29894279Y28782318D01*
X29836643Y28921464D01*
X29744957Y29040951D01*
X29625470Y29132637D01*
X29625469Y29132638D01*
X29486323Y29190274D01*
X29337002Y29209932D01*
X29187680Y29190274D01*
X29048534Y29132638D01*
X28929047Y29040951D01*
X28837360Y28921464D01*
X28779724Y28782318D01*
X28760066Y28632997D01*
X508500Y28632997D01*
X508500Y30296999D01*
X42413068Y30296999D01*
X42432726Y30147677D01*
X42490362Y30008531D01*
X42490363Y30008530D01*
X42582049Y29889043D01*
X42701536Y29797357D01*
X42840682Y29739721D01*
X42990004Y29720062D01*
X43139326Y29739721D01*
X43278472Y29797357D01*
X43397959Y29889043D01*
X43489645Y30008530D01*
X43547281Y30147676D01*
X43566940Y30296998D01*
X43547281Y30446320D01*
X43489645Y30585466D01*
X43397959Y30704953D01*
X43278472Y30796639D01*
X43278471Y30796640D01*
X43139325Y30854276D01*
X42990004Y30873934D01*
X42840682Y30854276D01*
X42701536Y30796640D01*
X42582049Y30704953D01*
X42490362Y30585466D01*
X42432726Y30446320D01*
X42413068Y30296999D01*
X508500Y30296999D01*
X508500Y32582998D01*
X91638066Y32582998D01*
X91657724Y32433677D01*
X91715360Y32294531D01*
X91715361Y32294530D01*
X91807047Y32175043D01*
X91926534Y32083357D01*
X92065680Y32025721D01*
X92215002Y32006062D01*
X92364324Y32025721D01*
X92503470Y32083357D01*
X92622957Y32175043D01*
X92714643Y32294530D01*
X92772279Y32433676D01*
X92791938Y32582998D01*
X92772279Y32732320D01*
X92714643Y32871466D01*
X92622957Y32990953D01*
X92518310Y33071252D01*
X92503469Y33082640D01*
X92483291Y33090998D01*
X96451066Y33090998D01*
X96470724Y32941677D01*
X96528360Y32802531D01*
X96528361Y32802530D01*
X96620047Y32683043D01*
X96739534Y32591357D01*
X96878680Y32533721D01*
X97028002Y32514062D01*
X97177324Y32533721D01*
X97316470Y32591357D01*
X97435957Y32683043D01*
X97527643Y32802530D01*
X97551862Y32860999D01*
X136888852Y32860999D01*
X136908406Y32649982D01*
X136966400Y32446152D01*
X136966402Y32446148D01*
X137041898Y32294530D01*
X137060864Y32256442D01*
X137188573Y32087329D01*
X137188575Y32087327D01*
X137345187Y31944556D01*
X137525367Y31832993D01*
X137722978Y31756438D01*
X137931291Y31717498D01*
X138143211Y31717498D01*
X138143213Y31717498D01*
X138351526Y31756438D01*
X138549137Y31832993D01*
X138729317Y31944556D01*
X138885929Y32087327D01*
X139013641Y32256444D01*
X139108102Y32446148D01*
X139166097Y32649980D01*
X139185651Y32860998D01*
X139185651Y32860999D01*
X139888852Y32860999D01*
X139908406Y32649982D01*
X139966400Y32446152D01*
X139966402Y32446148D01*
X140041898Y32294530D01*
X140060864Y32256442D01*
X140188573Y32087329D01*
X140188575Y32087327D01*
X140345187Y31944556D01*
X140525367Y31832993D01*
X140722978Y31756438D01*
X140931291Y31717498D01*
X141143211Y31717498D01*
X141143213Y31717498D01*
X141351526Y31756438D01*
X141549137Y31832993D01*
X141729317Y31944556D01*
X141885929Y32087327D01*
X142013641Y32256444D01*
X142108102Y32446148D01*
X142166097Y32649980D01*
X142185651Y32860998D01*
X142166097Y33072016D01*
X142108102Y33275848D01*
X142013641Y33465552D01*
X141919178Y33590640D01*
X141885930Y33634668D01*
X141794289Y33718210D01*
X141729317Y33777440D01*
X141679234Y33808450D01*
X141549138Y33889003D01*
X141450331Y33927281D01*
X141351526Y33965558D01*
X141143213Y34004498D01*
X140931291Y34004498D01*
X140744013Y33969490D01*
X140722978Y33965558D01*
X140525365Y33889003D01*
X140345188Y33777441D01*
X140188573Y33634668D01*
X140060864Y33465555D01*
X139966400Y33275845D01*
X139908406Y33072015D01*
X139888852Y32860999D01*
X139185651Y32860999D01*
X139166097Y33072016D01*
X139108102Y33275848D01*
X139013641Y33465552D01*
X138919178Y33590640D01*
X138885930Y33634668D01*
X138794289Y33718210D01*
X138729317Y33777440D01*
X138679234Y33808450D01*
X138549138Y33889003D01*
X138450331Y33927281D01*
X138351526Y33965558D01*
X138143213Y34004498D01*
X137931291Y34004498D01*
X137744013Y33969490D01*
X137722978Y33965558D01*
X137525365Y33889003D01*
X137345188Y33777441D01*
X137188573Y33634668D01*
X137060864Y33465555D01*
X136966400Y33275845D01*
X136908406Y33072015D01*
X136888852Y32860999D01*
X97551862Y32860999D01*
X97585279Y32941676D01*
X97604938Y33090998D01*
X97585279Y33240320D01*
X97527643Y33379466D01*
X97435957Y33498953D01*
X97316470Y33590639D01*
X97316469Y33590640D01*
X97296289Y33598999D01*
X105849066Y33598999D01*
X105868724Y33449677D01*
X105926360Y33310531D01*
X105926361Y33310530D01*
X106018047Y33191043D01*
X106137534Y33099357D01*
X106276680Y33041721D01*
X106426002Y33022062D01*
X106575324Y33041721D01*
X106714470Y33099357D01*
X106833957Y33191043D01*
X106925643Y33310530D01*
X106983279Y33449676D01*
X107002938Y33598998D01*
X106983279Y33748320D01*
X106925643Y33887466D01*
X106833957Y34006953D01*
X106714470Y34098639D01*
X106714469Y34098640D01*
X106575323Y34156276D01*
X106426002Y34175934D01*
X106276680Y34156276D01*
X106137534Y34098640D01*
X106018047Y34006953D01*
X105926360Y33887466D01*
X105868724Y33748320D01*
X105849066Y33598999D01*
X97296289Y33598999D01*
X97177323Y33648276D01*
X97028002Y33667934D01*
X96878680Y33648276D01*
X96739534Y33590640D01*
X96620047Y33498953D01*
X96528360Y33379466D01*
X96470724Y33240320D01*
X96451066Y33090998D01*
X92483291Y33090998D01*
X92364323Y33140276D01*
X92215002Y33159934D01*
X92065680Y33140276D01*
X91926534Y33082640D01*
X91807047Y32990953D01*
X91715360Y32871466D01*
X91657724Y32732320D01*
X91638066Y32582998D01*
X508500Y32582998D01*
X508500Y34229516D01*
X143600752Y34229516D01*
X143639944Y33969490D01*
X143639945Y33969488D01*
X143717453Y33718210D01*
X143831550Y33481288D01*
X143979678Y33264022D01*
X143979682Y33264018D01*
X144158542Y33071252D01*
X144364135Y32907297D01*
X144591868Y32775815D01*
X144836654Y32679744D01*
X145093024Y32621229D01*
X145289598Y32606498D01*
X145420902Y32606498D01*
X145420906Y32606498D01*
X145617480Y32621229D01*
X145873850Y32679744D01*
X146118636Y32775815D01*
X146346369Y32907297D01*
X146551962Y33071252D01*
X146730822Y33264018D01*
X146878954Y33481288D01*
X146993050Y33718210D01*
X147070560Y33969490D01*
X147109752Y34229516D01*
X147109752Y34492480D01*
X147070560Y34752506D01*
X147002338Y34973676D01*
X146993050Y35003787D01*
X146887461Y35223043D01*
X146878954Y35240708D01*
X146809533Y35342530D01*
X146730825Y35457975D01*
X146663111Y35530953D01*
X146551962Y35650744D01*
X146346369Y35814699D01*
X146346368Y35814700D01*
X146346365Y35814702D01*
X146118636Y35946181D01*
X145873851Y36042252D01*
X145617481Y36100767D01*
X145578165Y36103714D01*
X145420906Y36115498D01*
X145289598Y36115498D01*
X145158548Y36105678D01*
X145093022Y36100767D01*
X144836652Y36042252D01*
X144591867Y35946181D01*
X144364138Y35814702D01*
X144321025Y35780320D01*
X144158542Y35650744D01*
X144077842Y35563771D01*
X143979678Y35457975D01*
X143831550Y35240709D01*
X143717453Y35003787D01*
X143665245Y34834531D01*
X143639944Y34752506D01*
X143600752Y34492480D01*
X143600752Y34229516D01*
X508500Y34229516D01*
X508500Y35630998D01*
X39111068Y35630998D01*
X39130726Y35481677D01*
X39188362Y35342531D01*
X39188363Y35342530D01*
X39280049Y35223043D01*
X39399536Y35131357D01*
X39538682Y35073721D01*
X39688004Y35054062D01*
X39837326Y35073721D01*
X39956294Y35122999D01*
X71051066Y35122999D01*
X71070724Y34973677D01*
X71128360Y34834531D01*
X71128361Y34834530D01*
X71220047Y34715043D01*
X71339534Y34623357D01*
X71478680Y34565721D01*
X71628002Y34546062D01*
X71777324Y34565721D01*
X71916470Y34623357D01*
X72035957Y34715043D01*
X72127643Y34834530D01*
X72185279Y34973676D01*
X72204938Y35122998D01*
X72204938Y35122999D01*
X73845066Y35122999D01*
X73864724Y34973677D01*
X73922360Y34834531D01*
X73922361Y34834530D01*
X74014047Y34715043D01*
X74133534Y34623357D01*
X74272680Y34565721D01*
X74422002Y34546062D01*
X74571324Y34565721D01*
X74710470Y34623357D01*
X74829957Y34715043D01*
X74921643Y34834530D01*
X74979279Y34973676D01*
X74998938Y35122998D01*
X74998938Y35122999D01*
X106357066Y35122999D01*
X106376724Y34973677D01*
X106434360Y34834531D01*
X106434361Y34834530D01*
X106526047Y34715043D01*
X106645534Y34623357D01*
X106784680Y34565721D01*
X106934002Y34546062D01*
X107083324Y34565721D01*
X107222470Y34623357D01*
X107341957Y34715043D01*
X107433643Y34834530D01*
X107491279Y34973676D01*
X107510938Y35122998D01*
X107491279Y35272320D01*
X107433643Y35411466D01*
X107341957Y35530953D01*
X107222470Y35622639D01*
X107222469Y35622640D01*
X107083323Y35680276D01*
X106934002Y35699934D01*
X106784680Y35680276D01*
X106645534Y35622640D01*
X106526047Y35530953D01*
X106434360Y35411466D01*
X106376724Y35272320D01*
X106357066Y35122999D01*
X74998938Y35122999D01*
X74979279Y35272320D01*
X74921643Y35411466D01*
X74829957Y35530953D01*
X74710470Y35622639D01*
X74710469Y35622640D01*
X74571323Y35680276D01*
X74422002Y35699934D01*
X74272680Y35680276D01*
X74133534Y35622640D01*
X74014047Y35530953D01*
X73922360Y35411466D01*
X73864724Y35272320D01*
X73845066Y35122999D01*
X72204938Y35122999D01*
X72185279Y35272320D01*
X72127643Y35411466D01*
X72035957Y35530953D01*
X71916470Y35622639D01*
X71916469Y35622640D01*
X71777323Y35680276D01*
X71628002Y35699934D01*
X71478680Y35680276D01*
X71339534Y35622640D01*
X71220047Y35530953D01*
X71128360Y35411466D01*
X71070724Y35272320D01*
X71051066Y35122999D01*
X39956294Y35122999D01*
X39976472Y35131357D01*
X40095959Y35223043D01*
X40187645Y35342530D01*
X40245281Y35481676D01*
X40264940Y35630998D01*
X40245281Y35780320D01*
X40187645Y35919466D01*
X40095959Y36038953D01*
X39976472Y36130639D01*
X39976471Y36130640D01*
X39837325Y36188276D01*
X39688004Y36207934D01*
X39538682Y36188276D01*
X39399536Y36130640D01*
X39280049Y36038953D01*
X39188362Y35919466D01*
X39130726Y35780320D01*
X39111068Y35630998D01*
X508500Y35630998D01*
X508500Y38544000D01*
X76131064Y38544000D01*
X76150722Y38394679D01*
X76208358Y38255533D01*
X76208359Y38255532D01*
X76300045Y38136045D01*
X76419532Y38044359D01*
X76558678Y37986723D01*
X76708000Y37967064D01*
X76857322Y37986723D01*
X76996468Y38044359D01*
X77115955Y38136045D01*
X77207641Y38255532D01*
X77225231Y38297999D01*
X93771064Y38297999D01*
X93790722Y38148677D01*
X93848358Y38009531D01*
X93869690Y37981731D01*
X93940045Y37890043D01*
X94059532Y37798357D01*
X94198678Y37740721D01*
X94348000Y37721062D01*
X94497322Y37740721D01*
X94636468Y37798357D01*
X94755955Y37890043D01*
X94847641Y38009530D01*
X94905277Y38148676D01*
X94924936Y38297998D01*
X97454067Y38297998D01*
X97473725Y38148676D01*
X97531361Y38009530D01*
X97531362Y38009529D01*
X97623048Y37890042D01*
X97742535Y37798356D01*
X97881681Y37740720D01*
X98031003Y37721061D01*
X98180325Y37740720D01*
X98319471Y37798356D01*
X98438958Y37890042D01*
X98530644Y38009529D01*
X98588280Y38148675D01*
X98607939Y38297997D01*
X98595210Y38394678D01*
X98588280Y38447319D01*
X98530644Y38586465D01*
X98530643Y38586466D01*
X98438958Y38705952D01*
X98319471Y38797638D01*
X98319470Y38797639D01*
X98180324Y38855275D01*
X98031003Y38874933D01*
X97881681Y38855275D01*
X97742535Y38797639D01*
X97623048Y38705952D01*
X97531361Y38586465D01*
X97473725Y38447319D01*
X97454067Y38297998D01*
X94924936Y38297998D01*
X94905277Y38447320D01*
X94847641Y38586466D01*
X94755955Y38705953D01*
X94664267Y38776308D01*
X94636467Y38797640D01*
X94497321Y38855276D01*
X94348000Y38874934D01*
X94198678Y38855276D01*
X94059532Y38797640D01*
X93940045Y38705953D01*
X93848358Y38586466D01*
X93790722Y38447320D01*
X93771064Y38297999D01*
X77225231Y38297999D01*
X77265277Y38394678D01*
X77284936Y38544000D01*
X77265277Y38693322D01*
X77207641Y38832468D01*
X77115955Y38951955D01*
X76996468Y39043641D01*
X76996467Y39043642D01*
X76857321Y39101278D01*
X76708000Y39120936D01*
X76558678Y39101278D01*
X76419532Y39043642D01*
X76300045Y38951955D01*
X76208358Y38832468D01*
X76150722Y38693322D01*
X76131064Y38544000D01*
X508500Y38544000D01*
X508500Y39440998D01*
X48318066Y39440998D01*
X48337724Y39291677D01*
X48395360Y39152531D01*
X48395361Y39152530D01*
X48487047Y39033043D01*
X48606534Y38941357D01*
X48745680Y38883721D01*
X48895002Y38864062D01*
X49044324Y38883721D01*
X49183470Y38941357D01*
X49302957Y39033043D01*
X49394643Y39152530D01*
X49452279Y39291676D01*
X49471938Y39440998D01*
X50477066Y39440998D01*
X50496724Y39291677D01*
X50554360Y39152531D01*
X50554361Y39152530D01*
X50646047Y39033043D01*
X50765534Y38941357D01*
X50904680Y38883721D01*
X51054002Y38864062D01*
X51203324Y38883721D01*
X51342470Y38941357D01*
X51461957Y39033043D01*
X51553643Y39152530D01*
X51611279Y39291676D01*
X51630938Y39440998D01*
X51611279Y39590320D01*
X51553643Y39729466D01*
X51461957Y39848953D01*
X51342470Y39940639D01*
X51342469Y39940640D01*
X51203323Y39998276D01*
X51054002Y40017934D01*
X50904680Y39998276D01*
X50765534Y39940640D01*
X50646047Y39848953D01*
X50554360Y39729466D01*
X50496724Y39590320D01*
X50477066Y39440998D01*
X49471938Y39440998D01*
X49452279Y39590320D01*
X49394643Y39729466D01*
X49302957Y39848953D01*
X49183470Y39940639D01*
X49183469Y39940640D01*
X49044323Y39998276D01*
X48895002Y40017934D01*
X48745680Y39998276D01*
X48606534Y39940640D01*
X48487047Y39848953D01*
X48395360Y39729466D01*
X48337724Y39590320D01*
X48318066Y39440998D01*
X508500Y39440998D01*
X508500Y41100000D01*
X5529694Y41100000D01*
X5548162Y40900702D01*
X5602937Y40708187D01*
X5692152Y40529019D01*
X5692154Y40529017D01*
X5812773Y40369292D01*
X5960688Y40234449D01*
X6130862Y40129082D01*
X6317500Y40056778D01*
X6514245Y40020000D01*
X6714397Y40020000D01*
X6714399Y40020000D01*
X6911144Y40056778D01*
X7097782Y40129082D01*
X7267956Y40234449D01*
X7415871Y40369292D01*
X7536490Y40529017D01*
X7625707Y40708188D01*
X7680481Y40900700D01*
X7698949Y41100000D01*
X7687922Y41218998D01*
X96451066Y41218998D01*
X96470724Y41069677D01*
X96528360Y40930531D01*
X96528361Y40930530D01*
X96620047Y40811043D01*
X96739534Y40719357D01*
X96878680Y40661721D01*
X97028002Y40642062D01*
X97177324Y40661721D01*
X97316470Y40719357D01*
X97435957Y40811043D01*
X97527643Y40930530D01*
X97585279Y41069676D01*
X97604938Y41218998D01*
X97585279Y41368320D01*
X97527643Y41507466D01*
X97435957Y41626953D01*
X97316470Y41718639D01*
X97316469Y41718640D01*
X97177323Y41776276D01*
X97028002Y41795934D01*
X96878680Y41776276D01*
X96739534Y41718640D01*
X96620047Y41626953D01*
X96528360Y41507466D01*
X96470724Y41368320D01*
X96451066Y41218998D01*
X7687922Y41218998D01*
X7680481Y41299300D01*
X7625707Y41491812D01*
X7617912Y41507466D01*
X7536491Y41670982D01*
X7442131Y41795934D01*
X7415871Y41830708D01*
X7267956Y41965551D01*
X7220655Y41994839D01*
X7097783Y42070918D01*
X6911144Y42143222D01*
X6714399Y42180000D01*
X6514245Y42180000D01*
X6383081Y42155482D01*
X6317499Y42143222D01*
X6130860Y42070918D01*
X5960689Y41965552D01*
X5812772Y41830707D01*
X5692152Y41670982D01*
X5602937Y41491814D01*
X5548162Y41299299D01*
X5529694Y41100000D01*
X508500Y41100000D01*
X508500Y42742998D01*
X45472064Y42742998D01*
X45491722Y42593677D01*
X45549358Y42454531D01*
X45549359Y42454530D01*
X45641045Y42335043D01*
X45760532Y42243357D01*
X45899678Y42185721D01*
X46049000Y42166062D01*
X46198322Y42185721D01*
X46337468Y42243357D01*
X46456955Y42335043D01*
X46548641Y42454530D01*
X46606277Y42593676D01*
X46625936Y42742998D01*
X52890066Y42742998D01*
X52909724Y42593677D01*
X52967360Y42454531D01*
X52967361Y42454530D01*
X53059047Y42335043D01*
X53178534Y42243357D01*
X53317680Y42185721D01*
X53467002Y42166062D01*
X53616324Y42185721D01*
X53755470Y42243357D01*
X53874957Y42335043D01*
X53966643Y42454530D01*
X54024279Y42593676D01*
X54043938Y42742998D01*
X54024279Y42892320D01*
X53966643Y43031466D01*
X53874957Y43150953D01*
X53755470Y43242639D01*
X53755469Y43242640D01*
X53616323Y43300276D01*
X53467002Y43319934D01*
X53317680Y43300276D01*
X53178534Y43242640D01*
X53059047Y43150953D01*
X52967360Y43031466D01*
X52909724Y42892320D01*
X52890066Y42742998D01*
X46625936Y42742998D01*
X46606277Y42892320D01*
X46548641Y43031466D01*
X46456955Y43150953D01*
X46337468Y43242639D01*
X46337467Y43242640D01*
X46198321Y43300276D01*
X46049000Y43319934D01*
X45899678Y43300276D01*
X45760532Y43242640D01*
X45641045Y43150953D01*
X45549358Y43031466D01*
X45491722Y42892320D01*
X45472064Y42742998D01*
X508500Y42742998D01*
X508500Y43440997D01*
X14917065Y43440997D01*
X14936723Y43291676D01*
X14994359Y43152530D01*
X14994360Y43152529D01*
X15086046Y43033042D01*
X15205533Y42941356D01*
X15344679Y42883720D01*
X15494001Y42864061D01*
X15643323Y42883720D01*
X15782469Y42941356D01*
X15901956Y43033042D01*
X15993642Y43152529D01*
X16051278Y43291675D01*
X16070937Y43440997D01*
X16051278Y43590319D01*
X15993642Y43729465D01*
X15901956Y43848952D01*
X15782469Y43940638D01*
X15782468Y43940639D01*
X15643322Y43998275D01*
X15494001Y44017933D01*
X15344679Y43998275D01*
X15205533Y43940639D01*
X15086046Y43848952D01*
X14994359Y43729465D01*
X14936723Y43590319D01*
X14917065Y43440997D01*
X508500Y43440997D01*
X508500Y44025998D01*
X93657068Y44025998D01*
X93676726Y43876677D01*
X93734362Y43737531D01*
X93755694Y43709730D01*
X93826049Y43618043D01*
X93945536Y43526357D01*
X94084682Y43468721D01*
X94234004Y43449062D01*
X94383326Y43468721D01*
X94522472Y43526357D01*
X94641959Y43618043D01*
X94733645Y43737530D01*
X94791281Y43876676D01*
X94809229Y44012999D01*
X100528065Y44012999D01*
X100547723Y43863678D01*
X100605359Y43724532D01*
X100605360Y43724531D01*
X100697046Y43605044D01*
X100816533Y43513358D01*
X100955679Y43455722D01*
X101105001Y43436063D01*
X101254323Y43455722D01*
X101393469Y43513358D01*
X101512956Y43605044D01*
X101604642Y43724531D01*
X101662278Y43863677D01*
X101681937Y44012999D01*
X101662278Y44162321D01*
X101604642Y44301467D01*
X101512956Y44420954D01*
X101393469Y44512640D01*
X101393468Y44512641D01*
X101254322Y44570277D01*
X101105001Y44589935D01*
X100955679Y44570277D01*
X100816533Y44512641D01*
X100697046Y44420954D01*
X100605359Y44301467D01*
X100547723Y44162321D01*
X100528065Y44012999D01*
X94809229Y44012999D01*
X94810940Y44025998D01*
X94791281Y44175320D01*
X94733645Y44314466D01*
X94641959Y44433953D01*
X94522472Y44525639D01*
X94522471Y44525640D01*
X94383325Y44583276D01*
X94234004Y44602934D01*
X94084682Y44583276D01*
X93945536Y44525640D01*
X93826049Y44433953D01*
X93734362Y44314466D01*
X93676726Y44175320D01*
X93657068Y44025998D01*
X508500Y44025998D01*
X508500Y46355000D01*
X18346064Y46355000D01*
X18365722Y46205679D01*
X18423358Y46066533D01*
X18423359Y46066532D01*
X18515045Y45947045D01*
X18634532Y45855359D01*
X18773678Y45797723D01*
X18923000Y45778064D01*
X19072322Y45797723D01*
X19211468Y45855359D01*
X19330955Y45947045D01*
X19422641Y46066532D01*
X19480277Y46205678D01*
X19499936Y46355000D01*
X19482229Y46489498D01*
X21457566Y46489498D01*
X21477224Y46340177D01*
X21534860Y46201031D01*
X21534861Y46201030D01*
X21626547Y46081543D01*
X21746034Y45989857D01*
X21885180Y45932221D01*
X22034502Y45912562D01*
X22183824Y45932221D01*
X22322970Y45989857D01*
X22394832Y46044999D01*
X96972064Y46044999D01*
X96991722Y45895677D01*
X97049358Y45756531D01*
X97049359Y45756530D01*
X97141045Y45637043D01*
X97260532Y45545357D01*
X97399678Y45487721D01*
X97549000Y45468062D01*
X97698322Y45487721D01*
X97837468Y45545357D01*
X97956955Y45637043D01*
X98048641Y45756530D01*
X98106277Y45895676D01*
X98125936Y46044998D01*
X98106277Y46194320D01*
X98048641Y46333466D01*
X97956955Y46452953D01*
X97837468Y46544639D01*
X97837467Y46544640D01*
X97698321Y46602276D01*
X97549000Y46621934D01*
X97399678Y46602276D01*
X97260532Y46544640D01*
X97141045Y46452953D01*
X97049358Y46333466D01*
X96991722Y46194320D01*
X96972064Y46044999D01*
X22394832Y46044999D01*
X22442457Y46081543D01*
X22534143Y46201030D01*
X22591779Y46340176D01*
X22611438Y46489498D01*
X22591779Y46638820D01*
X22534143Y46777966D01*
X22442457Y46897453D01*
X22322970Y46989139D01*
X22322969Y46989140D01*
X22183823Y47046776D01*
X22034502Y47066434D01*
X21885180Y47046776D01*
X21746034Y46989140D01*
X21626547Y46897453D01*
X21534860Y46777966D01*
X21477224Y46638820D01*
X21457566Y46489498D01*
X19482229Y46489498D01*
X19480277Y46504322D01*
X19422641Y46643468D01*
X19330955Y46762955D01*
X19211468Y46854641D01*
X19211467Y46854642D01*
X19072321Y46912278D01*
X18923000Y46931936D01*
X18773678Y46912278D01*
X18634532Y46854642D01*
X18515045Y46762955D01*
X18423358Y46643468D01*
X18365722Y46504322D01*
X18346064Y46355000D01*
X508500Y46355000D01*
X508500Y47187998D01*
X124073064Y47187998D01*
X124092722Y47038677D01*
X124150358Y46899531D01*
X124150359Y46899530D01*
X124242045Y46780043D01*
X124361532Y46688357D01*
X124500678Y46630721D01*
X124650000Y46611062D01*
X124799322Y46630721D01*
X124938468Y46688357D01*
X125057955Y46780043D01*
X125149641Y46899530D01*
X125207277Y47038676D01*
X125226936Y47187998D01*
X125207277Y47337320D01*
X125149641Y47476466D01*
X125057955Y47595953D01*
X124938468Y47687639D01*
X124938467Y47687640D01*
X124799321Y47745276D01*
X124650000Y47764934D01*
X124500678Y47745276D01*
X124361532Y47687640D01*
X124242045Y47595953D01*
X124150358Y47476466D01*
X124092722Y47337320D01*
X124073064Y47187998D01*
X508500Y47187998D01*
X508500Y52140999D01*
X23426066Y52140999D01*
X23445724Y51991677D01*
X23503360Y51852531D01*
X23503361Y51852530D01*
X23595047Y51733043D01*
X23714534Y51641357D01*
X23853680Y51583721D01*
X24003002Y51564062D01*
X24152324Y51583721D01*
X24291470Y51641357D01*
X24410957Y51733043D01*
X24502643Y51852530D01*
X24560279Y51991676D01*
X24579938Y52140998D01*
X24560279Y52290320D01*
X24502643Y52429466D01*
X24410957Y52548953D01*
X24291470Y52640639D01*
X24291469Y52640640D01*
X24152323Y52698276D01*
X24022660Y52715346D01*
X24003002Y52717934D01*
X24003001Y52717934D01*
X23853680Y52698276D01*
X23714534Y52640640D01*
X23595047Y52548953D01*
X23503360Y52429466D01*
X23445724Y52290320D01*
X23426066Y52140999D01*
X508500Y52140999D01*
X508500Y54681001D01*
X28760064Y54681001D01*
X28779722Y54531679D01*
X28837358Y54392533D01*
X28898231Y54313202D01*
X28921281Y54263770D01*
X28921281Y54209227D01*
X28898231Y54159794D01*
X28837360Y54080466D01*
X28779724Y53941320D01*
X28760066Y53791998D01*
X28779724Y53642677D01*
X28837360Y53503531D01*
X28837361Y53503530D01*
X28929047Y53384043D01*
X29048534Y53292357D01*
X29187680Y53234721D01*
X29337002Y53215062D01*
X29486324Y53234721D01*
X29625470Y53292357D01*
X29744957Y53384043D01*
X29836643Y53503530D01*
X29894279Y53642676D01*
X29897218Y53664999D01*
X52763066Y53664999D01*
X52782724Y53515677D01*
X52840360Y53376531D01*
X52840361Y53376530D01*
X52932047Y53257043D01*
X53051534Y53165357D01*
X53190680Y53107721D01*
X53340002Y53088062D01*
X53489324Y53107721D01*
X53628470Y53165357D01*
X53747957Y53257043D01*
X53839643Y53376530D01*
X53897279Y53515676D01*
X53900218Y53537998D01*
X99499066Y53537998D01*
X99518724Y53388677D01*
X99576360Y53249531D01*
X99576361Y53249530D01*
X99668047Y53130043D01*
X99787534Y53038357D01*
X99926680Y52980721D01*
X100076002Y52961062D01*
X100225324Y52980721D01*
X100364470Y53038357D01*
X100483957Y53130043D01*
X100575643Y53249530D01*
X100633279Y53388676D01*
X100636218Y53410998D01*
X104706066Y53410998D01*
X104725724Y53261677D01*
X104783360Y53122531D01*
X104783361Y53122530D01*
X104875047Y53003043D01*
X104994534Y52911357D01*
X105133680Y52853721D01*
X105283002Y52834062D01*
X105432324Y52853721D01*
X105571470Y52911357D01*
X105690957Y53003043D01*
X105782643Y53122530D01*
X105840279Y53261676D01*
X105859938Y53410998D01*
X105843218Y53537998D01*
X117279066Y53537998D01*
X117298724Y53388677D01*
X117356360Y53249531D01*
X117356361Y53249530D01*
X117448047Y53130043D01*
X117567534Y53038357D01*
X117706680Y52980721D01*
X117856002Y52961062D01*
X118005324Y52980721D01*
X118124290Y53029998D01*
X122473064Y53029998D01*
X122492722Y52880677D01*
X122550358Y52741531D01*
X122550359Y52741530D01*
X122642045Y52622043D01*
X122761532Y52530357D01*
X122900678Y52472721D01*
X123050000Y52453062D01*
X123199322Y52472721D01*
X123338468Y52530357D01*
X123457955Y52622043D01*
X123549641Y52741530D01*
X123607277Y52880676D01*
X123626936Y53029998D01*
X123607277Y53179320D01*
X123549641Y53318466D01*
X123457955Y53437953D01*
X123338468Y53529639D01*
X123338467Y53529640D01*
X123199321Y53587276D01*
X123050000Y53606934D01*
X122900678Y53587276D01*
X122761532Y53529640D01*
X122642045Y53437953D01*
X122550358Y53318466D01*
X122492722Y53179320D01*
X122473064Y53029998D01*
X118124290Y53029998D01*
X118144470Y53038357D01*
X118263957Y53130043D01*
X118355643Y53249530D01*
X118413279Y53388676D01*
X118432938Y53537998D01*
X118413279Y53687320D01*
X118355643Y53826466D01*
X118263957Y53945953D01*
X118144470Y54037639D01*
X118144469Y54037640D01*
X118005323Y54095276D01*
X117856002Y54114934D01*
X117706680Y54095276D01*
X117567534Y54037640D01*
X117448047Y53945953D01*
X117356360Y53826466D01*
X117298724Y53687320D01*
X117279066Y53537998D01*
X105843218Y53537998D01*
X105840279Y53560320D01*
X105782643Y53699466D01*
X105690957Y53818953D01*
X105571470Y53910639D01*
X105571469Y53910640D01*
X105432323Y53968276D01*
X105283002Y53987934D01*
X105133680Y53968276D01*
X104994534Y53910640D01*
X104875047Y53818953D01*
X104783360Y53699466D01*
X104725724Y53560320D01*
X104706066Y53410998D01*
X100636218Y53410998D01*
X100652938Y53537998D01*
X100633279Y53687320D01*
X100575643Y53826466D01*
X100483957Y53945953D01*
X100364470Y54037639D01*
X100364469Y54037640D01*
X100225323Y54095276D01*
X100076002Y54114934D01*
X99926680Y54095276D01*
X99787534Y54037640D01*
X99668047Y53945953D01*
X99576360Y53826466D01*
X99518724Y53687320D01*
X99499066Y53537998D01*
X53900218Y53537998D01*
X53916938Y53664998D01*
X53897279Y53814320D01*
X53839643Y53953466D01*
X53747957Y54072953D01*
X53628470Y54164639D01*
X53628469Y54164640D01*
X53489323Y54222276D01*
X53359659Y54239346D01*
X53340002Y54241934D01*
X53340001Y54241934D01*
X53190680Y54222276D01*
X53051534Y54164640D01*
X52932047Y54072953D01*
X52840360Y53953466D01*
X52782724Y53814320D01*
X52763066Y53664999D01*
X29897218Y53664999D01*
X29913938Y53791998D01*
X29894279Y53941320D01*
X29836643Y54080466D01*
X29775770Y54159797D01*
X29752720Y54209228D01*
X29752720Y54263771D01*
X29775771Y54313204D01*
X29836640Y54392531D01*
X29836639Y54392531D01*
X29836641Y54392532D01*
X29894277Y54531678D01*
X29913936Y54681000D01*
X29894277Y54830322D01*
X29836641Y54969468D01*
X29744955Y55088955D01*
X29653267Y55159310D01*
X29625467Y55180642D01*
X29486321Y55238278D01*
X29337000Y55257936D01*
X29187678Y55238278D01*
X29048532Y55180642D01*
X28929045Y55088955D01*
X28837358Y54969468D01*
X28779722Y54830322D01*
X28760064Y54681001D01*
X508500Y54681001D01*
X508500Y56392060D01*
X5529694Y56392060D01*
X5548162Y56192762D01*
X5602937Y56000247D01*
X5692152Y55821079D01*
X5742006Y55755062D01*
X5812773Y55661352D01*
X5960688Y55526509D01*
X6130862Y55421142D01*
X6317500Y55348838D01*
X6514245Y55312060D01*
X6714397Y55312060D01*
X6714399Y55312060D01*
X6735465Y55315998D01*
X104706066Y55315998D01*
X104708654Y55296340D01*
X104725724Y55166677D01*
X104783360Y55027531D01*
X104783361Y55027530D01*
X104875047Y54908043D01*
X104994534Y54816357D01*
X105133680Y54758721D01*
X105283002Y54739062D01*
X105432324Y54758721D01*
X105571470Y54816357D01*
X105690957Y54908043D01*
X105782643Y55027530D01*
X105840279Y55166676D01*
X105859938Y55315998D01*
X105840279Y55465320D01*
X105782643Y55604466D01*
X105690957Y55723953D01*
X105571470Y55815639D01*
X105571469Y55815640D01*
X105432323Y55873276D01*
X105302660Y55890346D01*
X105283002Y55892934D01*
X105283001Y55892934D01*
X105133680Y55873276D01*
X104994534Y55815640D01*
X104875047Y55723953D01*
X104783360Y55604466D01*
X104725724Y55465320D01*
X104706066Y55315999D01*
X104706066Y55315998D01*
X6735465Y55315998D01*
X6911144Y55348838D01*
X7097782Y55421142D01*
X7267956Y55526509D01*
X7415871Y55661352D01*
X7536490Y55821077D01*
X7625707Y56000248D01*
X7680481Y56192760D01*
X7681615Y56204998D01*
X52120946Y56204998D01*
X52140604Y56055677D01*
X52198240Y55916531D01*
X52198241Y55916530D01*
X52289927Y55797043D01*
X52409414Y55705357D01*
X52548560Y55647721D01*
X52697882Y55628062D01*
X52847204Y55647721D01*
X52986350Y55705357D01*
X53105837Y55797043D01*
X53197523Y55916530D01*
X53255159Y56055676D01*
X53274818Y56204998D01*
X53258098Y56331998D01*
X99499066Y56331998D01*
X99518724Y56182677D01*
X99576360Y56043531D01*
X99576361Y56043530D01*
X99668047Y55924043D01*
X99787534Y55832357D01*
X99926680Y55774721D01*
X100076002Y55755062D01*
X100225324Y55774721D01*
X100364470Y55832357D01*
X100483957Y55924043D01*
X100575643Y56043530D01*
X100633279Y56182676D01*
X100652938Y56331998D01*
X100633279Y56481320D01*
X100575643Y56620466D01*
X100483957Y56739953D01*
X100364470Y56831639D01*
X100364469Y56831640D01*
X100225323Y56889276D01*
X100076002Y56908934D01*
X99926680Y56889276D01*
X99787534Y56831640D01*
X99668047Y56739953D01*
X99576360Y56620466D01*
X99518724Y56481320D01*
X99499066Y56331998D01*
X53258098Y56331998D01*
X53255159Y56354320D01*
X53197523Y56493466D01*
X53105837Y56612953D01*
X52986350Y56704639D01*
X52986349Y56704640D01*
X52847203Y56762276D01*
X52697882Y56781934D01*
X52548560Y56762276D01*
X52409414Y56704640D01*
X52289927Y56612953D01*
X52198240Y56493466D01*
X52140604Y56354320D01*
X52120946Y56204998D01*
X7681615Y56204998D01*
X7698949Y56392060D01*
X7680481Y56591360D01*
X7625707Y56783872D01*
X7601921Y56831640D01*
X7597759Y56839999D01*
X17203066Y56839999D01*
X17222724Y56690677D01*
X17280360Y56551531D01*
X17280361Y56551530D01*
X17372047Y56432043D01*
X17491534Y56340357D01*
X17630680Y56282721D01*
X17780002Y56263062D01*
X17929324Y56282721D01*
X18068470Y56340357D01*
X18187957Y56432043D01*
X18279643Y56551530D01*
X18337279Y56690676D01*
X18356938Y56839998D01*
X18337279Y56989320D01*
X18279643Y57128466D01*
X18187957Y57247953D01*
X18068470Y57339639D01*
X18068469Y57339640D01*
X17929323Y57397276D01*
X17780002Y57416934D01*
X17630680Y57397276D01*
X17491534Y57339640D01*
X17372047Y57247953D01*
X17280360Y57128466D01*
X17222724Y56989320D01*
X17203066Y56839999D01*
X7597759Y56839999D01*
X7536491Y56963042D01*
X7489655Y57025062D01*
X7415871Y57122768D01*
X7267956Y57257611D01*
X7220655Y57286899D01*
X7097783Y57362978D01*
X6911144Y57435282D01*
X6911143Y57435283D01*
X6714399Y57472060D01*
X6514245Y57472060D01*
X6410555Y57452677D01*
X6317499Y57435282D01*
X6130860Y57362978D01*
X5960689Y57257612D01*
X5812772Y57122767D01*
X5692152Y56963042D01*
X5602937Y56783874D01*
X5548162Y56591359D01*
X5529694Y56392060D01*
X508500Y56392060D01*
X508500Y57601998D01*
X129217066Y57601998D01*
X129236724Y57452677D01*
X129294360Y57313531D01*
X129294361Y57313530D01*
X129386047Y57194043D01*
X129505534Y57102357D01*
X129644680Y57044721D01*
X129794002Y57025062D01*
X129943324Y57044721D01*
X130082470Y57102357D01*
X130201957Y57194043D01*
X130293643Y57313530D01*
X130351279Y57452676D01*
X130370938Y57601998D01*
X130351279Y57751320D01*
X130293643Y57890466D01*
X130201957Y58009953D01*
X130082470Y58101639D01*
X130082469Y58101640D01*
X129943323Y58159276D01*
X129794002Y58178934D01*
X129644680Y58159276D01*
X129505534Y58101640D01*
X129386047Y58009953D01*
X129294360Y57890466D01*
X129236724Y57751320D01*
X129217066Y57601998D01*
X508500Y57601998D01*
X508500Y58424997D01*
X118289566Y58424997D01*
X118309224Y58275675D01*
X118366860Y58136529D01*
X118366861Y58136528D01*
X118458547Y58017041D01*
X118578034Y57925355D01*
X118717180Y57867719D01*
X118866502Y57848060D01*
X119015824Y57867719D01*
X119154970Y57925355D01*
X119274457Y58017041D01*
X119366143Y58136528D01*
X119423779Y58275674D01*
X119426981Y58299997D01*
X120327066Y58299997D01*
X120346724Y58150675D01*
X120404360Y58011529D01*
X120425692Y57983729D01*
X120496047Y57892041D01*
X120615534Y57800355D01*
X120754680Y57742719D01*
X120904002Y57723060D01*
X121053324Y57742719D01*
X121192470Y57800355D01*
X121311957Y57892041D01*
X121403643Y58011528D01*
X121461279Y58150674D01*
X121480938Y58299996D01*
X121461279Y58449318D01*
X121403643Y58588464D01*
X121311957Y58707951D01*
X121192470Y58799637D01*
X121192469Y58799638D01*
X121053323Y58857274D01*
X120923659Y58874344D01*
X120904002Y58876932D01*
X120904001Y58876932D01*
X120754680Y58857274D01*
X120615534Y58799638D01*
X120496047Y58707951D01*
X120404360Y58588464D01*
X120346724Y58449318D01*
X120327066Y58299997D01*
X119426981Y58299997D01*
X119443438Y58424996D01*
X119423779Y58574318D01*
X119366143Y58713464D01*
X119274457Y58832951D01*
X119154970Y58924637D01*
X119154969Y58924638D01*
X119015823Y58982274D01*
X118866502Y59001932D01*
X118717180Y58982274D01*
X118578034Y58924638D01*
X118458547Y58832951D01*
X118366860Y58713464D01*
X118309224Y58574318D01*
X118289566Y58424997D01*
X508500Y58424997D01*
X508500Y59380000D01*
X37523066Y59380000D01*
X37542724Y59230677D01*
X37600360Y59091531D01*
X37600361Y59091530D01*
X37692047Y58972043D01*
X37811534Y58880357D01*
X37950680Y58822721D01*
X38100002Y58803062D01*
X38249324Y58822721D01*
X38388470Y58880357D01*
X38507957Y58972043D01*
X38599643Y59091530D01*
X38618592Y59137279D01*
X38653171Y59184872D01*
X38705588Y59211580D01*
X38764416Y59211580D01*
X38816833Y59184872D01*
X38851411Y59137279D01*
X38870360Y59091531D01*
X38870361Y59091530D01*
X38962047Y58972043D01*
X39081534Y58880357D01*
X39220680Y58822721D01*
X39370002Y58803062D01*
X39519324Y58822721D01*
X39658470Y58880357D01*
X39777957Y58972043D01*
X39869643Y59091530D01*
X39888592Y59137279D01*
X39923171Y59184872D01*
X39975588Y59211580D01*
X40034416Y59211580D01*
X40086833Y59184872D01*
X40121411Y59137279D01*
X40140360Y59091531D01*
X40140361Y59091530D01*
X40232047Y58972043D01*
X40351534Y58880357D01*
X40490680Y58822721D01*
X40640002Y58803062D01*
X40789324Y58822721D01*
X40928470Y58880357D01*
X41047957Y58972043D01*
X41139643Y59091530D01*
X41158592Y59137279D01*
X41193171Y59184872D01*
X41245588Y59211580D01*
X41304416Y59211580D01*
X41356833Y59184872D01*
X41391411Y59137279D01*
X41410360Y59091531D01*
X41410361Y59091530D01*
X41502047Y58972043D01*
X41621534Y58880357D01*
X41760680Y58822721D01*
X41910002Y58803062D01*
X42059324Y58822721D01*
X42198470Y58880357D01*
X42317957Y58972043D01*
X42409643Y59091530D01*
X42428592Y59137279D01*
X42463171Y59184872D01*
X42515588Y59211580D01*
X42574416Y59211580D01*
X42626833Y59184872D01*
X42661411Y59137279D01*
X42680360Y59091531D01*
X42680361Y59091530D01*
X42772047Y58972043D01*
X42891534Y58880357D01*
X43030680Y58822721D01*
X43180002Y58803062D01*
X43329324Y58822721D01*
X43468470Y58880357D01*
X43587957Y58972043D01*
X43679643Y59091530D01*
X43737279Y59230676D01*
X43749960Y59326999D01*
X76946065Y59326999D01*
X76965723Y59177678D01*
X77023359Y59038532D01*
X77023360Y59038531D01*
X77115046Y58919044D01*
X77234533Y58827358D01*
X77373679Y58769722D01*
X77523001Y58750063D01*
X77672323Y58769722D01*
X77811469Y58827358D01*
X77930956Y58919044D01*
X78022642Y59038531D01*
X78080278Y59177677D01*
X78099937Y59326999D01*
X78092959Y59380001D01*
X103563066Y59380001D01*
X103582724Y59230679D01*
X103640360Y59091533D01*
X103661692Y59063732D01*
X103732047Y58972045D01*
X103851534Y58880359D01*
X103990680Y58822723D01*
X104140002Y58803064D01*
X104289324Y58822723D01*
X104428470Y58880359D01*
X104547957Y58972045D01*
X104639643Y59091532D01*
X104697279Y59230678D01*
X104716938Y59380000D01*
X104697279Y59529322D01*
X104639643Y59668468D01*
X104547957Y59787955D01*
X104428473Y59879639D01*
X104428469Y59879642D01*
X104289323Y59937278D01*
X104140002Y59956936D01*
X103990680Y59937278D01*
X103851534Y59879642D01*
X103732047Y59787955D01*
X103640360Y59668468D01*
X103582724Y59529322D01*
X103563066Y59380001D01*
X78092959Y59380001D01*
X78080278Y59476321D01*
X78022642Y59615467D01*
X77930956Y59734954D01*
X77811469Y59826640D01*
X77811468Y59826641D01*
X77672322Y59884277D01*
X77523001Y59903935D01*
X77373679Y59884277D01*
X77234533Y59826641D01*
X77115046Y59734954D01*
X77023359Y59615467D01*
X76965723Y59476321D01*
X76946065Y59326999D01*
X43749960Y59326999D01*
X43756938Y59379998D01*
X43737279Y59529320D01*
X43679643Y59668466D01*
X43587957Y59787953D01*
X43468470Y59879639D01*
X43468469Y59879640D01*
X43329323Y59937276D01*
X43180002Y59956934D01*
X43030680Y59937276D01*
X42891534Y59879640D01*
X42772047Y59787953D01*
X42680361Y59668467D01*
X42661411Y59622717D01*
X42626832Y59575125D01*
X42574416Y59548417D01*
X42515588Y59548417D01*
X42463172Y59575125D01*
X42428593Y59622717D01*
X42423833Y59634207D01*
X42409643Y59668466D01*
X42317957Y59787953D01*
X42198470Y59879639D01*
X42198469Y59879640D01*
X42059323Y59937276D01*
X41910002Y59956934D01*
X41760680Y59937276D01*
X41621534Y59879640D01*
X41502047Y59787953D01*
X41410361Y59668467D01*
X41391411Y59622717D01*
X41356832Y59575125D01*
X41304416Y59548417D01*
X41245588Y59548417D01*
X41193172Y59575125D01*
X41158593Y59622717D01*
X41153833Y59634207D01*
X41139643Y59668466D01*
X41047957Y59787953D01*
X40928470Y59879639D01*
X40928469Y59879640D01*
X40789323Y59937276D01*
X40640002Y59956934D01*
X40490680Y59937276D01*
X40351534Y59879640D01*
X40232047Y59787953D01*
X40140361Y59668467D01*
X40121411Y59622717D01*
X40086832Y59575125D01*
X40034416Y59548417D01*
X39975588Y59548417D01*
X39923172Y59575125D01*
X39888593Y59622717D01*
X39883833Y59634207D01*
X39869643Y59668466D01*
X39777957Y59787953D01*
X39658470Y59879639D01*
X39658469Y59879640D01*
X39519323Y59937276D01*
X39370002Y59956934D01*
X39220680Y59937276D01*
X39081534Y59879640D01*
X38962047Y59787953D01*
X38870361Y59668467D01*
X38851411Y59622717D01*
X38816832Y59575125D01*
X38764416Y59548417D01*
X38705588Y59548417D01*
X38653172Y59575125D01*
X38618593Y59622717D01*
X38613833Y59634207D01*
X38599643Y59668466D01*
X38507957Y59787953D01*
X38388470Y59879639D01*
X38388469Y59879640D01*
X38249323Y59937276D01*
X38100002Y59956934D01*
X37950680Y59937276D01*
X37811534Y59879640D01*
X37692047Y59787953D01*
X37600360Y59668466D01*
X37542724Y59529320D01*
X37523066Y59380000D01*
X508500Y59380000D01*
X508500Y61030998D01*
X16314066Y61030998D01*
X16333724Y60881677D01*
X16391360Y60742531D01*
X16391361Y60742530D01*
X16483047Y60623043D01*
X16602534Y60531357D01*
X16741680Y60473721D01*
X16891002Y60454062D01*
X17040324Y60473721D01*
X17179470Y60531357D01*
X17298957Y60623043D01*
X17390643Y60742530D01*
X17448279Y60881676D01*
X17467938Y61030998D01*
X17448279Y61180320D01*
X17390643Y61319466D01*
X17298957Y61438953D01*
X17179470Y61530639D01*
X17179469Y61530640D01*
X17133721Y61549589D01*
X17086128Y61584167D01*
X17059420Y61636584D01*
X17059420Y61695412D01*
X17086128Y61747829D01*
X17133721Y61782407D01*
X17148438Y61788504D01*
X17179470Y61801357D01*
X17298957Y61893043D01*
X17390643Y62012530D01*
X17448279Y62151676D01*
X17467938Y62300998D01*
X17451218Y62427998D01*
X125598068Y62427998D01*
X125617726Y62278677D01*
X125675362Y62139531D01*
X125675363Y62139530D01*
X125767049Y62020043D01*
X125886536Y61928357D01*
X126025682Y61870721D01*
X126175004Y61851062D01*
X126324326Y61870721D01*
X126463472Y61928357D01*
X126582959Y62020043D01*
X126674645Y62139530D01*
X126732281Y62278676D01*
X126751940Y62427998D01*
X126732281Y62577320D01*
X126674645Y62716466D01*
X126582959Y62835953D01*
X126463472Y62927639D01*
X126463471Y62927640D01*
X126324325Y62985276D01*
X126175004Y63004934D01*
X126025682Y62985276D01*
X125886536Y62927640D01*
X125767049Y62835953D01*
X125675362Y62716466D01*
X125617726Y62577320D01*
X125598068Y62427998D01*
X17451218Y62427998D01*
X17448279Y62450320D01*
X17390643Y62589466D01*
X17298957Y62708953D01*
X17179470Y62800639D01*
X17179469Y62800640D01*
X17040323Y62858276D01*
X16933396Y62872353D01*
X16916506Y62874577D01*
X16891001Y62884495D01*
X16865496Y62874576D01*
X16741680Y62858276D01*
X16602534Y62800640D01*
X16483047Y62708953D01*
X16391360Y62589466D01*
X16333724Y62450320D01*
X16314066Y62300998D01*
X16333724Y62151677D01*
X16391360Y62012531D01*
X16391361Y62012530D01*
X16483047Y61893043D01*
X16602534Y61801357D01*
X16636793Y61787167D01*
X16648283Y61782407D01*
X16695875Y61747828D01*
X16722583Y61695412D01*
X16722583Y61636584D01*
X16695875Y61584168D01*
X16648283Y61549589D01*
X16602533Y61530639D01*
X16483047Y61438953D01*
X16391360Y61319466D01*
X16333724Y61180320D01*
X16314066Y61030998D01*
X508500Y61030998D01*
X508500Y63697998D01*
X16314066Y63697998D01*
X16333724Y63548677D01*
X16391360Y63409531D01*
X16391361Y63409530D01*
X16483047Y63290043D01*
X16602533Y63198358D01*
X16602534Y63198357D01*
X16741680Y63140721D01*
X16865496Y63124420D01*
X16891001Y63114502D01*
X16916506Y63124420D01*
X17040324Y63140721D01*
X17179470Y63198357D01*
X17298957Y63290043D01*
X17390643Y63409530D01*
X17448279Y63548676D01*
X17467938Y63697998D01*
X17448279Y63847320D01*
X17390643Y63986466D01*
X17298957Y64105953D01*
X17179470Y64197639D01*
X17179469Y64197640D01*
X17040323Y64255276D01*
X16933396Y64269353D01*
X16916506Y64271577D01*
X16891001Y64281495D01*
X16865496Y64271576D01*
X16741680Y64255276D01*
X16602534Y64197640D01*
X16483047Y64105953D01*
X16391360Y63986466D01*
X16333724Y63847320D01*
X16314066Y63697998D01*
X508500Y63697998D01*
X508500Y65094999D01*
X16314066Y65094999D01*
X16333724Y64945677D01*
X16391360Y64806531D01*
X16391361Y64806530D01*
X16483047Y64687043D01*
X16549208Y64636276D01*
X16602534Y64595357D01*
X16741680Y64537721D01*
X16865496Y64521420D01*
X16891001Y64511502D01*
X16916506Y64521420D01*
X16928507Y64523000D01*
X79687066Y64523000D01*
X79706724Y64373679D01*
X79764360Y64234533D01*
X79779842Y64214357D01*
X79856047Y64115045D01*
X79975534Y64023359D01*
X80114680Y63965723D01*
X80264002Y63946064D01*
X80413324Y63965723D01*
X80552470Y64023359D01*
X80624980Y64078998D01*
X116644066Y64078998D01*
X116663724Y63929677D01*
X116721360Y63790531D01*
X116721361Y63790530D01*
X116813047Y63671043D01*
X116932534Y63579357D01*
X117071680Y63521721D01*
X117221002Y63502062D01*
X117370324Y63521721D01*
X117509470Y63579357D01*
X117628957Y63671043D01*
X117720643Y63790530D01*
X117778279Y63929676D01*
X117797938Y64078998D01*
X121343066Y64078998D01*
X121362724Y63929677D01*
X121420360Y63790531D01*
X121420361Y63790530D01*
X121512047Y63671043D01*
X121631534Y63579357D01*
X121770680Y63521721D01*
X121920002Y63502062D01*
X122069324Y63521721D01*
X122208470Y63579357D01*
X122327957Y63671043D01*
X122419643Y63790530D01*
X122477279Y63929676D01*
X122496938Y64078998D01*
X122477279Y64228320D01*
X122419643Y64367466D01*
X122327957Y64486953D01*
X122208470Y64578639D01*
X122208469Y64578640D01*
X122069323Y64636276D01*
X121920002Y64655934D01*
X121770680Y64636276D01*
X121631534Y64578640D01*
X121512047Y64486953D01*
X121420360Y64367466D01*
X121362724Y64228320D01*
X121343066Y64078998D01*
X117797938Y64078998D01*
X117778279Y64228320D01*
X117720643Y64367466D01*
X117628957Y64486953D01*
X117509470Y64578639D01*
X117509469Y64578640D01*
X117370323Y64636276D01*
X117221002Y64655934D01*
X117071680Y64636276D01*
X116932534Y64578640D01*
X116813047Y64486953D01*
X116721360Y64367466D01*
X116663724Y64228320D01*
X116644066Y64078998D01*
X80624980Y64078998D01*
X80671957Y64115045D01*
X80763643Y64234532D01*
X80821279Y64373678D01*
X80840938Y64523000D01*
X80821279Y64672322D01*
X80804016Y64713999D01*
X89720066Y64713999D01*
X89739724Y64564677D01*
X89797360Y64425531D01*
X89797361Y64425530D01*
X89889047Y64306043D01*
X90008534Y64214357D01*
X90147680Y64156721D01*
X90297002Y64137062D01*
X90446324Y64156721D01*
X90585470Y64214357D01*
X90704957Y64306043D01*
X90796643Y64425530D01*
X90854279Y64564676D01*
X90873938Y64713998D01*
X90857218Y64840998D01*
X136583066Y64840998D01*
X136602724Y64691677D01*
X136660360Y64552531D01*
X136660361Y64552530D01*
X136752047Y64433043D01*
X136871534Y64341357D01*
X137010680Y64283721D01*
X137160002Y64264062D01*
X137309324Y64283721D01*
X137448470Y64341357D01*
X137567957Y64433043D01*
X137659643Y64552530D01*
X137717279Y64691676D01*
X137736938Y64840998D01*
X138869066Y64840998D01*
X138888724Y64691677D01*
X138946360Y64552531D01*
X138946361Y64552530D01*
X139038047Y64433043D01*
X139157534Y64341357D01*
X139296680Y64283721D01*
X139446002Y64264062D01*
X139595324Y64283721D01*
X139734470Y64341357D01*
X139853957Y64433043D01*
X139945643Y64552530D01*
X140003279Y64691676D01*
X140022938Y64840998D01*
X140003279Y64990320D01*
X139945643Y65129466D01*
X139853957Y65248953D01*
X139734470Y65340639D01*
X139734469Y65340640D01*
X139595323Y65398276D01*
X139446002Y65417934D01*
X139296680Y65398276D01*
X139157534Y65340640D01*
X139038047Y65248953D01*
X138946360Y65129466D01*
X138888724Y64990320D01*
X138869066Y64840998D01*
X137736938Y64840998D01*
X137717279Y64990320D01*
X137659643Y65129466D01*
X137567957Y65248953D01*
X137448470Y65340639D01*
X137448469Y65340640D01*
X137309323Y65398276D01*
X137160002Y65417934D01*
X137010680Y65398276D01*
X136871534Y65340640D01*
X136752047Y65248953D01*
X136660360Y65129466D01*
X136602724Y64990320D01*
X136583066Y64840998D01*
X90857218Y64840998D01*
X90854279Y64863320D01*
X90796643Y65002466D01*
X90704957Y65121953D01*
X90585470Y65213639D01*
X90585469Y65213640D01*
X90446323Y65271276D01*
X90297002Y65290934D01*
X90147680Y65271276D01*
X90008534Y65213640D01*
X89889047Y65121953D01*
X89797360Y65002466D01*
X89739724Y64863320D01*
X89720066Y64713999D01*
X80804016Y64713999D01*
X80763643Y64811468D01*
X80671957Y64930955D01*
X80552470Y65022641D01*
X80552469Y65022642D01*
X80413323Y65080278D01*
X80264002Y65099936D01*
X80114680Y65080278D01*
X79975534Y65022642D01*
X79856047Y64930955D01*
X79764360Y64811468D01*
X79706724Y64672322D01*
X79687066Y64523000D01*
X16928507Y64523000D01*
X17040324Y64537721D01*
X17179470Y64595357D01*
X17298957Y64687043D01*
X17390643Y64806530D01*
X17448279Y64945676D01*
X17467938Y65094998D01*
X17448279Y65244320D01*
X17404920Y65348998D01*
X38158066Y65348998D01*
X38177724Y65199677D01*
X38235360Y65060531D01*
X38235361Y65060530D01*
X38327047Y64941043D01*
X38446534Y64849357D01*
X38585680Y64791721D01*
X38735002Y64772062D01*
X38884324Y64791721D01*
X39023470Y64849357D01*
X39142957Y64941043D01*
X39234643Y65060530D01*
X39292279Y65199676D01*
X39311938Y65348998D01*
X39292279Y65498320D01*
X39234643Y65637466D01*
X39234642Y65637467D01*
X39234642Y65637468D01*
X39173772Y65716795D01*
X39150721Y65766228D01*
X39150721Y65820771D01*
X39173771Y65870202D01*
X39234643Y65949530D01*
X39292279Y66088676D01*
X39311938Y66237998D01*
X39295218Y66364999D01*
X99172066Y66364999D01*
X99191724Y66215677D01*
X99249360Y66076531D01*
X99249361Y66076530D01*
X99341047Y65957043D01*
X99460534Y65865357D01*
X99599680Y65807721D01*
X99749002Y65788062D01*
X99898324Y65807721D01*
X100037470Y65865357D01*
X100156957Y65957043D01*
X100177640Y65983998D01*
X137726066Y65983998D01*
X137745724Y65834677D01*
X137803360Y65695531D01*
X137803361Y65695530D01*
X137895047Y65576043D01*
X138014534Y65484357D01*
X138153680Y65426721D01*
X138303002Y65407062D01*
X138452324Y65426721D01*
X138591470Y65484357D01*
X138710957Y65576043D01*
X138802643Y65695530D01*
X138860279Y65834676D01*
X138879938Y65983998D01*
X138860279Y66133320D01*
X138802643Y66272466D01*
X138710957Y66391953D01*
X138591470Y66483639D01*
X138591469Y66483640D01*
X138452323Y66541276D01*
X138303002Y66560934D01*
X138153680Y66541276D01*
X138014534Y66483640D01*
X137895047Y66391953D01*
X137803360Y66272466D01*
X137745724Y66133320D01*
X137726066Y65983998D01*
X100177640Y65983998D01*
X100248643Y66076530D01*
X100306279Y66215676D01*
X100325938Y66364998D01*
X100306279Y66514320D01*
X100248643Y66653466D01*
X100156957Y66772953D01*
X100037470Y66864639D01*
X100037469Y66864640D01*
X99898323Y66922276D01*
X99749002Y66941934D01*
X99599680Y66922276D01*
X99460534Y66864640D01*
X99341047Y66772953D01*
X99249360Y66653466D01*
X99191724Y66514320D01*
X99172066Y66364999D01*
X39295218Y66364999D01*
X39292279Y66387320D01*
X39234643Y66526466D01*
X39234642Y66526467D01*
X39234642Y66526468D01*
X39173772Y66605795D01*
X39150721Y66655228D01*
X39150721Y66709771D01*
X39173771Y66759202D01*
X39234643Y66838530D01*
X39292279Y66977676D01*
X39311938Y67126998D01*
X136583066Y67126998D01*
X136602724Y66977677D01*
X136660360Y66838531D01*
X136660361Y66838530D01*
X136752047Y66719043D01*
X136871534Y66627357D01*
X137010680Y66569721D01*
X137160002Y66550062D01*
X137309324Y66569721D01*
X137448470Y66627357D01*
X137567957Y66719043D01*
X137659643Y66838530D01*
X137717279Y66977676D01*
X137736938Y67126998D01*
X138869066Y67126998D01*
X138888724Y66977677D01*
X138946360Y66838531D01*
X138946361Y66838530D01*
X139038047Y66719043D01*
X139157534Y66627357D01*
X139296680Y66569721D01*
X139446002Y66550062D01*
X139595324Y66569721D01*
X139734470Y66627357D01*
X139853957Y66719043D01*
X139945643Y66838530D01*
X140003279Y66977676D01*
X140022938Y67126998D01*
X140003279Y67276320D01*
X139945643Y67415466D01*
X139853957Y67534953D01*
X139734470Y67626639D01*
X139734469Y67626640D01*
X139595323Y67684276D01*
X139465660Y67701346D01*
X139446002Y67703934D01*
X139446001Y67703934D01*
X139296680Y67684276D01*
X139157534Y67626640D01*
X139038047Y67534953D01*
X138946360Y67415466D01*
X138888724Y67276320D01*
X138869066Y67126998D01*
X137736938Y67126998D01*
X137717279Y67276320D01*
X137659643Y67415466D01*
X137567957Y67534953D01*
X137448470Y67626639D01*
X137448469Y67626640D01*
X137309323Y67684276D01*
X137179660Y67701346D01*
X137160002Y67703934D01*
X137160001Y67703934D01*
X137010680Y67684276D01*
X136871534Y67626640D01*
X136752047Y67534953D01*
X136660360Y67415466D01*
X136602724Y67276320D01*
X136583066Y67126998D01*
X39311938Y67126998D01*
X39292279Y67276320D01*
X39234643Y67415466D01*
X39142957Y67534953D01*
X39023470Y67626639D01*
X39023469Y67626640D01*
X38884323Y67684276D01*
X38754660Y67701346D01*
X38735002Y67703934D01*
X38735001Y67703934D01*
X38585680Y67684276D01*
X38446534Y67626640D01*
X38327047Y67534953D01*
X38235360Y67415466D01*
X38177724Y67276320D01*
X38158066Y67126999D01*
X38177724Y66977677D01*
X38235361Y66838529D01*
X38296231Y66759202D01*
X38319282Y66709770D01*
X38319282Y66655226D01*
X38296231Y66605794D01*
X38235361Y66526468D01*
X38177724Y66387320D01*
X38158066Y66237998D01*
X38177724Y66088677D01*
X38235361Y65949529D01*
X38296231Y65870202D01*
X38319282Y65820770D01*
X38319282Y65766226D01*
X38296231Y65716794D01*
X38235361Y65637468D01*
X38177724Y65498320D01*
X38158066Y65348998D01*
X17404920Y65348998D01*
X17390643Y65383466D01*
X17298957Y65502953D01*
X17179470Y65594639D01*
X17179469Y65594640D01*
X17040323Y65652276D01*
X16933396Y65666353D01*
X16916506Y65668577D01*
X16891001Y65678495D01*
X16865496Y65668576D01*
X16741680Y65652276D01*
X16602534Y65594640D01*
X16483047Y65502953D01*
X16391360Y65383466D01*
X16333724Y65244320D01*
X16314066Y65094999D01*
X508500Y65094999D01*
X508500Y66491998D01*
X16314066Y66491998D01*
X16333724Y66342677D01*
X16391360Y66203531D01*
X16391361Y66203530D01*
X16483047Y66084043D01*
X16602534Y65992357D01*
X16741680Y65934721D01*
X16865496Y65918420D01*
X16891001Y65908502D01*
X16916506Y65918420D01*
X17040324Y65934721D01*
X17179470Y65992357D01*
X17298957Y66084043D01*
X17390643Y66203530D01*
X17448279Y66342676D01*
X17467938Y66491998D01*
X17448279Y66641320D01*
X17390643Y66780466D01*
X17298957Y66899953D01*
X17179470Y66991639D01*
X17179469Y66991640D01*
X17040323Y67049276D01*
X16891002Y67068934D01*
X16741680Y67049276D01*
X16602534Y66991640D01*
X16483047Y66899953D01*
X16391360Y66780466D01*
X16333724Y66641320D01*
X16314066Y66491998D01*
X508500Y66491998D01*
X508500Y68584999D01*
X6769600Y68584999D01*
X6789154Y68373983D01*
X6847148Y68170153D01*
X6941612Y67980443D01*
X6993812Y67911320D01*
X7069323Y67811328D01*
X7225935Y67668557D01*
X7293635Y67626639D01*
X7390161Y67566872D01*
X7406115Y67556994D01*
X7603726Y67480439D01*
X7812039Y67441499D01*
X8023959Y67441499D01*
X8023961Y67441499D01*
X8232274Y67480439D01*
X8429885Y67556994D01*
X8610065Y67668557D01*
X8766677Y67811328D01*
X8894389Y67980445D01*
X8988850Y68170149D01*
X9046845Y68373981D01*
X9066399Y68584999D01*
X9769600Y68584999D01*
X9789154Y68373983D01*
X9847148Y68170153D01*
X9941612Y67980443D01*
X9993812Y67911320D01*
X10069323Y67811328D01*
X10225935Y67668557D01*
X10293635Y67626639D01*
X10390161Y67566872D01*
X10406115Y67556994D01*
X10603726Y67480439D01*
X10812039Y67441499D01*
X11023959Y67441499D01*
X11023961Y67441499D01*
X11232274Y67480439D01*
X11429885Y67556994D01*
X11610065Y67668557D01*
X11712565Y67761998D01*
X17838066Y67761998D01*
X17857724Y67612677D01*
X17915360Y67473531D01*
X17915361Y67473530D01*
X18007047Y67354043D01*
X18126534Y67262357D01*
X18265680Y67204721D01*
X18415002Y67185062D01*
X18564324Y67204721D01*
X18703470Y67262357D01*
X18822957Y67354043D01*
X18914643Y67473530D01*
X18933592Y67519279D01*
X18968171Y67566872D01*
X19020588Y67593580D01*
X19079416Y67593580D01*
X19131833Y67566872D01*
X19166411Y67519279D01*
X19185360Y67473531D01*
X19185361Y67473530D01*
X19277047Y67354043D01*
X19396534Y67262357D01*
X19535680Y67204721D01*
X19685002Y67185062D01*
X19834324Y67204721D01*
X19973470Y67262357D01*
X20092957Y67354043D01*
X20184643Y67473530D01*
X20242279Y67612676D01*
X20258580Y67736494D01*
X20268498Y67761999D01*
X20498505Y67761999D01*
X20508424Y67736493D01*
X20524724Y67612677D01*
X20582360Y67473531D01*
X20582361Y67473530D01*
X20674047Y67354043D01*
X20793534Y67262357D01*
X20932680Y67204721D01*
X21082002Y67185062D01*
X21231324Y67204721D01*
X21370470Y67262357D01*
X21489957Y67354043D01*
X21581643Y67473530D01*
X21639279Y67612676D01*
X21655580Y67736494D01*
X21665498Y67761999D01*
X21895505Y67761999D01*
X21905424Y67736493D01*
X21921724Y67612677D01*
X21979360Y67473531D01*
X21979361Y67473530D01*
X22071047Y67354043D01*
X22190534Y67262357D01*
X22329680Y67204721D01*
X22479002Y67185062D01*
X22628324Y67204721D01*
X22767470Y67262357D01*
X22886957Y67354043D01*
X22978643Y67473530D01*
X23036279Y67612676D01*
X23052580Y67736494D01*
X23062498Y67761999D01*
X23292505Y67761999D01*
X23302424Y67736493D01*
X23318724Y67612677D01*
X23376360Y67473531D01*
X23376361Y67473530D01*
X23468047Y67354043D01*
X23587534Y67262357D01*
X23726680Y67204721D01*
X23876002Y67185062D01*
X24025324Y67204721D01*
X24164470Y67262357D01*
X24283957Y67354043D01*
X24375643Y67473530D01*
X24433279Y67612676D01*
X24452938Y67761998D01*
X24433279Y67911320D01*
X24375643Y68050466D01*
X24283957Y68169953D01*
X24164470Y68261639D01*
X24164469Y68261640D01*
X24025323Y68319276D01*
X23876002Y68338934D01*
X23726680Y68319276D01*
X23587534Y68261640D01*
X23468047Y68169953D01*
X23376360Y68050466D01*
X23318724Y67911320D01*
X23302424Y67787504D01*
X23292505Y67761999D01*
X23062498Y67761999D01*
X23052580Y67787504D01*
X23036279Y67911320D01*
X22978643Y68050466D01*
X22978642Y68050467D01*
X22886957Y68169953D01*
X22767470Y68261639D01*
X22767469Y68261640D01*
X22628323Y68319276D01*
X22479002Y68338934D01*
X22329680Y68319276D01*
X22190534Y68261640D01*
X22071047Y68169953D01*
X21979360Y68050466D01*
X21921724Y67911320D01*
X21905424Y67787504D01*
X21895505Y67761999D01*
X21665498Y67761999D01*
X21655580Y67787504D01*
X21639279Y67911320D01*
X21581643Y68050466D01*
X21581642Y68050467D01*
X21489957Y68169953D01*
X21370470Y68261639D01*
X21370469Y68261640D01*
X21231323Y68319276D01*
X21082002Y68338934D01*
X20932680Y68319276D01*
X20793534Y68261640D01*
X20674047Y68169953D01*
X20582360Y68050466D01*
X20524724Y67911320D01*
X20508424Y67787504D01*
X20498505Y67761999D01*
X20268498Y67761999D01*
X20258580Y67787504D01*
X20242279Y67911320D01*
X20184643Y68050466D01*
X20184642Y68050467D01*
X20092957Y68169953D01*
X19973470Y68261639D01*
X19973469Y68261640D01*
X19834323Y68319276D01*
X19685002Y68338934D01*
X19535680Y68319276D01*
X19396534Y68261640D01*
X19277047Y68169953D01*
X19185361Y68050467D01*
X19166411Y68004717D01*
X19131832Y67957125D01*
X19079416Y67930417D01*
X19020588Y67930417D01*
X18968172Y67957125D01*
X18933593Y68004717D01*
X18928833Y68016207D01*
X18914643Y68050466D01*
X18822957Y68169953D01*
X18703470Y68261639D01*
X18703469Y68261640D01*
X18564323Y68319276D01*
X18415002Y68338934D01*
X18265680Y68319276D01*
X18126534Y68261640D01*
X18007047Y68169953D01*
X17915360Y68050466D01*
X17857724Y67911320D01*
X17838066Y67761998D01*
X11712565Y67761998D01*
X11766677Y67811328D01*
X11894389Y67980445D01*
X11988850Y68170149D01*
X12046845Y68373981D01*
X12066399Y68584999D01*
X12046845Y68796017D01*
X11988850Y68999849D01*
X11894389Y69189553D01*
X11773603Y69349498D01*
X85402066Y69349498D01*
X85421724Y69200177D01*
X85479360Y69061031D01*
X85479361Y69061030D01*
X85571047Y68941543D01*
X85690534Y68849857D01*
X85829680Y68792221D01*
X85979002Y68772562D01*
X86128324Y68792221D01*
X86267470Y68849857D01*
X86386957Y68941543D01*
X86478643Y69061030D01*
X86536279Y69200176D01*
X86555938Y69349498D01*
X86536279Y69498820D01*
X86478643Y69637966D01*
X86386957Y69757453D01*
X86267470Y69849139D01*
X86267469Y69849140D01*
X86128323Y69906776D01*
X86021396Y69920853D01*
X86004506Y69923077D01*
X85979001Y69932995D01*
X85953496Y69923076D01*
X85829680Y69906776D01*
X85690534Y69849140D01*
X85571047Y69757453D01*
X85479360Y69637966D01*
X85421724Y69498820D01*
X85402066Y69349498D01*
X11773603Y69349498D01*
X11766678Y69358669D01*
X11766677Y69358670D01*
X11610065Y69501441D01*
X11534293Y69548357D01*
X11429886Y69613004D01*
X11331079Y69651282D01*
X11232274Y69689559D01*
X11023961Y69728499D01*
X10812039Y69728499D01*
X10603725Y69689559D01*
X10603726Y69689559D01*
X10406113Y69613004D01*
X10225936Y69501442D01*
X10069321Y69358669D01*
X9941612Y69189556D01*
X9847148Y68999846D01*
X9789154Y68796016D01*
X9769600Y68584999D01*
X9066399Y68584999D01*
X9046845Y68796017D01*
X8988850Y68999849D01*
X8894389Y69189553D01*
X8773603Y69349498D01*
X8766678Y69358669D01*
X8766677Y69358670D01*
X8610065Y69501441D01*
X8534293Y69548357D01*
X8429886Y69613004D01*
X8331079Y69651282D01*
X8232274Y69689559D01*
X8023961Y69728499D01*
X7812039Y69728499D01*
X7603725Y69689559D01*
X7603726Y69689559D01*
X7406113Y69613004D01*
X7225936Y69501442D01*
X7069321Y69358669D01*
X6941612Y69189556D01*
X6847148Y68999846D01*
X6789154Y68796016D01*
X6769600Y68584999D01*
X508500Y68584999D01*
X508500Y70047998D01*
X17838066Y70047998D01*
X17857724Y69898677D01*
X17915360Y69759531D01*
X17915361Y69759530D01*
X18007047Y69640043D01*
X18126534Y69548357D01*
X18265680Y69490721D01*
X18415002Y69471062D01*
X18564324Y69490721D01*
X18703470Y69548357D01*
X18822957Y69640043D01*
X18914643Y69759530D01*
X18933592Y69805279D01*
X18968171Y69852872D01*
X19020588Y69879580D01*
X19079416Y69879580D01*
X19131833Y69852872D01*
X19166411Y69805279D01*
X19185360Y69759531D01*
X19185361Y69759530D01*
X19277047Y69640043D01*
X19396534Y69548357D01*
X19535680Y69490721D01*
X19685002Y69471062D01*
X19834324Y69490721D01*
X19973470Y69548357D01*
X20092957Y69640043D01*
X20184643Y69759530D01*
X20242279Y69898676D01*
X20258580Y70022494D01*
X20268498Y70047999D01*
X20498505Y70047999D01*
X20508424Y70022493D01*
X20524724Y69898677D01*
X20582360Y69759531D01*
X20582361Y69759530D01*
X20674047Y69640043D01*
X20793534Y69548357D01*
X20932680Y69490721D01*
X21082002Y69471062D01*
X21231324Y69490721D01*
X21370470Y69548357D01*
X21489957Y69640043D01*
X21581643Y69759530D01*
X21639279Y69898676D01*
X21655580Y70022494D01*
X21665498Y70047999D01*
X21895505Y70047999D01*
X21905424Y70022493D01*
X21921724Y69898677D01*
X21979360Y69759531D01*
X21979361Y69759530D01*
X22071047Y69640043D01*
X22190534Y69548357D01*
X22329680Y69490721D01*
X22479002Y69471062D01*
X22628324Y69490721D01*
X22767470Y69548357D01*
X22886957Y69640043D01*
X22978643Y69759530D01*
X23036279Y69898676D01*
X23052580Y70022494D01*
X23062498Y70047999D01*
X23292505Y70047999D01*
X23302424Y70022493D01*
X23318724Y69898677D01*
X23376360Y69759531D01*
X23376361Y69759530D01*
X23468047Y69640043D01*
X23587534Y69548357D01*
X23726680Y69490721D01*
X23876002Y69471062D01*
X24025324Y69490721D01*
X24164470Y69548357D01*
X24283957Y69640043D01*
X24375643Y69759530D01*
X24433279Y69898676D01*
X24452938Y70047998D01*
X24433279Y70197320D01*
X24375643Y70336466D01*
X24283957Y70455953D01*
X24164470Y70547639D01*
X24164469Y70547640D01*
X24025323Y70605276D01*
X23876002Y70624934D01*
X23726680Y70605276D01*
X23587534Y70547640D01*
X23468047Y70455953D01*
X23376360Y70336466D01*
X23318724Y70197320D01*
X23302424Y70073504D01*
X23292505Y70047999D01*
X23062498Y70047999D01*
X23052580Y70073504D01*
X23036279Y70197320D01*
X22978643Y70336466D01*
X22977048Y70338544D01*
X22886957Y70455953D01*
X22767470Y70547639D01*
X22767469Y70547640D01*
X22628323Y70605276D01*
X22479002Y70624934D01*
X22329680Y70605276D01*
X22190534Y70547640D01*
X22071047Y70455953D01*
X21979360Y70336466D01*
X21921724Y70197320D01*
X21905424Y70073504D01*
X21895505Y70047999D01*
X21665498Y70047999D01*
X21655580Y70073504D01*
X21639279Y70197320D01*
X21581643Y70336466D01*
X21580048Y70338544D01*
X21489957Y70455953D01*
X21370470Y70547639D01*
X21370469Y70547640D01*
X21231323Y70605276D01*
X21082002Y70624934D01*
X20932680Y70605276D01*
X20793534Y70547640D01*
X20674047Y70455953D01*
X20582360Y70336466D01*
X20524724Y70197320D01*
X20508424Y70073504D01*
X20498505Y70047999D01*
X20268498Y70047999D01*
X20258580Y70073504D01*
X20242279Y70197320D01*
X20184643Y70336466D01*
X20183048Y70338544D01*
X20092957Y70455953D01*
X19973470Y70547639D01*
X19973469Y70547640D01*
X19834323Y70605276D01*
X19685002Y70624934D01*
X19535680Y70605276D01*
X19396534Y70547640D01*
X19277047Y70455953D01*
X19185361Y70336467D01*
X19166411Y70290717D01*
X19131832Y70243125D01*
X19079416Y70216417D01*
X19020588Y70216417D01*
X18968172Y70243125D01*
X18933593Y70290717D01*
X18928833Y70302207D01*
X18914643Y70336466D01*
X18822957Y70455953D01*
X18703470Y70547639D01*
X18703469Y70547640D01*
X18564323Y70605276D01*
X18415002Y70624934D01*
X18265680Y70605276D01*
X18126534Y70547640D01*
X18007047Y70455953D01*
X17915360Y70336466D01*
X17857724Y70197320D01*
X17838066Y70047998D01*
X508500Y70047998D01*
X508500Y71585000D01*
X6769600Y71585000D01*
X6789154Y71373983D01*
X6847148Y71170153D01*
X6941612Y70980443D01*
X7005517Y70895820D01*
X7069323Y70811328D01*
X7225935Y70668557D01*
X7406115Y70556994D01*
X7603726Y70480439D01*
X7812039Y70441499D01*
X8023959Y70441499D01*
X8023961Y70441499D01*
X8232274Y70480439D01*
X8429885Y70556994D01*
X8610065Y70668557D01*
X8766677Y70811328D01*
X8894389Y70980445D01*
X8988850Y71170149D01*
X9046845Y71373981D01*
X9066399Y71584999D01*
X9066399Y71585000D01*
X9769600Y71585000D01*
X9789154Y71373983D01*
X9847148Y71170153D01*
X9941612Y70980443D01*
X10005517Y70895820D01*
X10069323Y70811328D01*
X10225935Y70668557D01*
X10406115Y70556994D01*
X10603726Y70480439D01*
X10812039Y70441499D01*
X11023959Y70441499D01*
X11023961Y70441499D01*
X11232274Y70480439D01*
X11429885Y70556994D01*
X11610065Y70668557D01*
X11695562Y70746498D01*
X85402066Y70746498D01*
X85421724Y70597177D01*
X85479360Y70458031D01*
X85479361Y70458030D01*
X85571047Y70338543D01*
X85633375Y70290717D01*
X85690534Y70246857D01*
X85829680Y70189221D01*
X85953496Y70172920D01*
X85979001Y70163002D01*
X86004506Y70172920D01*
X86128324Y70189221D01*
X86267470Y70246857D01*
X86386957Y70338543D01*
X86478643Y70458030D01*
X86536279Y70597176D01*
X86555938Y70746498D01*
X86536279Y70895820D01*
X86478643Y71034966D01*
X86386957Y71154453D01*
X86267470Y71246139D01*
X86267469Y71246140D01*
X86128323Y71303776D01*
X85979002Y71323434D01*
X85829680Y71303776D01*
X85690534Y71246140D01*
X85571047Y71154453D01*
X85479360Y71034966D01*
X85421724Y70895820D01*
X85402066Y70746498D01*
X11695562Y70746498D01*
X11766677Y70811328D01*
X11894389Y70980445D01*
X11988850Y71170149D01*
X12046845Y71373981D01*
X12066399Y71584999D01*
X12046845Y71796017D01*
X11988850Y71999849D01*
X11948941Y72079998D01*
X38158066Y72079998D01*
X38177724Y71930677D01*
X38235360Y71791531D01*
X38235361Y71791530D01*
X38327047Y71672043D01*
X38446534Y71580357D01*
X38585680Y71522721D01*
X38735002Y71503062D01*
X38884324Y71522721D01*
X39023470Y71580357D01*
X39142957Y71672043D01*
X39234643Y71791530D01*
X39292279Y71930676D01*
X39311938Y72079998D01*
X39292279Y72229320D01*
X39234643Y72368466D01*
X39142957Y72487953D01*
X39023470Y72579639D01*
X39023469Y72579640D01*
X38977721Y72598589D01*
X38930128Y72633167D01*
X38903420Y72685584D01*
X38903420Y72744412D01*
X38930128Y72796829D01*
X38977721Y72831407D01*
X38992438Y72837504D01*
X39023470Y72850357D01*
X39142957Y72942043D01*
X39234643Y73061530D01*
X39292279Y73200676D01*
X39311938Y73349998D01*
X39292279Y73499320D01*
X39234643Y73638466D01*
X39142957Y73757953D01*
X39023470Y73849639D01*
X39023469Y73849640D01*
X38884323Y73907276D01*
X38777396Y73921353D01*
X38760506Y73923577D01*
X38735001Y73933495D01*
X38709496Y73923576D01*
X38585680Y73907276D01*
X38446534Y73849640D01*
X38327047Y73757953D01*
X38235360Y73638466D01*
X38177724Y73499320D01*
X38158066Y73349999D01*
X38177724Y73200677D01*
X38235360Y73061531D01*
X38235361Y73061530D01*
X38327047Y72942043D01*
X38446534Y72850357D01*
X38480793Y72836167D01*
X38492283Y72831407D01*
X38539875Y72796828D01*
X38566583Y72744412D01*
X38566583Y72685584D01*
X38539875Y72633168D01*
X38492283Y72598589D01*
X38446533Y72579639D01*
X38327047Y72487953D01*
X38235360Y72368466D01*
X38177724Y72229320D01*
X38158066Y72079998D01*
X11948941Y72079998D01*
X11894389Y72189553D01*
X11766677Y72358670D01*
X11610065Y72501441D01*
X11559982Y72532451D01*
X11429886Y72613004D01*
X11316489Y72656934D01*
X11232274Y72689559D01*
X11023961Y72728499D01*
X10812039Y72728499D01*
X10603726Y72689560D01*
X10603726Y72689559D01*
X10406113Y72613004D01*
X10225936Y72501442D01*
X10069321Y72358669D01*
X9941612Y72189556D01*
X9847148Y71999846D01*
X9789154Y71796016D01*
X9769600Y71585000D01*
X9066399Y71585000D01*
X9046845Y71796017D01*
X8988850Y71999849D01*
X8894389Y72189553D01*
X8766677Y72358670D01*
X8610065Y72501441D01*
X8559982Y72532451D01*
X8429886Y72613004D01*
X8316489Y72656934D01*
X8232274Y72689559D01*
X8023961Y72728499D01*
X7812039Y72728499D01*
X7603726Y72689560D01*
X7603726Y72689559D01*
X7406113Y72613004D01*
X7225936Y72501442D01*
X7069321Y72358669D01*
X6941612Y72189556D01*
X6847148Y71999846D01*
X6789154Y71796016D01*
X6769600Y71585000D01*
X508500Y71585000D01*
X508500Y74584999D01*
X6769600Y74584999D01*
X6789154Y74373983D01*
X6847148Y74170153D01*
X6941612Y73980443D01*
X7060108Y73823530D01*
X7069323Y73811328D01*
X7225935Y73668557D01*
X7406115Y73556994D01*
X7603726Y73480439D01*
X7812039Y73441499D01*
X8023959Y73441499D01*
X8023961Y73441499D01*
X8232274Y73480439D01*
X8429885Y73556994D01*
X8610065Y73668557D01*
X8766677Y73811328D01*
X8894389Y73980445D01*
X8988850Y74170149D01*
X9046845Y74373981D01*
X9066399Y74584999D01*
X9769600Y74584999D01*
X9789154Y74373983D01*
X9847148Y74170153D01*
X9941612Y73980443D01*
X10060108Y73823530D01*
X10069323Y73811328D01*
X10225935Y73668557D01*
X10406115Y73556994D01*
X10603726Y73480439D01*
X10812039Y73441499D01*
X11023959Y73441499D01*
X11023961Y73441499D01*
X11232274Y73480439D01*
X11429885Y73556994D01*
X11610065Y73668557D01*
X11766677Y73811328D01*
X11894389Y73980445D01*
X11959895Y74111999D01*
X16949066Y74111999D01*
X16968724Y73962677D01*
X17026360Y73823531D01*
X17026361Y73823530D01*
X17118047Y73704043D01*
X17237534Y73612357D01*
X17376680Y73554721D01*
X17526002Y73535062D01*
X17675324Y73554721D01*
X17814470Y73612357D01*
X17933957Y73704043D01*
X18025643Y73823530D01*
X18083279Y73962676D01*
X18102938Y74111998D01*
X18102938Y74111999D01*
X23553066Y74111999D01*
X23572724Y73962677D01*
X23630360Y73823531D01*
X23630361Y73823530D01*
X23722047Y73704043D01*
X23841534Y73612357D01*
X23980680Y73554721D01*
X24130002Y73535062D01*
X24279324Y73554721D01*
X24418470Y73612357D01*
X24537957Y73704043D01*
X24629643Y73823530D01*
X24687279Y73962676D01*
X24706938Y74111998D01*
X24687279Y74261320D01*
X24629643Y74400466D01*
X24537957Y74519953D01*
X24418470Y74611639D01*
X24418469Y74611640D01*
X24372721Y74630589D01*
X24325128Y74665167D01*
X24298420Y74717584D01*
X24298420Y74746998D01*
X38158066Y74746998D01*
X38177724Y74597677D01*
X38235360Y74458531D01*
X38235361Y74458530D01*
X38327047Y74339043D01*
X38428337Y74261320D01*
X38446534Y74247357D01*
X38585680Y74189721D01*
X38709496Y74173420D01*
X38735001Y74163502D01*
X38760506Y74173420D01*
X38884324Y74189721D01*
X39023470Y74247357D01*
X39142957Y74339043D01*
X39163641Y74365999D01*
X136583066Y74365999D01*
X136602724Y74216677D01*
X136660360Y74077531D01*
X136660361Y74077530D01*
X136752047Y73958043D01*
X136871534Y73866357D01*
X137010680Y73808721D01*
X137160002Y73789062D01*
X137309324Y73808721D01*
X137448470Y73866357D01*
X137567957Y73958043D01*
X137659643Y74077530D01*
X137717279Y74216676D01*
X137736938Y74365998D01*
X137736938Y74365999D01*
X138856068Y74365999D01*
X138875726Y74216677D01*
X138933362Y74077531D01*
X138933363Y74077530D01*
X139025049Y73958043D01*
X139144536Y73866357D01*
X139283682Y73808721D01*
X139433004Y73789062D01*
X139582326Y73808721D01*
X139721472Y73866357D01*
X139840959Y73958043D01*
X139932645Y74077530D01*
X139990281Y74216676D01*
X140009940Y74365998D01*
X139990281Y74515320D01*
X139932645Y74654466D01*
X139840959Y74773953D01*
X139721472Y74865639D01*
X139721471Y74865640D01*
X139582325Y74923276D01*
X139433004Y74942934D01*
X139283682Y74923276D01*
X139144536Y74865640D01*
X139025049Y74773953D01*
X138933362Y74654466D01*
X138875726Y74515320D01*
X138856068Y74365999D01*
X137736938Y74365999D01*
X137717279Y74515320D01*
X137659643Y74654466D01*
X137567957Y74773953D01*
X137448470Y74865639D01*
X137448469Y74865640D01*
X137309323Y74923276D01*
X137160002Y74942934D01*
X137010680Y74923276D01*
X136871534Y74865640D01*
X136752047Y74773953D01*
X136660360Y74654466D01*
X136602724Y74515320D01*
X136583066Y74365999D01*
X39163641Y74365999D01*
X39234643Y74458530D01*
X39292279Y74597676D01*
X39311938Y74746998D01*
X39292279Y74896320D01*
X39234643Y75035466D01*
X39228095Y75044000D01*
X95435066Y75044000D01*
X95454724Y74894679D01*
X95512360Y74755533D01*
X95512361Y74755532D01*
X95604047Y74636045D01*
X95723534Y74544359D01*
X95862680Y74486723D01*
X96012002Y74467064D01*
X96161324Y74486723D01*
X96300470Y74544359D01*
X96419957Y74636045D01*
X96511643Y74755532D01*
X96569279Y74894678D01*
X96588938Y75044000D01*
X96569279Y75193322D01*
X96543732Y75254999D01*
X137726066Y75254999D01*
X137745724Y75105677D01*
X137803360Y74966531D01*
X137803361Y74966530D01*
X137895047Y74847043D01*
X138014534Y74755357D01*
X138153680Y74697721D01*
X138303002Y74678062D01*
X138452324Y74697721D01*
X138591470Y74755357D01*
X138710957Y74847043D01*
X138802643Y74966530D01*
X138860279Y75105676D01*
X138879938Y75254998D01*
X138860279Y75404320D01*
X138802643Y75543466D01*
X138710957Y75662953D01*
X138591470Y75754639D01*
X138591469Y75754640D01*
X138452323Y75812276D01*
X138303002Y75831934D01*
X138153680Y75812276D01*
X138014534Y75754640D01*
X137895047Y75662953D01*
X137803360Y75543466D01*
X137745724Y75404320D01*
X137726066Y75254999D01*
X96543732Y75254999D01*
X96511643Y75332468D01*
X96419957Y75451955D01*
X96300470Y75543641D01*
X96300469Y75543642D01*
X96161323Y75601278D01*
X96012002Y75620936D01*
X95862680Y75601278D01*
X95723534Y75543642D01*
X95604047Y75451955D01*
X95512360Y75332468D01*
X95454724Y75193322D01*
X95435066Y75044000D01*
X39228095Y75044000D01*
X39142957Y75154953D01*
X39041666Y75232677D01*
X39023468Y75246641D01*
X38977719Y75265591D01*
X38930127Y75300170D01*
X38903420Y75352587D01*
X38903421Y75411415D01*
X38930129Y75463831D01*
X38977719Y75498407D01*
X39023470Y75517357D01*
X39142957Y75609043D01*
X39234643Y75728530D01*
X39292279Y75867676D01*
X39311938Y76016998D01*
X39295218Y76143999D01*
X136583066Y76143999D01*
X136602724Y75994677D01*
X136660360Y75855531D01*
X136660361Y75855530D01*
X136752047Y75736043D01*
X136871534Y75644357D01*
X137010680Y75586721D01*
X137160002Y75567062D01*
X137309324Y75586721D01*
X137448470Y75644357D01*
X137567957Y75736043D01*
X137659643Y75855530D01*
X137717279Y75994676D01*
X137736938Y76143998D01*
X137736938Y76143999D01*
X138856068Y76143999D01*
X138875726Y75994677D01*
X138933362Y75855531D01*
X138933363Y75855530D01*
X139025049Y75736043D01*
X139144536Y75644357D01*
X139283682Y75586721D01*
X139433004Y75567062D01*
X139582326Y75586721D01*
X139721472Y75644357D01*
X139840959Y75736043D01*
X139932645Y75855530D01*
X139990281Y75994676D01*
X140009940Y76143998D01*
X139990281Y76293320D01*
X139932645Y76432466D01*
X139840959Y76551953D01*
X139721472Y76643639D01*
X139721471Y76643640D01*
X139582325Y76701276D01*
X139433004Y76720934D01*
X139283682Y76701276D01*
X139144536Y76643640D01*
X139025049Y76551953D01*
X138933362Y76432466D01*
X138875726Y76293320D01*
X138856068Y76143999D01*
X137736938Y76143999D01*
X137717279Y76293320D01*
X137659643Y76432466D01*
X137567957Y76551953D01*
X137448470Y76643639D01*
X137448469Y76643640D01*
X137309323Y76701276D01*
X137160002Y76720934D01*
X137010680Y76701276D01*
X136871534Y76643640D01*
X136752047Y76551953D01*
X136660360Y76432466D01*
X136602724Y76293320D01*
X136583066Y76143999D01*
X39295218Y76143999D01*
X39292279Y76166320D01*
X39234643Y76305466D01*
X39142957Y76424953D01*
X39023470Y76516639D01*
X39023469Y76516640D01*
X38977721Y76535589D01*
X38930128Y76570167D01*
X38903420Y76622584D01*
X38903420Y76681412D01*
X38930128Y76733829D01*
X38977721Y76768407D01*
X38992438Y76774504D01*
X39023470Y76787357D01*
X39142957Y76879043D01*
X39234643Y76998530D01*
X39292279Y77137676D01*
X39311938Y77286998D01*
X39292279Y77436320D01*
X39234643Y77575466D01*
X39142957Y77694953D01*
X39023470Y77786639D01*
X39023469Y77786640D01*
X38884323Y77844276D01*
X38777396Y77858353D01*
X38760506Y77860577D01*
X38735001Y77870495D01*
X38709496Y77860576D01*
X38585680Y77844276D01*
X38446534Y77786640D01*
X38327047Y77694953D01*
X38235360Y77575466D01*
X38177724Y77436320D01*
X38158066Y77286999D01*
X38177724Y77137677D01*
X38235360Y76998531D01*
X38235361Y76998530D01*
X38327047Y76879043D01*
X38446534Y76787357D01*
X38480793Y76773167D01*
X38492283Y76768407D01*
X38539875Y76733828D01*
X38566583Y76681412D01*
X38566583Y76622584D01*
X38539875Y76570168D01*
X38492283Y76535589D01*
X38446533Y76516639D01*
X38327047Y76424953D01*
X38235360Y76305466D01*
X38177724Y76166320D01*
X38158066Y76016998D01*
X38177724Y75867677D01*
X38235360Y75728531D01*
X38235361Y75728530D01*
X38327047Y75609043D01*
X38446534Y75517357D01*
X38484956Y75501442D01*
X38492281Y75498408D01*
X38539874Y75463831D01*
X38566582Y75411415D01*
X38566583Y75352587D01*
X38539877Y75300170D01*
X38492284Y75265591D01*
X38446535Y75246641D01*
X38327047Y75154953D01*
X38235360Y75035466D01*
X38177724Y74896320D01*
X38158066Y74746998D01*
X24298420Y74746998D01*
X24298420Y74776412D01*
X24325128Y74828829D01*
X24372721Y74863407D01*
X24387438Y74869504D01*
X24418470Y74882357D01*
X24537957Y74974043D01*
X24629643Y75093530D01*
X24687279Y75232676D01*
X24706938Y75381998D01*
X24687279Y75531320D01*
X24629643Y75670466D01*
X24537957Y75789953D01*
X24418470Y75881639D01*
X24418469Y75881640D01*
X24372721Y75900589D01*
X24325128Y75935167D01*
X24298420Y75987584D01*
X24298420Y76046412D01*
X24325128Y76098829D01*
X24372721Y76133407D01*
X24387438Y76139504D01*
X24418470Y76152357D01*
X24537957Y76244043D01*
X24629643Y76363530D01*
X24687279Y76502676D01*
X24706938Y76651998D01*
X24687279Y76801320D01*
X24629643Y76940466D01*
X24537957Y77059953D01*
X24418470Y77151639D01*
X24418469Y77151640D01*
X24279323Y77209276D01*
X24130002Y77228934D01*
X23980680Y77209276D01*
X23841534Y77151640D01*
X23722047Y77059953D01*
X23630360Y76940466D01*
X23572724Y76801320D01*
X23553066Y76651998D01*
X23572724Y76502677D01*
X23630360Y76363531D01*
X23630361Y76363530D01*
X23722047Y76244043D01*
X23841534Y76152357D01*
X23875793Y76138167D01*
X23887283Y76133407D01*
X23934875Y76098828D01*
X23961583Y76046412D01*
X23961583Y75987584D01*
X23934875Y75935168D01*
X23887283Y75900589D01*
X23841533Y75881639D01*
X23722047Y75789953D01*
X23630360Y75670466D01*
X23572724Y75531320D01*
X23553066Y75381999D01*
X23572724Y75232677D01*
X23630360Y75093531D01*
X23630361Y75093530D01*
X23722047Y74974043D01*
X23841534Y74882357D01*
X23875793Y74868167D01*
X23887283Y74863407D01*
X23934875Y74828828D01*
X23961583Y74776412D01*
X23961583Y74717584D01*
X23934875Y74665168D01*
X23887283Y74630589D01*
X23841533Y74611639D01*
X23722047Y74519953D01*
X23630360Y74400466D01*
X23572724Y74261320D01*
X23553066Y74111999D01*
X18102938Y74111999D01*
X18083279Y74261320D01*
X18025643Y74400466D01*
X17933957Y74519953D01*
X17814470Y74611639D01*
X17814469Y74611640D01*
X17768721Y74630589D01*
X17721128Y74665167D01*
X17694420Y74717584D01*
X17694420Y74776412D01*
X17721128Y74828829D01*
X17768721Y74863407D01*
X17783438Y74869504D01*
X17814470Y74882357D01*
X17933957Y74974043D01*
X18025643Y75093530D01*
X18083279Y75232676D01*
X18102938Y75381998D01*
X18083279Y75531320D01*
X18025643Y75670466D01*
X17933957Y75789953D01*
X17814470Y75881639D01*
X17814469Y75881640D01*
X17768721Y75900589D01*
X17721128Y75935167D01*
X17694420Y75987584D01*
X17694420Y76046412D01*
X17721128Y76098829D01*
X17768721Y76133407D01*
X17783438Y76139504D01*
X17814470Y76152357D01*
X17933957Y76244043D01*
X18025643Y76363530D01*
X18083279Y76502676D01*
X18102938Y76651998D01*
X18083279Y76801320D01*
X18025643Y76940466D01*
X17933957Y77059953D01*
X17814470Y77151639D01*
X17814469Y77151640D01*
X17675323Y77209276D01*
X17526002Y77228934D01*
X17376680Y77209276D01*
X17237534Y77151640D01*
X17118047Y77059953D01*
X17026360Y76940466D01*
X16968724Y76801320D01*
X16949066Y76651998D01*
X16968724Y76502677D01*
X17026360Y76363531D01*
X17026361Y76363530D01*
X17118047Y76244043D01*
X17237534Y76152357D01*
X17271793Y76138167D01*
X17283283Y76133407D01*
X17330875Y76098828D01*
X17357583Y76046412D01*
X17357583Y75987584D01*
X17330875Y75935168D01*
X17283283Y75900589D01*
X17237533Y75881639D01*
X17118047Y75789953D01*
X17026360Y75670466D01*
X16968724Y75531320D01*
X16949066Y75381999D01*
X16968724Y75232677D01*
X17026360Y75093531D01*
X17026361Y75093530D01*
X17118047Y74974043D01*
X17237534Y74882357D01*
X17271793Y74868167D01*
X17283283Y74863407D01*
X17330875Y74828828D01*
X17357583Y74776412D01*
X17357583Y74717584D01*
X17330875Y74665168D01*
X17283283Y74630589D01*
X17237533Y74611639D01*
X17118047Y74519953D01*
X17026360Y74400466D01*
X16968724Y74261320D01*
X16949066Y74111999D01*
X11959895Y74111999D01*
X11988850Y74170149D01*
X12046845Y74373981D01*
X12066399Y74584999D01*
X12046845Y74796017D01*
X11998330Y74966531D01*
X11988851Y74999846D01*
X11988850Y74999849D01*
X11894389Y75189553D01*
X11851279Y75246639D01*
X11766678Y75358669D01*
X11716601Y75404320D01*
X11610065Y75501441D01*
X11559982Y75532451D01*
X11429886Y75613004D01*
X11300952Y75662953D01*
X11232274Y75689559D01*
X11023961Y75728499D01*
X10812039Y75728499D01*
X10603726Y75689560D01*
X10603726Y75689559D01*
X10406113Y75613004D01*
X10225936Y75501442D01*
X10069321Y75358669D01*
X9941612Y75189556D01*
X9847148Y74999846D01*
X9789154Y74796016D01*
X9769600Y74584999D01*
X9066399Y74584999D01*
X9046845Y74796017D01*
X8998330Y74966531D01*
X8988851Y74999846D01*
X8988850Y74999849D01*
X8894389Y75189553D01*
X8851279Y75246639D01*
X8766678Y75358669D01*
X8716601Y75404320D01*
X8610065Y75501441D01*
X8559982Y75532451D01*
X8429886Y75613004D01*
X8300952Y75662953D01*
X8232274Y75689559D01*
X8023961Y75728499D01*
X7812039Y75728499D01*
X7603726Y75689560D01*
X7603726Y75689559D01*
X7406113Y75613004D01*
X7225936Y75501442D01*
X7069321Y75358669D01*
X6941612Y75189556D01*
X6847148Y74999846D01*
X6789154Y74796016D01*
X6769600Y74584999D01*
X508500Y74584999D01*
X508500Y77585000D01*
X6769600Y77585000D01*
X6789154Y77373983D01*
X6847148Y77170153D01*
X6941612Y76980443D01*
X7069321Y76811330D01*
X7069323Y76811328D01*
X7225935Y76668557D01*
X7406115Y76556994D01*
X7603726Y76480439D01*
X7812039Y76441499D01*
X8023959Y76441499D01*
X8023961Y76441499D01*
X8232274Y76480439D01*
X8429885Y76556994D01*
X8610065Y76668557D01*
X8766677Y76811328D01*
X8894389Y76980445D01*
X8988850Y77170149D01*
X9046845Y77373981D01*
X9066399Y77584999D01*
X9066399Y77585000D01*
X9769600Y77585000D01*
X9789154Y77373983D01*
X9847148Y77170153D01*
X9941612Y76980443D01*
X10069321Y76811330D01*
X10069323Y76811328D01*
X10225935Y76668557D01*
X10406115Y76556994D01*
X10603726Y76480439D01*
X10812039Y76441499D01*
X11023959Y76441499D01*
X11023961Y76441499D01*
X11232274Y76480439D01*
X11429885Y76556994D01*
X11610065Y76668557D01*
X11766677Y76811328D01*
X11894389Y76980445D01*
X11988850Y77170149D01*
X12046845Y77373981D01*
X12066399Y77584999D01*
X12046845Y77796017D01*
X11994480Y77980063D01*
X11988851Y77999846D01*
X11988850Y77999849D01*
X11894389Y78189553D01*
X11829074Y78276043D01*
X11766678Y78358669D01*
X11766677Y78358670D01*
X11610065Y78501441D01*
X11520336Y78556999D01*
X18981066Y78556999D01*
X19000724Y78407677D01*
X19058360Y78268531D01*
X19058361Y78268530D01*
X19150047Y78149043D01*
X19269534Y78057357D01*
X19408680Y77999721D01*
X19558002Y77980062D01*
X19707324Y77999721D01*
X19846470Y78057357D01*
X19965957Y78149043D01*
X20057643Y78268530D01*
X20076592Y78314279D01*
X20111171Y78361872D01*
X20163588Y78388580D01*
X20222416Y78388580D01*
X20274833Y78361872D01*
X20309411Y78314279D01*
X20328360Y78268531D01*
X20328361Y78268530D01*
X20420047Y78149043D01*
X20539534Y78057357D01*
X20678680Y77999721D01*
X20828002Y77980062D01*
X20977324Y77999721D01*
X21116470Y78057357D01*
X21235957Y78149043D01*
X21327643Y78268530D01*
X21346592Y78314279D01*
X21381171Y78361872D01*
X21433588Y78388580D01*
X21492416Y78388580D01*
X21544833Y78361872D01*
X21579411Y78314279D01*
X21598360Y78268531D01*
X21598361Y78268530D01*
X21690047Y78149043D01*
X21809534Y78057357D01*
X21948680Y77999721D01*
X22098002Y77980062D01*
X22247324Y77999721D01*
X22386470Y78057357D01*
X22505957Y78149043D01*
X22597643Y78268530D01*
X22655279Y78407676D01*
X22674938Y78556998D01*
X22658218Y78683998D01*
X38158066Y78683998D01*
X38177724Y78534677D01*
X38235360Y78395531D01*
X38235361Y78395530D01*
X38327047Y78276043D01*
X38446533Y78184358D01*
X38446534Y78184357D01*
X38585680Y78126721D01*
X38709496Y78110420D01*
X38735001Y78100502D01*
X38760506Y78110420D01*
X38884324Y78126721D01*
X39023470Y78184357D01*
X39142957Y78276043D01*
X39234643Y78395530D01*
X39292279Y78534676D01*
X39311938Y78683998D01*
X39292279Y78833320D01*
X39234643Y78972466D01*
X39142957Y79091953D01*
X39023470Y79183639D01*
X39023469Y79183640D01*
X38884323Y79241276D01*
X38777396Y79255353D01*
X38760506Y79257577D01*
X38735001Y79267495D01*
X38709496Y79257576D01*
X38585680Y79241276D01*
X38446534Y79183640D01*
X38327047Y79091953D01*
X38235360Y78972466D01*
X38177724Y78833320D01*
X38158066Y78683998D01*
X22658218Y78683998D01*
X22655279Y78706320D01*
X22597643Y78845466D01*
X22505957Y78964953D01*
X22386470Y79056639D01*
X22386469Y79056640D01*
X22247323Y79114276D01*
X22098002Y79133934D01*
X21948680Y79114276D01*
X21809534Y79056640D01*
X21690047Y78964953D01*
X21598361Y78845467D01*
X21579411Y78799717D01*
X21544832Y78752125D01*
X21492416Y78725417D01*
X21433588Y78725417D01*
X21381172Y78752125D01*
X21346593Y78799717D01*
X21332674Y78833320D01*
X21327643Y78845466D01*
X21235957Y78964953D01*
X21116470Y79056639D01*
X21116469Y79056640D01*
X20977323Y79114276D01*
X20828002Y79133934D01*
X20678680Y79114276D01*
X20539534Y79056640D01*
X20420047Y78964953D01*
X20328361Y78845467D01*
X20309411Y78799717D01*
X20274832Y78752125D01*
X20222416Y78725417D01*
X20163588Y78725417D01*
X20111172Y78752125D01*
X20076593Y78799717D01*
X20062674Y78833320D01*
X20057643Y78845466D01*
X19965957Y78964953D01*
X19846470Y79056639D01*
X19846469Y79056640D01*
X19707323Y79114276D01*
X19558002Y79133934D01*
X19408680Y79114276D01*
X19269534Y79056640D01*
X19150047Y78964953D01*
X19058360Y78845466D01*
X19000724Y78706320D01*
X18981066Y78556999D01*
X11520336Y78556999D01*
X11429886Y78613004D01*
X11331079Y78651282D01*
X11232274Y78689559D01*
X11023961Y78728499D01*
X10812039Y78728499D01*
X10603725Y78689559D01*
X10603726Y78689559D01*
X10406113Y78613004D01*
X10225936Y78501442D01*
X10069321Y78358669D01*
X9941612Y78189556D01*
X9847148Y77999846D01*
X9789154Y77796016D01*
X9769600Y77585000D01*
X9066399Y77585000D01*
X9046845Y77796017D01*
X8994480Y77980063D01*
X8988851Y77999846D01*
X8988850Y77999849D01*
X8894389Y78189553D01*
X8829074Y78276043D01*
X8766678Y78358669D01*
X8766677Y78358670D01*
X8610065Y78501441D01*
X8520336Y78556999D01*
X8429886Y78613004D01*
X8331079Y78651282D01*
X8232274Y78689559D01*
X8023961Y78728499D01*
X7812039Y78728499D01*
X7603725Y78689559D01*
X7603726Y78689559D01*
X7406113Y78613004D01*
X7225936Y78501442D01*
X7069321Y78358669D01*
X6941612Y78189556D01*
X6847148Y77999846D01*
X6789154Y77796016D01*
X6769600Y77585000D01*
X508500Y77585000D01*
X508500Y80080999D01*
X38158066Y80080999D01*
X38177724Y79931677D01*
X38235360Y79792531D01*
X38235361Y79792530D01*
X38327047Y79673043D01*
X38446533Y79581358D01*
X38446534Y79581357D01*
X38585680Y79523721D01*
X38709496Y79507420D01*
X38735001Y79497502D01*
X38760506Y79507420D01*
X38884324Y79523721D01*
X39023470Y79581357D01*
X39142957Y79673043D01*
X39234643Y79792530D01*
X39292279Y79931676D01*
X39311938Y80080998D01*
X39292279Y80230320D01*
X39234643Y80369466D01*
X39142957Y80488953D01*
X39023470Y80580639D01*
X39023469Y80580640D01*
X38884323Y80638276D01*
X38735002Y80657934D01*
X38585680Y80638276D01*
X38446534Y80580640D01*
X38327047Y80488953D01*
X38235360Y80369466D01*
X38177724Y80230320D01*
X38158066Y80080999D01*
X508500Y80080999D01*
X508500Y82875998D01*
X525381Y82938998D01*
X571500Y82985117D01*
X634500Y83001998D01*
X149365500Y83001998D01*
X149428500Y82985117D01*
G37*
G04 #@! TD.AperFunction*
M02*
