M48
; DRILL file {KiCad 7.0.1} date Thu Feb 29 06:25:06 2024
; FORMAT={-:-/ absolute / metric / decimal}
; #@! TF.CreationDate,2024-02-29T06:25:06-08:00
; #@! TF.GenerationSoftware,Kicad,Pcbnew,7.0.1
; #@! TF.FileFunction,Plated,1,6,PTH
FMAT,2
METRIC
; #@! TA.AperFunction,Plated,PTH,ViaDrill
T1C0.305
; #@! TA.AperFunction,Plated,PTH,ComponentDrill
T2C0.889
; #@! TA.AperFunction,Plated,PTH,ComponentDrill
T3C1.016
; #@! TA.AperFunction,Plated,PTH,ComponentDrill
T4C2.413
%
G90
G05
T1
X2.879Y34.058
X2.879Y30.458
X15.494Y43.441
X16.002Y6.612
X16.637Y24.399
X19.304Y29.04
X19.304Y27.49
X19.304Y38.369
X22.339Y22.55
X22.352Y15.438
X23.889Y21.661
X23.889Y14.549
X23.889Y23.439
X23.889Y16.327
X25.019Y32.391
X27.496Y7.564
X28.131Y69.286
X28.321Y12.898
X28.321Y11.361
X29.096Y8.453
X29.337Y30.183
X29.337Y28.633
X29.845Y69.286
X30.734Y59.888
X31.242Y37.473
X32.385Y7.564
X32.448Y9.342
X32.512Y21.407
X32.512Y19.629
X33.02Y42.425
X33.401Y20.518
X34.29Y21.407
X34.29Y19.629
X34.417Y30.183
X34.417Y28.633
X34.57Y51.562
X34.798Y37.473
X35.56Y50.109
X35.56Y13.419
X35.56Y11.869
X38.989Y65.73
X39.497Y64.968
X39.688Y39.187
X39.688Y37.409
X39.688Y35.631
X40.005Y65.73
X41.338Y30.17
X41.897Y17.724
X41.897Y14.168
X41.897Y19.502
X42.037Y70.436
X43.434Y18.613
X43.447Y14.168
X44.069Y70.436
X48.006Y70.436
X49.403Y70.436
X50.475Y21.026
X50.673Y70.436
X52.07Y70.436
X53.284Y57.357
X53.327Y44.902
X53.327Y46.68
X53.34Y70.436
X54.61Y70.436
X54.864Y13.025
X54.864Y10.485
X55.88Y80.97
X56.007Y70.436
X56.332Y55.706
X56.332Y53.547
X56.332Y52.588
X57.404Y70.436
X58.674Y70.436
X59.634Y58.552
X59.634Y51.134
X59.944Y70.436
X61.214Y19.375
X61.214Y17.597
X61.214Y15.819
X61.341Y70.429
X62.103Y18.486
X62.103Y16.708
X62.23Y26.741
X62.738Y70.436
X62.992Y19.375
X62.992Y17.597
X62.992Y15.819
X62.992Y13.012
X65.405Y22.931
X67.437Y8.199
X67.437Y5.659
X67.441Y6.929
X69.215Y50.363
X69.215Y49.22
X69.215Y48.077
X69.215Y46.934
X69.215Y45.791
X69.215Y44.521
X69.215Y43.378
X69.215Y42.235
X69.215Y41.092
X69.215Y39.949
X70.358Y50.363
X70.358Y49.22
X70.358Y48.077
X70.358Y46.934
X70.358Y45.791
X70.358Y44.521
X70.358Y43.378
X70.358Y42.235
X70.358Y41.092
X70.358Y39.949
X70.358Y13.787
X70.358Y12.009
X70.358Y10.358
X70.485Y53.411
X71.501Y50.363
X71.501Y49.22
X71.501Y48.077
X71.501Y46.934
X71.501Y45.791
X72.009Y13.787
X72.009Y12.009
X72.009Y10.358
X72.517Y40.965
X72.539Y43.503
X72.644Y50.363
X72.644Y49.22
X72.644Y48.077
X72.644Y46.934
X72.644Y45.791
X73.533Y40.965
X73.66Y13.787
X73.66Y12.009
X73.66Y10.358
X73.787Y50.363
X73.787Y49.22
X74.549Y40.965
X74.93Y50.363
X74.93Y49.22
X75.057Y17.724
X75.057Y15.946
X75.946Y16.835
X76.073Y50.363
X76.073Y49.22
X76.581Y67.381
X76.835Y17.724
X76.835Y15.946
X77.089Y66.619
X77.216Y50.363
X77.216Y49.22
X77.47Y37.917
X77.47Y24.074
X77.597Y67.381
X77.978Y16.835
X78.74Y17.724
X78.74Y15.946
X89.3Y9.5
X89.3Y7.2
X89.718Y8.326
X90.1Y9.5
X90.1Y7.2
X91.186Y48.966
X91.199Y49.855
X91.199Y48.077
X92.661Y45.918
X92.661Y43.251
X92.661Y40.584
X92.661Y37.917
X92.661Y35.377
X92.71Y44.648
X92.71Y41.981
X92.71Y39.314
X92.71Y36.647
X102.743Y32.075
X102.997Y33.726
X104.14Y36.139
X104.254Y31.313
X105.804Y30.424
X105.918Y53.424
X107.315Y43.886
X107.455Y53.411
X107.696Y32.075
X107.937Y36.139
X107.95Y39.695
X108.649Y70.048
X108.649Y75.382
X109.474Y36.139
X109.601Y32.329
X110.363Y42.629
X110.363Y41.027
X111.62Y36.139
X112.141Y44.648
X112.268Y52.014
X112.649Y76.398
X113.157Y36.139
X113.411Y32.329
X113.856Y45.854
X114.554Y33.726
X115.1Y9.5
X115.1Y7.2
X115.443Y46.292
X115.471Y71.699
X115.518Y8.326
X115.697Y42.616
X115.9Y9.5
X115.9Y7.2
X115.951Y54.554
X116.332Y44.902
X116.967Y76.271
X116.967Y33.726
X117.021Y71.699
X117.234Y42.616
X117.282Y46.68
X117.983Y53.03
X118.364Y39.695
X119.38Y39.568
X119.38Y31.059
X120.142Y37.536
X120.536Y45.156
X123.0Y47.315
X123.317Y67.635
X124.963Y58.552
X124.968Y56.586
X126.111Y64.206
X127.0Y58.427
X127.648Y64.206
X128.143Y37.028
X129.146Y53.157
X129.667Y37.028
X130.683Y44.648
X130.81Y37.028
X130.874Y55.633
X131.572Y53.157
X132.08Y37.028
X132.271Y62.555
X132.398Y56.713
X132.461Y71.191
X133.096Y37.028
X133.772Y49.784
X134.112Y37.028
X135.001Y58.745
X135.128Y37.028
X135.509Y74.112
X135.572Y67.889
X137.175Y61.666
X138.811Y67.381
X138.811Y65.984
X139.446Y66.746
X140.081Y67.381
X140.081Y65.984
X140.335Y78.176
X140.335Y77.287
X140.335Y76.398
X143.015Y78.176
X143.015Y76.398
X143.015Y66.873
X146.05Y72.969
X146.05Y70.175
X146.558Y71.445
X147.066Y72.969
X147.066Y70.175
T2
X6.614Y56.392
X6.614Y53.892
X6.614Y41.1
X6.614Y38.6
X6.614Y25.808
X6.614Y23.308
T3
X7.918Y77.585
X7.918Y74.585
X7.918Y71.585
X7.918Y68.585
X10.918Y77.585
X10.918Y74.585
X10.918Y71.585
X10.918Y68.585
X96.266Y20.402
X96.266Y15.402
X108.966Y20.402
X108.966Y15.402
X127.381Y20.275
X127.381Y15.275
X138.037Y35.861
X138.037Y32.861
X139.7Y20.275
X139.7Y15.275
X141.037Y35.861
X141.037Y32.861
T4
X3.6Y79.74
X3.6Y66.43
T0
M30
