G04 #@! TF.GenerationSoftware,KiCad,Pcbnew,7.0.1*
G04 #@! TF.CreationDate,2024-01-14T13:20:50-08:00*
G04 #@! TF.ProjectId,POWERCORE-V2.0_MOTHERBOARD,504f5745-5243-44f5-9245-2d56322e305f,rev?*
G04 #@! TF.SameCoordinates,PX791ddbePYb90347e*
G04 #@! TF.FileFunction,Soldermask,Top*
G04 #@! TF.FilePolarity,Negative*
%FSLAX46Y46*%
G04 Gerber Fmt 4.6, Leading zero omitted, Abs format (unit mm)*
G04 Created by KiCad (PCBNEW 7.0.1) date 2024-01-14 13:20:50*
%MOMM*%
%LPD*%
G01*
G04 APERTURE LIST*
G04 Aperture macros list*
%AMRoundRect*
0 Rectangle with rounded corners*
0 $1 Rounding radius*
0 $2 $3 $4 $5 $6 $7 $8 $9 X,Y pos of 4 corners*
0 Add a 4 corners polygon primitive as box body*
4,1,4,$2,$3,$4,$5,$6,$7,$8,$9,$2,$3,0*
0 Add four circle primitives for the rounded corners*
1,1,$1+$1,$2,$3*
1,1,$1+$1,$4,$5*
1,1,$1+$1,$6,$7*
1,1,$1+$1,$8,$9*
0 Add four rect primitives between the rounded corners*
20,1,$1+$1,$2,$3,$4,$5,0*
20,1,$1+$1,$4,$5,$6,$7,0*
20,1,$1+$1,$6,$7,$8,$9,0*
20,1,$1+$1,$8,$9,$2,$3,0*%
G04 Aperture macros list end*
%ADD10RoundRect,0.050800X-2.665000X-2.795000X2.665000X-2.795000X2.665000X2.795000X-2.665000X2.795000X0*%
%ADD11RoundRect,0.050800X-3.175000X-2.640000X3.175000X-2.640000X3.175000X2.640000X-3.175000X2.640000X0*%
%ADD12C,1.879600*%
%ADD13C,3.276600*%
%ADD14RoundRect,0.050800X0.950000X2.550000X-0.950000X2.550000X-0.950000X-2.550000X0.950000X-2.550000X0*%
%ADD15RoundRect,0.275800X-0.250000X0.225000X-0.250000X-0.225000X0.250000X-0.225000X0.250000X0.225000X0*%
%ADD16RoundRect,0.275800X0.225000X0.250000X-0.225000X0.250000X-0.225000X-0.250000X0.225000X-0.250000X0*%
%ADD17C,2.000000*%
%ADD18C,1.752600*%
%ADD19RoundRect,0.275800X0.250000X-0.225000X0.250000X0.225000X-0.250000X0.225000X-0.250000X-0.225000X0*%
%ADD20RoundRect,0.275800X-0.225000X-0.250000X0.225000X-0.250000X0.225000X0.250000X-0.225000X0.250000X0*%
%ADD21RoundRect,0.300800X0.312500X0.625000X-0.312500X0.625000X-0.312500X-0.625000X0.312500X-0.625000X0*%
%ADD22RoundRect,0.300800X0.650000X-0.325000X0.650000X0.325000X-0.650000X0.325000X-0.650000X-0.325000X0*%
%ADD23RoundRect,0.050800X-0.450000X0.170000X-0.450000X-0.170000X0.450000X-0.170000X0.450000X0.170000X0*%
%ADD24RoundRect,0.250800X0.200000X0.275000X-0.200000X0.275000X-0.200000X-0.275000X0.200000X-0.275000X0*%
%ADD25RoundRect,0.250800X-0.275000X0.200000X-0.275000X-0.200000X0.275000X-0.200000X0.275000X0.200000X0*%
%ADD26RoundRect,0.250800X0.275000X-0.200000X0.275000X0.200000X-0.275000X0.200000X-0.275000X-0.200000X0*%
%ADD27C,2.201600*%
%ADD28RoundRect,0.050800X0.700000X0.635000X-0.700000X0.635000X-0.700000X-0.635000X0.700000X-0.635000X0*%
%ADD29RoundRect,0.050800X2.400000X2.360000X-2.400000X2.360000X-2.400000X-2.360000X2.400000X-2.360000X0*%
%ADD30RoundRect,0.200800X0.150000X-0.512500X0.150000X0.512500X-0.150000X0.512500X-0.150000X-0.512500X0*%
%ADD31RoundRect,0.300800X-0.325000X-0.650000X0.325000X-0.650000X0.325000X0.650000X-0.325000X0.650000X0*%
%ADD32RoundRect,0.050800X-0.310000X0.350000X-0.310000X-0.350000X0.310000X-0.350000X0.310000X0.350000X0*%
%ADD33RoundRect,0.050800X-1.270000X1.333500X-1.270000X-1.333500X1.270000X-1.333500X1.270000X1.333500X0*%
%ADD34RoundRect,0.050800X-0.635000X0.381000X-0.635000X-0.381000X0.635000X-0.381000X0.635000X0.381000X0*%
%ADD35RoundRect,0.125800X-0.075000X0.650000X-0.075000X-0.650000X0.075000X-0.650000X0.075000X0.650000X0*%
%ADD36RoundRect,0.050800X-1.000000X1.000000X-1.000000X-1.000000X1.000000X-1.000000X1.000000X1.000000X0*%
%ADD37C,2.101600*%
%ADD38RoundRect,0.050800X2.000000X-1.050000X2.000000X1.050000X-2.000000X1.050000X-2.000000X-1.050000X0*%
%ADD39RoundRect,0.300800X0.325000X0.650000X-0.325000X0.650000X-0.325000X-0.650000X0.325000X-0.650000X0*%
%ADD40RoundRect,0.300800X0.375000X1.075000X-0.375000X1.075000X-0.375000X-1.075000X0.375000X-1.075000X0*%
%ADD41RoundRect,0.250800X-0.200000X-0.275000X0.200000X-0.275000X0.200000X0.275000X-0.200000X0.275000X0*%
%ADD42RoundRect,0.300800X0.850000X0.350000X-0.850000X0.350000X-0.850000X-0.350000X0.850000X-0.350000X0*%
%ADD43RoundRect,0.300797X2.950003X2.650003X-2.950003X2.650003X-2.950003X-2.650003X2.950003X-2.650003X0*%
%ADD44RoundRect,0.050800X-0.800000X-1.600000X0.800000X-1.600000X0.800000X1.600000X-0.800000X1.600000X0*%
%ADD45RoundRect,0.300800X0.625000X-0.312500X0.625000X0.312500X-0.625000X0.312500X-0.625000X-0.312500X0*%
%ADD46RoundRect,0.050800X0.800000X1.600000X-0.800000X1.600000X-0.800000X-1.600000X0.800000X-1.600000X0*%
%ADD47RoundRect,0.050800X1.270000X-1.333500X1.270000X1.333500X-1.270000X1.333500X-1.270000X-1.333500X0*%
%ADD48RoundRect,0.050800X0.635000X-0.381000X0.635000X0.381000X-0.635000X0.381000X-0.635000X-0.381000X0*%
%ADD49RoundRect,0.050800X0.450000X-0.170000X0.450000X0.170000X-0.450000X0.170000X-0.450000X-0.170000X0*%
%ADD50RoundRect,0.050000X1.650000X-1.305000X1.650000X1.305000X-1.650000X1.305000X-1.650000X-1.305000X0*%
%ADD51RoundRect,0.120000X0.250000X-0.725000X0.250000X0.725000X-0.250000X0.725000X-0.250000X-0.725000X0*%
%ADD52RoundRect,0.050800X0.635000X-0.700000X0.635000X0.700000X-0.635000X0.700000X-0.635000X-0.700000X0*%
%ADD53RoundRect,0.050800X2.360000X-2.400000X2.360000X2.400000X-2.360000X2.400000X-2.360000X-2.400000X0*%
%ADD54RoundRect,0.050800X-2.000000X1.050000X-2.000000X-1.050000X2.000000X-1.050000X2.000000X1.050000X0*%
%ADD55C,3.101600*%
%ADD56RoundRect,0.300800X0.350000X-0.850000X0.350000X0.850000X-0.350000X0.850000X-0.350000X-0.850000X0*%
%ADD57RoundRect,0.300797X2.650003X-2.950003X2.650003X2.950003X-2.650003X2.950003X-2.650003X-2.950003X0*%
%ADD58RoundRect,0.050800X-1.333500X-1.270000X1.333500X-1.270000X1.333500X1.270000X-1.333500X1.270000X0*%
%ADD59RoundRect,0.050800X-0.381000X-0.635000X0.381000X-0.635000X0.381000X0.635000X-0.381000X0.635000X0*%
%ADD60RoundRect,0.050800X1.000000X0.550000X-1.000000X0.550000X-1.000000X-0.550000X1.000000X-0.550000X0*%
%ADD61RoundRect,0.050800X0.400000X0.400000X-0.400000X0.400000X-0.400000X-0.400000X0.400000X-0.400000X0*%
%ADD62C,0.751600*%
G04 APERTURE END LIST*
G36*
X77973000Y54993000D02*
G01*
X77323000Y54993000D01*
X77323000Y54653000D01*
X77973000Y54653000D01*
X77973000Y54993000D01*
G37*
G36*
X77323000Y54993000D02*
G01*
X75613000Y54993000D01*
X75613000Y52703000D01*
X77323000Y52703000D01*
X77323000Y54993000D01*
G37*
G36*
X75073000Y54993000D02*
G01*
X74623000Y54993000D01*
X74623000Y53353000D01*
X75073000Y53353000D01*
X75073000Y54993000D01*
G37*
G36*
X74623000Y54993000D02*
G01*
X74173000Y54993000D01*
X74173000Y54653000D01*
X74623000Y54653000D01*
X74623000Y54993000D01*
G37*
G36*
X77973000Y54343000D02*
G01*
X77323000Y54343000D01*
X77323000Y54003000D01*
X77973000Y54003000D01*
X77973000Y54343000D01*
G37*
G36*
X74623000Y54343000D02*
G01*
X74173000Y54343000D01*
X74173000Y54003000D01*
X74623000Y54003000D01*
X74623000Y54343000D01*
G37*
G36*
X74623000Y53693000D02*
G01*
X74173000Y53693000D01*
X74173000Y53353000D01*
X74623000Y53353000D01*
X74623000Y53693000D01*
G37*
G36*
X77973000Y53353000D02*
G01*
X77323000Y53353000D01*
X77323000Y53693000D01*
X77973000Y53693000D01*
X77973000Y53353000D01*
G37*
G36*
X77973000Y53043000D02*
G01*
X77323000Y53043000D01*
X77323000Y52703000D01*
X77973000Y52703000D01*
X77973000Y53043000D01*
G37*
G36*
X74173000Y56554000D02*
G01*
X74823000Y56554000D01*
X74823000Y56894000D01*
X74173000Y56894000D01*
X74173000Y56554000D01*
G37*
G36*
X74823000Y56554000D02*
G01*
X76533000Y56554000D01*
X76533000Y58844000D01*
X74823000Y58844000D01*
X74823000Y56554000D01*
G37*
G36*
X77073000Y56554000D02*
G01*
X77523000Y56554000D01*
X77523000Y58194000D01*
X77073000Y58194000D01*
X77073000Y56554000D01*
G37*
G36*
X77523000Y56554000D02*
G01*
X77973000Y56554000D01*
X77973000Y56894000D01*
X77523000Y56894000D01*
X77523000Y56554000D01*
G37*
G36*
X74173000Y57204000D02*
G01*
X74823000Y57204000D01*
X74823000Y57544000D01*
X74173000Y57544000D01*
X74173000Y57204000D01*
G37*
G36*
X77523000Y57204000D02*
G01*
X77973000Y57204000D01*
X77973000Y57544000D01*
X77523000Y57544000D01*
X77523000Y57204000D01*
G37*
G36*
X77523000Y57854000D02*
G01*
X77973000Y57854000D01*
X77973000Y58194000D01*
X77523000Y58194000D01*
X77523000Y57854000D01*
G37*
G36*
X74173000Y58194000D02*
G01*
X74823000Y58194000D01*
X74823000Y57854000D01*
X74173000Y57854000D01*
X74173000Y58194000D01*
G37*
G36*
X74173000Y58504000D02*
G01*
X74823000Y58504000D01*
X74823000Y58844000D01*
X74173000Y58844000D01*
X74173000Y58504000D01*
G37*
D10*
X60076000Y56130000D03*
X70226000Y56130000D03*
D11*
X65151000Y78205000D03*
D12*
X7918000Y68584999D03*
X7918000Y71584999D03*
X7918000Y74584999D03*
X7918000Y77584999D03*
X10918000Y68584999D03*
X10918000Y71584999D03*
X10918000Y74584999D03*
X10918000Y77584999D03*
D13*
X3600000Y66430199D03*
X3600000Y79739799D03*
D14*
X71950000Y21176000D03*
X67750000Y21176000D03*
D15*
X56016000Y37986000D03*
X56016000Y36436000D03*
D16*
X68593000Y25748000D03*
X67043000Y25748000D03*
D17*
X47498002Y80842998D03*
D18*
X6614322Y41100000D03*
X6614322Y38600000D03*
D16*
X74562000Y43688000D03*
X73012000Y43688000D03*
D19*
X135128002Y33585998D03*
X135128002Y35135998D03*
D20*
X46224000Y43624500D03*
X47774000Y43624500D03*
D21*
X75884500Y49530000D03*
X72959500Y49530000D03*
D22*
X94107000Y54151000D03*
X94107000Y57101000D03*
D23*
X74623000Y52873000D03*
D20*
X18923000Y46355000D03*
X20473000Y46355000D03*
D24*
X80454002Y21914998D03*
X78804002Y21914998D03*
D20*
X45716000Y37274500D03*
X47266000Y37274500D03*
D25*
X72898000Y47053000D03*
X72898000Y45403000D03*
D26*
X49276002Y53093998D03*
X49276002Y54743998D03*
D22*
X128143002Y32885998D03*
X128143002Y35835998D03*
D26*
X76708000Y36894000D03*
X76708000Y38544000D03*
D27*
X75000002Y2102998D03*
D28*
X21868000Y71545000D03*
X19788000Y71545000D03*
D29*
X20828000Y75350000D03*
D25*
X54238000Y38036000D03*
X54238000Y36386000D03*
D17*
X21082002Y7182998D03*
D22*
X83312000Y54151000D03*
X83312000Y57101000D03*
X86106000Y54151000D03*
X86106000Y57101000D03*
D30*
X46049000Y39312000D03*
X46999000Y39312000D03*
X47949000Y39312000D03*
X47949000Y41587000D03*
X46999000Y41587000D03*
X46049000Y41587000D03*
D15*
X57921000Y37986000D03*
X57921000Y36436000D03*
D31*
X40181000Y80010000D03*
X43131000Y80010000D03*
D19*
X80137000Y43929000D03*
X80137000Y45479000D03*
D22*
X130810002Y32885998D03*
X130810002Y35835998D03*
D24*
X80454000Y25343998D03*
X78804000Y25343998D03*
D32*
X52013000Y38461000D03*
X51063000Y38461000D03*
X50113000Y38461000D03*
X50113000Y35961000D03*
X51063000Y35961000D03*
X52013000Y35961000D03*
D18*
X6614322Y56392060D03*
X6614322Y53892060D03*
D20*
X40881000Y67056000D03*
X42431000Y67056000D03*
D16*
X72149000Y51816000D03*
X70599000Y51816000D03*
D19*
X78359000Y43929000D03*
X78359000Y45479000D03*
D33*
X58810000Y42481500D03*
D34*
X58810000Y40132000D03*
D35*
X74850500Y41316000D03*
X74350500Y41316000D03*
X73850500Y41316000D03*
X73350500Y41316000D03*
X72850500Y41316000D03*
X72850500Y36916000D03*
X73350500Y36916000D03*
X73850500Y36916000D03*
X74350500Y36916000D03*
X74850500Y36916000D03*
D36*
X127381000Y20274677D03*
D37*
X127381000Y15274677D03*
D20*
X68059000Y16477000D03*
X69609000Y16477000D03*
D38*
X53340000Y51580998D03*
X53340000Y57780998D03*
D25*
X46990000Y50990000D03*
X46990000Y49340000D03*
D27*
X10000002Y84999998D03*
D20*
X40881000Y65278000D03*
X42431000Y65278000D03*
D31*
X40181000Y77343000D03*
X43131000Y77343000D03*
D39*
X76659000Y6858000D03*
X73709000Y6858000D03*
D26*
X80899000Y14231998D03*
X80899000Y15881998D03*
D19*
X133096002Y33585998D03*
X133096002Y35135998D03*
D40*
X119891000Y20193000D03*
X117091000Y20193000D03*
D41*
X24067002Y53283998D03*
X25717002Y53283998D03*
D42*
X46999000Y53289998D03*
D43*
X40699000Y55569998D03*
D42*
X46999000Y57849998D03*
D44*
X109018002Y8325998D03*
X115518002Y8325998D03*
D45*
X65405002Y48773498D03*
X65405002Y51698498D03*
D19*
X81026000Y54216000D03*
X81026000Y55766000D03*
D46*
X96214002Y8325998D03*
X89714002Y8325998D03*
D15*
X79248000Y59068000D03*
X79248000Y57518000D03*
D41*
X18860002Y54680998D03*
X20510002Y54680998D03*
D47*
X47879000Y61277500D03*
D48*
X47879000Y63627000D03*
D26*
X74676000Y45403000D03*
X74676000Y47053000D03*
D16*
X75959002Y21914998D03*
X74409002Y21914998D03*
D25*
X80264002Y64522998D03*
X80264002Y62872998D03*
D16*
X75959000Y27526000D03*
X74409000Y27526000D03*
D49*
X77523000Y58674000D03*
D16*
X75959000Y11811000D03*
X74409000Y11811000D03*
D22*
X88773000Y54151000D03*
X88773000Y57101000D03*
D27*
X140000002Y84999998D03*
D18*
X6614322Y25808000D03*
X6614322Y23308000D03*
D36*
X96266000Y20401677D03*
D37*
X96266000Y15401677D03*
D24*
X72707000Y25748000D03*
X71057000Y25748000D03*
D50*
X76835000Y16858000D03*
D51*
X74930000Y14158000D03*
X76200000Y14158000D03*
X77470000Y14158000D03*
X78740000Y14158000D03*
X78740000Y19558000D03*
X77470000Y19558000D03*
X76200000Y19558000D03*
X74930000Y19558000D03*
D31*
X40181000Y74676000D03*
X43131000Y74676000D03*
D24*
X20510002Y53029998D03*
X18860002Y53029998D03*
D19*
X79248000Y54216000D03*
X79248000Y55766000D03*
D31*
X40181000Y72009000D03*
X43131000Y72009000D03*
D52*
X36112002Y47671998D03*
X36112002Y49751998D03*
D53*
X39917002Y48711998D03*
D15*
X68834002Y51772998D03*
X68834002Y50222998D03*
D54*
X29337000Y57272998D03*
X29337000Y51072998D03*
D30*
X19624000Y48590498D03*
X20574000Y48590498D03*
X21524000Y48590498D03*
X21524000Y50865498D03*
X20574000Y50865498D03*
X19624000Y50865498D03*
D31*
X67359000Y14191000D03*
X70309000Y14191000D03*
D36*
X108966000Y20401677D03*
D37*
X108966000Y15401677D03*
D17*
X144399002Y47949998D03*
D55*
X145355252Y34360998D03*
D12*
X141037252Y35860998D03*
X141037252Y32860998D03*
X138037252Y35860998D03*
X138037252Y32860998D03*
D56*
X18802002Y57465998D03*
D57*
X21082002Y63765998D03*
D56*
X23362002Y57465998D03*
D33*
X55127000Y42481500D03*
D34*
X55127000Y40132000D03*
D58*
X79184500Y41148000D03*
D59*
X81534000Y41148000D03*
D36*
X139700000Y20274677D03*
D37*
X139700000Y15274677D03*
D41*
X78804000Y23565998D03*
X80454000Y23565998D03*
D15*
X59699000Y37986000D03*
X59699000Y36436000D03*
D60*
X51816000Y34036000D03*
D61*
X49916000Y34036000D03*
D39*
X76659000Y9525000D03*
X73709000Y9525000D03*
D25*
X78486000Y38544000D03*
X78486000Y36894000D03*
D22*
X91440000Y54151000D03*
X91440000Y57101000D03*
D26*
X70993000Y36894000D03*
X70993000Y38544000D03*
D31*
X40181000Y69342000D03*
X43131000Y69342000D03*
D62*
X5280000Y8375000D03*
X5280000Y14155000D03*
G36*
X43648196Y52620280D02*
G01*
X43648332Y52618367D01*
X43646796Y52617219D01*
X43646789Y52617218D01*
X43646506Y52617198D01*
X37751494Y52617198D01*
X37750080Y52617784D01*
X37750079Y52617785D01*
X37749493Y52619199D01*
X37750079Y52620613D01*
X37751493Y52621199D01*
X43646513Y52621199D01*
X43648196Y52620280D01*
G37*
G36*
X43951784Y58217760D02*
G01*
X43951785Y58217752D01*
X43951800Y58217504D01*
X43951800Y55558849D01*
X43950800Y55557117D01*
X43948800Y55557117D01*
X43947800Y55558849D01*
X43947799Y58217512D01*
X43948728Y58219201D01*
X43950652Y58219321D01*
X43951784Y58217760D01*
G37*
G36*
X23731198Y60516280D02*
G01*
X23731334Y60514367D01*
X23729798Y60513219D01*
X23729791Y60513218D01*
X23729508Y60513198D01*
X18434496Y60513198D01*
X18433082Y60513784D01*
X18433081Y60513785D01*
X18432495Y60515199D01*
X18433081Y60516613D01*
X18434495Y60517199D01*
X23729515Y60517199D01*
X23731198Y60516280D01*
G37*
G36*
X24034786Y66713760D02*
G01*
X24034787Y66713752D01*
X24034802Y66713504D01*
X24034802Y63323798D01*
X24033802Y63322066D01*
X24031802Y63322066D01*
X24030802Y63323798D01*
X24030801Y66713512D01*
X24031730Y66715201D01*
X24033654Y66715321D01*
X24034786Y66713760D01*
G37*
M02*
