G04 #@! TF.GenerationSoftware,KiCad,Pcbnew,7.0.1*
G04 #@! TF.CreationDate,2024-01-10T19:04:54-08:00*
G04 #@! TF.ProjectId,POWERCORE-V2.0_MOTHERBOARD,504f5745-5243-44f5-9245-2d56322e305f,rev?*
G04 #@! TF.SameCoordinates,PX791ddbePYb90347e*
G04 #@! TF.FileFunction,Profile,NP*
%FSLAX46Y46*%
G04 Gerber Fmt 4.6, Leading zero omitted, Abs format (unit mm)*
G04 Created by KiCad (PCBNEW 7.0.1) date 2024-01-10 19:04:54*
%MOMM*%
%LPD*%
G01*
G04 APERTURE LIST*
%ADD10C,0.100000*%
%ADD11C,0.150000*%
%ADD12C,0.300000*%
%ADD13C,0.400000*%
G04 #@! TA.AperFunction,Profile*
%ADD14C,0.200000*%
G04 #@! TD*
G04 APERTURE END LIST*
D10*
D11*
X172989002Y-59002202D02*
X280989002Y-59002202D01*
X280989002Y-91002202D01*
X172989002Y-91002202D01*
X172989002Y-59002202D01*
D10*
D11*
X-116999998Y183999998D02*
X282989002Y183999998D01*
X282989002Y-93002202D01*
X-116999998Y-93002202D01*
X-116999998Y183999998D01*
D10*
D11*
X-114999998Y181999998D02*
X280989002Y181999998D01*
X280989002Y-91002202D01*
X-114999998Y-91002202D01*
X-114999998Y181999998D01*
D10*
D11*
X-66999998Y181999998D02*
X-66999998Y183999998D01*
D10*
D11*
X-16999998Y181999998D02*
X-16999998Y183999998D01*
D10*
D11*
X33000002Y181999998D02*
X33000002Y183999998D01*
D10*
D11*
X83000002Y181999998D02*
X83000002Y183999998D01*
D10*
D11*
X133000002Y181999998D02*
X133000002Y183999998D01*
D10*
D11*
X183000002Y181999998D02*
X183000002Y183999998D01*
D10*
D11*
X233000002Y181999998D02*
X233000002Y183999998D01*
D10*
D11*
X-91009522Y182398594D02*
X-91752379Y182398594D01*
X-91380951Y182398594D02*
X-91380951Y183698594D01*
X-91380951Y183698594D02*
X-91504760Y183512879D01*
X-91504760Y183512879D02*
X-91628570Y183389070D01*
X-91628570Y183389070D02*
X-91752379Y183327165D01*
D10*
D11*
X-41752379Y183574784D02*
X-41690475Y183636689D01*
X-41690475Y183636689D02*
X-41566665Y183698594D01*
X-41566665Y183698594D02*
X-41257141Y183698594D01*
X-41257141Y183698594D02*
X-41133332Y183636689D01*
X-41133332Y183636689D02*
X-41071427Y183574784D01*
X-41071427Y183574784D02*
X-41009522Y183450975D01*
X-41009522Y183450975D02*
X-41009522Y183327165D01*
X-41009522Y183327165D02*
X-41071427Y183141451D01*
X-41071427Y183141451D02*
X-41814284Y182398594D01*
X-41814284Y182398594D02*
X-41009522Y182398594D01*
D10*
D11*
X8185716Y183698594D02*
X8990478Y183698594D01*
X8990478Y183698594D02*
X8557144Y183203356D01*
X8557144Y183203356D02*
X8742859Y183203356D01*
X8742859Y183203356D02*
X8866668Y183141451D01*
X8866668Y183141451D02*
X8928573Y183079546D01*
X8928573Y183079546D02*
X8990478Y182955737D01*
X8990478Y182955737D02*
X8990478Y182646213D01*
X8990478Y182646213D02*
X8928573Y182522403D01*
X8928573Y182522403D02*
X8866668Y182460498D01*
X8866668Y182460498D02*
X8742859Y182398594D01*
X8742859Y182398594D02*
X8371430Y182398594D01*
X8371430Y182398594D02*
X8247621Y182460498D01*
X8247621Y182460498D02*
X8185716Y182522403D01*
D10*
D11*
X58866668Y183265260D02*
X58866668Y182398594D01*
X58557144Y183760498D02*
X58247621Y182831927D01*
X58247621Y182831927D02*
X59052382Y182831927D01*
D10*
D11*
X108928573Y183698594D02*
X108309525Y183698594D01*
X108309525Y183698594D02*
X108247621Y183079546D01*
X108247621Y183079546D02*
X108309525Y183141451D01*
X108309525Y183141451D02*
X108433335Y183203356D01*
X108433335Y183203356D02*
X108742859Y183203356D01*
X108742859Y183203356D02*
X108866668Y183141451D01*
X108866668Y183141451D02*
X108928573Y183079546D01*
X108928573Y183079546D02*
X108990478Y182955737D01*
X108990478Y182955737D02*
X108990478Y182646213D01*
X108990478Y182646213D02*
X108928573Y182522403D01*
X108928573Y182522403D02*
X108866668Y182460498D01*
X108866668Y182460498D02*
X108742859Y182398594D01*
X108742859Y182398594D02*
X108433335Y182398594D01*
X108433335Y182398594D02*
X108309525Y182460498D01*
X108309525Y182460498D02*
X108247621Y182522403D01*
D10*
D11*
X158866668Y183698594D02*
X158619049Y183698594D01*
X158619049Y183698594D02*
X158495240Y183636689D01*
X158495240Y183636689D02*
X158433335Y183574784D01*
X158433335Y183574784D02*
X158309525Y183389070D01*
X158309525Y183389070D02*
X158247621Y183141451D01*
X158247621Y183141451D02*
X158247621Y182646213D01*
X158247621Y182646213D02*
X158309525Y182522403D01*
X158309525Y182522403D02*
X158371430Y182460498D01*
X158371430Y182460498D02*
X158495240Y182398594D01*
X158495240Y182398594D02*
X158742859Y182398594D01*
X158742859Y182398594D02*
X158866668Y182460498D01*
X158866668Y182460498D02*
X158928573Y182522403D01*
X158928573Y182522403D02*
X158990478Y182646213D01*
X158990478Y182646213D02*
X158990478Y182955737D01*
X158990478Y182955737D02*
X158928573Y183079546D01*
X158928573Y183079546D02*
X158866668Y183141451D01*
X158866668Y183141451D02*
X158742859Y183203356D01*
X158742859Y183203356D02*
X158495240Y183203356D01*
X158495240Y183203356D02*
X158371430Y183141451D01*
X158371430Y183141451D02*
X158309525Y183079546D01*
X158309525Y183079546D02*
X158247621Y182955737D01*
D10*
D11*
X208185716Y183698594D02*
X209052382Y183698594D01*
X209052382Y183698594D02*
X208495240Y182398594D01*
D10*
D11*
X258495240Y183141451D02*
X258371430Y183203356D01*
X258371430Y183203356D02*
X258309525Y183265260D01*
X258309525Y183265260D02*
X258247621Y183389070D01*
X258247621Y183389070D02*
X258247621Y183450975D01*
X258247621Y183450975D02*
X258309525Y183574784D01*
X258309525Y183574784D02*
X258371430Y183636689D01*
X258371430Y183636689D02*
X258495240Y183698594D01*
X258495240Y183698594D02*
X258742859Y183698594D01*
X258742859Y183698594D02*
X258866668Y183636689D01*
X258866668Y183636689D02*
X258928573Y183574784D01*
X258928573Y183574784D02*
X258990478Y183450975D01*
X258990478Y183450975D02*
X258990478Y183389070D01*
X258990478Y183389070D02*
X258928573Y183265260D01*
X258928573Y183265260D02*
X258866668Y183203356D01*
X258866668Y183203356D02*
X258742859Y183141451D01*
X258742859Y183141451D02*
X258495240Y183141451D01*
X258495240Y183141451D02*
X258371430Y183079546D01*
X258371430Y183079546D02*
X258309525Y183017641D01*
X258309525Y183017641D02*
X258247621Y182893832D01*
X258247621Y182893832D02*
X258247621Y182646213D01*
X258247621Y182646213D02*
X258309525Y182522403D01*
X258309525Y182522403D02*
X258371430Y182460498D01*
X258371430Y182460498D02*
X258495240Y182398594D01*
X258495240Y182398594D02*
X258742859Y182398594D01*
X258742859Y182398594D02*
X258866668Y182460498D01*
X258866668Y182460498D02*
X258928573Y182522403D01*
X258928573Y182522403D02*
X258990478Y182646213D01*
X258990478Y182646213D02*
X258990478Y182893832D01*
X258990478Y182893832D02*
X258928573Y183017641D01*
X258928573Y183017641D02*
X258866668Y183079546D01*
X258866668Y183079546D02*
X258742859Y183141451D01*
D10*
D11*
X-66999998Y-91002202D02*
X-66999998Y-93002202D01*
D10*
D11*
X-16999998Y-91002202D02*
X-16999998Y-93002202D01*
D10*
D11*
X33000002Y-91002202D02*
X33000002Y-93002202D01*
D10*
D11*
X83000002Y-91002202D02*
X83000002Y-93002202D01*
D10*
D11*
X133000002Y-91002202D02*
X133000002Y-93002202D01*
D10*
D11*
X183000002Y-91002202D02*
X183000002Y-93002202D01*
D10*
D11*
X233000002Y-91002202D02*
X233000002Y-93002202D01*
D10*
D11*
X-91009522Y-92603606D02*
X-91752379Y-92603606D01*
X-91380951Y-92603606D02*
X-91380951Y-91303606D01*
X-91380951Y-91303606D02*
X-91504760Y-91489321D01*
X-91504760Y-91489321D02*
X-91628570Y-91613130D01*
X-91628570Y-91613130D02*
X-91752379Y-91675035D01*
D10*
D11*
X-41752379Y-91427416D02*
X-41690475Y-91365511D01*
X-41690475Y-91365511D02*
X-41566665Y-91303606D01*
X-41566665Y-91303606D02*
X-41257141Y-91303606D01*
X-41257141Y-91303606D02*
X-41133332Y-91365511D01*
X-41133332Y-91365511D02*
X-41071427Y-91427416D01*
X-41071427Y-91427416D02*
X-41009522Y-91551225D01*
X-41009522Y-91551225D02*
X-41009522Y-91675035D01*
X-41009522Y-91675035D02*
X-41071427Y-91860749D01*
X-41071427Y-91860749D02*
X-41814284Y-92603606D01*
X-41814284Y-92603606D02*
X-41009522Y-92603606D01*
D10*
D11*
X8185716Y-91303606D02*
X8990478Y-91303606D01*
X8990478Y-91303606D02*
X8557144Y-91798844D01*
X8557144Y-91798844D02*
X8742859Y-91798844D01*
X8742859Y-91798844D02*
X8866668Y-91860749D01*
X8866668Y-91860749D02*
X8928573Y-91922654D01*
X8928573Y-91922654D02*
X8990478Y-92046463D01*
X8990478Y-92046463D02*
X8990478Y-92355987D01*
X8990478Y-92355987D02*
X8928573Y-92479797D01*
X8928573Y-92479797D02*
X8866668Y-92541702D01*
X8866668Y-92541702D02*
X8742859Y-92603606D01*
X8742859Y-92603606D02*
X8371430Y-92603606D01*
X8371430Y-92603606D02*
X8247621Y-92541702D01*
X8247621Y-92541702D02*
X8185716Y-92479797D01*
D10*
D11*
X58866668Y-91736940D02*
X58866668Y-92603606D01*
X58557144Y-91241702D02*
X58247621Y-92170273D01*
X58247621Y-92170273D02*
X59052382Y-92170273D01*
D10*
D11*
X108928573Y-91303606D02*
X108309525Y-91303606D01*
X108309525Y-91303606D02*
X108247621Y-91922654D01*
X108247621Y-91922654D02*
X108309525Y-91860749D01*
X108309525Y-91860749D02*
X108433335Y-91798844D01*
X108433335Y-91798844D02*
X108742859Y-91798844D01*
X108742859Y-91798844D02*
X108866668Y-91860749D01*
X108866668Y-91860749D02*
X108928573Y-91922654D01*
X108928573Y-91922654D02*
X108990478Y-92046463D01*
X108990478Y-92046463D02*
X108990478Y-92355987D01*
X108990478Y-92355987D02*
X108928573Y-92479797D01*
X108928573Y-92479797D02*
X108866668Y-92541702D01*
X108866668Y-92541702D02*
X108742859Y-92603606D01*
X108742859Y-92603606D02*
X108433335Y-92603606D01*
X108433335Y-92603606D02*
X108309525Y-92541702D01*
X108309525Y-92541702D02*
X108247621Y-92479797D01*
D10*
D11*
X158866668Y-91303606D02*
X158619049Y-91303606D01*
X158619049Y-91303606D02*
X158495240Y-91365511D01*
X158495240Y-91365511D02*
X158433335Y-91427416D01*
X158433335Y-91427416D02*
X158309525Y-91613130D01*
X158309525Y-91613130D02*
X158247621Y-91860749D01*
X158247621Y-91860749D02*
X158247621Y-92355987D01*
X158247621Y-92355987D02*
X158309525Y-92479797D01*
X158309525Y-92479797D02*
X158371430Y-92541702D01*
X158371430Y-92541702D02*
X158495240Y-92603606D01*
X158495240Y-92603606D02*
X158742859Y-92603606D01*
X158742859Y-92603606D02*
X158866668Y-92541702D01*
X158866668Y-92541702D02*
X158928573Y-92479797D01*
X158928573Y-92479797D02*
X158990478Y-92355987D01*
X158990478Y-92355987D02*
X158990478Y-92046463D01*
X158990478Y-92046463D02*
X158928573Y-91922654D01*
X158928573Y-91922654D02*
X158866668Y-91860749D01*
X158866668Y-91860749D02*
X158742859Y-91798844D01*
X158742859Y-91798844D02*
X158495240Y-91798844D01*
X158495240Y-91798844D02*
X158371430Y-91860749D01*
X158371430Y-91860749D02*
X158309525Y-91922654D01*
X158309525Y-91922654D02*
X158247621Y-92046463D01*
D10*
D11*
X208185716Y-91303606D02*
X209052382Y-91303606D01*
X209052382Y-91303606D02*
X208495240Y-92603606D01*
D10*
D11*
X258495240Y-91860749D02*
X258371430Y-91798844D01*
X258371430Y-91798844D02*
X258309525Y-91736940D01*
X258309525Y-91736940D02*
X258247621Y-91613130D01*
X258247621Y-91613130D02*
X258247621Y-91551225D01*
X258247621Y-91551225D02*
X258309525Y-91427416D01*
X258309525Y-91427416D02*
X258371430Y-91365511D01*
X258371430Y-91365511D02*
X258495240Y-91303606D01*
X258495240Y-91303606D02*
X258742859Y-91303606D01*
X258742859Y-91303606D02*
X258866668Y-91365511D01*
X258866668Y-91365511D02*
X258928573Y-91427416D01*
X258928573Y-91427416D02*
X258990478Y-91551225D01*
X258990478Y-91551225D02*
X258990478Y-91613130D01*
X258990478Y-91613130D02*
X258928573Y-91736940D01*
X258928573Y-91736940D02*
X258866668Y-91798844D01*
X258866668Y-91798844D02*
X258742859Y-91860749D01*
X258742859Y-91860749D02*
X258495240Y-91860749D01*
X258495240Y-91860749D02*
X258371430Y-91922654D01*
X258371430Y-91922654D02*
X258309525Y-91984559D01*
X258309525Y-91984559D02*
X258247621Y-92108368D01*
X258247621Y-92108368D02*
X258247621Y-92355987D01*
X258247621Y-92355987D02*
X258309525Y-92479797D01*
X258309525Y-92479797D02*
X258371430Y-92541702D01*
X258371430Y-92541702D02*
X258495240Y-92603606D01*
X258495240Y-92603606D02*
X258742859Y-92603606D01*
X258742859Y-92603606D02*
X258866668Y-92541702D01*
X258866668Y-92541702D02*
X258928573Y-92479797D01*
X258928573Y-92479797D02*
X258990478Y-92355987D01*
X258990478Y-92355987D02*
X258990478Y-92108368D01*
X258990478Y-92108368D02*
X258928573Y-91984559D01*
X258928573Y-91984559D02*
X258866668Y-91922654D01*
X258866668Y-91922654D02*
X258742859Y-91860749D01*
D10*
D11*
X-116999998Y133999998D02*
X-114999998Y133999998D01*
D10*
D11*
X-116999998Y83999998D02*
X-114999998Y83999998D01*
D10*
D11*
X-116999998Y33999998D02*
X-114999998Y33999998D01*
D10*
D11*
X-116999998Y-16000002D02*
X-114999998Y-16000002D01*
D10*
D11*
X-116999998Y-66000002D02*
X-114999998Y-66000002D01*
D10*
D11*
X-116309522Y158770022D02*
X-115690475Y158770022D01*
X-116433332Y158398594D02*
X-115999999Y159698594D01*
X-115999999Y159698594D02*
X-115566665Y158398594D01*
D10*
D11*
X-115907141Y109079546D02*
X-115721427Y109017641D01*
X-115721427Y109017641D02*
X-115659522Y108955737D01*
X-115659522Y108955737D02*
X-115597618Y108831927D01*
X-115597618Y108831927D02*
X-115597618Y108646213D01*
X-115597618Y108646213D02*
X-115659522Y108522403D01*
X-115659522Y108522403D02*
X-115721427Y108460498D01*
X-115721427Y108460498D02*
X-115845237Y108398594D01*
X-115845237Y108398594D02*
X-116340475Y108398594D01*
X-116340475Y108398594D02*
X-116340475Y109698594D01*
X-116340475Y109698594D02*
X-115907141Y109698594D01*
X-115907141Y109698594D02*
X-115783332Y109636689D01*
X-115783332Y109636689D02*
X-115721427Y109574784D01*
X-115721427Y109574784D02*
X-115659522Y109450975D01*
X-115659522Y109450975D02*
X-115659522Y109327165D01*
X-115659522Y109327165D02*
X-115721427Y109203356D01*
X-115721427Y109203356D02*
X-115783332Y109141451D01*
X-115783332Y109141451D02*
X-115907141Y109079546D01*
X-115907141Y109079546D02*
X-116340475Y109079546D01*
D10*
D11*
X-115597618Y58522403D02*
X-115659522Y58460498D01*
X-115659522Y58460498D02*
X-115845237Y58398594D01*
X-115845237Y58398594D02*
X-115969046Y58398594D01*
X-115969046Y58398594D02*
X-116154760Y58460498D01*
X-116154760Y58460498D02*
X-116278570Y58584308D01*
X-116278570Y58584308D02*
X-116340475Y58708118D01*
X-116340475Y58708118D02*
X-116402379Y58955737D01*
X-116402379Y58955737D02*
X-116402379Y59141451D01*
X-116402379Y59141451D02*
X-116340475Y59389070D01*
X-116340475Y59389070D02*
X-116278570Y59512879D01*
X-116278570Y59512879D02*
X-116154760Y59636689D01*
X-116154760Y59636689D02*
X-115969046Y59698594D01*
X-115969046Y59698594D02*
X-115845237Y59698594D01*
X-115845237Y59698594D02*
X-115659522Y59636689D01*
X-115659522Y59636689D02*
X-115597618Y59574784D01*
D10*
D11*
X-116340475Y8398594D02*
X-116340475Y9698594D01*
X-116340475Y9698594D02*
X-116030951Y9698594D01*
X-116030951Y9698594D02*
X-115845237Y9636689D01*
X-115845237Y9636689D02*
X-115721427Y9512879D01*
X-115721427Y9512879D02*
X-115659522Y9389070D01*
X-115659522Y9389070D02*
X-115597618Y9141451D01*
X-115597618Y9141451D02*
X-115597618Y8955737D01*
X-115597618Y8955737D02*
X-115659522Y8708118D01*
X-115659522Y8708118D02*
X-115721427Y8584308D01*
X-115721427Y8584308D02*
X-115845237Y8460498D01*
X-115845237Y8460498D02*
X-116030951Y8398594D01*
X-116030951Y8398594D02*
X-116340475Y8398594D01*
D10*
D11*
X-116278570Y-40920454D02*
X-115845236Y-40920454D01*
X-115659522Y-41601406D02*
X-116278570Y-41601406D01*
X-116278570Y-41601406D02*
X-116278570Y-40301406D01*
X-116278570Y-40301406D02*
X-115659522Y-40301406D01*
D10*
D11*
X-115814284Y-90920454D02*
X-116247618Y-90920454D01*
X-116247618Y-91601406D02*
X-116247618Y-90301406D01*
X-116247618Y-90301406D02*
X-115628570Y-90301406D01*
D10*
D11*
X282989002Y133999998D02*
X280989002Y133999998D01*
D10*
D11*
X282989002Y83999998D02*
X280989002Y83999998D01*
D10*
D11*
X282989002Y33999998D02*
X280989002Y33999998D01*
D10*
D11*
X282989002Y-16000002D02*
X280989002Y-16000002D01*
D10*
D11*
X282989002Y-66000002D02*
X280989002Y-66000002D01*
D10*
D11*
X281679478Y158770022D02*
X282298525Y158770022D01*
X281555668Y158398594D02*
X281989001Y159698594D01*
X281989001Y159698594D02*
X282422335Y158398594D01*
D10*
D11*
X282081859Y109079546D02*
X282267573Y109017641D01*
X282267573Y109017641D02*
X282329478Y108955737D01*
X282329478Y108955737D02*
X282391382Y108831927D01*
X282391382Y108831927D02*
X282391382Y108646213D01*
X282391382Y108646213D02*
X282329478Y108522403D01*
X282329478Y108522403D02*
X282267573Y108460498D01*
X282267573Y108460498D02*
X282143763Y108398594D01*
X282143763Y108398594D02*
X281648525Y108398594D01*
X281648525Y108398594D02*
X281648525Y109698594D01*
X281648525Y109698594D02*
X282081859Y109698594D01*
X282081859Y109698594D02*
X282205668Y109636689D01*
X282205668Y109636689D02*
X282267573Y109574784D01*
X282267573Y109574784D02*
X282329478Y109450975D01*
X282329478Y109450975D02*
X282329478Y109327165D01*
X282329478Y109327165D02*
X282267573Y109203356D01*
X282267573Y109203356D02*
X282205668Y109141451D01*
X282205668Y109141451D02*
X282081859Y109079546D01*
X282081859Y109079546D02*
X281648525Y109079546D01*
D10*
D11*
X282391382Y58522403D02*
X282329478Y58460498D01*
X282329478Y58460498D02*
X282143763Y58398594D01*
X282143763Y58398594D02*
X282019954Y58398594D01*
X282019954Y58398594D02*
X281834240Y58460498D01*
X281834240Y58460498D02*
X281710430Y58584308D01*
X281710430Y58584308D02*
X281648525Y58708118D01*
X281648525Y58708118D02*
X281586621Y58955737D01*
X281586621Y58955737D02*
X281586621Y59141451D01*
X281586621Y59141451D02*
X281648525Y59389070D01*
X281648525Y59389070D02*
X281710430Y59512879D01*
X281710430Y59512879D02*
X281834240Y59636689D01*
X281834240Y59636689D02*
X282019954Y59698594D01*
X282019954Y59698594D02*
X282143763Y59698594D01*
X282143763Y59698594D02*
X282329478Y59636689D01*
X282329478Y59636689D02*
X282391382Y59574784D01*
D10*
D11*
X281648525Y8398594D02*
X281648525Y9698594D01*
X281648525Y9698594D02*
X281958049Y9698594D01*
X281958049Y9698594D02*
X282143763Y9636689D01*
X282143763Y9636689D02*
X282267573Y9512879D01*
X282267573Y9512879D02*
X282329478Y9389070D01*
X282329478Y9389070D02*
X282391382Y9141451D01*
X282391382Y9141451D02*
X282391382Y8955737D01*
X282391382Y8955737D02*
X282329478Y8708118D01*
X282329478Y8708118D02*
X282267573Y8584308D01*
X282267573Y8584308D02*
X282143763Y8460498D01*
X282143763Y8460498D02*
X281958049Y8398594D01*
X281958049Y8398594D02*
X281648525Y8398594D01*
D10*
D11*
X281710430Y-40920454D02*
X282143764Y-40920454D01*
X282329478Y-41601406D02*
X281710430Y-41601406D01*
X281710430Y-41601406D02*
X281710430Y-40301406D01*
X281710430Y-40301406D02*
X282329478Y-40301406D01*
D10*
D11*
X282174716Y-90920454D02*
X281741382Y-90920454D01*
X281741382Y-91601406D02*
X281741382Y-90301406D01*
X281741382Y-90301406D02*
X282360430Y-90301406D01*
D10*
D11*
X196346144Y-86796130D02*
X196346144Y-85296130D01*
X196346144Y-85296130D02*
X196703287Y-85296130D01*
X196703287Y-85296130D02*
X196917573Y-85367559D01*
X196917573Y-85367559D02*
X197060430Y-85510416D01*
X197060430Y-85510416D02*
X197131859Y-85653273D01*
X197131859Y-85653273D02*
X197203287Y-85938987D01*
X197203287Y-85938987D02*
X197203287Y-86153273D01*
X197203287Y-86153273D02*
X197131859Y-86438987D01*
X197131859Y-86438987D02*
X197060430Y-86581844D01*
X197060430Y-86581844D02*
X196917573Y-86724702D01*
X196917573Y-86724702D02*
X196703287Y-86796130D01*
X196703287Y-86796130D02*
X196346144Y-86796130D01*
X198489002Y-86796130D02*
X198489002Y-86010416D01*
X198489002Y-86010416D02*
X198417573Y-85867559D01*
X198417573Y-85867559D02*
X198274716Y-85796130D01*
X198274716Y-85796130D02*
X197989002Y-85796130D01*
X197989002Y-85796130D02*
X197846144Y-85867559D01*
X198489002Y-86724702D02*
X198346144Y-86796130D01*
X198346144Y-86796130D02*
X197989002Y-86796130D01*
X197989002Y-86796130D02*
X197846144Y-86724702D01*
X197846144Y-86724702D02*
X197774716Y-86581844D01*
X197774716Y-86581844D02*
X197774716Y-86438987D01*
X197774716Y-86438987D02*
X197846144Y-86296130D01*
X197846144Y-86296130D02*
X197989002Y-86224702D01*
X197989002Y-86224702D02*
X198346144Y-86224702D01*
X198346144Y-86224702D02*
X198489002Y-86153273D01*
X198989002Y-85796130D02*
X199560430Y-85796130D01*
X199203287Y-85296130D02*
X199203287Y-86581844D01*
X199203287Y-86581844D02*
X199274716Y-86724702D01*
X199274716Y-86724702D02*
X199417573Y-86796130D01*
X199417573Y-86796130D02*
X199560430Y-86796130D01*
X200631859Y-86724702D02*
X200489002Y-86796130D01*
X200489002Y-86796130D02*
X200203288Y-86796130D01*
X200203288Y-86796130D02*
X200060430Y-86724702D01*
X200060430Y-86724702D02*
X199989002Y-86581844D01*
X199989002Y-86581844D02*
X199989002Y-86010416D01*
X199989002Y-86010416D02*
X200060430Y-85867559D01*
X200060430Y-85867559D02*
X200203288Y-85796130D01*
X200203288Y-85796130D02*
X200489002Y-85796130D01*
X200489002Y-85796130D02*
X200631859Y-85867559D01*
X200631859Y-85867559D02*
X200703288Y-86010416D01*
X200703288Y-86010416D02*
X200703288Y-86153273D01*
X200703288Y-86153273D02*
X199989002Y-86296130D01*
X201346144Y-86653273D02*
X201417573Y-86724702D01*
X201417573Y-86724702D02*
X201346144Y-86796130D01*
X201346144Y-86796130D02*
X201274716Y-86724702D01*
X201274716Y-86724702D02*
X201346144Y-86653273D01*
X201346144Y-86653273D02*
X201346144Y-86796130D01*
X201346144Y-85867559D02*
X201417573Y-85938987D01*
X201417573Y-85938987D02*
X201346144Y-86010416D01*
X201346144Y-86010416D02*
X201274716Y-85938987D01*
X201274716Y-85938987D02*
X201346144Y-85867559D01*
X201346144Y-85867559D02*
X201346144Y-86010416D01*
D10*
D11*
X172989002Y-87502202D02*
X280989002Y-87502202D01*
D10*
D11*
X174346144Y-89596130D02*
X174346144Y-88096130D01*
X175203287Y-89596130D02*
X174560430Y-88738987D01*
X175203287Y-88096130D02*
X174346144Y-88953273D01*
X175846144Y-89596130D02*
X175846144Y-88596130D01*
X175846144Y-88096130D02*
X175774716Y-88167559D01*
X175774716Y-88167559D02*
X175846144Y-88238987D01*
X175846144Y-88238987D02*
X175917573Y-88167559D01*
X175917573Y-88167559D02*
X175846144Y-88096130D01*
X175846144Y-88096130D02*
X175846144Y-88238987D01*
X177417573Y-89453273D02*
X177346145Y-89524702D01*
X177346145Y-89524702D02*
X177131859Y-89596130D01*
X177131859Y-89596130D02*
X176989002Y-89596130D01*
X176989002Y-89596130D02*
X176774716Y-89524702D01*
X176774716Y-89524702D02*
X176631859Y-89381844D01*
X176631859Y-89381844D02*
X176560430Y-89238987D01*
X176560430Y-89238987D02*
X176489002Y-88953273D01*
X176489002Y-88953273D02*
X176489002Y-88738987D01*
X176489002Y-88738987D02*
X176560430Y-88453273D01*
X176560430Y-88453273D02*
X176631859Y-88310416D01*
X176631859Y-88310416D02*
X176774716Y-88167559D01*
X176774716Y-88167559D02*
X176989002Y-88096130D01*
X176989002Y-88096130D02*
X177131859Y-88096130D01*
X177131859Y-88096130D02*
X177346145Y-88167559D01*
X177346145Y-88167559D02*
X177417573Y-88238987D01*
X178703288Y-89596130D02*
X178703288Y-88810416D01*
X178703288Y-88810416D02*
X178631859Y-88667559D01*
X178631859Y-88667559D02*
X178489002Y-88596130D01*
X178489002Y-88596130D02*
X178203288Y-88596130D01*
X178203288Y-88596130D02*
X178060430Y-88667559D01*
X178703288Y-89524702D02*
X178560430Y-89596130D01*
X178560430Y-89596130D02*
X178203288Y-89596130D01*
X178203288Y-89596130D02*
X178060430Y-89524702D01*
X178060430Y-89524702D02*
X177989002Y-89381844D01*
X177989002Y-89381844D02*
X177989002Y-89238987D01*
X177989002Y-89238987D02*
X178060430Y-89096130D01*
X178060430Y-89096130D02*
X178203288Y-89024702D01*
X178203288Y-89024702D02*
X178560430Y-89024702D01*
X178560430Y-89024702D02*
X178703288Y-88953273D01*
X180060431Y-89596130D02*
X180060431Y-88096130D01*
X180060431Y-89524702D02*
X179917573Y-89596130D01*
X179917573Y-89596130D02*
X179631859Y-89596130D01*
X179631859Y-89596130D02*
X179489002Y-89524702D01*
X179489002Y-89524702D02*
X179417573Y-89453273D01*
X179417573Y-89453273D02*
X179346145Y-89310416D01*
X179346145Y-89310416D02*
X179346145Y-88881844D01*
X179346145Y-88881844D02*
X179417573Y-88738987D01*
X179417573Y-88738987D02*
X179489002Y-88667559D01*
X179489002Y-88667559D02*
X179631859Y-88596130D01*
X179631859Y-88596130D02*
X179917573Y-88596130D01*
X179917573Y-88596130D02*
X180060431Y-88667559D01*
X181917573Y-88810416D02*
X182417573Y-88810416D01*
X182631859Y-89596130D02*
X181917573Y-89596130D01*
X181917573Y-89596130D02*
X181917573Y-88096130D01*
X181917573Y-88096130D02*
X182631859Y-88096130D01*
X183274716Y-89453273D02*
X183346145Y-89524702D01*
X183346145Y-89524702D02*
X183274716Y-89596130D01*
X183274716Y-89596130D02*
X183203288Y-89524702D01*
X183203288Y-89524702D02*
X183274716Y-89453273D01*
X183274716Y-89453273D02*
X183274716Y-89596130D01*
X183989002Y-89596130D02*
X183989002Y-88096130D01*
X183989002Y-88096130D02*
X184346145Y-88096130D01*
X184346145Y-88096130D02*
X184560431Y-88167559D01*
X184560431Y-88167559D02*
X184703288Y-88310416D01*
X184703288Y-88310416D02*
X184774717Y-88453273D01*
X184774717Y-88453273D02*
X184846145Y-88738987D01*
X184846145Y-88738987D02*
X184846145Y-88953273D01*
X184846145Y-88953273D02*
X184774717Y-89238987D01*
X184774717Y-89238987D02*
X184703288Y-89381844D01*
X184703288Y-89381844D02*
X184560431Y-89524702D01*
X184560431Y-89524702D02*
X184346145Y-89596130D01*
X184346145Y-89596130D02*
X183989002Y-89596130D01*
X185489002Y-89453273D02*
X185560431Y-89524702D01*
X185560431Y-89524702D02*
X185489002Y-89596130D01*
X185489002Y-89596130D02*
X185417574Y-89524702D01*
X185417574Y-89524702D02*
X185489002Y-89453273D01*
X185489002Y-89453273D02*
X185489002Y-89596130D01*
X186131860Y-89167559D02*
X186846146Y-89167559D01*
X185989003Y-89596130D02*
X186489003Y-88096130D01*
X186489003Y-88096130D02*
X186989003Y-89596130D01*
X187489002Y-89453273D02*
X187560431Y-89524702D01*
X187560431Y-89524702D02*
X187489002Y-89596130D01*
X187489002Y-89596130D02*
X187417574Y-89524702D01*
X187417574Y-89524702D02*
X187489002Y-89453273D01*
X187489002Y-89453273D02*
X187489002Y-89596130D01*
X190489002Y-89596130D02*
X190489002Y-88096130D01*
X190631860Y-89024702D02*
X191060431Y-89596130D01*
X191060431Y-88596130D02*
X190489002Y-89167559D01*
X191703288Y-89596130D02*
X191703288Y-88596130D01*
X191703288Y-88096130D02*
X191631860Y-88167559D01*
X191631860Y-88167559D02*
X191703288Y-88238987D01*
X191703288Y-88238987D02*
X191774717Y-88167559D01*
X191774717Y-88167559D02*
X191703288Y-88096130D01*
X191703288Y-88096130D02*
X191703288Y-88238987D01*
X193060432Y-89524702D02*
X192917574Y-89596130D01*
X192917574Y-89596130D02*
X192631860Y-89596130D01*
X192631860Y-89596130D02*
X192489003Y-89524702D01*
X192489003Y-89524702D02*
X192417574Y-89453273D01*
X192417574Y-89453273D02*
X192346146Y-89310416D01*
X192346146Y-89310416D02*
X192346146Y-88881844D01*
X192346146Y-88881844D02*
X192417574Y-88738987D01*
X192417574Y-88738987D02*
X192489003Y-88667559D01*
X192489003Y-88667559D02*
X192631860Y-88596130D01*
X192631860Y-88596130D02*
X192917574Y-88596130D01*
X192917574Y-88596130D02*
X193060432Y-88667559D01*
X194346146Y-89596130D02*
X194346146Y-88810416D01*
X194346146Y-88810416D02*
X194274717Y-88667559D01*
X194274717Y-88667559D02*
X194131860Y-88596130D01*
X194131860Y-88596130D02*
X193846146Y-88596130D01*
X193846146Y-88596130D02*
X193703288Y-88667559D01*
X194346146Y-89524702D02*
X194203288Y-89596130D01*
X194203288Y-89596130D02*
X193846146Y-89596130D01*
X193846146Y-89596130D02*
X193703288Y-89524702D01*
X193703288Y-89524702D02*
X193631860Y-89381844D01*
X193631860Y-89381844D02*
X193631860Y-89238987D01*
X193631860Y-89238987D02*
X193703288Y-89096130D01*
X193703288Y-89096130D02*
X193846146Y-89024702D01*
X193846146Y-89024702D02*
X194203288Y-89024702D01*
X194203288Y-89024702D02*
X194346146Y-88953273D01*
X195703289Y-89596130D02*
X195703289Y-88096130D01*
X195703289Y-89524702D02*
X195560431Y-89596130D01*
X195560431Y-89596130D02*
X195274717Y-89596130D01*
X195274717Y-89596130D02*
X195131860Y-89524702D01*
X195131860Y-89524702D02*
X195060431Y-89453273D01*
X195060431Y-89453273D02*
X194989003Y-89310416D01*
X194989003Y-89310416D02*
X194989003Y-88881844D01*
X194989003Y-88881844D02*
X195060431Y-88738987D01*
X195060431Y-88738987D02*
X195131860Y-88667559D01*
X195131860Y-88667559D02*
X195274717Y-88596130D01*
X195274717Y-88596130D02*
X195560431Y-88596130D01*
X195560431Y-88596130D02*
X195703289Y-88667559D01*
X197417574Y-88096130D02*
X198417574Y-88096130D01*
X198417574Y-88096130D02*
X197774717Y-89596130D01*
X198989002Y-89453273D02*
X199060431Y-89524702D01*
X199060431Y-89524702D02*
X198989002Y-89596130D01*
X198989002Y-89596130D02*
X198917574Y-89524702D01*
X198917574Y-89524702D02*
X198989002Y-89453273D01*
X198989002Y-89453273D02*
X198989002Y-89596130D01*
X199989003Y-88096130D02*
X200131860Y-88096130D01*
X200131860Y-88096130D02*
X200274717Y-88167559D01*
X200274717Y-88167559D02*
X200346146Y-88238987D01*
X200346146Y-88238987D02*
X200417574Y-88381844D01*
X200417574Y-88381844D02*
X200489003Y-88667559D01*
X200489003Y-88667559D02*
X200489003Y-89024702D01*
X200489003Y-89024702D02*
X200417574Y-89310416D01*
X200417574Y-89310416D02*
X200346146Y-89453273D01*
X200346146Y-89453273D02*
X200274717Y-89524702D01*
X200274717Y-89524702D02*
X200131860Y-89596130D01*
X200131860Y-89596130D02*
X199989003Y-89596130D01*
X199989003Y-89596130D02*
X199846146Y-89524702D01*
X199846146Y-89524702D02*
X199774717Y-89453273D01*
X199774717Y-89453273D02*
X199703288Y-89310416D01*
X199703288Y-89310416D02*
X199631860Y-89024702D01*
X199631860Y-89024702D02*
X199631860Y-88667559D01*
X199631860Y-88667559D02*
X199703288Y-88381844D01*
X199703288Y-88381844D02*
X199774717Y-88238987D01*
X199774717Y-88238987D02*
X199846146Y-88167559D01*
X199846146Y-88167559D02*
X199989003Y-88096130D01*
X201131859Y-89453273D02*
X201203288Y-89524702D01*
X201203288Y-89524702D02*
X201131859Y-89596130D01*
X201131859Y-89596130D02*
X201060431Y-89524702D01*
X201060431Y-89524702D02*
X201131859Y-89453273D01*
X201131859Y-89453273D02*
X201131859Y-89596130D01*
X202631860Y-89596130D02*
X201774717Y-89596130D01*
X202203288Y-89596130D02*
X202203288Y-88096130D01*
X202203288Y-88096130D02*
X202060431Y-88310416D01*
X202060431Y-88310416D02*
X201917574Y-88453273D01*
X201917574Y-88453273D02*
X201774717Y-88524702D01*
D10*
D11*
X172989002Y-84502202D02*
X280989002Y-84502202D01*
D10*
D12*
X260203287Y-86796130D02*
X259703287Y-86081844D01*
X259346144Y-86796130D02*
X259346144Y-85296130D01*
X259346144Y-85296130D02*
X259917573Y-85296130D01*
X259917573Y-85296130D02*
X260060430Y-85367559D01*
X260060430Y-85367559D02*
X260131859Y-85438987D01*
X260131859Y-85438987D02*
X260203287Y-85581844D01*
X260203287Y-85581844D02*
X260203287Y-85796130D01*
X260203287Y-85796130D02*
X260131859Y-85938987D01*
X260131859Y-85938987D02*
X260060430Y-86010416D01*
X260060430Y-86010416D02*
X259917573Y-86081844D01*
X259917573Y-86081844D02*
X259346144Y-86081844D01*
X261417573Y-86724702D02*
X261274716Y-86796130D01*
X261274716Y-86796130D02*
X260989002Y-86796130D01*
X260989002Y-86796130D02*
X260846144Y-86724702D01*
X260846144Y-86724702D02*
X260774716Y-86581844D01*
X260774716Y-86581844D02*
X260774716Y-86010416D01*
X260774716Y-86010416D02*
X260846144Y-85867559D01*
X260846144Y-85867559D02*
X260989002Y-85796130D01*
X260989002Y-85796130D02*
X261274716Y-85796130D01*
X261274716Y-85796130D02*
X261417573Y-85867559D01*
X261417573Y-85867559D02*
X261489002Y-86010416D01*
X261489002Y-86010416D02*
X261489002Y-86153273D01*
X261489002Y-86153273D02*
X260774716Y-86296130D01*
X261989001Y-85796130D02*
X262346144Y-86796130D01*
X262346144Y-86796130D02*
X262703287Y-85796130D01*
X263274715Y-86653273D02*
X263346144Y-86724702D01*
X263346144Y-86724702D02*
X263274715Y-86796130D01*
X263274715Y-86796130D02*
X263203287Y-86724702D01*
X263203287Y-86724702D02*
X263274715Y-86653273D01*
X263274715Y-86653273D02*
X263274715Y-86796130D01*
X263274715Y-85867559D02*
X263346144Y-85938987D01*
X263346144Y-85938987D02*
X263274715Y-86010416D01*
X263274715Y-86010416D02*
X263203287Y-85938987D01*
X263203287Y-85938987D02*
X263274715Y-85867559D01*
X263274715Y-85867559D02*
X263274715Y-86010416D01*
D10*
D11*
X174274716Y-86724702D02*
X174489002Y-86796130D01*
X174489002Y-86796130D02*
X174846144Y-86796130D01*
X174846144Y-86796130D02*
X174989002Y-86724702D01*
X174989002Y-86724702D02*
X175060430Y-86653273D01*
X175060430Y-86653273D02*
X175131859Y-86510416D01*
X175131859Y-86510416D02*
X175131859Y-86367559D01*
X175131859Y-86367559D02*
X175060430Y-86224702D01*
X175060430Y-86224702D02*
X174989002Y-86153273D01*
X174989002Y-86153273D02*
X174846144Y-86081844D01*
X174846144Y-86081844D02*
X174560430Y-86010416D01*
X174560430Y-86010416D02*
X174417573Y-85938987D01*
X174417573Y-85938987D02*
X174346144Y-85867559D01*
X174346144Y-85867559D02*
X174274716Y-85724702D01*
X174274716Y-85724702D02*
X174274716Y-85581844D01*
X174274716Y-85581844D02*
X174346144Y-85438987D01*
X174346144Y-85438987D02*
X174417573Y-85367559D01*
X174417573Y-85367559D02*
X174560430Y-85296130D01*
X174560430Y-85296130D02*
X174917573Y-85296130D01*
X174917573Y-85296130D02*
X175131859Y-85367559D01*
X175774715Y-86796130D02*
X175774715Y-85796130D01*
X175774715Y-85296130D02*
X175703287Y-85367559D01*
X175703287Y-85367559D02*
X175774715Y-85438987D01*
X175774715Y-85438987D02*
X175846144Y-85367559D01*
X175846144Y-85367559D02*
X175774715Y-85296130D01*
X175774715Y-85296130D02*
X175774715Y-85438987D01*
X176346144Y-85796130D02*
X177131859Y-85796130D01*
X177131859Y-85796130D02*
X176346144Y-86796130D01*
X176346144Y-86796130D02*
X177131859Y-86796130D01*
X178274716Y-86724702D02*
X178131859Y-86796130D01*
X178131859Y-86796130D02*
X177846145Y-86796130D01*
X177846145Y-86796130D02*
X177703287Y-86724702D01*
X177703287Y-86724702D02*
X177631859Y-86581844D01*
X177631859Y-86581844D02*
X177631859Y-86010416D01*
X177631859Y-86010416D02*
X177703287Y-85867559D01*
X177703287Y-85867559D02*
X177846145Y-85796130D01*
X177846145Y-85796130D02*
X178131859Y-85796130D01*
X178131859Y-85796130D02*
X178274716Y-85867559D01*
X178274716Y-85867559D02*
X178346145Y-86010416D01*
X178346145Y-86010416D02*
X178346145Y-86153273D01*
X178346145Y-86153273D02*
X177631859Y-86296130D01*
X178989001Y-86653273D02*
X179060430Y-86724702D01*
X179060430Y-86724702D02*
X178989001Y-86796130D01*
X178989001Y-86796130D02*
X178917573Y-86724702D01*
X178917573Y-86724702D02*
X178989001Y-86653273D01*
X178989001Y-86653273D02*
X178989001Y-86796130D01*
X178989001Y-85867559D02*
X179060430Y-85938987D01*
X179060430Y-85938987D02*
X178989001Y-86010416D01*
X178989001Y-86010416D02*
X178917573Y-85938987D01*
X178917573Y-85938987D02*
X178989001Y-85867559D01*
X178989001Y-85867559D02*
X178989001Y-86010416D01*
X180774716Y-86367559D02*
X181489002Y-86367559D01*
X180631859Y-86796130D02*
X181131859Y-85296130D01*
X181131859Y-85296130D02*
X181631859Y-86796130D01*
X181989001Y-85296130D02*
X182917573Y-85296130D01*
X182917573Y-85296130D02*
X182417573Y-85867559D01*
X182417573Y-85867559D02*
X182631858Y-85867559D01*
X182631858Y-85867559D02*
X182774716Y-85938987D01*
X182774716Y-85938987D02*
X182846144Y-86010416D01*
X182846144Y-86010416D02*
X182917573Y-86153273D01*
X182917573Y-86153273D02*
X182917573Y-86510416D01*
X182917573Y-86510416D02*
X182846144Y-86653273D01*
X182846144Y-86653273D02*
X182774716Y-86724702D01*
X182774716Y-86724702D02*
X182631858Y-86796130D01*
X182631858Y-86796130D02*
X182203287Y-86796130D01*
X182203287Y-86796130D02*
X182060430Y-86724702D01*
X182060430Y-86724702D02*
X181989001Y-86653273D01*
D10*
D11*
X259346144Y-89596130D02*
X259346144Y-88096130D01*
X260703288Y-89596130D02*
X260703288Y-88096130D01*
X260703288Y-89524702D02*
X260560430Y-89596130D01*
X260560430Y-89596130D02*
X260274716Y-89596130D01*
X260274716Y-89596130D02*
X260131859Y-89524702D01*
X260131859Y-89524702D02*
X260060430Y-89453273D01*
X260060430Y-89453273D02*
X259989002Y-89310416D01*
X259989002Y-89310416D02*
X259989002Y-88881844D01*
X259989002Y-88881844D02*
X260060430Y-88738987D01*
X260060430Y-88738987D02*
X260131859Y-88667559D01*
X260131859Y-88667559D02*
X260274716Y-88596130D01*
X260274716Y-88596130D02*
X260560430Y-88596130D01*
X260560430Y-88596130D02*
X260703288Y-88667559D01*
X261417573Y-89453273D02*
X261489002Y-89524702D01*
X261489002Y-89524702D02*
X261417573Y-89596130D01*
X261417573Y-89596130D02*
X261346145Y-89524702D01*
X261346145Y-89524702D02*
X261417573Y-89453273D01*
X261417573Y-89453273D02*
X261417573Y-89596130D01*
X261417573Y-88667559D02*
X261489002Y-88738987D01*
X261489002Y-88738987D02*
X261417573Y-88810416D01*
X261417573Y-88810416D02*
X261346145Y-88738987D01*
X261346145Y-88738987D02*
X261417573Y-88667559D01*
X261417573Y-88667559D02*
X261417573Y-88810416D01*
X264060431Y-89596130D02*
X263203288Y-89596130D01*
X263631859Y-89596130D02*
X263631859Y-88096130D01*
X263631859Y-88096130D02*
X263489002Y-88310416D01*
X263489002Y-88310416D02*
X263346145Y-88453273D01*
X263346145Y-88453273D02*
X263203288Y-88524702D01*
X265774716Y-88024702D02*
X264489002Y-89953273D01*
X267060431Y-89596130D02*
X266203288Y-89596130D01*
X266631859Y-89596130D02*
X266631859Y-88096130D01*
X266631859Y-88096130D02*
X266489002Y-88310416D01*
X266489002Y-88310416D02*
X266346145Y-88453273D01*
X266346145Y-88453273D02*
X266203288Y-88524702D01*
D10*
D11*
X172989002Y-80502202D02*
X280989002Y-80502202D01*
D10*
D13*
X174417573Y-81227440D02*
X175560430Y-81227440D01*
X174739002Y-83227440D02*
X174989002Y-81227440D01*
X175965192Y-83227440D02*
X176131859Y-81894106D01*
X176215192Y-81227440D02*
X176108049Y-81322678D01*
X176108049Y-81322678D02*
X176191383Y-81417916D01*
X176191383Y-81417916D02*
X176298526Y-81322678D01*
X176298526Y-81322678D02*
X176215192Y-81227440D01*
X176215192Y-81227440D02*
X176191383Y-81417916D01*
X176786621Y-81894106D02*
X177548525Y-81894106D01*
X177155668Y-81227440D02*
X176941383Y-82941725D01*
X176941383Y-82941725D02*
X177012811Y-83132202D01*
X177012811Y-83132202D02*
X177191383Y-83227440D01*
X177191383Y-83227440D02*
X177381859Y-83227440D01*
X178322335Y-83227440D02*
X178143763Y-83132202D01*
X178143763Y-83132202D02*
X178072335Y-82941725D01*
X178072335Y-82941725D02*
X178286620Y-81227440D01*
X179846144Y-83132202D02*
X179643763Y-83227440D01*
X179643763Y-83227440D02*
X179262810Y-83227440D01*
X179262810Y-83227440D02*
X179084239Y-83132202D01*
X179084239Y-83132202D02*
X179012810Y-82941725D01*
X179012810Y-82941725D02*
X179108049Y-82179821D01*
X179108049Y-82179821D02*
X179227096Y-81989344D01*
X179227096Y-81989344D02*
X179429477Y-81894106D01*
X179429477Y-81894106D02*
X179810429Y-81894106D01*
X179810429Y-81894106D02*
X179989001Y-81989344D01*
X179989001Y-81989344D02*
X180060429Y-82179821D01*
X180060429Y-82179821D02*
X180036620Y-82370297D01*
X180036620Y-82370297D02*
X179060429Y-82560773D01*
X180798525Y-83036963D02*
X180881858Y-83132202D01*
X180881858Y-83132202D02*
X180774715Y-83227440D01*
X180774715Y-83227440D02*
X180691382Y-83132202D01*
X180691382Y-83132202D02*
X180798525Y-83036963D01*
X180798525Y-83036963D02*
X180774715Y-83227440D01*
X180929477Y-81989344D02*
X181012810Y-82084582D01*
X181012810Y-82084582D02*
X180905668Y-82179821D01*
X180905668Y-82179821D02*
X180822334Y-82084582D01*
X180822334Y-82084582D02*
X180929477Y-81989344D01*
X180929477Y-81989344D02*
X180905668Y-82179821D01*
X183239001Y-83227440D02*
X183489001Y-81227440D01*
X183489001Y-81227440D02*
X184250906Y-81227440D01*
X184250906Y-81227440D02*
X184429477Y-81322678D01*
X184429477Y-81322678D02*
X184512811Y-81417916D01*
X184512811Y-81417916D02*
X184584239Y-81608392D01*
X184584239Y-81608392D02*
X184548525Y-81894106D01*
X184548525Y-81894106D02*
X184429477Y-82084582D01*
X184429477Y-82084582D02*
X184322335Y-82179821D01*
X184322335Y-82179821D02*
X184119954Y-82275059D01*
X184119954Y-82275059D02*
X183358049Y-82275059D01*
X186393763Y-83036963D02*
X186286620Y-83132202D01*
X186286620Y-83132202D02*
X185989001Y-83227440D01*
X185989001Y-83227440D02*
X185798525Y-83227440D01*
X185798525Y-83227440D02*
X185524715Y-83132202D01*
X185524715Y-83132202D02*
X185358049Y-82941725D01*
X185358049Y-82941725D02*
X185286620Y-82751249D01*
X185286620Y-82751249D02*
X185239001Y-82370297D01*
X185239001Y-82370297D02*
X185274715Y-82084582D01*
X185274715Y-82084582D02*
X185417572Y-81703630D01*
X185417572Y-81703630D02*
X185536620Y-81513154D01*
X185536620Y-81513154D02*
X185750906Y-81322678D01*
X185750906Y-81322678D02*
X186048525Y-81227440D01*
X186048525Y-81227440D02*
X186239001Y-81227440D01*
X186239001Y-81227440D02*
X186512811Y-81322678D01*
X186512811Y-81322678D02*
X186596144Y-81417916D01*
X187310429Y-82465535D02*
X188834239Y-82465535D01*
X190322334Y-81227440D02*
X190512810Y-81227440D01*
X190512810Y-81227440D02*
X190691381Y-81322678D01*
X190691381Y-81322678D02*
X190774715Y-81417916D01*
X190774715Y-81417916D02*
X190846143Y-81608392D01*
X190846143Y-81608392D02*
X190893762Y-81989344D01*
X190893762Y-81989344D02*
X190834238Y-82465535D01*
X190834238Y-82465535D02*
X190691381Y-82846487D01*
X190691381Y-82846487D02*
X190572334Y-83036963D01*
X190572334Y-83036963D02*
X190465191Y-83132202D01*
X190465191Y-83132202D02*
X190262810Y-83227440D01*
X190262810Y-83227440D02*
X190072334Y-83227440D01*
X190072334Y-83227440D02*
X189893762Y-83132202D01*
X189893762Y-83132202D02*
X189810429Y-83036963D01*
X189810429Y-83036963D02*
X189739000Y-82846487D01*
X189739000Y-82846487D02*
X189691381Y-82465535D01*
X189691381Y-82465535D02*
X189750905Y-81989344D01*
X189750905Y-81989344D02*
X189893762Y-81608392D01*
X189893762Y-81608392D02*
X190012810Y-81417916D01*
X190012810Y-81417916D02*
X190119953Y-81322678D01*
X190119953Y-81322678D02*
X190322334Y-81227440D01*
X191715191Y-81417916D02*
X191822333Y-81322678D01*
X191822333Y-81322678D02*
X192024714Y-81227440D01*
X192024714Y-81227440D02*
X192500905Y-81227440D01*
X192500905Y-81227440D02*
X192679476Y-81322678D01*
X192679476Y-81322678D02*
X192762810Y-81417916D01*
X192762810Y-81417916D02*
X192834238Y-81608392D01*
X192834238Y-81608392D02*
X192810429Y-81798868D01*
X192810429Y-81798868D02*
X192679476Y-82084582D01*
X192679476Y-82084582D02*
X191393762Y-83227440D01*
X191393762Y-83227440D02*
X192631857Y-83227440D01*
X195131858Y-82179821D02*
X195798524Y-82179821D01*
X195953286Y-83227440D02*
X195000905Y-83227440D01*
X195000905Y-83227440D02*
X195250905Y-81227440D01*
X195250905Y-81227440D02*
X196203286Y-81227440D01*
X196798524Y-83227440D02*
X197048524Y-81227440D01*
X197048524Y-81227440D02*
X197524715Y-81227440D01*
X197524715Y-81227440D02*
X197798524Y-81322678D01*
X197798524Y-81322678D02*
X197965191Y-81513154D01*
X197965191Y-81513154D02*
X198036619Y-81703630D01*
X198036619Y-81703630D02*
X198084239Y-82084582D01*
X198084239Y-82084582D02*
X198048524Y-82370297D01*
X198048524Y-82370297D02*
X197905667Y-82751249D01*
X197905667Y-82751249D02*
X197786619Y-82941725D01*
X197786619Y-82941725D02*
X197572334Y-83132202D01*
X197572334Y-83132202D02*
X197274715Y-83227440D01*
X197274715Y-83227440D02*
X196798524Y-83227440D01*
X198786619Y-83227440D02*
X199036619Y-81227440D01*
X199036619Y-81227440D02*
X199524714Y-82656011D01*
X199524714Y-82656011D02*
X200369953Y-81227440D01*
X200369953Y-81227440D02*
X200119953Y-83227440D01*
X202584239Y-83227440D02*
X202834239Y-81227440D01*
X202834239Y-81227440D02*
X203596144Y-81227440D01*
X203596144Y-81227440D02*
X203774715Y-81322678D01*
X203774715Y-81322678D02*
X203858049Y-81417916D01*
X203858049Y-81417916D02*
X203929477Y-81608392D01*
X203929477Y-81608392D02*
X203893763Y-81894106D01*
X203893763Y-81894106D02*
X203774715Y-82084582D01*
X203774715Y-82084582D02*
X203667573Y-82179821D01*
X203667573Y-82179821D02*
X203465192Y-82275059D01*
X203465192Y-82275059D02*
X202703287Y-82275059D01*
X204822334Y-81227440D02*
X204619953Y-82846487D01*
X204619953Y-82846487D02*
X204691382Y-83036963D01*
X204691382Y-83036963D02*
X204774715Y-83132202D01*
X204774715Y-83132202D02*
X204953287Y-83227440D01*
X204953287Y-83227440D02*
X205334239Y-83227440D01*
X205334239Y-83227440D02*
X205536620Y-83132202D01*
X205536620Y-83132202D02*
X205643763Y-83036963D01*
X205643763Y-83036963D02*
X205762810Y-82846487D01*
X205762810Y-82846487D02*
X205965191Y-81227440D01*
X207608048Y-83227440D02*
X206655667Y-83227440D01*
X206655667Y-83227440D02*
X206905667Y-81227440D01*
X208179477Y-83132202D02*
X208453286Y-83227440D01*
X208453286Y-83227440D02*
X208929477Y-83227440D01*
X208929477Y-83227440D02*
X209131858Y-83132202D01*
X209131858Y-83132202D02*
X209239001Y-83036963D01*
X209239001Y-83036963D02*
X209358048Y-82846487D01*
X209358048Y-82846487D02*
X209381858Y-82656011D01*
X209381858Y-82656011D02*
X209310429Y-82465535D01*
X209310429Y-82465535D02*
X209227096Y-82370297D01*
X209227096Y-82370297D02*
X209048525Y-82275059D01*
X209048525Y-82275059D02*
X208679477Y-82179821D01*
X208679477Y-82179821D02*
X208500905Y-82084582D01*
X208500905Y-82084582D02*
X208417572Y-81989344D01*
X208417572Y-81989344D02*
X208346144Y-81798868D01*
X208346144Y-81798868D02*
X208369953Y-81608392D01*
X208369953Y-81608392D02*
X208489001Y-81417916D01*
X208489001Y-81417916D02*
X208596144Y-81322678D01*
X208596144Y-81322678D02*
X208798525Y-81227440D01*
X208798525Y-81227440D02*
X209274715Y-81227440D01*
X209274715Y-81227440D02*
X209548525Y-81322678D01*
X210286620Y-82179821D02*
X210953286Y-82179821D01*
X211108048Y-83227440D02*
X210155667Y-83227440D01*
X210155667Y-83227440D02*
X210405667Y-81227440D01*
X210405667Y-81227440D02*
X211358048Y-81227440D01*
X214762811Y-81322678D02*
X214584239Y-81227440D01*
X214584239Y-81227440D02*
X214298525Y-81227440D01*
X214298525Y-81227440D02*
X214000906Y-81322678D01*
X214000906Y-81322678D02*
X213786620Y-81513154D01*
X213786620Y-81513154D02*
X213667572Y-81703630D01*
X213667572Y-81703630D02*
X213524715Y-82084582D01*
X213524715Y-82084582D02*
X213489001Y-82370297D01*
X213489001Y-82370297D02*
X213536620Y-82751249D01*
X213536620Y-82751249D02*
X213608049Y-82941725D01*
X213608049Y-82941725D02*
X213774715Y-83132202D01*
X213774715Y-83132202D02*
X214048525Y-83227440D01*
X214048525Y-83227440D02*
X214239001Y-83227440D01*
X214239001Y-83227440D02*
X214536620Y-83132202D01*
X214536620Y-83132202D02*
X214643763Y-83036963D01*
X214643763Y-83036963D02*
X214727096Y-82370297D01*
X214727096Y-82370297D02*
X214346144Y-82370297D01*
X215596144Y-82179821D02*
X216262810Y-82179821D01*
X216417572Y-83227440D02*
X215465191Y-83227440D01*
X215465191Y-83227440D02*
X215715191Y-81227440D01*
X215715191Y-81227440D02*
X216667572Y-81227440D01*
X217262810Y-83227440D02*
X217512810Y-81227440D01*
X217512810Y-81227440D02*
X218405667Y-83227440D01*
X218405667Y-83227440D02*
X218655667Y-81227440D01*
X219477096Y-82179821D02*
X220143762Y-82179821D01*
X220298524Y-83227440D02*
X219346143Y-83227440D01*
X219346143Y-83227440D02*
X219596143Y-81227440D01*
X219596143Y-81227440D02*
X220548524Y-81227440D01*
X222286619Y-83227440D02*
X221739000Y-82275059D01*
X221143762Y-83227440D02*
X221393762Y-81227440D01*
X221393762Y-81227440D02*
X222155667Y-81227440D01*
X222155667Y-81227440D02*
X222334238Y-81322678D01*
X222334238Y-81322678D02*
X222417572Y-81417916D01*
X222417572Y-81417916D02*
X222489000Y-81608392D01*
X222489000Y-81608392D02*
X222453286Y-81894106D01*
X222453286Y-81894106D02*
X222334238Y-82084582D01*
X222334238Y-82084582D02*
X222227096Y-82179821D01*
X222227096Y-82179821D02*
X222024715Y-82275059D01*
X222024715Y-82275059D02*
X221262810Y-82275059D01*
X223108048Y-82656011D02*
X224060429Y-82656011D01*
X222846143Y-83227440D02*
X223762810Y-81227440D01*
X223762810Y-81227440D02*
X224179476Y-83227440D01*
X224798524Y-81227440D02*
X225941381Y-81227440D01*
X225119953Y-83227440D02*
X225369953Y-81227440D01*
X226977096Y-81227440D02*
X227358048Y-81227440D01*
X227358048Y-81227440D02*
X227536619Y-81322678D01*
X227536619Y-81322678D02*
X227703286Y-81513154D01*
X227703286Y-81513154D02*
X227750905Y-81894106D01*
X227750905Y-81894106D02*
X227667572Y-82560773D01*
X227667572Y-82560773D02*
X227524715Y-82941725D01*
X227524715Y-82941725D02*
X227310429Y-83132202D01*
X227310429Y-83132202D02*
X227108048Y-83227440D01*
X227108048Y-83227440D02*
X226727096Y-83227440D01*
X226727096Y-83227440D02*
X226548524Y-83132202D01*
X226548524Y-83132202D02*
X226381858Y-82941725D01*
X226381858Y-82941725D02*
X226334238Y-82560773D01*
X226334238Y-82560773D02*
X226417572Y-81894106D01*
X226417572Y-81894106D02*
X226560429Y-81513154D01*
X226560429Y-81513154D02*
X226774715Y-81322678D01*
X226774715Y-81322678D02*
X226977096Y-81227440D01*
X229572333Y-83227440D02*
X229024714Y-82275059D01*
X228429476Y-83227440D02*
X228679476Y-81227440D01*
X228679476Y-81227440D02*
X229441381Y-81227440D01*
X229441381Y-81227440D02*
X229619952Y-81322678D01*
X229619952Y-81322678D02*
X229703286Y-81417916D01*
X229703286Y-81417916D02*
X229774714Y-81608392D01*
X229774714Y-81608392D02*
X229739000Y-81894106D01*
X229739000Y-81894106D02*
X229619952Y-82084582D01*
X229619952Y-82084582D02*
X229512810Y-82179821D01*
X229512810Y-82179821D02*
X229310429Y-82275059D01*
X229310429Y-82275059D02*
X228548524Y-82275059D01*
D10*
D11*
X174846144Y-78610416D02*
X174346144Y-78610416D01*
X174346144Y-79396130D02*
X174346144Y-77896130D01*
X174346144Y-77896130D02*
X175060430Y-77896130D01*
X175631858Y-79396130D02*
X175631858Y-78396130D01*
X175631858Y-77896130D02*
X175560430Y-77967559D01*
X175560430Y-77967559D02*
X175631858Y-78038987D01*
X175631858Y-78038987D02*
X175703287Y-77967559D01*
X175703287Y-77967559D02*
X175631858Y-77896130D01*
X175631858Y-77896130D02*
X175631858Y-78038987D01*
X176560430Y-79396130D02*
X176417573Y-79324702D01*
X176417573Y-79324702D02*
X176346144Y-79181844D01*
X176346144Y-79181844D02*
X176346144Y-77896130D01*
X177703287Y-79324702D02*
X177560430Y-79396130D01*
X177560430Y-79396130D02*
X177274716Y-79396130D01*
X177274716Y-79396130D02*
X177131858Y-79324702D01*
X177131858Y-79324702D02*
X177060430Y-79181844D01*
X177060430Y-79181844D02*
X177060430Y-78610416D01*
X177060430Y-78610416D02*
X177131858Y-78467559D01*
X177131858Y-78467559D02*
X177274716Y-78396130D01*
X177274716Y-78396130D02*
X177560430Y-78396130D01*
X177560430Y-78396130D02*
X177703287Y-78467559D01*
X177703287Y-78467559D02*
X177774716Y-78610416D01*
X177774716Y-78610416D02*
X177774716Y-78753273D01*
X177774716Y-78753273D02*
X177060430Y-78896130D01*
X178417572Y-79253273D02*
X178489001Y-79324702D01*
X178489001Y-79324702D02*
X178417572Y-79396130D01*
X178417572Y-79396130D02*
X178346144Y-79324702D01*
X178346144Y-79324702D02*
X178417572Y-79253273D01*
X178417572Y-79253273D02*
X178417572Y-79396130D01*
X178417572Y-78467559D02*
X178489001Y-78538987D01*
X178489001Y-78538987D02*
X178417572Y-78610416D01*
X178417572Y-78610416D02*
X178346144Y-78538987D01*
X178346144Y-78538987D02*
X178417572Y-78467559D01*
X178417572Y-78467559D02*
X178417572Y-78610416D01*
X180274715Y-79396130D02*
X180274715Y-77896130D01*
X180274715Y-77896130D02*
X180846144Y-77896130D01*
X180846144Y-77896130D02*
X180989001Y-77967559D01*
X180989001Y-77967559D02*
X181060430Y-78038987D01*
X181060430Y-78038987D02*
X181131858Y-78181844D01*
X181131858Y-78181844D02*
X181131858Y-78396130D01*
X181131858Y-78396130D02*
X181060430Y-78538987D01*
X181060430Y-78538987D02*
X180989001Y-78610416D01*
X180989001Y-78610416D02*
X180846144Y-78681844D01*
X180846144Y-78681844D02*
X180274715Y-78681844D01*
X182060430Y-77896130D02*
X182346144Y-77896130D01*
X182346144Y-77896130D02*
X182489001Y-77967559D01*
X182489001Y-77967559D02*
X182631858Y-78110416D01*
X182631858Y-78110416D02*
X182703287Y-78396130D01*
X182703287Y-78396130D02*
X182703287Y-78896130D01*
X182703287Y-78896130D02*
X182631858Y-79181844D01*
X182631858Y-79181844D02*
X182489001Y-79324702D01*
X182489001Y-79324702D02*
X182346144Y-79396130D01*
X182346144Y-79396130D02*
X182060430Y-79396130D01*
X182060430Y-79396130D02*
X181917573Y-79324702D01*
X181917573Y-79324702D02*
X181774715Y-79181844D01*
X181774715Y-79181844D02*
X181703287Y-78896130D01*
X181703287Y-78896130D02*
X181703287Y-78396130D01*
X181703287Y-78396130D02*
X181774715Y-78110416D01*
X181774715Y-78110416D02*
X181917573Y-77967559D01*
X181917573Y-77967559D02*
X182060430Y-77896130D01*
X183203287Y-77896130D02*
X183560430Y-79396130D01*
X183560430Y-79396130D02*
X183846144Y-78324702D01*
X183846144Y-78324702D02*
X184131859Y-79396130D01*
X184131859Y-79396130D02*
X184489002Y-77896130D01*
X185060430Y-78610416D02*
X185560430Y-78610416D01*
X185774716Y-79396130D02*
X185060430Y-79396130D01*
X185060430Y-79396130D02*
X185060430Y-77896130D01*
X185060430Y-77896130D02*
X185774716Y-77896130D01*
X187274716Y-79396130D02*
X186774716Y-78681844D01*
X186417573Y-79396130D02*
X186417573Y-77896130D01*
X186417573Y-77896130D02*
X186989002Y-77896130D01*
X186989002Y-77896130D02*
X187131859Y-77967559D01*
X187131859Y-77967559D02*
X187203288Y-78038987D01*
X187203288Y-78038987D02*
X187274716Y-78181844D01*
X187274716Y-78181844D02*
X187274716Y-78396130D01*
X187274716Y-78396130D02*
X187203288Y-78538987D01*
X187203288Y-78538987D02*
X187131859Y-78610416D01*
X187131859Y-78610416D02*
X186989002Y-78681844D01*
X186989002Y-78681844D02*
X186417573Y-78681844D01*
X188774716Y-79253273D02*
X188703288Y-79324702D01*
X188703288Y-79324702D02*
X188489002Y-79396130D01*
X188489002Y-79396130D02*
X188346145Y-79396130D01*
X188346145Y-79396130D02*
X188131859Y-79324702D01*
X188131859Y-79324702D02*
X187989002Y-79181844D01*
X187989002Y-79181844D02*
X187917573Y-79038987D01*
X187917573Y-79038987D02*
X187846145Y-78753273D01*
X187846145Y-78753273D02*
X187846145Y-78538987D01*
X187846145Y-78538987D02*
X187917573Y-78253273D01*
X187917573Y-78253273D02*
X187989002Y-78110416D01*
X187989002Y-78110416D02*
X188131859Y-77967559D01*
X188131859Y-77967559D02*
X188346145Y-77896130D01*
X188346145Y-77896130D02*
X188489002Y-77896130D01*
X188489002Y-77896130D02*
X188703288Y-77967559D01*
X188703288Y-77967559D02*
X188774716Y-78038987D01*
X189703288Y-77896130D02*
X189989002Y-77896130D01*
X189989002Y-77896130D02*
X190131859Y-77967559D01*
X190131859Y-77967559D02*
X190274716Y-78110416D01*
X190274716Y-78110416D02*
X190346145Y-78396130D01*
X190346145Y-78396130D02*
X190346145Y-78896130D01*
X190346145Y-78896130D02*
X190274716Y-79181844D01*
X190274716Y-79181844D02*
X190131859Y-79324702D01*
X190131859Y-79324702D02*
X189989002Y-79396130D01*
X189989002Y-79396130D02*
X189703288Y-79396130D01*
X189703288Y-79396130D02*
X189560431Y-79324702D01*
X189560431Y-79324702D02*
X189417573Y-79181844D01*
X189417573Y-79181844D02*
X189346145Y-78896130D01*
X189346145Y-78896130D02*
X189346145Y-78396130D01*
X189346145Y-78396130D02*
X189417573Y-78110416D01*
X189417573Y-78110416D02*
X189560431Y-77967559D01*
X189560431Y-77967559D02*
X189703288Y-77896130D01*
X191846145Y-79396130D02*
X191346145Y-78681844D01*
X190989002Y-79396130D02*
X190989002Y-77896130D01*
X190989002Y-77896130D02*
X191560431Y-77896130D01*
X191560431Y-77896130D02*
X191703288Y-77967559D01*
X191703288Y-77967559D02*
X191774717Y-78038987D01*
X191774717Y-78038987D02*
X191846145Y-78181844D01*
X191846145Y-78181844D02*
X191846145Y-78396130D01*
X191846145Y-78396130D02*
X191774717Y-78538987D01*
X191774717Y-78538987D02*
X191703288Y-78610416D01*
X191703288Y-78610416D02*
X191560431Y-78681844D01*
X191560431Y-78681844D02*
X190989002Y-78681844D01*
X192489002Y-78610416D02*
X192989002Y-78610416D01*
X193203288Y-79396130D02*
X192489002Y-79396130D01*
X192489002Y-79396130D02*
X192489002Y-77896130D01*
X192489002Y-77896130D02*
X193203288Y-77896130D01*
X193846145Y-78824702D02*
X194989003Y-78824702D01*
X195489003Y-77896130D02*
X195989003Y-79396130D01*
X195989003Y-79396130D02*
X196489003Y-77896130D01*
X196917574Y-78038987D02*
X196989002Y-77967559D01*
X196989002Y-77967559D02*
X197131860Y-77896130D01*
X197131860Y-77896130D02*
X197489002Y-77896130D01*
X197489002Y-77896130D02*
X197631860Y-77967559D01*
X197631860Y-77967559D02*
X197703288Y-78038987D01*
X197703288Y-78038987D02*
X197774717Y-78181844D01*
X197774717Y-78181844D02*
X197774717Y-78324702D01*
X197774717Y-78324702D02*
X197703288Y-78538987D01*
X197703288Y-78538987D02*
X196846145Y-79396130D01*
X196846145Y-79396130D02*
X197774717Y-79396130D01*
X198417573Y-79253273D02*
X198489002Y-79324702D01*
X198489002Y-79324702D02*
X198417573Y-79396130D01*
X198417573Y-79396130D02*
X198346145Y-79324702D01*
X198346145Y-79324702D02*
X198417573Y-79253273D01*
X198417573Y-79253273D02*
X198417573Y-79396130D01*
X199417574Y-77896130D02*
X199560431Y-77896130D01*
X199560431Y-77896130D02*
X199703288Y-77967559D01*
X199703288Y-77967559D02*
X199774717Y-78038987D01*
X199774717Y-78038987D02*
X199846145Y-78181844D01*
X199846145Y-78181844D02*
X199917574Y-78467559D01*
X199917574Y-78467559D02*
X199917574Y-78824702D01*
X199917574Y-78824702D02*
X199846145Y-79110416D01*
X199846145Y-79110416D02*
X199774717Y-79253273D01*
X199774717Y-79253273D02*
X199703288Y-79324702D01*
X199703288Y-79324702D02*
X199560431Y-79396130D01*
X199560431Y-79396130D02*
X199417574Y-79396130D01*
X199417574Y-79396130D02*
X199274717Y-79324702D01*
X199274717Y-79324702D02*
X199203288Y-79253273D01*
X199203288Y-79253273D02*
X199131859Y-79110416D01*
X199131859Y-79110416D02*
X199060431Y-78824702D01*
X199060431Y-78824702D02*
X199060431Y-78467559D01*
X199060431Y-78467559D02*
X199131859Y-78181844D01*
X199131859Y-78181844D02*
X199203288Y-78038987D01*
X199203288Y-78038987D02*
X199274717Y-77967559D01*
X199274717Y-77967559D02*
X199417574Y-77896130D01*
X200203288Y-79538987D02*
X201346145Y-79538987D01*
X201703287Y-79396130D02*
X201703287Y-77896130D01*
X201703287Y-77896130D02*
X202203287Y-78967559D01*
X202203287Y-78967559D02*
X202703287Y-77896130D01*
X202703287Y-77896130D02*
X202703287Y-79396130D01*
X203703288Y-77896130D02*
X203989002Y-77896130D01*
X203989002Y-77896130D02*
X204131859Y-77967559D01*
X204131859Y-77967559D02*
X204274716Y-78110416D01*
X204274716Y-78110416D02*
X204346145Y-78396130D01*
X204346145Y-78396130D02*
X204346145Y-78896130D01*
X204346145Y-78896130D02*
X204274716Y-79181844D01*
X204274716Y-79181844D02*
X204131859Y-79324702D01*
X204131859Y-79324702D02*
X203989002Y-79396130D01*
X203989002Y-79396130D02*
X203703288Y-79396130D01*
X203703288Y-79396130D02*
X203560431Y-79324702D01*
X203560431Y-79324702D02*
X203417573Y-79181844D01*
X203417573Y-79181844D02*
X203346145Y-78896130D01*
X203346145Y-78896130D02*
X203346145Y-78396130D01*
X203346145Y-78396130D02*
X203417573Y-78110416D01*
X203417573Y-78110416D02*
X203560431Y-77967559D01*
X203560431Y-77967559D02*
X203703288Y-77896130D01*
X204774717Y-77896130D02*
X205631860Y-77896130D01*
X205203288Y-79396130D02*
X205203288Y-77896130D01*
X206131859Y-79396130D02*
X206131859Y-77896130D01*
X206131859Y-78610416D02*
X206989002Y-78610416D01*
X206989002Y-79396130D02*
X206989002Y-77896130D01*
X207703288Y-78610416D02*
X208203288Y-78610416D01*
X208417574Y-79396130D02*
X207703288Y-79396130D01*
X207703288Y-79396130D02*
X207703288Y-77896130D01*
X207703288Y-77896130D02*
X208417574Y-77896130D01*
X209917574Y-79396130D02*
X209417574Y-78681844D01*
X209060431Y-79396130D02*
X209060431Y-77896130D01*
X209060431Y-77896130D02*
X209631860Y-77896130D01*
X209631860Y-77896130D02*
X209774717Y-77967559D01*
X209774717Y-77967559D02*
X209846146Y-78038987D01*
X209846146Y-78038987D02*
X209917574Y-78181844D01*
X209917574Y-78181844D02*
X209917574Y-78396130D01*
X209917574Y-78396130D02*
X209846146Y-78538987D01*
X209846146Y-78538987D02*
X209774717Y-78610416D01*
X209774717Y-78610416D02*
X209631860Y-78681844D01*
X209631860Y-78681844D02*
X209060431Y-78681844D01*
X211060431Y-78610416D02*
X211274717Y-78681844D01*
X211274717Y-78681844D02*
X211346146Y-78753273D01*
X211346146Y-78753273D02*
X211417574Y-78896130D01*
X211417574Y-78896130D02*
X211417574Y-79110416D01*
X211417574Y-79110416D02*
X211346146Y-79253273D01*
X211346146Y-79253273D02*
X211274717Y-79324702D01*
X211274717Y-79324702D02*
X211131860Y-79396130D01*
X211131860Y-79396130D02*
X210560431Y-79396130D01*
X210560431Y-79396130D02*
X210560431Y-77896130D01*
X210560431Y-77896130D02*
X211060431Y-77896130D01*
X211060431Y-77896130D02*
X211203289Y-77967559D01*
X211203289Y-77967559D02*
X211274717Y-78038987D01*
X211274717Y-78038987D02*
X211346146Y-78181844D01*
X211346146Y-78181844D02*
X211346146Y-78324702D01*
X211346146Y-78324702D02*
X211274717Y-78467559D01*
X211274717Y-78467559D02*
X211203289Y-78538987D01*
X211203289Y-78538987D02*
X211060431Y-78610416D01*
X211060431Y-78610416D02*
X210560431Y-78610416D01*
X212346146Y-77896130D02*
X212631860Y-77896130D01*
X212631860Y-77896130D02*
X212774717Y-77967559D01*
X212774717Y-77967559D02*
X212917574Y-78110416D01*
X212917574Y-78110416D02*
X212989003Y-78396130D01*
X212989003Y-78396130D02*
X212989003Y-78896130D01*
X212989003Y-78896130D02*
X212917574Y-79181844D01*
X212917574Y-79181844D02*
X212774717Y-79324702D01*
X212774717Y-79324702D02*
X212631860Y-79396130D01*
X212631860Y-79396130D02*
X212346146Y-79396130D01*
X212346146Y-79396130D02*
X212203289Y-79324702D01*
X212203289Y-79324702D02*
X212060431Y-79181844D01*
X212060431Y-79181844D02*
X211989003Y-78896130D01*
X211989003Y-78896130D02*
X211989003Y-78396130D01*
X211989003Y-78396130D02*
X212060431Y-78110416D01*
X212060431Y-78110416D02*
X212203289Y-77967559D01*
X212203289Y-77967559D02*
X212346146Y-77896130D01*
X213560432Y-78967559D02*
X214274718Y-78967559D01*
X213417575Y-79396130D02*
X213917575Y-77896130D01*
X213917575Y-77896130D02*
X214417575Y-79396130D01*
X215774717Y-79396130D02*
X215274717Y-78681844D01*
X214917574Y-79396130D02*
X214917574Y-77896130D01*
X214917574Y-77896130D02*
X215489003Y-77896130D01*
X215489003Y-77896130D02*
X215631860Y-77967559D01*
X215631860Y-77967559D02*
X215703289Y-78038987D01*
X215703289Y-78038987D02*
X215774717Y-78181844D01*
X215774717Y-78181844D02*
X215774717Y-78396130D01*
X215774717Y-78396130D02*
X215703289Y-78538987D01*
X215703289Y-78538987D02*
X215631860Y-78610416D01*
X215631860Y-78610416D02*
X215489003Y-78681844D01*
X215489003Y-78681844D02*
X214917574Y-78681844D01*
X216417574Y-79396130D02*
X216417574Y-77896130D01*
X216417574Y-77896130D02*
X216774717Y-77896130D01*
X216774717Y-77896130D02*
X216989003Y-77967559D01*
X216989003Y-77967559D02*
X217131860Y-78110416D01*
X217131860Y-78110416D02*
X217203289Y-78253273D01*
X217203289Y-78253273D02*
X217274717Y-78538987D01*
X217274717Y-78538987D02*
X217274717Y-78753273D01*
X217274717Y-78753273D02*
X217203289Y-79038987D01*
X217203289Y-79038987D02*
X217131860Y-79181844D01*
X217131860Y-79181844D02*
X216989003Y-79324702D01*
X216989003Y-79324702D02*
X216774717Y-79396130D01*
X216774717Y-79396130D02*
X216417574Y-79396130D01*
X217917574Y-79253273D02*
X217989003Y-79324702D01*
X217989003Y-79324702D02*
X217917574Y-79396130D01*
X217917574Y-79396130D02*
X217846146Y-79324702D01*
X217846146Y-79324702D02*
X217917574Y-79253273D01*
X217917574Y-79253273D02*
X217917574Y-79396130D01*
X218631860Y-79396130D02*
X218631860Y-77896130D01*
X218774718Y-78824702D02*
X219203289Y-79396130D01*
X219203289Y-78396130D02*
X218631860Y-78967559D01*
X219846146Y-79396130D02*
X219846146Y-78396130D01*
X219846146Y-77896130D02*
X219774718Y-77967559D01*
X219774718Y-77967559D02*
X219846146Y-78038987D01*
X219846146Y-78038987D02*
X219917575Y-77967559D01*
X219917575Y-77967559D02*
X219846146Y-77896130D01*
X219846146Y-77896130D02*
X219846146Y-78038987D01*
X221203290Y-79324702D02*
X221060432Y-79396130D01*
X221060432Y-79396130D02*
X220774718Y-79396130D01*
X220774718Y-79396130D02*
X220631861Y-79324702D01*
X220631861Y-79324702D02*
X220560432Y-79253273D01*
X220560432Y-79253273D02*
X220489004Y-79110416D01*
X220489004Y-79110416D02*
X220489004Y-78681844D01*
X220489004Y-78681844D02*
X220560432Y-78538987D01*
X220560432Y-78538987D02*
X220631861Y-78467559D01*
X220631861Y-78467559D02*
X220774718Y-78396130D01*
X220774718Y-78396130D02*
X221060432Y-78396130D01*
X221060432Y-78396130D02*
X221203290Y-78467559D01*
X222489004Y-79396130D02*
X222489004Y-78610416D01*
X222489004Y-78610416D02*
X222417575Y-78467559D01*
X222417575Y-78467559D02*
X222274718Y-78396130D01*
X222274718Y-78396130D02*
X221989004Y-78396130D01*
X221989004Y-78396130D02*
X221846146Y-78467559D01*
X222489004Y-79324702D02*
X222346146Y-79396130D01*
X222346146Y-79396130D02*
X221989004Y-79396130D01*
X221989004Y-79396130D02*
X221846146Y-79324702D01*
X221846146Y-79324702D02*
X221774718Y-79181844D01*
X221774718Y-79181844D02*
X221774718Y-79038987D01*
X221774718Y-79038987D02*
X221846146Y-78896130D01*
X221846146Y-78896130D02*
X221989004Y-78824702D01*
X221989004Y-78824702D02*
X222346146Y-78824702D01*
X222346146Y-78824702D02*
X222489004Y-78753273D01*
X223846147Y-79396130D02*
X223846147Y-77896130D01*
X223846147Y-79324702D02*
X223703289Y-79396130D01*
X223703289Y-79396130D02*
X223417575Y-79396130D01*
X223417575Y-79396130D02*
X223274718Y-79324702D01*
X223274718Y-79324702D02*
X223203289Y-79253273D01*
X223203289Y-79253273D02*
X223131861Y-79110416D01*
X223131861Y-79110416D02*
X223131861Y-78681844D01*
X223131861Y-78681844D02*
X223203289Y-78538987D01*
X223203289Y-78538987D02*
X223274718Y-78467559D01*
X223274718Y-78467559D02*
X223417575Y-78396130D01*
X223417575Y-78396130D02*
X223703289Y-78396130D01*
X223703289Y-78396130D02*
X223846147Y-78467559D01*
X224203290Y-79538987D02*
X225346147Y-79538987D01*
X225703289Y-78396130D02*
X225703289Y-79896130D01*
X225703289Y-78467559D02*
X225846147Y-78396130D01*
X225846147Y-78396130D02*
X226131861Y-78396130D01*
X226131861Y-78396130D02*
X226274718Y-78467559D01*
X226274718Y-78467559D02*
X226346147Y-78538987D01*
X226346147Y-78538987D02*
X226417575Y-78681844D01*
X226417575Y-78681844D02*
X226417575Y-79110416D01*
X226417575Y-79110416D02*
X226346147Y-79253273D01*
X226346147Y-79253273D02*
X226274718Y-79324702D01*
X226274718Y-79324702D02*
X226131861Y-79396130D01*
X226131861Y-79396130D02*
X225846147Y-79396130D01*
X225846147Y-79396130D02*
X225703289Y-79324702D01*
X227703290Y-79324702D02*
X227560432Y-79396130D01*
X227560432Y-79396130D02*
X227274718Y-79396130D01*
X227274718Y-79396130D02*
X227131861Y-79324702D01*
X227131861Y-79324702D02*
X227060432Y-79253273D01*
X227060432Y-79253273D02*
X226989004Y-79110416D01*
X226989004Y-79110416D02*
X226989004Y-78681844D01*
X226989004Y-78681844D02*
X227060432Y-78538987D01*
X227060432Y-78538987D02*
X227131861Y-78467559D01*
X227131861Y-78467559D02*
X227274718Y-78396130D01*
X227274718Y-78396130D02*
X227560432Y-78396130D01*
X227560432Y-78396130D02*
X227703290Y-78467559D01*
X228346146Y-79396130D02*
X228346146Y-77896130D01*
X228346146Y-78467559D02*
X228489004Y-78396130D01*
X228489004Y-78396130D02*
X228774718Y-78396130D01*
X228774718Y-78396130D02*
X228917575Y-78467559D01*
X228917575Y-78467559D02*
X228989004Y-78538987D01*
X228989004Y-78538987D02*
X229060432Y-78681844D01*
X229060432Y-78681844D02*
X229060432Y-79110416D01*
X229060432Y-79110416D02*
X228989004Y-79253273D01*
X228989004Y-79253273D02*
X228917575Y-79324702D01*
X228917575Y-79324702D02*
X228774718Y-79396130D01*
X228774718Y-79396130D02*
X228489004Y-79396130D01*
X228489004Y-79396130D02*
X228346146Y-79324702D01*
D10*
D11*
X172989002Y-74502202D02*
X280989002Y-74502202D01*
D10*
D11*
X174274716Y-76624702D02*
X174489002Y-76696130D01*
X174489002Y-76696130D02*
X174846144Y-76696130D01*
X174846144Y-76696130D02*
X174989002Y-76624702D01*
X174989002Y-76624702D02*
X175060430Y-76553273D01*
X175060430Y-76553273D02*
X175131859Y-76410416D01*
X175131859Y-76410416D02*
X175131859Y-76267559D01*
X175131859Y-76267559D02*
X175060430Y-76124702D01*
X175060430Y-76124702D02*
X174989002Y-76053273D01*
X174989002Y-76053273D02*
X174846144Y-75981844D01*
X174846144Y-75981844D02*
X174560430Y-75910416D01*
X174560430Y-75910416D02*
X174417573Y-75838987D01*
X174417573Y-75838987D02*
X174346144Y-75767559D01*
X174346144Y-75767559D02*
X174274716Y-75624702D01*
X174274716Y-75624702D02*
X174274716Y-75481844D01*
X174274716Y-75481844D02*
X174346144Y-75338987D01*
X174346144Y-75338987D02*
X174417573Y-75267559D01*
X174417573Y-75267559D02*
X174560430Y-75196130D01*
X174560430Y-75196130D02*
X174917573Y-75196130D01*
X174917573Y-75196130D02*
X175131859Y-75267559D01*
X175774715Y-76696130D02*
X175774715Y-75196130D01*
X176417573Y-76696130D02*
X176417573Y-75910416D01*
X176417573Y-75910416D02*
X176346144Y-75767559D01*
X176346144Y-75767559D02*
X176203287Y-75696130D01*
X176203287Y-75696130D02*
X175989001Y-75696130D01*
X175989001Y-75696130D02*
X175846144Y-75767559D01*
X175846144Y-75767559D02*
X175774715Y-75838987D01*
X177703287Y-76624702D02*
X177560430Y-76696130D01*
X177560430Y-76696130D02*
X177274716Y-76696130D01*
X177274716Y-76696130D02*
X177131858Y-76624702D01*
X177131858Y-76624702D02*
X177060430Y-76481844D01*
X177060430Y-76481844D02*
X177060430Y-75910416D01*
X177060430Y-75910416D02*
X177131858Y-75767559D01*
X177131858Y-75767559D02*
X177274716Y-75696130D01*
X177274716Y-75696130D02*
X177560430Y-75696130D01*
X177560430Y-75696130D02*
X177703287Y-75767559D01*
X177703287Y-75767559D02*
X177774716Y-75910416D01*
X177774716Y-75910416D02*
X177774716Y-76053273D01*
X177774716Y-76053273D02*
X177060430Y-76196130D01*
X178989001Y-76624702D02*
X178846144Y-76696130D01*
X178846144Y-76696130D02*
X178560430Y-76696130D01*
X178560430Y-76696130D02*
X178417572Y-76624702D01*
X178417572Y-76624702D02*
X178346144Y-76481844D01*
X178346144Y-76481844D02*
X178346144Y-75910416D01*
X178346144Y-75910416D02*
X178417572Y-75767559D01*
X178417572Y-75767559D02*
X178560430Y-75696130D01*
X178560430Y-75696130D02*
X178846144Y-75696130D01*
X178846144Y-75696130D02*
X178989001Y-75767559D01*
X178989001Y-75767559D02*
X179060430Y-75910416D01*
X179060430Y-75910416D02*
X179060430Y-76053273D01*
X179060430Y-76053273D02*
X178346144Y-76196130D01*
X179489001Y-75696130D02*
X180060429Y-75696130D01*
X179703286Y-75196130D02*
X179703286Y-76481844D01*
X179703286Y-76481844D02*
X179774715Y-76624702D01*
X179774715Y-76624702D02*
X179917572Y-76696130D01*
X179917572Y-76696130D02*
X180060429Y-76696130D01*
X180560429Y-76553273D02*
X180631858Y-76624702D01*
X180631858Y-76624702D02*
X180560429Y-76696130D01*
X180560429Y-76696130D02*
X180489001Y-76624702D01*
X180489001Y-76624702D02*
X180560429Y-76553273D01*
X180560429Y-76553273D02*
X180560429Y-76696130D01*
X180560429Y-75767559D02*
X180631858Y-75838987D01*
X180631858Y-75838987D02*
X180560429Y-75910416D01*
X180560429Y-75910416D02*
X180489001Y-75838987D01*
X180489001Y-75838987D02*
X180560429Y-75767559D01*
X180560429Y-75767559D02*
X180560429Y-75910416D01*
D10*
D12*
X174346144Y-73696130D02*
X174346144Y-72196130D01*
X174346144Y-72196130D02*
X174703287Y-72196130D01*
X174703287Y-72196130D02*
X174917573Y-72267559D01*
X174917573Y-72267559D02*
X175060430Y-72410416D01*
X175060430Y-72410416D02*
X175131859Y-72553273D01*
X175131859Y-72553273D02*
X175203287Y-72838987D01*
X175203287Y-72838987D02*
X175203287Y-73053273D01*
X175203287Y-73053273D02*
X175131859Y-73338987D01*
X175131859Y-73338987D02*
X175060430Y-73481844D01*
X175060430Y-73481844D02*
X174917573Y-73624702D01*
X174917573Y-73624702D02*
X174703287Y-73696130D01*
X174703287Y-73696130D02*
X174346144Y-73696130D01*
X176703287Y-73696130D02*
X176203287Y-72981844D01*
X175846144Y-73696130D02*
X175846144Y-72196130D01*
X175846144Y-72196130D02*
X176417573Y-72196130D01*
X176417573Y-72196130D02*
X176560430Y-72267559D01*
X176560430Y-72267559D02*
X176631859Y-72338987D01*
X176631859Y-72338987D02*
X176703287Y-72481844D01*
X176703287Y-72481844D02*
X176703287Y-72696130D01*
X176703287Y-72696130D02*
X176631859Y-72838987D01*
X176631859Y-72838987D02*
X176560430Y-72910416D01*
X176560430Y-72910416D02*
X176417573Y-72981844D01*
X176417573Y-72981844D02*
X175846144Y-72981844D01*
X177274716Y-73267559D02*
X177989002Y-73267559D01*
X177131859Y-73696130D02*
X177631859Y-72196130D01*
X177631859Y-72196130D02*
X178131859Y-73696130D01*
X179417573Y-72267559D02*
X179274716Y-72196130D01*
X179274716Y-72196130D02*
X179060430Y-72196130D01*
X179060430Y-72196130D02*
X178846144Y-72267559D01*
X178846144Y-72267559D02*
X178703287Y-72410416D01*
X178703287Y-72410416D02*
X178631858Y-72553273D01*
X178631858Y-72553273D02*
X178560430Y-72838987D01*
X178560430Y-72838987D02*
X178560430Y-73053273D01*
X178560430Y-73053273D02*
X178631858Y-73338987D01*
X178631858Y-73338987D02*
X178703287Y-73481844D01*
X178703287Y-73481844D02*
X178846144Y-73624702D01*
X178846144Y-73624702D02*
X179060430Y-73696130D01*
X179060430Y-73696130D02*
X179203287Y-73696130D01*
X179203287Y-73696130D02*
X179417573Y-73624702D01*
X179417573Y-73624702D02*
X179489001Y-73553273D01*
X179489001Y-73553273D02*
X179489001Y-73053273D01*
X179489001Y-73053273D02*
X179203287Y-73053273D01*
X180417573Y-72196130D02*
X180703287Y-72196130D01*
X180703287Y-72196130D02*
X180846144Y-72267559D01*
X180846144Y-72267559D02*
X180989001Y-72410416D01*
X180989001Y-72410416D02*
X181060430Y-72696130D01*
X181060430Y-72696130D02*
X181060430Y-73196130D01*
X181060430Y-73196130D02*
X180989001Y-73481844D01*
X180989001Y-73481844D02*
X180846144Y-73624702D01*
X180846144Y-73624702D02*
X180703287Y-73696130D01*
X180703287Y-73696130D02*
X180417573Y-73696130D01*
X180417573Y-73696130D02*
X180274716Y-73624702D01*
X180274716Y-73624702D02*
X180131858Y-73481844D01*
X180131858Y-73481844D02*
X180060430Y-73196130D01*
X180060430Y-73196130D02*
X180060430Y-72696130D01*
X180060430Y-72696130D02*
X180131858Y-72410416D01*
X180131858Y-72410416D02*
X180274716Y-72267559D01*
X180274716Y-72267559D02*
X180417573Y-72196130D01*
X181703287Y-73696130D02*
X181703287Y-72196130D01*
X181703287Y-72196130D02*
X182560430Y-73696130D01*
X182560430Y-73696130D02*
X182560430Y-72196130D01*
X183774716Y-72910416D02*
X183274716Y-72910416D01*
X183274716Y-73696130D02*
X183274716Y-72196130D01*
X183274716Y-72196130D02*
X183989002Y-72196130D01*
X185274716Y-73696130D02*
X184560430Y-73696130D01*
X184560430Y-73696130D02*
X184560430Y-72196130D01*
X186060431Y-72981844D02*
X186060431Y-73696130D01*
X185560431Y-72196130D02*
X186060431Y-72981844D01*
X186060431Y-72981844D02*
X186560431Y-72196130D01*
X188203287Y-73696130D02*
X188203287Y-72196130D01*
X188203287Y-72196130D02*
X188774716Y-72196130D01*
X188774716Y-72196130D02*
X188917573Y-72267559D01*
X188917573Y-72267559D02*
X188989002Y-72338987D01*
X188989002Y-72338987D02*
X189060430Y-72481844D01*
X189060430Y-72481844D02*
X189060430Y-72696130D01*
X189060430Y-72696130D02*
X188989002Y-72838987D01*
X188989002Y-72838987D02*
X188917573Y-72910416D01*
X188917573Y-72910416D02*
X188774716Y-72981844D01*
X188774716Y-72981844D02*
X188203287Y-72981844D01*
X189989002Y-72196130D02*
X190274716Y-72196130D01*
X190274716Y-72196130D02*
X190417573Y-72267559D01*
X190417573Y-72267559D02*
X190560430Y-72410416D01*
X190560430Y-72410416D02*
X190631859Y-72696130D01*
X190631859Y-72696130D02*
X190631859Y-73196130D01*
X190631859Y-73196130D02*
X190560430Y-73481844D01*
X190560430Y-73481844D02*
X190417573Y-73624702D01*
X190417573Y-73624702D02*
X190274716Y-73696130D01*
X190274716Y-73696130D02*
X189989002Y-73696130D01*
X189989002Y-73696130D02*
X189846145Y-73624702D01*
X189846145Y-73624702D02*
X189703287Y-73481844D01*
X189703287Y-73481844D02*
X189631859Y-73196130D01*
X189631859Y-73196130D02*
X189631859Y-72696130D01*
X189631859Y-72696130D02*
X189703287Y-72410416D01*
X189703287Y-72410416D02*
X189846145Y-72267559D01*
X189846145Y-72267559D02*
X189989002Y-72196130D01*
X191131859Y-72196130D02*
X191489002Y-73696130D01*
X191489002Y-73696130D02*
X191774716Y-72624702D01*
X191774716Y-72624702D02*
X192060431Y-73696130D01*
X192060431Y-73696130D02*
X192417574Y-72196130D01*
X192989002Y-72910416D02*
X193489002Y-72910416D01*
X193703288Y-73696130D02*
X192989002Y-73696130D01*
X192989002Y-73696130D02*
X192989002Y-72196130D01*
X192989002Y-72196130D02*
X193703288Y-72196130D01*
X195203288Y-73696130D02*
X194703288Y-72981844D01*
X194346145Y-73696130D02*
X194346145Y-72196130D01*
X194346145Y-72196130D02*
X194917574Y-72196130D01*
X194917574Y-72196130D02*
X195060431Y-72267559D01*
X195060431Y-72267559D02*
X195131860Y-72338987D01*
X195131860Y-72338987D02*
X195203288Y-72481844D01*
X195203288Y-72481844D02*
X195203288Y-72696130D01*
X195203288Y-72696130D02*
X195131860Y-72838987D01*
X195131860Y-72838987D02*
X195060431Y-72910416D01*
X195060431Y-72910416D02*
X194917574Y-72981844D01*
X194917574Y-72981844D02*
X194346145Y-72981844D01*
X196917574Y-73624702D02*
X197131860Y-73696130D01*
X197131860Y-73696130D02*
X197489002Y-73696130D01*
X197489002Y-73696130D02*
X197631860Y-73624702D01*
X197631860Y-73624702D02*
X197703288Y-73553273D01*
X197703288Y-73553273D02*
X197774717Y-73410416D01*
X197774717Y-73410416D02*
X197774717Y-73267559D01*
X197774717Y-73267559D02*
X197703288Y-73124702D01*
X197703288Y-73124702D02*
X197631860Y-73053273D01*
X197631860Y-73053273D02*
X197489002Y-72981844D01*
X197489002Y-72981844D02*
X197203288Y-72910416D01*
X197203288Y-72910416D02*
X197060431Y-72838987D01*
X197060431Y-72838987D02*
X196989002Y-72767559D01*
X196989002Y-72767559D02*
X196917574Y-72624702D01*
X196917574Y-72624702D02*
X196917574Y-72481844D01*
X196917574Y-72481844D02*
X196989002Y-72338987D01*
X196989002Y-72338987D02*
X197060431Y-72267559D01*
X197060431Y-72267559D02*
X197203288Y-72196130D01*
X197203288Y-72196130D02*
X197560431Y-72196130D01*
X197560431Y-72196130D02*
X197774717Y-72267559D01*
X198703288Y-72981844D02*
X198703288Y-73696130D01*
X198203288Y-72196130D02*
X198703288Y-72981844D01*
X198703288Y-72981844D02*
X199203288Y-72196130D01*
X199631859Y-73624702D02*
X199846145Y-73696130D01*
X199846145Y-73696130D02*
X200203287Y-73696130D01*
X200203287Y-73696130D02*
X200346145Y-73624702D01*
X200346145Y-73624702D02*
X200417573Y-73553273D01*
X200417573Y-73553273D02*
X200489002Y-73410416D01*
X200489002Y-73410416D02*
X200489002Y-73267559D01*
X200489002Y-73267559D02*
X200417573Y-73124702D01*
X200417573Y-73124702D02*
X200346145Y-73053273D01*
X200346145Y-73053273D02*
X200203287Y-72981844D01*
X200203287Y-72981844D02*
X199917573Y-72910416D01*
X199917573Y-72910416D02*
X199774716Y-72838987D01*
X199774716Y-72838987D02*
X199703287Y-72767559D01*
X199703287Y-72767559D02*
X199631859Y-72624702D01*
X199631859Y-72624702D02*
X199631859Y-72481844D01*
X199631859Y-72481844D02*
X199703287Y-72338987D01*
X199703287Y-72338987D02*
X199774716Y-72267559D01*
X199774716Y-72267559D02*
X199917573Y-72196130D01*
X199917573Y-72196130D02*
X200274716Y-72196130D01*
X200274716Y-72196130D02*
X200489002Y-72267559D01*
X200917573Y-72196130D02*
X201774716Y-72196130D01*
X201346144Y-73696130D02*
X201346144Y-72196130D01*
X202274715Y-72910416D02*
X202774715Y-72910416D01*
X202989001Y-73696130D02*
X202274715Y-73696130D01*
X202274715Y-73696130D02*
X202274715Y-72196130D01*
X202274715Y-72196130D02*
X202989001Y-72196130D01*
X203631858Y-73696130D02*
X203631858Y-72196130D01*
X203631858Y-72196130D02*
X204131858Y-73267559D01*
X204131858Y-73267559D02*
X204631858Y-72196130D01*
X204631858Y-72196130D02*
X204631858Y-73696130D01*
X205274716Y-73624702D02*
X205489002Y-73696130D01*
X205489002Y-73696130D02*
X205846144Y-73696130D01*
X205846144Y-73696130D02*
X205989002Y-73624702D01*
X205989002Y-73624702D02*
X206060430Y-73553273D01*
X206060430Y-73553273D02*
X206131859Y-73410416D01*
X206131859Y-73410416D02*
X206131859Y-73267559D01*
X206131859Y-73267559D02*
X206060430Y-73124702D01*
X206060430Y-73124702D02*
X205989002Y-73053273D01*
X205989002Y-73053273D02*
X205846144Y-72981844D01*
X205846144Y-72981844D02*
X205560430Y-72910416D01*
X205560430Y-72910416D02*
X205417573Y-72838987D01*
X205417573Y-72838987D02*
X205346144Y-72767559D01*
X205346144Y-72767559D02*
X205274716Y-72624702D01*
X205274716Y-72624702D02*
X205274716Y-72481844D01*
X205274716Y-72481844D02*
X205346144Y-72338987D01*
X205346144Y-72338987D02*
X205417573Y-72267559D01*
X205417573Y-72267559D02*
X205560430Y-72196130D01*
X205560430Y-72196130D02*
X205917573Y-72196130D01*
X205917573Y-72196130D02*
X206131859Y-72267559D01*
D10*
D11*
D10*
D11*
D10*
D11*
D10*
D11*
D10*
D11*
X192989002Y-84502202D02*
X192989002Y-87502202D01*
D10*
D11*
X256989002Y-84502202D02*
X256989002Y-91002202D01*
D14*
X2000000Y87000000D02*
G75*
G03*
X0Y85000000I2J-2000002D01*
G01*
X150000000Y2000000D02*
X150000000Y85000000D01*
X148000000Y87000000D02*
X2000000Y87000000D01*
X148000000Y0D02*
G75*
G03*
X150000000Y2000000I2J1999998D01*
G01*
X0Y85000000D02*
X0Y2000000D01*
X2000000Y0D02*
X148000000Y0D01*
X150000004Y85000000D02*
G75*
G03*
X148000000Y87000000I-2000002J-2D01*
G01*
X4Y2000000D02*
G75*
G03*
X2000000Y0I1999998J-2D01*
G01*
M02*
