G04 #@! TF.GenerationSoftware,KiCad,Pcbnew,7.0.1*
G04 #@! TF.CreationDate,2024-01-14T13:20:50-08:00*
G04 #@! TF.ProjectId,POWERCORE-V2.0_MOTHERBOARD,504f5745-5243-44f5-9245-2d56322e305f,rev?*
G04 #@! TF.SameCoordinates,PX791ddbePYb90347e*
G04 #@! TF.FileFunction,Paste,Bot*
G04 #@! TF.FilePolarity,Positive*
%FSLAX46Y46*%
G04 Gerber Fmt 4.6, Leading zero omitted, Abs format (unit mm)*
G04 Created by KiCad (PCBNEW 7.0.1) date 2024-01-14 13:20:50*
%MOMM*%
%LPD*%
G01*
G04 APERTURE LIST*
G04 Aperture macros list*
%AMRoundRect*
0 Rectangle with rounded corners*
0 $1 Rounding radius*
0 $2 $3 $4 $5 $6 $7 $8 $9 X,Y pos of 4 corners*
0 Add a 4 corners polygon primitive as box body*
4,1,4,$2,$3,$4,$5,$6,$7,$8,$9,$2,$3,0*
0 Add four circle primitives for the rounded corners*
1,1,$1+$1,$2,$3*
1,1,$1+$1,$4,$5*
1,1,$1+$1,$6,$7*
1,1,$1+$1,$8,$9*
0 Add four rect primitives between the rounded corners*
20,1,$1+$1,$2,$3,$4,$5,0*
20,1,$1+$1,$4,$5,$6,$7,0*
20,1,$1+$1,$6,$7,$8,$9,0*
20,1,$1+$1,$8,$9,$2,$3,0*%
G04 Aperture macros list end*
%ADD10RoundRect,0.200000X-0.275000X0.200000X-0.275000X-0.200000X0.275000X-0.200000X0.275000X0.200000X0*%
%ADD11RoundRect,0.225000X-0.250000X0.225000X-0.250000X-0.225000X0.250000X-0.225000X0.250000X0.225000X0*%
%ADD12RoundRect,0.200000X-0.200000X-0.275000X0.200000X-0.275000X0.200000X0.275000X-0.200000X0.275000X0*%
%ADD13RoundRect,0.225000X-0.225000X-0.250000X0.225000X-0.250000X0.225000X0.250000X-0.225000X0.250000X0*%
%ADD14R,0.400000X0.650000*%
%ADD15RoundRect,0.200000X0.275000X-0.200000X0.275000X0.200000X-0.275000X0.200000X-0.275000X-0.200000X0*%
%ADD16RoundRect,0.225000X0.225000X0.250000X-0.225000X0.250000X-0.225000X-0.250000X0.225000X-0.250000X0*%
%ADD17RoundRect,0.200000X0.200000X0.275000X-0.200000X0.275000X-0.200000X-0.275000X0.200000X-0.275000X0*%
%ADD18RoundRect,0.150000X0.150000X-0.512500X0.150000X0.512500X-0.150000X0.512500X-0.150000X-0.512500X0*%
%ADD19RoundRect,0.250000X-0.850000X-0.350000X0.850000X-0.350000X0.850000X0.350000X-0.850000X0.350000X0*%
%ADD20RoundRect,0.250000X-1.275000X-1.125000X1.275000X-1.125000X1.275000X1.125000X-1.275000X1.125000X0*%
%ADD21R,0.650000X0.400000*%
%ADD22RoundRect,0.225000X0.250000X-0.225000X0.250000X0.225000X-0.250000X0.225000X-0.250000X-0.225000X0*%
%ADD23RoundRect,0.249999X-0.395001X0.395001X-0.395001X-0.395001X0.395001X-0.395001X0.395001X0.395001X0*%
%ADD24RoundRect,0.050000X-0.050000X0.387500X-0.050000X-0.387500X0.050000X-0.387500X0.050000X0.387500X0*%
%ADD25RoundRect,0.050000X-0.387500X0.050000X-0.387500X-0.050000X0.387500X-0.050000X0.387500X0.050000X0*%
%ADD26RoundRect,0.150000X0.512500X0.150000X-0.512500X0.150000X-0.512500X-0.150000X0.512500X-0.150000X0*%
%ADD27R,1.450000X0.450000*%
%ADD28RoundRect,0.150000X-0.150000X0.825000X-0.150000X-0.825000X0.150000X-0.825000X0.150000X0.825000X0*%
%ADD29R,1.050000X1.400000*%
%ADD30R,2.000000X1.100000*%
%ADD31R,0.800000X0.800000*%
%ADD32R,0.750000X0.650000*%
%ADD33R,0.500000X0.250000*%
%ADD34R,2.000000X1.500000*%
%ADD35R,2.000000X3.800000*%
%ADD36R,5.600000X2.100000*%
%ADD37R,0.450000X1.450000*%
%ADD38R,1.150000X0.600000*%
%ADD39R,1.150000X0.300000*%
%ADD40R,1.500000X1.500000*%
G04 APERTURE END LIST*
D10*
X120777002Y67570998D03*
X120777002Y65920998D03*
D11*
X35560002Y13418998D03*
X35560002Y11868998D03*
D12*
X39688002Y30296998D03*
X41338002Y30296998D03*
D13*
X127876002Y65983998D03*
X129426002Y65983998D03*
D14*
X92471002Y42300998D03*
X91821002Y42300998D03*
X91171002Y42300998D03*
X91171002Y44200998D03*
X92471002Y44200998D03*
D15*
X120904002Y49156998D03*
X120904002Y50806998D03*
D16*
X101105002Y44012998D03*
X99555002Y44012998D03*
D12*
X22289002Y18104998D03*
X23939002Y18104998D03*
D16*
X23889002Y14548998D03*
X22339002Y14548998D03*
D17*
X88709002Y38297998D03*
X87059002Y38297998D03*
D13*
X41897002Y14167998D03*
X43447002Y14167998D03*
D18*
X21143002Y39517496D03*
X19243002Y39517496D03*
X20193002Y41792496D03*
D19*
X65572002Y9855998D03*
D20*
X70197002Y13660998D03*
X70197002Y10610998D03*
X73547002Y13660998D03*
X73547002Y10610998D03*
D19*
X65572002Y14415998D03*
D11*
X94234002Y44025998D03*
X94234002Y42475998D03*
D10*
X110998002Y54489998D03*
X110998002Y52839998D03*
D12*
X123000002Y43631998D03*
X124650002Y43631998D03*
D17*
X93027002Y68269998D03*
X91377002Y68269998D03*
D12*
X126302002Y54807998D03*
X127952002Y54807998D03*
D15*
X17526002Y27439998D03*
X17526002Y29089998D03*
D21*
X96073002Y36534998D03*
X96073002Y35884998D03*
X96073002Y35234998D03*
X94173002Y35234998D03*
X94173002Y36534998D03*
D22*
X34417002Y28632998D03*
X34417002Y30182998D03*
D12*
X90615002Y38297998D03*
X92265002Y38297998D03*
D16*
X23889002Y16326998D03*
X22339002Y16326998D03*
D13*
X94348002Y38297998D03*
X95898002Y38297998D03*
D12*
X127826002Y64205998D03*
X129476002Y64205998D03*
D22*
X29337002Y28632998D03*
X29337002Y30182998D03*
D10*
X120777002Y70872998D03*
X120777002Y69222998D03*
D13*
X98031002Y38297998D03*
X99581002Y38297998D03*
D23*
X34201002Y21317998D03*
X32601002Y21317998D03*
X34201002Y19717998D03*
X32601002Y19717998D03*
D24*
X30801002Y23955498D03*
X31201002Y23955498D03*
X31601002Y23955498D03*
X32001002Y23955498D03*
X32401002Y23955498D03*
X32801002Y23955498D03*
X33201002Y23955498D03*
X33601002Y23955498D03*
X34001002Y23955498D03*
X34401002Y23955498D03*
X34801002Y23955498D03*
X35201002Y23955498D03*
X35601002Y23955498D03*
X36001002Y23955498D03*
D25*
X36838502Y23117998D03*
X36838502Y22717998D03*
X36838502Y22317998D03*
X36838502Y21917998D03*
X36838502Y21517998D03*
X36838502Y21117998D03*
X36838502Y20717998D03*
X36838502Y20317998D03*
X36838502Y19917998D03*
X36838502Y19517998D03*
X36838502Y19117998D03*
X36838502Y18717998D03*
X36838502Y18317998D03*
X36838502Y17917998D03*
D24*
X36001002Y17080498D03*
X35601002Y17080498D03*
X35201002Y17080498D03*
X34801002Y17080498D03*
X34401002Y17080498D03*
X34001002Y17080498D03*
X33601002Y17080498D03*
X33201002Y17080498D03*
X32801002Y17080498D03*
X32401002Y17080498D03*
X32001002Y17080498D03*
X31601002Y17080498D03*
X31201002Y17080498D03*
X30801002Y17080498D03*
D25*
X29963502Y17917998D03*
X29963502Y18317998D03*
X29963502Y18717998D03*
X29963502Y19117998D03*
X29963502Y19517998D03*
X29963502Y19917998D03*
X29963502Y20317998D03*
X29963502Y20717998D03*
X29963502Y21117998D03*
X29963502Y21517998D03*
X29963502Y21917998D03*
X29963502Y22317998D03*
X29963502Y22717998D03*
X29963502Y23117998D03*
D26*
X118866502Y54614998D03*
X118866502Y52714998D03*
X116591502Y53664998D03*
D12*
X42990002Y30296998D03*
X44640002Y30296998D03*
D17*
X93027002Y71825998D03*
X91377002Y71825998D03*
D21*
X90490002Y35234998D03*
X90490002Y35884998D03*
X90490002Y36534998D03*
X92390002Y36534998D03*
X92390002Y35884998D03*
X92390002Y35234998D03*
D12*
X39688002Y39186998D03*
X41338002Y39186998D03*
D14*
X129779002Y60583998D03*
X130429002Y60583998D03*
X131079002Y60583998D03*
X131079002Y58683998D03*
X130429002Y58683998D03*
X129779002Y58683998D03*
D17*
X44640002Y39186998D03*
X42990002Y39186998D03*
D12*
X19368002Y35630998D03*
X21018002Y35630998D03*
X91377002Y66491998D03*
X93027002Y66491998D03*
D27*
X127676002Y50956998D03*
X127676002Y50306998D03*
X127676002Y49656998D03*
X127676002Y49006998D03*
X123276002Y49006998D03*
X123276002Y49656998D03*
X123276002Y50306998D03*
X123276002Y50956998D03*
D13*
X41897002Y17723998D03*
X43447002Y17723998D03*
D10*
X114554002Y54489998D03*
X114554002Y52839998D03*
D17*
X52895002Y19247998D03*
X51245002Y19247998D03*
X41338002Y28518998D03*
X39688002Y28518998D03*
D28*
X21209002Y32390998D03*
X22479002Y32390998D03*
X23749002Y32390998D03*
X25019002Y32390998D03*
X25019002Y27440998D03*
X23749002Y27440998D03*
X22479002Y27440998D03*
X21209002Y27440998D03*
D29*
X2879000Y30458000D03*
X2879000Y34058000D03*
X1439000Y30458000D03*
X1439000Y34058000D03*
D17*
X122618002Y73222998D03*
X120968002Y73222998D03*
D15*
X34798002Y37472998D03*
X34798002Y39122998D03*
X16637002Y22740998D03*
X16637002Y24390998D03*
X126365002Y69476998D03*
X126365002Y71126998D03*
D10*
X120904002Y58299998D03*
X120904002Y56649998D03*
D26*
X127629502Y60583998D03*
X127629502Y58683998D03*
X125354502Y59633998D03*
D11*
X112776002Y54439998D03*
X112776002Y52889998D03*
D10*
X16002002Y8261998D03*
X16002002Y6611998D03*
D11*
X27432002Y12910998D03*
X27432002Y11360998D03*
D15*
X31242002Y37472998D03*
X31242002Y39122998D03*
D17*
X32448002Y9341998D03*
X30798002Y9341998D03*
D16*
X97549000Y46044998D03*
X95999000Y46044998D03*
D30*
X65541000Y6928998D03*
D31*
X67441000Y6928998D03*
D22*
X96012000Y75044000D03*
X96012000Y76594000D03*
D17*
X129476002Y76778998D03*
X127826002Y76778998D03*
D13*
X30848002Y7563998D03*
X32398002Y7563998D03*
D16*
X127902002Y53029998D03*
X126352002Y53029998D03*
D12*
X39688002Y32074998D03*
X41338002Y32074998D03*
D17*
X126174002Y73222998D03*
X124524002Y73222998D03*
D10*
X22987004Y39122998D03*
X22987004Y37472998D03*
D16*
X92215002Y33471998D03*
X90665002Y33471998D03*
D15*
X34798002Y40774998D03*
X34798002Y42424998D03*
D17*
X93027002Y64713998D03*
X91377002Y64713998D03*
D12*
X42990002Y28518998D03*
X44640002Y28518998D03*
D32*
X100203000Y46698998D03*
X100203000Y45898998D03*
D33*
X99253000Y45548998D03*
X99253000Y46048998D03*
X99253000Y46548998D03*
X99253000Y47048998D03*
X101153000Y47048998D03*
X101153000Y46548998D03*
X101153000Y46048998D03*
X101153000Y45548998D03*
D16*
X23889002Y21660998D03*
X22339002Y21660998D03*
D10*
X33020002Y42424998D03*
X33020002Y40774998D03*
D22*
X19304002Y27489998D03*
X19304002Y29039998D03*
D13*
X41897002Y19501998D03*
X43447002Y19501998D03*
D10*
X123380002Y63252998D03*
X123380002Y61602998D03*
D13*
X139433002Y76143998D03*
X140983002Y76143998D03*
D12*
X22289002Y19882998D03*
X23939002Y19882998D03*
D16*
X52845002Y21025998D03*
X51295002Y21025998D03*
D12*
X42990002Y35630998D03*
X44640002Y35630998D03*
D10*
X29464002Y39122998D03*
X29464002Y37472998D03*
D13*
X139433002Y64840998D03*
X140983002Y64840998D03*
D16*
X49543002Y21025998D03*
X47993002Y21025998D03*
D10*
X15494002Y43440998D03*
X15494002Y41790998D03*
D12*
X127826002Y73222998D03*
X129476002Y73222998D03*
D11*
X29210002Y12910998D03*
X29210002Y11360998D03*
D15*
X97790002Y42425998D03*
X97790002Y44075998D03*
D34*
X139090002Y67239998D03*
X139090002Y69539998D03*
D35*
X145390002Y69539998D03*
D34*
X139090002Y71839998D03*
D13*
X123050002Y45409998D03*
X124600002Y45409998D03*
X123050002Y53029998D03*
X124600002Y53029998D03*
D17*
X124650002Y47187998D03*
X123000002Y47187998D03*
D27*
X95336002Y68183998D03*
X95336002Y68833998D03*
X95336002Y69483998D03*
X95336002Y70133998D03*
X99736002Y70133998D03*
X99736002Y69483998D03*
X99736002Y68833998D03*
X99736002Y68183998D03*
D16*
X29096002Y9341998D03*
X27546002Y9341998D03*
D17*
X127952002Y56585998D03*
X126302002Y56585998D03*
D22*
X62992002Y9709998D03*
X62992002Y11259998D03*
D13*
X102857002Y46552998D03*
X104407002Y46552998D03*
D10*
X17272002Y43440998D03*
X17272002Y41790998D03*
D12*
X90615002Y31693998D03*
X92265002Y31693998D03*
D11*
X62992002Y14561998D03*
X62992002Y13011998D03*
D21*
X99756002Y36534998D03*
X99756002Y35884998D03*
X99756002Y35234998D03*
X97856002Y35234998D03*
X97856002Y36534998D03*
D15*
X17526002Y31376998D03*
X17526002Y33026998D03*
D13*
X139433002Y74365998D03*
X140983002Y74365998D03*
D12*
X39688002Y35630998D03*
X41338002Y35630998D03*
X127826002Y67761998D03*
X129476002Y67761998D03*
D22*
X117221002Y65970998D03*
X117221002Y67520998D03*
D36*
X54915002Y24708998D03*
X45415002Y24708998D03*
D12*
X42990002Y37408998D03*
X44640002Y37408998D03*
D16*
X99749002Y66364998D03*
X98199002Y66364998D03*
D15*
X33020002Y37472998D03*
X33020002Y39122998D03*
D17*
X41338002Y37408998D03*
X39688002Y37408998D03*
D16*
X23889002Y23438998D03*
X22339002Y23438998D03*
D26*
X118866502Y50931998D03*
X118866502Y49031998D03*
X116591502Y49981998D03*
D37*
X122596002Y70850998D03*
X123246002Y70850998D03*
X123896002Y70850998D03*
X124546002Y70850998D03*
X124546002Y66450998D03*
X123896002Y66450998D03*
X123246002Y66450998D03*
X122596002Y66450998D03*
D26*
X93974500Y77785000D03*
X93974500Y76835000D03*
X93974500Y75885000D03*
X91699500Y75885000D03*
X91699500Y77785000D03*
D17*
X118554002Y47187998D03*
X116904002Y47187998D03*
X21018002Y37408998D03*
X19368002Y37408998D03*
D26*
X118866502Y58424998D03*
X118866502Y56524998D03*
X116591502Y57474998D03*
D12*
X126175002Y62427998D03*
X127825002Y62427998D03*
D13*
X127876002Y75000998D03*
X129426002Y75000998D03*
D15*
X31242002Y40774998D03*
X31242002Y42424998D03*
D11*
X61214002Y14561998D03*
X61214002Y13011998D03*
D17*
X93027002Y70047998D03*
X91377002Y70047998D03*
D38*
X6355000Y8065000D03*
X6355000Y8865000D03*
D39*
X6355000Y10015000D03*
X6355000Y11015000D03*
X6355000Y11515000D03*
X6355000Y12515000D03*
D38*
X6355000Y13665000D03*
X6355000Y14465000D03*
X6355000Y14465000D03*
X6355000Y13665000D03*
D39*
X6355000Y13015000D03*
X6355000Y12015000D03*
X6355000Y10515000D03*
X6355000Y9515000D03*
D38*
X6355000Y8865000D03*
X6355000Y8065000D03*
D40*
X1850000Y6145000D03*
X5780000Y6145000D03*
X1850000Y16385000D03*
X5780000Y16385000D03*
D16*
X120790002Y64078998D03*
X119240002Y64078998D03*
D12*
X27496002Y7563998D03*
X29146002Y7563998D03*
M02*
