G04 #@! TF.GenerationSoftware,KiCad,Pcbnew,7.0.1*
G04 #@! TF.CreationDate,2024-02-25T13:56:51-08:00*
G04 #@! TF.ProjectId,POWERCORE-V2.0_MOTHERBOARD,504f5745-5243-44f5-9245-2d56322e305f,rev?*
G04 #@! TF.SameCoordinates,PX791ddbePYb90347e*
G04 #@! TF.FileFunction,Soldermask,Top*
G04 #@! TF.FilePolarity,Negative*
%FSLAX46Y46*%
G04 Gerber Fmt 4.6, Leading zero omitted, Abs format (unit mm)*
G04 Created by KiCad (PCBNEW 7.0.1) date 2024-02-25 13:56:51*
%MOMM*%
%LPD*%
G01*
G04 APERTURE LIST*
G04 Aperture macros list*
%AMRoundRect*
0 Rectangle with rounded corners*
0 $1 Rounding radius*
0 $2 $3 $4 $5 $6 $7 $8 $9 X,Y pos of 4 corners*
0 Add a 4 corners polygon primitive as box body*
4,1,4,$2,$3,$4,$5,$6,$7,$8,$9,$2,$3,0*
0 Add four circle primitives for the rounded corners*
1,1,$1+$1,$2,$3*
1,1,$1+$1,$4,$5*
1,1,$1+$1,$6,$7*
1,1,$1+$1,$8,$9*
0 Add four rect primitives between the rounded corners*
20,1,$1+$1,$2,$3,$4,$5,0*
20,1,$1+$1,$4,$5,$6,$7,0*
20,1,$1+$1,$6,$7,$8,$9,0*
20,1,$1+$1,$8,$9,$2,$3,0*%
G04 Aperture macros list end*
%ADD10C,2.000000*%
%ADD11C,1.300000*%
%ADD12RoundRect,0.050800X-2.795000X2.665000X-2.795000X-2.665000X2.795000X-2.665000X2.795000X2.665000X0*%
%ADD13RoundRect,0.050800X-2.640000X3.175000X-2.640000X-3.175000X2.640000X-3.175000X2.640000X3.175000X0*%
%ADD14C,1.879600*%
%ADD15C,3.276600*%
%ADD16RoundRect,0.050800X0.950000X2.550000X-0.950000X2.550000X-0.950000X-2.550000X0.950000X-2.550000X0*%
%ADD17RoundRect,0.275800X0.225000X0.250000X-0.225000X0.250000X-0.225000X-0.250000X0.225000X-0.250000X0*%
%ADD18C,1.752600*%
%ADD19RoundRect,0.275800X0.250000X-0.225000X0.250000X0.225000X-0.250000X0.225000X-0.250000X-0.225000X0*%
%ADD20RoundRect,0.275800X-0.250000X0.225000X-0.250000X-0.225000X0.250000X-0.225000X0.250000X0.225000X0*%
%ADD21RoundRect,0.300800X0.312500X0.625000X-0.312500X0.625000X-0.312500X-0.625000X0.312500X-0.625000X0*%
%ADD22RoundRect,0.300800X-0.325000X-0.650000X0.325000X-0.650000X0.325000X0.650000X-0.325000X0.650000X0*%
%ADD23RoundRect,0.050800X-0.450000X0.170000X-0.450000X-0.170000X0.450000X-0.170000X0.450000X0.170000X0*%
%ADD24RoundRect,0.275800X-0.225000X-0.250000X0.225000X-0.250000X0.225000X0.250000X-0.225000X0.250000X0*%
%ADD25RoundRect,0.250800X0.200000X0.275000X-0.200000X0.275000X-0.200000X-0.275000X0.200000X-0.275000X0*%
%ADD26RoundRect,0.250800X-0.275000X0.200000X-0.275000X-0.200000X0.275000X-0.200000X0.275000X0.200000X0*%
%ADD27RoundRect,0.250800X-0.200000X-0.275000X0.200000X-0.275000X0.200000X0.275000X-0.200000X0.275000X0*%
%ADD28RoundRect,0.300800X0.650000X-0.325000X0.650000X0.325000X-0.650000X0.325000X-0.650000X-0.325000X0*%
%ADD29RoundRect,0.250800X0.275000X-0.200000X0.275000X0.200000X-0.275000X0.200000X-0.275000X-0.200000X0*%
%ADD30RoundRect,0.050800X0.700000X0.635000X-0.700000X0.635000X-0.700000X-0.635000X0.700000X-0.635000X0*%
%ADD31RoundRect,0.050800X2.400000X2.360000X-2.400000X2.360000X-2.400000X-2.360000X2.400000X-2.360000X0*%
%ADD32RoundRect,0.200800X-0.512500X-0.150000X0.512500X-0.150000X0.512500X0.150000X-0.512500X0.150000X0*%
%ADD33RoundRect,0.300800X-0.650000X0.325000X-0.650000X-0.325000X0.650000X-0.325000X0.650000X0.325000X0*%
%ADD34RoundRect,0.050800X0.350000X0.310000X-0.350000X0.310000X-0.350000X-0.310000X0.350000X-0.310000X0*%
%ADD35RoundRect,0.050800X1.333500X1.270000X-1.333500X1.270000X-1.333500X-1.270000X1.333500X-1.270000X0*%
%ADD36RoundRect,0.050800X0.381000X0.635000X-0.381000X0.635000X-0.381000X-0.635000X0.381000X-0.635000X0*%
%ADD37RoundRect,0.125800X0.650000X0.075000X-0.650000X0.075000X-0.650000X-0.075000X0.650000X-0.075000X0*%
%ADD38RoundRect,0.050800X-1.000000X1.000000X-1.000000X-1.000000X1.000000X-1.000000X1.000000X1.000000X0*%
%ADD39C,2.101600*%
%ADD40RoundRect,0.050800X1.050000X2.000000X-1.050000X2.000000X-1.050000X-2.000000X1.050000X-2.000000X0*%
%ADD41RoundRect,0.300800X0.325000X0.650000X-0.325000X0.650000X-0.325000X-0.650000X0.325000X-0.650000X0*%
%ADD42RoundRect,0.300800X0.375000X1.075000X-0.375000X1.075000X-0.375000X-1.075000X0.375000X-1.075000X0*%
%ADD43RoundRect,0.300800X0.350000X-0.850000X0.350000X0.850000X-0.350000X0.850000X-0.350000X-0.850000X0*%
%ADD44RoundRect,0.300797X2.650003X-2.950003X2.650003X2.950003X-2.650003X2.950003X-2.650003X-2.950003X0*%
%ADD45RoundRect,0.050800X-0.800000X-1.600000X0.800000X-1.600000X0.800000X1.600000X-0.800000X1.600000X0*%
%ADD46RoundRect,0.050800X0.800000X1.600000X-0.800000X1.600000X-0.800000X-1.600000X0.800000X-1.600000X0*%
%ADD47RoundRect,0.050000X1.650000X-1.305000X1.650000X1.305000X-1.650000X1.305000X-1.650000X-1.305000X0*%
%ADD48RoundRect,0.120000X0.250000X-0.725000X0.250000X0.725000X-0.250000X0.725000X-0.250000X-0.725000X0*%
%ADD49RoundRect,0.050800X-1.050000X-2.000000X1.050000X-2.000000X1.050000X2.000000X-1.050000X2.000000X0*%
%ADD50RoundRect,0.200800X0.150000X-0.512500X0.150000X0.512500X-0.150000X0.512500X-0.150000X-0.512500X0*%
%ADD51C,3.101600*%
%ADD52RoundRect,0.300800X0.850000X0.350000X-0.850000X0.350000X-0.850000X-0.350000X0.850000X-0.350000X0*%
%ADD53RoundRect,0.300797X2.950003X2.650003X-2.950003X2.650003X-2.950003X-2.650003X2.950003X-2.650003X0*%
%ADD54RoundRect,0.050800X-1.270000X1.333500X-1.270000X-1.333500X1.270000X-1.333500X1.270000X1.333500X0*%
%ADD55RoundRect,0.050800X-0.635000X0.381000X-0.635000X-0.381000X0.635000X-0.381000X0.635000X0.381000X0*%
%ADD56RoundRect,0.050800X0.550000X-1.000000X0.550000X1.000000X-0.550000X1.000000X-0.550000X-1.000000X0*%
%ADD57RoundRect,0.050800X0.400000X-0.400000X0.400000X0.400000X-0.400000X0.400000X-0.400000X-0.400000X0*%
%ADD58C,0.751600*%
G04 APERTURE END LIST*
G36*
X86371002Y50266998D02*
G01*
X85721002Y50266998D01*
X85721002Y49926998D01*
X86371002Y49926998D01*
X86371002Y50266998D01*
G37*
G36*
X85721002Y50266998D02*
G01*
X84011002Y50266998D01*
X84011002Y47976998D01*
X85721002Y47976998D01*
X85721002Y50266998D01*
G37*
G36*
X83471002Y50266998D02*
G01*
X83021002Y50266998D01*
X83021002Y48626998D01*
X83471002Y48626998D01*
X83471002Y50266998D01*
G37*
G36*
X83021002Y50266998D02*
G01*
X82571002Y50266998D01*
X82571002Y49926998D01*
X83021002Y49926998D01*
X83021002Y50266998D01*
G37*
G36*
X86371002Y49616998D02*
G01*
X85721002Y49616998D01*
X85721002Y49276998D01*
X86371002Y49276998D01*
X86371002Y49616998D01*
G37*
G36*
X83021002Y49616998D02*
G01*
X82571002Y49616998D01*
X82571002Y49276998D01*
X83021002Y49276998D01*
X83021002Y49616998D01*
G37*
G36*
X83021002Y48966998D02*
G01*
X82571002Y48966998D01*
X82571002Y48626998D01*
X83021002Y48626998D01*
X83021002Y48966998D01*
G37*
G36*
X86371002Y48626998D02*
G01*
X85721002Y48626998D01*
X85721002Y48966998D01*
X86371002Y48966998D01*
X86371002Y48626998D01*
G37*
G36*
X86371002Y48316998D02*
G01*
X85721002Y48316998D01*
X85721002Y47976998D01*
X86371002Y47976998D01*
X86371002Y48316998D01*
G37*
G36*
X82053002Y50266998D02*
G01*
X81403002Y50266998D01*
X81403002Y49926998D01*
X82053002Y49926998D01*
X82053002Y50266998D01*
G37*
G36*
X81403002Y50266998D02*
G01*
X79693002Y50266998D01*
X79693002Y47976998D01*
X81403002Y47976998D01*
X81403002Y50266998D01*
G37*
G36*
X79153002Y50266998D02*
G01*
X78703002Y50266998D01*
X78703002Y48626998D01*
X79153002Y48626998D01*
X79153002Y50266998D01*
G37*
G36*
X78703002Y50266998D02*
G01*
X78253002Y50266998D01*
X78253002Y49926998D01*
X78703002Y49926998D01*
X78703002Y50266998D01*
G37*
G36*
X82053002Y49616998D02*
G01*
X81403002Y49616998D01*
X81403002Y49276998D01*
X82053002Y49276998D01*
X82053002Y49616998D01*
G37*
G36*
X78703002Y49616998D02*
G01*
X78253002Y49616998D01*
X78253002Y49276998D01*
X78703002Y49276998D01*
X78703002Y49616998D01*
G37*
G36*
X78703002Y48966998D02*
G01*
X78253002Y48966998D01*
X78253002Y48626998D01*
X78703002Y48626998D01*
X78703002Y48966998D01*
G37*
G36*
X82053002Y48626998D02*
G01*
X81403002Y48626998D01*
X81403002Y48966998D01*
X82053002Y48966998D01*
X82053002Y48626998D01*
G37*
G36*
X82053002Y48316998D02*
G01*
X81403002Y48316998D01*
X81403002Y47976998D01*
X82053002Y47976998D01*
X82053002Y48316998D01*
G37*
D10*
X30000002Y1999998D03*
X120000002Y1999998D03*
X120000002Y84999998D03*
X30000002Y84999998D03*
D11*
X130000002Y84999998D03*
X20000002Y84999998D03*
X75000002Y1999998D03*
D12*
X87753002Y67248998D03*
X87753002Y57098998D03*
D13*
X109828002Y62173998D03*
D14*
X7918000Y68584999D03*
X7918000Y71584999D03*
X7918000Y74584999D03*
X7918000Y77584999D03*
X10918000Y68584999D03*
X10918000Y71584999D03*
X10918000Y74584999D03*
X10918000Y77584999D03*
D15*
X3600000Y66430199D03*
X3600000Y79739799D03*
D16*
X71950000Y21176000D03*
X67750000Y21176000D03*
D17*
X54877002Y48584998D03*
X53327002Y48584998D03*
X68593000Y25748000D03*
X67043000Y25748000D03*
D18*
X6614322Y41100000D03*
X6614322Y38600000D03*
D19*
X82423002Y40824998D03*
X82423002Y42374998D03*
X135128002Y33585998D03*
X135128002Y35135998D03*
D20*
X60515502Y58376998D03*
X60515502Y56826998D03*
D21*
X90187502Y52367998D03*
X87262502Y52367998D03*
D22*
X89711002Y45917998D03*
X92661002Y45917998D03*
D23*
X83021002Y48146998D03*
D24*
X33020002Y51562000D03*
X34570002Y51562000D03*
D25*
X80454002Y21914998D03*
X78804002Y21914998D03*
D20*
X54165502Y58884998D03*
X54165502Y57334998D03*
D26*
X81370002Y46390998D03*
X81370002Y44740998D03*
D27*
X67495002Y64958998D03*
X69145002Y64958998D03*
D28*
X128397002Y32885998D03*
X128397002Y35835998D03*
D29*
X78703002Y44740998D03*
X78703002Y46390998D03*
D30*
X17550002Y72079998D03*
X15470002Y72079998D03*
D31*
X16510002Y75884998D03*
D25*
X54927002Y50362998D03*
X53277002Y50362998D03*
D22*
X89711002Y43250998D03*
X92661002Y43250998D03*
X89711002Y40583998D03*
X92661002Y40583998D03*
D32*
X56203002Y58551998D03*
X56203002Y57601998D03*
X56203002Y56651998D03*
X58478002Y56651998D03*
X58478002Y57601998D03*
X58478002Y58551998D03*
D17*
X54877002Y46679998D03*
X53327002Y46679998D03*
D33*
X58674002Y74570998D03*
X58674002Y71620998D03*
D17*
X79007002Y37027998D03*
X77457002Y37027998D03*
D28*
X131064002Y32885998D03*
X131064002Y35835998D03*
D25*
X80454000Y25343998D03*
X78804000Y25343998D03*
D30*
X74041002Y57855998D03*
X71961002Y57855998D03*
D31*
X73001002Y61660998D03*
D34*
X55352002Y52587998D03*
X55352002Y53537998D03*
X55352002Y54487998D03*
X52852002Y54487998D03*
X52852002Y53537998D03*
X52852002Y52587998D03*
D18*
X6614322Y56392060D03*
X6614322Y53892060D03*
D20*
X62738002Y73870998D03*
X62738002Y72320998D03*
D17*
X85309002Y51986998D03*
X83759002Y51986998D03*
X79007002Y38805998D03*
X77457002Y38805998D03*
D35*
X59372502Y45790998D03*
D36*
X57023002Y45790998D03*
D37*
X80432002Y40599998D03*
X80432002Y41099998D03*
X80432002Y41599998D03*
X80432002Y42099998D03*
X80432002Y42599998D03*
X76032002Y42599998D03*
X76032002Y42099998D03*
X76032002Y41599998D03*
X76032002Y41099998D03*
X76032002Y40599998D03*
D38*
X127381000Y20274677D03*
D39*
X127381000Y15274677D03*
D24*
X68059000Y16477000D03*
X69609000Y16477000D03*
D40*
X80189002Y67380998D03*
X73989002Y67380998D03*
D26*
X65780002Y65021998D03*
X65780002Y63371998D03*
D20*
X60960002Y73870998D03*
X60960002Y72320998D03*
D33*
X56007002Y74570998D03*
X56007002Y71620998D03*
D41*
X76659000Y6858000D03*
X73709000Y6858000D03*
D29*
X80899000Y14231998D03*
X80899000Y15881998D03*
D19*
X133350002Y33585998D03*
X133350002Y35135998D03*
D42*
X119891000Y20193000D03*
X117091000Y20193000D03*
D27*
X28131002Y69285998D03*
X29781002Y69285998D03*
D43*
X65919002Y67371998D03*
D44*
X68199002Y73671998D03*
D43*
X70479002Y67371998D03*
D45*
X109018002Y8325998D03*
X115518002Y8325998D03*
D21*
X76773502Y52267998D03*
X73848502Y52267998D03*
D24*
X89649002Y49854998D03*
X91199002Y49854998D03*
D46*
X96214002Y8325998D03*
X89714002Y8325998D03*
D19*
X77052002Y46441998D03*
X77052002Y47991998D03*
D27*
X32957004Y59887998D03*
X34607004Y59887998D03*
D29*
X83148002Y44740998D03*
X83148002Y46390998D03*
D17*
X75959002Y21914998D03*
X74409002Y21914998D03*
D26*
X71882002Y53473998D03*
X71882002Y51823998D03*
D17*
X74308002Y27502998D03*
X72758002Y27502998D03*
D23*
X78703002Y48146998D03*
D17*
X75959000Y11811000D03*
X74409000Y11811000D03*
D22*
X89711002Y37916998D03*
X92661002Y37916998D03*
D18*
X6614322Y25808000D03*
X6614322Y23308000D03*
D38*
X96266000Y20401677D03*
D39*
X96266000Y15401677D03*
D25*
X72707000Y25748000D03*
X71057000Y25748000D03*
D47*
X76835000Y16858000D03*
D48*
X74930000Y14158000D03*
X76200000Y14158000D03*
X77470000Y14158000D03*
X78740000Y14158000D03*
X78740000Y19558000D03*
X77470000Y19558000D03*
X76200000Y19558000D03*
X74930000Y19558000D03*
D33*
X53340002Y74570998D03*
X53340002Y71620998D03*
D25*
X34607004Y58236998D03*
X32957004Y58236998D03*
X74189002Y43502998D03*
X72539002Y43502998D03*
D24*
X89649002Y48076998D03*
X91199002Y48076998D03*
D33*
X50673002Y74570998D03*
X50673002Y71620998D03*
D30*
X44093002Y70330998D03*
X42013002Y70330998D03*
D31*
X43053002Y74135998D03*
D17*
X80102002Y51915998D03*
X78552002Y51915998D03*
D49*
X36397003Y65729997D03*
X42597003Y65729997D03*
D50*
X33721002Y53797498D03*
X34671002Y53797498D03*
X35621002Y53797498D03*
X35621002Y56072498D03*
X34671002Y56072498D03*
X33721002Y56072498D03*
D22*
X67359000Y14191000D03*
X70309000Y14191000D03*
D38*
X108966000Y20401677D03*
D39*
X108966000Y15401677D03*
D51*
X145355252Y34360998D03*
D14*
X141037252Y35860998D03*
X141037252Y32860998D03*
X138037252Y35860998D03*
X138037252Y32860998D03*
D52*
X32258002Y62554998D03*
D53*
X25958002Y64834998D03*
D52*
X32258002Y67114998D03*
D35*
X59372502Y49473998D03*
D36*
X57023002Y49473998D03*
D54*
X81788002Y37726498D03*
D55*
X81788002Y35376998D03*
D38*
X139700000Y20274677D03*
D39*
X139700000Y15274677D03*
D27*
X78804000Y23565998D03*
X80454000Y23565998D03*
D17*
X54877002Y44901998D03*
X53327002Y44901998D03*
D56*
X50927002Y52784998D03*
D57*
X50927002Y54684998D03*
D41*
X76659000Y9525000D03*
X73709000Y9525000D03*
D29*
X75401002Y46391998D03*
X75401002Y48041998D03*
D22*
X89711002Y35376998D03*
X92661002Y35376998D03*
D33*
X48006002Y74570998D03*
X48006002Y71620998D03*
D58*
X5280000Y8375000D03*
X5280000Y14155000D03*
G36*
X28907198Y61885280D02*
G01*
X28907334Y61883367D01*
X28905798Y61882219D01*
X28905791Y61882218D01*
X28905508Y61882198D01*
X23010496Y61882198D01*
X23009082Y61882784D01*
X23009081Y61882785D01*
X23008495Y61884199D01*
X23009081Y61885613D01*
X23010495Y61886199D01*
X28905515Y61886199D01*
X28907198Y61885280D01*
G37*
G36*
X29210786Y67482760D02*
G01*
X29210787Y67482752D01*
X29210802Y67482504D01*
X29210802Y64833079D01*
X29209802Y64831347D01*
X29207802Y64831347D01*
X29206802Y64833079D01*
X29206801Y67482512D01*
X29207730Y67484201D01*
X29209654Y67484321D01*
X29210786Y67482760D01*
G37*
G36*
X70848198Y70422280D02*
G01*
X70848334Y70420367D01*
X70846798Y70419219D01*
X70846791Y70419218D01*
X70846508Y70419198D01*
X65551496Y70419198D01*
X65550082Y70419784D01*
X65550081Y70419785D01*
X65549495Y70421199D01*
X65550081Y70422613D01*
X65551495Y70423199D01*
X70846515Y70423199D01*
X70848198Y70422280D01*
G37*
G36*
X71151786Y76619760D02*
G01*
X71151787Y76619752D01*
X71151802Y76619504D01*
X71151802Y73663439D01*
X71150802Y73661707D01*
X71148802Y73661707D01*
X71147802Y73663439D01*
X71147801Y76619512D01*
X71148730Y76621201D01*
X71150654Y76621321D01*
X71151786Y76619760D01*
G37*
M02*
