G04 #@! TF.GenerationSoftware,KiCad,Pcbnew,7.0.1*
G04 #@! TF.CreationDate,2024-02-29T06:24:46-08:00*
G04 #@! TF.ProjectId,POWERCORE-V2.0_MOTHERBOARD,504f5745-5243-44f5-9245-2d56322e305f,rev?*
G04 #@! TF.SameCoordinates,PX791ddbePYb90347e*
G04 #@! TF.FileFunction,Paste,Bot*
G04 #@! TF.FilePolarity,Positive*
%FSLAX46Y46*%
G04 Gerber Fmt 4.6, Leading zero omitted, Abs format (unit mm)*
G04 Created by KiCad (PCBNEW 7.0.1) date 2024-02-29 06:24:46*
%MOMM*%
%LPD*%
G01*
G04 APERTURE LIST*
G04 Aperture macros list*
%AMRoundRect*
0 Rectangle with rounded corners*
0 $1 Rounding radius*
0 $2 $3 $4 $5 $6 $7 $8 $9 X,Y pos of 4 corners*
0 Add a 4 corners polygon primitive as box body*
4,1,4,$2,$3,$4,$5,$6,$7,$8,$9,$2,$3,0*
0 Add four circle primitives for the rounded corners*
1,1,$1+$1,$2,$3*
1,1,$1+$1,$4,$5*
1,1,$1+$1,$6,$7*
1,1,$1+$1,$8,$9*
0 Add four rect primitives between the rounded corners*
20,1,$1+$1,$2,$3,$4,$5,0*
20,1,$1+$1,$4,$5,$6,$7,0*
20,1,$1+$1,$6,$7,$8,$9,0*
20,1,$1+$1,$8,$9,$2,$3,0*%
G04 Aperture macros list end*
%ADD10RoundRect,0.200000X-0.275000X0.200000X-0.275000X-0.200000X0.275000X-0.200000X0.275000X0.200000X0*%
%ADD11RoundRect,0.225000X-0.250000X0.225000X-0.250000X-0.225000X0.250000X-0.225000X0.250000X0.225000X0*%
%ADD12RoundRect,0.200000X-0.200000X-0.275000X0.200000X-0.275000X0.200000X0.275000X-0.200000X0.275000X0*%
%ADD13RoundRect,0.225000X-0.225000X-0.250000X0.225000X-0.250000X0.225000X0.250000X-0.225000X0.250000X0*%
%ADD14R,0.400000X0.650000*%
%ADD15RoundRect,0.200000X0.275000X-0.200000X0.275000X0.200000X-0.275000X0.200000X-0.275000X-0.200000X0*%
%ADD16RoundRect,0.225000X0.225000X0.250000X-0.225000X0.250000X-0.225000X-0.250000X0.225000X-0.250000X0*%
%ADD17RoundRect,0.200000X0.200000X0.275000X-0.200000X0.275000X-0.200000X-0.275000X0.200000X-0.275000X0*%
%ADD18RoundRect,0.150000X0.150000X-0.512500X0.150000X0.512500X-0.150000X0.512500X-0.150000X-0.512500X0*%
%ADD19RoundRect,0.250000X-0.850000X-0.350000X0.850000X-0.350000X0.850000X0.350000X-0.850000X0.350000X0*%
%ADD20RoundRect,0.250000X-1.275000X-1.125000X1.275000X-1.125000X1.275000X1.125000X-1.275000X1.125000X0*%
%ADD21R,0.650000X0.400000*%
%ADD22RoundRect,0.225000X0.250000X-0.225000X0.250000X0.225000X-0.250000X0.225000X-0.250000X-0.225000X0*%
%ADD23RoundRect,0.249999X-0.395001X0.395001X-0.395001X-0.395001X0.395001X-0.395001X0.395001X0.395001X0*%
%ADD24RoundRect,0.050000X-0.050000X0.387500X-0.050000X-0.387500X0.050000X-0.387500X0.050000X0.387500X0*%
%ADD25RoundRect,0.050000X-0.387500X0.050000X-0.387500X-0.050000X0.387500X-0.050000X0.387500X0.050000X0*%
%ADD26RoundRect,0.150000X0.512500X0.150000X-0.512500X0.150000X-0.512500X-0.150000X0.512500X-0.150000X0*%
%ADD27R,1.450000X0.450000*%
%ADD28RoundRect,0.150000X-0.150000X0.825000X-0.150000X-0.825000X0.150000X-0.825000X0.150000X0.825000X0*%
%ADD29R,1.050000X1.400000*%
%ADD30R,2.000000X1.100000*%
%ADD31R,0.800000X0.800000*%
%ADD32R,0.750000X0.650000*%
%ADD33R,0.500000X0.250000*%
%ADD34R,2.000000X1.500000*%
%ADD35R,2.000000X3.800000*%
%ADD36R,5.600000X2.100000*%
%ADD37R,0.450000X1.450000*%
%ADD38R,1.150000X0.600000*%
%ADD39R,1.150000X0.300000*%
%ADD40R,1.500000X1.500000*%
G04 APERTURE END LIST*
D10*
X126873002Y67697998D03*
X126873002Y66047998D03*
D11*
X35560002Y13418998D03*
X35560002Y11868998D03*
D12*
X42990002Y28391998D03*
X44640002Y28391998D03*
D13*
X133972002Y66110998D03*
X135522002Y66110998D03*
D14*
X108600002Y40903998D03*
X107950002Y40903998D03*
X107300002Y40903998D03*
X107300002Y42803998D03*
X108600002Y42803998D03*
D15*
X127000002Y49283998D03*
X127000002Y50933998D03*
D16*
X117234002Y42615998D03*
X115684002Y42615998D03*
D12*
X22289002Y18104998D03*
X23939002Y18104998D03*
D16*
X23889002Y14548998D03*
X22339002Y14548998D03*
D17*
X102298002Y36138998D03*
X100648002Y36138998D03*
D13*
X41897002Y14167998D03*
X43447002Y14167998D03*
D18*
X21143002Y39517496D03*
X19243002Y39517496D03*
X20193002Y41792496D03*
D19*
X65572002Y9855998D03*
D20*
X70197002Y13660998D03*
X70197002Y10610998D03*
X73547002Y13660998D03*
X73547002Y10610998D03*
D19*
X65572002Y14415998D03*
D11*
X110363002Y42628998D03*
X110363002Y41078998D03*
D10*
X117094002Y54616998D03*
X117094002Y52966998D03*
D12*
X129096002Y43758998D03*
X130746002Y43758998D03*
D17*
X110299002Y73603998D03*
X108649002Y73603998D03*
D12*
X132398002Y54934998D03*
X134048002Y54934998D03*
D15*
X17526002Y27439998D03*
X17526002Y29089998D03*
D21*
X109662002Y34375998D03*
X109662002Y33725998D03*
X109662002Y33075998D03*
X107762002Y33075998D03*
X107762002Y34375998D03*
D22*
X34417002Y28632998D03*
X34417002Y30182998D03*
D12*
X104204002Y36138998D03*
X105854002Y36138998D03*
D16*
X23889002Y16326998D03*
X22339002Y16326998D03*
D13*
X107937002Y36138998D03*
X109487002Y36138998D03*
D12*
X133922002Y64332998D03*
X135572002Y64332998D03*
D22*
X29337002Y28632998D03*
X29337002Y30182998D03*
D10*
X126873002Y70999998D03*
X126873002Y69349998D03*
D13*
X111620002Y36138998D03*
X113170002Y36138998D03*
D23*
X34201002Y21317998D03*
X32601002Y21317998D03*
X34201002Y19717998D03*
X32601002Y19717998D03*
D24*
X30801002Y23955498D03*
X31201002Y23955498D03*
X31601002Y23955498D03*
X32001002Y23955498D03*
X32401002Y23955498D03*
X32801002Y23955498D03*
X33201002Y23955498D03*
X33601002Y23955498D03*
X34001002Y23955498D03*
X34401002Y23955498D03*
X34801002Y23955498D03*
X35201002Y23955498D03*
X35601002Y23955498D03*
X36001002Y23955498D03*
D25*
X36838502Y23117998D03*
X36838502Y22717998D03*
X36838502Y22317998D03*
X36838502Y21917998D03*
X36838502Y21517998D03*
X36838502Y21117998D03*
X36838502Y20717998D03*
X36838502Y20317998D03*
X36838502Y19917998D03*
X36838502Y19517998D03*
X36838502Y19117998D03*
X36838502Y18717998D03*
X36838502Y18317998D03*
X36838502Y17917998D03*
D24*
X36001002Y17080498D03*
X35601002Y17080498D03*
X35201002Y17080498D03*
X34801002Y17080498D03*
X34401002Y17080498D03*
X34001002Y17080498D03*
X33601002Y17080498D03*
X33201002Y17080498D03*
X32801002Y17080498D03*
X32401002Y17080498D03*
X32001002Y17080498D03*
X31601002Y17080498D03*
X31201002Y17080498D03*
X30801002Y17080498D03*
D25*
X29963502Y17917998D03*
X29963502Y18317998D03*
X29963502Y18717998D03*
X29963502Y19117998D03*
X29963502Y19517998D03*
X29963502Y19917998D03*
X29963502Y20317998D03*
X29963502Y20717998D03*
X29963502Y21117998D03*
X29963502Y21517998D03*
X29963502Y21917998D03*
X29963502Y22317998D03*
X29963502Y22717998D03*
X29963502Y23117998D03*
D26*
X124962502Y54741998D03*
X124962502Y52841998D03*
X122687502Y53791998D03*
D12*
X42990002Y32963998D03*
X44640002Y32963998D03*
D17*
X110299002Y77159998D03*
X108649002Y77159998D03*
D21*
X104079002Y33075998D03*
X104079002Y33725998D03*
X104079002Y34375998D03*
X105979002Y34375998D03*
X105979002Y33725998D03*
X105979002Y33075998D03*
D12*
X39688002Y39186998D03*
X41338002Y39186998D03*
D14*
X135875002Y60710998D03*
X136525002Y60710998D03*
X137175002Y60710998D03*
X137175002Y58810998D03*
X136525002Y58810998D03*
X135875002Y58810998D03*
D17*
X44640002Y39186998D03*
X42990002Y39186998D03*
D12*
X19368002Y35630998D03*
X21018002Y35630998D03*
X108649002Y71825998D03*
X110299002Y71825998D03*
D27*
X133772002Y51083998D03*
X133772002Y50433998D03*
X133772002Y49783998D03*
X133772002Y49133998D03*
X129372002Y49133998D03*
X129372002Y49783998D03*
X129372002Y50433998D03*
X129372002Y51083998D03*
D13*
X41897002Y17723998D03*
X43447002Y17723998D03*
D10*
X120650002Y54616998D03*
X120650002Y52966998D03*
D17*
X52895002Y19247998D03*
X51245002Y19247998D03*
D12*
X39688002Y30169998D03*
X41338002Y30169998D03*
D28*
X21209002Y32390998D03*
X22479002Y32390998D03*
X23749002Y32390998D03*
X25019002Y32390998D03*
X25019002Y27440998D03*
X23749002Y27440998D03*
X22479002Y27440998D03*
X21209002Y27440998D03*
D29*
X2879000Y30458000D03*
X2879000Y34058000D03*
X1439000Y30458000D03*
X1439000Y34058000D03*
D17*
X128714002Y73349998D03*
X127064002Y73349998D03*
D15*
X34798002Y37472998D03*
X34798002Y39122998D03*
X16637002Y22740998D03*
X16637002Y24390998D03*
X132461002Y69603998D03*
X132461002Y71253998D03*
D10*
X127000002Y58426998D03*
X127000002Y56776998D03*
D26*
X133725502Y60710998D03*
X133725502Y58810998D03*
X131450502Y59760998D03*
D11*
X118872002Y54566998D03*
X118872002Y53016998D03*
D10*
X16002002Y8261998D03*
X16002002Y6611998D03*
D11*
X27432002Y12910998D03*
X27432002Y11360998D03*
D15*
X31242002Y37472998D03*
X31242002Y39122998D03*
D17*
X32448002Y9341998D03*
X30798002Y9341998D03*
D16*
X113678000Y44647998D03*
X112128000Y44647998D03*
D30*
X65541000Y6928998D03*
D31*
X67441000Y6928998D03*
D13*
X105905002Y53410998D03*
X107455002Y53410998D03*
D17*
X135572002Y76905998D03*
X133922002Y76905998D03*
D13*
X30848002Y7563998D03*
X32398002Y7563998D03*
D16*
X133998002Y53156998D03*
X132448002Y53156998D03*
D12*
X42990002Y30169998D03*
X44640002Y30169998D03*
D17*
X132270002Y73349998D03*
X130620002Y73349998D03*
D10*
X22987004Y39122998D03*
X22987004Y37472998D03*
D16*
X105804002Y31312998D03*
X104254002Y31312998D03*
D15*
X34798002Y40774998D03*
X34798002Y42424998D03*
D17*
X110299002Y70047998D03*
X108649002Y70047998D03*
D12*
X39688002Y28391998D03*
X41338002Y28391998D03*
D32*
X116332000Y45301998D03*
X116332000Y44501998D03*
D33*
X115382000Y44151998D03*
X115382000Y44651998D03*
X115382000Y45151998D03*
X115382000Y45651998D03*
X117282000Y45651998D03*
X117282000Y45151998D03*
X117282000Y44651998D03*
X117282000Y44151998D03*
D16*
X23889002Y21660998D03*
X22339002Y21660998D03*
D10*
X33020002Y42424998D03*
X33020002Y40774998D03*
D22*
X19304002Y27489998D03*
X19304002Y29039998D03*
D13*
X41897002Y19501998D03*
X43447002Y19501998D03*
D10*
X129476002Y63379998D03*
X129476002Y61729998D03*
D13*
X141465002Y78175998D03*
X143015002Y78175998D03*
D12*
X22289002Y19882998D03*
X23939002Y19882998D03*
D16*
X52845002Y21025998D03*
X51295002Y21025998D03*
D12*
X42990002Y35630998D03*
X44640002Y35630998D03*
D10*
X29464002Y39122998D03*
X29464002Y37472998D03*
D13*
X141465002Y66872998D03*
X143015002Y66872998D03*
D16*
X49543002Y21025998D03*
X47993002Y21025998D03*
D10*
X15494002Y43440998D03*
X15494002Y41790998D03*
D12*
X133922002Y73349998D03*
X135572002Y73349998D03*
D11*
X29210002Y12910998D03*
X29210002Y11360998D03*
D15*
X113919002Y41028998D03*
X113919002Y42678998D03*
D34*
X140233002Y69271998D03*
X140233002Y71571998D03*
D35*
X146533002Y71571998D03*
D34*
X140233002Y73871998D03*
D13*
X129146002Y45536998D03*
X130696002Y45536998D03*
X129146002Y53156998D03*
X130696002Y53156998D03*
D17*
X130746002Y47314998D03*
X129096002Y47314998D03*
D27*
X112608002Y73517998D03*
X112608002Y74167998D03*
X112608002Y74817998D03*
X112608002Y75467998D03*
X117008002Y75467998D03*
X117008002Y74817998D03*
X117008002Y74167998D03*
X117008002Y73517998D03*
D16*
X29096002Y9341998D03*
X27546002Y9341998D03*
D17*
X134048002Y56712998D03*
X132398002Y56712998D03*
D22*
X62992002Y9709998D03*
X62992002Y11259998D03*
D13*
X118986002Y45155998D03*
X120536002Y45155998D03*
D10*
X17272002Y43440998D03*
X17272002Y41790998D03*
D12*
X104204002Y29534998D03*
X105854002Y29534998D03*
D11*
X62992002Y14561998D03*
X62992002Y13011998D03*
D21*
X113345002Y34375998D03*
X113345002Y33725998D03*
X113345002Y33075998D03*
X111445002Y33075998D03*
X111445002Y34375998D03*
D15*
X17526002Y31376998D03*
X17526002Y33026998D03*
D13*
X141465002Y76397998D03*
X143015002Y76397998D03*
D12*
X39688002Y35630998D03*
X41338002Y35630998D03*
X133922002Y67888998D03*
X135572002Y67888998D03*
D22*
X123317002Y66097998D03*
X123317002Y67647998D03*
D36*
X54915002Y24708998D03*
X45415002Y24708998D03*
D12*
X42990002Y37408998D03*
X44640002Y37408998D03*
D16*
X117021002Y71698998D03*
X115471002Y71698998D03*
D15*
X33020002Y37472998D03*
X33020002Y39122998D03*
D17*
X41338002Y37408998D03*
X39688002Y37408998D03*
D16*
X23889002Y23438998D03*
X22339002Y23438998D03*
D26*
X124962502Y51058998D03*
X124962502Y49158998D03*
X122687502Y50108998D03*
D37*
X128692002Y70977998D03*
X129342002Y70977998D03*
X129992002Y70977998D03*
X130642002Y70977998D03*
X130642002Y66577998D03*
X129992002Y66577998D03*
X129342002Y66577998D03*
X128692002Y66577998D03*
D18*
X108646002Y55448498D03*
X107696002Y55448498D03*
X106746002Y55448498D03*
X106746002Y57723498D03*
X108646002Y57723498D03*
D17*
X124650002Y47314998D03*
X123000002Y47314998D03*
X21018002Y37408998D03*
X19368002Y37408998D03*
D26*
X124962502Y58551998D03*
X124962502Y56651998D03*
X122687502Y57601998D03*
D12*
X132271002Y62554998D03*
X133921002Y62554998D03*
D13*
X133972002Y75127998D03*
X135522002Y75127998D03*
D15*
X31242002Y40774998D03*
X31242002Y42424998D03*
D11*
X61214002Y14561998D03*
X61214002Y13011998D03*
D17*
X110299002Y75381998D03*
X108649002Y75381998D03*
D38*
X6355000Y8065000D03*
X6355000Y8865000D03*
D39*
X6355000Y10015000D03*
X6355000Y11015000D03*
X6355000Y11515000D03*
X6355000Y12515000D03*
D38*
X6355000Y13665000D03*
X6355000Y14465000D03*
X6355000Y14465000D03*
X6355000Y13665000D03*
D39*
X6355000Y13015000D03*
X6355000Y12015000D03*
X6355000Y10515000D03*
X6355000Y9515000D03*
D38*
X6355000Y8865000D03*
X6355000Y8065000D03*
D40*
X1850000Y6145000D03*
X5780000Y6145000D03*
X1850000Y16385000D03*
X5780000Y16385000D03*
D16*
X127648002Y64205998D03*
X126098002Y64205998D03*
D12*
X27496002Y7563998D03*
X29146002Y7563998D03*
M02*
