G04 #@! TF.GenerationSoftware,KiCad,Pcbnew,7.0.1*
G04 #@! TF.CreationDate,2024-01-14T13:20:50-08:00*
G04 #@! TF.ProjectId,POWERCORE-V2.0_MOTHERBOARD,504f5745-5243-44f5-9245-2d56322e305f,rev?*
G04 #@! TF.SameCoordinates,PX791ddbePYb90347e*
G04 #@! TF.FileFunction,Paste,Top*
G04 #@! TF.FilePolarity,Positive*
%FSLAX46Y46*%
G04 Gerber Fmt 4.6, Leading zero omitted, Abs format (unit mm)*
G04 Created by KiCad (PCBNEW 7.0.1) date 2024-01-14 13:20:50*
%MOMM*%
%LPD*%
G01*
G04 APERTURE LIST*
G04 Aperture macros list*
%AMRoundRect*
0 Rectangle with rounded corners*
0 $1 Rounding radius*
0 $2 $3 $4 $5 $6 $7 $8 $9 X,Y pos of 4 corners*
0 Add a 4 corners polygon primitive as box body*
4,1,4,$2,$3,$4,$5,$6,$7,$8,$9,$2,$3,0*
0 Add four circle primitives for the rounded corners*
1,1,$1+$1,$2,$3*
1,1,$1+$1,$4,$5*
1,1,$1+$1,$6,$7*
1,1,$1+$1,$8,$9*
0 Add four rect primitives between the rounded corners*
20,1,$1+$1,$2,$3,$4,$5,0*
20,1,$1+$1,$4,$5,$6,$7,0*
20,1,$1+$1,$6,$7,$8,$9,0*
20,1,$1+$1,$8,$9,$2,$3,0*%
G04 Aperture macros list end*
%ADD10R,5.330000X5.590000*%
%ADD11R,6.350000X5.280000*%
%ADD12R,1.900000X5.100000*%
%ADD13RoundRect,0.225000X-0.250000X0.225000X-0.250000X-0.225000X0.250000X-0.225000X0.250000X0.225000X0*%
%ADD14RoundRect,0.225000X0.225000X0.250000X-0.225000X0.250000X-0.225000X-0.250000X0.225000X-0.250000X0*%
%ADD15RoundRect,0.225000X0.250000X-0.225000X0.250000X0.225000X-0.250000X0.225000X-0.250000X-0.225000X0*%
%ADD16RoundRect,0.225000X-0.225000X-0.250000X0.225000X-0.250000X0.225000X0.250000X-0.225000X0.250000X0*%
%ADD17RoundRect,0.250000X0.312500X0.625000X-0.312500X0.625000X-0.312500X-0.625000X0.312500X-0.625000X0*%
%ADD18RoundRect,0.250000X0.650000X-0.325000X0.650000X0.325000X-0.650000X0.325000X-0.650000X-0.325000X0*%
%ADD19RoundRect,0.200000X0.200000X0.275000X-0.200000X0.275000X-0.200000X-0.275000X0.200000X-0.275000X0*%
%ADD20RoundRect,0.200000X-0.275000X0.200000X-0.275000X-0.200000X0.275000X-0.200000X0.275000X0.200000X0*%
%ADD21RoundRect,0.200000X0.275000X-0.200000X0.275000X0.200000X-0.275000X0.200000X-0.275000X-0.200000X0*%
%ADD22R,1.250000X1.200000*%
%ADD23R,1.400000X1.270000*%
%ADD24RoundRect,0.150000X0.150000X-0.512500X0.150000X0.512500X-0.150000X0.512500X-0.150000X-0.512500X0*%
%ADD25RoundRect,0.250000X-0.325000X-0.650000X0.325000X-0.650000X0.325000X0.650000X-0.325000X0.650000X0*%
%ADD26R,0.620000X0.700000*%
%ADD27R,2.540000X2.667000*%
%ADD28R,1.270000X0.762000*%
%ADD29RoundRect,0.075000X-0.075000X0.650000X-0.075000X-0.650000X0.075000X-0.650000X0.075000X0.650000X0*%
%ADD30R,4.000000X2.100000*%
%ADD31RoundRect,0.250000X0.325000X0.650000X-0.325000X0.650000X-0.325000X-0.650000X0.325000X-0.650000X0*%
%ADD32RoundRect,0.250000X0.375000X1.075000X-0.375000X1.075000X-0.375000X-1.075000X0.375000X-1.075000X0*%
%ADD33RoundRect,0.200000X-0.200000X-0.275000X0.200000X-0.275000X0.200000X0.275000X-0.200000X0.275000X0*%
%ADD34RoundRect,0.250000X0.850000X0.350000X-0.850000X0.350000X-0.850000X-0.350000X0.850000X-0.350000X0*%
%ADD35RoundRect,0.250000X1.275000X1.125000X-1.275000X1.125000X-1.275000X-1.125000X1.275000X-1.125000X0*%
%ADD36R,1.600000X3.200000*%
%ADD37RoundRect,0.250000X0.625000X-0.312500X0.625000X0.312500X-0.625000X0.312500X-0.625000X-0.312500X0*%
%ADD38RoundRect,0.050000X1.650000X-1.305000X1.650000X1.305000X-1.650000X1.305000X-1.650000X-1.305000X0*%
%ADD39RoundRect,0.050000X0.250000X-0.725000X0.250000X0.725000X-0.250000X0.725000X-0.250000X-0.725000X0*%
%ADD40R,1.200000X1.250000*%
%ADD41R,1.270000X1.400000*%
%ADD42RoundRect,0.250000X0.350000X-0.850000X0.350000X0.850000X-0.350000X0.850000X-0.350000X-0.850000X0*%
%ADD43RoundRect,0.250000X1.125000X-1.275000X1.125000X1.275000X-1.125000X1.275000X-1.125000X-1.275000X0*%
%ADD44R,2.667000X2.540000*%
%ADD45R,0.762000X1.270000*%
%ADD46R,2.000000X1.100000*%
%ADD47R,0.800000X0.800000*%
G04 APERTURE END LIST*
G36*
X77323000Y54943000D02*
G01*
X77923000Y54943000D01*
X77923000Y54703000D01*
X77323000Y54703000D01*
X77323000Y54943000D01*
G37*
G36*
X77123000Y54943000D02*
G01*
X75723000Y54943000D01*
X75723000Y54703000D01*
X77123000Y54703000D01*
X77123000Y54943000D01*
G37*
G36*
X74673000Y54943000D02*
G01*
X75023000Y54943000D01*
X75023000Y54275000D01*
X74673000Y54275000D01*
X74673000Y54943000D01*
G37*
G36*
X74523000Y54943000D02*
G01*
X74223000Y54943000D01*
X74223000Y54703000D01*
X74523000Y54703000D01*
X74523000Y54943000D01*
G37*
G36*
X75723000Y54393000D02*
G01*
X77133000Y54393000D01*
X77133000Y53303000D01*
X75723000Y53303000D01*
X75723000Y54393000D01*
G37*
G36*
X77323000Y54293000D02*
G01*
X77923000Y54293000D01*
X77923000Y54053000D01*
X77323000Y54053000D01*
X77323000Y54293000D01*
G37*
G36*
X74523000Y54293000D02*
G01*
X74223000Y54293000D01*
X74223000Y54053000D01*
X74523000Y54053000D01*
X74523000Y54293000D01*
G37*
G36*
X77323000Y53643000D02*
G01*
X77923000Y53643000D01*
X77923000Y53403000D01*
X77323000Y53403000D01*
X77323000Y53643000D01*
G37*
G36*
X74523000Y53643000D02*
G01*
X74223000Y53643000D01*
X74223000Y53403000D01*
X74523000Y53403000D01*
X74523000Y53643000D01*
G37*
G36*
X74673000Y53404000D02*
G01*
X75023000Y53404000D01*
X75023000Y54072000D01*
X74673000Y54072000D01*
X74673000Y53404000D01*
G37*
G36*
X77323000Y52753000D02*
G01*
X77923000Y52753000D01*
X77923000Y52993000D01*
X77323000Y52993000D01*
X77323000Y52753000D01*
G37*
G36*
X77123000Y52753000D02*
G01*
X75723000Y52753000D01*
X75723000Y52993000D01*
X77123000Y52993000D01*
X77123000Y52753000D01*
G37*
G36*
X74923000Y52753000D02*
G01*
X74223000Y52753000D01*
X74223000Y52993000D01*
X74923000Y52993000D01*
X74923000Y52753000D01*
G37*
G36*
X74823000Y56604000D02*
G01*
X74223000Y56604000D01*
X74223000Y56844000D01*
X74823000Y56844000D01*
X74823000Y56604000D01*
G37*
G36*
X75023000Y56604000D02*
G01*
X76423000Y56604000D01*
X76423000Y56844000D01*
X75023000Y56844000D01*
X75023000Y56604000D01*
G37*
G36*
X77473000Y56604000D02*
G01*
X77123000Y56604000D01*
X77123000Y57272000D01*
X77473000Y57272000D01*
X77473000Y56604000D01*
G37*
G36*
X77623000Y56604000D02*
G01*
X77923000Y56604000D01*
X77923000Y56844000D01*
X77623000Y56844000D01*
X77623000Y56604000D01*
G37*
G36*
X76423000Y57154000D02*
G01*
X75013000Y57154000D01*
X75013000Y58244000D01*
X76423000Y58244000D01*
X76423000Y57154000D01*
G37*
G36*
X74823000Y57254000D02*
G01*
X74223000Y57254000D01*
X74223000Y57494000D01*
X74823000Y57494000D01*
X74823000Y57254000D01*
G37*
G36*
X77623000Y57254000D02*
G01*
X77923000Y57254000D01*
X77923000Y57494000D01*
X77623000Y57494000D01*
X77623000Y57254000D01*
G37*
G36*
X74823000Y57904000D02*
G01*
X74223000Y57904000D01*
X74223000Y58144000D01*
X74823000Y58144000D01*
X74823000Y57904000D01*
G37*
G36*
X77623000Y57904000D02*
G01*
X77923000Y57904000D01*
X77923000Y58144000D01*
X77623000Y58144000D01*
X77623000Y57904000D01*
G37*
G36*
X77473000Y58143000D02*
G01*
X77123000Y58143000D01*
X77123000Y57475000D01*
X77473000Y57475000D01*
X77473000Y58143000D01*
G37*
G36*
X74823000Y58794000D02*
G01*
X74223000Y58794000D01*
X74223000Y58554000D01*
X74823000Y58554000D01*
X74823000Y58794000D01*
G37*
G36*
X75023000Y58794000D02*
G01*
X76423000Y58794000D01*
X76423000Y58554000D01*
X75023000Y58554000D01*
X75023000Y58794000D01*
G37*
G36*
X77223000Y58794000D02*
G01*
X77923000Y58794000D01*
X77923000Y58554000D01*
X77223000Y58554000D01*
X77223000Y58794000D01*
G37*
D10*
X60076000Y56130000D03*
X70226000Y56130000D03*
D11*
X65151000Y78205000D03*
D12*
X71950000Y21176000D03*
X67750000Y21176000D03*
D13*
X56016000Y37986000D03*
X56016000Y36436000D03*
D14*
X68593000Y25748000D03*
X67043000Y25748000D03*
X74562000Y43688000D03*
X73012000Y43688000D03*
D15*
X135128002Y33585998D03*
X135128002Y35135998D03*
D16*
X46224000Y43624500D03*
X47774000Y43624500D03*
D17*
X75884500Y49530000D03*
X72959500Y49530000D03*
D18*
X94107000Y54151000D03*
X94107000Y57101000D03*
D16*
X18923000Y46355000D03*
X20473000Y46355000D03*
D19*
X80454002Y21914998D03*
X78804002Y21914998D03*
D16*
X45716000Y37274500D03*
X47266000Y37274500D03*
D20*
X72898000Y47053000D03*
X72898000Y45403000D03*
D21*
X49276002Y53093998D03*
X49276002Y54743998D03*
D18*
X128143002Y32885998D03*
X128143002Y35835998D03*
D21*
X76708000Y36894000D03*
X76708000Y38544000D03*
D22*
X22528000Y73660000D03*
X22528000Y75350000D03*
X22528000Y77010000D03*
X20828000Y73660000D03*
X20828000Y75350000D03*
X20828000Y77010000D03*
X19128000Y73660000D03*
X19128000Y75350000D03*
X19128000Y77010000D03*
D23*
X21868000Y71545000D03*
X19788000Y71545000D03*
D20*
X54238000Y38036000D03*
X54238000Y36386000D03*
D18*
X83312000Y54151000D03*
X83312000Y57101000D03*
X86106000Y54151000D03*
X86106000Y57101000D03*
D24*
X46049000Y39312000D03*
X46999000Y39312000D03*
X47949000Y39312000D03*
X47949000Y41587000D03*
X46999000Y41587000D03*
X46049000Y41587000D03*
D13*
X57921000Y37986000D03*
X57921000Y36436000D03*
D25*
X40181000Y80010000D03*
X43131000Y80010000D03*
D15*
X80137000Y43929000D03*
X80137000Y45479000D03*
D18*
X130810002Y32885998D03*
X130810002Y35835998D03*
D19*
X80454000Y25343998D03*
X78804000Y25343998D03*
D26*
X52013000Y38461000D03*
X51063000Y38461000D03*
X50113000Y38461000D03*
X50113000Y35961000D03*
X51063000Y35961000D03*
X52013000Y35961000D03*
D16*
X40881000Y67056000D03*
X42431000Y67056000D03*
D14*
X72149000Y51816000D03*
X70599000Y51816000D03*
D15*
X78359000Y43929000D03*
X78359000Y45479000D03*
D27*
X58810000Y42481500D03*
D28*
X58810000Y40132000D03*
D29*
X74850500Y41316000D03*
X74350500Y41316000D03*
X73850500Y41316000D03*
X73350500Y41316000D03*
X72850500Y41316000D03*
X72850500Y36916000D03*
X73350500Y36916000D03*
X73850500Y36916000D03*
X74350500Y36916000D03*
X74850500Y36916000D03*
D16*
X68059000Y16477000D03*
X69609000Y16477000D03*
D30*
X53340000Y51580998D03*
X53340000Y57780998D03*
D20*
X46990000Y50990000D03*
X46990000Y49340000D03*
D16*
X40881000Y65278000D03*
X42431000Y65278000D03*
D25*
X40181000Y77343000D03*
X43131000Y77343000D03*
D31*
X76659000Y6858000D03*
X73709000Y6858000D03*
D21*
X80899000Y14231998D03*
X80899000Y15881998D03*
D15*
X133096002Y33585998D03*
X133096002Y35135998D03*
D32*
X119891000Y20193000D03*
X117091000Y20193000D03*
D33*
X24067002Y53283998D03*
X25717002Y53283998D03*
D34*
X46999000Y53289998D03*
D35*
X42374000Y54044998D03*
X42374000Y57094998D03*
X39024000Y54044998D03*
X39024000Y57094998D03*
D34*
X46999000Y57849998D03*
D36*
X109018002Y8325998D03*
X115518002Y8325998D03*
D37*
X65405002Y48773498D03*
X65405002Y51698498D03*
D15*
X81026000Y54216000D03*
X81026000Y55766000D03*
D36*
X96214002Y8325998D03*
X89714002Y8325998D03*
D13*
X79248000Y59068000D03*
X79248000Y57518000D03*
D33*
X18860002Y54680998D03*
X20510002Y54680998D03*
D27*
X47879000Y61277500D03*
D28*
X47879000Y63627000D03*
D21*
X74676000Y45403000D03*
X74676000Y47053000D03*
D14*
X75959002Y21914998D03*
X74409002Y21914998D03*
D20*
X80264002Y64522998D03*
X80264002Y62872998D03*
D14*
X75959000Y27526000D03*
X74409000Y27526000D03*
X75959000Y11811000D03*
X74409000Y11811000D03*
D18*
X88773000Y54151000D03*
X88773000Y57101000D03*
D19*
X72707000Y25748000D03*
X71057000Y25748000D03*
D38*
X76835000Y16858000D03*
D39*
X74930000Y14158000D03*
X76200000Y14158000D03*
X77470000Y14158000D03*
X78740000Y14158000D03*
X78740000Y19558000D03*
X77470000Y19558000D03*
X76200000Y19558000D03*
X74930000Y19558000D03*
D25*
X40181000Y74676000D03*
X43131000Y74676000D03*
D19*
X20510002Y53029998D03*
X18860002Y53029998D03*
D15*
X79248000Y54216000D03*
X79248000Y55766000D03*
D25*
X40181000Y72009000D03*
X43131000Y72009000D03*
D40*
X38227002Y47011998D03*
X39917002Y47011998D03*
X41577002Y47011998D03*
X38227002Y48711998D03*
X39917002Y48711998D03*
X41577002Y48711998D03*
X38227002Y50411998D03*
X39917002Y50411998D03*
X41577002Y50411998D03*
D41*
X36112002Y47671998D03*
X36112002Y49751998D03*
D13*
X68834002Y51772998D03*
X68834002Y50222998D03*
D30*
X29337000Y57272998D03*
X29337000Y51072998D03*
D24*
X19624000Y48590498D03*
X20574000Y48590498D03*
X21524000Y48590498D03*
X21524000Y50865498D03*
X20574000Y50865498D03*
X19624000Y50865498D03*
D25*
X67359000Y14191000D03*
X70309000Y14191000D03*
D42*
X18802002Y57465998D03*
D43*
X19557002Y62090998D03*
X22607002Y62090998D03*
X19557002Y65440998D03*
X22607002Y65440998D03*
D42*
X23362002Y57465998D03*
D27*
X55127000Y42481500D03*
D28*
X55127000Y40132000D03*
D44*
X79184500Y41148000D03*
D45*
X81534000Y41148000D03*
D33*
X78804000Y23565998D03*
X80454000Y23565998D03*
D13*
X59699000Y37986000D03*
X59699000Y36436000D03*
D46*
X51816000Y34036000D03*
D47*
X49916000Y34036000D03*
D31*
X76659000Y9525000D03*
X73709000Y9525000D03*
D20*
X78486000Y38544000D03*
X78486000Y36894000D03*
D18*
X91440000Y54151000D03*
X91440000Y57101000D03*
D21*
X70993000Y36894000D03*
X70993000Y38544000D03*
D25*
X40181000Y69342000D03*
X43131000Y69342000D03*
M02*
