M48
; DRILL file {KiCad 7.0.1} date Wed Jan 10 16:45:57 2024
; FORMAT={-:-/ absolute / metric / decimal}
; #@! TF.CreationDate,2024-01-10T16:45:57-08:00
; #@! TF.GenerationSoftware,Kicad,Pcbnew,7.0.1
; #@! TF.FileFunction,Plated,1,6,PTH
FMAT,2
METRIC
; #@! TA.AperFunction,Plated,PTH,ViaDrill
T1C0.305
; #@! TA.AperFunction,Plated,PTH,ComponentDrill
T2C0.889
; #@! TA.AperFunction,Plated,PTH,ComponentDrill
T3C1.016
; #@! TA.AperFunction,Plated,PTH,ComponentDrill
T4C2.413
%
G90
G05
T1
X2.879Y34.058
X2.879Y30.458
X15.494Y43.441
X16.002Y6.612
X16.637Y24.399
X16.891Y66.492
X16.891Y65.095
X16.891Y63.698
X16.891Y62.301
X16.891Y61.031
X17.526Y76.652
X17.526Y75.382
X17.526Y74.112
X17.78Y56.84
X18.415Y70.048
X18.415Y67.762
X18.923Y46.355
X19.304Y29.04
X19.304Y27.49
X19.304Y38.369
X19.558Y78.557
X19.685Y70.048
X19.685Y67.762
X20.473Y46.355
X20.828Y78.557
X21.082Y70.048
X21.082Y67.762
X22.035Y46.489
X22.098Y78.557
X22.339Y22.55
X22.352Y15.438
X22.479Y70.048
X22.479Y67.762
X23.876Y70.048
X23.876Y67.762
X23.889Y21.661
X23.889Y14.549
X23.889Y23.439
X23.889Y16.327
X24.003Y52.141
X24.13Y76.652
X24.13Y75.382
X24.13Y74.112
X25.019Y32.391
X26.289Y51.506
X26.289Y49.474
X27.305Y48.458
X27.496Y7.564
X28.321Y49.474
X28.321Y12.898
X28.321Y11.361
X28.829Y6.167
X29.337Y54.681
X29.337Y53.792
X29.337Y48.458
X29.337Y30.183
X29.337Y28.633
X30.353Y49.474
X31.242Y37.473
X31.369Y48.458
X32.385Y51.506
X32.385Y49.474
X32.385Y7.564
X32.448Y9.342
X32.512Y21.407
X32.512Y19.629
X33.02Y42.425
X33.401Y20.518
X33.909Y50.744
X33.909Y48.712
X33.909Y46.68
X34.29Y21.407
X34.29Y19.629
X34.417Y30.183
X34.417Y28.633
X34.671Y49.728
X34.671Y47.696
X34.798Y37.473
X35.56Y13.419
X35.56Y11.869
X38.1Y59.38
X38.735Y80.081
X38.735Y78.684
X38.735Y77.287
X38.735Y76.017
X38.735Y74.747
X38.735Y73.35
X38.735Y72.08
X38.735Y67.127
X38.735Y66.238
X38.735Y65.349
X39.37Y59.38
X39.688Y39.187
X39.688Y37.409
X39.688Y35.631
X39.688Y28.519
X40.132Y25.471
X40.64Y59.38
X41.897Y17.724
X41.897Y14.168
X41.897Y19.502
X41.91Y59.38
X42.99Y30.297
X43.18Y59.38
X43.434Y18.613
X43.447Y14.168
X44.704Y80.081
X44.704Y78.684
X44.704Y77.287
X44.704Y76.017
X44.704Y74.747
X44.704Y73.35
X44.704Y72.08
X44.704Y67.127
X44.704Y66.238
X44.704Y65.349
X46.049Y42.743
X47.244Y36.393
X48.895Y39.441
X50.475Y21.026
X51.054Y39.441
X52.013Y39.441
X52.698Y56.205
X53.34Y53.665
X53.467Y42.743
X54.864Y13.025
X54.864Y10.485
X57.921Y36.436
X59.699Y36.436
X61.214Y19.375
X61.214Y17.597
X61.214Y15.819
X61.214Y13.012
X62.103Y18.486
X62.103Y16.708
X62.992Y19.375
X62.992Y17.597
X62.992Y15.819
X62.992Y13.012
X62.992Y11.26
X65.405Y22.931
X67.437Y8.199
X67.437Y6.929
X67.437Y5.659
X70.358Y13.787
X70.358Y12.009
X70.358Y10.358
X70.993Y38.552
X71.628Y35.123
X72.009Y13.787
X72.009Y12.009
X72.009Y10.358
X73.66Y13.787
X73.66Y12.009
X73.66Y10.358
X74.351Y38.115
X74.422Y35.123
X75.057Y17.724
X75.057Y15.946
X75.946Y16.835
X76.708Y38.544
X76.835Y17.724
X76.835Y15.946
X77.523Y59.327
X77.978Y16.835
X78.486Y36.894
X78.74Y17.724
X78.74Y15.946
X78.804Y25.344
X79.248Y45.479
X80.264Y64.523
X83.312Y58.745
X84.836Y58.745
X85.979Y70.746
X85.979Y69.349
X86.106Y58.745
X87.122Y23.947
X87.376Y10.358
X87.376Y8.326
X87.376Y6.294
X87.503Y58.745
X88.392Y11.374
X88.392Y9.342
X88.392Y7.31
X88.392Y5.278
X88.773Y58.745
X89.408Y35.885
X90.17Y58.745
X90.297Y64.714
X90.424Y11.374
X90.424Y5.278
X90.615Y38.298
X90.665Y33.472
X91.377Y70.048
X91.44Y58.745
X92.215Y32.583
X92.71Y58.745
X94.107Y58.745
X94.234Y44.026
X94.234Y42.476
X94.348Y38.298
X95.504Y27.757
X95.504Y24.709
X95.898Y38.298
X95.999Y46.045
X96.012Y76.594
X96.012Y75.044
X96.139Y34.234
X97.028Y41.219
X97.028Y33.091
X97.028Y25.471
X97.549Y46.045
X98.031Y38.298
X98.199Y66.365
X99.187Y47.569
X99.555Y44.013
X99.581Y38.298
X99.736Y70.134
X99.749Y66.365
X99.822Y34.234
X100.076Y56.332
X100.076Y53.538
X100.203Y46.172
X101.105Y44.013
X104.14Y59.38
X105.283Y55.316
X105.283Y53.411
X105.537Y46.553
X106.426Y33.599
X106.934Y35.123
X111.887Y52.903
X114.935Y11.374
X114.935Y5.278
X116.904Y47.188
X116.967Y11.374
X116.967Y9.342
X116.967Y7.31
X116.967Y5.278
X117.221Y64.079
X117.284Y67.521
X117.856Y53.538
X117.983Y10.358
X117.983Y8.326
X117.983Y6.294
X118.867Y58.425
X118.867Y56.525
X119.24Y64.079
X120.904Y58.3
X121.92Y64.079
X123.05Y53.03
X124.587Y44.521
X124.65Y47.188
X125.476Y53.03
X126.175Y62.428
X126.302Y56.586
X126.365Y71.127
X127.676Y49.657
X128.143Y37.028
X129.476Y73.223
X129.476Y67.762
X129.54Y37.028
X129.794Y57.602
X130.81Y37.028
X131.064Y61.412
X132.08Y37.028
X133.096Y37.028
X134.112Y37.028
X135.128Y37.028
X137.16Y76.144
X137.16Y74.366
X137.16Y67.127
X137.16Y64.841
X138.303Y75.255
X138.303Y65.984
X139.065Y69.54
X139.433Y76.144
X139.433Y74.366
X139.446Y67.127
X139.446Y64.841
X140.97Y74.366
X140.97Y64.841
X140.983Y76.144
X144.907Y70.937
X144.907Y68.143
X145.415Y69.54
X145.923Y70.937
X145.923Y68.143
T2
X6.614Y56.392
X6.614Y53.892
X6.614Y41.1
X6.614Y38.6
X6.614Y25.808
X6.614Y23.308
T3
X7.918Y77.585
X7.918Y74.585
X7.918Y71.585
X7.918Y68.585
X10.918Y77.585
X10.918Y74.585
X10.918Y71.585
X10.918Y68.585
X96.266Y20.402
X96.266Y15.402
X108.966Y20.402
X108.966Y15.402
X127.381Y20.275
X127.381Y15.275
X138.037Y35.861
X138.037Y32.861
X139.7Y20.275
X139.7Y15.275
X141.037Y35.861
X141.037Y32.861
T4
X3.6Y79.74
X3.6Y66.43
T0
M30
