G04 #@! TF.GenerationSoftware,KiCad,Pcbnew,7.0.1*
G04 #@! TF.CreationDate,2024-02-29T06:24:46-08:00*
G04 #@! TF.ProjectId,POWERCORE-V2.0_MOTHERBOARD,504f5745-5243-44f5-9245-2d56322e305f,rev?*
G04 #@! TF.SameCoordinates,PX791ddbePYb90347e*
G04 #@! TF.FileFunction,Copper,L3,Inr*
G04 #@! TF.FilePolarity,Positive*
%FSLAX46Y46*%
G04 Gerber Fmt 4.6, Leading zero omitted, Abs format (unit mm)*
G04 Created by KiCad (PCBNEW 7.0.1) date 2024-02-29 06:24:46*
%MOMM*%
%LPD*%
G01*
G04 APERTURE LIST*
G04 #@! TA.AperFunction,ComponentPad*
%ADD10C,1.778000*%
G04 #@! TD*
G04 #@! TA.AperFunction,ComponentPad*
%ADD11C,3.175000*%
G04 #@! TD*
G04 #@! TA.AperFunction,ComponentPad*
%ADD12C,1.651000*%
G04 #@! TD*
G04 #@! TA.AperFunction,ComponentPad*
%ADD13R,2.000000X2.000000*%
G04 #@! TD*
G04 #@! TA.AperFunction,ComponentPad*
%ADD14C,2.000000*%
G04 #@! TD*
G04 #@! TA.AperFunction,ViaPad*
%ADD15C,0.635000*%
G04 #@! TD*
G04 #@! TA.AperFunction,Conductor*
%ADD16C,0.508000*%
G04 #@! TD*
G04 #@! TA.AperFunction,Conductor*
%ADD17C,2.540000*%
G04 #@! TD*
G04 #@! TA.AperFunction,Conductor*
%ADD18C,1.270000*%
G04 #@! TD*
G04 APERTURE END LIST*
D10*
X7918000Y68584999D03*
X7918000Y71584999D03*
X7918000Y74584999D03*
X7918000Y77584999D03*
X10918000Y68584999D03*
X10918000Y71584999D03*
X10918000Y74584999D03*
X10918000Y77584999D03*
D11*
X3600000Y66430199D03*
X3600000Y79739799D03*
D12*
X6614322Y41100000D03*
X6614322Y38600000D03*
X6614322Y56392060D03*
X6614322Y53892060D03*
D13*
X127381000Y20274677D03*
D14*
X127381000Y15274677D03*
D12*
X6614322Y25808000D03*
X6614322Y23308000D03*
D13*
X96266000Y20401677D03*
D14*
X96266000Y15401677D03*
D13*
X108966000Y20401677D03*
D14*
X108966000Y15401677D03*
D10*
X141037252Y35860998D03*
X141037252Y32860998D03*
X138037252Y35860998D03*
X138037252Y32860998D03*
D13*
X139700000Y20274677D03*
D14*
X139700000Y15274677D03*
D15*
X147066002Y70174998D03*
X146050002Y70174998D03*
X146558002Y71444998D03*
X147066002Y72968998D03*
X146050002Y72968998D03*
X41897004Y19501998D03*
X27496004Y7563997D03*
X23889002Y21660998D03*
X117234002Y42615998D03*
X61214002Y19374998D03*
X61214002Y15818998D03*
X35560002Y13419000D03*
X29337002Y28632996D03*
X41897000Y14167998D03*
X32448004Y9341998D03*
X129146002Y53156998D03*
X62992002Y17596998D03*
X62992002Y15818998D03*
X34417002Y28633000D03*
X105804002Y30423998D03*
X117021004Y71698998D03*
X23889002Y14548998D03*
X19304002Y27490000D03*
X15494001Y43440997D03*
X62103002Y16707998D03*
X54864002Y10484998D03*
X107937002Y36138998D03*
X62992002Y19374998D03*
X61214002Y17596998D03*
X39688004Y35630998D03*
X28321002Y12897998D03*
X111620002Y36138998D03*
X62103002Y18485998D03*
X132461002Y71190998D03*
X69215002Y39948998D03*
X22352002Y15437998D03*
X128143002Y37027998D03*
X115900002Y9499998D03*
X69215002Y49219998D03*
X70358002Y44520998D03*
X130810002Y37027998D03*
X70358002Y48076998D03*
X70358002Y42234998D03*
X110363002Y41027257D03*
X112649002Y76397998D03*
X108649002Y75381998D03*
X74930002Y49219998D03*
X52070002Y70436117D03*
X70358002Y49219998D03*
X44069002Y70436117D03*
X42037002Y70436117D03*
X71501002Y49219998D03*
X75057002Y17723998D03*
X75946002Y16834998D03*
X58674002Y70436117D03*
X72009002Y10357998D03*
X77089002Y66618998D03*
X29845002Y69285998D03*
X115100002Y7199998D03*
X29337002Y30182996D03*
X33020002Y42424996D03*
X143015002Y76397998D03*
X53327004Y46679998D03*
X53284000Y57356996D03*
X73660002Y12008998D03*
X134112002Y37027998D03*
X72009002Y12008998D03*
X90100002Y7199998D03*
X70358002Y46933998D03*
X77470002Y24073998D03*
X92661000Y40583998D03*
X22339002Y22549998D03*
X115697002Y42615998D03*
X56007002Y70436117D03*
X71501002Y50362998D03*
X62738002Y70436117D03*
X91199000Y49854998D03*
X116967002Y76270998D03*
X137175002Y61665998D03*
X71501002Y48076998D03*
X53327001Y44901996D03*
X28321002Y11361000D03*
X116332002Y44901998D03*
X32512002Y21406998D03*
X135509002Y74111998D03*
X70358002Y39948998D03*
X113157002Y36138998D03*
X69215002Y48076998D03*
X59944002Y70436117D03*
X76073002Y49219998D03*
X78740002Y15945998D03*
X50673002Y70436117D03*
X91199000Y48076998D03*
X73787002Y49219998D03*
X34290002Y19628998D03*
X73660002Y13786998D03*
X74930002Y50362998D03*
X70358002Y12008998D03*
X117983002Y53029998D03*
X90100002Y9499998D03*
X126111002Y64205998D03*
X133096002Y37027998D03*
X132398000Y56712998D03*
X2878999Y30458001D03*
X54864002Y13024998D03*
X135572004Y67888998D03*
X104140002Y36138998D03*
X72644002Y49219998D03*
X72644002Y46933998D03*
X72644002Y48076998D03*
X70358002Y43377998D03*
X92661000Y37916998D03*
X34417002Y30182996D03*
X102997002Y33725998D03*
X34798002Y37473000D03*
X33401002Y20517998D03*
X76835002Y17723998D03*
X130683002Y44647998D03*
X72539002Y43502998D03*
X34290002Y21406998D03*
X135128002Y37027998D03*
X75057002Y15945998D03*
X62992002Y13011996D03*
X76073002Y50362998D03*
X72644002Y45790998D03*
X70358002Y41091998D03*
X115518000Y8325998D03*
X69215002Y45790998D03*
X92661000Y43250998D03*
X53340002Y70436117D03*
X2878999Y34057999D03*
X123000002Y47314998D03*
X72009002Y13786998D03*
X120536002Y45155998D03*
X107455002Y53410998D03*
X71501002Y46933998D03*
X19304004Y38368996D03*
X48006002Y70436117D03*
X70358002Y13786998D03*
X113411002Y32328998D03*
X69215002Y44520998D03*
X77470002Y37916998D03*
X39497002Y64967998D03*
X69215002Y50362998D03*
X77978002Y16834998D03*
X35560002Y11869000D03*
X109601002Y32328998D03*
X109474002Y36138998D03*
X89300002Y7199998D03*
X34570002Y51561998D03*
X43434002Y18612996D03*
X132080002Y37027998D03*
X31242002Y37473000D03*
X69215002Y43377998D03*
X131572002Y53156998D03*
X77216002Y49219998D03*
X123317002Y67634998D03*
X78740002Y17723998D03*
X92661000Y35376998D03*
X92710002Y41980998D03*
X133772002Y49783998D03*
X92661000Y45917998D03*
X73660002Y10357998D03*
X25019002Y32390996D03*
X54610002Y70436117D03*
X16637004Y24398996D03*
X69215002Y46933998D03*
X71501002Y45790998D03*
X104254003Y31312999D03*
X112141002Y44647998D03*
X69215002Y42234998D03*
X89718000Y8325998D03*
X72644002Y50362998D03*
X115443002Y46291878D03*
X76835002Y15945998D03*
X89300002Y9499998D03*
X143015004Y66872998D03*
X74549002Y40965000D03*
X69215002Y41091998D03*
X70358002Y45790998D03*
X115900002Y7199998D03*
X57404002Y70436117D03*
X92710002Y39313998D03*
X115100002Y9499998D03*
X73787002Y50362998D03*
X107950002Y39694998D03*
X32385002Y7563998D03*
X43447002Y14168000D03*
X70358002Y50362998D03*
X49403002Y70436117D03*
X77216002Y50362998D03*
X56332000Y52587997D03*
X91186002Y48965998D03*
X16002004Y6611998D03*
X61341002Y70428998D03*
X92710002Y36646998D03*
X19304002Y29039996D03*
X50475004Y21025998D03*
X32512002Y19628998D03*
X70358002Y10357998D03*
X143015002Y78175998D03*
X92710002Y44647998D03*
X129667002Y37027998D03*
X115471002Y71698998D03*
X39688000Y37408998D03*
X39688000Y39186998D03*
X41338004Y30169998D03*
X124968002Y56585998D03*
X107315002Y43885998D03*
X115951002Y54553998D03*
X67437002Y8198998D03*
X140081002Y67380998D03*
X140081002Y65983998D03*
X139446002Y66745998D03*
X138811002Y65983998D03*
X138811002Y67380998D03*
X67437002Y5658998D03*
X65405002Y22930998D03*
X67441000Y6928998D03*
X70485002Y53410998D03*
X62230002Y26740998D03*
X107696002Y32074998D03*
X102743002Y32074998D03*
X113855502Y45854498D03*
X119380002Y31058998D03*
X56332000Y53546996D03*
X73533002Y40964998D03*
X23889004Y16326998D03*
X23889004Y23438997D03*
X41897000Y17723998D03*
X28131000Y69285998D03*
X29096002Y8452998D03*
X55880002Y80969998D03*
X119380002Y39567998D03*
X130873502Y55633498D03*
X140335002Y78175998D03*
X140335002Y76397998D03*
X110363002Y42628998D03*
X127000002Y58426998D03*
X135001002Y58744998D03*
X112268002Y52013998D03*
X140335002Y77286998D03*
X127648004Y64205998D03*
X132271004Y62554998D03*
X105918002Y53423998D03*
X59634000Y58551998D03*
X59634000Y51133996D03*
X108649000Y70047998D03*
X38989001Y65729997D03*
X77597002Y67380998D03*
X76581002Y67380998D03*
X35560002Y50108998D03*
X30734002Y59887998D03*
X124962502Y58552000D03*
X118364002Y39695000D03*
X72517002Y40964998D03*
X114554002Y33725998D03*
X116967002Y33725998D03*
X56332000Y55705996D03*
X120142003Y37535997D03*
X117282000Y46679998D03*
X40005002Y65729997D03*
D16*
X77523001Y59326999D02*
X77523001Y39359001D01*
X77523001Y39359001D02*
X76708000Y38544000D01*
D17*
X139446002Y44139998D02*
X139446002Y66745998D01*
X126238002Y39948998D02*
X127381002Y41091998D01*
X123317002Y29661998D02*
X123317002Y37027998D01*
X123317002Y37027998D02*
X126238002Y39948998D01*
X67441000Y6928998D02*
X81661002Y6928998D01*
X136398002Y41091998D02*
X139446002Y44139998D01*
X88265002Y23438998D02*
X90551002Y25724998D01*
X81661002Y6928998D02*
X86995002Y12262998D01*
X86995002Y12262998D02*
X88265002Y13532998D01*
X90551002Y25724998D02*
X116967002Y25724998D01*
X116967002Y25724998D02*
X119380002Y25724998D01*
X88265002Y13532998D02*
X88265002Y23438998D01*
X119380002Y25724998D02*
X123317002Y29661998D01*
X127381002Y41091998D02*
X136398002Y41091998D01*
D18*
X28956002Y20009998D02*
X25654002Y20009998D01*
X31242002Y17723998D02*
X28956002Y20009998D01*
X24892003Y23438997D02*
X25654002Y22676998D01*
X41897000Y17723998D02*
X31242002Y17723998D01*
X23889004Y23438997D02*
X24892003Y23438997D01*
X25019002Y16326998D02*
X23889004Y16326998D01*
X25654002Y16961998D02*
X25019002Y16326998D01*
X25654002Y20009998D02*
X25654002Y16961998D01*
X25654002Y22676998D02*
X25654002Y20009998D01*
D16*
X59634000Y51133996D02*
X59634000Y58551998D01*
G04 #@! TA.AperFunction,Conductor*
G36*
X149428500Y82985117D02*
G01*
X149474619Y82938998D01*
X149491500Y82875998D01*
X149491500Y4133998D01*
X149474619Y4070998D01*
X149428500Y4024879D01*
X149365500Y4007998D01*
X634500Y4007998D01*
X571500Y4024879D01*
X525381Y4070998D01*
X508500Y4133998D01*
X508500Y6611999D01*
X15425068Y6611999D01*
X15444726Y6462677D01*
X15502362Y6323531D01*
X15502363Y6323530D01*
X15594049Y6204043D01*
X15713536Y6112357D01*
X15852682Y6054721D01*
X16002004Y6035062D01*
X16151326Y6054721D01*
X16290472Y6112357D01*
X16409959Y6204043D01*
X16501645Y6323530D01*
X16559281Y6462676D01*
X16578940Y6611998D01*
X16559281Y6761320D01*
X16515337Y6867411D01*
X65912780Y6867411D01*
X65922673Y6785939D01*
X65942449Y6623067D01*
X66010930Y6386644D01*
X66116449Y6164268D01*
X66256271Y5961700D01*
X66256273Y5961698D01*
X66426780Y5784181D01*
X66623556Y5636314D01*
X66740898Y5574728D01*
X66843463Y5520897D01*
X66877948Y5494298D01*
X66901317Y5457548D01*
X66937360Y5370531D01*
X66937361Y5370530D01*
X67029047Y5251043D01*
X67148534Y5159357D01*
X67287680Y5101721D01*
X67437002Y5082062D01*
X67586324Y5101721D01*
X67725470Y5159357D01*
X67844957Y5251043D01*
X67881354Y5298478D01*
X67924882Y5355202D01*
X67969116Y5391504D01*
X68024844Y5404498D01*
X81644372Y5404498D01*
X81646907Y5404473D01*
X81677784Y5403851D01*
X81753345Y5402328D01*
X81753345Y5402329D01*
X81753348Y5402328D01*
X81825831Y5412615D01*
X81833360Y5413453D01*
X81906345Y5419344D01*
X81945103Y5428898D01*
X81957546Y5431307D01*
X81997047Y5436912D01*
X82066939Y5458692D01*
X82074221Y5460723D01*
X82145333Y5478249D01*
X82182057Y5493896D01*
X82193927Y5498262D01*
X82232044Y5510139D01*
X82297577Y5542868D01*
X82304418Y5546029D01*
X82371778Y5574728D01*
X82405515Y5596063D01*
X82416528Y5602275D01*
X82452250Y5620114D01*
X82511661Y5662917D01*
X82517933Y5667153D01*
X82579813Y5706282D01*
X82609686Y5732749D01*
X82619575Y5740659D01*
X82651963Y5763990D01*
X82703736Y5815765D01*
X82709264Y5820967D01*
X82764052Y5869504D01*
X82789300Y5900430D01*
X82797786Y5909815D01*
X84087969Y7199998D01*
X88723066Y7199998D01*
X88742724Y7050677D01*
X88800360Y6911531D01*
X88800361Y6911530D01*
X88892047Y6792043D01*
X89011534Y6700357D01*
X89150680Y6642721D01*
X89300002Y6623062D01*
X89449324Y6642721D01*
X89588470Y6700357D01*
X89623299Y6727083D01*
X89672730Y6750133D01*
X89727274Y6750133D01*
X89776704Y6727083D01*
X89811534Y6700357D01*
X89950680Y6642721D01*
X90100002Y6623062D01*
X90249324Y6642721D01*
X90388470Y6700357D01*
X90507957Y6792043D01*
X90599643Y6911530D01*
X90657279Y7050676D01*
X90676938Y7199998D01*
X114523066Y7199998D01*
X114542724Y7050677D01*
X114600360Y6911531D01*
X114600361Y6911530D01*
X114692047Y6792043D01*
X114811534Y6700357D01*
X114950680Y6642721D01*
X115100002Y6623062D01*
X115249324Y6642721D01*
X115388470Y6700357D01*
X115423299Y6727083D01*
X115472730Y6750133D01*
X115527274Y6750133D01*
X115576704Y6727083D01*
X115611534Y6700357D01*
X115750680Y6642721D01*
X115900002Y6623062D01*
X116049324Y6642721D01*
X116188470Y6700357D01*
X116307957Y6792043D01*
X116399643Y6911530D01*
X116457279Y7050676D01*
X116476938Y7199998D01*
X116457279Y7349320D01*
X116399643Y7488466D01*
X116307957Y7607953D01*
X116188470Y7699639D01*
X116188469Y7699640D01*
X116049323Y7757276D01*
X116041602Y7758292D01*
X115981344Y7783252D01*
X115941640Y7834997D01*
X115933127Y7899661D01*
X115958086Y7959917D01*
X116017641Y8037530D01*
X116075277Y8176676D01*
X116094936Y8325998D01*
X116075277Y8475320D01*
X116017641Y8614466D01*
X116017640Y8614467D01*
X116017640Y8614468D01*
X115924634Y8735675D01*
X115899674Y8795933D01*
X115908187Y8860598D01*
X115947893Y8912342D01*
X116008150Y8937301D01*
X116049324Y8942721D01*
X116188470Y9000357D01*
X116307957Y9092043D01*
X116399643Y9211530D01*
X116457279Y9350676D01*
X116476938Y9499998D01*
X116457279Y9649320D01*
X116399643Y9788466D01*
X116307957Y9907953D01*
X116188470Y9999639D01*
X116188469Y9999640D01*
X116049323Y10057276D01*
X115900002Y10076934D01*
X115750680Y10057276D01*
X115611533Y9999639D01*
X115576702Y9972913D01*
X115527270Y9949864D01*
X115472729Y9949865D01*
X115423298Y9972915D01*
X115388470Y9999639D01*
X115249323Y10057276D01*
X115100002Y10076934D01*
X114950680Y10057276D01*
X114811534Y9999640D01*
X114692047Y9907953D01*
X114600360Y9788466D01*
X114542724Y9649320D01*
X114523066Y9499998D01*
X114542724Y9350677D01*
X114600360Y9211531D01*
X114600361Y9211530D01*
X114692047Y9092043D01*
X114798609Y9010275D01*
X114811534Y9000357D01*
X114950680Y8942721D01*
X115024546Y8932996D01*
X115084804Y8908036D01*
X115124509Y8856292D01*
X115133022Y8791628D01*
X115108062Y8731370D01*
X115018359Y8614469D01*
X114960722Y8475320D01*
X114941064Y8325999D01*
X114960722Y8176677D01*
X115018358Y8037531D01*
X115074610Y7964223D01*
X115099570Y7903965D01*
X115091057Y7839300D01*
X115051352Y7787556D01*
X114991095Y7762596D01*
X114950679Y7757276D01*
X114811534Y7699640D01*
X114692047Y7607953D01*
X114600360Y7488466D01*
X114542724Y7349320D01*
X114523066Y7199998D01*
X90676938Y7199998D01*
X90657279Y7349320D01*
X90599643Y7488466D01*
X90507957Y7607953D01*
X90388470Y7699639D01*
X90388469Y7699640D01*
X90249323Y7757276D01*
X90241602Y7758292D01*
X90181344Y7783252D01*
X90141640Y7834997D01*
X90133127Y7899661D01*
X90158086Y7959917D01*
X90217641Y8037530D01*
X90275277Y8176676D01*
X90294936Y8325998D01*
X90275277Y8475320D01*
X90217641Y8614466D01*
X90217640Y8614467D01*
X90217640Y8614468D01*
X90124634Y8735675D01*
X90099674Y8795933D01*
X90108187Y8860598D01*
X90147893Y8912342D01*
X90208150Y8937301D01*
X90249324Y8942721D01*
X90388470Y9000357D01*
X90507957Y9092043D01*
X90599643Y9211530D01*
X90657279Y9350676D01*
X90676938Y9499998D01*
X90657279Y9649320D01*
X90599643Y9788466D01*
X90507957Y9907953D01*
X90388470Y9999639D01*
X90388469Y9999640D01*
X90249323Y10057276D01*
X90100002Y10076934D01*
X89950680Y10057276D01*
X89811533Y9999639D01*
X89776702Y9972913D01*
X89727270Y9949864D01*
X89672729Y9949865D01*
X89623298Y9972915D01*
X89588470Y9999639D01*
X89449323Y10057276D01*
X89300002Y10076934D01*
X89150680Y10057276D01*
X89011534Y9999640D01*
X88892047Y9907953D01*
X88800360Y9788466D01*
X88742724Y9649320D01*
X88723066Y9499998D01*
X88742724Y9350677D01*
X88800360Y9211531D01*
X88800361Y9211530D01*
X88892047Y9092043D01*
X88998609Y9010275D01*
X89011534Y9000357D01*
X89150680Y8942721D01*
X89224546Y8932996D01*
X89284804Y8908036D01*
X89324509Y8856292D01*
X89333022Y8791628D01*
X89308062Y8731370D01*
X89218359Y8614469D01*
X89160722Y8475320D01*
X89141064Y8325999D01*
X89160722Y8176677D01*
X89218358Y8037531D01*
X89274610Y7964223D01*
X89299570Y7903965D01*
X89291057Y7839300D01*
X89251352Y7787556D01*
X89191095Y7762596D01*
X89150679Y7757276D01*
X89011534Y7699640D01*
X88892047Y7607953D01*
X88800360Y7488466D01*
X88742724Y7349320D01*
X88723066Y7199998D01*
X84087969Y7199998D01*
X88116432Y11228459D01*
X88134152Y11246179D01*
X88134154Y11246183D01*
X89331226Y12443256D01*
X89332989Y12444983D01*
X89356662Y12467721D01*
X89409819Y12518778D01*
X89453802Y12577310D01*
X89458536Y12583230D01*
X89505972Y12638995D01*
X89526617Y12673148D01*
X89533714Y12683654D01*
X89557685Y12715553D01*
X89557686Y12715554D01*
X89591712Y12780388D01*
X89595418Y12786959D01*
X89633310Y12849637D01*
X89648209Y12886659D01*
X89653523Y12898159D01*
X89672074Y12933501D01*
X89695255Y13002940D01*
X89697872Y13010056D01*
X89725210Y13077979D01*
X89733978Y13116911D01*
X89737381Y13129122D01*
X89750019Y13166974D01*
X89761762Y13239242D01*
X89763205Y13246691D01*
X89779290Y13318105D01*
X89781699Y13357944D01*
X89783097Y13370524D01*
X89789502Y13409928D01*
X89789502Y13483133D01*
X89789732Y13490740D01*
X89791782Y13524639D01*
X89794151Y13563797D01*
X89790140Y13603498D01*
X89789502Y13616163D01*
X89789502Y15401677D01*
X95006708Y15401677D01*
X95009561Y15369063D01*
X95025839Y15182999D01*
X95082652Y14970976D01*
X95175420Y14772032D01*
X95301328Y14592217D01*
X95456539Y14437006D01*
X95456542Y14437004D01*
X95456543Y14437003D01*
X95636354Y14311098D01*
X95835297Y14218330D01*
X95922540Y14194953D01*
X96047321Y14161517D01*
X96047322Y14161517D01*
X96047326Y14161516D01*
X96266000Y14142385D01*
X96484674Y14161516D01*
X96696703Y14218330D01*
X96895646Y14311098D01*
X97075457Y14437003D01*
X97230674Y14592220D01*
X97356579Y14772031D01*
X97449347Y14970974D01*
X97506161Y15183003D01*
X97525292Y15401677D01*
X107706708Y15401677D01*
X107709561Y15369063D01*
X107725839Y15182999D01*
X107782652Y14970976D01*
X107875420Y14772032D01*
X108001328Y14592217D01*
X108156539Y14437006D01*
X108156542Y14437004D01*
X108156543Y14437003D01*
X108336354Y14311098D01*
X108535297Y14218330D01*
X108622540Y14194953D01*
X108747321Y14161517D01*
X108747322Y14161517D01*
X108747326Y14161516D01*
X108966000Y14142385D01*
X109184674Y14161516D01*
X109396703Y14218330D01*
X109595646Y14311098D01*
X109775457Y14437003D01*
X109930674Y14592220D01*
X110056579Y14772031D01*
X110149347Y14970974D01*
X110206161Y15183003D01*
X110214181Y15274678D01*
X126121708Y15274678D01*
X126140839Y15055999D01*
X126197652Y14843976D01*
X126290420Y14645032D01*
X126416328Y14465217D01*
X126571539Y14310006D01*
X126571542Y14310004D01*
X126571543Y14310003D01*
X126751354Y14184098D01*
X126950297Y14091330D01*
X127043781Y14066281D01*
X127162321Y14034517D01*
X127162322Y14034517D01*
X127162326Y14034516D01*
X127381000Y14015385D01*
X127599674Y14034516D01*
X127811703Y14091330D01*
X128010646Y14184098D01*
X128190457Y14310003D01*
X128345674Y14465220D01*
X128471579Y14645031D01*
X128564347Y14843974D01*
X128621161Y15056003D01*
X128640292Y15274677D01*
X128640292Y15274678D01*
X138440708Y15274678D01*
X138459839Y15055999D01*
X138516652Y14843976D01*
X138609420Y14645032D01*
X138735328Y14465217D01*
X138890539Y14310006D01*
X138890542Y14310004D01*
X138890543Y14310003D01*
X139070354Y14184098D01*
X139269297Y14091330D01*
X139362781Y14066281D01*
X139481321Y14034517D01*
X139481322Y14034517D01*
X139481326Y14034516D01*
X139700000Y14015385D01*
X139918674Y14034516D01*
X140130703Y14091330D01*
X140329646Y14184098D01*
X140509457Y14310003D01*
X140664674Y14465220D01*
X140790579Y14645031D01*
X140883347Y14843974D01*
X140940161Y15056003D01*
X140959292Y15274677D01*
X140940161Y15493351D01*
X140935720Y15509923D01*
X140906131Y15620351D01*
X140883347Y15705380D01*
X140790579Y15904323D01*
X140664674Y16084134D01*
X140664673Y16084135D01*
X140664671Y16084138D01*
X140509460Y16239349D01*
X140329645Y16365257D01*
X140130701Y16458025D01*
X139918678Y16514838D01*
X139700000Y16533969D01*
X139481321Y16514838D01*
X139269298Y16458025D01*
X139070354Y16365257D01*
X138890539Y16239349D01*
X138735328Y16084138D01*
X138609420Y15904323D01*
X138516652Y15705379D01*
X138459839Y15493356D01*
X138440708Y15274678D01*
X128640292Y15274678D01*
X128621161Y15493351D01*
X128616720Y15509923D01*
X128587131Y15620351D01*
X128564347Y15705380D01*
X128471579Y15904323D01*
X128345674Y16084134D01*
X128345673Y16084135D01*
X128345671Y16084138D01*
X128190460Y16239349D01*
X128010645Y16365257D01*
X127811701Y16458025D01*
X127599678Y16514838D01*
X127381000Y16533969D01*
X127162321Y16514838D01*
X126950298Y16458025D01*
X126751354Y16365257D01*
X126571539Y16239349D01*
X126416328Y16084138D01*
X126290420Y15904323D01*
X126197652Y15705379D01*
X126140839Y15493356D01*
X126121708Y15274678D01*
X110214181Y15274678D01*
X110225292Y15401677D01*
X110206161Y15620351D01*
X110198113Y15650385D01*
X110149347Y15832379D01*
X110143017Y15845953D01*
X110056579Y16031323D01*
X109930674Y16211134D01*
X109930673Y16211135D01*
X109930671Y16211138D01*
X109775460Y16366349D01*
X109595645Y16492257D01*
X109396701Y16585025D01*
X109184678Y16641838D01*
X108966000Y16660969D01*
X108747321Y16641838D01*
X108535298Y16585025D01*
X108336354Y16492257D01*
X108156539Y16366349D01*
X108001328Y16211138D01*
X107875420Y16031323D01*
X107782652Y15832379D01*
X107725839Y15620356D01*
X107709520Y15433824D01*
X107706708Y15401677D01*
X97525292Y15401677D01*
X97506161Y15620351D01*
X97498113Y15650385D01*
X97449347Y15832379D01*
X97443017Y15845953D01*
X97356579Y16031323D01*
X97230674Y16211134D01*
X97230673Y16211135D01*
X97230671Y16211138D01*
X97075460Y16366349D01*
X96895645Y16492257D01*
X96696701Y16585025D01*
X96484678Y16641838D01*
X96266000Y16660969D01*
X96047321Y16641838D01*
X95835298Y16585025D01*
X95636354Y16492257D01*
X95456539Y16366349D01*
X95301328Y16211138D01*
X95175420Y16031323D01*
X95082652Y15832379D01*
X95025839Y15620356D01*
X95009520Y15433824D01*
X95006708Y15401677D01*
X89789502Y15401677D01*
X89789502Y19376609D01*
X95011500Y19376609D01*
X95026265Y19302377D01*
X95082515Y19218193D01*
X95124811Y19189932D01*
X95166699Y19161943D01*
X95240933Y19147177D01*
X97291066Y19147178D01*
X97291068Y19147178D01*
X97340556Y19157022D01*
X97365301Y19161943D01*
X97449484Y19218193D01*
X97505734Y19302376D01*
X97520500Y19376609D01*
X107711500Y19376609D01*
X107726265Y19302377D01*
X107782515Y19218193D01*
X107824811Y19189932D01*
X107866699Y19161943D01*
X107940933Y19147177D01*
X109991066Y19147178D01*
X109991068Y19147178D01*
X110040556Y19157022D01*
X110065301Y19161943D01*
X110149484Y19218193D01*
X110170476Y19249609D01*
X126126500Y19249609D01*
X126141265Y19175377D01*
X126197515Y19091193D01*
X126247943Y19057498D01*
X126281699Y19034943D01*
X126355933Y19020177D01*
X128406066Y19020178D01*
X128406068Y19020178D01*
X128455555Y19030022D01*
X128480301Y19034943D01*
X128564484Y19091193D01*
X128620734Y19175376D01*
X128635500Y19249609D01*
X138445500Y19249609D01*
X138460265Y19175377D01*
X138516515Y19091193D01*
X138566943Y19057498D01*
X138600699Y19034943D01*
X138674933Y19020177D01*
X140725066Y19020178D01*
X140725068Y19020178D01*
X140774555Y19030022D01*
X140799301Y19034943D01*
X140883484Y19091193D01*
X140939734Y19175376D01*
X140954500Y19249610D01*
X140954499Y21299743D01*
X140954499Y21299744D01*
X140954499Y21299746D01*
X140939734Y21373978D01*
X140883484Y21458162D01*
X140799301Y21514411D01*
X140799300Y21514412D01*
X140725066Y21529177D01*
X138674931Y21529177D01*
X138600699Y21514412D01*
X138516515Y21458162D01*
X138460266Y21373979D01*
X138445500Y21299744D01*
X138445500Y19249609D01*
X128635500Y19249609D01*
X128635500Y19249610D01*
X128635499Y21299743D01*
X128635499Y21299744D01*
X128635499Y21299746D01*
X128620734Y21373978D01*
X128564484Y21458162D01*
X128480301Y21514411D01*
X128480300Y21514412D01*
X128406066Y21529177D01*
X126355931Y21529177D01*
X126281699Y21514412D01*
X126197515Y21458162D01*
X126141266Y21373979D01*
X126126500Y21299744D01*
X126126500Y19249609D01*
X110170476Y19249609D01*
X110205734Y19302376D01*
X110220500Y19376610D01*
X110220499Y21426743D01*
X110220499Y21426744D01*
X110220499Y21426746D01*
X110205734Y21500978D01*
X110149484Y21585162D01*
X110065301Y21641411D01*
X110065300Y21641412D01*
X109991066Y21656177D01*
X107940931Y21656177D01*
X107866699Y21641412D01*
X107782515Y21585162D01*
X107726266Y21500979D01*
X107711500Y21426744D01*
X107711500Y19376609D01*
X97520500Y19376609D01*
X97520500Y19376610D01*
X97520499Y21426743D01*
X97520499Y21426744D01*
X97520499Y21426746D01*
X97505734Y21500978D01*
X97449484Y21585162D01*
X97365301Y21641411D01*
X97365300Y21641412D01*
X97291066Y21656177D01*
X95240931Y21656177D01*
X95166699Y21641412D01*
X95082515Y21585162D01*
X95026266Y21500979D01*
X95011500Y21426744D01*
X95011500Y19376609D01*
X89789502Y19376609D01*
X89789502Y22755339D01*
X89799093Y22803557D01*
X89826407Y22844434D01*
X91145565Y24163593D01*
X91186442Y24190907D01*
X91234660Y24200498D01*
X116843932Y24200498D01*
X117028443Y24200498D01*
X119363372Y24200498D01*
X119365907Y24200473D01*
X119396784Y24199851D01*
X119472345Y24198328D01*
X119472345Y24198329D01*
X119472348Y24198328D01*
X119544831Y24208615D01*
X119552360Y24209453D01*
X119625345Y24215344D01*
X119664103Y24224898D01*
X119676546Y24227307D01*
X119716047Y24232912D01*
X119785939Y24254692D01*
X119793221Y24256723D01*
X119864333Y24274249D01*
X119901057Y24289896D01*
X119912927Y24294262D01*
X119951044Y24306139D01*
X120016577Y24338868D01*
X120023418Y24342029D01*
X120090778Y24370728D01*
X120124515Y24392063D01*
X120135528Y24398275D01*
X120171250Y24416114D01*
X120230661Y24458917D01*
X120236933Y24463153D01*
X120298813Y24502282D01*
X120328686Y24528749D01*
X120338575Y24536659D01*
X120370963Y24559990D01*
X120422736Y24611765D01*
X120428264Y24616967D01*
X120483052Y24665504D01*
X120508300Y24696430D01*
X120516786Y24705815D01*
X124383250Y28572279D01*
X124384962Y28573958D01*
X124461819Y28647778D01*
X124505792Y28706299D01*
X124510540Y28712234D01*
X124557972Y28767995D01*
X124578628Y28802167D01*
X124585708Y28812647D01*
X124609686Y28844554D01*
X124643712Y28909388D01*
X124647418Y28915959D01*
X124685310Y28978637D01*
X124700209Y29015659D01*
X124705523Y29027159D01*
X124724074Y29062501D01*
X124747255Y29131940D01*
X124749872Y29139056D01*
X124777210Y29206979D01*
X124785978Y29245911D01*
X124789381Y29258122D01*
X124802019Y29295974D01*
X124813762Y29368242D01*
X124815205Y29375691D01*
X124831290Y29447105D01*
X124833698Y29486942D01*
X124835098Y29499530D01*
X124841502Y29538928D01*
X124841502Y29612119D01*
X124841732Y29619727D01*
X124842094Y29625719D01*
X124846152Y29692797D01*
X124842140Y29732506D01*
X124841502Y29745171D01*
X124841502Y32860999D01*
X136888852Y32860999D01*
X136908406Y32649982D01*
X136966400Y32446152D01*
X137060864Y32256442D01*
X137188573Y32087329D01*
X137188575Y32087327D01*
X137345187Y31944556D01*
X137525367Y31832993D01*
X137722978Y31756438D01*
X137931291Y31717498D01*
X138143211Y31717498D01*
X138143213Y31717498D01*
X138351526Y31756438D01*
X138549137Y31832993D01*
X138729317Y31944556D01*
X138885929Y32087327D01*
X139013641Y32256444D01*
X139108102Y32446148D01*
X139166097Y32649980D01*
X139185651Y32860998D01*
X139185651Y32860999D01*
X139888852Y32860999D01*
X139908406Y32649982D01*
X139966400Y32446152D01*
X140060864Y32256442D01*
X140188573Y32087329D01*
X140188575Y32087327D01*
X140345187Y31944556D01*
X140525367Y31832993D01*
X140722978Y31756438D01*
X140931291Y31717498D01*
X141143211Y31717498D01*
X141143213Y31717498D01*
X141351526Y31756438D01*
X141549137Y31832993D01*
X141729317Y31944556D01*
X141885929Y32087327D01*
X142013641Y32256444D01*
X142108102Y32446148D01*
X142166097Y32649980D01*
X142185651Y32860998D01*
X142166097Y33072016D01*
X142108102Y33275848D01*
X142013641Y33465552D01*
X141885929Y33634669D01*
X141729317Y33777440D01*
X141679234Y33808450D01*
X141549138Y33889003D01*
X141450331Y33927281D01*
X141351526Y33965558D01*
X141143213Y34004498D01*
X140931291Y34004498D01*
X140744013Y33969490D01*
X140722978Y33965558D01*
X140525365Y33889003D01*
X140345188Y33777441D01*
X140188573Y33634668D01*
X140060864Y33465555D01*
X139966400Y33275845D01*
X139908406Y33072015D01*
X139888852Y32860999D01*
X139185651Y32860999D01*
X139166097Y33072016D01*
X139108102Y33275848D01*
X139013641Y33465552D01*
X138885929Y33634669D01*
X138729317Y33777440D01*
X138679234Y33808450D01*
X138549138Y33889003D01*
X138450331Y33927281D01*
X138351526Y33965558D01*
X138143213Y34004498D01*
X137931291Y34004498D01*
X137744013Y33969490D01*
X137722978Y33965558D01*
X137525365Y33889003D01*
X137345188Y33777441D01*
X137188573Y33634668D01*
X137060864Y33465555D01*
X136966400Y33275845D01*
X136908406Y33072015D01*
X136888852Y32860999D01*
X124841502Y32860999D01*
X124841502Y34229516D01*
X143600752Y34229516D01*
X143639944Y33969490D01*
X143639945Y33969488D01*
X143717453Y33718210D01*
X143831550Y33481288D01*
X143979678Y33264022D01*
X143979682Y33264018D01*
X144158542Y33071252D01*
X144364135Y32907297D01*
X144364138Y32907295D01*
X144392989Y32890638D01*
X144591868Y32775815D01*
X144836654Y32679744D01*
X145093024Y32621229D01*
X145289598Y32606498D01*
X145420902Y32606498D01*
X145420906Y32606498D01*
X145617480Y32621229D01*
X145873850Y32679744D01*
X146118636Y32775815D01*
X146346369Y32907297D01*
X146551962Y33071252D01*
X146730822Y33264018D01*
X146878954Y33481288D01*
X146993050Y33718210D01*
X147070560Y33969490D01*
X147109752Y34229516D01*
X147109752Y34492480D01*
X147070560Y34752506D01*
X146993050Y35003786D01*
X146878954Y35240708D01*
X146841920Y35295026D01*
X146730825Y35457975D01*
X146667410Y35526320D01*
X146551962Y35650744D01*
X146346369Y35814699D01*
X146346368Y35814700D01*
X146346365Y35814702D01*
X146118636Y35946181D01*
X145873851Y36042252D01*
X145617481Y36100767D01*
X145574632Y36103978D01*
X145420906Y36115498D01*
X145289598Y36115498D01*
X145158548Y36105678D01*
X145093022Y36100767D01*
X144836652Y36042252D01*
X144591867Y35946181D01*
X144364138Y35814702D01*
X144275233Y35743803D01*
X144158542Y35650744D01*
X144094498Y35581721D01*
X143979678Y35457975D01*
X143831550Y35240709D01*
X143717453Y35003787D01*
X143664771Y34832994D01*
X143639944Y34752506D01*
X143600752Y34492480D01*
X143600752Y34229516D01*
X124841502Y34229516D01*
X124841502Y35860998D01*
X136888852Y35860998D01*
X136908406Y35649982D01*
X136966400Y35446152D01*
X137060864Y35256442D01*
X137188573Y35087329D01*
X137188575Y35087327D01*
X137345187Y34944556D01*
X137525367Y34832993D01*
X137722978Y34756438D01*
X137931291Y34717498D01*
X138143211Y34717498D01*
X138143213Y34717498D01*
X138351526Y34756438D01*
X138549137Y34832993D01*
X138729317Y34944556D01*
X138885929Y35087327D01*
X139013641Y35256444D01*
X139108102Y35446148D01*
X139166097Y35649980D01*
X139185651Y35860998D01*
X139888852Y35860998D01*
X139908406Y35649982D01*
X139966400Y35446152D01*
X140060864Y35256442D01*
X140188573Y35087329D01*
X140188575Y35087327D01*
X140345187Y34944556D01*
X140525367Y34832993D01*
X140722978Y34756438D01*
X140931291Y34717498D01*
X141143211Y34717498D01*
X141143213Y34717498D01*
X141351526Y34756438D01*
X141549137Y34832993D01*
X141729317Y34944556D01*
X141885929Y35087327D01*
X142013641Y35256444D01*
X142108102Y35446148D01*
X142166097Y35649980D01*
X142185651Y35860998D01*
X142166097Y36072016D01*
X142108102Y36275848D01*
X142013641Y36465552D01*
X141952169Y36546953D01*
X141885930Y36634668D01*
X141847778Y36669448D01*
X141729317Y36777440D01*
X141641098Y36832063D01*
X141549138Y36889003D01*
X141388650Y36951176D01*
X141351526Y36965558D01*
X141143213Y37004498D01*
X140931291Y37004498D01*
X140722977Y36965558D01*
X140722978Y36965558D01*
X140525365Y36889003D01*
X140345188Y36777441D01*
X140188573Y36634668D01*
X140060864Y36465555D01*
X139966400Y36275845D01*
X139908406Y36072015D01*
X139888852Y35860998D01*
X139185651Y35860998D01*
X139166097Y36072016D01*
X139108102Y36275848D01*
X139013641Y36465552D01*
X138952169Y36546953D01*
X138885930Y36634668D01*
X138847778Y36669448D01*
X138729317Y36777440D01*
X138641098Y36832063D01*
X138549138Y36889003D01*
X138388650Y36951176D01*
X138351526Y36965558D01*
X138143213Y37004498D01*
X137931291Y37004498D01*
X137722977Y36965558D01*
X137722978Y36965558D01*
X137525365Y36889003D01*
X137345188Y36777441D01*
X137188573Y36634668D01*
X137060864Y36465555D01*
X136966400Y36275845D01*
X136908406Y36072015D01*
X136888852Y35860998D01*
X124841502Y35860998D01*
X124841502Y36344339D01*
X124851093Y36392557D01*
X124878407Y36433434D01*
X125472971Y37027998D01*
X127566066Y37027998D01*
X127585724Y36878677D01*
X127643360Y36739531D01*
X127643361Y36739530D01*
X127735047Y36620043D01*
X127854534Y36528357D01*
X127993680Y36470721D01*
X128143002Y36451062D01*
X128292324Y36470721D01*
X128431470Y36528357D01*
X128550957Y36620043D01*
X128642643Y36739530D01*
X128700279Y36878676D01*
X128719938Y37027998D01*
X129090066Y37027998D01*
X129109724Y36878677D01*
X129167360Y36739531D01*
X129167361Y36739530D01*
X129259047Y36620043D01*
X129378534Y36528357D01*
X129517680Y36470721D01*
X129667002Y36451062D01*
X129816324Y36470721D01*
X129955470Y36528357D01*
X130074957Y36620043D01*
X130112867Y36669448D01*
X130138540Y36702905D01*
X130182774Y36739207D01*
X130238502Y36752201D01*
X130294230Y36739207D01*
X130338464Y36702905D01*
X130402045Y36620045D01*
X130402047Y36620043D01*
X130521534Y36528357D01*
X130660680Y36470721D01*
X130810002Y36451062D01*
X130959324Y36470721D01*
X131098470Y36528357D01*
X131217957Y36620043D01*
X131309643Y36739530D01*
X131328592Y36785279D01*
X131363171Y36832872D01*
X131415588Y36859580D01*
X131474416Y36859580D01*
X131526833Y36832872D01*
X131561411Y36785279D01*
X131580360Y36739531D01*
X131580361Y36739530D01*
X131672047Y36620043D01*
X131791534Y36528357D01*
X131930680Y36470721D01*
X132080002Y36451062D01*
X132229324Y36470721D01*
X132368470Y36528357D01*
X132487957Y36620043D01*
X132488040Y36620152D01*
X132532272Y36656453D01*
X132588002Y36669448D01*
X132643732Y36656453D01*
X132687963Y36620152D01*
X132688047Y36620043D01*
X132807534Y36528357D01*
X132946680Y36470721D01*
X133096002Y36451062D01*
X133245324Y36470721D01*
X133384470Y36528357D01*
X133503957Y36620043D01*
X133504040Y36620152D01*
X133548272Y36656453D01*
X133604002Y36669448D01*
X133659732Y36656453D01*
X133703963Y36620152D01*
X133704047Y36620043D01*
X133823534Y36528357D01*
X133962680Y36470721D01*
X134112002Y36451062D01*
X134261324Y36470721D01*
X134400470Y36528357D01*
X134519957Y36620043D01*
X134520040Y36620152D01*
X134564272Y36656453D01*
X134620002Y36669448D01*
X134675732Y36656453D01*
X134719963Y36620152D01*
X134720047Y36620043D01*
X134839534Y36528357D01*
X134978680Y36470721D01*
X135128002Y36451062D01*
X135277324Y36470721D01*
X135416470Y36528357D01*
X135535957Y36620043D01*
X135627643Y36739530D01*
X135685279Y36878676D01*
X135704938Y37027998D01*
X135685279Y37177320D01*
X135627643Y37316466D01*
X135535957Y37435953D01*
X135416470Y37527639D01*
X135416469Y37527640D01*
X135277323Y37585276D01*
X135128002Y37604934D01*
X134978680Y37585276D01*
X134839534Y37527640D01*
X134720045Y37435952D01*
X134719964Y37435845D01*
X134675730Y37399543D01*
X134620002Y37386549D01*
X134564274Y37399543D01*
X134520040Y37435845D01*
X134519958Y37435952D01*
X134509360Y37444084D01*
X134424705Y37509043D01*
X134400469Y37527640D01*
X134261323Y37585276D01*
X134112002Y37604934D01*
X133962680Y37585276D01*
X133823534Y37527640D01*
X133704045Y37435952D01*
X133703964Y37435845D01*
X133659730Y37399543D01*
X133604002Y37386549D01*
X133548274Y37399543D01*
X133504040Y37435845D01*
X133503958Y37435952D01*
X133493360Y37444084D01*
X133408705Y37509043D01*
X133384469Y37527640D01*
X133245323Y37585276D01*
X133096002Y37604934D01*
X132946680Y37585276D01*
X132807534Y37527640D01*
X132688045Y37435952D01*
X132687964Y37435845D01*
X132643730Y37399543D01*
X132588002Y37386549D01*
X132532274Y37399543D01*
X132488040Y37435845D01*
X132487958Y37435952D01*
X132477360Y37444084D01*
X132392705Y37509043D01*
X132368469Y37527640D01*
X132229323Y37585276D01*
X132080002Y37604934D01*
X131930680Y37585276D01*
X131791534Y37527640D01*
X131672047Y37435953D01*
X131580361Y37316467D01*
X131561411Y37270717D01*
X131526832Y37223125D01*
X131474416Y37196417D01*
X131415588Y37196417D01*
X131363172Y37223125D01*
X131328593Y37270717D01*
X131314891Y37303796D01*
X131309643Y37316466D01*
X131217957Y37435953D01*
X131098470Y37527639D01*
X131098469Y37527640D01*
X130959323Y37585276D01*
X130810002Y37604934D01*
X130660680Y37585276D01*
X130521534Y37527640D01*
X130402047Y37435953D01*
X130338464Y37353091D01*
X130294230Y37316790D01*
X130238502Y37303796D01*
X130182774Y37316790D01*
X130138540Y37353091D01*
X130112866Y37386549D01*
X130074957Y37435953D01*
X129955470Y37527639D01*
X129955469Y37527640D01*
X129816323Y37585276D01*
X129667002Y37604934D01*
X129517680Y37585276D01*
X129378534Y37527640D01*
X129259047Y37435953D01*
X129167360Y37316466D01*
X129109724Y37177320D01*
X129090066Y37027998D01*
X128719938Y37027998D01*
X128700279Y37177320D01*
X128642643Y37316466D01*
X128550957Y37435953D01*
X128431470Y37527639D01*
X128431469Y37527640D01*
X128292323Y37585276D01*
X128143002Y37604934D01*
X127993680Y37585276D01*
X127854534Y37527640D01*
X127735047Y37435953D01*
X127643360Y37316466D01*
X127585724Y37177320D01*
X127566066Y37027998D01*
X125472971Y37027998D01*
X127418958Y38973985D01*
X127418960Y38973989D01*
X127975566Y39530594D01*
X128016444Y39557907D01*
X128064662Y39567498D01*
X136381372Y39567498D01*
X136383907Y39567473D01*
X136414784Y39566851D01*
X136490345Y39565328D01*
X136490345Y39565329D01*
X136490348Y39565328D01*
X136562831Y39575615D01*
X136570360Y39576453D01*
X136643345Y39582344D01*
X136682103Y39591898D01*
X136694546Y39594307D01*
X136734047Y39599912D01*
X136803939Y39621692D01*
X136811221Y39623723D01*
X136882333Y39641249D01*
X136919057Y39656896D01*
X136930927Y39661262D01*
X136969044Y39673139D01*
X137034577Y39705868D01*
X137041418Y39709029D01*
X137108778Y39737728D01*
X137142515Y39759063D01*
X137153528Y39765275D01*
X137189250Y39783114D01*
X137248661Y39825917D01*
X137254933Y39830153D01*
X137316813Y39869282D01*
X137346686Y39895749D01*
X137356575Y39903659D01*
X137388963Y39926990D01*
X137440736Y39978765D01*
X137446264Y39983967D01*
X137501052Y40032504D01*
X137526300Y40063430D01*
X137534786Y40072815D01*
X140512250Y43050279D01*
X140513962Y43051958D01*
X140590819Y43125778D01*
X140634792Y43184299D01*
X140639540Y43190234D01*
X140672240Y43228676D01*
X140686972Y43245995D01*
X140707628Y43280167D01*
X140714708Y43290647D01*
X140738686Y43322554D01*
X140772712Y43387388D01*
X140776418Y43393959D01*
X140814310Y43456637D01*
X140829209Y43493659D01*
X140834523Y43505159D01*
X140853074Y43540501D01*
X140876255Y43609940D01*
X140878872Y43617056D01*
X140906210Y43684979D01*
X140914978Y43723911D01*
X140918381Y43736122D01*
X140931019Y43773974D01*
X140942762Y43846242D01*
X140944205Y43853691D01*
X140960290Y43925105D01*
X140962698Y43964942D01*
X140964098Y43977530D01*
X140970502Y44016928D01*
X140970502Y44090119D01*
X140970732Y44097727D01*
X140971658Y44113043D01*
X140975152Y44170797D01*
X140971140Y44210506D01*
X140970502Y44223171D01*
X140970502Y66807444D01*
X140965210Y66872998D01*
X142438068Y66872998D01*
X142457726Y66723677D01*
X142515362Y66584531D01*
X142515363Y66584530D01*
X142607049Y66465043D01*
X142726536Y66373357D01*
X142865682Y66315721D01*
X143015004Y66296062D01*
X143164326Y66315721D01*
X143303472Y66373357D01*
X143422959Y66465043D01*
X143514645Y66584530D01*
X143572281Y66723676D01*
X143591940Y66872998D01*
X143572281Y67022320D01*
X143514645Y67161466D01*
X143422959Y67280953D01*
X143303472Y67372639D01*
X143303471Y67372640D01*
X143164325Y67430276D01*
X143015004Y67449934D01*
X142865682Y67430276D01*
X142726536Y67372640D01*
X142607049Y67280953D01*
X142515362Y67161466D01*
X142457726Y67022320D01*
X142438068Y66872998D01*
X140965210Y66872998D01*
X140955656Y66991336D01*
X140955656Y66991341D01*
X140896751Y67230329D01*
X140861928Y67312062D01*
X140800273Y67456772D01*
X140784925Y67481043D01*
X140668718Y67664809D01*
X140505496Y67849048D01*
X140456566Y67888998D01*
X140314834Y68004719D01*
X140101670Y68127789D01*
X139871527Y68215072D01*
X139726824Y68244614D01*
X139630358Y68264307D01*
X139384416Y68274218D01*
X139384414Y68274218D01*
X139140070Y68244549D01*
X138903650Y68176069D01*
X138681271Y68070549D01*
X138478703Y67930727D01*
X138301183Y67760217D01*
X138153317Y67563441D01*
X138038930Y67345497D01*
X137960984Y67112022D01*
X137921502Y66869071D01*
X137921502Y61991941D01*
X137902935Y61926106D01*
X137852705Y61879674D01*
X137785616Y61866329D01*
X137721441Y61890005D01*
X137679093Y61943723D01*
X137674643Y61954466D01*
X137641452Y61997721D01*
X137582957Y62073953D01*
X137463470Y62165639D01*
X137463469Y62165640D01*
X137324323Y62223276D01*
X137175002Y62242934D01*
X137025680Y62223276D01*
X136886534Y62165640D01*
X136767047Y62073953D01*
X136675360Y61954466D01*
X136617724Y61815320D01*
X136598066Y61665999D01*
X136617724Y61516677D01*
X136675360Y61377531D01*
X136675361Y61377530D01*
X136767047Y61258043D01*
X136886534Y61166357D01*
X137025680Y61108721D01*
X137175002Y61089062D01*
X137324324Y61108721D01*
X137463470Y61166357D01*
X137582957Y61258043D01*
X137674643Y61377530D01*
X137679092Y61388273D01*
X137721441Y61441991D01*
X137785616Y61465667D01*
X137852705Y61452322D01*
X137902935Y61405890D01*
X137921502Y61340055D01*
X137921502Y44823657D01*
X137911911Y44775439D01*
X137884597Y44734562D01*
X135803438Y42653403D01*
X135762561Y42626089D01*
X135714343Y42616498D01*
X127397632Y42616498D01*
X127395096Y42616524D01*
X127392529Y42616576D01*
X127288656Y42618669D01*
X127216181Y42608384D01*
X127208619Y42607543D01*
X127135660Y42601653D01*
X127102609Y42593507D01*
X127096911Y42592103D01*
X127084468Y42589692D01*
X127044953Y42584084D01*
X126975080Y42562311D01*
X126967752Y42560268D01*
X126896668Y42542747D01*
X126859944Y42527101D01*
X126848053Y42522728D01*
X126834111Y42518383D01*
X126809959Y42510856D01*
X126744476Y42478154D01*
X126737573Y42474964D01*
X126670225Y42446269D01*
X126636495Y42424940D01*
X126625456Y42418714D01*
X126589754Y42400883D01*
X126530355Y42358092D01*
X126524050Y42353833D01*
X126462192Y42314716D01*
X126432320Y42288252D01*
X126422421Y42280335D01*
X126390042Y42257009D01*
X126338271Y42205238D01*
X126332732Y42200024D01*
X126277950Y42151491D01*
X126252707Y42120575D01*
X126244205Y42111172D01*
X125229318Y41096285D01*
X125229316Y41096282D01*
X122250801Y38117768D01*
X122248991Y38115993D01*
X122172181Y38042215D01*
X122128207Y37983697D01*
X122123456Y37977756D01*
X122076029Y37921999D01*
X122055384Y37887848D01*
X122048288Y37877343D01*
X122024319Y37845446D01*
X121990306Y37780639D01*
X121986568Y37774012D01*
X121948694Y37711361D01*
X121933794Y37674340D01*
X121928477Y37662836D01*
X121909930Y37627495D01*
X121886754Y37558078D01*
X121884128Y37550939D01*
X121856793Y37483018D01*
X121848024Y37444084D01*
X121844620Y37431873D01*
X121831984Y37394024D01*
X121820242Y37321770D01*
X121818795Y37314301D01*
X121802714Y37242895D01*
X121800304Y37203055D01*
X121798902Y37190452D01*
X121792502Y37151070D01*
X121792502Y37077877D01*
X121792272Y37070269D01*
X121787852Y36997200D01*
X121791864Y36957490D01*
X121792502Y36944825D01*
X121792502Y30345657D01*
X121782911Y30297439D01*
X121755597Y30256562D01*
X118785438Y27286403D01*
X118744561Y27259089D01*
X118696343Y27249498D01*
X117090072Y27249498D01*
X90567632Y27249498D01*
X90565096Y27249524D01*
X90562529Y27249576D01*
X90458656Y27251669D01*
X90386180Y27241384D01*
X90378618Y27240543D01*
X90305662Y27234653D01*
X90266909Y27225102D01*
X90254466Y27222692D01*
X90214954Y27217084D01*
X90145078Y27195310D01*
X90137748Y27193267D01*
X90066671Y27175748D01*
X90029947Y27160102D01*
X90018053Y27155728D01*
X89979961Y27143857D01*
X89914481Y27111156D01*
X89907577Y27107964D01*
X89840226Y27079268D01*
X89812077Y27061469D01*
X89806493Y27057937D01*
X89795452Y27051710D01*
X89759752Y27033881D01*
X89700365Y26991098D01*
X89694060Y26986839D01*
X89632192Y26947716D01*
X89602320Y26921251D01*
X89592419Y26913332D01*
X89560040Y26890006D01*
X89508271Y26838238D01*
X89502732Y26833024D01*
X89447950Y26784491D01*
X89422707Y26753575D01*
X89414205Y26744172D01*
X87198801Y24528768D01*
X87196991Y24526993D01*
X87120181Y24453215D01*
X87076207Y24394697D01*
X87071456Y24388756D01*
X87024029Y24332999D01*
X87003384Y24298848D01*
X86996288Y24288343D01*
X86972319Y24256446D01*
X86938306Y24191639D01*
X86934568Y24185012D01*
X86896694Y24122361D01*
X86881794Y24085340D01*
X86876477Y24073836D01*
X86857930Y24038495D01*
X86834754Y23969078D01*
X86832128Y23961939D01*
X86804793Y23894018D01*
X86796024Y23855084D01*
X86792620Y23842873D01*
X86779984Y23805024D01*
X86768242Y23732770D01*
X86766795Y23725301D01*
X86750714Y23653895D01*
X86748304Y23614055D01*
X86746902Y23601452D01*
X86740502Y23562070D01*
X86740502Y23488877D01*
X86740272Y23481269D01*
X86735852Y23408200D01*
X86739864Y23368490D01*
X86740502Y23355825D01*
X86740502Y14216658D01*
X86730911Y14168440D01*
X86703597Y14127563D01*
X86336080Y13760045D01*
X85944508Y13368474D01*
X81066438Y8490403D01*
X81025561Y8463089D01*
X80977343Y8453498D01*
X68024844Y8453498D01*
X67969116Y8466492D01*
X67924882Y8502794D01*
X67844958Y8606952D01*
X67725469Y8698640D01*
X67586323Y8756276D01*
X67437002Y8775934D01*
X67287680Y8756276D01*
X67148534Y8698640D01*
X67029047Y8606953D01*
X66937361Y8487467D01*
X66898731Y8394206D01*
X66871865Y8353779D01*
X66831710Y8326508D01*
X66730226Y8283270D01*
X66522188Y8151714D01*
X66337948Y7988491D01*
X66182279Y7797831D01*
X66059209Y7584667D01*
X65971926Y7354524D01*
X65922691Y7113353D01*
X65912780Y6867411D01*
X16515337Y6867411D01*
X16501645Y6900466D01*
X16409959Y7019953D01*
X16290472Y7111639D01*
X16290471Y7111640D01*
X16151325Y7169276D01*
X16002004Y7188934D01*
X15852682Y7169276D01*
X15713536Y7111640D01*
X15594049Y7019953D01*
X15502362Y6900466D01*
X15444726Y6761320D01*
X15425068Y6611999D01*
X508500Y6611999D01*
X508500Y7563999D01*
X31808066Y7563999D01*
X31827724Y7414677D01*
X31885360Y7275531D01*
X31885361Y7275530D01*
X31977047Y7156043D01*
X32096534Y7064357D01*
X32235680Y7006721D01*
X32385002Y6987062D01*
X32534324Y7006721D01*
X32673470Y7064357D01*
X32792957Y7156043D01*
X32884643Y7275530D01*
X32942279Y7414676D01*
X32961938Y7563998D01*
X32942279Y7713320D01*
X32884643Y7852466D01*
X32792957Y7971953D01*
X32673470Y8063639D01*
X32673469Y8063640D01*
X32534323Y8121276D01*
X32385002Y8140934D01*
X32235680Y8121276D01*
X32096534Y8063640D01*
X31977047Y7971953D01*
X31885360Y7852466D01*
X31827724Y7713320D01*
X31808066Y7563999D01*
X508500Y7563999D01*
X508500Y8375000D01*
X4695500Y8375000D01*
X4715415Y8223721D01*
X4773808Y8082749D01*
X4866695Y7961696D01*
X4987748Y7868809D01*
X4987749Y7868809D01*
X4987750Y7868808D01*
X5128720Y7810416D01*
X5242020Y7795500D01*
X5317980Y7795500D01*
X5431280Y7810416D01*
X5572250Y7868808D01*
X5693304Y7961696D01*
X5786192Y8082750D01*
X5844584Y8223720D01*
X5864500Y8375000D01*
X5854232Y8452998D01*
X28519066Y8452998D01*
X28538724Y8303677D01*
X28596360Y8164531D01*
X28596361Y8164530D01*
X28688047Y8045043D01*
X28807534Y7953357D01*
X28946680Y7895721D01*
X29096002Y7876062D01*
X29245324Y7895721D01*
X29384470Y7953357D01*
X29503957Y8045043D01*
X29595643Y8164530D01*
X29653279Y8303676D01*
X29672938Y8452998D01*
X29653279Y8602320D01*
X29595643Y8741466D01*
X29503957Y8860953D01*
X29384470Y8952639D01*
X29384469Y8952640D01*
X29245323Y9010276D01*
X29096002Y9029934D01*
X28946680Y9010276D01*
X28807534Y8952640D01*
X28688047Y8860953D01*
X28596360Y8741466D01*
X28538724Y8602320D01*
X28519066Y8452998D01*
X5854232Y8452998D01*
X5844584Y8526280D01*
X5786192Y8667250D01*
X5786191Y8667251D01*
X5786191Y8667252D01*
X5693304Y8788305D01*
X5572251Y8881192D01*
X5431279Y8939585D01*
X5317980Y8954500D01*
X5242020Y8954500D01*
X5128720Y8939585D01*
X4987748Y8881192D01*
X4866695Y8788305D01*
X4773808Y8667252D01*
X4715415Y8526280D01*
X4695500Y8375000D01*
X508500Y8375000D01*
X508500Y10357999D01*
X69781066Y10357999D01*
X69800724Y10208677D01*
X69858360Y10069531D01*
X69858361Y10069530D01*
X69950047Y9950043D01*
X70069534Y9858357D01*
X70208680Y9800721D01*
X70358002Y9781062D01*
X70507324Y9800721D01*
X70646470Y9858357D01*
X70765957Y9950043D01*
X70857643Y10069530D01*
X70915279Y10208676D01*
X70934938Y10357998D01*
X70934938Y10357999D01*
X71432066Y10357999D01*
X71451724Y10208677D01*
X71509360Y10069531D01*
X71509361Y10069530D01*
X71601047Y9950043D01*
X71720534Y9858357D01*
X71859680Y9800721D01*
X72009002Y9781062D01*
X72158324Y9800721D01*
X72297470Y9858357D01*
X72416957Y9950043D01*
X72508643Y10069530D01*
X72566279Y10208676D01*
X72585938Y10357998D01*
X72585938Y10357999D01*
X73083066Y10357999D01*
X73102724Y10208677D01*
X73160360Y10069531D01*
X73160361Y10069530D01*
X73252047Y9950043D01*
X73371534Y9858357D01*
X73510680Y9800721D01*
X73660002Y9781062D01*
X73809324Y9800721D01*
X73948470Y9858357D01*
X74067957Y9950043D01*
X74159643Y10069530D01*
X74217279Y10208676D01*
X74236938Y10357998D01*
X74217279Y10507320D01*
X74159643Y10646466D01*
X74067957Y10765953D01*
X73948470Y10857639D01*
X73948469Y10857640D01*
X73809323Y10915276D01*
X73660002Y10934934D01*
X73510680Y10915276D01*
X73371534Y10857640D01*
X73252047Y10765953D01*
X73160360Y10646466D01*
X73102724Y10507320D01*
X73083066Y10357999D01*
X72585938Y10357999D01*
X72566279Y10507320D01*
X72508643Y10646466D01*
X72416957Y10765953D01*
X72297470Y10857639D01*
X72297469Y10857640D01*
X72158323Y10915276D01*
X72009002Y10934934D01*
X71859680Y10915276D01*
X71720534Y10857640D01*
X71601047Y10765953D01*
X71509360Y10646466D01*
X71451724Y10507320D01*
X71432066Y10357999D01*
X70934938Y10357999D01*
X70915279Y10507320D01*
X70857643Y10646466D01*
X70765957Y10765953D01*
X70646470Y10857639D01*
X70646469Y10857640D01*
X70507323Y10915276D01*
X70358002Y10934934D01*
X70208680Y10915276D01*
X70069534Y10857640D01*
X69950047Y10765953D01*
X69858360Y10646466D01*
X69800724Y10507320D01*
X69781066Y10357999D01*
X508500Y10357999D01*
X508500Y11361001D01*
X27744066Y11361001D01*
X27763724Y11211679D01*
X27821360Y11072533D01*
X27821361Y11072532D01*
X27913047Y10953045D01*
X28032534Y10861359D01*
X28171680Y10803723D01*
X28321002Y10784064D01*
X28470324Y10803723D01*
X28609470Y10861359D01*
X28728957Y10953045D01*
X28820643Y11072532D01*
X28878279Y11211678D01*
X28897938Y11361000D01*
X28878279Y11510322D01*
X28820643Y11649468D01*
X28728957Y11768955D01*
X28610728Y11859676D01*
X28609469Y11860642D01*
X28589291Y11869000D01*
X34983066Y11869000D01*
X35002724Y11719679D01*
X35060360Y11580533D01*
X35060361Y11580532D01*
X35152047Y11461045D01*
X35271534Y11369359D01*
X35410680Y11311723D01*
X35560002Y11292064D01*
X35709324Y11311723D01*
X35848470Y11369359D01*
X35967957Y11461045D01*
X36059643Y11580532D01*
X36117279Y11719678D01*
X36136938Y11869000D01*
X36118507Y12008998D01*
X69781066Y12008998D01*
X69800724Y11859677D01*
X69858360Y11720531D01*
X69858361Y11720530D01*
X69950047Y11601043D01*
X70069534Y11509357D01*
X70208680Y11451721D01*
X70358002Y11432062D01*
X70507324Y11451721D01*
X70646470Y11509357D01*
X70765957Y11601043D01*
X70857643Y11720530D01*
X70915279Y11859676D01*
X70934938Y12008998D01*
X71432066Y12008998D01*
X71451724Y11859677D01*
X71509360Y11720531D01*
X71509361Y11720530D01*
X71601047Y11601043D01*
X71720534Y11509357D01*
X71859680Y11451721D01*
X72009002Y11432062D01*
X72158324Y11451721D01*
X72297470Y11509357D01*
X72416957Y11601043D01*
X72508643Y11720530D01*
X72566279Y11859676D01*
X72585938Y12008998D01*
X73083066Y12008998D01*
X73102724Y11859677D01*
X73160360Y11720531D01*
X73160361Y11720530D01*
X73252047Y11601043D01*
X73371534Y11509357D01*
X73510680Y11451721D01*
X73660002Y11432062D01*
X73809324Y11451721D01*
X73948470Y11509357D01*
X74067957Y11601043D01*
X74159643Y11720530D01*
X74217279Y11859676D01*
X74236938Y12008998D01*
X74217279Y12158320D01*
X74159643Y12297466D01*
X74067957Y12416953D01*
X73948470Y12508639D01*
X73948469Y12508640D01*
X73809323Y12566276D01*
X73660002Y12585934D01*
X73510680Y12566276D01*
X73371534Y12508640D01*
X73252047Y12416953D01*
X73160360Y12297466D01*
X73102724Y12158320D01*
X73083066Y12008998D01*
X72585938Y12008998D01*
X72566279Y12158320D01*
X72508643Y12297466D01*
X72416957Y12416953D01*
X72297470Y12508639D01*
X72297469Y12508640D01*
X72158323Y12566276D01*
X72009002Y12585934D01*
X71859680Y12566276D01*
X71720534Y12508640D01*
X71601047Y12416953D01*
X71509360Y12297466D01*
X71451724Y12158320D01*
X71432066Y12008998D01*
X70934938Y12008998D01*
X70915279Y12158320D01*
X70857643Y12297466D01*
X70765957Y12416953D01*
X70646470Y12508639D01*
X70646469Y12508640D01*
X70507323Y12566276D01*
X70358002Y12585934D01*
X70208680Y12566276D01*
X70069534Y12508640D01*
X69950047Y12416953D01*
X69858360Y12297466D01*
X69800724Y12158320D01*
X69781066Y12008998D01*
X36118507Y12008998D01*
X36117279Y12018322D01*
X36059643Y12157468D01*
X35967957Y12276955D01*
X35848470Y12368641D01*
X35848469Y12368642D01*
X35709323Y12426278D01*
X35560002Y12445936D01*
X35410680Y12426278D01*
X35271534Y12368642D01*
X35152047Y12276955D01*
X35060360Y12157468D01*
X35002724Y12018322D01*
X34983066Y11869000D01*
X28589291Y11869000D01*
X28470323Y11918278D01*
X28321002Y11937936D01*
X28171680Y11918278D01*
X28032534Y11860642D01*
X27913047Y11768955D01*
X27821360Y11649468D01*
X27763724Y11510322D01*
X27744066Y11361001D01*
X508500Y11361001D01*
X508500Y13024999D01*
X54287066Y13024999D01*
X54306724Y12875677D01*
X54364360Y12736531D01*
X54380457Y12715553D01*
X54456047Y12617043D01*
X54575534Y12525357D01*
X54714680Y12467721D01*
X54864002Y12448062D01*
X55013324Y12467721D01*
X55152470Y12525357D01*
X55271957Y12617043D01*
X55363643Y12736530D01*
X55421279Y12875676D01*
X55439226Y13011996D01*
X62415066Y13011996D01*
X62416260Y13002925D01*
X62434724Y12862675D01*
X62492360Y12723529D01*
X62492361Y12723528D01*
X62584047Y12604041D01*
X62703534Y12512355D01*
X62842680Y12454719D01*
X62992002Y12435060D01*
X63141324Y12454719D01*
X63280470Y12512355D01*
X63399957Y12604041D01*
X63491643Y12723528D01*
X63549279Y12862674D01*
X63568938Y13011996D01*
X63549279Y13161318D01*
X63491643Y13300464D01*
X63399957Y13419951D01*
X63280470Y13511637D01*
X63280469Y13511638D01*
X63141323Y13569274D01*
X62992002Y13588932D01*
X62842680Y13569274D01*
X62703534Y13511638D01*
X62584047Y13419951D01*
X62492360Y13300464D01*
X62434724Y13161318D01*
X62416778Y13024999D01*
X62415066Y13011996D01*
X55439226Y13011996D01*
X55440938Y13024998D01*
X55421279Y13174320D01*
X55363643Y13313466D01*
X55271957Y13432953D01*
X55180270Y13503308D01*
X55152469Y13524640D01*
X55013323Y13582276D01*
X54864002Y13601934D01*
X54714680Y13582276D01*
X54575534Y13524640D01*
X54456047Y13432953D01*
X54364360Y13313466D01*
X54306724Y13174320D01*
X54287066Y13024999D01*
X508500Y13024999D01*
X508500Y14155000D01*
X4695500Y14155000D01*
X4715415Y14003721D01*
X4773808Y13862749D01*
X4866695Y13741696D01*
X4987748Y13648809D01*
X4987749Y13648809D01*
X4987750Y13648808D01*
X5128720Y13590416D01*
X5242020Y13575500D01*
X5317980Y13575500D01*
X5431280Y13590416D01*
X5572250Y13648808D01*
X5693304Y13741696D01*
X5786192Y13862750D01*
X5844584Y14003720D01*
X5864500Y14155000D01*
X5862789Y14168000D01*
X42870066Y14168000D01*
X42889724Y14018679D01*
X42947360Y13879533D01*
X42947361Y13879532D01*
X43039047Y13760045D01*
X43158534Y13668359D01*
X43297680Y13610723D01*
X43447002Y13591064D01*
X43596324Y13610723D01*
X43735470Y13668359D01*
X43854957Y13760045D01*
X43875639Y13786998D01*
X69781066Y13786998D01*
X69800724Y13637677D01*
X69858360Y13498531D01*
X69879692Y13470730D01*
X69950047Y13379043D01*
X70069534Y13287357D01*
X70208680Y13229721D01*
X70358002Y13210062D01*
X70507324Y13229721D01*
X70646470Y13287357D01*
X70765957Y13379043D01*
X70857643Y13498530D01*
X70915279Y13637676D01*
X70934938Y13786998D01*
X71432066Y13786998D01*
X71451724Y13637677D01*
X71509360Y13498531D01*
X71530692Y13470730D01*
X71601047Y13379043D01*
X71720534Y13287357D01*
X71859680Y13229721D01*
X72009002Y13210062D01*
X72158324Y13229721D01*
X72297470Y13287357D01*
X72416957Y13379043D01*
X72508643Y13498530D01*
X72566279Y13637676D01*
X72585938Y13786998D01*
X73083066Y13786998D01*
X73102724Y13637677D01*
X73160360Y13498531D01*
X73181692Y13470730D01*
X73252047Y13379043D01*
X73371534Y13287357D01*
X73510680Y13229721D01*
X73660002Y13210062D01*
X73809324Y13229721D01*
X73948470Y13287357D01*
X74067957Y13379043D01*
X74159643Y13498530D01*
X74217279Y13637676D01*
X74236938Y13786998D01*
X74217279Y13936320D01*
X74159643Y14075466D01*
X74067957Y14194953D01*
X73948470Y14286639D01*
X73948469Y14286640D01*
X73809323Y14344276D01*
X73660002Y14363934D01*
X73510680Y14344276D01*
X73371534Y14286640D01*
X73252047Y14194953D01*
X73160360Y14075466D01*
X73102724Y13936320D01*
X73083066Y13786998D01*
X72585938Y13786998D01*
X72566279Y13936320D01*
X72508643Y14075466D01*
X72416957Y14194953D01*
X72297470Y14286639D01*
X72297469Y14286640D01*
X72158323Y14344276D01*
X72009002Y14363934D01*
X71859680Y14344276D01*
X71720534Y14286640D01*
X71601047Y14194953D01*
X71509360Y14075466D01*
X71451724Y13936320D01*
X71432066Y13786998D01*
X70934938Y13786998D01*
X70915279Y13936320D01*
X70857643Y14075466D01*
X70765957Y14194953D01*
X70646470Y14286639D01*
X70646469Y14286640D01*
X70507323Y14344276D01*
X70358002Y14363934D01*
X70208680Y14344276D01*
X70069534Y14286640D01*
X69950047Y14194953D01*
X69858360Y14075466D01*
X69800724Y13936320D01*
X69781066Y13786998D01*
X43875639Y13786998D01*
X43946643Y13879532D01*
X44004279Y14018678D01*
X44023938Y14168000D01*
X44004279Y14317322D01*
X43946643Y14456468D01*
X43854957Y14575955D01*
X43763269Y14646310D01*
X43735469Y14667642D01*
X43596323Y14725278D01*
X43447002Y14744936D01*
X43297680Y14725278D01*
X43158534Y14667642D01*
X43039047Y14575955D01*
X42947360Y14456468D01*
X42889724Y14317322D01*
X42870066Y14168000D01*
X5862789Y14168000D01*
X5844584Y14306280D01*
X5786192Y14447250D01*
X5786191Y14447251D01*
X5786191Y14447252D01*
X5693304Y14568305D01*
X5572251Y14661192D01*
X5431279Y14719585D01*
X5317980Y14734500D01*
X5242020Y14734500D01*
X5128720Y14719585D01*
X4987748Y14661192D01*
X4866695Y14568305D01*
X4773808Y14447252D01*
X4715415Y14306280D01*
X4695500Y14155000D01*
X508500Y14155000D01*
X508500Y15437998D01*
X21775066Y15437998D01*
X21775616Y15433824D01*
X21794724Y15288677D01*
X21852360Y15149531D01*
X21852361Y15149530D01*
X21944047Y15030043D01*
X22063534Y14938357D01*
X22202680Y14880721D01*
X22352002Y14861062D01*
X22501324Y14880721D01*
X22640470Y14938357D01*
X22759957Y15030043D01*
X22851643Y15149530D01*
X22909279Y15288676D01*
X22928938Y15437998D01*
X22909279Y15587320D01*
X22851643Y15726466D01*
X22759957Y15845953D01*
X22640470Y15937639D01*
X22640469Y15937640D01*
X22501323Y15995276D01*
X22352002Y16014934D01*
X22202680Y15995276D01*
X22063534Y15937640D01*
X21944047Y15845953D01*
X21852360Y15726466D01*
X21794724Y15587320D01*
X21775805Y15443611D01*
X21775066Y15437998D01*
X508500Y15437998D01*
X508500Y16233508D01*
X22999504Y16233508D01*
X23038379Y16050613D01*
X23114431Y15879798D01*
X23114432Y15879797D01*
X23224334Y15728529D01*
X23363290Y15603412D01*
X23525218Y15509923D01*
X23576207Y15493356D01*
X23703048Y15452143D01*
X23842384Y15437498D01*
X24939078Y15437498D01*
X24958786Y15435947D01*
X24962100Y15435423D01*
X24972192Y15433824D01*
X25039000Y15437325D01*
X25045595Y15437498D01*
X25065616Y15437498D01*
X25065622Y15437498D01*
X25085580Y15439597D01*
X25092040Y15440106D01*
X25158917Y15443609D01*
X25172028Y15447123D01*
X25191473Y15450726D01*
X25204958Y15452143D01*
X25268607Y15472825D01*
X25274891Y15474686D01*
X25339526Y15492004D01*
X25351617Y15498166D01*
X25369875Y15505729D01*
X25382787Y15509923D01*
X25440776Y15543404D01*
X25446491Y15546507D01*
X25506127Y15576891D01*
X25516664Y15585426D01*
X25532967Y15596630D01*
X25544717Y15603413D01*
X25594455Y15648199D01*
X25599430Y15652447D01*
X25615008Y15665061D01*
X25629181Y15679236D01*
X25633950Y15683760D01*
X25683670Y15728527D01*
X25683671Y15728528D01*
X25691649Y15739511D01*
X25704485Y15754540D01*
X25895943Y15945998D01*
X74480066Y15945998D01*
X74499724Y15796677D01*
X74557360Y15657531D01*
X74564540Y15648174D01*
X74649047Y15538043D01*
X74768534Y15446357D01*
X74907680Y15388721D01*
X75057002Y15369062D01*
X75206324Y15388721D01*
X75345470Y15446357D01*
X75464957Y15538043D01*
X75556643Y15657530D01*
X75614279Y15796676D01*
X75633938Y15945998D01*
X75614279Y16095320D01*
X75601711Y16125662D01*
X75592508Y16183766D01*
X75610687Y16239715D01*
X75652285Y16281313D01*
X75708234Y16299492D01*
X75766338Y16290289D01*
X75796680Y16277721D01*
X75946002Y16258062D01*
X76077952Y16275435D01*
X76095325Y16277721D01*
X76125664Y16290288D01*
X76183767Y16299492D01*
X76239716Y16281313D01*
X76281315Y16239716D01*
X76299494Y16183768D01*
X76290293Y16125664D01*
X76277724Y16095321D01*
X76258066Y15945998D01*
X76277724Y15796677D01*
X76335360Y15657531D01*
X76342540Y15648174D01*
X76427047Y15538043D01*
X76546534Y15446357D01*
X76685680Y15388721D01*
X76835002Y15369062D01*
X76984324Y15388721D01*
X77123470Y15446357D01*
X77242957Y15538043D01*
X77334643Y15657530D01*
X77392279Y15796676D01*
X77411938Y15945998D01*
X77392279Y16095320D01*
X77334643Y16234466D01*
X77242957Y16353953D01*
X77123470Y16445639D01*
X77123469Y16445640D01*
X76984323Y16503276D01*
X76835002Y16522934D01*
X76685679Y16503276D01*
X76655336Y16490707D01*
X76597232Y16481506D01*
X76541284Y16499685D01*
X76499687Y16541284D01*
X76481508Y16597233D01*
X76490712Y16655336D01*
X76503279Y16685675D01*
X76514933Y16774198D01*
X76522938Y16834998D01*
X77401066Y16834998D01*
X77420724Y16685677D01*
X77478360Y16546531D01*
X77485353Y16537418D01*
X77570047Y16427043D01*
X77689534Y16335357D01*
X77828680Y16277721D01*
X77978002Y16258062D01*
X78049459Y16267470D01*
X78114121Y16258958D01*
X78165866Y16219254D01*
X78190826Y16158999D01*
X78184614Y16111804D01*
X78184890Y16111767D01*
X78163066Y15945998D01*
X78182724Y15796677D01*
X78240360Y15657531D01*
X78247540Y15648174D01*
X78332047Y15538043D01*
X78451534Y15446357D01*
X78590680Y15388721D01*
X78740002Y15369062D01*
X78889324Y15388721D01*
X79028470Y15446357D01*
X79147957Y15538043D01*
X79239643Y15657530D01*
X79297279Y15796676D01*
X79316938Y15945998D01*
X79297279Y16095320D01*
X79239643Y16234466D01*
X79147957Y16353953D01*
X79028470Y16445639D01*
X79028469Y16445640D01*
X78889323Y16503276D01*
X78774744Y16518361D01*
X78740002Y16522934D01*
X78740001Y16522934D01*
X78668543Y16513527D01*
X78603878Y16522041D01*
X78552134Y16561747D01*
X78527175Y16622007D01*
X78533389Y16669193D01*
X78533114Y16669229D01*
X78546933Y16774198D01*
X78554938Y16834998D01*
X78535279Y16984320D01*
X78535279Y16984321D01*
X78533114Y17000767D01*
X78533389Y17000804D01*
X78527176Y17047993D01*
X78552135Y17108251D01*
X78603880Y17147957D01*
X78668543Y17156470D01*
X78740002Y17147062D01*
X78889324Y17166721D01*
X79028470Y17224357D01*
X79147957Y17316043D01*
X79239643Y17435530D01*
X79297279Y17574676D01*
X79316938Y17723998D01*
X79297279Y17873320D01*
X79239643Y18012466D01*
X79147957Y18131953D01*
X79028470Y18223639D01*
X79028469Y18223640D01*
X78889323Y18281276D01*
X78740002Y18300934D01*
X78590680Y18281276D01*
X78451534Y18223640D01*
X78332047Y18131953D01*
X78240360Y18012466D01*
X78182724Y17873320D01*
X78163066Y17723998D01*
X78184890Y17558229D01*
X78184614Y17558193D01*
X78190827Y17511001D01*
X78165867Y17450744D01*
X78114123Y17411040D01*
X78049460Y17402527D01*
X77978002Y17411934D01*
X77828680Y17392276D01*
X77689534Y17334640D01*
X77570047Y17242953D01*
X77478360Y17123466D01*
X77420724Y16984320D01*
X77401066Y16834998D01*
X76522938Y16834998D01*
X76503279Y16984320D01*
X76499422Y16993631D01*
X76490711Y17014662D01*
X76481508Y17072766D01*
X76499687Y17128715D01*
X76541285Y17170313D01*
X76597234Y17188492D01*
X76655338Y17179289D01*
X76685680Y17166721D01*
X76835002Y17147062D01*
X76984324Y17166721D01*
X77123470Y17224357D01*
X77242957Y17316043D01*
X77334643Y17435530D01*
X77392279Y17574676D01*
X77411938Y17723998D01*
X77392279Y17873320D01*
X77334643Y18012466D01*
X77242957Y18131953D01*
X77123470Y18223639D01*
X77123469Y18223640D01*
X76984323Y18281276D01*
X76835002Y18300934D01*
X76685680Y18281276D01*
X76546534Y18223640D01*
X76427047Y18131953D01*
X76335360Y18012466D01*
X76277724Y17873320D01*
X76258066Y17723998D01*
X76277724Y17574675D01*
X76290292Y17544334D01*
X76299495Y17486230D01*
X76281316Y17430282D01*
X76239718Y17388684D01*
X76183770Y17370505D01*
X76125666Y17379708D01*
X76095325Y17392276D01*
X75946002Y17411934D01*
X75796679Y17392276D01*
X75766336Y17379707D01*
X75708232Y17370506D01*
X75652284Y17388685D01*
X75610687Y17430284D01*
X75592508Y17486233D01*
X75601712Y17544336D01*
X75614279Y17574675D01*
X75616565Y17592048D01*
X75633938Y17723998D01*
X75614279Y17873320D01*
X75556643Y18012466D01*
X75464957Y18131953D01*
X75345470Y18223639D01*
X75345469Y18223640D01*
X75206323Y18281276D01*
X75057002Y18300934D01*
X74907680Y18281276D01*
X74768534Y18223640D01*
X74649047Y18131953D01*
X74557360Y18012466D01*
X74499724Y17873320D01*
X74480066Y17723998D01*
X74499724Y17574677D01*
X74557360Y17435531D01*
X74557361Y17435530D01*
X74649047Y17316043D01*
X74768534Y17224357D01*
X74907680Y17166721D01*
X75057002Y17147062D01*
X75188952Y17164435D01*
X75206325Y17166721D01*
X75236664Y17179288D01*
X75294767Y17188492D01*
X75350716Y17170313D01*
X75392315Y17128716D01*
X75410494Y17072768D01*
X75401293Y17014664D01*
X75388724Y16984321D01*
X75369066Y16834998D01*
X75388724Y16685675D01*
X75401292Y16655334D01*
X75410495Y16597230D01*
X75392316Y16541282D01*
X75350718Y16499684D01*
X75294770Y16481505D01*
X75236666Y16490708D01*
X75206325Y16503276D01*
X75057002Y16522934D01*
X74907680Y16503276D01*
X74768534Y16445640D01*
X74649047Y16353953D01*
X74557360Y16234466D01*
X74499724Y16095320D01*
X74480066Y15945998D01*
X25895943Y15945998D01*
X26226460Y16276515D01*
X26241489Y16289351D01*
X26252472Y16297329D01*
X26297242Y16347054D01*
X26301764Y16351819D01*
X26315939Y16365992D01*
X26328553Y16381570D01*
X26332801Y16386545D01*
X26377587Y16436283D01*
X26384370Y16448033D01*
X26395574Y16464334D01*
X26404108Y16474872D01*
X26407488Y16481505D01*
X26434493Y16534509D01*
X26437596Y16540224D01*
X26471077Y16598213D01*
X26475271Y16611125D01*
X26482834Y16629383D01*
X26488996Y16641474D01*
X26506314Y16706109D01*
X26508175Y16712393D01*
X26528857Y16776042D01*
X26530274Y16789528D01*
X26533878Y16808975D01*
X26537391Y16822083D01*
X26540894Y16888960D01*
X26541403Y16895420D01*
X26543502Y16915378D01*
X26543502Y16935405D01*
X26543675Y16941999D01*
X26545346Y16973891D01*
X26547176Y17008808D01*
X26545053Y17022214D01*
X26543502Y17041922D01*
X26543502Y18994498D01*
X26560383Y19057498D01*
X26606502Y19103617D01*
X26669502Y19120498D01*
X28535369Y19120498D01*
X28583587Y19110907D01*
X28624464Y19083593D01*
X30556510Y17151547D01*
X30569349Y17136515D01*
X30577329Y17125532D01*
X30577332Y17125530D01*
X30577333Y17125528D01*
X30627075Y17080740D01*
X30631821Y17076236D01*
X30645996Y17062061D01*
X30660167Y17050585D01*
X30661563Y17049455D01*
X30666557Y17045190D01*
X30716287Y17000413D01*
X30728037Y16993630D01*
X30744330Y16982432D01*
X30754877Y16973891D01*
X30754879Y16973890D01*
X30814482Y16943521D01*
X30820266Y16940381D01*
X30878217Y16906923D01*
X30891118Y16902732D01*
X30909385Y16895166D01*
X30915223Y16892191D01*
X30921477Y16889004D01*
X30986092Y16871691D01*
X30992418Y16869817D01*
X31051861Y16850503D01*
X31056046Y16849143D01*
X31069548Y16847724D01*
X31088976Y16844123D01*
X31102087Y16840610D01*
X31168887Y16837110D01*
X31175456Y16836593D01*
X31189395Y16835128D01*
X31195381Y16834498D01*
X31195382Y16834498D01*
X31215416Y16834498D01*
X31222009Y16834326D01*
X31288812Y16830824D01*
X31299314Y16832488D01*
X31302218Y16832947D01*
X31321926Y16834498D01*
X41943617Y16834498D01*
X41943620Y16834498D01*
X42082956Y16849143D01*
X42260785Y16906923D01*
X42422715Y17000413D01*
X42561669Y17125528D01*
X42671573Y17276798D01*
X42747625Y17447613D01*
X42786500Y17630508D01*
X42786500Y17817488D01*
X42747625Y18000383D01*
X42671573Y18171198D01*
X42561669Y18322468D01*
X42422715Y18447583D01*
X42422713Y18447585D01*
X42260785Y18541074D01*
X42082957Y18598853D01*
X42048121Y18602515D01*
X41948396Y18612996D01*
X42857066Y18612996D01*
X42876724Y18463675D01*
X42934360Y18324529D01*
X42952465Y18300934D01*
X43026047Y18205041D01*
X43145534Y18113355D01*
X43284680Y18055719D01*
X43434002Y18036060D01*
X43583324Y18055719D01*
X43722470Y18113355D01*
X43841957Y18205041D01*
X43933643Y18324528D01*
X43991279Y18463674D01*
X44010938Y18612996D01*
X43991279Y18762318D01*
X43933643Y18901464D01*
X43841957Y19020951D01*
X43722470Y19112637D01*
X43722469Y19112638D01*
X43583323Y19170274D01*
X43434002Y19189932D01*
X43284680Y19170274D01*
X43145534Y19112638D01*
X43026047Y19020951D01*
X42934360Y18901464D01*
X42876724Y18762318D01*
X42857066Y18612996D01*
X41948396Y18612996D01*
X41943620Y18613498D01*
X41943617Y18613498D01*
X31662635Y18613498D01*
X31614417Y18623089D01*
X31573540Y18650403D01*
X30594945Y19628998D01*
X31935066Y19628998D01*
X31954724Y19479677D01*
X32012360Y19340531D01*
X32012361Y19340530D01*
X32104047Y19221043D01*
X32223534Y19129357D01*
X32362680Y19071721D01*
X32512002Y19052062D01*
X32661324Y19071721D01*
X32800470Y19129357D01*
X32919957Y19221043D01*
X33011643Y19340530D01*
X33069279Y19479676D01*
X33088938Y19628998D01*
X33069279Y19778320D01*
X33056711Y19808662D01*
X33047508Y19866766D01*
X33065687Y19922715D01*
X33107285Y19964313D01*
X33163234Y19982492D01*
X33221338Y19973289D01*
X33251680Y19960721D01*
X33401002Y19941062D01*
X33532952Y19958435D01*
X33550325Y19960721D01*
X33580664Y19973288D01*
X33638767Y19982492D01*
X33694716Y19964313D01*
X33736315Y19922716D01*
X33754494Y19866768D01*
X33745293Y19808664D01*
X33732724Y19778321D01*
X33713066Y19628998D01*
X33732724Y19479677D01*
X33790360Y19340531D01*
X33790361Y19340530D01*
X33882047Y19221043D01*
X34001534Y19129357D01*
X34140680Y19071721D01*
X34290002Y19052062D01*
X34439324Y19071721D01*
X34578470Y19129357D01*
X34697957Y19221043D01*
X34789643Y19340530D01*
X34847279Y19479676D01*
X34866938Y19628998D01*
X34847279Y19778320D01*
X34789643Y19917466D01*
X34697957Y20036953D01*
X34578470Y20128639D01*
X34578469Y20128640D01*
X34439323Y20186276D01*
X34290002Y20205934D01*
X34140679Y20186276D01*
X34110336Y20173707D01*
X34052232Y20164506D01*
X33996284Y20182685D01*
X33954687Y20224284D01*
X33936508Y20280233D01*
X33945712Y20338336D01*
X33958279Y20368675D01*
X33971450Y20468721D01*
X33977938Y20517998D01*
X33958279Y20667320D01*
X33945711Y20697662D01*
X33936508Y20755766D01*
X33954687Y20811715D01*
X33996285Y20853313D01*
X34052234Y20871492D01*
X34110338Y20862289D01*
X34140680Y20849721D01*
X34290002Y20830062D01*
X34439324Y20849721D01*
X34578470Y20907357D01*
X34697957Y20999043D01*
X34718641Y21025999D01*
X49898068Y21025999D01*
X49917726Y20876677D01*
X49975362Y20737531D01*
X49996694Y20709730D01*
X50067049Y20618043D01*
X50186536Y20526357D01*
X50325682Y20468721D01*
X50475004Y20449062D01*
X50624326Y20468721D01*
X50763472Y20526357D01*
X50882959Y20618043D01*
X50974645Y20737530D01*
X51032281Y20876676D01*
X51051940Y21025998D01*
X51032281Y21175320D01*
X50974645Y21314466D01*
X50882959Y21433953D01*
X50763472Y21525639D01*
X50763471Y21525640D01*
X50624325Y21583276D01*
X50475004Y21602934D01*
X50325682Y21583276D01*
X50186536Y21525640D01*
X50067049Y21433953D01*
X49975362Y21314466D01*
X49917726Y21175320D01*
X49898068Y21025999D01*
X34718641Y21025999D01*
X34789643Y21118530D01*
X34847279Y21257676D01*
X34866938Y21406998D01*
X34847279Y21556320D01*
X34789643Y21695466D01*
X34697957Y21814953D01*
X34578470Y21906639D01*
X34578469Y21906640D01*
X34439323Y21964276D01*
X34290002Y21983934D01*
X34140680Y21964276D01*
X34001534Y21906640D01*
X33882047Y21814953D01*
X33790360Y21695466D01*
X33732724Y21556320D01*
X33713066Y21406999D01*
X33732724Y21257675D01*
X33745292Y21227334D01*
X33754495Y21169230D01*
X33736316Y21113282D01*
X33694718Y21071684D01*
X33638770Y21053505D01*
X33580666Y21062708D01*
X33550325Y21075276D01*
X33401002Y21094934D01*
X33251679Y21075276D01*
X33221336Y21062707D01*
X33163232Y21053506D01*
X33107284Y21071685D01*
X33065687Y21113284D01*
X33047508Y21169233D01*
X33056712Y21227336D01*
X33069279Y21257675D01*
X33074818Y21299746D01*
X33088938Y21406998D01*
X33069279Y21556320D01*
X33011643Y21695466D01*
X32919957Y21814953D01*
X32800470Y21906639D01*
X32800469Y21906640D01*
X32661323Y21964276D01*
X32512002Y21983934D01*
X32362680Y21964276D01*
X32223534Y21906640D01*
X32104047Y21814953D01*
X32012360Y21695466D01*
X31954724Y21556320D01*
X31935066Y21406999D01*
X31954724Y21257677D01*
X32012360Y21118531D01*
X32012361Y21118530D01*
X32104047Y20999043D01*
X32223534Y20907357D01*
X32362680Y20849721D01*
X32512002Y20830062D01*
X32643952Y20847435D01*
X32661325Y20849721D01*
X32691664Y20862288D01*
X32749767Y20871492D01*
X32805716Y20853313D01*
X32847315Y20811716D01*
X32865494Y20755768D01*
X32856293Y20697664D01*
X32843724Y20667321D01*
X32824066Y20517998D01*
X32843724Y20368675D01*
X32856292Y20338334D01*
X32865495Y20280230D01*
X32847316Y20224282D01*
X32805718Y20182684D01*
X32749770Y20164505D01*
X32691666Y20173708D01*
X32661325Y20186276D01*
X32512002Y20205934D01*
X32362680Y20186276D01*
X32223534Y20128640D01*
X32104047Y20036953D01*
X32012360Y19917466D01*
X31954724Y19778320D01*
X31935066Y19628998D01*
X30594945Y19628998D01*
X29641490Y20582453D01*
X29628648Y20597488D01*
X29620668Y20608472D01*
X29570940Y20653248D01*
X29566156Y20657788D01*
X29552014Y20671930D01*
X29536449Y20684535D01*
X29531438Y20688815D01*
X29506013Y20711707D01*
X29481717Y20733583D01*
X29481715Y20733585D01*
X29481713Y20733586D01*
X29469963Y20740370D01*
X29453670Y20751568D01*
X29443130Y20760103D01*
X29443128Y20760104D01*
X29443127Y20760105D01*
X29383505Y20790484D01*
X29377724Y20793623D01*
X29319787Y20827073D01*
X29306874Y20831269D01*
X29288616Y20838832D01*
X29276526Y20844992D01*
X29211874Y20862316D01*
X29205592Y20864178D01*
X29167122Y20876677D01*
X29141956Y20884854D01*
X29128465Y20886272D01*
X29109033Y20889873D01*
X29095916Y20893388D01*
X29029113Y20896888D01*
X29022538Y20897405D01*
X29002622Y20899498D01*
X28982595Y20899498D01*
X28976001Y20899671D01*
X28960010Y20900509D01*
X28909192Y20903172D01*
X28909191Y20903172D01*
X28895786Y20901049D01*
X28876078Y20899498D01*
X26669502Y20899498D01*
X26606502Y20916379D01*
X26560383Y20962498D01*
X26543502Y21025498D01*
X26543502Y22597074D01*
X26545053Y22616782D01*
X26545867Y22621922D01*
X26547176Y22630188D01*
X26543674Y22696991D01*
X26543502Y22703584D01*
X26543502Y22723619D01*
X26541408Y22743534D01*
X26540890Y22750117D01*
X26537390Y22816912D01*
X26533878Y22830019D01*
X26530276Y22849452D01*
X26528857Y22862954D01*
X26527497Y22867139D01*
X26508183Y22926582D01*
X26506874Y22930999D01*
X64828066Y22930999D01*
X64847724Y22781677D01*
X64905360Y22642531D01*
X64905361Y22642530D01*
X64997047Y22523043D01*
X65116534Y22431357D01*
X65255680Y22373721D01*
X65405002Y22354062D01*
X65554324Y22373721D01*
X65693470Y22431357D01*
X65812957Y22523043D01*
X65904643Y22642530D01*
X65962279Y22781676D01*
X65981938Y22930998D01*
X65962279Y23080320D01*
X65904643Y23219466D01*
X65812957Y23338953D01*
X65693470Y23430639D01*
X65693469Y23430640D01*
X65554323Y23488276D01*
X65405002Y23507934D01*
X65255680Y23488276D01*
X65116534Y23430640D01*
X64997047Y23338953D01*
X64905360Y23219466D01*
X64847724Y23080320D01*
X64828066Y22930999D01*
X26506874Y22930999D01*
X26506309Y22932907D01*
X26490530Y22991797D01*
X26488996Y22997523D01*
X26482833Y23009618D01*
X26475272Y23027872D01*
X26471077Y23040783D01*
X26465963Y23049640D01*
X26437626Y23098722D01*
X26434479Y23104518D01*
X26404107Y23164125D01*
X26395571Y23174666D01*
X26384377Y23190952D01*
X26377587Y23202713D01*
X26332797Y23252457D01*
X26328543Y23257439D01*
X26315941Y23273002D01*
X26315939Y23273004D01*
X26301764Y23287179D01*
X26297260Y23291925D01*
X26252472Y23341667D01*
X26252470Y23341668D01*
X26252468Y23341671D01*
X26241485Y23349651D01*
X26226453Y23362490D01*
X25577491Y24011452D01*
X25564649Y24026487D01*
X25556669Y24037471D01*
X25516101Y24073999D01*
X76893066Y24073999D01*
X76912724Y23924677D01*
X76970360Y23785531D01*
X76970361Y23785530D01*
X77062047Y23666043D01*
X77181534Y23574357D01*
X77320680Y23516721D01*
X77470002Y23497062D01*
X77619324Y23516721D01*
X77758470Y23574357D01*
X77877957Y23666043D01*
X77969643Y23785530D01*
X78027279Y23924676D01*
X78046938Y24073998D01*
X78027279Y24223320D01*
X77969643Y24362466D01*
X77877957Y24481953D01*
X77758470Y24573639D01*
X77758469Y24573640D01*
X77619323Y24631276D01*
X77470002Y24650934D01*
X77320680Y24631276D01*
X77181534Y24573640D01*
X77062047Y24481953D01*
X76970360Y24362466D01*
X76912724Y24223320D01*
X76893066Y24073999D01*
X25516101Y24073999D01*
X25506941Y24082247D01*
X25502157Y24086787D01*
X25488015Y24100929D01*
X25472450Y24113534D01*
X25467439Y24117814D01*
X25442014Y24140706D01*
X25417718Y24162582D01*
X25417716Y24162584D01*
X25417714Y24162585D01*
X25405964Y24169369D01*
X25389671Y24180567D01*
X25379131Y24189102D01*
X25379129Y24189103D01*
X25379128Y24189104D01*
X25319506Y24219483D01*
X25313725Y24222622D01*
X25255788Y24256072D01*
X25242875Y24260268D01*
X25224617Y24267831D01*
X25212527Y24273991D01*
X25147875Y24291315D01*
X25141593Y24293177D01*
X25101698Y24306139D01*
X25077957Y24313853D01*
X25064466Y24315271D01*
X25045034Y24318872D01*
X25031917Y24322387D01*
X24965114Y24325887D01*
X24958539Y24326404D01*
X24938623Y24328497D01*
X24918596Y24328497D01*
X24912002Y24328670D01*
X24896011Y24329508D01*
X24845193Y24332171D01*
X24845192Y24332171D01*
X24831787Y24330048D01*
X24812079Y24328497D01*
X23842384Y24328497D01*
X23758782Y24319711D01*
X23703046Y24313852D01*
X23525218Y24256073D01*
X23363290Y24162584D01*
X23224334Y24037467D01*
X23114432Y23886199D01*
X23038379Y23715383D01*
X23027892Y23666044D01*
X22999504Y23532487D01*
X22999504Y23345507D01*
X23038379Y23162612D01*
X23114431Y22991797D01*
X23114432Y22991796D01*
X23224334Y22840528D01*
X23363290Y22715411D01*
X23525218Y22621922D01*
X23541038Y22616782D01*
X23703048Y22564142D01*
X23842384Y22549497D01*
X24471370Y22549497D01*
X24519588Y22539906D01*
X24560465Y22512592D01*
X24727597Y22345460D01*
X24754911Y22304583D01*
X24764502Y22256365D01*
X24764502Y17382631D01*
X24754911Y17334413D01*
X24727597Y17293536D01*
X24687464Y17253403D01*
X24646587Y17226089D01*
X24598369Y17216498D01*
X23842384Y17216498D01*
X23758782Y17207712D01*
X23703046Y17201853D01*
X23525218Y17144074D01*
X23363290Y17050585D01*
X23224334Y16925468D01*
X23114432Y16774200D01*
X23041821Y16611113D01*
X23038379Y16603383D01*
X22999504Y16420488D01*
X22999504Y16233508D01*
X508500Y16233508D01*
X508500Y23308000D01*
X5529694Y23308000D01*
X5548162Y23108702D01*
X5602937Y22916187D01*
X5692152Y22737019D01*
X5722381Y22696990D01*
X5812773Y22577292D01*
X5960688Y22442449D01*
X6130862Y22337082D01*
X6317500Y22264778D01*
X6514245Y22228000D01*
X6714397Y22228000D01*
X6714399Y22228000D01*
X6911144Y22264778D01*
X7097782Y22337082D01*
X7267956Y22442449D01*
X7385932Y22549999D01*
X21762066Y22549999D01*
X21781724Y22400677D01*
X21839360Y22261531D01*
X21839361Y22261530D01*
X21931047Y22142043D01*
X22050534Y22050357D01*
X22189680Y21992721D01*
X22339002Y21973062D01*
X22488324Y21992721D01*
X22627470Y22050357D01*
X22746957Y22142043D01*
X22838643Y22261530D01*
X22896279Y22400676D01*
X22915938Y22549998D01*
X22896279Y22699320D01*
X22838643Y22838466D01*
X22746957Y22957953D01*
X22627470Y23049639D01*
X22627469Y23049640D01*
X22488323Y23107276D01*
X22339002Y23126934D01*
X22189680Y23107276D01*
X22050534Y23049640D01*
X21931047Y22957953D01*
X21839360Y22838466D01*
X21781724Y22699320D01*
X21762066Y22549999D01*
X7385932Y22549999D01*
X7415871Y22577292D01*
X7536490Y22737017D01*
X7625707Y22916188D01*
X7680481Y23108700D01*
X7698949Y23308000D01*
X7680481Y23507300D01*
X7625707Y23699812D01*
X7609296Y23732770D01*
X7536491Y23878982D01*
X7468453Y23969078D01*
X7415871Y24038708D01*
X7267956Y24173551D01*
X7191368Y24220972D01*
X7097783Y24278918D01*
X6911144Y24351222D01*
X6911143Y24351223D01*
X6714399Y24388000D01*
X6514245Y24388000D01*
X6383081Y24363482D01*
X6317499Y24351222D01*
X6130860Y24278918D01*
X5960689Y24173552D01*
X5812772Y24038707D01*
X5692152Y23878982D01*
X5602937Y23699814D01*
X5548162Y23507299D01*
X5529694Y23308000D01*
X508500Y23308000D01*
X508500Y24398996D01*
X16060068Y24398996D01*
X16079726Y24249675D01*
X16137362Y24110529D01*
X16157379Y24084443D01*
X16229049Y23991041D01*
X16348536Y23899355D01*
X16487682Y23841719D01*
X16637004Y23822060D01*
X16786326Y23841719D01*
X16925472Y23899355D01*
X17044959Y23991041D01*
X17136645Y24110528D01*
X17194281Y24249674D01*
X17213940Y24398996D01*
X17194281Y24548318D01*
X17136645Y24687464D01*
X17044959Y24806951D01*
X16925472Y24898637D01*
X16925471Y24898638D01*
X16786325Y24956274D01*
X16637004Y24975932D01*
X16487682Y24956274D01*
X16348536Y24898638D01*
X16229049Y24806951D01*
X16137362Y24687464D01*
X16079726Y24548318D01*
X16060068Y24398996D01*
X508500Y24398996D01*
X508500Y25808000D01*
X5529694Y25808000D01*
X5548162Y25608702D01*
X5602937Y25416187D01*
X5692152Y25237019D01*
X5692154Y25237017D01*
X5812773Y25077292D01*
X5960688Y24942449D01*
X6130862Y24837082D01*
X6317500Y24764778D01*
X6514245Y24728000D01*
X6714397Y24728000D01*
X6714399Y24728000D01*
X6911144Y24764778D01*
X7097782Y24837082D01*
X7267956Y24942449D01*
X7415871Y25077292D01*
X7536490Y25237017D01*
X7625707Y25416188D01*
X7680481Y25608700D01*
X7698949Y25808000D01*
X7680481Y26007300D01*
X7625707Y26199812D01*
X7559365Y26333044D01*
X7536491Y26378982D01*
X7480949Y26452531D01*
X7415871Y26538708D01*
X7267956Y26673551D01*
X7220655Y26702839D01*
X7159026Y26740998D01*
X61653066Y26740998D01*
X61672724Y26591677D01*
X61730360Y26452531D01*
X61730361Y26452530D01*
X61822047Y26333043D01*
X61941534Y26241357D01*
X62080680Y26183721D01*
X62230002Y26164062D01*
X62379324Y26183721D01*
X62518470Y26241357D01*
X62637957Y26333043D01*
X62729643Y26452530D01*
X62787279Y26591676D01*
X62806938Y26740998D01*
X62787279Y26890320D01*
X62729643Y27029466D01*
X62637957Y27148953D01*
X62538718Y27225102D01*
X62518469Y27240640D01*
X62379323Y27298276D01*
X62230002Y27317934D01*
X62080680Y27298276D01*
X61941534Y27240640D01*
X61822047Y27148953D01*
X61730360Y27029466D01*
X61672724Y26890320D01*
X61653066Y26740998D01*
X7159026Y26740998D01*
X7097783Y26778918D01*
X6911144Y26851222D01*
X6911143Y26851223D01*
X6714399Y26888000D01*
X6514245Y26888000D01*
X6383081Y26863482D01*
X6317499Y26851222D01*
X6130860Y26778918D01*
X5960689Y26673552D01*
X5812772Y26538707D01*
X5692152Y26378982D01*
X5602937Y26199814D01*
X5548162Y26007299D01*
X5529694Y25808000D01*
X508500Y25808000D01*
X508500Y29039997D01*
X18727066Y29039997D01*
X18746724Y28890675D01*
X18804360Y28751529D01*
X18804361Y28751528D01*
X18896047Y28632041D01*
X19015534Y28540355D01*
X19154680Y28482719D01*
X19304002Y28463060D01*
X19453324Y28482719D01*
X19592470Y28540355D01*
X19711957Y28632041D01*
X19803643Y28751528D01*
X19861279Y28890674D01*
X19880938Y29039996D01*
X19861279Y29189318D01*
X19803643Y29328464D01*
X19711957Y29447951D01*
X19593394Y29538928D01*
X19592469Y29539638D01*
X19453323Y29597274D01*
X19304002Y29616932D01*
X19154680Y29597274D01*
X19015534Y29539638D01*
X18896047Y29447951D01*
X18804360Y29328464D01*
X18746724Y29189318D01*
X18727066Y29039997D01*
X508500Y29039997D01*
X508500Y30458001D01*
X2302063Y30458001D01*
X2321721Y30308680D01*
X2379357Y30169534D01*
X2379358Y30169533D01*
X2471044Y30050046D01*
X2590531Y29958360D01*
X2729677Y29900724D01*
X2878999Y29881065D01*
X3028321Y29900724D01*
X3167467Y29958360D01*
X3286954Y30050046D01*
X3378640Y30169533D01*
X3384217Y30182996D01*
X28760066Y30182996D01*
X28762654Y30163339D01*
X28779724Y30033675D01*
X28837360Y29894529D01*
X28858692Y29866729D01*
X28929047Y29775041D01*
X29048534Y29683355D01*
X29187680Y29625719D01*
X29337002Y29606060D01*
X29486324Y29625719D01*
X29625470Y29683355D01*
X29744957Y29775041D01*
X29836643Y29894528D01*
X29894279Y30033674D01*
X29913938Y30182996D01*
X33840066Y30182996D01*
X33842654Y30163338D01*
X33859724Y30033675D01*
X33917360Y29894529D01*
X33938692Y29866729D01*
X34009047Y29775041D01*
X34128534Y29683355D01*
X34267680Y29625719D01*
X34417002Y29606060D01*
X34566324Y29625719D01*
X34705470Y29683355D01*
X34824957Y29775041D01*
X34916643Y29894528D01*
X34974279Y30033674D01*
X34992227Y30169998D01*
X40761068Y30169998D01*
X40780726Y30020677D01*
X40838362Y29881531D01*
X40838363Y29881530D01*
X40930049Y29762043D01*
X41049536Y29670357D01*
X41188682Y29612721D01*
X41338004Y29593062D01*
X41487326Y29612721D01*
X41626472Y29670357D01*
X41745959Y29762043D01*
X41837645Y29881530D01*
X41895281Y30020676D01*
X41914940Y30169998D01*
X41895281Y30319320D01*
X41837645Y30458466D01*
X41745959Y30577953D01*
X41626472Y30669639D01*
X41626471Y30669640D01*
X41487325Y30727276D01*
X41338004Y30746934D01*
X41188682Y30727276D01*
X41049536Y30669640D01*
X40930049Y30577953D01*
X40838362Y30458466D01*
X40780726Y30319320D01*
X40761068Y30169998D01*
X34992227Y30169998D01*
X34993938Y30182996D01*
X34974279Y30332318D01*
X34916643Y30471464D01*
X34824957Y30590951D01*
X34705470Y30682637D01*
X34705469Y30682638D01*
X34566323Y30740274D01*
X34417002Y30759932D01*
X34267680Y30740274D01*
X34128534Y30682638D01*
X34009047Y30590951D01*
X33917360Y30471464D01*
X33859724Y30332318D01*
X33849751Y30256562D01*
X33840066Y30182996D01*
X29913938Y30182996D01*
X29894279Y30332318D01*
X29836643Y30471464D01*
X29744957Y30590951D01*
X29625470Y30682637D01*
X29625469Y30682638D01*
X29486323Y30740274D01*
X29337002Y30759932D01*
X29187680Y30740274D01*
X29048534Y30682638D01*
X28929047Y30590951D01*
X28837360Y30471464D01*
X28779724Y30332318D01*
X28769751Y30256562D01*
X28760066Y30182996D01*
X3384217Y30182996D01*
X3436276Y30308679D01*
X3455935Y30458001D01*
X3436276Y30607323D01*
X3378640Y30746469D01*
X3286954Y30865956D01*
X3167467Y30957642D01*
X3167466Y30957643D01*
X3028320Y31015279D01*
X2878999Y31034937D01*
X2729677Y31015279D01*
X2590531Y30957643D01*
X2471044Y30865956D01*
X2379357Y30746469D01*
X2321721Y30607323D01*
X2302063Y30458001D01*
X508500Y30458001D01*
X508500Y31313000D01*
X103677067Y31313000D01*
X103696725Y31163678D01*
X103754361Y31024532D01*
X103754362Y31024531D01*
X103846048Y30905044D01*
X103965535Y30813358D01*
X104104681Y30755722D01*
X104254003Y30736063D01*
X104403325Y30755722D01*
X104542471Y30813358D01*
X104661958Y30905044D01*
X104753644Y31024531D01*
X104767921Y31058998D01*
X118803066Y31058998D01*
X118822724Y30909677D01*
X118880360Y30770531D01*
X118880361Y30770530D01*
X118972047Y30651043D01*
X119091534Y30559357D01*
X119230680Y30501721D01*
X119380002Y30482062D01*
X119529324Y30501721D01*
X119668470Y30559357D01*
X119787957Y30651043D01*
X119879643Y30770530D01*
X119937279Y30909676D01*
X119956938Y31058998D01*
X119937279Y31208320D01*
X119879643Y31347466D01*
X119787957Y31466953D01*
X119668470Y31558639D01*
X119668469Y31558640D01*
X119529323Y31616276D01*
X119380002Y31635934D01*
X119230680Y31616276D01*
X119091534Y31558640D01*
X118972047Y31466953D01*
X118880360Y31347466D01*
X118822724Y31208320D01*
X118803066Y31058998D01*
X104767921Y31058998D01*
X104811280Y31163677D01*
X104830939Y31312999D01*
X104811280Y31462321D01*
X104753644Y31601467D01*
X104661958Y31720954D01*
X104542471Y31812640D01*
X104542470Y31812641D01*
X104403324Y31870277D01*
X104254003Y31889935D01*
X104104681Y31870277D01*
X103965535Y31812641D01*
X103846048Y31720954D01*
X103754361Y31601467D01*
X103696725Y31462321D01*
X103677067Y31313000D01*
X508500Y31313000D01*
X508500Y32390996D01*
X24442066Y32390996D01*
X24461724Y32241675D01*
X24519360Y32102529D01*
X24519361Y32102528D01*
X24611047Y31983041D01*
X24730534Y31891355D01*
X24869680Y31833719D01*
X25019002Y31814060D01*
X25168324Y31833719D01*
X25307470Y31891355D01*
X25426957Y31983041D01*
X25497519Y32074999D01*
X102166066Y32074999D01*
X102185724Y31925677D01*
X102243360Y31786531D01*
X102243361Y31786530D01*
X102335047Y31667043D01*
X102454534Y31575357D01*
X102593680Y31517721D01*
X102743002Y31498062D01*
X102892324Y31517721D01*
X103031470Y31575357D01*
X103150957Y31667043D01*
X103242643Y31786530D01*
X103300279Y31925676D01*
X103319938Y32074998D01*
X103319938Y32074999D01*
X107119066Y32074999D01*
X107138724Y31925677D01*
X107196360Y31786531D01*
X107196361Y31786530D01*
X107288047Y31667043D01*
X107407534Y31575357D01*
X107546680Y31517721D01*
X107696002Y31498062D01*
X107845324Y31517721D01*
X107984470Y31575357D01*
X108103957Y31667043D01*
X108195643Y31786530D01*
X108253279Y31925676D01*
X108272938Y32074998D01*
X108253279Y32224320D01*
X108209920Y32328998D01*
X109024066Y32328998D01*
X109043724Y32179677D01*
X109101360Y32040531D01*
X109101361Y32040530D01*
X109193047Y31921043D01*
X109312534Y31829357D01*
X109451680Y31771721D01*
X109601002Y31752062D01*
X109750324Y31771721D01*
X109889470Y31829357D01*
X110008957Y31921043D01*
X110100643Y32040530D01*
X110158279Y32179676D01*
X110177938Y32328998D01*
X112834066Y32328998D01*
X112853724Y32179677D01*
X112911360Y32040531D01*
X112911361Y32040530D01*
X113003047Y31921043D01*
X113122534Y31829357D01*
X113261680Y31771721D01*
X113411002Y31752062D01*
X113560324Y31771721D01*
X113699470Y31829357D01*
X113818957Y31921043D01*
X113910643Y32040530D01*
X113968279Y32179676D01*
X113987938Y32328998D01*
X113968279Y32478320D01*
X113910643Y32617466D01*
X113818957Y32736953D01*
X113699470Y32828639D01*
X113699469Y32828640D01*
X113560323Y32886276D01*
X113411002Y32905934D01*
X113261680Y32886276D01*
X113122534Y32828640D01*
X113003047Y32736953D01*
X112911360Y32617466D01*
X112853724Y32478320D01*
X112834066Y32328998D01*
X110177938Y32328998D01*
X110158279Y32478320D01*
X110100643Y32617466D01*
X110008957Y32736953D01*
X109889470Y32828639D01*
X109889469Y32828640D01*
X109750323Y32886276D01*
X109601002Y32905934D01*
X109451680Y32886276D01*
X109312534Y32828640D01*
X109193047Y32736953D01*
X109101360Y32617466D01*
X109043724Y32478320D01*
X109024066Y32328998D01*
X108209920Y32328998D01*
X108195643Y32363466D01*
X108103957Y32482953D01*
X107984470Y32574639D01*
X107984469Y32574640D01*
X107845323Y32632276D01*
X107696002Y32651934D01*
X107546680Y32632276D01*
X107407534Y32574640D01*
X107288047Y32482953D01*
X107196360Y32363466D01*
X107138724Y32224320D01*
X107119066Y32074999D01*
X103319938Y32074999D01*
X103300279Y32224320D01*
X103242643Y32363466D01*
X103150957Y32482953D01*
X103031470Y32574639D01*
X103031469Y32574640D01*
X102892323Y32632276D01*
X102743002Y32651934D01*
X102593680Y32632276D01*
X102454534Y32574640D01*
X102335047Y32482953D01*
X102243360Y32363466D01*
X102185724Y32224320D01*
X102166066Y32074999D01*
X25497519Y32074999D01*
X25518643Y32102528D01*
X25576279Y32241674D01*
X25595938Y32390996D01*
X25576279Y32540318D01*
X25518643Y32679464D01*
X25426957Y32798951D01*
X25313155Y32886275D01*
X25307469Y32890638D01*
X25168323Y32948274D01*
X25019002Y32967932D01*
X24869680Y32948274D01*
X24730534Y32890638D01*
X24611047Y32798951D01*
X24519360Y32679464D01*
X24461724Y32540318D01*
X24442066Y32390996D01*
X508500Y32390996D01*
X508500Y34057999D01*
X2302063Y34057999D01*
X2321721Y33908678D01*
X2379357Y33769532D01*
X2379358Y33769531D01*
X2471044Y33650044D01*
X2590531Y33558358D01*
X2729677Y33500722D01*
X2878999Y33481063D01*
X3028321Y33500722D01*
X3167467Y33558358D01*
X3286954Y33650044D01*
X3345236Y33725998D01*
X102420066Y33725998D01*
X102439724Y33576677D01*
X102497360Y33437531D01*
X102497361Y33437530D01*
X102589047Y33318043D01*
X102708534Y33226357D01*
X102847680Y33168721D01*
X102997002Y33149062D01*
X103146324Y33168721D01*
X103285470Y33226357D01*
X103404957Y33318043D01*
X103496643Y33437530D01*
X103554279Y33576676D01*
X103573938Y33725998D01*
X113977066Y33725998D01*
X113996724Y33576677D01*
X114054360Y33437531D01*
X114054361Y33437530D01*
X114146047Y33318043D01*
X114265534Y33226357D01*
X114404680Y33168721D01*
X114554002Y33149062D01*
X114703324Y33168721D01*
X114842470Y33226357D01*
X114961957Y33318043D01*
X115053643Y33437530D01*
X115111279Y33576676D01*
X115130938Y33725998D01*
X116390066Y33725998D01*
X116409724Y33576677D01*
X116467360Y33437531D01*
X116467361Y33437530D01*
X116559047Y33318043D01*
X116678534Y33226357D01*
X116817680Y33168721D01*
X116967002Y33149062D01*
X117116324Y33168721D01*
X117255470Y33226357D01*
X117374957Y33318043D01*
X117466643Y33437530D01*
X117524279Y33576676D01*
X117543938Y33725998D01*
X117524279Y33875320D01*
X117466643Y34014466D01*
X117374957Y34133953D01*
X117255470Y34225639D01*
X117255469Y34225640D01*
X117116323Y34283276D01*
X116967002Y34302934D01*
X116817680Y34283276D01*
X116678534Y34225640D01*
X116559047Y34133953D01*
X116467360Y34014466D01*
X116409724Y33875320D01*
X116390066Y33725998D01*
X115130938Y33725998D01*
X115111279Y33875320D01*
X115053643Y34014466D01*
X114961957Y34133953D01*
X114842470Y34225639D01*
X114842469Y34225640D01*
X114703323Y34283276D01*
X114554002Y34302934D01*
X114404680Y34283276D01*
X114265534Y34225640D01*
X114146047Y34133953D01*
X114054360Y34014466D01*
X113996724Y33875320D01*
X113977066Y33725998D01*
X103573938Y33725998D01*
X103554279Y33875320D01*
X103496643Y34014466D01*
X103404957Y34133953D01*
X103285470Y34225639D01*
X103285469Y34225640D01*
X103146323Y34283276D01*
X102997002Y34302934D01*
X102847680Y34283276D01*
X102708534Y34225640D01*
X102589047Y34133953D01*
X102497360Y34014466D01*
X102439724Y33875320D01*
X102420066Y33725998D01*
X3345236Y33725998D01*
X3378640Y33769531D01*
X3436276Y33908677D01*
X3455935Y34057999D01*
X3436276Y34207321D01*
X3378640Y34346467D01*
X3286954Y34465954D01*
X3167467Y34557640D01*
X3167466Y34557641D01*
X3028320Y34615277D01*
X2878999Y34634935D01*
X2729677Y34615277D01*
X2590531Y34557641D01*
X2471044Y34465954D01*
X2379357Y34346467D01*
X2321721Y34207321D01*
X2302063Y34057999D01*
X508500Y34057999D01*
X508500Y35376998D01*
X92084064Y35376998D01*
X92103722Y35227677D01*
X92161358Y35088531D01*
X92162282Y35087327D01*
X92253045Y34969043D01*
X92372532Y34877357D01*
X92511678Y34819721D01*
X92661000Y34800062D01*
X92810322Y34819721D01*
X92949468Y34877357D01*
X93068955Y34969043D01*
X93160641Y35088530D01*
X93218277Y35227676D01*
X93237936Y35376998D01*
X93218277Y35526320D01*
X93160641Y35665466D01*
X93068955Y35784953D01*
X92983494Y35850530D01*
X92949466Y35876641D01*
X92928218Y35885442D01*
X92880626Y35920021D01*
X92853919Y35972437D01*
X92853920Y36031265D01*
X92880628Y36083681D01*
X92928221Y36118259D01*
X92978290Y36138998D01*
X103563066Y36138998D01*
X103582724Y35989677D01*
X103640360Y35850531D01*
X103640361Y35850530D01*
X103732047Y35731043D01*
X103851534Y35639357D01*
X103990680Y35581721D01*
X104140002Y35562062D01*
X104289324Y35581721D01*
X104428470Y35639357D01*
X104547957Y35731043D01*
X104639643Y35850530D01*
X104697279Y35989676D01*
X104716938Y36138998D01*
X108897066Y36138998D01*
X108916724Y35989677D01*
X108974360Y35850531D01*
X108974361Y35850530D01*
X109066047Y35731043D01*
X109185534Y35639357D01*
X109324680Y35581721D01*
X109474002Y35562062D01*
X109623324Y35581721D01*
X109762470Y35639357D01*
X109881957Y35731043D01*
X109973643Y35850530D01*
X110031279Y35989676D01*
X110050938Y36138998D01*
X112580066Y36138998D01*
X112599724Y35989677D01*
X112657360Y35850531D01*
X112657361Y35850530D01*
X112749047Y35731043D01*
X112868534Y35639357D01*
X113007680Y35581721D01*
X113157002Y35562062D01*
X113306324Y35581721D01*
X113445470Y35639357D01*
X113564957Y35731043D01*
X113656643Y35850530D01*
X113714279Y35989676D01*
X113733938Y36138998D01*
X113714279Y36288320D01*
X113656643Y36427466D01*
X113564957Y36546953D01*
X113445470Y36638639D01*
X113445469Y36638640D01*
X113306323Y36696276D01*
X113157002Y36715934D01*
X113007680Y36696276D01*
X112868534Y36638640D01*
X112749047Y36546953D01*
X112657360Y36427466D01*
X112599724Y36288320D01*
X112580066Y36138998D01*
X110050938Y36138998D01*
X110031279Y36288320D01*
X109973643Y36427466D01*
X109881957Y36546953D01*
X109762470Y36638639D01*
X109762469Y36638640D01*
X109623323Y36696276D01*
X109474002Y36715934D01*
X109324680Y36696276D01*
X109185534Y36638640D01*
X109066047Y36546953D01*
X108974360Y36427466D01*
X108916724Y36288320D01*
X108897066Y36138998D01*
X104716938Y36138998D01*
X104697279Y36288320D01*
X104639643Y36427466D01*
X104547957Y36546953D01*
X104428470Y36638639D01*
X104428469Y36638640D01*
X104289323Y36696276D01*
X104140002Y36715934D01*
X103990680Y36696276D01*
X103851534Y36638640D01*
X103732047Y36546953D01*
X103640360Y36427466D01*
X103582724Y36288320D01*
X103563066Y36138998D01*
X92978290Y36138998D01*
X92998468Y36147356D01*
X92998468Y36147357D01*
X92998470Y36147357D01*
X93117957Y36239043D01*
X93209643Y36358530D01*
X93267279Y36497676D01*
X93286938Y36646998D01*
X93267279Y36796320D01*
X93209643Y36935466D01*
X93117957Y37054953D01*
X92998470Y37146639D01*
X92998469Y37146640D01*
X92928220Y37175738D01*
X92880627Y37210317D01*
X92853919Y37262734D01*
X92853920Y37321562D01*
X92880628Y37373978D01*
X92928221Y37408556D01*
X92932820Y37410462D01*
X92949468Y37417357D01*
X93068955Y37509043D01*
X93089638Y37535997D01*
X119565067Y37535997D01*
X119584725Y37386676D01*
X119642361Y37247530D01*
X119642362Y37247529D01*
X119734048Y37128042D01*
X119853535Y37036356D01*
X119992681Y36978720D01*
X120142003Y36959061D01*
X120291325Y36978720D01*
X120430471Y37036356D01*
X120549958Y37128042D01*
X120641644Y37247529D01*
X120699280Y37386675D01*
X120718939Y37535997D01*
X120699280Y37685319D01*
X120641644Y37824465D01*
X120549958Y37943952D01*
X120458271Y38014307D01*
X120430470Y38035639D01*
X120291324Y38093275D01*
X120142003Y38112933D01*
X119992681Y38093275D01*
X119853535Y38035639D01*
X119734048Y37943952D01*
X119642361Y37824465D01*
X119584725Y37685319D01*
X119565067Y37535997D01*
X93089638Y37535997D01*
X93160641Y37628530D01*
X93218277Y37767676D01*
X93237936Y37916998D01*
X93218277Y38066320D01*
X93160641Y38205466D01*
X93068955Y38324953D01*
X92949468Y38416639D01*
X92949467Y38416640D01*
X92810321Y38474276D01*
X92711005Y38487351D01*
X92677206Y38500495D01*
X92659996Y38493802D01*
X92511678Y38474276D01*
X92372532Y38416640D01*
X92253045Y38324953D01*
X92161358Y38205466D01*
X92103722Y38066320D01*
X92084064Y37916999D01*
X92103722Y37767677D01*
X92161358Y37628531D01*
X92179465Y37604934D01*
X92253045Y37509043D01*
X92372531Y37417358D01*
X92372532Y37417357D01*
X92442781Y37388259D01*
X92490374Y37353681D01*
X92517081Y37301265D01*
X92517082Y37242438D01*
X92490376Y37190021D01*
X92442784Y37155442D01*
X92421534Y37146640D01*
X92302047Y37054953D01*
X92210360Y36935466D01*
X92152724Y36796320D01*
X92133066Y36646998D01*
X92152724Y36497677D01*
X92210360Y36358531D01*
X92210361Y36358530D01*
X92302047Y36239043D01*
X92421533Y36147358D01*
X92421534Y36147357D01*
X92442781Y36138556D01*
X92490374Y36103978D01*
X92517082Y36051562D01*
X92517082Y35992733D01*
X92490375Y35940317D01*
X92442782Y35905739D01*
X92372534Y35876641D01*
X92253045Y35784953D01*
X92161358Y35665466D01*
X92103722Y35526320D01*
X92084064Y35376998D01*
X508500Y35376998D01*
X508500Y37473001D01*
X30665066Y37473001D01*
X30684724Y37323679D01*
X30742360Y37184533D01*
X30742361Y37184532D01*
X30834047Y37065045D01*
X30953534Y36973359D01*
X31092680Y36915723D01*
X31242002Y36896064D01*
X31391324Y36915723D01*
X31530470Y36973359D01*
X31649957Y37065045D01*
X31741643Y37184532D01*
X31799279Y37323678D01*
X31818938Y37473000D01*
X31818938Y37473001D01*
X34221066Y37473001D01*
X34240724Y37323679D01*
X34298360Y37184533D01*
X34298361Y37184532D01*
X34390047Y37065045D01*
X34509534Y36973359D01*
X34648680Y36915723D01*
X34798002Y36896064D01*
X34947324Y36915723D01*
X35086470Y36973359D01*
X35205957Y37065045D01*
X35297643Y37184532D01*
X35355279Y37323678D01*
X35366512Y37408998D01*
X39111064Y37408998D01*
X39130722Y37259677D01*
X39188358Y37120531D01*
X39188359Y37120530D01*
X39280045Y37001043D01*
X39399532Y36909357D01*
X39538678Y36851721D01*
X39688000Y36832062D01*
X39837322Y36851721D01*
X39976468Y36909357D01*
X40095955Y37001043D01*
X40187641Y37120530D01*
X40245277Y37259676D01*
X40264936Y37408998D01*
X40245277Y37558320D01*
X40187641Y37697466D01*
X40095955Y37816953D01*
X39976468Y37908639D01*
X39976467Y37908640D01*
X39837321Y37966276D01*
X39688000Y37985934D01*
X39538678Y37966276D01*
X39399532Y37908640D01*
X39280045Y37816953D01*
X39188358Y37697466D01*
X39130722Y37558320D01*
X39111064Y37408998D01*
X35366512Y37408998D01*
X35374938Y37473000D01*
X35355279Y37622322D01*
X35297643Y37761468D01*
X35205957Y37880955D01*
X35101586Y37961042D01*
X35086469Y37972642D01*
X34947323Y38030278D01*
X34798002Y38049936D01*
X34648680Y38030278D01*
X34509534Y37972642D01*
X34390047Y37880955D01*
X34298360Y37761468D01*
X34240724Y37622322D01*
X34221066Y37473001D01*
X31818938Y37473001D01*
X31799279Y37622322D01*
X31741643Y37761468D01*
X31649957Y37880955D01*
X31545586Y37961042D01*
X31530469Y37972642D01*
X31391323Y38030278D01*
X31242002Y38049936D01*
X31092680Y38030278D01*
X30953534Y37972642D01*
X30834047Y37880955D01*
X30742360Y37761468D01*
X30684724Y37622322D01*
X30665066Y37473001D01*
X508500Y37473001D01*
X508500Y38600000D01*
X5529694Y38600000D01*
X5548162Y38400702D01*
X5602937Y38208187D01*
X5692152Y38029019D01*
X5734727Y37972641D01*
X5812773Y37869292D01*
X5960688Y37734449D01*
X6130862Y37629082D01*
X6317500Y37556778D01*
X6514245Y37520000D01*
X6714397Y37520000D01*
X6714399Y37520000D01*
X6911144Y37556778D01*
X7097782Y37629082D01*
X7267956Y37734449D01*
X7415871Y37869292D01*
X7536490Y38029017D01*
X7625707Y38208188D01*
X7671461Y38368997D01*
X18727068Y38368997D01*
X18746726Y38219675D01*
X18804362Y38080529D01*
X18804363Y38080528D01*
X18896049Y37961041D01*
X19015536Y37869355D01*
X19154682Y37811719D01*
X19304004Y37792060D01*
X19453326Y37811719D01*
X19592472Y37869355D01*
X19711959Y37961041D01*
X19803645Y38080528D01*
X19861281Y38219674D01*
X19880940Y38368996D01*
X19861281Y38518318D01*
X19803645Y38657464D01*
X19711959Y38776951D01*
X19592472Y38868637D01*
X19592471Y38868638D01*
X19453325Y38926274D01*
X19304004Y38945932D01*
X19154682Y38926274D01*
X19015536Y38868638D01*
X18896049Y38776951D01*
X18804362Y38657464D01*
X18746726Y38518318D01*
X18727068Y38368997D01*
X7671461Y38368997D01*
X7680481Y38400700D01*
X7698949Y38600000D01*
X7680481Y38799300D01*
X7625707Y38991812D01*
X7578951Y39085711D01*
X7536491Y39170982D01*
X7524396Y39186998D01*
X39111064Y39186998D01*
X39130722Y39037677D01*
X39188358Y38898531D01*
X39188359Y38898530D01*
X39280045Y38779043D01*
X39399532Y38687357D01*
X39538678Y38629721D01*
X39688000Y38610062D01*
X39837322Y38629721D01*
X39976468Y38687357D01*
X40095955Y38779043D01*
X40187641Y38898530D01*
X40245277Y39037676D01*
X40264936Y39186998D01*
X40245277Y39336320D01*
X40187641Y39475466D01*
X40095955Y39594953D01*
X40004267Y39665308D01*
X39976467Y39686640D01*
X39837321Y39744276D01*
X39688000Y39763934D01*
X39538678Y39744276D01*
X39399532Y39686640D01*
X39280045Y39594953D01*
X39188358Y39475466D01*
X39130722Y39336320D01*
X39111064Y39186998D01*
X7524396Y39186998D01*
X7486897Y39236654D01*
X7415871Y39330708D01*
X7267956Y39465551D01*
X7162908Y39530594D01*
X7097783Y39570918D01*
X6911144Y39643222D01*
X6911143Y39643223D01*
X6714399Y39680000D01*
X6514245Y39680000D01*
X6390617Y39656890D01*
X6317499Y39643222D01*
X6130860Y39570918D01*
X5960689Y39465552D01*
X5960687Y39465551D01*
X5960688Y39465551D01*
X5823902Y39340853D01*
X5812772Y39330707D01*
X5692152Y39170982D01*
X5602937Y38991814D01*
X5548162Y38799299D01*
X5529694Y38600000D01*
X508500Y38600000D01*
X508500Y39948999D01*
X68638066Y39948999D01*
X68657724Y39799677D01*
X68715360Y39660531D01*
X68715361Y39660530D01*
X68807047Y39541043D01*
X68926534Y39449357D01*
X69065680Y39391721D01*
X69215002Y39372062D01*
X69364324Y39391721D01*
X69503470Y39449357D01*
X69622957Y39541043D01*
X69684939Y39621819D01*
X69686540Y39623905D01*
X69730774Y39660207D01*
X69786502Y39673201D01*
X69842230Y39660207D01*
X69886464Y39623905D01*
X69950045Y39541045D01*
X69950047Y39541043D01*
X70069534Y39449357D01*
X70208680Y39391721D01*
X70358002Y39372062D01*
X70507324Y39391721D01*
X70646470Y39449357D01*
X70765957Y39541043D01*
X70857643Y39660530D01*
X70915279Y39799676D01*
X70934938Y39948998D01*
X70915279Y40098320D01*
X70857643Y40237466D01*
X70765957Y40356953D01*
X70765955Y40356954D01*
X70765955Y40356955D01*
X70683095Y40420536D01*
X70646793Y40464770D01*
X70633799Y40520498D01*
X70646793Y40576226D01*
X70683095Y40620460D01*
X70722015Y40650326D01*
X70765957Y40684043D01*
X70857643Y40803530D01*
X70915279Y40942676D01*
X70918218Y40965000D01*
X71940066Y40965000D01*
X71959724Y40815677D01*
X72017360Y40676531D01*
X72017361Y40676530D01*
X72109047Y40557043D01*
X72228534Y40465357D01*
X72367680Y40407721D01*
X72517002Y40388062D01*
X72666324Y40407721D01*
X72805470Y40465357D01*
X72924957Y40557043D01*
X72925040Y40557152D01*
X72969272Y40593453D01*
X73025002Y40606448D01*
X73080732Y40593453D01*
X73124963Y40557152D01*
X73125047Y40557043D01*
X73244534Y40465357D01*
X73383680Y40407721D01*
X73533002Y40388062D01*
X73682324Y40407721D01*
X73821470Y40465357D01*
X73940957Y40557043D01*
X73941039Y40557151D01*
X73985268Y40593452D01*
X74040997Y40606449D01*
X74096728Y40593456D01*
X74140964Y40557153D01*
X74141047Y40557045D01*
X74260534Y40465359D01*
X74399680Y40407723D01*
X74549002Y40388064D01*
X74698324Y40407723D01*
X74837470Y40465359D01*
X74956957Y40557045D01*
X75048643Y40676532D01*
X75106279Y40815678D01*
X75125938Y40965000D01*
X75106279Y41114322D01*
X75048643Y41253468D01*
X74956957Y41372955D01*
X74837473Y41464639D01*
X74837469Y41464642D01*
X74698323Y41522278D01*
X74549002Y41541936D01*
X74399680Y41522278D01*
X74260534Y41464642D01*
X74181586Y41404062D01*
X74150836Y41380466D01*
X74141046Y41372954D01*
X74140962Y41372844D01*
X74096728Y41336543D01*
X74041000Y41323550D01*
X73985272Y41336545D01*
X73941038Y41372847D01*
X73941036Y41372849D01*
X73940957Y41372953D01*
X73891835Y41410646D01*
X73821469Y41464640D01*
X73682323Y41522276D01*
X73533002Y41541934D01*
X73383680Y41522276D01*
X73244534Y41464640D01*
X73125042Y41372950D01*
X73124959Y41372840D01*
X73080724Y41336540D01*
X73024995Y41323549D01*
X72969268Y41336546D01*
X72925039Y41372846D01*
X72924957Y41372953D01*
X72805470Y41464639D01*
X72805469Y41464640D01*
X72666323Y41522276D01*
X72517002Y41541934D01*
X72367680Y41522276D01*
X72228534Y41464640D01*
X72109047Y41372953D01*
X72017360Y41253466D01*
X71959724Y41114320D01*
X71940066Y40965000D01*
X70918218Y40965000D01*
X70934938Y41091998D01*
X70915279Y41241320D01*
X70857643Y41380466D01*
X70765957Y41499953D01*
X70711244Y41541936D01*
X70683094Y41563537D01*
X70646793Y41607772D01*
X70633799Y41663500D01*
X70646793Y41719228D01*
X70683091Y41763458D01*
X70765957Y41827043D01*
X70857643Y41946530D01*
X70915279Y42085676D01*
X70934938Y42234998D01*
X70915279Y42384320D01*
X70857643Y42523466D01*
X70765957Y42642953D01*
X70765955Y42642954D01*
X70765955Y42642955D01*
X70683095Y42706536D01*
X70646793Y42750770D01*
X70633799Y42806498D01*
X70646793Y42862226D01*
X70683095Y42906460D01*
X70734260Y42945721D01*
X70765957Y42970043D01*
X70857643Y43089530D01*
X70915279Y43228676D01*
X70934938Y43377998D01*
X70918481Y43502998D01*
X71962066Y43502998D01*
X71964654Y43483341D01*
X71981724Y43353677D01*
X72039360Y43214531D01*
X72039361Y43214530D01*
X72131047Y43095043D01*
X72250534Y43003357D01*
X72389680Y42945721D01*
X72539002Y42926062D01*
X72688324Y42945721D01*
X72827470Y43003357D01*
X72946957Y43095043D01*
X73038643Y43214530D01*
X73096279Y43353676D01*
X73115938Y43502998D01*
X73096279Y43652320D01*
X73038643Y43791466D01*
X72946957Y43910953D01*
X72827470Y44002639D01*
X72827469Y44002640D01*
X72688323Y44060276D01*
X72539002Y44079934D01*
X72389680Y44060276D01*
X72250534Y44002640D01*
X72131047Y43910953D01*
X72039360Y43791466D01*
X71981724Y43652320D01*
X71967003Y43540501D01*
X71962066Y43502998D01*
X70918481Y43502998D01*
X70915279Y43527320D01*
X70857643Y43666466D01*
X70765957Y43785953D01*
X70765955Y43785954D01*
X70765955Y43785955D01*
X70683095Y43849536D01*
X70646793Y43893770D01*
X70633799Y43949498D01*
X70646793Y44005226D01*
X70683095Y44049460D01*
X70736082Y44090119D01*
X70765957Y44113043D01*
X70857643Y44232530D01*
X70915279Y44371676D01*
X70934938Y44520998D01*
X70915279Y44670320D01*
X70857643Y44809466D01*
X70765957Y44928953D01*
X70664666Y45006677D01*
X70646468Y45020641D01*
X70600719Y45039591D01*
X70553127Y45074170D01*
X70526420Y45126587D01*
X70526421Y45185415D01*
X70553129Y45237831D01*
X70600719Y45272407D01*
X70646470Y45291357D01*
X70765957Y45383043D01*
X70813089Y45444466D01*
X70829540Y45465905D01*
X70873774Y45502207D01*
X70929502Y45515201D01*
X70985230Y45502207D01*
X71029464Y45465905D01*
X71078778Y45401638D01*
X71093047Y45383043D01*
X71212534Y45291357D01*
X71351680Y45233721D01*
X71501002Y45214062D01*
X71650324Y45233721D01*
X71789470Y45291357D01*
X71908957Y45383043D01*
X71956089Y45444466D01*
X71972540Y45465905D01*
X72016774Y45502207D01*
X72072502Y45515201D01*
X72128230Y45502207D01*
X72172464Y45465905D01*
X72221778Y45401638D01*
X72236047Y45383043D01*
X72355534Y45291357D01*
X72494680Y45233721D01*
X72644002Y45214062D01*
X72793324Y45233721D01*
X72932470Y45291357D01*
X73051957Y45383043D01*
X73143643Y45502530D01*
X73201279Y45641676D01*
X73220938Y45790998D01*
X73201279Y45940320D01*
X73143643Y46079466D01*
X73051957Y46198953D01*
X73051955Y46198954D01*
X73051955Y46198955D01*
X72969095Y46262536D01*
X72932793Y46306770D01*
X72919799Y46362498D01*
X72932793Y46418226D01*
X72969095Y46462460D01*
X73011415Y46494934D01*
X73051957Y46526043D01*
X73143643Y46645530D01*
X73201279Y46784676D01*
X73220938Y46933998D01*
X73201279Y47083320D01*
X73143643Y47222466D01*
X73051957Y47341953D01*
X73051955Y47341954D01*
X73051955Y47341955D01*
X72969095Y47405536D01*
X72932793Y47449770D01*
X72919799Y47505498D01*
X72932793Y47561226D01*
X72969095Y47605460D01*
X73008015Y47635326D01*
X73051957Y47669043D01*
X73143643Y47788530D01*
X73201279Y47927676D01*
X73220938Y48076998D01*
X73201279Y48226320D01*
X73143643Y48365466D01*
X73051957Y48484953D01*
X73051955Y48484954D01*
X73051955Y48484955D01*
X72969095Y48548536D01*
X72932793Y48592770D01*
X72919799Y48648498D01*
X72932793Y48704226D01*
X72969095Y48748460D01*
X73051957Y48812043D01*
X73115540Y48894905D01*
X73159774Y48931207D01*
X73215502Y48944201D01*
X73271230Y48931207D01*
X73315464Y48894905D01*
X73379045Y48812045D01*
X73379047Y48812043D01*
X73498534Y48720357D01*
X73637680Y48662721D01*
X73787002Y48643062D01*
X73936324Y48662721D01*
X74075470Y48720357D01*
X74194957Y48812043D01*
X74258540Y48894905D01*
X74302774Y48931207D01*
X74358502Y48944201D01*
X74414230Y48931207D01*
X74458464Y48894905D01*
X74522045Y48812045D01*
X74522047Y48812043D01*
X74641534Y48720357D01*
X74780680Y48662721D01*
X74930002Y48643062D01*
X75079324Y48662721D01*
X75218470Y48720357D01*
X75337957Y48812043D01*
X75401540Y48894905D01*
X75445774Y48931207D01*
X75501502Y48944201D01*
X75557230Y48931207D01*
X75601464Y48894905D01*
X75665045Y48812045D01*
X75665047Y48812043D01*
X75784534Y48720357D01*
X75923680Y48662721D01*
X76073002Y48643062D01*
X76222324Y48662721D01*
X76361470Y48720357D01*
X76480957Y48812043D01*
X76544540Y48894905D01*
X76588774Y48931207D01*
X76644502Y48944201D01*
X76700230Y48931207D01*
X76744464Y48894905D01*
X76808045Y48812045D01*
X76808047Y48812043D01*
X76927534Y48720357D01*
X76927535Y48720357D01*
X76927536Y48720356D01*
X76936720Y48716551D01*
X76977597Y48689238D01*
X77004910Y48648361D01*
X77014501Y48600143D01*
X77014501Y39621819D01*
X77004910Y39573601D01*
X76977598Y39532727D01*
X76790213Y39345341D01*
X76322718Y38877847D01*
X76257109Y38790203D01*
X76206010Y38653203D01*
X76195580Y38507354D01*
X76195580Y38507351D01*
X76218781Y38400700D01*
X76226662Y38364471D01*
X76296740Y38236131D01*
X76400130Y38132741D01*
X76400132Y38132740D01*
X76400133Y38132739D01*
X76528471Y38062662D01*
X76671351Y38031580D01*
X76757641Y38037752D01*
X76819423Y38026478D01*
X76868091Y37986780D01*
X76891549Y37928520D01*
X76912724Y37767676D01*
X76970360Y37628531D01*
X76988467Y37604934D01*
X77062047Y37509043D01*
X77181534Y37417357D01*
X77320680Y37359721D01*
X77470002Y37340062D01*
X77619324Y37359721D01*
X77758470Y37417357D01*
X77877957Y37509043D01*
X77969643Y37628530D01*
X78027279Y37767676D01*
X78046938Y37916998D01*
X78027279Y38066320D01*
X77969643Y38205466D01*
X77877957Y38324953D01*
X77758470Y38416639D01*
X77758469Y38416640D01*
X77608334Y38478827D01*
X77559153Y38515302D01*
X77532973Y38570654D01*
X77535977Y38631812D01*
X77567455Y38684329D01*
X77834332Y38951206D01*
X77855302Y38968105D01*
X77859422Y38970751D01*
X77892451Y39008870D01*
X77898581Y39015454D01*
X77908281Y39025153D01*
X77916497Y39036130D01*
X77922134Y39043126D01*
X77955177Y39081258D01*
X77957212Y39085716D01*
X77970959Y39108883D01*
X77973889Y39112797D01*
X77991514Y39160053D01*
X77994957Y39168367D01*
X78015920Y39214267D01*
X78016616Y39219116D01*
X78023278Y39245216D01*
X78024989Y39249800D01*
X78028586Y39300112D01*
X78029549Y39309061D01*
X78031501Y39322634D01*
X78031501Y39336353D01*
X78031822Y39345341D01*
X78033733Y39372063D01*
X78035420Y39395649D01*
X78034380Y39400430D01*
X78031501Y39427211D01*
X78031501Y40583998D01*
X92084064Y40583998D01*
X92103722Y40434677D01*
X92161358Y40295531D01*
X92161359Y40295530D01*
X92253045Y40176043D01*
X92354335Y40098320D01*
X92372532Y40084357D01*
X92442781Y40055259D01*
X92490374Y40020681D01*
X92517081Y39968265D01*
X92517082Y39909438D01*
X92490376Y39857021D01*
X92442784Y39822442D01*
X92421534Y39813640D01*
X92302047Y39721953D01*
X92210360Y39602466D01*
X92152724Y39463320D01*
X92133066Y39313998D01*
X92152724Y39164677D01*
X92210360Y39025531D01*
X92220533Y39012274D01*
X92302047Y38906043D01*
X92421534Y38814357D01*
X92560680Y38756721D01*
X92659996Y38743646D01*
X92693794Y38730502D01*
X92711002Y38737194D01*
X92859324Y38756721D01*
X92998470Y38814357D01*
X93117957Y38906043D01*
X93209643Y39025530D01*
X93267279Y39164676D01*
X93286938Y39313998D01*
X93267279Y39463320D01*
X93209643Y39602466D01*
X93138640Y39694998D01*
X107373066Y39694998D01*
X107374167Y39686639D01*
X107392724Y39545677D01*
X107450360Y39406531D01*
X107458710Y39395649D01*
X107542047Y39287043D01*
X107661534Y39195357D01*
X107800680Y39137721D01*
X107950002Y39118062D01*
X108099324Y39137721D01*
X108238470Y39195357D01*
X108357957Y39287043D01*
X108449643Y39406530D01*
X108507279Y39545676D01*
X108526938Y39694998D01*
X108526938Y39695001D01*
X117787066Y39695001D01*
X117806724Y39545679D01*
X117864360Y39406533D01*
X117869043Y39400430D01*
X117956047Y39287045D01*
X118075534Y39195359D01*
X118214680Y39137723D01*
X118364002Y39118064D01*
X118513324Y39137723D01*
X118652470Y39195359D01*
X118736597Y39259913D01*
X118796852Y39284871D01*
X118861516Y39276358D01*
X118913261Y39236654D01*
X118972047Y39160043D01*
X119091534Y39068357D01*
X119230680Y39010721D01*
X119380002Y38991062D01*
X119529324Y39010721D01*
X119668470Y39068357D01*
X119787957Y39160043D01*
X119879643Y39279530D01*
X119937279Y39418676D01*
X119956938Y39567998D01*
X119937279Y39717320D01*
X119879643Y39856466D01*
X119787957Y39975953D01*
X119682623Y40056779D01*
X119668469Y40067640D01*
X119529323Y40125276D01*
X119380002Y40144934D01*
X119230680Y40125276D01*
X119091534Y40067640D01*
X119007408Y40003087D01*
X118947150Y39978128D01*
X118882486Y39986641D01*
X118830742Y40026345D01*
X118771957Y40102955D01*
X118652473Y40194639D01*
X118652469Y40194642D01*
X118513323Y40252278D01*
X118364002Y40271936D01*
X118214680Y40252278D01*
X118075534Y40194642D01*
X117956047Y40102955D01*
X117864360Y39983468D01*
X117806724Y39844322D01*
X117787066Y39695001D01*
X108526938Y39695001D01*
X108525509Y39705849D01*
X108507279Y39844320D01*
X108449643Y39983466D01*
X108421609Y40020000D01*
X108357957Y40102953D01*
X108238470Y40194639D01*
X108238469Y40194640D01*
X108099323Y40252276D01*
X107950002Y40271934D01*
X107800680Y40252276D01*
X107661534Y40194640D01*
X107542047Y40102953D01*
X107450360Y39983466D01*
X107392724Y39844320D01*
X107373066Y39695001D01*
X107373066Y39694998D01*
X93138640Y39694998D01*
X93117957Y39721953D01*
X92998470Y39813639D01*
X92998469Y39813640D01*
X92928220Y39842738D01*
X92880627Y39877317D01*
X92853919Y39929734D01*
X92853920Y39988562D01*
X92880628Y40040978D01*
X92928221Y40075556D01*
X92932820Y40077462D01*
X92949468Y40084357D01*
X93068955Y40176043D01*
X93160641Y40295530D01*
X93218277Y40434676D01*
X93237936Y40583998D01*
X93218277Y40733320D01*
X93160641Y40872466D01*
X93068955Y40991953D01*
X93022946Y41027257D01*
X109786066Y41027257D01*
X109805724Y40877936D01*
X109863360Y40738790D01*
X109884692Y40710989D01*
X109955047Y40619302D01*
X110074534Y40527616D01*
X110213680Y40469980D01*
X110363002Y40450321D01*
X110512324Y40469980D01*
X110651470Y40527616D01*
X110770957Y40619302D01*
X110862643Y40738789D01*
X110920279Y40877935D01*
X110939938Y41027257D01*
X110920279Y41176579D01*
X110862643Y41315725D01*
X110770957Y41435212D01*
X110657495Y41522275D01*
X110651469Y41526899D01*
X110512323Y41584535D01*
X110363002Y41604193D01*
X110213680Y41584535D01*
X110074534Y41526899D01*
X109955047Y41435212D01*
X109863360Y41315725D01*
X109805724Y41176579D01*
X109786066Y41027257D01*
X93022946Y41027257D01*
X92949468Y41083639D01*
X92949467Y41083640D01*
X92810321Y41141276D01*
X92711005Y41154351D01*
X92677206Y41167495D01*
X92659996Y41160802D01*
X92511678Y41141276D01*
X92372532Y41083640D01*
X92253045Y40991953D01*
X92161358Y40872466D01*
X92103722Y40733320D01*
X92084064Y40583998D01*
X78031501Y40583998D01*
X78031501Y43250998D01*
X92084064Y43250998D01*
X92103722Y43101677D01*
X92161358Y42962531D01*
X92161359Y42962530D01*
X92253045Y42843043D01*
X92354335Y42765320D01*
X92372532Y42751357D01*
X92442781Y42722259D01*
X92490374Y42687681D01*
X92517081Y42635265D01*
X92517082Y42576438D01*
X92490376Y42524021D01*
X92442784Y42489442D01*
X92421534Y42480640D01*
X92302047Y42388953D01*
X92210360Y42269466D01*
X92152724Y42130320D01*
X92133066Y41980998D01*
X92152724Y41831677D01*
X92210360Y41692531D01*
X92210361Y41692530D01*
X92302047Y41573043D01*
X92421534Y41481357D01*
X92560680Y41423721D01*
X92659996Y41410646D01*
X92693794Y41397502D01*
X92711002Y41404194D01*
X92859324Y41423721D01*
X92998470Y41481357D01*
X93117957Y41573043D01*
X93209643Y41692530D01*
X93267279Y41831676D01*
X93286938Y41980998D01*
X93267279Y42130320D01*
X93209643Y42269466D01*
X93117957Y42388953D01*
X92998470Y42480639D01*
X92998469Y42480640D01*
X92928220Y42509738D01*
X92880627Y42544317D01*
X92853919Y42596734D01*
X92853920Y42628999D01*
X109786066Y42628999D01*
X109805724Y42479677D01*
X109863360Y42340531D01*
X109873336Y42327530D01*
X109955047Y42221043D01*
X110074534Y42129357D01*
X110213680Y42071721D01*
X110363002Y42052062D01*
X110512324Y42071721D01*
X110651470Y42129357D01*
X110770957Y42221043D01*
X110862643Y42340530D01*
X110920279Y42479676D01*
X110938226Y42615998D01*
X115120066Y42615998D01*
X115121139Y42607849D01*
X115139724Y42466677D01*
X115197360Y42327531D01*
X115207195Y42314714D01*
X115289047Y42208043D01*
X115408534Y42116357D01*
X115547680Y42058721D01*
X115697002Y42039062D01*
X115846324Y42058721D01*
X115985470Y42116357D01*
X116104957Y42208043D01*
X116196643Y42327530D01*
X116254279Y42466676D01*
X116273938Y42615998D01*
X116254279Y42765320D01*
X116196643Y42904466D01*
X116104957Y43023953D01*
X115985470Y43115639D01*
X115985469Y43115640D01*
X115846323Y43173276D01*
X115697002Y43192934D01*
X115547680Y43173276D01*
X115408534Y43115640D01*
X115289047Y43023953D01*
X115197360Y42904466D01*
X115139724Y42765320D01*
X115120135Y42616524D01*
X115120066Y42615998D01*
X110938226Y42615998D01*
X110939938Y42628998D01*
X110920279Y42778320D01*
X110862643Y42917466D01*
X110770957Y43036953D01*
X110651470Y43128639D01*
X110651469Y43128640D01*
X110512323Y43186276D01*
X110363002Y43205934D01*
X110213680Y43186276D01*
X110074534Y43128640D01*
X109955047Y43036953D01*
X109863360Y42917466D01*
X109805724Y42778320D01*
X109786066Y42628999D01*
X92853920Y42628999D01*
X92853920Y42655562D01*
X92880628Y42707978D01*
X92928221Y42742556D01*
X92932820Y42744462D01*
X92949468Y42751357D01*
X93068955Y42843043D01*
X93160641Y42962530D01*
X93218277Y43101676D01*
X93237936Y43250998D01*
X93218277Y43400320D01*
X93160641Y43539466D01*
X93068955Y43658953D01*
X92949468Y43750639D01*
X92949467Y43750640D01*
X92810321Y43808276D01*
X92711005Y43821351D01*
X92677206Y43834495D01*
X92659996Y43827802D01*
X92511678Y43808276D01*
X92372532Y43750640D01*
X92253045Y43658953D01*
X92161358Y43539466D01*
X92103722Y43400320D01*
X92084064Y43250998D01*
X78031501Y43250998D01*
X78031501Y43885999D01*
X106738066Y43885999D01*
X106757724Y43736677D01*
X106815360Y43597531D01*
X106815361Y43597530D01*
X106907047Y43478043D01*
X107026534Y43386357D01*
X107165680Y43328721D01*
X107315002Y43309062D01*
X107464324Y43328721D01*
X107603470Y43386357D01*
X107722957Y43478043D01*
X107814643Y43597530D01*
X107872279Y43736676D01*
X107891938Y43885998D01*
X107872279Y44035320D01*
X107814643Y44174466D01*
X107722957Y44293953D01*
X107603470Y44385639D01*
X107603469Y44385640D01*
X107464323Y44443276D01*
X107315002Y44462934D01*
X107165680Y44443276D01*
X107026534Y44385640D01*
X106907047Y44293953D01*
X106815360Y44174466D01*
X106757724Y44035320D01*
X106738066Y43885999D01*
X78031501Y43885999D01*
X78031501Y45917998D01*
X92084064Y45917998D01*
X92103722Y45768677D01*
X92161358Y45629531D01*
X92161359Y45629530D01*
X92253045Y45510043D01*
X92372531Y45418358D01*
X92372532Y45418357D01*
X92442781Y45389259D01*
X92490374Y45354681D01*
X92517081Y45302265D01*
X92517082Y45243438D01*
X92490376Y45191021D01*
X92442784Y45156442D01*
X92421534Y45147640D01*
X92302047Y45055953D01*
X92210360Y44936466D01*
X92152724Y44797320D01*
X92133066Y44647999D01*
X92152724Y44498677D01*
X92210360Y44359531D01*
X92210361Y44359530D01*
X92302047Y44240043D01*
X92421534Y44148357D01*
X92560680Y44090721D01*
X92659996Y44077646D01*
X92693794Y44064502D01*
X92711002Y44071194D01*
X92859324Y44090721D01*
X92998470Y44148357D01*
X93117957Y44240043D01*
X93209643Y44359530D01*
X93267279Y44498676D01*
X93286938Y44647998D01*
X93286938Y44647999D01*
X111564066Y44647999D01*
X111583724Y44498677D01*
X111641360Y44359531D01*
X111641361Y44359530D01*
X111733047Y44240043D01*
X111852534Y44148357D01*
X111991680Y44090721D01*
X112141002Y44071062D01*
X112290324Y44090721D01*
X112429470Y44148357D01*
X112548957Y44240043D01*
X112640643Y44359530D01*
X112698279Y44498676D01*
X112717938Y44647998D01*
X112698279Y44797320D01*
X112654920Y44901998D01*
X115755066Y44901998D01*
X115774724Y44752677D01*
X115832360Y44613531D01*
X115843724Y44598721D01*
X115924047Y44494043D01*
X116043534Y44402357D01*
X116182680Y44344721D01*
X116332002Y44325062D01*
X116481324Y44344721D01*
X116620470Y44402357D01*
X116739957Y44494043D01*
X116831643Y44613530D01*
X116889279Y44752676D01*
X116908938Y44901998D01*
X116889279Y45051320D01*
X116845920Y45155998D01*
X119959066Y45155998D01*
X119978724Y45006677D01*
X120036360Y44867531D01*
X120036361Y44867530D01*
X120128047Y44748043D01*
X120247534Y44656357D01*
X120386680Y44598721D01*
X120536002Y44579062D01*
X120685324Y44598721D01*
X120804292Y44647999D01*
X130106066Y44647999D01*
X130125724Y44498677D01*
X130183360Y44359531D01*
X130183361Y44359530D01*
X130275047Y44240043D01*
X130394534Y44148357D01*
X130533680Y44090721D01*
X130683002Y44071062D01*
X130832324Y44090721D01*
X130971470Y44148357D01*
X131090957Y44240043D01*
X131182643Y44359530D01*
X131240279Y44498676D01*
X131259938Y44647998D01*
X131240279Y44797320D01*
X131182643Y44936466D01*
X131090957Y45055953D01*
X130971470Y45147639D01*
X130971469Y45147640D01*
X130832323Y45205276D01*
X130683002Y45224934D01*
X130533680Y45205276D01*
X130394534Y45147640D01*
X130275047Y45055953D01*
X130183360Y44936466D01*
X130125724Y44797320D01*
X130106066Y44647999D01*
X120804292Y44647999D01*
X120824470Y44656357D01*
X120943957Y44748043D01*
X121035643Y44867530D01*
X121093279Y45006676D01*
X121112938Y45155998D01*
X121093279Y45305320D01*
X121035643Y45444466D01*
X120943957Y45563953D01*
X120824470Y45655639D01*
X120824469Y45655640D01*
X120685323Y45713276D01*
X120536002Y45732934D01*
X120386680Y45713276D01*
X120247534Y45655640D01*
X120128047Y45563953D01*
X120036360Y45444466D01*
X119978724Y45305320D01*
X119959066Y45155998D01*
X116845920Y45155998D01*
X116831643Y45190466D01*
X116739957Y45309953D01*
X116620473Y45401637D01*
X116620469Y45401640D01*
X116481323Y45459276D01*
X116332002Y45478934D01*
X116182680Y45459276D01*
X116043534Y45401640D01*
X115924047Y45309953D01*
X115832360Y45190466D01*
X115774724Y45051320D01*
X115755066Y44901998D01*
X112654920Y44901998D01*
X112640643Y44936466D01*
X112548957Y45055953D01*
X112429470Y45147639D01*
X112429469Y45147640D01*
X112290323Y45205276D01*
X112141002Y45224934D01*
X111991680Y45205276D01*
X111852534Y45147640D01*
X111733047Y45055953D01*
X111641360Y44936466D01*
X111583724Y44797320D01*
X111564066Y44647999D01*
X93286938Y44647999D01*
X93267279Y44797320D01*
X93209643Y44936466D01*
X93117957Y45055953D01*
X92998470Y45147639D01*
X92998469Y45147640D01*
X92928220Y45176738D01*
X92880627Y45211317D01*
X92853919Y45263734D01*
X92853920Y45322562D01*
X92880628Y45374978D01*
X92928221Y45409556D01*
X92932820Y45411462D01*
X92949468Y45418357D01*
X93068955Y45510043D01*
X93160641Y45629530D01*
X93218277Y45768676D01*
X93229576Y45854499D01*
X113278566Y45854499D01*
X113298224Y45705177D01*
X113355860Y45566031D01*
X113355861Y45566030D01*
X113447547Y45446543D01*
X113567034Y45354857D01*
X113706180Y45297221D01*
X113855502Y45277562D01*
X114004824Y45297221D01*
X114143970Y45354857D01*
X114263457Y45446543D01*
X114355143Y45566030D01*
X114412779Y45705176D01*
X114432438Y45854498D01*
X114412779Y46003820D01*
X114355143Y46142966D01*
X114263457Y46262453D01*
X114225108Y46291879D01*
X114866066Y46291879D01*
X114885724Y46142557D01*
X114943360Y46003411D01*
X114943361Y46003410D01*
X115035047Y45883923D01*
X115154534Y45792237D01*
X115293680Y45734601D01*
X115443002Y45714942D01*
X115592324Y45734601D01*
X115731470Y45792237D01*
X115850957Y45883923D01*
X115942643Y46003410D01*
X116000279Y46142556D01*
X116019938Y46291878D01*
X116000279Y46441200D01*
X115942643Y46580346D01*
X115866177Y46679998D01*
X116705064Y46679998D01*
X116724722Y46530677D01*
X116782358Y46391531D01*
X116782359Y46391530D01*
X116874045Y46272043D01*
X116993532Y46180357D01*
X117132678Y46122721D01*
X117282000Y46103062D01*
X117431322Y46122721D01*
X117570468Y46180357D01*
X117689955Y46272043D01*
X117781641Y46391530D01*
X117839277Y46530676D01*
X117858936Y46679998D01*
X117839277Y46829320D01*
X117781641Y46968466D01*
X117689955Y47087953D01*
X117570468Y47179639D01*
X117570467Y47179640D01*
X117431321Y47237276D01*
X117282000Y47256934D01*
X117132678Y47237276D01*
X116993532Y47179640D01*
X116874045Y47087953D01*
X116782358Y46968466D01*
X116724722Y46829320D01*
X116705064Y46679998D01*
X115866177Y46679998D01*
X115850957Y46699833D01*
X115731470Y46791519D01*
X115731469Y46791520D01*
X115592323Y46849156D01*
X115443002Y46868814D01*
X115293680Y46849156D01*
X115154534Y46791520D01*
X115035047Y46699833D01*
X114943360Y46580346D01*
X114885724Y46441200D01*
X114866066Y46291879D01*
X114225108Y46291879D01*
X114143970Y46354139D01*
X114143969Y46354140D01*
X114004823Y46411776D01*
X113855502Y46431434D01*
X113706180Y46411776D01*
X113567034Y46354140D01*
X113447547Y46262453D01*
X113355860Y46142966D01*
X113298224Y46003820D01*
X113278566Y45854499D01*
X93229576Y45854499D01*
X93237936Y45917998D01*
X93218277Y46067320D01*
X93160641Y46206466D01*
X93068955Y46325953D01*
X92949468Y46417639D01*
X92949467Y46417640D01*
X92810321Y46475276D01*
X92661000Y46494934D01*
X92511678Y46475276D01*
X92372532Y46417640D01*
X92253045Y46325953D01*
X92161358Y46206466D01*
X92103722Y46067320D01*
X92084064Y45917998D01*
X78031501Y45917998D01*
X78031501Y47314998D01*
X122423066Y47314998D01*
X122442724Y47165677D01*
X122500360Y47026531D01*
X122500361Y47026530D01*
X122592047Y46907043D01*
X122711534Y46815357D01*
X122850680Y46757721D01*
X123000002Y46738062D01*
X123149324Y46757721D01*
X123288470Y46815357D01*
X123407957Y46907043D01*
X123499643Y47026530D01*
X123557279Y47165676D01*
X123576938Y47314998D01*
X123557279Y47464320D01*
X123499643Y47603466D01*
X123407957Y47722953D01*
X123288470Y47814639D01*
X123288469Y47814640D01*
X123149323Y47872276D01*
X123000002Y47891934D01*
X122850680Y47872276D01*
X122711534Y47814640D01*
X122592047Y47722953D01*
X122500360Y47603466D01*
X122442724Y47464320D01*
X122423066Y47314998D01*
X78031501Y47314998D01*
X78031501Y48965999D01*
X90609066Y48965999D01*
X90628724Y48816677D01*
X90686360Y48677531D01*
X90686361Y48677530D01*
X90745742Y48600143D01*
X90753730Y48589734D01*
X90776781Y48540301D01*
X90776781Y48485758D01*
X90753731Y48436325D01*
X90699358Y48365466D01*
X90641722Y48226320D01*
X90622064Y48076998D01*
X90641722Y47927677D01*
X90699358Y47788531D01*
X90699359Y47788530D01*
X90791045Y47669043D01*
X90910532Y47577357D01*
X91049678Y47519721D01*
X91199000Y47500062D01*
X91348322Y47519721D01*
X91487468Y47577357D01*
X91606955Y47669043D01*
X91698641Y47788530D01*
X91756277Y47927676D01*
X91775936Y48076998D01*
X91756277Y48226320D01*
X91698641Y48365466D01*
X91698640Y48365469D01*
X91631272Y48453264D01*
X91608221Y48502697D01*
X91608221Y48557240D01*
X91631272Y48606672D01*
X91685642Y48677529D01*
X91685641Y48677529D01*
X91685643Y48677530D01*
X91743279Y48816676D01*
X91762938Y48965998D01*
X91743279Y49115320D01*
X91685643Y49254466D01*
X91631270Y49325326D01*
X91608220Y49374758D01*
X91608220Y49429301D01*
X91631268Y49478730D01*
X91698641Y49566530D01*
X91756277Y49705676D01*
X91766589Y49783999D01*
X133195066Y49783999D01*
X133214724Y49634677D01*
X133272360Y49495531D01*
X133272361Y49495530D01*
X133364047Y49376043D01*
X133483534Y49284357D01*
X133622680Y49226721D01*
X133772002Y49207062D01*
X133921324Y49226721D01*
X134060470Y49284357D01*
X134179957Y49376043D01*
X134271643Y49495530D01*
X134329279Y49634676D01*
X134348938Y49783998D01*
X134329279Y49933320D01*
X134271643Y50072466D01*
X134179957Y50191953D01*
X134060470Y50283639D01*
X134060469Y50283640D01*
X133921323Y50341276D01*
X133772002Y50360934D01*
X133622680Y50341276D01*
X133483534Y50283640D01*
X133364047Y50191953D01*
X133272360Y50072466D01*
X133214724Y49933320D01*
X133195066Y49783999D01*
X91766589Y49783999D01*
X91775936Y49854998D01*
X91756277Y50004320D01*
X91698641Y50143466D01*
X91606955Y50262953D01*
X91487468Y50354639D01*
X91487467Y50354640D01*
X91348321Y50412276D01*
X91199000Y50431934D01*
X91049678Y50412276D01*
X90910532Y50354640D01*
X90791045Y50262953D01*
X90699358Y50143466D01*
X90641722Y50004320D01*
X90622064Y49854998D01*
X90641722Y49705677D01*
X90699359Y49566529D01*
X90753730Y49495672D01*
X90776781Y49446240D01*
X90776781Y49391697D01*
X90753730Y49342264D01*
X90686361Y49254469D01*
X90628724Y49115320D01*
X90609066Y48965999D01*
X78031501Y48965999D01*
X78031501Y52013998D01*
X111691066Y52013998D01*
X111710724Y51864677D01*
X111768360Y51725531D01*
X111768361Y51725530D01*
X111860047Y51606043D01*
X111979534Y51514357D01*
X112118680Y51456721D01*
X112268002Y51437062D01*
X112417324Y51456721D01*
X112556470Y51514357D01*
X112675957Y51606043D01*
X112767643Y51725530D01*
X112825279Y51864676D01*
X112844938Y52013998D01*
X112825279Y52163320D01*
X112767643Y52302466D01*
X112675957Y52421953D01*
X112556470Y52513639D01*
X112556469Y52513640D01*
X112417323Y52571276D01*
X112268002Y52590934D01*
X112118680Y52571276D01*
X111979534Y52513640D01*
X111860047Y52421953D01*
X111768360Y52302466D01*
X111710724Y52163320D01*
X111691066Y52013998D01*
X78031501Y52013998D01*
X78031501Y53423998D01*
X105341066Y53423998D01*
X105360724Y53274677D01*
X105418360Y53135531D01*
X105428336Y53122530D01*
X105510047Y53016043D01*
X105629534Y52924357D01*
X105768680Y52866721D01*
X105918002Y52847062D01*
X106067324Y52866721D01*
X106206470Y52924357D01*
X106325957Y53016043D01*
X106417643Y53135530D01*
X106475279Y53274676D01*
X106493226Y53410998D01*
X106878066Y53410998D01*
X106897724Y53261677D01*
X106955360Y53122531D01*
X106955361Y53122530D01*
X107047047Y53003043D01*
X107166534Y52911357D01*
X107305680Y52853721D01*
X107455002Y52834062D01*
X107604324Y52853721D01*
X107743470Y52911357D01*
X107862957Y53003043D01*
X107883640Y53029998D01*
X117406066Y53029998D01*
X117425724Y52880677D01*
X117483360Y52741531D01*
X117483361Y52741530D01*
X117575047Y52622043D01*
X117694534Y52530357D01*
X117833680Y52472721D01*
X117983002Y52453062D01*
X118132324Y52472721D01*
X118271470Y52530357D01*
X118390957Y52622043D01*
X118482643Y52741530D01*
X118540279Y52880676D01*
X118559938Y53029998D01*
X118543218Y53156999D01*
X130995066Y53156999D01*
X131014724Y53007677D01*
X131072360Y52868531D01*
X131087471Y52848838D01*
X131164047Y52749043D01*
X131283534Y52657357D01*
X131422680Y52599721D01*
X131572002Y52580062D01*
X131721324Y52599721D01*
X131860470Y52657357D01*
X131979957Y52749043D01*
X132071643Y52868530D01*
X132129279Y53007676D01*
X132148938Y53156998D01*
X132129279Y53306320D01*
X132071643Y53445466D01*
X131979957Y53564953D01*
X131860470Y53656639D01*
X131860469Y53656640D01*
X131721323Y53714276D01*
X131572002Y53733934D01*
X131422680Y53714276D01*
X131283534Y53656640D01*
X131164047Y53564953D01*
X131072360Y53445466D01*
X131014724Y53306320D01*
X130995066Y53156999D01*
X118543218Y53156999D01*
X118540279Y53179320D01*
X118482643Y53318466D01*
X118390957Y53437953D01*
X118271470Y53529639D01*
X118271469Y53529640D01*
X118132323Y53587276D01*
X117983002Y53606934D01*
X117833680Y53587276D01*
X117694534Y53529640D01*
X117575047Y53437953D01*
X117483360Y53318466D01*
X117425724Y53179320D01*
X117406066Y53029998D01*
X107883640Y53029998D01*
X107954643Y53122530D01*
X108012279Y53261676D01*
X108031938Y53410998D01*
X108012279Y53560320D01*
X107954643Y53699466D01*
X107862957Y53818953D01*
X107743470Y53910639D01*
X107743469Y53910640D01*
X107604323Y53968276D01*
X107455002Y53987934D01*
X107305680Y53968276D01*
X107166534Y53910640D01*
X107047047Y53818953D01*
X106955360Y53699466D01*
X106897724Y53560320D01*
X106878066Y53410998D01*
X106493226Y53410998D01*
X106494938Y53423998D01*
X106475279Y53573320D01*
X106417643Y53712466D01*
X106325957Y53831953D01*
X106206470Y53923639D01*
X106206469Y53923640D01*
X106067323Y53981276D01*
X105918002Y54000934D01*
X105768680Y53981276D01*
X105629534Y53923640D01*
X105510047Y53831953D01*
X105418360Y53712466D01*
X105360724Y53573320D01*
X105341066Y53423998D01*
X78031501Y53423998D01*
X78031501Y54553998D01*
X115374066Y54553998D01*
X115393724Y54404677D01*
X115451360Y54265531D01*
X115451361Y54265530D01*
X115543047Y54146043D01*
X115662534Y54054357D01*
X115801680Y53996721D01*
X115951002Y53977062D01*
X116100324Y53996721D01*
X116239470Y54054357D01*
X116358957Y54146043D01*
X116450643Y54265530D01*
X116508279Y54404676D01*
X116527938Y54553998D01*
X116508279Y54703320D01*
X116450643Y54842466D01*
X116358957Y54961953D01*
X116239470Y55053639D01*
X116239469Y55053640D01*
X116100323Y55111276D01*
X115951002Y55130934D01*
X115801680Y55111276D01*
X115662534Y55053640D01*
X115543047Y54961953D01*
X115451360Y54842466D01*
X115393724Y54703320D01*
X115374066Y54553998D01*
X78031501Y54553998D01*
X78031501Y55633498D01*
X130296566Y55633498D01*
X130316224Y55484177D01*
X130373860Y55345031D01*
X130373861Y55345030D01*
X130465547Y55225543D01*
X130585034Y55133857D01*
X130724180Y55076221D01*
X130873502Y55056562D01*
X131022824Y55076221D01*
X131161970Y55133857D01*
X131281457Y55225543D01*
X131373143Y55345030D01*
X131430779Y55484176D01*
X131450438Y55633498D01*
X131430779Y55782820D01*
X131373143Y55921966D01*
X131281457Y56041453D01*
X131161970Y56133139D01*
X131161969Y56133140D01*
X131022823Y56190776D01*
X130873502Y56210434D01*
X130724180Y56190776D01*
X130585034Y56133140D01*
X130465547Y56041453D01*
X130373860Y55921966D01*
X130316224Y55782820D01*
X130296566Y55633498D01*
X78031501Y55633498D01*
X78031501Y56585998D01*
X124391066Y56585998D01*
X124410724Y56436677D01*
X124468360Y56297531D01*
X124468361Y56297530D01*
X124560047Y56178043D01*
X124679534Y56086357D01*
X124818680Y56028721D01*
X124968002Y56009062D01*
X125117324Y56028721D01*
X125256470Y56086357D01*
X125375957Y56178043D01*
X125467643Y56297530D01*
X125525279Y56436676D01*
X125544938Y56585998D01*
X125528218Y56712998D01*
X131821064Y56712998D01*
X131840722Y56563677D01*
X131898358Y56424531D01*
X131898359Y56424530D01*
X131990045Y56305043D01*
X132109532Y56213357D01*
X132248678Y56155721D01*
X132398000Y56136062D01*
X132547322Y56155721D01*
X132686468Y56213357D01*
X132805955Y56305043D01*
X132897641Y56424530D01*
X132955277Y56563676D01*
X132974936Y56712998D01*
X132955277Y56862320D01*
X132897641Y57001466D01*
X132805955Y57120953D01*
X132714267Y57191308D01*
X132686467Y57212640D01*
X132547321Y57270276D01*
X132398000Y57289934D01*
X132248678Y57270276D01*
X132109532Y57212640D01*
X131990045Y57120953D01*
X131898358Y57001466D01*
X131840722Y56862320D01*
X131821064Y56712998D01*
X125528218Y56712998D01*
X125525279Y56735320D01*
X125467643Y56874466D01*
X125375957Y56993953D01*
X125256470Y57085639D01*
X125256469Y57085640D01*
X125117323Y57143276D01*
X124968002Y57162934D01*
X124818680Y57143276D01*
X124679534Y57085640D01*
X124560047Y56993953D01*
X124468360Y56874466D01*
X124410724Y56735320D01*
X124391066Y56585998D01*
X78031501Y56585998D01*
X78031501Y58552000D01*
X124385566Y58552000D01*
X124405224Y58402679D01*
X124462860Y58263533D01*
X124462861Y58263532D01*
X124554547Y58144045D01*
X124674034Y58052359D01*
X124813180Y57994723D01*
X124962502Y57975064D01*
X125111824Y57994723D01*
X125250970Y58052359D01*
X125370457Y58144045D01*
X125462143Y58263532D01*
X125519779Y58402678D01*
X125522981Y58426999D01*
X126423066Y58426999D01*
X126442724Y58277677D01*
X126500360Y58138531D01*
X126500361Y58138530D01*
X126592047Y58019043D01*
X126711534Y57927357D01*
X126850680Y57869721D01*
X127000002Y57850062D01*
X127149324Y57869721D01*
X127288470Y57927357D01*
X127407957Y58019043D01*
X127499643Y58138530D01*
X127557279Y58277676D01*
X127576938Y58426998D01*
X127557279Y58576320D01*
X127499643Y58715466D01*
X127476981Y58744999D01*
X134424066Y58744999D01*
X134443724Y58595677D01*
X134501360Y58456531D01*
X134501361Y58456530D01*
X134593047Y58337043D01*
X134712534Y58245357D01*
X134851680Y58187721D01*
X135001002Y58168062D01*
X135150324Y58187721D01*
X135289470Y58245357D01*
X135408957Y58337043D01*
X135500643Y58456530D01*
X135558279Y58595676D01*
X135577938Y58744998D01*
X135558279Y58894320D01*
X135500643Y59033466D01*
X135408957Y59152953D01*
X135289470Y59244639D01*
X135289469Y59244640D01*
X135150323Y59302276D01*
X135020659Y59319346D01*
X135001002Y59321934D01*
X135001001Y59321934D01*
X134851680Y59302276D01*
X134712534Y59244640D01*
X134593047Y59152953D01*
X134501360Y59033466D01*
X134443724Y58894320D01*
X134424066Y58744999D01*
X127476981Y58744999D01*
X127407957Y58834953D01*
X127288470Y58926639D01*
X127288469Y58926640D01*
X127149323Y58984276D01*
X127000002Y59003934D01*
X126850680Y58984276D01*
X126711534Y58926640D01*
X126592047Y58834953D01*
X126500360Y58715466D01*
X126442724Y58576320D01*
X126423066Y58426999D01*
X125522981Y58426999D01*
X125539438Y58552000D01*
X125519779Y58701322D01*
X125462143Y58840468D01*
X125370457Y58959955D01*
X125250973Y59051639D01*
X125250969Y59051642D01*
X125111823Y59109278D01*
X124962502Y59128936D01*
X124813180Y59109278D01*
X124674034Y59051642D01*
X124554547Y58959955D01*
X124462860Y58840468D01*
X124405224Y58701322D01*
X124385566Y58552000D01*
X78031501Y58552000D01*
X78031501Y59363370D01*
X78015920Y59471731D01*
X78015920Y59471733D01*
X77955177Y59604742D01*
X77942393Y59619495D01*
X77859422Y59715250D01*
X77736411Y59794304D01*
X77596113Y59835499D01*
X77596112Y59835499D01*
X77449890Y59835499D01*
X77449889Y59835499D01*
X77309590Y59794304D01*
X77186579Y59715250D01*
X77090825Y59604743D01*
X77030081Y59471731D01*
X77014501Y59363370D01*
X77014501Y50982853D01*
X77004910Y50934635D01*
X76977597Y50893758D01*
X76936720Y50866445D01*
X76927536Y50862641D01*
X76808046Y50770952D01*
X76744462Y50688090D01*
X76700228Y50651789D01*
X76644500Y50638796D01*
X76588772Y50651790D01*
X76544539Y50688092D01*
X76480958Y50770952D01*
X76361469Y50862640D01*
X76222323Y50920276D01*
X76073002Y50939934D01*
X75923680Y50920276D01*
X75784534Y50862640D01*
X75665046Y50770952D01*
X75601462Y50688090D01*
X75557228Y50651789D01*
X75501500Y50638796D01*
X75445772Y50651790D01*
X75401539Y50688092D01*
X75337958Y50770952D01*
X75218469Y50862640D01*
X75079323Y50920276D01*
X74930002Y50939934D01*
X74780680Y50920276D01*
X74641534Y50862640D01*
X74522046Y50770952D01*
X74458462Y50688090D01*
X74414228Y50651789D01*
X74358500Y50638796D01*
X74302772Y50651790D01*
X74258539Y50688092D01*
X74194958Y50770952D01*
X74075469Y50862640D01*
X73936323Y50920276D01*
X73787002Y50939934D01*
X73637680Y50920276D01*
X73498534Y50862640D01*
X73379046Y50770952D01*
X73315462Y50688090D01*
X73271228Y50651789D01*
X73215500Y50638796D01*
X73159772Y50651790D01*
X73115539Y50688092D01*
X73051958Y50770952D01*
X72932469Y50862640D01*
X72793323Y50920276D01*
X72644002Y50939934D01*
X72494680Y50920276D01*
X72355534Y50862640D01*
X72236046Y50770952D01*
X72172462Y50688090D01*
X72128228Y50651789D01*
X72072500Y50638796D01*
X72016772Y50651790D01*
X71972539Y50688092D01*
X71908958Y50770952D01*
X71789469Y50862640D01*
X71650323Y50920276D01*
X71501002Y50939934D01*
X71351680Y50920276D01*
X71212534Y50862640D01*
X71093046Y50770952D01*
X71029462Y50688090D01*
X70985228Y50651789D01*
X70929500Y50638796D01*
X70873772Y50651790D01*
X70829539Y50688092D01*
X70765958Y50770952D01*
X70646469Y50862640D01*
X70507323Y50920276D01*
X70358002Y50939934D01*
X70208680Y50920276D01*
X70069534Y50862640D01*
X69950046Y50770952D01*
X69886462Y50688090D01*
X69842228Y50651789D01*
X69786500Y50638796D01*
X69730772Y50651790D01*
X69686539Y50688092D01*
X69622958Y50770952D01*
X69503469Y50862640D01*
X69364323Y50920276D01*
X69215002Y50939934D01*
X69065680Y50920276D01*
X68926534Y50862640D01*
X68807047Y50770953D01*
X68715360Y50651466D01*
X68657724Y50512320D01*
X68638066Y50362998D01*
X68657724Y50213677D01*
X68715360Y50074531D01*
X68715361Y50074530D01*
X68807047Y49955043D01*
X68835357Y49933320D01*
X68889909Y49891460D01*
X68926210Y49847226D01*
X68939204Y49791498D01*
X68926210Y49735770D01*
X68889909Y49691536D01*
X68807047Y49627953D01*
X68715360Y49508466D01*
X68657724Y49369320D01*
X68638066Y49219998D01*
X68657724Y49070677D01*
X68715360Y48931531D01*
X68715361Y48931530D01*
X68807047Y48812043D01*
X68863278Y48768896D01*
X68889909Y48748460D01*
X68926210Y48704226D01*
X68939204Y48648498D01*
X68926210Y48592770D01*
X68889909Y48548536D01*
X68807047Y48484953D01*
X68715360Y48365466D01*
X68657724Y48226320D01*
X68638066Y48076998D01*
X68657724Y47927677D01*
X68715360Y47788531D01*
X68715361Y47788530D01*
X68807047Y47669043D01*
X68863278Y47625896D01*
X68889909Y47605460D01*
X68926210Y47561226D01*
X68939204Y47505498D01*
X68926210Y47449770D01*
X68889909Y47405536D01*
X68807047Y47341953D01*
X68715360Y47222466D01*
X68657724Y47083320D01*
X68638066Y46933999D01*
X68657724Y46784677D01*
X68715360Y46645531D01*
X68715361Y46645530D01*
X68807047Y46526043D01*
X68847589Y46494934D01*
X68889909Y46462460D01*
X68926210Y46418226D01*
X68939204Y46362498D01*
X68926210Y46306770D01*
X68889909Y46262536D01*
X68807047Y46198953D01*
X68715360Y46079466D01*
X68657724Y45940320D01*
X68638066Y45790999D01*
X68657724Y45641677D01*
X68715360Y45502531D01*
X68715361Y45502530D01*
X68807047Y45383043D01*
X68926534Y45291357D01*
X68959836Y45277563D01*
X68972281Y45272408D01*
X69019874Y45237831D01*
X69046582Y45185415D01*
X69046583Y45126587D01*
X69019877Y45074170D01*
X68972284Y45039591D01*
X68926535Y45020641D01*
X68807047Y44928953D01*
X68715360Y44809466D01*
X68657724Y44670320D01*
X68638066Y44520998D01*
X68657724Y44371677D01*
X68715360Y44232531D01*
X68715361Y44232530D01*
X68807047Y44113043D01*
X68863278Y44069896D01*
X68889909Y44049460D01*
X68926210Y44005226D01*
X68939204Y43949498D01*
X68926210Y43893770D01*
X68889909Y43849536D01*
X68807047Y43785953D01*
X68715360Y43666466D01*
X68657724Y43527320D01*
X68638066Y43377998D01*
X68657724Y43228677D01*
X68715360Y43089531D01*
X68715361Y43089530D01*
X68807047Y42970043D01*
X68838744Y42945721D01*
X68889909Y42906460D01*
X68926210Y42862226D01*
X68939204Y42806498D01*
X68926210Y42750770D01*
X68889909Y42706536D01*
X68807047Y42642953D01*
X68715360Y42523466D01*
X68657724Y42384320D01*
X68638066Y42234999D01*
X68657724Y42085677D01*
X68715360Y41946531D01*
X68715361Y41946530D01*
X68807045Y41827045D01*
X68807048Y41827042D01*
X68889908Y41763461D01*
X68926210Y41719228D01*
X68939204Y41663500D01*
X68926211Y41607772D01*
X68889910Y41563538D01*
X68807048Y41499954D01*
X68715360Y41380466D01*
X68657724Y41241320D01*
X68638066Y41091999D01*
X68657724Y40942677D01*
X68715360Y40803531D01*
X68715361Y40803530D01*
X68807047Y40684043D01*
X68863278Y40640896D01*
X68889909Y40620460D01*
X68926210Y40576226D01*
X68939204Y40520498D01*
X68926210Y40464770D01*
X68889909Y40420536D01*
X68807047Y40356953D01*
X68715360Y40237466D01*
X68657724Y40098320D01*
X68638066Y39948999D01*
X508500Y39948999D01*
X508500Y41100000D01*
X5529694Y41100000D01*
X5548162Y40900702D01*
X5602937Y40708187D01*
X5692152Y40529019D01*
X5692154Y40529017D01*
X5812773Y40369292D01*
X5960688Y40234449D01*
X6130862Y40129082D01*
X6317500Y40056778D01*
X6514245Y40020000D01*
X6714397Y40020000D01*
X6714399Y40020000D01*
X6911144Y40056778D01*
X7097782Y40129082D01*
X7267956Y40234449D01*
X7415871Y40369292D01*
X7536490Y40529017D01*
X7625707Y40708188D01*
X7680481Y40900700D01*
X7698949Y41100000D01*
X7680481Y41299300D01*
X7625707Y41491812D01*
X7569748Y41604193D01*
X7536491Y41670982D01*
X7487877Y41735357D01*
X7415871Y41830708D01*
X7267956Y41965551D01*
X7184795Y42017042D01*
X7097783Y42070918D01*
X6911144Y42143222D01*
X6714399Y42180000D01*
X6514245Y42180000D01*
X6383081Y42155482D01*
X6317499Y42143222D01*
X6130860Y42070918D01*
X5960689Y41965552D01*
X5812772Y41830707D01*
X5692152Y41670982D01*
X5602937Y41491814D01*
X5548162Y41299299D01*
X5529694Y41100000D01*
X508500Y41100000D01*
X508500Y42424996D01*
X32443066Y42424996D01*
X32462724Y42275675D01*
X32520360Y42136529D01*
X32532602Y42120575D01*
X32612047Y42017041D01*
X32731534Y41925355D01*
X32870680Y41867719D01*
X33020002Y41848060D01*
X33169324Y41867719D01*
X33308470Y41925355D01*
X33427957Y42017041D01*
X33519643Y42136528D01*
X33577279Y42275674D01*
X33596938Y42424996D01*
X33577279Y42574318D01*
X33519643Y42713464D01*
X33427957Y42832951D01*
X33332159Y42906460D01*
X33308469Y42924638D01*
X33169323Y42982274D01*
X33020002Y43001932D01*
X32870680Y42982274D01*
X32731534Y42924638D01*
X32612047Y42832951D01*
X32520360Y42713464D01*
X32462724Y42574318D01*
X32443066Y42424996D01*
X508500Y42424996D01*
X508500Y44901998D01*
X52750065Y44901998D01*
X52769723Y44752675D01*
X52827359Y44613529D01*
X52827360Y44613528D01*
X52919046Y44494041D01*
X53038533Y44402355D01*
X53177679Y44344719D01*
X53327001Y44325060D01*
X53476323Y44344719D01*
X53615469Y44402355D01*
X53734956Y44494041D01*
X53826642Y44613528D01*
X53884278Y44752674D01*
X53903937Y44901996D01*
X53884278Y45051318D01*
X53826642Y45190464D01*
X53734956Y45309951D01*
X53615469Y45401637D01*
X53615468Y45401638D01*
X53476322Y45459274D01*
X53327001Y45478932D01*
X53177679Y45459274D01*
X53038533Y45401638D01*
X52919046Y45309951D01*
X52827359Y45190464D01*
X52769723Y45051318D01*
X52750065Y44901998D01*
X508500Y44901998D01*
X508500Y46679998D01*
X52750068Y46679998D01*
X52769726Y46530677D01*
X52827362Y46391531D01*
X52827363Y46391530D01*
X52919049Y46272043D01*
X53038536Y46180357D01*
X53177682Y46122721D01*
X53327004Y46103062D01*
X53476326Y46122721D01*
X53615472Y46180357D01*
X53734959Y46272043D01*
X53826645Y46391530D01*
X53884281Y46530676D01*
X53903940Y46679998D01*
X53884281Y46829320D01*
X53826645Y46968466D01*
X53734959Y47087953D01*
X53615472Y47179639D01*
X53615471Y47179640D01*
X53476325Y47237276D01*
X53327004Y47256934D01*
X53177682Y47237276D01*
X53038536Y47179640D01*
X52919049Y47087953D01*
X52827362Y46968466D01*
X52769726Y46829320D01*
X52750068Y46679998D01*
X508500Y46679998D01*
X508500Y50108999D01*
X34983066Y50108999D01*
X35002724Y49959677D01*
X35060360Y49820531D01*
X35060361Y49820530D01*
X35152047Y49701043D01*
X35271534Y49609357D01*
X35410680Y49551721D01*
X35560002Y49532062D01*
X35709324Y49551721D01*
X35848470Y49609357D01*
X35967957Y49701043D01*
X36059643Y49820530D01*
X36117279Y49959676D01*
X36136938Y50108998D01*
X36117279Y50258320D01*
X36059643Y50397466D01*
X35967957Y50516953D01*
X35848470Y50608639D01*
X35848469Y50608640D01*
X35709323Y50666276D01*
X35560002Y50685934D01*
X35410680Y50666276D01*
X35271534Y50608640D01*
X35152047Y50516953D01*
X35060360Y50397466D01*
X35002724Y50258320D01*
X34983066Y50108999D01*
X508500Y50108999D01*
X508500Y51561998D01*
X33993066Y51561998D01*
X34012724Y51412677D01*
X34070360Y51273531D01*
X34070361Y51273530D01*
X34162047Y51154043D01*
X34281534Y51062357D01*
X34420680Y51004721D01*
X34570002Y50985062D01*
X34719324Y51004721D01*
X34858470Y51062357D01*
X34951831Y51133996D01*
X59057064Y51133996D01*
X59076722Y50984675D01*
X59134358Y50845529D01*
X59134359Y50845528D01*
X59226045Y50726041D01*
X59345532Y50634355D01*
X59484678Y50576719D01*
X59634000Y50557060D01*
X59783322Y50576719D01*
X59922468Y50634355D01*
X60041955Y50726041D01*
X60133641Y50845528D01*
X60191277Y50984674D01*
X60210936Y51133996D01*
X60191277Y51283318D01*
X60152090Y51377922D01*
X60142500Y51426139D01*
X60142500Y53410998D01*
X69908066Y53410998D01*
X69927724Y53261677D01*
X69985360Y53122531D01*
X69985361Y53122530D01*
X70077047Y53003043D01*
X70196534Y52911357D01*
X70335680Y52853721D01*
X70485002Y52834062D01*
X70634324Y52853721D01*
X70773470Y52911357D01*
X70892957Y53003043D01*
X70984643Y53122530D01*
X71042279Y53261676D01*
X71061938Y53410998D01*
X71042279Y53560320D01*
X70984643Y53699466D01*
X70892957Y53818953D01*
X70773470Y53910639D01*
X70773469Y53910640D01*
X70634323Y53968276D01*
X70485002Y53987934D01*
X70335680Y53968276D01*
X70196534Y53910640D01*
X70077047Y53818953D01*
X69985360Y53699466D01*
X69927724Y53560320D01*
X69908066Y53410998D01*
X60142500Y53410998D01*
X60142500Y58259855D01*
X60152091Y58308073D01*
X60191277Y58402677D01*
X60210936Y58552000D01*
X60191277Y58701320D01*
X60133641Y58840466D01*
X60092317Y58894320D01*
X60041955Y58959953D01*
X59922468Y59051639D01*
X59922467Y59051640D01*
X59783321Y59109276D01*
X59634000Y59128934D01*
X59484678Y59109276D01*
X59345532Y59051640D01*
X59226045Y58959953D01*
X59134358Y58840466D01*
X59076722Y58701320D01*
X59057064Y58552000D01*
X59076722Y58402677D01*
X59115909Y58308073D01*
X59125500Y58259855D01*
X59125500Y51426139D01*
X59115909Y51377921D01*
X59076722Y51283318D01*
X59057064Y51133996D01*
X34951831Y51133996D01*
X34977957Y51154043D01*
X35069643Y51273530D01*
X35127279Y51412676D01*
X35146938Y51561998D01*
X35127279Y51711320D01*
X35069643Y51850466D01*
X34977957Y51969953D01*
X34858470Y52061639D01*
X34858469Y52061640D01*
X34719323Y52119276D01*
X34570002Y52138934D01*
X34420680Y52119276D01*
X34281534Y52061640D01*
X34162047Y51969953D01*
X34070360Y51850466D01*
X34012724Y51711320D01*
X33993066Y51561998D01*
X508500Y51561998D01*
X508500Y52587997D01*
X55755064Y52587997D01*
X55774722Y52438676D01*
X55832358Y52299530D01*
X55832359Y52299529D01*
X55924045Y52180042D01*
X56043532Y52088356D01*
X56182678Y52030720D01*
X56332000Y52011061D01*
X56481322Y52030720D01*
X56620468Y52088356D01*
X56739955Y52180042D01*
X56831641Y52299529D01*
X56889277Y52438675D01*
X56908936Y52587997D01*
X56889277Y52737319D01*
X56831641Y52876465D01*
X56831640Y52876466D01*
X56831640Y52876467D01*
X56743914Y52990793D01*
X56720863Y53040226D01*
X56720863Y53094769D01*
X56743914Y53144201D01*
X56831641Y53258528D01*
X56889277Y53397674D01*
X56908936Y53546996D01*
X56889277Y53696318D01*
X56831641Y53835464D01*
X56739955Y53954951D01*
X56620468Y54046637D01*
X56620467Y54046638D01*
X56481321Y54104274D01*
X56332000Y54123932D01*
X56182678Y54104274D01*
X56043532Y54046638D01*
X55924045Y53954951D01*
X55832358Y53835464D01*
X55774722Y53696318D01*
X55755064Y53546997D01*
X55774722Y53397675D01*
X55832359Y53258527D01*
X55920085Y53144201D01*
X55943136Y53094769D01*
X55943136Y53040226D01*
X55920086Y52990793D01*
X55832358Y52876465D01*
X55774722Y52737319D01*
X55755064Y52587997D01*
X508500Y52587997D01*
X508500Y53892061D01*
X5529694Y53892061D01*
X5548162Y53692762D01*
X5602937Y53500247D01*
X5692152Y53321079D01*
X5703298Y53306320D01*
X5812773Y53161352D01*
X5960688Y53026509D01*
X6083561Y52950430D01*
X6125669Y52924357D01*
X6130862Y52921142D01*
X6317500Y52848838D01*
X6514245Y52812060D01*
X6714397Y52812060D01*
X6714399Y52812060D01*
X6911144Y52848838D01*
X7097782Y52921142D01*
X7267956Y53026509D01*
X7415871Y53161352D01*
X7536490Y53321077D01*
X7625707Y53500248D01*
X7680481Y53692760D01*
X7698949Y53892060D01*
X7680481Y54091360D01*
X7625707Y54283872D01*
X7624980Y54285331D01*
X7536491Y54463042D01*
X7506959Y54502148D01*
X7415871Y54622768D01*
X7267956Y54757611D01*
X7220655Y54786899D01*
X7097783Y54862978D01*
X6911144Y54935282D01*
X6714399Y54972060D01*
X6514245Y54972060D01*
X6383081Y54947542D01*
X6317499Y54935282D01*
X6130860Y54862978D01*
X5960689Y54757612D01*
X5812772Y54622767D01*
X5692152Y54463042D01*
X5602937Y54283874D01*
X5548162Y54091359D01*
X5529694Y53892061D01*
X508500Y53892061D01*
X508500Y56392060D01*
X5529694Y56392060D01*
X5548162Y56192762D01*
X5602937Y56000247D01*
X5692152Y55821079D01*
X5692154Y55821077D01*
X5812773Y55661352D01*
X5960688Y55526509D01*
X6130862Y55421142D01*
X6317500Y55348838D01*
X6514245Y55312060D01*
X6714397Y55312060D01*
X6714399Y55312060D01*
X6911144Y55348838D01*
X7097782Y55421142D01*
X7267956Y55526509D01*
X7415871Y55661352D01*
X7449585Y55705996D01*
X55755064Y55705996D01*
X55774722Y55556675D01*
X55832358Y55417529D01*
X55832359Y55417528D01*
X55924045Y55298041D01*
X56043532Y55206355D01*
X56182678Y55148719D01*
X56332000Y55129060D01*
X56481322Y55148719D01*
X56620468Y55206355D01*
X56739955Y55298041D01*
X56831641Y55417528D01*
X56889277Y55556674D01*
X56908936Y55705996D01*
X56889277Y55855318D01*
X56831641Y55994464D01*
X56739955Y56113951D01*
X56648267Y56184306D01*
X56620467Y56205638D01*
X56481321Y56263274D01*
X56332000Y56282932D01*
X56182678Y56263274D01*
X56043532Y56205638D01*
X55924045Y56113951D01*
X55832358Y55994464D01*
X55774722Y55855318D01*
X55755064Y55705996D01*
X7449585Y55705996D01*
X7536490Y55821077D01*
X7625707Y56000248D01*
X7680481Y56192760D01*
X7698949Y56392060D01*
X7680481Y56591360D01*
X7625707Y56783872D01*
X7589117Y56857355D01*
X7536491Y56963042D01*
X7456830Y57068529D01*
X7415871Y57122768D01*
X7267956Y57257611D01*
X7215752Y57289934D01*
X7107444Y57356996D01*
X52707064Y57356996D01*
X52726722Y57207675D01*
X52784358Y57068529D01*
X52784359Y57068528D01*
X52876045Y56949041D01*
X52995532Y56857355D01*
X53134678Y56799719D01*
X53284000Y56780060D01*
X53433322Y56799719D01*
X53572468Y56857355D01*
X53691955Y56949041D01*
X53783641Y57068528D01*
X53841277Y57207674D01*
X53860936Y57356996D01*
X53841277Y57506318D01*
X53783641Y57645464D01*
X53691955Y57764951D01*
X53581037Y57850062D01*
X53572467Y57856638D01*
X53433321Y57914274D01*
X53284000Y57933932D01*
X53134678Y57914274D01*
X52995532Y57856638D01*
X52876045Y57764951D01*
X52784358Y57645464D01*
X52726722Y57506318D01*
X52707064Y57356996D01*
X7107444Y57356996D01*
X7097783Y57362978D01*
X6911144Y57435282D01*
X6911143Y57435283D01*
X6714399Y57472060D01*
X6514245Y57472060D01*
X6383081Y57447542D01*
X6317499Y57435282D01*
X6130860Y57362978D01*
X5960689Y57257612D01*
X5812772Y57122767D01*
X5692152Y56963042D01*
X5602937Y56783874D01*
X5548162Y56591359D01*
X5529694Y56392060D01*
X508500Y56392060D01*
X508500Y59887998D01*
X30157066Y59887998D01*
X30176724Y59738677D01*
X30234360Y59599531D01*
X30234361Y59599530D01*
X30326047Y59480043D01*
X30445534Y59388357D01*
X30584680Y59330721D01*
X30734002Y59311062D01*
X30883324Y59330721D01*
X31022470Y59388357D01*
X31141957Y59480043D01*
X31233643Y59599530D01*
X31291279Y59738676D01*
X31310938Y59887998D01*
X31291279Y60037320D01*
X31233643Y60176466D01*
X31141957Y60295953D01*
X31022470Y60387639D01*
X31022469Y60387640D01*
X30883323Y60445276D01*
X30734002Y60464934D01*
X30584680Y60445276D01*
X30445534Y60387640D01*
X30326047Y60295953D01*
X30234360Y60176466D01*
X30176724Y60037320D01*
X30157066Y59887998D01*
X508500Y59887998D01*
X508500Y62554999D01*
X131694068Y62554999D01*
X131713726Y62405677D01*
X131771362Y62266531D01*
X131771363Y62266530D01*
X131863049Y62147043D01*
X131982536Y62055357D01*
X132121682Y61997721D01*
X132271004Y61978062D01*
X132420326Y61997721D01*
X132559472Y62055357D01*
X132678959Y62147043D01*
X132770645Y62266530D01*
X132828281Y62405676D01*
X132847940Y62554998D01*
X132828281Y62704320D01*
X132770645Y62843466D01*
X132678959Y62962953D01*
X132559472Y63054639D01*
X132559471Y63054640D01*
X132420325Y63112276D01*
X132271004Y63131934D01*
X132121682Y63112276D01*
X131982536Y63054640D01*
X131863049Y62962953D01*
X131771362Y62843466D01*
X131713726Y62704320D01*
X131694068Y62554999D01*
X508500Y62554999D01*
X508500Y64205999D01*
X125534066Y64205999D01*
X125553724Y64056677D01*
X125611360Y63917531D01*
X125611361Y63917530D01*
X125703047Y63798043D01*
X125822534Y63706357D01*
X125961680Y63648721D01*
X126111002Y63629062D01*
X126260324Y63648721D01*
X126399470Y63706357D01*
X126518957Y63798043D01*
X126610643Y63917530D01*
X126668279Y64056676D01*
X126687938Y64205998D01*
X126687938Y64205999D01*
X127071068Y64205999D01*
X127090726Y64056677D01*
X127148362Y63917531D01*
X127148363Y63917530D01*
X127240049Y63798043D01*
X127359536Y63706357D01*
X127498682Y63648721D01*
X127648004Y63629062D01*
X127797326Y63648721D01*
X127936472Y63706357D01*
X128055959Y63798043D01*
X128147645Y63917530D01*
X128205281Y64056676D01*
X128224940Y64205998D01*
X128205281Y64355320D01*
X128147645Y64494466D01*
X128055959Y64613953D01*
X127936472Y64705639D01*
X127936471Y64705640D01*
X127797325Y64763276D01*
X127648004Y64782934D01*
X127498682Y64763276D01*
X127359536Y64705640D01*
X127240049Y64613953D01*
X127148362Y64494466D01*
X127090726Y64355320D01*
X127071068Y64205999D01*
X126687938Y64205999D01*
X126668279Y64355320D01*
X126610643Y64494466D01*
X126518957Y64613953D01*
X126399470Y64705639D01*
X126399469Y64705640D01*
X126260323Y64763276D01*
X126111002Y64782934D01*
X125961680Y64763276D01*
X125822534Y64705640D01*
X125703047Y64613953D01*
X125611360Y64494466D01*
X125553724Y64355320D01*
X125534066Y64205999D01*
X508500Y64205999D01*
X508500Y66430199D01*
X1753294Y66430199D01*
X1772092Y66167381D01*
X1828098Y65909927D01*
X1828100Y65909922D01*
X1920178Y65663050D01*
X2028231Y65465165D01*
X2046454Y65431793D01*
X2204354Y65220862D01*
X2390662Y65034554D01*
X2479568Y64968000D01*
X2601596Y64876652D01*
X2832851Y64750377D01*
X3079723Y64658299D01*
X3079726Y64658299D01*
X3079727Y64658298D01*
X3283577Y64613953D01*
X3337186Y64602291D01*
X3600000Y64583494D01*
X3862814Y64602291D01*
X4120277Y64658299D01*
X4367149Y64750377D01*
X4598404Y64876652D01*
X4809335Y65034552D01*
X4995647Y65220864D01*
X5153547Y65431795D01*
X5279822Y65663050D01*
X5304792Y65729998D01*
X38412065Y65729998D01*
X38431723Y65580676D01*
X38489359Y65441530D01*
X38489360Y65441529D01*
X38581046Y65322042D01*
X38700532Y65230357D01*
X38700533Y65230356D01*
X38852143Y65167557D01*
X38896822Y65136273D01*
X38924093Y65089038D01*
X38928847Y65034703D01*
X38920065Y64968000D01*
X38939724Y64818677D01*
X38997360Y64679531D01*
X38997361Y64679530D01*
X39089047Y64560043D01*
X39208534Y64468357D01*
X39347680Y64410721D01*
X39497002Y64391062D01*
X39646324Y64410721D01*
X39785470Y64468357D01*
X39904957Y64560043D01*
X39996643Y64679530D01*
X40054279Y64818676D01*
X40073938Y64967998D01*
X40065155Y65034703D01*
X40069910Y65089038D01*
X40097181Y65136274D01*
X40141861Y65167558D01*
X40154322Y65172720D01*
X40154324Y65172720D01*
X40241531Y65208843D01*
X40293468Y65230355D01*
X40293468Y65230356D01*
X40293470Y65230356D01*
X40412957Y65322042D01*
X40504643Y65441529D01*
X40562279Y65580675D01*
X40581938Y65729997D01*
X40562279Y65879319D01*
X40504643Y66018465D01*
X40412957Y66137952D01*
X40293470Y66229638D01*
X40293469Y66229639D01*
X40154323Y66287275D01*
X40005002Y66306933D01*
X39855680Y66287275D01*
X39716534Y66229639D01*
X39597042Y66137949D01*
X39596959Y66137839D01*
X39552725Y66101540D01*
X39496998Y66088548D01*
X39441272Y66101543D01*
X39397039Y66137844D01*
X39396957Y66137951D01*
X39358603Y66167381D01*
X39337212Y66183795D01*
X39277468Y66229639D01*
X39138322Y66287275D01*
X38989001Y66306933D01*
X38839679Y66287275D01*
X38700533Y66229639D01*
X38581046Y66137952D01*
X38489359Y66018465D01*
X38431723Y65879319D01*
X38412065Y65729998D01*
X5304792Y65729998D01*
X5371900Y65909922D01*
X5427908Y66167385D01*
X5446705Y66430199D01*
X5427908Y66693013D01*
X5421238Y66723676D01*
X5371901Y66950472D01*
X5371900Y66950476D01*
X5279822Y67197348D01*
X5179541Y67380998D01*
X76004066Y67380998D01*
X76023724Y67231677D01*
X76081360Y67092531D01*
X76081361Y67092530D01*
X76173047Y66973043D01*
X76269981Y66898663D01*
X76292535Y66881356D01*
X76389589Y66841156D01*
X76431680Y66823721D01*
X76444143Y66818559D01*
X76488823Y66787275D01*
X76516094Y66740039D01*
X76520848Y66685704D01*
X76512066Y66618999D01*
X76531724Y66469677D01*
X76589360Y66330531D01*
X76589361Y66330530D01*
X76681047Y66211043D01*
X76800534Y66119357D01*
X76939680Y66061721D01*
X77089002Y66042062D01*
X77238324Y66061721D01*
X77377470Y66119357D01*
X77496957Y66211043D01*
X77588643Y66330530D01*
X77646279Y66469676D01*
X77665938Y66618998D01*
X77657155Y66685707D01*
X77661909Y66740038D01*
X77689180Y66787275D01*
X77733860Y66818559D01*
X77746321Y66823721D01*
X77746324Y66823721D01*
X77885470Y66881357D01*
X78004957Y66973043D01*
X78096643Y67092530D01*
X78154279Y67231676D01*
X78173938Y67380998D01*
X78154279Y67530320D01*
X78110920Y67634998D01*
X122740066Y67634998D01*
X122759724Y67485677D01*
X122817360Y67346531D01*
X122818155Y67345495D01*
X122909047Y67227043D01*
X123028534Y67135357D01*
X123167680Y67077721D01*
X123317002Y67058062D01*
X123466324Y67077721D01*
X123605470Y67135357D01*
X123724957Y67227043D01*
X123816643Y67346530D01*
X123874279Y67485676D01*
X123893938Y67634998D01*
X123874279Y67784320D01*
X123830920Y67888998D01*
X134995068Y67888998D01*
X135014726Y67739677D01*
X135072362Y67600531D01*
X135072363Y67600530D01*
X135164049Y67481043D01*
X135283536Y67389357D01*
X135422682Y67331721D01*
X135572004Y67312062D01*
X135721326Y67331721D01*
X135860472Y67389357D01*
X135979959Y67481043D01*
X136071645Y67600530D01*
X136129281Y67739676D01*
X136148940Y67888998D01*
X136129281Y68038320D01*
X136071645Y68177466D01*
X135979959Y68296953D01*
X135860472Y68388639D01*
X135860471Y68388640D01*
X135721325Y68446276D01*
X135572004Y68465934D01*
X135422682Y68446276D01*
X135283536Y68388640D01*
X135164049Y68296953D01*
X135072362Y68177466D01*
X135014726Y68038320D01*
X134995068Y67888998D01*
X123830920Y67888998D01*
X123816643Y67923466D01*
X123724957Y68042953D01*
X123605470Y68134639D01*
X123605469Y68134640D01*
X123466323Y68192276D01*
X123317002Y68211934D01*
X123167680Y68192276D01*
X123028534Y68134640D01*
X122909047Y68042953D01*
X122817360Y67923466D01*
X122759724Y67784320D01*
X122740066Y67634998D01*
X78110920Y67634998D01*
X78096643Y67669466D01*
X78004957Y67788953D01*
X77885470Y67880639D01*
X77885469Y67880640D01*
X77746323Y67938276D01*
X77616660Y67955346D01*
X77597002Y67957934D01*
X77597001Y67957934D01*
X77447680Y67938276D01*
X77308534Y67880640D01*
X77189045Y67788952D01*
X77188964Y67788845D01*
X77144730Y67752543D01*
X77089002Y67739549D01*
X77033274Y67752543D01*
X76989040Y67788845D01*
X76988958Y67788952D01*
X76869469Y67880640D01*
X76730323Y67938276D01*
X76600660Y67955346D01*
X76581002Y67957934D01*
X76581001Y67957934D01*
X76431680Y67938276D01*
X76292534Y67880640D01*
X76173047Y67788953D01*
X76081360Y67669466D01*
X76023724Y67530320D01*
X76004066Y67380998D01*
X5179541Y67380998D01*
X5153547Y67428603D01*
X5152295Y67430275D01*
X4995645Y67639537D01*
X4809337Y67825845D01*
X4598406Y67983745D01*
X4498459Y68038320D01*
X4367149Y68110021D01*
X4185919Y68177616D01*
X4120272Y68202101D01*
X3862818Y68258107D01*
X3600000Y68276905D01*
X3337181Y68258107D01*
X3079727Y68202101D01*
X2832851Y68110021D01*
X2601593Y67983745D01*
X2390662Y67825845D01*
X2204354Y67639537D01*
X2046454Y67428606D01*
X1920178Y67197348D01*
X1828098Y66950472D01*
X1772092Y66693018D01*
X1753294Y66430199D01*
X508500Y66430199D01*
X508500Y68584999D01*
X6769600Y68584999D01*
X6789154Y68373983D01*
X6847148Y68170153D01*
X6941612Y67980443D01*
X7016981Y67880639D01*
X7069323Y67811328D01*
X7225935Y67668557D01*
X7335802Y67600530D01*
X7395702Y67563441D01*
X7406115Y67556994D01*
X7603726Y67480439D01*
X7812039Y67441499D01*
X8023959Y67441499D01*
X8023961Y67441499D01*
X8232274Y67480439D01*
X8429885Y67556994D01*
X8610065Y67668557D01*
X8766677Y67811328D01*
X8894389Y67980445D01*
X8988850Y68170149D01*
X9046845Y68373981D01*
X9066399Y68584999D01*
X9769600Y68584999D01*
X9789154Y68373983D01*
X9847148Y68170153D01*
X9941612Y67980443D01*
X10016981Y67880639D01*
X10069323Y67811328D01*
X10225935Y67668557D01*
X10335802Y67600530D01*
X10395702Y67563441D01*
X10406115Y67556994D01*
X10603726Y67480439D01*
X10812039Y67441499D01*
X11023959Y67441499D01*
X11023961Y67441499D01*
X11232274Y67480439D01*
X11429885Y67556994D01*
X11610065Y67668557D01*
X11766677Y67811328D01*
X11894389Y67980445D01*
X11988850Y68170149D01*
X12046845Y68373981D01*
X12066399Y68584999D01*
X12046845Y68796017D01*
X11988850Y68999849D01*
X11894389Y69189553D01*
X11821557Y69285998D01*
X27554064Y69285998D01*
X27573722Y69136677D01*
X27631358Y68997531D01*
X27631359Y68997530D01*
X27723045Y68878043D01*
X27842532Y68786357D01*
X27981678Y68728721D01*
X28131000Y68709062D01*
X28280322Y68728721D01*
X28419468Y68786357D01*
X28538955Y68878043D01*
X28630641Y68997530D01*
X28688277Y69136676D01*
X28707936Y69285998D01*
X29268066Y69285998D01*
X29287724Y69136677D01*
X29345360Y68997531D01*
X29345361Y68997530D01*
X29437047Y68878043D01*
X29556534Y68786357D01*
X29695680Y68728721D01*
X29845002Y68709062D01*
X29994324Y68728721D01*
X30133470Y68786357D01*
X30252957Y68878043D01*
X30344643Y68997530D01*
X30402279Y69136676D01*
X30421938Y69285998D01*
X30402279Y69435320D01*
X30344643Y69574466D01*
X30252957Y69693953D01*
X30133470Y69785639D01*
X30133469Y69785640D01*
X29994323Y69843276D01*
X29845002Y69862934D01*
X29695680Y69843276D01*
X29556534Y69785640D01*
X29437047Y69693953D01*
X29345360Y69574466D01*
X29287724Y69435320D01*
X29268066Y69285998D01*
X28707936Y69285998D01*
X28688277Y69435320D01*
X28630641Y69574466D01*
X28538955Y69693953D01*
X28419468Y69785639D01*
X28419467Y69785640D01*
X28280321Y69843276D01*
X28131000Y69862934D01*
X27981678Y69843276D01*
X27842532Y69785640D01*
X27723045Y69693953D01*
X27631358Y69574466D01*
X27573722Y69435320D01*
X27554064Y69285998D01*
X11821557Y69285998D01*
X11766677Y69358670D01*
X11610065Y69501441D01*
X11492126Y69574466D01*
X11429886Y69613004D01*
X11331079Y69651282D01*
X11232274Y69689559D01*
X11023961Y69728499D01*
X10812039Y69728499D01*
X10627232Y69693953D01*
X10603726Y69689559D01*
X10406113Y69613004D01*
X10225936Y69501442D01*
X10069321Y69358669D01*
X9941612Y69189556D01*
X9847148Y68999846D01*
X9789154Y68796016D01*
X9769600Y68584999D01*
X9066399Y68584999D01*
X9046845Y68796017D01*
X8988850Y68999849D01*
X8894389Y69189553D01*
X8766677Y69358670D01*
X8610065Y69501441D01*
X8492126Y69574466D01*
X8429886Y69613004D01*
X8331079Y69651282D01*
X8232274Y69689559D01*
X8023961Y69728499D01*
X7812039Y69728499D01*
X7627232Y69693953D01*
X7603726Y69689559D01*
X7406113Y69613004D01*
X7225936Y69501442D01*
X7069321Y69358669D01*
X6941612Y69189556D01*
X6847148Y68999846D01*
X6789154Y68796016D01*
X6769600Y68584999D01*
X508500Y68584999D01*
X508500Y70436117D01*
X41460066Y70436117D01*
X41479724Y70286796D01*
X41537360Y70147650D01*
X41558692Y70119849D01*
X41629047Y70028162D01*
X41748534Y69936476D01*
X41887680Y69878840D01*
X42037002Y69859181D01*
X42186324Y69878840D01*
X42325470Y69936476D01*
X42444957Y70028162D01*
X42536643Y70147649D01*
X42594279Y70286795D01*
X42613938Y70436117D01*
X43492066Y70436117D01*
X43511724Y70286796D01*
X43569360Y70147650D01*
X43590692Y70119849D01*
X43661047Y70028162D01*
X43780534Y69936476D01*
X43919680Y69878840D01*
X44069002Y69859181D01*
X44218324Y69878840D01*
X44357470Y69936476D01*
X44476957Y70028162D01*
X44568643Y70147649D01*
X44626279Y70286795D01*
X44645938Y70436117D01*
X47429066Y70436117D01*
X47448724Y70286796D01*
X47506360Y70147650D01*
X47527692Y70119849D01*
X47598047Y70028162D01*
X47717534Y69936476D01*
X47856680Y69878840D01*
X48006002Y69859181D01*
X48155324Y69878840D01*
X48294470Y69936476D01*
X48413957Y70028162D01*
X48505643Y70147649D01*
X48563279Y70286795D01*
X48579580Y70410613D01*
X48589498Y70436118D01*
X48819505Y70436118D01*
X48829423Y70410613D01*
X48831647Y70393723D01*
X48845724Y70286796D01*
X48903360Y70147650D01*
X48924692Y70119849D01*
X48995047Y70028162D01*
X49114534Y69936476D01*
X49253680Y69878840D01*
X49403002Y69859181D01*
X49552324Y69878840D01*
X49691470Y69936476D01*
X49810957Y70028162D01*
X49902643Y70147649D01*
X49921592Y70193398D01*
X49956171Y70240991D01*
X50008588Y70267699D01*
X50067416Y70267699D01*
X50119833Y70240991D01*
X50154411Y70193398D01*
X50173360Y70147650D01*
X50194692Y70119849D01*
X50265047Y70028162D01*
X50384534Y69936476D01*
X50523680Y69878840D01*
X50673002Y69859181D01*
X50822324Y69878840D01*
X50961470Y69936476D01*
X51080957Y70028162D01*
X51172643Y70147649D01*
X51230279Y70286795D01*
X51246580Y70410613D01*
X51256498Y70436118D01*
X51486505Y70436118D01*
X51496423Y70410613D01*
X51498647Y70393723D01*
X51512724Y70286796D01*
X51570360Y70147650D01*
X51591692Y70119849D01*
X51662047Y70028162D01*
X51781534Y69936476D01*
X51920680Y69878840D01*
X52070002Y69859181D01*
X52219324Y69878840D01*
X52358470Y69936476D01*
X52477957Y70028162D01*
X52569643Y70147649D01*
X52588592Y70193398D01*
X52623171Y70240991D01*
X52675588Y70267699D01*
X52734416Y70267699D01*
X52786833Y70240991D01*
X52821411Y70193398D01*
X52840360Y70147650D01*
X52861692Y70119849D01*
X52932047Y70028162D01*
X53051534Y69936476D01*
X53190680Y69878840D01*
X53340002Y69859181D01*
X53489324Y69878840D01*
X53628470Y69936476D01*
X53747957Y70028162D01*
X53839643Y70147649D01*
X53858592Y70193398D01*
X53893171Y70240991D01*
X53945588Y70267699D01*
X54004416Y70267699D01*
X54056833Y70240991D01*
X54091411Y70193398D01*
X54110360Y70147650D01*
X54131692Y70119849D01*
X54202047Y70028162D01*
X54321534Y69936476D01*
X54460680Y69878840D01*
X54610002Y69859181D01*
X54759324Y69878840D01*
X54898470Y69936476D01*
X55017957Y70028162D01*
X55109643Y70147649D01*
X55167279Y70286795D01*
X55183580Y70410613D01*
X55193498Y70436118D01*
X55423505Y70436118D01*
X55433423Y70410613D01*
X55435647Y70393723D01*
X55449724Y70286796D01*
X55507360Y70147650D01*
X55528692Y70119849D01*
X55599047Y70028162D01*
X55718534Y69936476D01*
X55857680Y69878840D01*
X56007002Y69859181D01*
X56156324Y69878840D01*
X56295470Y69936476D01*
X56414957Y70028162D01*
X56506643Y70147649D01*
X56564279Y70286795D01*
X56580580Y70410613D01*
X56590498Y70436118D01*
X56820505Y70436118D01*
X56830423Y70410613D01*
X56832647Y70393723D01*
X56846724Y70286796D01*
X56904360Y70147650D01*
X56925692Y70119849D01*
X56996047Y70028162D01*
X57115534Y69936476D01*
X57254680Y69878840D01*
X57404002Y69859181D01*
X57553324Y69878840D01*
X57692470Y69936476D01*
X57811957Y70028162D01*
X57903643Y70147649D01*
X57922592Y70193398D01*
X57957171Y70240991D01*
X58009588Y70267699D01*
X58068416Y70267699D01*
X58120833Y70240991D01*
X58155411Y70193398D01*
X58174360Y70147650D01*
X58195692Y70119849D01*
X58266047Y70028162D01*
X58385534Y69936476D01*
X58524680Y69878840D01*
X58674002Y69859181D01*
X58823324Y69878840D01*
X58962470Y69936476D01*
X59081957Y70028162D01*
X59173643Y70147649D01*
X59192592Y70193398D01*
X59227171Y70240991D01*
X59279588Y70267699D01*
X59338416Y70267699D01*
X59390833Y70240991D01*
X59425411Y70193398D01*
X59444360Y70147650D01*
X59465692Y70119849D01*
X59536047Y70028162D01*
X59655534Y69936476D01*
X59794680Y69878840D01*
X59944002Y69859181D01*
X60093324Y69878840D01*
X60232470Y69936476D01*
X60351957Y70028162D01*
X60443643Y70147649D01*
X60501279Y70286795D01*
X60517111Y70407056D01*
X60526560Y70431353D01*
X60757505Y70431353D01*
X60766955Y70407053D01*
X60783724Y70279677D01*
X60841360Y70140531D01*
X60841361Y70140530D01*
X60933047Y70021043D01*
X61052534Y69929357D01*
X61191680Y69871721D01*
X61341002Y69852062D01*
X61490324Y69871721D01*
X61629470Y69929357D01*
X61748957Y70021043D01*
X61840643Y70140530D01*
X61898279Y70279676D01*
X61915049Y70407057D01*
X61924497Y70431354D01*
X61923560Y70433763D01*
X62154505Y70433763D01*
X62164892Y70407054D01*
X62180724Y70286796D01*
X62238360Y70147650D01*
X62259692Y70119849D01*
X62330047Y70028162D01*
X62449534Y69936476D01*
X62588680Y69878840D01*
X62738002Y69859181D01*
X62887324Y69878840D01*
X63026470Y69936476D01*
X63145957Y70028162D01*
X63161178Y70047998D01*
X108072064Y70047998D01*
X108091722Y69898677D01*
X108149358Y69759531D01*
X108149359Y69759530D01*
X108241045Y69640043D01*
X108360532Y69548357D01*
X108499678Y69490721D01*
X108649000Y69471062D01*
X108798322Y69490721D01*
X108937468Y69548357D01*
X109056955Y69640043D01*
X109148641Y69759530D01*
X109206277Y69898676D01*
X109225936Y70047998D01*
X109209216Y70174998D01*
X145473066Y70174998D01*
X145492724Y70025677D01*
X145550360Y69886531D01*
X145550361Y69886530D01*
X145642047Y69767043D01*
X145761534Y69675357D01*
X145900680Y69617721D01*
X146050002Y69598062D01*
X146199324Y69617721D01*
X146338470Y69675357D01*
X146457957Y69767043D01*
X146458040Y69767152D01*
X146502272Y69803453D01*
X146558002Y69816448D01*
X146613732Y69803453D01*
X146657963Y69767152D01*
X146658047Y69767043D01*
X146777534Y69675357D01*
X146916680Y69617721D01*
X147066002Y69598062D01*
X147215324Y69617721D01*
X147354470Y69675357D01*
X147473957Y69767043D01*
X147565643Y69886530D01*
X147623279Y70025676D01*
X147642938Y70174998D01*
X147623279Y70324320D01*
X147565643Y70463466D01*
X147473957Y70582953D01*
X147354470Y70674639D01*
X147354469Y70674640D01*
X147215323Y70732276D01*
X147085659Y70749346D01*
X147066002Y70751934D01*
X147066001Y70751934D01*
X146962937Y70738366D01*
X146898273Y70746879D01*
X146846529Y70786584D01*
X146821570Y70846842D01*
X146830083Y70911506D01*
X146869785Y70963248D01*
X146965957Y71037043D01*
X147057643Y71156530D01*
X147115279Y71295676D01*
X147134938Y71444998D01*
X147115279Y71594320D01*
X147057643Y71733466D01*
X146965957Y71852953D01*
X146846470Y71944639D01*
X146846469Y71944640D01*
X146707323Y72002276D01*
X146558002Y72021934D01*
X146408680Y72002276D01*
X146269534Y71944640D01*
X146150047Y71852953D01*
X146058360Y71733466D01*
X146000724Y71594320D01*
X145981066Y71444999D01*
X146000724Y71295677D01*
X146058360Y71156531D01*
X146084809Y71122062D01*
X146150045Y71037045D01*
X146150048Y71037042D01*
X146246215Y70963250D01*
X146285920Y70911506D01*
X146294433Y70846842D01*
X146269474Y70786584D01*
X146217730Y70746879D01*
X146153065Y70738366D01*
X146050002Y70751934D01*
X145900680Y70732276D01*
X145761534Y70674640D01*
X145642047Y70582953D01*
X145550360Y70463466D01*
X145492724Y70324320D01*
X145473066Y70174998D01*
X109209216Y70174998D01*
X109206277Y70197320D01*
X109148641Y70336466D01*
X109056955Y70455953D01*
X108955830Y70533549D01*
X108937467Y70547640D01*
X108798321Y70605276D01*
X108649000Y70624934D01*
X108499678Y70605276D01*
X108360532Y70547640D01*
X108241045Y70455953D01*
X108149358Y70336466D01*
X108091722Y70197320D01*
X108072064Y70047998D01*
X63161178Y70047998D01*
X63237643Y70147649D01*
X63295279Y70286795D01*
X63314938Y70436117D01*
X63295279Y70585439D01*
X63237643Y70724585D01*
X63145957Y70844072D01*
X63035748Y70928639D01*
X63026469Y70935759D01*
X62887323Y70993395D01*
X62757659Y71010465D01*
X62738002Y71013053D01*
X62738001Y71013053D01*
X62588680Y70993395D01*
X62449534Y70935759D01*
X62330047Y70844072D01*
X62238360Y70724585D01*
X62180724Y70585440D01*
X62163955Y70458062D01*
X62154505Y70433763D01*
X61923560Y70433763D01*
X61914111Y70458062D01*
X61898279Y70578320D01*
X61840643Y70717466D01*
X61748957Y70836953D01*
X61629470Y70928639D01*
X61629469Y70928640D01*
X61490323Y70986276D01*
X61360659Y71003346D01*
X61341002Y71005934D01*
X61341001Y71005934D01*
X61191680Y70986276D01*
X61052534Y70928640D01*
X60933047Y70836953D01*
X60841360Y70717466D01*
X60783724Y70578320D01*
X60767892Y70458062D01*
X60757505Y70431353D01*
X60526560Y70431353D01*
X60527497Y70433763D01*
X60518049Y70458061D01*
X60501279Y70585439D01*
X60443643Y70724585D01*
X60351957Y70844072D01*
X60241748Y70928639D01*
X60232469Y70935759D01*
X60093323Y70993395D01*
X59963659Y71010465D01*
X59944002Y71013053D01*
X59944001Y71013053D01*
X59794680Y70993395D01*
X59655534Y70935759D01*
X59536047Y70844072D01*
X59444361Y70724586D01*
X59425411Y70678836D01*
X59390832Y70631244D01*
X59338416Y70604536D01*
X59279588Y70604536D01*
X59227172Y70631244D01*
X59192593Y70678836D01*
X59180309Y70708492D01*
X59173643Y70724585D01*
X59081957Y70844072D01*
X58971748Y70928639D01*
X58962469Y70935759D01*
X58823323Y70993395D01*
X58693659Y71010465D01*
X58674002Y71013053D01*
X58674001Y71013053D01*
X58524680Y70993395D01*
X58385534Y70935759D01*
X58266047Y70844072D01*
X58174361Y70724586D01*
X58155411Y70678836D01*
X58120832Y70631244D01*
X58068416Y70604536D01*
X58009588Y70604536D01*
X57957172Y70631244D01*
X57922593Y70678836D01*
X57910309Y70708492D01*
X57903643Y70724585D01*
X57811957Y70844072D01*
X57701748Y70928639D01*
X57692469Y70935759D01*
X57553323Y70993395D01*
X57423659Y71010465D01*
X57404002Y71013053D01*
X57404001Y71013053D01*
X57254680Y70993395D01*
X57115534Y70935759D01*
X56996047Y70844072D01*
X56904360Y70724585D01*
X56846724Y70585439D01*
X56830424Y70461623D01*
X56820505Y70436118D01*
X56590498Y70436118D01*
X56580580Y70461623D01*
X56564279Y70585439D01*
X56506643Y70724585D01*
X56461786Y70783043D01*
X56414957Y70844072D01*
X56304748Y70928639D01*
X56295469Y70935759D01*
X56156323Y70993395D01*
X56026659Y71010465D01*
X56007002Y71013053D01*
X56007001Y71013053D01*
X55857680Y70993395D01*
X55718534Y70935759D01*
X55599047Y70844072D01*
X55507360Y70724585D01*
X55449724Y70585439D01*
X55433424Y70461623D01*
X55423505Y70436118D01*
X55193498Y70436118D01*
X55183580Y70461623D01*
X55167279Y70585439D01*
X55109643Y70724585D01*
X55064786Y70783043D01*
X55017957Y70844072D01*
X54907748Y70928639D01*
X54898469Y70935759D01*
X54759323Y70993395D01*
X54629659Y71010465D01*
X54610002Y71013053D01*
X54610001Y71013053D01*
X54460680Y70993395D01*
X54321534Y70935759D01*
X54202047Y70844072D01*
X54110361Y70724586D01*
X54091411Y70678836D01*
X54056832Y70631244D01*
X54004416Y70604536D01*
X53945588Y70604536D01*
X53893172Y70631244D01*
X53858593Y70678836D01*
X53846309Y70708492D01*
X53839643Y70724585D01*
X53747957Y70844072D01*
X53637748Y70928639D01*
X53628469Y70935759D01*
X53489323Y70993395D01*
X53359659Y71010465D01*
X53340002Y71013053D01*
X53340001Y71013053D01*
X53190680Y70993395D01*
X53051534Y70935759D01*
X52932047Y70844072D01*
X52840361Y70724586D01*
X52821411Y70678836D01*
X52786832Y70631244D01*
X52734416Y70604536D01*
X52675588Y70604536D01*
X52623172Y70631244D01*
X52588593Y70678836D01*
X52576309Y70708492D01*
X52569643Y70724585D01*
X52477957Y70844072D01*
X52367748Y70928639D01*
X52358469Y70935759D01*
X52219323Y70993395D01*
X52089659Y71010465D01*
X52070002Y71013053D01*
X52070001Y71013053D01*
X51920680Y70993395D01*
X51781534Y70935759D01*
X51662047Y70844072D01*
X51570360Y70724585D01*
X51512724Y70585439D01*
X51496424Y70461623D01*
X51486505Y70436118D01*
X51256498Y70436118D01*
X51246580Y70461623D01*
X51230279Y70585439D01*
X51172643Y70724585D01*
X51127786Y70783043D01*
X51080957Y70844072D01*
X50970748Y70928639D01*
X50961469Y70935759D01*
X50822323Y70993395D01*
X50692659Y71010465D01*
X50673002Y71013053D01*
X50673001Y71013053D01*
X50523680Y70993395D01*
X50384534Y70935759D01*
X50265047Y70844072D01*
X50173361Y70724586D01*
X50154411Y70678836D01*
X50119832Y70631244D01*
X50067416Y70604536D01*
X50008588Y70604536D01*
X49956172Y70631244D01*
X49921593Y70678836D01*
X49909309Y70708492D01*
X49902643Y70724585D01*
X49810957Y70844072D01*
X49700748Y70928639D01*
X49691469Y70935759D01*
X49552323Y70993395D01*
X49422659Y71010465D01*
X49403002Y71013053D01*
X49403001Y71013053D01*
X49253680Y70993395D01*
X49114534Y70935759D01*
X48995047Y70844072D01*
X48903360Y70724585D01*
X48845724Y70585439D01*
X48829424Y70461623D01*
X48819505Y70436118D01*
X48589498Y70436118D01*
X48579580Y70461623D01*
X48563279Y70585439D01*
X48505643Y70724585D01*
X48460786Y70783043D01*
X48413957Y70844072D01*
X48303748Y70928639D01*
X48294469Y70935759D01*
X48155323Y70993395D01*
X48025659Y71010465D01*
X48006002Y71013053D01*
X48006001Y71013053D01*
X47856680Y70993395D01*
X47717534Y70935759D01*
X47598047Y70844072D01*
X47506360Y70724585D01*
X47448724Y70585439D01*
X47429066Y70436117D01*
X44645938Y70436117D01*
X44626279Y70585439D01*
X44568643Y70724585D01*
X44476957Y70844072D01*
X44366748Y70928639D01*
X44357469Y70935759D01*
X44218323Y70993395D01*
X44088659Y71010465D01*
X44069002Y71013053D01*
X44069001Y71013053D01*
X43919680Y70993395D01*
X43780534Y70935759D01*
X43661047Y70844072D01*
X43569360Y70724585D01*
X43511724Y70585439D01*
X43492066Y70436117D01*
X42613938Y70436117D01*
X42594279Y70585439D01*
X42536643Y70724585D01*
X42444957Y70844072D01*
X42334748Y70928639D01*
X42325469Y70935759D01*
X42186323Y70993395D01*
X42056659Y71010465D01*
X42037002Y71013053D01*
X42037001Y71013053D01*
X41887680Y70993395D01*
X41748534Y70935759D01*
X41629047Y70844072D01*
X41537360Y70724585D01*
X41479724Y70585439D01*
X41460066Y70436117D01*
X508500Y70436117D01*
X508500Y71585000D01*
X6769600Y71585000D01*
X6789154Y71373983D01*
X6847148Y71170153D01*
X6941612Y70980443D01*
X7052645Y70833413D01*
X7069323Y70811328D01*
X7225935Y70668557D01*
X7406115Y70556994D01*
X7603726Y70480439D01*
X7812039Y70441499D01*
X8023959Y70441499D01*
X8023961Y70441499D01*
X8232274Y70480439D01*
X8429885Y70556994D01*
X8610065Y70668557D01*
X8766677Y70811328D01*
X8894389Y70980445D01*
X8988850Y71170149D01*
X9046845Y71373981D01*
X9066399Y71584999D01*
X9066399Y71585000D01*
X9769600Y71585000D01*
X9789154Y71373983D01*
X9847148Y71170153D01*
X9941612Y70980443D01*
X10052645Y70833413D01*
X10069323Y70811328D01*
X10225935Y70668557D01*
X10406115Y70556994D01*
X10603726Y70480439D01*
X10812039Y70441499D01*
X11023959Y70441499D01*
X11023961Y70441499D01*
X11232274Y70480439D01*
X11429885Y70556994D01*
X11610065Y70668557D01*
X11766677Y70811328D01*
X11894389Y70980445D01*
X11988850Y71170149D01*
X12046845Y71373981D01*
X12066399Y71584999D01*
X12055835Y71698998D01*
X114894066Y71698998D01*
X114913724Y71549677D01*
X114971360Y71410531D01*
X114971361Y71410530D01*
X115063047Y71291043D01*
X115182534Y71199357D01*
X115321680Y71141721D01*
X115471002Y71122062D01*
X115620324Y71141721D01*
X115739292Y71190999D01*
X131884066Y71190999D01*
X131903724Y71041677D01*
X131961360Y70902531D01*
X131961361Y70902530D01*
X132053047Y70783043D01*
X132172534Y70691357D01*
X132311680Y70633721D01*
X132461002Y70614062D01*
X132610324Y70633721D01*
X132749470Y70691357D01*
X132868957Y70783043D01*
X132960643Y70902530D01*
X133018279Y71041676D01*
X133037938Y71190998D01*
X133018279Y71340320D01*
X132960643Y71479466D01*
X132868957Y71598953D01*
X132749470Y71690639D01*
X132749469Y71690640D01*
X132610323Y71748276D01*
X132461002Y71767934D01*
X132311680Y71748276D01*
X132172534Y71690640D01*
X132053047Y71598953D01*
X131961360Y71479466D01*
X131903724Y71340320D01*
X131884066Y71190999D01*
X115739292Y71190999D01*
X115759470Y71199357D01*
X115878957Y71291043D01*
X115970643Y71410530D01*
X116028279Y71549676D01*
X116047938Y71698998D01*
X116028279Y71848320D01*
X115970643Y71987466D01*
X115878957Y72106953D01*
X115759470Y72198639D01*
X115759469Y72198640D01*
X115620323Y72256276D01*
X115471002Y72275934D01*
X115321680Y72256276D01*
X115182534Y72198640D01*
X115063047Y72106953D01*
X114971360Y71987466D01*
X114913724Y71848320D01*
X114894066Y71698998D01*
X12055835Y71698998D01*
X12046845Y71796017D01*
X11988850Y71999849D01*
X11894389Y72189553D01*
X11766677Y72358670D01*
X11610065Y72501441D01*
X11513803Y72561044D01*
X11429886Y72613004D01*
X11331079Y72651282D01*
X11232274Y72689559D01*
X11023961Y72728499D01*
X10812039Y72728499D01*
X10663385Y72700711D01*
X10603726Y72689559D01*
X10406113Y72613004D01*
X10225936Y72501442D01*
X10069321Y72358669D01*
X9941612Y72189556D01*
X9847148Y71999846D01*
X9789154Y71796016D01*
X9769600Y71585000D01*
X9066399Y71585000D01*
X9046845Y71796017D01*
X8988850Y71999849D01*
X8894389Y72189553D01*
X8766677Y72358670D01*
X8610065Y72501441D01*
X8513803Y72561044D01*
X8429886Y72613004D01*
X8331079Y72651282D01*
X8232274Y72689559D01*
X8023961Y72728499D01*
X7812039Y72728499D01*
X7663385Y72700711D01*
X7603726Y72689559D01*
X7406113Y72613004D01*
X7225936Y72501442D01*
X7069321Y72358669D01*
X6941612Y72189556D01*
X6847148Y71999846D01*
X6789154Y71796016D01*
X6769600Y71585000D01*
X508500Y71585000D01*
X508500Y72968999D01*
X145473066Y72968999D01*
X145492724Y72819677D01*
X145550360Y72680531D01*
X145550361Y72680530D01*
X145642047Y72561043D01*
X145761534Y72469357D01*
X145900680Y72411721D01*
X146050002Y72392062D01*
X146199324Y72411721D01*
X146338470Y72469357D01*
X146457957Y72561043D01*
X146458040Y72561152D01*
X146502272Y72597453D01*
X146558002Y72610448D01*
X146613732Y72597453D01*
X146657963Y72561152D01*
X146658047Y72561043D01*
X146777534Y72469357D01*
X146916680Y72411721D01*
X147066002Y72392062D01*
X147215324Y72411721D01*
X147354470Y72469357D01*
X147473957Y72561043D01*
X147565643Y72680530D01*
X147623279Y72819676D01*
X147642938Y72968998D01*
X147623279Y73118320D01*
X147565643Y73257466D01*
X147473957Y73376953D01*
X147354470Y73468639D01*
X147354469Y73468640D01*
X147215323Y73526276D01*
X147066002Y73545934D01*
X146916680Y73526276D01*
X146777534Y73468640D01*
X146658045Y73376952D01*
X146657964Y73376845D01*
X146613730Y73340543D01*
X146558002Y73327549D01*
X146502274Y73340543D01*
X146458040Y73376845D01*
X146457958Y73376952D01*
X146338469Y73468640D01*
X146199323Y73526276D01*
X146050002Y73545934D01*
X145900680Y73526276D01*
X145761534Y73468640D01*
X145642047Y73376953D01*
X145550360Y73257466D01*
X145492724Y73118320D01*
X145473066Y72968999D01*
X508500Y72968999D01*
X508500Y74584999D01*
X6769600Y74584999D01*
X6789154Y74373983D01*
X6847148Y74170153D01*
X6941612Y73980443D01*
X7060108Y73823530D01*
X7069323Y73811328D01*
X7225935Y73668557D01*
X7406115Y73556994D01*
X7603726Y73480439D01*
X7812039Y73441499D01*
X8023959Y73441499D01*
X8023961Y73441499D01*
X8232274Y73480439D01*
X8429885Y73556994D01*
X8610065Y73668557D01*
X8766677Y73811328D01*
X8894389Y73980445D01*
X8988850Y74170149D01*
X9046845Y74373981D01*
X9066399Y74584999D01*
X9769600Y74584999D01*
X9789154Y74373983D01*
X9847148Y74170153D01*
X9941612Y73980443D01*
X10060108Y73823530D01*
X10069323Y73811328D01*
X10225935Y73668557D01*
X10406115Y73556994D01*
X10603726Y73480439D01*
X10812039Y73441499D01*
X11023959Y73441499D01*
X11023961Y73441499D01*
X11232274Y73480439D01*
X11429885Y73556994D01*
X11610065Y73668557D01*
X11766677Y73811328D01*
X11894389Y73980445D01*
X11959894Y74111998D01*
X134932066Y74111998D01*
X134951724Y73962677D01*
X135009360Y73823531D01*
X135009361Y73823530D01*
X135101047Y73704043D01*
X135220534Y73612357D01*
X135359680Y73554721D01*
X135509002Y73535062D01*
X135658324Y73554721D01*
X135797470Y73612357D01*
X135916957Y73704043D01*
X136008643Y73823530D01*
X136066279Y73962676D01*
X136085938Y74111998D01*
X136066279Y74261320D01*
X136008643Y74400466D01*
X135916957Y74519953D01*
X135797470Y74611639D01*
X135797469Y74611640D01*
X135658323Y74669276D01*
X135509002Y74688934D01*
X135359680Y74669276D01*
X135220534Y74611640D01*
X135101047Y74519953D01*
X135009360Y74400466D01*
X134951724Y74261320D01*
X134932066Y74111998D01*
X11959894Y74111998D01*
X11988850Y74170149D01*
X12046845Y74373981D01*
X12066399Y74584999D01*
X12046845Y74796017D01*
X12008556Y74930589D01*
X11988851Y74999846D01*
X11988850Y74999849D01*
X11894389Y75189553D01*
X11766677Y75358670D01*
X11741086Y75381999D01*
X108072066Y75381999D01*
X108091724Y75232677D01*
X108149360Y75093531D01*
X108149361Y75093530D01*
X108241047Y74974043D01*
X108360534Y74882357D01*
X108499680Y74824721D01*
X108649002Y74805062D01*
X108798324Y74824721D01*
X108937470Y74882357D01*
X109056957Y74974043D01*
X109148643Y75093530D01*
X109206279Y75232676D01*
X109225938Y75381998D01*
X109206279Y75531320D01*
X109148643Y75670466D01*
X109056957Y75789953D01*
X108937470Y75881639D01*
X108937469Y75881640D01*
X108798323Y75939276D01*
X108668660Y75956346D01*
X108649002Y75958934D01*
X108649001Y75958934D01*
X108499680Y75939276D01*
X108360534Y75881640D01*
X108241047Y75789953D01*
X108149360Y75670466D01*
X108091724Y75531320D01*
X108072066Y75381999D01*
X11741086Y75381999D01*
X11610065Y75501441D01*
X11559982Y75532451D01*
X11429886Y75613004D01*
X11331079Y75651282D01*
X11232274Y75689559D01*
X11023961Y75728499D01*
X10812039Y75728499D01*
X10627821Y75694063D01*
X10603726Y75689559D01*
X10406113Y75613004D01*
X10225936Y75501442D01*
X10069321Y75358669D01*
X9941612Y75189556D01*
X9847148Y74999846D01*
X9789154Y74796016D01*
X9769600Y74584999D01*
X9066399Y74584999D01*
X9046845Y74796017D01*
X9008556Y74930589D01*
X8988851Y74999846D01*
X8988850Y74999849D01*
X8894389Y75189553D01*
X8766677Y75358670D01*
X8610065Y75501441D01*
X8559982Y75532451D01*
X8429886Y75613004D01*
X8331079Y75651282D01*
X8232274Y75689559D01*
X8023961Y75728499D01*
X7812039Y75728499D01*
X7627821Y75694063D01*
X7603726Y75689559D01*
X7406113Y75613004D01*
X7225936Y75501442D01*
X7069321Y75358669D01*
X6941612Y75189556D01*
X6847148Y74999846D01*
X6789154Y74796016D01*
X6769600Y74584999D01*
X508500Y74584999D01*
X508500Y76397998D01*
X112072066Y76397998D01*
X112091724Y76248677D01*
X112149360Y76109531D01*
X112149361Y76109530D01*
X112241047Y75990043D01*
X112360534Y75898357D01*
X112499680Y75840721D01*
X112649002Y75821062D01*
X112798324Y75840721D01*
X112937470Y75898357D01*
X113056957Y75990043D01*
X113148643Y76109530D01*
X113206279Y76248676D01*
X113209218Y76270998D01*
X116390066Y76270998D01*
X116409724Y76121677D01*
X116467360Y75982531D01*
X116467361Y75982530D01*
X116559047Y75863043D01*
X116678534Y75771357D01*
X116817680Y75713721D01*
X116967002Y75694062D01*
X117116324Y75713721D01*
X117255470Y75771357D01*
X117374957Y75863043D01*
X117466643Y75982530D01*
X117524279Y76121676D01*
X117543938Y76270998D01*
X117527218Y76397998D01*
X139758066Y76397998D01*
X139777724Y76248677D01*
X139835360Y76109531D01*
X139835361Y76109530D01*
X139927047Y75990043D01*
X140046534Y75898357D01*
X140185680Y75840721D01*
X140335002Y75821062D01*
X140484324Y75840721D01*
X140623470Y75898357D01*
X140742957Y75990043D01*
X140834643Y76109530D01*
X140892279Y76248676D01*
X140911938Y76397998D01*
X142438066Y76397998D01*
X142457724Y76248677D01*
X142515360Y76109531D01*
X142515361Y76109530D01*
X142607047Y75990043D01*
X142726534Y75898357D01*
X142865680Y75840721D01*
X143015002Y75821062D01*
X143164324Y75840721D01*
X143303470Y75898357D01*
X143422957Y75990043D01*
X143514643Y76109530D01*
X143572279Y76248676D01*
X143591938Y76397998D01*
X143572279Y76547320D01*
X143514643Y76686466D01*
X143422957Y76805953D01*
X143303470Y76897639D01*
X143303469Y76897640D01*
X143164323Y76955276D01*
X143015002Y76974934D01*
X142865680Y76955276D01*
X142726534Y76897640D01*
X142607047Y76805953D01*
X142515360Y76686466D01*
X142457724Y76547320D01*
X142438066Y76397998D01*
X140911938Y76397998D01*
X140892279Y76547320D01*
X140834643Y76686466D01*
X140834642Y76686467D01*
X140834642Y76686468D01*
X140773772Y76765795D01*
X140750721Y76815228D01*
X140750721Y76869771D01*
X140773771Y76919202D01*
X140834643Y76998530D01*
X140892279Y77137676D01*
X140911938Y77286998D01*
X140892279Y77436320D01*
X140834643Y77575466D01*
X140834642Y77575467D01*
X140834642Y77575468D01*
X140773772Y77654795D01*
X140750721Y77704228D01*
X140750721Y77758771D01*
X140773771Y77808202D01*
X140834643Y77887530D01*
X140892279Y78026676D01*
X140911938Y78175998D01*
X142438066Y78175998D01*
X142457724Y78026677D01*
X142515360Y77887531D01*
X142515361Y77887530D01*
X142607047Y77768043D01*
X142726534Y77676357D01*
X142865680Y77618721D01*
X143015002Y77599062D01*
X143164324Y77618721D01*
X143303470Y77676357D01*
X143422957Y77768043D01*
X143514643Y77887530D01*
X143572279Y78026676D01*
X143591938Y78175998D01*
X143572279Y78325320D01*
X143514643Y78464466D01*
X143422957Y78583953D01*
X143303470Y78675639D01*
X143303469Y78675640D01*
X143164323Y78733276D01*
X143015002Y78752934D01*
X142865680Y78733276D01*
X142726534Y78675640D01*
X142607047Y78583953D01*
X142515360Y78464466D01*
X142457724Y78325320D01*
X142438066Y78175998D01*
X140911938Y78175998D01*
X140892279Y78325320D01*
X140834643Y78464466D01*
X140742957Y78583953D01*
X140623470Y78675639D01*
X140623469Y78675640D01*
X140484323Y78733276D01*
X140335002Y78752934D01*
X140185680Y78733276D01*
X140046534Y78675640D01*
X139927047Y78583953D01*
X139835360Y78464466D01*
X139777724Y78325320D01*
X139758066Y78175998D01*
X139777724Y78026677D01*
X139835361Y77887529D01*
X139896231Y77808202D01*
X139919282Y77758770D01*
X139919282Y77704226D01*
X139896231Y77654794D01*
X139835361Y77575468D01*
X139777724Y77436320D01*
X139758066Y77286998D01*
X139777724Y77137677D01*
X139835361Y76998529D01*
X139896231Y76919202D01*
X139919282Y76869770D01*
X139919282Y76815226D01*
X139896231Y76765794D01*
X139835361Y76686468D01*
X139777724Y76547320D01*
X139758066Y76397998D01*
X117527218Y76397998D01*
X117524279Y76420320D01*
X117466643Y76559466D01*
X117374957Y76678953D01*
X117255470Y76770639D01*
X117255469Y76770640D01*
X117116323Y76828276D01*
X116967002Y76847934D01*
X116817680Y76828276D01*
X116678534Y76770640D01*
X116559047Y76678953D01*
X116467360Y76559466D01*
X116409724Y76420320D01*
X116390066Y76270998D01*
X113209218Y76270998D01*
X113225938Y76397998D01*
X113206279Y76547320D01*
X113148643Y76686466D01*
X113056957Y76805953D01*
X112937470Y76897639D01*
X112937469Y76897640D01*
X112798323Y76955276D01*
X112649002Y76974934D01*
X112499680Y76955276D01*
X112360534Y76897640D01*
X112241047Y76805953D01*
X112149360Y76686466D01*
X112091724Y76547320D01*
X112072066Y76397998D01*
X508500Y76397998D01*
X508500Y77585000D01*
X6769600Y77585000D01*
X6789154Y77373983D01*
X6847148Y77170153D01*
X6941612Y76980443D01*
X7066379Y76815226D01*
X7069323Y76811328D01*
X7225935Y76668557D01*
X7356032Y76588004D01*
X7402122Y76559466D01*
X7406115Y76556994D01*
X7603726Y76480439D01*
X7812039Y76441499D01*
X8023959Y76441499D01*
X8023961Y76441499D01*
X8232274Y76480439D01*
X8429885Y76556994D01*
X8610065Y76668557D01*
X8766677Y76811328D01*
X8894389Y76980445D01*
X8988850Y77170149D01*
X9046845Y77373981D01*
X9066399Y77584999D01*
X9066399Y77585000D01*
X9769600Y77585000D01*
X9789154Y77373983D01*
X9847148Y77170153D01*
X9941612Y76980443D01*
X10066379Y76815226D01*
X10069323Y76811328D01*
X10225935Y76668557D01*
X10356032Y76588004D01*
X10402122Y76559466D01*
X10406115Y76556994D01*
X10603726Y76480439D01*
X10812039Y76441499D01*
X11023959Y76441499D01*
X11023961Y76441499D01*
X11232274Y76480439D01*
X11429885Y76556994D01*
X11610065Y76668557D01*
X11766677Y76811328D01*
X11894389Y76980445D01*
X11988850Y77170149D01*
X12046845Y77373981D01*
X12066399Y77584999D01*
X12046845Y77796017D01*
X11988850Y77999849D01*
X11894389Y78189553D01*
X11766677Y78358670D01*
X11610065Y78501441D01*
X11559982Y78532451D01*
X11429886Y78613004D01*
X11331079Y78651282D01*
X11232274Y78689559D01*
X11023961Y78728499D01*
X10812039Y78728499D01*
X10603725Y78689559D01*
X10603726Y78689559D01*
X10406113Y78613004D01*
X10225936Y78501442D01*
X10069321Y78358669D01*
X9941612Y78189556D01*
X9847148Y77999846D01*
X9789154Y77796016D01*
X9769600Y77585000D01*
X9066399Y77585000D01*
X9046845Y77796017D01*
X8988850Y77999849D01*
X8894389Y78189553D01*
X8766677Y78358670D01*
X8610065Y78501441D01*
X8559982Y78532451D01*
X8429886Y78613004D01*
X8331079Y78651282D01*
X8232274Y78689559D01*
X8023961Y78728499D01*
X7812039Y78728499D01*
X7603725Y78689559D01*
X7603726Y78689559D01*
X7406113Y78613004D01*
X7225936Y78501442D01*
X7069321Y78358669D01*
X6941612Y78189556D01*
X6847148Y77999846D01*
X6789154Y77796016D01*
X6769600Y77585000D01*
X508500Y77585000D01*
X508500Y79739799D01*
X1753294Y79739799D01*
X1772092Y79476981D01*
X1828098Y79219527D01*
X1828100Y79219522D01*
X1920178Y78972650D01*
X2028231Y78774765D01*
X2046454Y78741393D01*
X2204354Y78530462D01*
X2390662Y78344154D01*
X2415821Y78325320D01*
X2601596Y78186252D01*
X2832851Y78059977D01*
X3079723Y77967899D01*
X3079726Y77967899D01*
X3079727Y77967898D01*
X3337181Y77911892D01*
X3337186Y77911891D01*
X3600000Y77893094D01*
X3862814Y77911891D01*
X4120277Y77967899D01*
X4367149Y78059977D01*
X4598404Y78186252D01*
X4809335Y78344152D01*
X4995647Y78530464D01*
X5153547Y78741395D01*
X5279822Y78972650D01*
X5371900Y79219522D01*
X5427908Y79476985D01*
X5446705Y79739799D01*
X5427908Y80002613D01*
X5371900Y80260076D01*
X5279822Y80506948D01*
X5153547Y80738203D01*
X4995647Y80949134D01*
X4995645Y80949137D01*
X4974784Y80969998D01*
X55303066Y80969998D01*
X55322724Y80820677D01*
X55380360Y80681531D01*
X55380361Y80681530D01*
X55472047Y80562043D01*
X55591534Y80470357D01*
X55730680Y80412721D01*
X55880002Y80393062D01*
X56029324Y80412721D01*
X56168470Y80470357D01*
X56287957Y80562043D01*
X56379643Y80681530D01*
X56437279Y80820676D01*
X56456938Y80969998D01*
X56437279Y81119320D01*
X56379643Y81258466D01*
X56287957Y81377953D01*
X56168470Y81469639D01*
X56168469Y81469640D01*
X56029323Y81527276D01*
X55880002Y81546934D01*
X55730680Y81527276D01*
X55591534Y81469640D01*
X55472047Y81377953D01*
X55380360Y81258466D01*
X55322724Y81119320D01*
X55303066Y80969998D01*
X4974784Y80969998D01*
X4809337Y81135445D01*
X4598406Y81293345D01*
X4565034Y81311568D01*
X4367149Y81419621D01*
X4120277Y81511699D01*
X4120272Y81511701D01*
X3862818Y81567707D01*
X3600000Y81586505D01*
X3337181Y81567707D01*
X3079727Y81511701D01*
X2832851Y81419621D01*
X2601593Y81293345D01*
X2390662Y81135445D01*
X2204354Y80949137D01*
X2046454Y80738206D01*
X1920178Y80506948D01*
X1828098Y80260072D01*
X1772092Y80002618D01*
X1753294Y79739799D01*
X508500Y79739799D01*
X508500Y82875998D01*
X525381Y82938998D01*
X571500Y82985117D01*
X634500Y83001998D01*
X149365500Y83001998D01*
X149428500Y82985117D01*
G37*
G04 #@! TD.AperFunction*
M02*
