%TF.GenerationSoftware,KiCad,Pcbnew,7.0.1*%
%TF.CreationDate,2024-01-10T16:45:59-08:00*%
%TF.ProjectId,POWERCORE-V2.0_MOTHERBOARD,504f5745-5243-44f5-9245-2d56322e305f,rev?*%
%TF.SameCoordinates,PX791ddbePYb90347e*%
%TF.FileFunction,Drillmap*%
%TF.FilePolarity,Positive*%
%FSLAX45Y45*%
G04 Gerber Fmt 4.5, Leading zero omitted, Abs format (unit mm)*
G04 Created by KiCad (PCBNEW 7.0.1) date 2024-01-10 16:45:59*
%MOMM*%
%LPD*%
G01*
G04 APERTURE LIST*
%ADD10C,0.200000*%
%ADD11C,0.065000*%
%ADD12C,0.210000*%
%ADD13C,0.300000*%
G04 APERTURE END LIST*
D10*
X200000Y8700000D02*
G75*
G03*
X0Y8500000I0J-200000D01*
G01*
X15000000Y200000D02*
X15000000Y8500000D01*
X14800000Y8700000D02*
X200000Y8700000D01*
X14800000Y0D02*
G75*
G03*
X15000000Y200000I0J200000D01*
G01*
X0Y8500000D02*
X0Y200000D01*
X200000Y0D02*
X14800000Y0D01*
X15000000Y8500000D02*
G75*
G03*
X14800000Y8700000I-200000J0D01*
G01*
X0Y200000D02*
G75*
G03*
X200000Y0I200000J0D01*
G01*
D11*
X495500Y1448000D02*
X560500Y1383000D01*
X560500Y1448000D02*
X495500Y1383000D01*
X495500Y870000D02*
X560500Y805000D01*
X560500Y870000D02*
X495500Y805000D01*
D12*
X1105000Y8500000D02*
G75*
G03*
X1105000Y8500000I-105000J0D01*
G01*
X7605000Y210300D02*
G75*
G03*
X7605000Y210300I-105000J0D01*
G01*
X14105000Y8500000D02*
G75*
G03*
X14105000Y8500000I-105000J0D01*
G01*
D13*
X14535525Y3586100D02*
X14535525Y3286100D01*
X14385525Y3436100D02*
X14685525Y3436100D01*
D10*
X237619Y-322524D02*
X237619Y-122524D01*
X237619Y-122524D02*
X285238Y-122524D01*
X285238Y-122524D02*
X313810Y-132048D01*
X313810Y-132048D02*
X332857Y-151095D01*
X332857Y-151095D02*
X342381Y-170143D01*
X342381Y-170143D02*
X351905Y-208238D01*
X351905Y-208238D02*
X351905Y-236809D01*
X351905Y-236809D02*
X342381Y-274905D01*
X342381Y-274905D02*
X332857Y-293952D01*
X332857Y-293952D02*
X313810Y-313000D01*
X313810Y-313000D02*
X285238Y-322524D01*
X285238Y-322524D02*
X237619Y-322524D01*
X437619Y-322524D02*
X437619Y-189190D01*
X437619Y-227286D02*
X447143Y-208238D01*
X447143Y-208238D02*
X456667Y-198714D01*
X456667Y-198714D02*
X475714Y-189190D01*
X475714Y-189190D02*
X494762Y-189190D01*
X561429Y-322524D02*
X561429Y-189190D01*
X561429Y-122524D02*
X551905Y-132048D01*
X551905Y-132048D02*
X561429Y-141571D01*
X561429Y-141571D02*
X570952Y-132048D01*
X570952Y-132048D02*
X561429Y-122524D01*
X561429Y-122524D02*
X561429Y-141571D01*
X685238Y-322524D02*
X666190Y-313000D01*
X666190Y-313000D02*
X656667Y-293952D01*
X656667Y-293952D02*
X656667Y-122524D01*
X790000Y-322524D02*
X770952Y-313000D01*
X770952Y-313000D02*
X761428Y-293952D01*
X761428Y-293952D02*
X761428Y-122524D01*
X1018571Y-322524D02*
X1018571Y-122524D01*
X1018571Y-122524D02*
X1085238Y-265381D01*
X1085238Y-265381D02*
X1151905Y-122524D01*
X1151905Y-122524D02*
X1151905Y-322524D01*
X1332857Y-322524D02*
X1332857Y-217762D01*
X1332857Y-217762D02*
X1323333Y-198714D01*
X1323333Y-198714D02*
X1304286Y-189190D01*
X1304286Y-189190D02*
X1266190Y-189190D01*
X1266190Y-189190D02*
X1247143Y-198714D01*
X1332857Y-313000D02*
X1313810Y-322524D01*
X1313810Y-322524D02*
X1266190Y-322524D01*
X1266190Y-322524D02*
X1247143Y-313000D01*
X1247143Y-313000D02*
X1237619Y-293952D01*
X1237619Y-293952D02*
X1237619Y-274905D01*
X1237619Y-274905D02*
X1247143Y-255857D01*
X1247143Y-255857D02*
X1266190Y-246333D01*
X1266190Y-246333D02*
X1313810Y-246333D01*
X1313810Y-246333D02*
X1332857Y-236809D01*
X1428095Y-189190D02*
X1428095Y-389190D01*
X1428095Y-198714D02*
X1447143Y-189190D01*
X1447143Y-189190D02*
X1485238Y-189190D01*
X1485238Y-189190D02*
X1504286Y-198714D01*
X1504286Y-198714D02*
X1513809Y-208238D01*
X1513809Y-208238D02*
X1523333Y-227286D01*
X1523333Y-227286D02*
X1523333Y-284429D01*
X1523333Y-284429D02*
X1513809Y-303476D01*
X1513809Y-303476D02*
X1504286Y-313000D01*
X1504286Y-313000D02*
X1485238Y-322524D01*
X1485238Y-322524D02*
X1447143Y-322524D01*
X1447143Y-322524D02*
X1428095Y-313000D01*
X1609048Y-303476D02*
X1618571Y-313000D01*
X1618571Y-313000D02*
X1609048Y-322524D01*
X1609048Y-322524D02*
X1599524Y-313000D01*
X1599524Y-313000D02*
X1609048Y-303476D01*
X1609048Y-303476D02*
X1609048Y-322524D01*
X1609048Y-198714D02*
X1618571Y-208238D01*
X1618571Y-208238D02*
X1609048Y-217762D01*
X1609048Y-217762D02*
X1599524Y-208238D01*
X1599524Y-208238D02*
X1609048Y-198714D01*
X1609048Y-198714D02*
X1609048Y-217762D01*
D11*
X-75000Y-617500D02*
X-10000Y-682500D01*
X-10000Y-617500D02*
X-75000Y-682500D01*
D10*
X275714Y-542524D02*
X294762Y-542524D01*
X294762Y-542524D02*
X313810Y-552048D01*
X313810Y-552048D02*
X323333Y-561571D01*
X323333Y-561571D02*
X332857Y-580619D01*
X332857Y-580619D02*
X342381Y-618714D01*
X342381Y-618714D02*
X342381Y-666333D01*
X342381Y-666333D02*
X332857Y-704428D01*
X332857Y-704428D02*
X323333Y-723476D01*
X323333Y-723476D02*
X313810Y-733000D01*
X313810Y-733000D02*
X294762Y-742524D01*
X294762Y-742524D02*
X275714Y-742524D01*
X275714Y-742524D02*
X256667Y-733000D01*
X256667Y-733000D02*
X247143Y-723476D01*
X247143Y-723476D02*
X237619Y-704428D01*
X237619Y-704428D02*
X228095Y-666333D01*
X228095Y-666333D02*
X228095Y-618714D01*
X228095Y-618714D02*
X237619Y-580619D01*
X237619Y-580619D02*
X247143Y-561571D01*
X247143Y-561571D02*
X256667Y-552048D01*
X256667Y-552048D02*
X275714Y-542524D01*
X428095Y-723476D02*
X437619Y-733000D01*
X437619Y-733000D02*
X428095Y-742524D01*
X428095Y-742524D02*
X418571Y-733000D01*
X418571Y-733000D02*
X428095Y-723476D01*
X428095Y-723476D02*
X428095Y-742524D01*
X609048Y-542524D02*
X570952Y-542524D01*
X570952Y-542524D02*
X551905Y-552048D01*
X551905Y-552048D02*
X542381Y-561571D01*
X542381Y-561571D02*
X523333Y-590143D01*
X523333Y-590143D02*
X513809Y-628238D01*
X513809Y-628238D02*
X513809Y-704428D01*
X513809Y-704428D02*
X523333Y-723476D01*
X523333Y-723476D02*
X532857Y-733000D01*
X532857Y-733000D02*
X551905Y-742524D01*
X551905Y-742524D02*
X590000Y-742524D01*
X590000Y-742524D02*
X609048Y-733000D01*
X609048Y-733000D02*
X618571Y-723476D01*
X618571Y-723476D02*
X628095Y-704428D01*
X628095Y-704428D02*
X628095Y-656810D01*
X628095Y-656810D02*
X618571Y-637762D01*
X618571Y-637762D02*
X609048Y-628238D01*
X609048Y-628238D02*
X590000Y-618714D01*
X590000Y-618714D02*
X551905Y-618714D01*
X551905Y-618714D02*
X532857Y-628238D01*
X532857Y-628238D02*
X523333Y-637762D01*
X523333Y-637762D02*
X513809Y-656810D01*
X809048Y-542524D02*
X713809Y-542524D01*
X713809Y-542524D02*
X704286Y-637762D01*
X704286Y-637762D02*
X713809Y-628238D01*
X713809Y-628238D02*
X732857Y-618714D01*
X732857Y-618714D02*
X780476Y-618714D01*
X780476Y-618714D02*
X799524Y-628238D01*
X799524Y-628238D02*
X809048Y-637762D01*
X809048Y-637762D02*
X818571Y-656810D01*
X818571Y-656810D02*
X818571Y-704428D01*
X818571Y-704428D02*
X809048Y-723476D01*
X809048Y-723476D02*
X799524Y-733000D01*
X799524Y-733000D02*
X780476Y-742524D01*
X780476Y-742524D02*
X732857Y-742524D01*
X732857Y-742524D02*
X713809Y-733000D01*
X713809Y-733000D02*
X704286Y-723476D01*
X942381Y-542524D02*
X961429Y-542524D01*
X961429Y-542524D02*
X980476Y-552048D01*
X980476Y-552048D02*
X990000Y-561571D01*
X990000Y-561571D02*
X999524Y-580619D01*
X999524Y-580619D02*
X1009048Y-618714D01*
X1009048Y-618714D02*
X1009048Y-666333D01*
X1009048Y-666333D02*
X999524Y-704428D01*
X999524Y-704428D02*
X990000Y-723476D01*
X990000Y-723476D02*
X980476Y-733000D01*
X980476Y-733000D02*
X961429Y-742524D01*
X961429Y-742524D02*
X942381Y-742524D01*
X942381Y-742524D02*
X923333Y-733000D01*
X923333Y-733000D02*
X913809Y-723476D01*
X913809Y-723476D02*
X904286Y-704428D01*
X904286Y-704428D02*
X894762Y-666333D01*
X894762Y-666333D02*
X894762Y-618714D01*
X894762Y-618714D02*
X904286Y-580619D01*
X904286Y-580619D02*
X913809Y-561571D01*
X913809Y-561571D02*
X923333Y-552048D01*
X923333Y-552048D02*
X942381Y-542524D01*
X1094762Y-742524D02*
X1094762Y-609190D01*
X1094762Y-628238D02*
X1104286Y-618714D01*
X1104286Y-618714D02*
X1123333Y-609190D01*
X1123333Y-609190D02*
X1151905Y-609190D01*
X1151905Y-609190D02*
X1170952Y-618714D01*
X1170952Y-618714D02*
X1180476Y-637762D01*
X1180476Y-637762D02*
X1180476Y-742524D01*
X1180476Y-637762D02*
X1190000Y-618714D01*
X1190000Y-618714D02*
X1209048Y-609190D01*
X1209048Y-609190D02*
X1237619Y-609190D01*
X1237619Y-609190D02*
X1256667Y-618714D01*
X1256667Y-618714D02*
X1266191Y-637762D01*
X1266191Y-637762D02*
X1266191Y-742524D01*
X1361429Y-742524D02*
X1361429Y-609190D01*
X1361429Y-628238D02*
X1370952Y-618714D01*
X1370952Y-618714D02*
X1390000Y-609190D01*
X1390000Y-609190D02*
X1418571Y-609190D01*
X1418571Y-609190D02*
X1437619Y-618714D01*
X1437619Y-618714D02*
X1447143Y-637762D01*
X1447143Y-637762D02*
X1447143Y-742524D01*
X1447143Y-637762D02*
X1456667Y-618714D01*
X1456667Y-618714D02*
X1475714Y-609190D01*
X1475714Y-609190D02*
X1504286Y-609190D01*
X1504286Y-609190D02*
X1523333Y-618714D01*
X1523333Y-618714D02*
X1532857Y-637762D01*
X1532857Y-637762D02*
X1532857Y-742524D01*
X1923333Y-533000D02*
X1751905Y-790143D01*
X2180476Y-542524D02*
X2199524Y-542524D01*
X2199524Y-542524D02*
X2218572Y-552048D01*
X2218572Y-552048D02*
X2228095Y-561571D01*
X2228095Y-561571D02*
X2237619Y-580619D01*
X2237619Y-580619D02*
X2247143Y-618714D01*
X2247143Y-618714D02*
X2247143Y-666333D01*
X2247143Y-666333D02*
X2237619Y-704428D01*
X2237619Y-704428D02*
X2228095Y-723476D01*
X2228095Y-723476D02*
X2218572Y-733000D01*
X2218572Y-733000D02*
X2199524Y-742524D01*
X2199524Y-742524D02*
X2180476Y-742524D01*
X2180476Y-742524D02*
X2161429Y-733000D01*
X2161429Y-733000D02*
X2151905Y-723476D01*
X2151905Y-723476D02*
X2142381Y-704428D01*
X2142381Y-704428D02*
X2132857Y-666333D01*
X2132857Y-666333D02*
X2132857Y-618714D01*
X2132857Y-618714D02*
X2142381Y-580619D01*
X2142381Y-580619D02*
X2151905Y-561571D01*
X2151905Y-561571D02*
X2161429Y-552048D01*
X2161429Y-552048D02*
X2180476Y-542524D01*
X2332857Y-723476D02*
X2342381Y-733000D01*
X2342381Y-733000D02*
X2332857Y-742524D01*
X2332857Y-742524D02*
X2323334Y-733000D01*
X2323334Y-733000D02*
X2332857Y-723476D01*
X2332857Y-723476D02*
X2332857Y-742524D01*
X2466191Y-542524D02*
X2485238Y-542524D01*
X2485238Y-542524D02*
X2504286Y-552048D01*
X2504286Y-552048D02*
X2513810Y-561571D01*
X2513810Y-561571D02*
X2523334Y-580619D01*
X2523334Y-580619D02*
X2532857Y-618714D01*
X2532857Y-618714D02*
X2532857Y-666333D01*
X2532857Y-666333D02*
X2523334Y-704428D01*
X2523334Y-704428D02*
X2513810Y-723476D01*
X2513810Y-723476D02*
X2504286Y-733000D01*
X2504286Y-733000D02*
X2485238Y-742524D01*
X2485238Y-742524D02*
X2466191Y-742524D01*
X2466191Y-742524D02*
X2447143Y-733000D01*
X2447143Y-733000D02*
X2437619Y-723476D01*
X2437619Y-723476D02*
X2428095Y-704428D01*
X2428095Y-704428D02*
X2418572Y-666333D01*
X2418572Y-666333D02*
X2418572Y-618714D01*
X2418572Y-618714D02*
X2428095Y-580619D01*
X2428095Y-580619D02*
X2437619Y-561571D01*
X2437619Y-561571D02*
X2447143Y-552048D01*
X2447143Y-552048D02*
X2466191Y-542524D01*
X2609048Y-561571D02*
X2618572Y-552048D01*
X2618572Y-552048D02*
X2637619Y-542524D01*
X2637619Y-542524D02*
X2685238Y-542524D01*
X2685238Y-542524D02*
X2704286Y-552048D01*
X2704286Y-552048D02*
X2713810Y-561571D01*
X2713810Y-561571D02*
X2723334Y-580619D01*
X2723334Y-580619D02*
X2723334Y-599667D01*
X2723334Y-599667D02*
X2713810Y-628238D01*
X2713810Y-628238D02*
X2599524Y-742524D01*
X2599524Y-742524D02*
X2723334Y-742524D01*
X2904286Y-542524D02*
X2809048Y-542524D01*
X2809048Y-542524D02*
X2799524Y-637762D01*
X2799524Y-637762D02*
X2809048Y-628238D01*
X2809048Y-628238D02*
X2828095Y-618714D01*
X2828095Y-618714D02*
X2875714Y-618714D01*
X2875714Y-618714D02*
X2894762Y-628238D01*
X2894762Y-628238D02*
X2904286Y-637762D01*
X2904286Y-637762D02*
X2913810Y-656810D01*
X2913810Y-656810D02*
X2913810Y-704428D01*
X2913810Y-704428D02*
X2904286Y-723476D01*
X2904286Y-723476D02*
X2894762Y-733000D01*
X2894762Y-733000D02*
X2875714Y-742524D01*
X2875714Y-742524D02*
X2828095Y-742524D01*
X2828095Y-742524D02*
X2809048Y-733000D01*
X2809048Y-733000D02*
X2799524Y-723476D01*
X3085238Y-542524D02*
X3047143Y-542524D01*
X3047143Y-542524D02*
X3028095Y-552048D01*
X3028095Y-552048D02*
X3018572Y-561571D01*
X3018572Y-561571D02*
X2999524Y-590143D01*
X2999524Y-590143D02*
X2990000Y-628238D01*
X2990000Y-628238D02*
X2990000Y-704428D01*
X2990000Y-704428D02*
X2999524Y-723476D01*
X2999524Y-723476D02*
X3009048Y-733000D01*
X3009048Y-733000D02*
X3028095Y-742524D01*
X3028095Y-742524D02*
X3066191Y-742524D01*
X3066191Y-742524D02*
X3085238Y-733000D01*
X3085238Y-733000D02*
X3094762Y-723476D01*
X3094762Y-723476D02*
X3104286Y-704428D01*
X3104286Y-704428D02*
X3104286Y-656810D01*
X3104286Y-656810D02*
X3094762Y-637762D01*
X3094762Y-637762D02*
X3085238Y-628238D01*
X3085238Y-628238D02*
X3066191Y-618714D01*
X3066191Y-618714D02*
X3028095Y-618714D01*
X3028095Y-618714D02*
X3009048Y-628238D01*
X3009048Y-628238D02*
X2999524Y-637762D01*
X2999524Y-637762D02*
X2990000Y-656810D01*
X3180476Y-542524D02*
X3180476Y-580619D01*
X3256667Y-542524D02*
X3256667Y-580619D01*
X3551905Y-818714D02*
X3542381Y-809190D01*
X3542381Y-809190D02*
X3523334Y-780619D01*
X3523334Y-780619D02*
X3513810Y-761571D01*
X3513810Y-761571D02*
X3504286Y-733000D01*
X3504286Y-733000D02*
X3494762Y-685381D01*
X3494762Y-685381D02*
X3494762Y-647286D01*
X3494762Y-647286D02*
X3504286Y-599667D01*
X3504286Y-599667D02*
X3513810Y-571095D01*
X3513810Y-571095D02*
X3523334Y-552048D01*
X3523334Y-552048D02*
X3542381Y-523476D01*
X3542381Y-523476D02*
X3551905Y-513952D01*
X3618572Y-561571D02*
X3628095Y-552048D01*
X3628095Y-552048D02*
X3647143Y-542524D01*
X3647143Y-542524D02*
X3694762Y-542524D01*
X3694762Y-542524D02*
X3713810Y-552048D01*
X3713810Y-552048D02*
X3723334Y-561571D01*
X3723334Y-561571D02*
X3732857Y-580619D01*
X3732857Y-580619D02*
X3732857Y-599667D01*
X3732857Y-599667D02*
X3723334Y-628238D01*
X3723334Y-628238D02*
X3609048Y-742524D01*
X3609048Y-742524D02*
X3732857Y-742524D01*
X3970953Y-742524D02*
X3970953Y-542524D01*
X4056667Y-742524D02*
X4056667Y-637762D01*
X4056667Y-637762D02*
X4047143Y-618714D01*
X4047143Y-618714D02*
X4028096Y-609190D01*
X4028096Y-609190D02*
X3999524Y-609190D01*
X3999524Y-609190D02*
X3980476Y-618714D01*
X3980476Y-618714D02*
X3970953Y-628238D01*
X4180476Y-742524D02*
X4161429Y-733000D01*
X4161429Y-733000D02*
X4151905Y-723476D01*
X4151905Y-723476D02*
X4142381Y-704428D01*
X4142381Y-704428D02*
X4142381Y-647286D01*
X4142381Y-647286D02*
X4151905Y-628238D01*
X4151905Y-628238D02*
X4161429Y-618714D01*
X4161429Y-618714D02*
X4180476Y-609190D01*
X4180476Y-609190D02*
X4209048Y-609190D01*
X4209048Y-609190D02*
X4228096Y-618714D01*
X4228096Y-618714D02*
X4237619Y-628238D01*
X4237619Y-628238D02*
X4247143Y-647286D01*
X4247143Y-647286D02*
X4247143Y-704428D01*
X4247143Y-704428D02*
X4237619Y-723476D01*
X4237619Y-723476D02*
X4228096Y-733000D01*
X4228096Y-733000D02*
X4209048Y-742524D01*
X4209048Y-742524D02*
X4180476Y-742524D01*
X4361429Y-742524D02*
X4342381Y-733000D01*
X4342381Y-733000D02*
X4332858Y-713952D01*
X4332858Y-713952D02*
X4332858Y-542524D01*
X4513810Y-733000D02*
X4494762Y-742524D01*
X4494762Y-742524D02*
X4456667Y-742524D01*
X4456667Y-742524D02*
X4437619Y-733000D01*
X4437619Y-733000D02*
X4428096Y-713952D01*
X4428096Y-713952D02*
X4428096Y-637762D01*
X4428096Y-637762D02*
X4437619Y-618714D01*
X4437619Y-618714D02*
X4456667Y-609190D01*
X4456667Y-609190D02*
X4494762Y-609190D01*
X4494762Y-609190D02*
X4513810Y-618714D01*
X4513810Y-618714D02*
X4523334Y-637762D01*
X4523334Y-637762D02*
X4523334Y-656810D01*
X4523334Y-656810D02*
X4428096Y-675857D01*
X4599524Y-733000D02*
X4618572Y-742524D01*
X4618572Y-742524D02*
X4656667Y-742524D01*
X4656667Y-742524D02*
X4675715Y-733000D01*
X4675715Y-733000D02*
X4685239Y-713952D01*
X4685239Y-713952D02*
X4685239Y-704428D01*
X4685239Y-704428D02*
X4675715Y-685381D01*
X4675715Y-685381D02*
X4656667Y-675857D01*
X4656667Y-675857D02*
X4628096Y-675857D01*
X4628096Y-675857D02*
X4609048Y-666333D01*
X4609048Y-666333D02*
X4599524Y-647286D01*
X4599524Y-647286D02*
X4599524Y-637762D01*
X4599524Y-637762D02*
X4609048Y-618714D01*
X4609048Y-618714D02*
X4628096Y-609190D01*
X4628096Y-609190D02*
X4656667Y-609190D01*
X4656667Y-609190D02*
X4675715Y-618714D01*
X4751905Y-818714D02*
X4761429Y-809190D01*
X4761429Y-809190D02*
X4780477Y-780619D01*
X4780477Y-780619D02*
X4790000Y-761571D01*
X4790000Y-761571D02*
X4799524Y-733000D01*
X4799524Y-733000D02*
X4809048Y-685381D01*
X4809048Y-685381D02*
X4809048Y-647286D01*
X4809048Y-647286D02*
X4799524Y-599667D01*
X4799524Y-599667D02*
X4790000Y-571095D01*
X4790000Y-571095D02*
X4780477Y-552048D01*
X4780477Y-552048D02*
X4761429Y-523476D01*
X4761429Y-523476D02*
X4751905Y-513952D01*
X5113810Y-818714D02*
X5104286Y-809190D01*
X5104286Y-809190D02*
X5085239Y-780619D01*
X5085239Y-780619D02*
X5075715Y-761571D01*
X5075715Y-761571D02*
X5066191Y-733000D01*
X5066191Y-733000D02*
X5056667Y-685381D01*
X5056667Y-685381D02*
X5056667Y-647286D01*
X5056667Y-647286D02*
X5066191Y-599667D01*
X5066191Y-599667D02*
X5075715Y-571095D01*
X5075715Y-571095D02*
X5085239Y-552048D01*
X5085239Y-552048D02*
X5104286Y-523476D01*
X5104286Y-523476D02*
X5113810Y-513952D01*
X5190000Y-609190D02*
X5190000Y-742524D01*
X5190000Y-628238D02*
X5199524Y-618714D01*
X5199524Y-618714D02*
X5218572Y-609190D01*
X5218572Y-609190D02*
X5247143Y-609190D01*
X5247143Y-609190D02*
X5266191Y-618714D01*
X5266191Y-618714D02*
X5275715Y-637762D01*
X5275715Y-637762D02*
X5275715Y-742524D01*
X5399524Y-742524D02*
X5380477Y-733000D01*
X5380477Y-733000D02*
X5370953Y-723476D01*
X5370953Y-723476D02*
X5361429Y-704428D01*
X5361429Y-704428D02*
X5361429Y-647286D01*
X5361429Y-647286D02*
X5370953Y-628238D01*
X5370953Y-628238D02*
X5380477Y-618714D01*
X5380477Y-618714D02*
X5399524Y-609190D01*
X5399524Y-609190D02*
X5428096Y-609190D01*
X5428096Y-609190D02*
X5447143Y-618714D01*
X5447143Y-618714D02*
X5456667Y-628238D01*
X5456667Y-628238D02*
X5466191Y-647286D01*
X5466191Y-647286D02*
X5466191Y-704428D01*
X5466191Y-704428D02*
X5456667Y-723476D01*
X5456667Y-723476D02*
X5447143Y-733000D01*
X5447143Y-733000D02*
X5428096Y-742524D01*
X5428096Y-742524D02*
X5399524Y-742524D01*
X5523334Y-609190D02*
X5599524Y-609190D01*
X5551905Y-542524D02*
X5551905Y-713952D01*
X5551905Y-713952D02*
X5561429Y-733000D01*
X5561429Y-733000D02*
X5580477Y-742524D01*
X5580477Y-742524D02*
X5599524Y-742524D01*
X5818572Y-609190D02*
X5818572Y-809190D01*
X5818572Y-618714D02*
X5837619Y-609190D01*
X5837619Y-609190D02*
X5875715Y-609190D01*
X5875715Y-609190D02*
X5894762Y-618714D01*
X5894762Y-618714D02*
X5904286Y-628238D01*
X5904286Y-628238D02*
X5913810Y-647286D01*
X5913810Y-647286D02*
X5913810Y-704428D01*
X5913810Y-704428D02*
X5904286Y-723476D01*
X5904286Y-723476D02*
X5894762Y-733000D01*
X5894762Y-733000D02*
X5875715Y-742524D01*
X5875715Y-742524D02*
X5837619Y-742524D01*
X5837619Y-742524D02*
X5818572Y-733000D01*
X6028096Y-742524D02*
X6009048Y-733000D01*
X6009048Y-733000D02*
X5999524Y-713952D01*
X5999524Y-713952D02*
X5999524Y-542524D01*
X6190000Y-742524D02*
X6190000Y-637762D01*
X6190000Y-637762D02*
X6180477Y-618714D01*
X6180477Y-618714D02*
X6161429Y-609190D01*
X6161429Y-609190D02*
X6123334Y-609190D01*
X6123334Y-609190D02*
X6104286Y-618714D01*
X6190000Y-733000D02*
X6170953Y-742524D01*
X6170953Y-742524D02*
X6123334Y-742524D01*
X6123334Y-742524D02*
X6104286Y-733000D01*
X6104286Y-733000D02*
X6094762Y-713952D01*
X6094762Y-713952D02*
X6094762Y-694905D01*
X6094762Y-694905D02*
X6104286Y-675857D01*
X6104286Y-675857D02*
X6123334Y-666333D01*
X6123334Y-666333D02*
X6170953Y-666333D01*
X6170953Y-666333D02*
X6190000Y-656810D01*
X6256667Y-609190D02*
X6332858Y-609190D01*
X6285239Y-542524D02*
X6285239Y-713952D01*
X6285239Y-713952D02*
X6294762Y-733000D01*
X6294762Y-733000D02*
X6313810Y-742524D01*
X6313810Y-742524D02*
X6332858Y-742524D01*
X6475715Y-733000D02*
X6456667Y-742524D01*
X6456667Y-742524D02*
X6418572Y-742524D01*
X6418572Y-742524D02*
X6399524Y-733000D01*
X6399524Y-733000D02*
X6390000Y-713952D01*
X6390000Y-713952D02*
X6390000Y-637762D01*
X6390000Y-637762D02*
X6399524Y-618714D01*
X6399524Y-618714D02*
X6418572Y-609190D01*
X6418572Y-609190D02*
X6456667Y-609190D01*
X6456667Y-609190D02*
X6475715Y-618714D01*
X6475715Y-618714D02*
X6485239Y-637762D01*
X6485239Y-637762D02*
X6485239Y-656810D01*
X6485239Y-656810D02*
X6390000Y-675857D01*
X6656667Y-742524D02*
X6656667Y-542524D01*
X6656667Y-733000D02*
X6637620Y-742524D01*
X6637620Y-742524D02*
X6599524Y-742524D01*
X6599524Y-742524D02*
X6580477Y-733000D01*
X6580477Y-733000D02*
X6570953Y-723476D01*
X6570953Y-723476D02*
X6561429Y-704428D01*
X6561429Y-704428D02*
X6561429Y-647286D01*
X6561429Y-647286D02*
X6570953Y-628238D01*
X6570953Y-628238D02*
X6580477Y-618714D01*
X6580477Y-618714D02*
X6599524Y-609190D01*
X6599524Y-609190D02*
X6637620Y-609190D01*
X6637620Y-609190D02*
X6656667Y-618714D01*
X6732858Y-818714D02*
X6742381Y-809190D01*
X6742381Y-809190D02*
X6761429Y-780619D01*
X6761429Y-780619D02*
X6770953Y-761571D01*
X6770953Y-761571D02*
X6780477Y-733000D01*
X6780477Y-733000D02*
X6790000Y-685381D01*
X6790000Y-685381D02*
X6790000Y-647286D01*
X6790000Y-647286D02*
X6780477Y-599667D01*
X6780477Y-599667D02*
X6770953Y-571095D01*
X6770953Y-571095D02*
X6761429Y-552048D01*
X6761429Y-552048D02*
X6742381Y-523476D01*
X6742381Y-523476D02*
X6732858Y-513952D01*
X-10000Y-914000D02*
G75*
G03*
X-10000Y-914000I-100000J0D01*
G01*
X228095Y-825571D02*
X237619Y-816048D01*
X237619Y-816048D02*
X256667Y-806524D01*
X256667Y-806524D02*
X304286Y-806524D01*
X304286Y-806524D02*
X323333Y-816048D01*
X323333Y-816048D02*
X332857Y-825571D01*
X332857Y-825571D02*
X342381Y-844619D01*
X342381Y-844619D02*
X342381Y-863667D01*
X342381Y-863667D02*
X332857Y-892238D01*
X332857Y-892238D02*
X218571Y-1006524D01*
X218571Y-1006524D02*
X342381Y-1006524D01*
X428095Y-987476D02*
X437619Y-997000D01*
X437619Y-997000D02*
X428095Y-1006524D01*
X428095Y-1006524D02*
X418571Y-997000D01*
X418571Y-997000D02*
X428095Y-987476D01*
X428095Y-987476D02*
X428095Y-1006524D01*
X628095Y-1006524D02*
X513809Y-1006524D01*
X570952Y-1006524D02*
X570952Y-806524D01*
X570952Y-806524D02*
X551905Y-835095D01*
X551905Y-835095D02*
X532857Y-854143D01*
X532857Y-854143D02*
X513809Y-863667D01*
X751905Y-806524D02*
X770952Y-806524D01*
X770952Y-806524D02*
X790000Y-816048D01*
X790000Y-816048D02*
X799524Y-825571D01*
X799524Y-825571D02*
X809048Y-844619D01*
X809048Y-844619D02*
X818571Y-882714D01*
X818571Y-882714D02*
X818571Y-930333D01*
X818571Y-930333D02*
X809048Y-968428D01*
X809048Y-968428D02*
X799524Y-987476D01*
X799524Y-987476D02*
X790000Y-997000D01*
X790000Y-997000D02*
X770952Y-1006524D01*
X770952Y-1006524D02*
X751905Y-1006524D01*
X751905Y-1006524D02*
X732857Y-997000D01*
X732857Y-997000D02*
X723333Y-987476D01*
X723333Y-987476D02*
X713809Y-968428D01*
X713809Y-968428D02*
X704286Y-930333D01*
X704286Y-930333D02*
X704286Y-882714D01*
X704286Y-882714D02*
X713809Y-844619D01*
X713809Y-844619D02*
X723333Y-825571D01*
X723333Y-825571D02*
X732857Y-816048D01*
X732857Y-816048D02*
X751905Y-806524D01*
X942381Y-806524D02*
X961429Y-806524D01*
X961429Y-806524D02*
X980476Y-816048D01*
X980476Y-816048D02*
X990000Y-825571D01*
X990000Y-825571D02*
X999524Y-844619D01*
X999524Y-844619D02*
X1009048Y-882714D01*
X1009048Y-882714D02*
X1009048Y-930333D01*
X1009048Y-930333D02*
X999524Y-968428D01*
X999524Y-968428D02*
X990000Y-987476D01*
X990000Y-987476D02*
X980476Y-997000D01*
X980476Y-997000D02*
X961429Y-1006524D01*
X961429Y-1006524D02*
X942381Y-1006524D01*
X942381Y-1006524D02*
X923333Y-997000D01*
X923333Y-997000D02*
X913809Y-987476D01*
X913809Y-987476D02*
X904286Y-968428D01*
X904286Y-968428D02*
X894762Y-930333D01*
X894762Y-930333D02*
X894762Y-882714D01*
X894762Y-882714D02*
X904286Y-844619D01*
X904286Y-844619D02*
X913809Y-825571D01*
X913809Y-825571D02*
X923333Y-816048D01*
X923333Y-816048D02*
X942381Y-806524D01*
X1094762Y-1006524D02*
X1094762Y-873190D01*
X1094762Y-892238D02*
X1104286Y-882714D01*
X1104286Y-882714D02*
X1123333Y-873190D01*
X1123333Y-873190D02*
X1151905Y-873190D01*
X1151905Y-873190D02*
X1170952Y-882714D01*
X1170952Y-882714D02*
X1180476Y-901762D01*
X1180476Y-901762D02*
X1180476Y-1006524D01*
X1180476Y-901762D02*
X1190000Y-882714D01*
X1190000Y-882714D02*
X1209048Y-873190D01*
X1209048Y-873190D02*
X1237619Y-873190D01*
X1237619Y-873190D02*
X1256667Y-882714D01*
X1256667Y-882714D02*
X1266191Y-901762D01*
X1266191Y-901762D02*
X1266191Y-1006524D01*
X1361429Y-1006524D02*
X1361429Y-873190D01*
X1361429Y-892238D02*
X1370952Y-882714D01*
X1370952Y-882714D02*
X1390000Y-873190D01*
X1390000Y-873190D02*
X1418571Y-873190D01*
X1418571Y-873190D02*
X1437619Y-882714D01*
X1437619Y-882714D02*
X1447143Y-901762D01*
X1447143Y-901762D02*
X1447143Y-1006524D01*
X1447143Y-901762D02*
X1456667Y-882714D01*
X1456667Y-882714D02*
X1475714Y-873190D01*
X1475714Y-873190D02*
X1504286Y-873190D01*
X1504286Y-873190D02*
X1523333Y-882714D01*
X1523333Y-882714D02*
X1532857Y-901762D01*
X1532857Y-901762D02*
X1532857Y-1006524D01*
X1923333Y-797000D02*
X1751905Y-1054143D01*
X2180476Y-806524D02*
X2199524Y-806524D01*
X2199524Y-806524D02*
X2218572Y-816048D01*
X2218572Y-816048D02*
X2228095Y-825571D01*
X2228095Y-825571D02*
X2237619Y-844619D01*
X2237619Y-844619D02*
X2247143Y-882714D01*
X2247143Y-882714D02*
X2247143Y-930333D01*
X2247143Y-930333D02*
X2237619Y-968428D01*
X2237619Y-968428D02*
X2228095Y-987476D01*
X2228095Y-987476D02*
X2218572Y-997000D01*
X2218572Y-997000D02*
X2199524Y-1006524D01*
X2199524Y-1006524D02*
X2180476Y-1006524D01*
X2180476Y-1006524D02*
X2161429Y-997000D01*
X2161429Y-997000D02*
X2151905Y-987476D01*
X2151905Y-987476D02*
X2142381Y-968428D01*
X2142381Y-968428D02*
X2132857Y-930333D01*
X2132857Y-930333D02*
X2132857Y-882714D01*
X2132857Y-882714D02*
X2142381Y-844619D01*
X2142381Y-844619D02*
X2151905Y-825571D01*
X2151905Y-825571D02*
X2161429Y-816048D01*
X2161429Y-816048D02*
X2180476Y-806524D01*
X2332857Y-987476D02*
X2342381Y-997000D01*
X2342381Y-997000D02*
X2332857Y-1006524D01*
X2332857Y-1006524D02*
X2323334Y-997000D01*
X2323334Y-997000D02*
X2332857Y-987476D01*
X2332857Y-987476D02*
X2332857Y-1006524D01*
X2466191Y-806524D02*
X2485238Y-806524D01*
X2485238Y-806524D02*
X2504286Y-816048D01*
X2504286Y-816048D02*
X2513810Y-825571D01*
X2513810Y-825571D02*
X2523334Y-844619D01*
X2523334Y-844619D02*
X2532857Y-882714D01*
X2532857Y-882714D02*
X2532857Y-930333D01*
X2532857Y-930333D02*
X2523334Y-968428D01*
X2523334Y-968428D02*
X2513810Y-987476D01*
X2513810Y-987476D02*
X2504286Y-997000D01*
X2504286Y-997000D02*
X2485238Y-1006524D01*
X2485238Y-1006524D02*
X2466191Y-1006524D01*
X2466191Y-1006524D02*
X2447143Y-997000D01*
X2447143Y-997000D02*
X2437619Y-987476D01*
X2437619Y-987476D02*
X2428095Y-968428D01*
X2428095Y-968428D02*
X2418572Y-930333D01*
X2418572Y-930333D02*
X2418572Y-882714D01*
X2418572Y-882714D02*
X2428095Y-844619D01*
X2428095Y-844619D02*
X2437619Y-825571D01*
X2437619Y-825571D02*
X2447143Y-816048D01*
X2447143Y-816048D02*
X2466191Y-806524D01*
X2647143Y-892238D02*
X2628095Y-882714D01*
X2628095Y-882714D02*
X2618572Y-873190D01*
X2618572Y-873190D02*
X2609048Y-854143D01*
X2609048Y-854143D02*
X2609048Y-844619D01*
X2609048Y-844619D02*
X2618572Y-825571D01*
X2618572Y-825571D02*
X2628095Y-816048D01*
X2628095Y-816048D02*
X2647143Y-806524D01*
X2647143Y-806524D02*
X2685238Y-806524D01*
X2685238Y-806524D02*
X2704286Y-816048D01*
X2704286Y-816048D02*
X2713810Y-825571D01*
X2713810Y-825571D02*
X2723334Y-844619D01*
X2723334Y-844619D02*
X2723334Y-854143D01*
X2723334Y-854143D02*
X2713810Y-873190D01*
X2713810Y-873190D02*
X2704286Y-882714D01*
X2704286Y-882714D02*
X2685238Y-892238D01*
X2685238Y-892238D02*
X2647143Y-892238D01*
X2647143Y-892238D02*
X2628095Y-901762D01*
X2628095Y-901762D02*
X2618572Y-911286D01*
X2618572Y-911286D02*
X2609048Y-930333D01*
X2609048Y-930333D02*
X2609048Y-968428D01*
X2609048Y-968428D02*
X2618572Y-987476D01*
X2618572Y-987476D02*
X2628095Y-997000D01*
X2628095Y-997000D02*
X2647143Y-1006524D01*
X2647143Y-1006524D02*
X2685238Y-1006524D01*
X2685238Y-1006524D02*
X2704286Y-997000D01*
X2704286Y-997000D02*
X2713810Y-987476D01*
X2713810Y-987476D02*
X2723334Y-968428D01*
X2723334Y-968428D02*
X2723334Y-930333D01*
X2723334Y-930333D02*
X2713810Y-911286D01*
X2713810Y-911286D02*
X2704286Y-901762D01*
X2704286Y-901762D02*
X2685238Y-892238D01*
X2799524Y-825571D02*
X2809048Y-816048D01*
X2809048Y-816048D02*
X2828095Y-806524D01*
X2828095Y-806524D02*
X2875714Y-806524D01*
X2875714Y-806524D02*
X2894762Y-816048D01*
X2894762Y-816048D02*
X2904286Y-825571D01*
X2904286Y-825571D02*
X2913810Y-844619D01*
X2913810Y-844619D02*
X2913810Y-863667D01*
X2913810Y-863667D02*
X2904286Y-892238D01*
X2904286Y-892238D02*
X2790000Y-1006524D01*
X2790000Y-1006524D02*
X2913810Y-1006524D01*
X2980476Y-806524D02*
X3113810Y-806524D01*
X3113810Y-806524D02*
X3028095Y-1006524D01*
X3180476Y-806524D02*
X3180476Y-844619D01*
X3256667Y-806524D02*
X3256667Y-844619D01*
X3551905Y-1082714D02*
X3542381Y-1073190D01*
X3542381Y-1073190D02*
X3523334Y-1044619D01*
X3523334Y-1044619D02*
X3513810Y-1025571D01*
X3513810Y-1025571D02*
X3504286Y-997000D01*
X3504286Y-997000D02*
X3494762Y-949381D01*
X3494762Y-949381D02*
X3494762Y-911286D01*
X3494762Y-911286D02*
X3504286Y-863667D01*
X3504286Y-863667D02*
X3513810Y-835095D01*
X3513810Y-835095D02*
X3523334Y-816048D01*
X3523334Y-816048D02*
X3542381Y-787476D01*
X3542381Y-787476D02*
X3551905Y-777952D01*
X3609048Y-806524D02*
X3732857Y-806524D01*
X3732857Y-806524D02*
X3666191Y-882714D01*
X3666191Y-882714D02*
X3694762Y-882714D01*
X3694762Y-882714D02*
X3713810Y-892238D01*
X3713810Y-892238D02*
X3723334Y-901762D01*
X3723334Y-901762D02*
X3732857Y-920809D01*
X3732857Y-920809D02*
X3732857Y-968428D01*
X3732857Y-968428D02*
X3723334Y-987476D01*
X3723334Y-987476D02*
X3713810Y-997000D01*
X3713810Y-997000D02*
X3694762Y-1006524D01*
X3694762Y-1006524D02*
X3637619Y-1006524D01*
X3637619Y-1006524D02*
X3618572Y-997000D01*
X3618572Y-997000D02*
X3609048Y-987476D01*
X3970953Y-1006524D02*
X3970953Y-806524D01*
X4056667Y-1006524D02*
X4056667Y-901762D01*
X4056667Y-901762D02*
X4047143Y-882714D01*
X4047143Y-882714D02*
X4028096Y-873190D01*
X4028096Y-873190D02*
X3999524Y-873190D01*
X3999524Y-873190D02*
X3980476Y-882714D01*
X3980476Y-882714D02*
X3970953Y-892238D01*
X4180476Y-1006524D02*
X4161429Y-997000D01*
X4161429Y-997000D02*
X4151905Y-987476D01*
X4151905Y-987476D02*
X4142381Y-968428D01*
X4142381Y-968428D02*
X4142381Y-911286D01*
X4142381Y-911286D02*
X4151905Y-892238D01*
X4151905Y-892238D02*
X4161429Y-882714D01*
X4161429Y-882714D02*
X4180476Y-873190D01*
X4180476Y-873190D02*
X4209048Y-873190D01*
X4209048Y-873190D02*
X4228096Y-882714D01*
X4228096Y-882714D02*
X4237619Y-892238D01*
X4237619Y-892238D02*
X4247143Y-911286D01*
X4247143Y-911286D02*
X4247143Y-968428D01*
X4247143Y-968428D02*
X4237619Y-987476D01*
X4237619Y-987476D02*
X4228096Y-997000D01*
X4228096Y-997000D02*
X4209048Y-1006524D01*
X4209048Y-1006524D02*
X4180476Y-1006524D01*
X4361429Y-1006524D02*
X4342381Y-997000D01*
X4342381Y-997000D02*
X4332858Y-977952D01*
X4332858Y-977952D02*
X4332858Y-806524D01*
X4513810Y-997000D02*
X4494762Y-1006524D01*
X4494762Y-1006524D02*
X4456667Y-1006524D01*
X4456667Y-1006524D02*
X4437619Y-997000D01*
X4437619Y-997000D02*
X4428096Y-977952D01*
X4428096Y-977952D02*
X4428096Y-901762D01*
X4428096Y-901762D02*
X4437619Y-882714D01*
X4437619Y-882714D02*
X4456667Y-873190D01*
X4456667Y-873190D02*
X4494762Y-873190D01*
X4494762Y-873190D02*
X4513810Y-882714D01*
X4513810Y-882714D02*
X4523334Y-901762D01*
X4523334Y-901762D02*
X4523334Y-920809D01*
X4523334Y-920809D02*
X4428096Y-939857D01*
X4599524Y-997000D02*
X4618572Y-1006524D01*
X4618572Y-1006524D02*
X4656667Y-1006524D01*
X4656667Y-1006524D02*
X4675715Y-997000D01*
X4675715Y-997000D02*
X4685239Y-977952D01*
X4685239Y-977952D02*
X4685239Y-968428D01*
X4685239Y-968428D02*
X4675715Y-949381D01*
X4675715Y-949381D02*
X4656667Y-939857D01*
X4656667Y-939857D02*
X4628096Y-939857D01*
X4628096Y-939857D02*
X4609048Y-930333D01*
X4609048Y-930333D02*
X4599524Y-911286D01*
X4599524Y-911286D02*
X4599524Y-901762D01*
X4599524Y-901762D02*
X4609048Y-882714D01*
X4609048Y-882714D02*
X4628096Y-873190D01*
X4628096Y-873190D02*
X4656667Y-873190D01*
X4656667Y-873190D02*
X4675715Y-882714D01*
X4751905Y-1082714D02*
X4761429Y-1073190D01*
X4761429Y-1073190D02*
X4780477Y-1044619D01*
X4780477Y-1044619D02*
X4790000Y-1025571D01*
X4790000Y-1025571D02*
X4799524Y-997000D01*
X4799524Y-997000D02*
X4809048Y-949381D01*
X4809048Y-949381D02*
X4809048Y-911286D01*
X4809048Y-911286D02*
X4799524Y-863667D01*
X4799524Y-863667D02*
X4790000Y-835095D01*
X4790000Y-835095D02*
X4780477Y-816048D01*
X4780477Y-816048D02*
X4761429Y-787476D01*
X4761429Y-787476D02*
X4751905Y-777952D01*
X5113810Y-1082714D02*
X5104286Y-1073190D01*
X5104286Y-1073190D02*
X5085239Y-1044619D01*
X5085239Y-1044619D02*
X5075715Y-1025571D01*
X5075715Y-1025571D02*
X5066191Y-997000D01*
X5066191Y-997000D02*
X5056667Y-949381D01*
X5056667Y-949381D02*
X5056667Y-911286D01*
X5056667Y-911286D02*
X5066191Y-863667D01*
X5066191Y-863667D02*
X5075715Y-835095D01*
X5075715Y-835095D02*
X5085239Y-816048D01*
X5085239Y-816048D02*
X5104286Y-787476D01*
X5104286Y-787476D02*
X5113810Y-777952D01*
X5190000Y-873190D02*
X5190000Y-1006524D01*
X5190000Y-892238D02*
X5199524Y-882714D01*
X5199524Y-882714D02*
X5218572Y-873190D01*
X5218572Y-873190D02*
X5247143Y-873190D01*
X5247143Y-873190D02*
X5266191Y-882714D01*
X5266191Y-882714D02*
X5275715Y-901762D01*
X5275715Y-901762D02*
X5275715Y-1006524D01*
X5399524Y-1006524D02*
X5380477Y-997000D01*
X5380477Y-997000D02*
X5370953Y-987476D01*
X5370953Y-987476D02*
X5361429Y-968428D01*
X5361429Y-968428D02*
X5361429Y-911286D01*
X5361429Y-911286D02*
X5370953Y-892238D01*
X5370953Y-892238D02*
X5380477Y-882714D01*
X5380477Y-882714D02*
X5399524Y-873190D01*
X5399524Y-873190D02*
X5428096Y-873190D01*
X5428096Y-873190D02*
X5447143Y-882714D01*
X5447143Y-882714D02*
X5456667Y-892238D01*
X5456667Y-892238D02*
X5466191Y-911286D01*
X5466191Y-911286D02*
X5466191Y-968428D01*
X5466191Y-968428D02*
X5456667Y-987476D01*
X5456667Y-987476D02*
X5447143Y-997000D01*
X5447143Y-997000D02*
X5428096Y-1006524D01*
X5428096Y-1006524D02*
X5399524Y-1006524D01*
X5523334Y-873190D02*
X5599524Y-873190D01*
X5551905Y-806524D02*
X5551905Y-977952D01*
X5551905Y-977952D02*
X5561429Y-997000D01*
X5561429Y-997000D02*
X5580477Y-1006524D01*
X5580477Y-1006524D02*
X5599524Y-1006524D01*
X5818572Y-873190D02*
X5818572Y-1073190D01*
X5818572Y-882714D02*
X5837619Y-873190D01*
X5837619Y-873190D02*
X5875715Y-873190D01*
X5875715Y-873190D02*
X5894762Y-882714D01*
X5894762Y-882714D02*
X5904286Y-892238D01*
X5904286Y-892238D02*
X5913810Y-911286D01*
X5913810Y-911286D02*
X5913810Y-968428D01*
X5913810Y-968428D02*
X5904286Y-987476D01*
X5904286Y-987476D02*
X5894762Y-997000D01*
X5894762Y-997000D02*
X5875715Y-1006524D01*
X5875715Y-1006524D02*
X5837619Y-1006524D01*
X5837619Y-1006524D02*
X5818572Y-997000D01*
X6028096Y-1006524D02*
X6009048Y-997000D01*
X6009048Y-997000D02*
X5999524Y-977952D01*
X5999524Y-977952D02*
X5999524Y-806524D01*
X6190000Y-1006524D02*
X6190000Y-901762D01*
X6190000Y-901762D02*
X6180477Y-882714D01*
X6180477Y-882714D02*
X6161429Y-873190D01*
X6161429Y-873190D02*
X6123334Y-873190D01*
X6123334Y-873190D02*
X6104286Y-882714D01*
X6190000Y-997000D02*
X6170953Y-1006524D01*
X6170953Y-1006524D02*
X6123334Y-1006524D01*
X6123334Y-1006524D02*
X6104286Y-997000D01*
X6104286Y-997000D02*
X6094762Y-977952D01*
X6094762Y-977952D02*
X6094762Y-958905D01*
X6094762Y-958905D02*
X6104286Y-939857D01*
X6104286Y-939857D02*
X6123334Y-930333D01*
X6123334Y-930333D02*
X6170953Y-930333D01*
X6170953Y-930333D02*
X6190000Y-920809D01*
X6256667Y-873190D02*
X6332858Y-873190D01*
X6285239Y-806524D02*
X6285239Y-977952D01*
X6285239Y-977952D02*
X6294762Y-997000D01*
X6294762Y-997000D02*
X6313810Y-1006524D01*
X6313810Y-1006524D02*
X6332858Y-1006524D01*
X6475715Y-997000D02*
X6456667Y-1006524D01*
X6456667Y-1006524D02*
X6418572Y-1006524D01*
X6418572Y-1006524D02*
X6399524Y-997000D01*
X6399524Y-997000D02*
X6390000Y-977952D01*
X6390000Y-977952D02*
X6390000Y-901762D01*
X6390000Y-901762D02*
X6399524Y-882714D01*
X6399524Y-882714D02*
X6418572Y-873190D01*
X6418572Y-873190D02*
X6456667Y-873190D01*
X6456667Y-873190D02*
X6475715Y-882714D01*
X6475715Y-882714D02*
X6485239Y-901762D01*
X6485239Y-901762D02*
X6485239Y-920809D01*
X6485239Y-920809D02*
X6390000Y-939857D01*
X6656667Y-1006524D02*
X6656667Y-806524D01*
X6656667Y-997000D02*
X6637620Y-1006524D01*
X6637620Y-1006524D02*
X6599524Y-1006524D01*
X6599524Y-1006524D02*
X6580477Y-997000D01*
X6580477Y-997000D02*
X6570953Y-987476D01*
X6570953Y-987476D02*
X6561429Y-968428D01*
X6561429Y-968428D02*
X6561429Y-911286D01*
X6561429Y-911286D02*
X6570953Y-892238D01*
X6570953Y-892238D02*
X6580477Y-882714D01*
X6580477Y-882714D02*
X6599524Y-873190D01*
X6599524Y-873190D02*
X6637620Y-873190D01*
X6637620Y-873190D02*
X6656667Y-882714D01*
X6732858Y-1082714D02*
X6742381Y-1073190D01*
X6742381Y-1073190D02*
X6761429Y-1044619D01*
X6761429Y-1044619D02*
X6770953Y-1025571D01*
X6770953Y-1025571D02*
X6780477Y-997000D01*
X6780477Y-997000D02*
X6790000Y-949381D01*
X6790000Y-949381D02*
X6790000Y-911286D01*
X6790000Y-911286D02*
X6780477Y-863667D01*
X6780477Y-863667D02*
X6770953Y-835095D01*
X6770953Y-835095D02*
X6761429Y-816048D01*
X6761429Y-816048D02*
X6742381Y-787476D01*
X6742381Y-787476D02*
X6732858Y-777952D01*
X-110000Y-1134000D02*
X-110000Y-1334000D01*
X-210000Y-1234000D02*
X-10000Y-1234000D01*
X218571Y-1126524D02*
X342381Y-1126524D01*
X342381Y-1126524D02*
X275714Y-1202714D01*
X275714Y-1202714D02*
X304286Y-1202714D01*
X304286Y-1202714D02*
X323333Y-1212238D01*
X323333Y-1212238D02*
X332857Y-1221762D01*
X332857Y-1221762D02*
X342381Y-1240810D01*
X342381Y-1240810D02*
X342381Y-1288429D01*
X342381Y-1288429D02*
X332857Y-1307476D01*
X332857Y-1307476D02*
X323333Y-1317000D01*
X323333Y-1317000D02*
X304286Y-1326524D01*
X304286Y-1326524D02*
X247143Y-1326524D01*
X247143Y-1326524D02*
X228095Y-1317000D01*
X228095Y-1317000D02*
X218571Y-1307476D01*
X428095Y-1307476D02*
X437619Y-1317000D01*
X437619Y-1317000D02*
X428095Y-1326524D01*
X428095Y-1326524D02*
X418571Y-1317000D01*
X418571Y-1317000D02*
X428095Y-1307476D01*
X428095Y-1307476D02*
X428095Y-1326524D01*
X561429Y-1126524D02*
X580476Y-1126524D01*
X580476Y-1126524D02*
X599524Y-1136048D01*
X599524Y-1136048D02*
X609048Y-1145571D01*
X609048Y-1145571D02*
X618571Y-1164619D01*
X618571Y-1164619D02*
X628095Y-1202714D01*
X628095Y-1202714D02*
X628095Y-1250333D01*
X628095Y-1250333D02*
X618571Y-1288429D01*
X618571Y-1288429D02*
X609048Y-1307476D01*
X609048Y-1307476D02*
X599524Y-1317000D01*
X599524Y-1317000D02*
X580476Y-1326524D01*
X580476Y-1326524D02*
X561429Y-1326524D01*
X561429Y-1326524D02*
X542381Y-1317000D01*
X542381Y-1317000D02*
X532857Y-1307476D01*
X532857Y-1307476D02*
X523333Y-1288429D01*
X523333Y-1288429D02*
X513809Y-1250333D01*
X513809Y-1250333D02*
X513809Y-1202714D01*
X513809Y-1202714D02*
X523333Y-1164619D01*
X523333Y-1164619D02*
X532857Y-1145571D01*
X532857Y-1145571D02*
X542381Y-1136048D01*
X542381Y-1136048D02*
X561429Y-1126524D01*
X751905Y-1126524D02*
X770952Y-1126524D01*
X770952Y-1126524D02*
X790000Y-1136048D01*
X790000Y-1136048D02*
X799524Y-1145571D01*
X799524Y-1145571D02*
X809048Y-1164619D01*
X809048Y-1164619D02*
X818571Y-1202714D01*
X818571Y-1202714D02*
X818571Y-1250333D01*
X818571Y-1250333D02*
X809048Y-1288429D01*
X809048Y-1288429D02*
X799524Y-1307476D01*
X799524Y-1307476D02*
X790000Y-1317000D01*
X790000Y-1317000D02*
X770952Y-1326524D01*
X770952Y-1326524D02*
X751905Y-1326524D01*
X751905Y-1326524D02*
X732857Y-1317000D01*
X732857Y-1317000D02*
X723333Y-1307476D01*
X723333Y-1307476D02*
X713809Y-1288429D01*
X713809Y-1288429D02*
X704286Y-1250333D01*
X704286Y-1250333D02*
X704286Y-1202714D01*
X704286Y-1202714D02*
X713809Y-1164619D01*
X713809Y-1164619D02*
X723333Y-1145571D01*
X723333Y-1145571D02*
X732857Y-1136048D01*
X732857Y-1136048D02*
X751905Y-1126524D01*
X942381Y-1126524D02*
X961429Y-1126524D01*
X961429Y-1126524D02*
X980476Y-1136048D01*
X980476Y-1136048D02*
X990000Y-1145571D01*
X990000Y-1145571D02*
X999524Y-1164619D01*
X999524Y-1164619D02*
X1009048Y-1202714D01*
X1009048Y-1202714D02*
X1009048Y-1250333D01*
X1009048Y-1250333D02*
X999524Y-1288429D01*
X999524Y-1288429D02*
X990000Y-1307476D01*
X990000Y-1307476D02*
X980476Y-1317000D01*
X980476Y-1317000D02*
X961429Y-1326524D01*
X961429Y-1326524D02*
X942381Y-1326524D01*
X942381Y-1326524D02*
X923333Y-1317000D01*
X923333Y-1317000D02*
X913809Y-1307476D01*
X913809Y-1307476D02*
X904286Y-1288429D01*
X904286Y-1288429D02*
X894762Y-1250333D01*
X894762Y-1250333D02*
X894762Y-1202714D01*
X894762Y-1202714D02*
X904286Y-1164619D01*
X904286Y-1164619D02*
X913809Y-1145571D01*
X913809Y-1145571D02*
X923333Y-1136048D01*
X923333Y-1136048D02*
X942381Y-1126524D01*
X1094762Y-1326524D02*
X1094762Y-1193190D01*
X1094762Y-1212238D02*
X1104286Y-1202714D01*
X1104286Y-1202714D02*
X1123333Y-1193190D01*
X1123333Y-1193190D02*
X1151905Y-1193190D01*
X1151905Y-1193190D02*
X1170952Y-1202714D01*
X1170952Y-1202714D02*
X1180476Y-1221762D01*
X1180476Y-1221762D02*
X1180476Y-1326524D01*
X1180476Y-1221762D02*
X1190000Y-1202714D01*
X1190000Y-1202714D02*
X1209048Y-1193190D01*
X1209048Y-1193190D02*
X1237619Y-1193190D01*
X1237619Y-1193190D02*
X1256667Y-1202714D01*
X1256667Y-1202714D02*
X1266191Y-1221762D01*
X1266191Y-1221762D02*
X1266191Y-1326524D01*
X1361429Y-1326524D02*
X1361429Y-1193190D01*
X1361429Y-1212238D02*
X1370952Y-1202714D01*
X1370952Y-1202714D02*
X1390000Y-1193190D01*
X1390000Y-1193190D02*
X1418571Y-1193190D01*
X1418571Y-1193190D02*
X1437619Y-1202714D01*
X1437619Y-1202714D02*
X1447143Y-1221762D01*
X1447143Y-1221762D02*
X1447143Y-1326524D01*
X1447143Y-1221762D02*
X1456667Y-1202714D01*
X1456667Y-1202714D02*
X1475714Y-1193190D01*
X1475714Y-1193190D02*
X1504286Y-1193190D01*
X1504286Y-1193190D02*
X1523333Y-1202714D01*
X1523333Y-1202714D02*
X1532857Y-1221762D01*
X1532857Y-1221762D02*
X1532857Y-1326524D01*
X1923333Y-1117000D02*
X1751905Y-1374143D01*
X2180476Y-1126524D02*
X2199524Y-1126524D01*
X2199524Y-1126524D02*
X2218572Y-1136048D01*
X2218572Y-1136048D02*
X2228095Y-1145571D01*
X2228095Y-1145571D02*
X2237619Y-1164619D01*
X2237619Y-1164619D02*
X2247143Y-1202714D01*
X2247143Y-1202714D02*
X2247143Y-1250333D01*
X2247143Y-1250333D02*
X2237619Y-1288429D01*
X2237619Y-1288429D02*
X2228095Y-1307476D01*
X2228095Y-1307476D02*
X2218572Y-1317000D01*
X2218572Y-1317000D02*
X2199524Y-1326524D01*
X2199524Y-1326524D02*
X2180476Y-1326524D01*
X2180476Y-1326524D02*
X2161429Y-1317000D01*
X2161429Y-1317000D02*
X2151905Y-1307476D01*
X2151905Y-1307476D02*
X2142381Y-1288429D01*
X2142381Y-1288429D02*
X2132857Y-1250333D01*
X2132857Y-1250333D02*
X2132857Y-1202714D01*
X2132857Y-1202714D02*
X2142381Y-1164619D01*
X2142381Y-1164619D02*
X2151905Y-1145571D01*
X2151905Y-1145571D02*
X2161429Y-1136048D01*
X2161429Y-1136048D02*
X2180476Y-1126524D01*
X2332857Y-1307476D02*
X2342381Y-1317000D01*
X2342381Y-1317000D02*
X2332857Y-1326524D01*
X2332857Y-1326524D02*
X2323334Y-1317000D01*
X2323334Y-1317000D02*
X2332857Y-1307476D01*
X2332857Y-1307476D02*
X2332857Y-1326524D01*
X2532857Y-1326524D02*
X2418572Y-1326524D01*
X2475714Y-1326524D02*
X2475714Y-1126524D01*
X2475714Y-1126524D02*
X2456667Y-1155095D01*
X2456667Y-1155095D02*
X2437619Y-1174143D01*
X2437619Y-1174143D02*
X2418572Y-1183667D01*
X2723334Y-1326524D02*
X2609048Y-1326524D01*
X2666191Y-1326524D02*
X2666191Y-1126524D01*
X2666191Y-1126524D02*
X2647143Y-1155095D01*
X2647143Y-1155095D02*
X2628095Y-1174143D01*
X2628095Y-1174143D02*
X2609048Y-1183667D01*
X2837619Y-1212238D02*
X2818572Y-1202714D01*
X2818572Y-1202714D02*
X2809048Y-1193190D01*
X2809048Y-1193190D02*
X2799524Y-1174143D01*
X2799524Y-1174143D02*
X2799524Y-1164619D01*
X2799524Y-1164619D02*
X2809048Y-1145571D01*
X2809048Y-1145571D02*
X2818572Y-1136048D01*
X2818572Y-1136048D02*
X2837619Y-1126524D01*
X2837619Y-1126524D02*
X2875714Y-1126524D01*
X2875714Y-1126524D02*
X2894762Y-1136048D01*
X2894762Y-1136048D02*
X2904286Y-1145571D01*
X2904286Y-1145571D02*
X2913810Y-1164619D01*
X2913810Y-1164619D02*
X2913810Y-1174143D01*
X2913810Y-1174143D02*
X2904286Y-1193190D01*
X2904286Y-1193190D02*
X2894762Y-1202714D01*
X2894762Y-1202714D02*
X2875714Y-1212238D01*
X2875714Y-1212238D02*
X2837619Y-1212238D01*
X2837619Y-1212238D02*
X2818572Y-1221762D01*
X2818572Y-1221762D02*
X2809048Y-1231286D01*
X2809048Y-1231286D02*
X2799524Y-1250333D01*
X2799524Y-1250333D02*
X2799524Y-1288429D01*
X2799524Y-1288429D02*
X2809048Y-1307476D01*
X2809048Y-1307476D02*
X2818572Y-1317000D01*
X2818572Y-1317000D02*
X2837619Y-1326524D01*
X2837619Y-1326524D02*
X2875714Y-1326524D01*
X2875714Y-1326524D02*
X2894762Y-1317000D01*
X2894762Y-1317000D02*
X2904286Y-1307476D01*
X2904286Y-1307476D02*
X2913810Y-1288429D01*
X2913810Y-1288429D02*
X2913810Y-1250333D01*
X2913810Y-1250333D02*
X2904286Y-1231286D01*
X2904286Y-1231286D02*
X2894762Y-1221762D01*
X2894762Y-1221762D02*
X2875714Y-1212238D01*
X3104286Y-1326524D02*
X2990000Y-1326524D01*
X3047143Y-1326524D02*
X3047143Y-1126524D01*
X3047143Y-1126524D02*
X3028095Y-1155095D01*
X3028095Y-1155095D02*
X3009048Y-1174143D01*
X3009048Y-1174143D02*
X2990000Y-1183667D01*
X3180476Y-1126524D02*
X3180476Y-1164619D01*
X3256667Y-1126524D02*
X3256667Y-1164619D01*
X3551905Y-1402714D02*
X3542381Y-1393190D01*
X3542381Y-1393190D02*
X3523334Y-1364619D01*
X3523334Y-1364619D02*
X3513810Y-1345571D01*
X3513810Y-1345571D02*
X3504286Y-1317000D01*
X3504286Y-1317000D02*
X3494762Y-1269381D01*
X3494762Y-1269381D02*
X3494762Y-1231286D01*
X3494762Y-1231286D02*
X3504286Y-1183667D01*
X3504286Y-1183667D02*
X3513810Y-1155095D01*
X3513810Y-1155095D02*
X3523334Y-1136048D01*
X3523334Y-1136048D02*
X3542381Y-1107476D01*
X3542381Y-1107476D02*
X3551905Y-1097952D01*
X3732857Y-1326524D02*
X3618572Y-1326524D01*
X3675714Y-1326524D02*
X3675714Y-1126524D01*
X3675714Y-1126524D02*
X3656667Y-1155095D01*
X3656667Y-1155095D02*
X3637619Y-1174143D01*
X3637619Y-1174143D02*
X3618572Y-1183667D01*
X3970953Y-1326524D02*
X3970953Y-1126524D01*
X4056667Y-1326524D02*
X4056667Y-1221762D01*
X4056667Y-1221762D02*
X4047143Y-1202714D01*
X4047143Y-1202714D02*
X4028096Y-1193190D01*
X4028096Y-1193190D02*
X3999524Y-1193190D01*
X3999524Y-1193190D02*
X3980476Y-1202714D01*
X3980476Y-1202714D02*
X3970953Y-1212238D01*
X4180476Y-1326524D02*
X4161429Y-1317000D01*
X4161429Y-1317000D02*
X4151905Y-1307476D01*
X4151905Y-1307476D02*
X4142381Y-1288429D01*
X4142381Y-1288429D02*
X4142381Y-1231286D01*
X4142381Y-1231286D02*
X4151905Y-1212238D01*
X4151905Y-1212238D02*
X4161429Y-1202714D01*
X4161429Y-1202714D02*
X4180476Y-1193190D01*
X4180476Y-1193190D02*
X4209048Y-1193190D01*
X4209048Y-1193190D02*
X4228096Y-1202714D01*
X4228096Y-1202714D02*
X4237619Y-1212238D01*
X4237619Y-1212238D02*
X4247143Y-1231286D01*
X4247143Y-1231286D02*
X4247143Y-1288429D01*
X4247143Y-1288429D02*
X4237619Y-1307476D01*
X4237619Y-1307476D02*
X4228096Y-1317000D01*
X4228096Y-1317000D02*
X4209048Y-1326524D01*
X4209048Y-1326524D02*
X4180476Y-1326524D01*
X4361429Y-1326524D02*
X4342381Y-1317000D01*
X4342381Y-1317000D02*
X4332858Y-1297952D01*
X4332858Y-1297952D02*
X4332858Y-1126524D01*
X4513810Y-1317000D02*
X4494762Y-1326524D01*
X4494762Y-1326524D02*
X4456667Y-1326524D01*
X4456667Y-1326524D02*
X4437619Y-1317000D01*
X4437619Y-1317000D02*
X4428096Y-1297952D01*
X4428096Y-1297952D02*
X4428096Y-1221762D01*
X4428096Y-1221762D02*
X4437619Y-1202714D01*
X4437619Y-1202714D02*
X4456667Y-1193190D01*
X4456667Y-1193190D02*
X4494762Y-1193190D01*
X4494762Y-1193190D02*
X4513810Y-1202714D01*
X4513810Y-1202714D02*
X4523334Y-1221762D01*
X4523334Y-1221762D02*
X4523334Y-1240810D01*
X4523334Y-1240810D02*
X4428096Y-1259857D01*
X4590000Y-1402714D02*
X4599524Y-1393190D01*
X4599524Y-1393190D02*
X4618572Y-1364619D01*
X4618572Y-1364619D02*
X4628096Y-1345571D01*
X4628096Y-1345571D02*
X4637619Y-1317000D01*
X4637619Y-1317000D02*
X4647143Y-1269381D01*
X4647143Y-1269381D02*
X4647143Y-1231286D01*
X4647143Y-1231286D02*
X4637619Y-1183667D01*
X4637619Y-1183667D02*
X4628096Y-1155095D01*
X4628096Y-1155095D02*
X4618572Y-1136048D01*
X4618572Y-1136048D02*
X4599524Y-1107476D01*
X4599524Y-1107476D02*
X4590000Y-1097952D01*
X4951905Y-1402714D02*
X4942381Y-1393190D01*
X4942381Y-1393190D02*
X4923334Y-1364619D01*
X4923334Y-1364619D02*
X4913810Y-1345571D01*
X4913810Y-1345571D02*
X4904286Y-1317000D01*
X4904286Y-1317000D02*
X4894762Y-1269381D01*
X4894762Y-1269381D02*
X4894762Y-1231286D01*
X4894762Y-1231286D02*
X4904286Y-1183667D01*
X4904286Y-1183667D02*
X4913810Y-1155095D01*
X4913810Y-1155095D02*
X4923334Y-1136048D01*
X4923334Y-1136048D02*
X4942381Y-1107476D01*
X4942381Y-1107476D02*
X4951905Y-1097952D01*
X5028096Y-1193190D02*
X5028096Y-1326524D01*
X5028096Y-1212238D02*
X5037619Y-1202714D01*
X5037619Y-1202714D02*
X5056667Y-1193190D01*
X5056667Y-1193190D02*
X5085239Y-1193190D01*
X5085239Y-1193190D02*
X5104286Y-1202714D01*
X5104286Y-1202714D02*
X5113810Y-1221762D01*
X5113810Y-1221762D02*
X5113810Y-1326524D01*
X5237619Y-1326524D02*
X5218572Y-1317000D01*
X5218572Y-1317000D02*
X5209048Y-1307476D01*
X5209048Y-1307476D02*
X5199524Y-1288429D01*
X5199524Y-1288429D02*
X5199524Y-1231286D01*
X5199524Y-1231286D02*
X5209048Y-1212238D01*
X5209048Y-1212238D02*
X5218572Y-1202714D01*
X5218572Y-1202714D02*
X5237619Y-1193190D01*
X5237619Y-1193190D02*
X5266191Y-1193190D01*
X5266191Y-1193190D02*
X5285239Y-1202714D01*
X5285239Y-1202714D02*
X5294762Y-1212238D01*
X5294762Y-1212238D02*
X5304286Y-1231286D01*
X5304286Y-1231286D02*
X5304286Y-1288429D01*
X5304286Y-1288429D02*
X5294762Y-1307476D01*
X5294762Y-1307476D02*
X5285239Y-1317000D01*
X5285239Y-1317000D02*
X5266191Y-1326524D01*
X5266191Y-1326524D02*
X5237619Y-1326524D01*
X5361429Y-1193190D02*
X5437619Y-1193190D01*
X5390000Y-1126524D02*
X5390000Y-1297952D01*
X5390000Y-1297952D02*
X5399524Y-1317000D01*
X5399524Y-1317000D02*
X5418572Y-1326524D01*
X5418572Y-1326524D02*
X5437619Y-1326524D01*
X5656667Y-1193190D02*
X5656667Y-1393190D01*
X5656667Y-1202714D02*
X5675715Y-1193190D01*
X5675715Y-1193190D02*
X5713810Y-1193190D01*
X5713810Y-1193190D02*
X5732858Y-1202714D01*
X5732858Y-1202714D02*
X5742381Y-1212238D01*
X5742381Y-1212238D02*
X5751905Y-1231286D01*
X5751905Y-1231286D02*
X5751905Y-1288429D01*
X5751905Y-1288429D02*
X5742381Y-1307476D01*
X5742381Y-1307476D02*
X5732858Y-1317000D01*
X5732858Y-1317000D02*
X5713810Y-1326524D01*
X5713810Y-1326524D02*
X5675715Y-1326524D01*
X5675715Y-1326524D02*
X5656667Y-1317000D01*
X5866191Y-1326524D02*
X5847143Y-1317000D01*
X5847143Y-1317000D02*
X5837619Y-1297952D01*
X5837619Y-1297952D02*
X5837619Y-1126524D01*
X6028096Y-1326524D02*
X6028096Y-1221762D01*
X6028096Y-1221762D02*
X6018572Y-1202714D01*
X6018572Y-1202714D02*
X5999524Y-1193190D01*
X5999524Y-1193190D02*
X5961429Y-1193190D01*
X5961429Y-1193190D02*
X5942381Y-1202714D01*
X6028096Y-1317000D02*
X6009048Y-1326524D01*
X6009048Y-1326524D02*
X5961429Y-1326524D01*
X5961429Y-1326524D02*
X5942381Y-1317000D01*
X5942381Y-1317000D02*
X5932858Y-1297952D01*
X5932858Y-1297952D02*
X5932858Y-1278905D01*
X5932858Y-1278905D02*
X5942381Y-1259857D01*
X5942381Y-1259857D02*
X5961429Y-1250333D01*
X5961429Y-1250333D02*
X6009048Y-1250333D01*
X6009048Y-1250333D02*
X6028096Y-1240810D01*
X6094762Y-1193190D02*
X6170953Y-1193190D01*
X6123334Y-1126524D02*
X6123334Y-1297952D01*
X6123334Y-1297952D02*
X6132858Y-1317000D01*
X6132858Y-1317000D02*
X6151905Y-1326524D01*
X6151905Y-1326524D02*
X6170953Y-1326524D01*
X6313810Y-1317000D02*
X6294762Y-1326524D01*
X6294762Y-1326524D02*
X6256667Y-1326524D01*
X6256667Y-1326524D02*
X6237619Y-1317000D01*
X6237619Y-1317000D02*
X6228096Y-1297952D01*
X6228096Y-1297952D02*
X6228096Y-1221762D01*
X6228096Y-1221762D02*
X6237619Y-1202714D01*
X6237619Y-1202714D02*
X6256667Y-1193190D01*
X6256667Y-1193190D02*
X6294762Y-1193190D01*
X6294762Y-1193190D02*
X6313810Y-1202714D01*
X6313810Y-1202714D02*
X6323334Y-1221762D01*
X6323334Y-1221762D02*
X6323334Y-1240810D01*
X6323334Y-1240810D02*
X6228096Y-1259857D01*
X6494762Y-1326524D02*
X6494762Y-1126524D01*
X6494762Y-1317000D02*
X6475715Y-1326524D01*
X6475715Y-1326524D02*
X6437619Y-1326524D01*
X6437619Y-1326524D02*
X6418572Y-1317000D01*
X6418572Y-1317000D02*
X6409048Y-1307476D01*
X6409048Y-1307476D02*
X6399524Y-1288429D01*
X6399524Y-1288429D02*
X6399524Y-1231286D01*
X6399524Y-1231286D02*
X6409048Y-1212238D01*
X6409048Y-1212238D02*
X6418572Y-1202714D01*
X6418572Y-1202714D02*
X6437619Y-1193190D01*
X6437619Y-1193190D02*
X6475715Y-1193190D01*
X6475715Y-1193190D02*
X6494762Y-1202714D01*
X6570953Y-1402714D02*
X6580477Y-1393190D01*
X6580477Y-1393190D02*
X6599524Y-1364619D01*
X6599524Y-1364619D02*
X6609048Y-1345571D01*
X6609048Y-1345571D02*
X6618572Y-1317000D01*
X6618572Y-1317000D02*
X6628096Y-1269381D01*
X6628096Y-1269381D02*
X6628096Y-1231286D01*
X6628096Y-1231286D02*
X6618572Y-1183667D01*
X6618572Y-1183667D02*
X6609048Y-1155095D01*
X6609048Y-1155095D02*
X6599524Y-1136048D01*
X6599524Y-1136048D02*
X6580477Y-1107476D01*
X6580477Y-1107476D02*
X6570953Y-1097952D01*
M02*
